<?xml version="1.0" encoding="utf-8"?>
<!-- Generator: Adobe Illustrator 22.0.0, SVG Export Plug-In . SVG Version: 6.00 Build 0)  -->
<svg version="1.1" id="Layer_1" xmlns="http://www.w3.org/2000/svg" xmlns:xlink="http://www.w3.org/1999/xlink" x="0px" y="0px"
	 viewBox="0 0 240 262" style="enable-background:new 0 0 240 262;" xml:space="preserve">
<style type="text/css">
	.st0{enable-background:new    ;}
	.st1{clip-path:url(#SVGID_2_);enable-background:new    ;}
	.st2{fill:#001424;}
	.st3{fill:#001323;}
	.st4{fill:#001321;}
	.st5{clip-path:url(#SVGID_4_);enable-background:new    ;}
	.st6{fill:#00101C;}
	.st7{fill:#001526;}
	.st8{fill:#000F1C;}
	.st9{clip-path:url(#SVGID_6_);enable-background:new    ;}
	.st10{fill:#00101D;}
	.st11{fill:#00111E;}
	.st12{fill:#00111F;}
	.st13{fill:#001220;}
	.st14{fill:#001A2F;}
	.st15{clip-path:url(#SVGID_8_);enable-background:new    ;}
	.st16{fill:#1F6CA3;}
	.st17{fill:#1E689E;}
	.st18{fill:#1D6599;}
	.st19{fill:#1C6194;}
	.st20{fill:#1B5E8F;}
	.st21{fill:#1A5B8A;}
	.st22{fill:#195785;}
	.st23{clip-path:url(#SVGID_10_);enable-background:new    ;}
	.st24{fill:#206FA8;}
	.st25{clip-path:url(#SVGID_12_);enable-background:new    ;}
	.st26{clip-path:url(#SVGID_14_);enable-background:new    ;}
	.st27{clip-path:url(#SVGID_16_);enable-background:new    ;}
	.st28{clip-path:url(#SVGID_18_);enable-background:new    ;}
	.st29{clip-path:url(#SVGID_20_);enable-background:new    ;}
	.st30{clip-path:url(#SVGID_22_);enable-background:new    ;}
	.st31{fill:#195682;}
	.st32{clip-path:url(#SVGID_24_);enable-background:new    ;}
	.st33{clip-path:url(#SVGID_26_);enable-background:new    ;}
	.st34{clip-path:url(#SVGID_28_);enable-background:new    ;}
	.st35{clip-path:url(#SVGID_30_);enable-background:new    ;}
	.st36{clip-path:url(#SVGID_32_);enable-background:new    ;}
	.st37{clip-path:url(#SVGID_34_);enable-background:new    ;}
	.st38{fill:#2B93DF;}
	.st39{clip-path:url(#SVGID_36_);enable-background:new    ;}
	.st40{clip-path:url(#SVGID_38_);enable-background:new    ;}
	.st41{clip-path:url(#SVGID_40_);enable-background:new    ;}
	.st42{clip-path:url(#SVGID_42_);enable-background:new    ;}
	.st43{clip-path:url(#SVGID_44_);enable-background:new    ;}
	.st44{clip-path:url(#SVGID_46_);enable-background:new    ;}
	.st45{clip-path:url(#SVGID_48_);enable-background:new    ;}
	.st46{fill:#2377B4;}
	.st47{clip-path:url(#SVGID_50_);enable-background:new    ;}
	.st48{clip-path:url(#SVGID_52_);enable-background:new    ;}
	.st49{clip-path:url(#SVGID_54_);enable-background:new    ;}
</style>
<g id="Surfaces">
	<g>
		<g class="st0">
			<g class="st0">
				<defs>
					<path id="SVGID_1_" class="st0" d="M198,6.2l22.8,12.4c-5.8-3.2-12.8-4.5-20.2-3.5L177.8,2.7C185.2,1.7,192.2,3,198,6.2z"/>
				</defs>
				<clipPath id="SVGID_2_">
					<use xlink:href="#SVGID_1_"  style="overflow:visible;"/>
				</clipPath>
				<g class="st1">
					<path class="st2" d="M200.6,15.1L177.8,2.7c4.6-0.6,9-0.4,13.1,0.7l22.8,12.4C209.6,14.7,205.2,14.5,200.6,15.1"/>
					<path class="st3" d="M213.7,15.8L190.9,3.4c2.1,0.5,4.1,1.3,6,2.2L219.7,18C217.8,17.1,215.8,16.3,213.7,15.8"/>
					<path class="st4" d="M219.7,18L196.9,5.6c0.4,0.2,0.8,0.4,1.2,0.6l22.8,12.4C220.4,18.4,220.1,18.2,219.7,18"/>
				</g>
			</g>
			<g class="st0">
				<defs>
					<path id="SVGID_3_" class="st0" d="M42,255.8l-22.8-12.4c-10.6-5.7-17.6-17.5-17.5-32l22.8,12.4
						C24.4,238.3,31.4,250.1,42,255.8z"/>
				</defs>
				<clipPath id="SVGID_4_">
					<use xlink:href="#SVGID_3_"  style="overflow:visible;"/>
				</clipPath>
				<g class="st5">
					<path class="st6" d="M42,255.8l-22.8-12.4c-10.6-5.7-17.6-17.5-17.5-32l22.8,12.4C24.4,238.3,31.4,250.1,42,255.8"/>
				</g>
			</g>
			<g>
				<polygon class="st7" points="62.6,34.5 39.8,22.1 177.8,2.7 200.6,15.1 				"/>
			</g>
			<g>
				<polygon class="st8" points="24.5,223.8 1.7,211.4 1.9,68.2 24.7,80.6 				"/>
			</g>
			<g class="st0">
				<defs>
					<path id="SVGID_5_" class="st0" d="M24.7,80.6L1.9,68.2c0-22.6,17-43.2,37.9-46.1l22.8,12.4C41.7,37.4,24.8,58.1,24.7,80.6z"/>
				</defs>
				<clipPath id="SVGID_6_">
					<use xlink:href="#SVGID_5_"  style="overflow:visible;"/>
				</clipPath>
				<g class="st9">
					<path class="st6" d="M24.7,80.6L1.9,68.2c0-5.6,1-11,2.9-16.1l22.8,12.4C25.8,69.6,24.7,75.1,24.7,80.6"/>
					<path class="st10" d="M27.6,64.5L4.8,52.1c0.8-2.2,1.8-4.3,2.9-6.4l22.8,12.4C29.4,60.2,28.4,62.3,27.6,64.5"/>
					<path class="st11" d="M30.5,58.2L7.7,45.8c0.9-1.7,2-3.4,3.1-5l22.8,12.4C32.5,54.8,31.4,56.5,30.5,58.2"/>
					<path class="st12" d="M33.6,53.2L10.8,40.8c1.1-1.5,2.2-2.9,3.4-4.3L37,48.9C35.8,50.2,34.6,51.7,33.6,53.2"/>
					<path class="st13" d="M37,48.9L14.2,36.5c1.2-1.4,2.5-2.7,3.9-3.9L40.8,45C39.5,46.2,38.2,47.5,37,48.9"/>
					<path class="st4" d="M40.8,45L18,32.6c1.5-1.3,3-2.5,4.6-3.6l22.8,12.4C43.8,42.5,42.3,43.7,40.8,45"/>
					<path class="st3" d="M45.4,41.4L22.6,29c2-1.4,4-2.5,6.1-3.5l22.8,12.4C49.4,38.8,47.4,40,45.4,41.4"/>
					<path class="st2" d="M51.5,37.8L28.7,25.4c3.5-1.6,7.2-2.8,11.1-3.3l22.8,12.4C58.8,35,55,36.2,51.5,37.8"/>
				</g>
			</g>
			<g>
				<path class="st14" d="M200.6,15.1c20.9-2.9,37.8,12.9,37.8,35.5l-0.3,143.1c0,22.6-17,43.2-37.9,46.1l-138,19.4
					c-20.9,2.9-37.8-12.9-37.7-35.5l0.3-143.1c0-22.6,17-43.2,37.9-46.1L200.6,15.1z"/>
			</g>
		</g>
	</g>
</g>
<g id="Outlined_Mnemonics_Logos">
	<g>
		<g class="st0">
			<g class="st0">
				<defs>
					<path id="SVGID_7_" class="st0" d="M162.5,143l11.4,6.2c0.3,0.2,0.6,0.3,0.8,0.5c1.4,1.1,2.1,2.2,2.1,3.5c0,1.7-1,3.5-2.4,4.4
						l-11.4-6.2c1.4-0.9,2.4-2.6,2.4-4.4c0-1.3-0.7-2.5-2.1-3.5C163.1,143.4,162.9,143.2,162.5,143z"/>
				</defs>
				<clipPath id="SVGID_8_">
					<use xlink:href="#SVGID_7_"  style="overflow:visible;"/>
				</clipPath>
				<g class="st15">
					<path class="st16" d="M174.5,157.7l-11.4-6.2c0.1,0,0.1-0.1,0.2-0.1l11.4,6.2C174.6,157.6,174.5,157.6,174.5,157.7"/>
					<path class="st17" d="M174.7,157.5l-11.4-6.2c0.2-0.1,0.3-0.2,0.5-0.4l11.4,6.2C175,157.3,174.8,157.4,174.7,157.5"/>
					<path class="st18" d="M175.1,157.2l-11.4-6.2c0.1-0.1,0.3-0.3,0.4-0.4l11.4,6.2C175.4,156.9,175.3,157,175.1,157.2"/>
					<path class="st19" d="M175.5,156.8l-11.4-6.2c0.1-0.1,0.3-0.3,0.4-0.5l11.4,6.2C175.8,156.5,175.7,156.6,175.5,156.8"/>
					<path class="st20" d="M175.9,156.3l-11.4-6.2c0.1-0.2,0.2-0.4,0.3-0.6l11.4,6.2C176.1,155.9,176,156.1,175.9,156.3"/>
					<path class="st21" d="M176.2,155.7l-11.4-6.2c0.1-0.2,0.2-0.5,0.3-0.7l11.4,6.2C176.5,155.3,176.4,155.5,176.2,155.7"/>
					<path class="st22" d="M176.6,155l-11.4-6.2c0.2-0.6,0.3-1.2,0.3-1.7c0-1.3-0.7-2.5-2.1-3.5c-0.2-0.2-0.5-0.3-0.8-0.5l11.4,6.2
						c0.3,0.2,0.6,0.3,0.8,0.5c1.4,1.1,2.1,2.2,2.1,3.5C176.9,153.9,176.8,154.5,176.6,155"/>
				</g>
			</g>
			<g class="st0">
				<defs>
					<path id="SVGID_9_" class="st0" d="M180.4,91.2l11.4,6.2c-0.1-0.1-0.2-0.1-0.3-0.1l-11.4-6.2C180.2,91.1,180.3,91.1,180.4,91.2
						z"/>
				</defs>
				<clipPath id="SVGID_10_">
					<use xlink:href="#SVGID_9_"  style="overflow:visible;"/>
				</clipPath>
				<g class="st23">
					<path class="st24" d="M191.5,97.3l-11.4-6.2c0,0,0.1,0,0.1,0L191.5,97.3C191.6,97.3,191.5,97.3,191.5,97.3"/>
					<path class="st16" d="M191.6,97.3l-11.4-6.2c0.1,0,0.1,0,0.2,0.1l11.4,6.2C191.7,97.3,191.6,97.3,191.6,97.3"/>
					<path class="st17" d="M191.7,97.3l-11.4-6.2c0,0,0,0,0,0L191.7,97.3C191.8,97.3,191.8,97.3,191.7,97.3"/>
				</g>
			</g>
			<g class="st0">
				<defs>
					<path id="SVGID_11_" class="st0" d="M156.6,160.1l-11.4-6.2c3.4,0.5,6.9,0.5,10.5,0c3.4-0.5,5.8-1.3,7.4-2.4l11.4,6.2
						c-1.6,1.1-4,1.9-7.4,2.4C163.5,160.5,160,160.6,156.6,160.1z"/>
				</defs>
				<clipPath id="SVGID_12_">
					<use xlink:href="#SVGID_11_"  style="overflow:visible;"/>
				</clipPath>
				<g class="st25">
					<path class="st24" d="M156.6,160.1l-11.4-6.2c3.4,0.5,6.9,0.5,10.5,0c2.5-0.4,4.5-0.9,6-1.6l11.4,6.2c-1.5,0.7-3.5,1.3-6,1.6
						C163.5,160.5,160,160.6,156.6,160.1"/>
					<path class="st16" d="M173.1,158.4l-11.4-6.2c0.5-0.2,1-0.5,1.4-0.8l11.4,6.2C174.1,157.9,173.6,158.2,173.1,158.4"/>
				</g>
			</g>
			<g class="st0">
				<defs>
					<path id="SVGID_13_" class="st0" d="M173.4,127.4l-11.4-6.2c4.8,1.1,9.4,2.8,13.7,5.1l11.4,6.2
						C182.8,130.2,178.2,128.4,173.4,127.4z"/>
				</defs>
				<clipPath id="SVGID_14_">
					<use xlink:href="#SVGID_13_"  style="overflow:visible;"/>
				</clipPath>
				<g class="st26">
					<path class="st24" d="M173.4,127.4l-11.4-6.2c0.6,0.1,1.3,0.3,1.9,0.4l11.4,6.2C174.6,127.7,174,127.5,173.4,127.4"/>
					<path class="st16" d="M175.3,127.8l-11.4-6.2c3.5,0.9,6.9,2.2,10.2,3.8l11.4,6.2C182.2,130,178.8,128.7,175.3,127.8"/>
					<path class="st17" d="M185.4,131.6l-11.4-6.2c0.6,0.3,1.1,0.6,1.6,0.8l11.4,6.2C186.5,132.2,186,131.9,185.4,131.6"/>
				</g>
			</g>
			<g class="st0">
				<defs>
					<path id="SVGID_15_" class="st0" d="M145.2,176.2l-11.4-6.2c-0.6-0.3-1-0.9-0.9-1.6l11.4,6.2
						C144.3,175.3,144.7,175.9,145.2,176.2z"/>
				</defs>
				<clipPath id="SVGID_16_">
					<use xlink:href="#SVGID_15_"  style="overflow:visible;"/>
				</clipPath>
				<g class="st27">
					<path class="st22" d="M145.2,176.2l-11.4-6.2c-0.6-0.3-1-0.9-0.9-1.6l11.4,6.2C144.3,175.3,144.7,175.9,145.2,176.2"/>
				</g>
			</g>
			<g class="st0">
				<defs>
					<path id="SVGID_17_" class="st0" d="M166.3,124.7l-11.4-6.2c0.3,0.1,0.5,0.3,0.8,0.4c2,0.9,4.2,1.6,6.3,2.3l11.4,6.2
						c-2.1-0.7-4.3-1.4-6.3-2.3C166.8,125,166.5,124.8,166.3,124.7z"/>
				</defs>
				<clipPath id="SVGID_18_">
					<use xlink:href="#SVGID_17_"  style="overflow:visible;"/>
				</clipPath>
				<g class="st28">
					<path class="st17" d="M166.3,124.7l-11.4-6.2c0.1,0.1,0.2,0.1,0.4,0.2l11.4,6.2C166.5,124.8,166.4,124.8,166.3,124.7"/>
					<path class="st16" d="M166.6,124.9l-11.4-6.2c0.1,0.1,0.3,0.1,0.4,0.2c2,0.9,4.2,1.6,6.3,2.3l11.4,6.2
						c-2.1-0.7-4.3-1.4-6.3-2.3C166.9,125,166.8,125,166.6,124.9"/>
				</g>
			</g>
			<g class="st0">
				<defs>
					<path id="SVGID_19_" class="st0" d="M145.6,156.9l-11.4-6.2c3.5,1.7,7.1,2.7,11,3.2l11.4,6.2
						C152.7,159.7,149,158.6,145.6,156.9z"/>
				</defs>
				<clipPath id="SVGID_20_">
					<use xlink:href="#SVGID_19_"  style="overflow:visible;"/>
				</clipPath>
				<g class="st29">
					<path class="st17" d="M145.6,156.9l-11.4-6.2c0,0,0,0,0,0L145.6,156.9C145.6,156.9,145.6,156.9,145.6,156.9"/>
					<path class="st16" d="M145.6,156.9l-11.4-6.2c1.9,1,3.9,1.7,6,2.2l11.4,6.2C149.6,158.6,147.6,157.9,145.6,156.9"/>
					<path class="st24" d="M151.6,159.2l-11.4-6.2c1.6,0.4,3.3,0.7,5,0.9l11.4,6.2C154.9,159.9,153.2,159.6,151.6,159.2"/>
				</g>
			</g>
			<g class="st0">
				<defs>
					<path id="SVGID_21_" class="st0" d="M155,142.2l-11.4-6.2c-0.5-0.3-1.1-0.6-1.6-0.9l11.4,6.2
						C153.9,141.6,154.5,141.9,155,142.2z"/>
				</defs>
				<clipPath id="SVGID_22_">
					<use xlink:href="#SVGID_21_"  style="overflow:visible;"/>
				</clipPath>
				<g class="st30">
					<path class="st22" d="M155,142.2l-11.4-6.2c-0.5-0.3-1.1-0.6-1.6-0.9l11.4,6.2C153.9,141.6,154.5,141.9,155,142.2"/>
				</g>
			</g>
			<g>
				<polygon class="st31" points="144.4,174.6 133,168.4 133,151.7 144.4,157.9 				"/>
			</g>
			<g class="st0">
				<defs>
					<path id="SVGID_23_" class="st0" d="M134.1,150.7l11.4,6.2c-0.2-0.1-0.3-0.1-0.5-0.1c-0.1,0-0.2,0.1-0.3,0.2
						c-0.3,0.2-0.4,0.6-0.4,0.9l-11.4-6.2c0-0.3,0.1-0.7,0.4-0.9c0.1-0.1,0.2-0.1,0.3-0.2C133.8,150.6,134,150.6,134.1,150.7z"/>
				</defs>
				<clipPath id="SVGID_24_">
					<use xlink:href="#SVGID_23_"  style="overflow:visible;"/>
				</clipPath>
				<g class="st32">
					<path class="st22" d="M144.4,157.9l-11.4-6.2c0-0.2,0-0.3,0.1-0.5l11.4,6.2C144.4,157.5,144.4,157.7,144.4,157.9"/>
					<path class="st21" d="M144.5,157.3l-11.4-6.2c0-0.1,0-0.1,0.1-0.1l11.4,6.2C144.5,157.2,144.5,157.3,144.5,157.3"/>
					<path class="st20" d="M144.6,157.2l-11.4-6.2c0,0,0-0.1,0.1-0.1L144.6,157.2C144.6,157.1,144.6,157.2,144.6,157.2"/>
					<path class="st19" d="M144.6,157.1l-11.4-6.2c0,0,0-0.1,0.1-0.1L144.6,157.1C144.7,157,144.6,157.1,144.6,157.1"/>
					<path class="st18" d="M144.7,157l-11.4-6.2c0,0,0,0,0.1-0.1L144.7,157C144.7,157,144.7,157,144.7,157"/>
					<path class="st17" d="M144.7,157l-11.4-6.2c0,0,0,0,0,0c0,0,0,0,0.1-0.1L144.7,157C144.8,156.9,144.8,156.9,144.7,157
						C144.8,156.9,144.7,156.9,144.7,157"/>
					<path class="st16" d="M144.8,156.9l-11.4-6.2c0,0,0.1,0,0.1-0.1L144.8,156.9C144.9,156.9,144.9,156.9,144.8,156.9"/>
					<path class="st24" d="M144.9,156.8l-11.4-6.2c0.1,0,0.1,0,0.1,0c0.1,0,0.1,0,0.2,0l11.4,6.2c-0.1,0-0.1,0-0.2,0
						C145,156.8,145,156.8,144.9,156.8"/>
					<path class="st16" d="M145.3,156.8l-11.4-6.2c0.1,0,0.1,0,0.2,0.1l11.4,6.2C145.4,156.8,145.3,156.8,145.3,156.8"/>
					<path class="st17" d="M145.5,156.9l-11.4-6.2c0,0,0,0,0.1,0L145.5,156.9C145.5,156.9,145.5,156.9,145.5,156.9"/>
				</g>
			</g>
			<g class="st0">
				<defs>
					<path id="SVGID_25_" class="st0" d="M172.8,96.8l-11.4-6.2c3.7-0.5,7.4-0.8,11-0.7c2.7,0,5.3,0.4,7.7,1.1l11.4,6.2
						c-2.4-0.7-5-1.1-7.7-1.1C180.2,96.1,176.5,96.3,172.8,96.8z"/>
				</defs>
				<clipPath id="SVGID_26_">
					<use xlink:href="#SVGID_25_"  style="overflow:visible;"/>
				</clipPath>
				<g class="st33">
					<path class="st24" d="M172.8,96.8l-11.4-6.2c3.7-0.5,7.4-0.8,11-0.7c2.3,0,4.6,0.3,6.7,0.9l11.4,6.2c-2.1-0.6-4.4-0.9-6.7-0.9
						C180.2,96.1,176.5,96.3,172.8,96.8"/>
					<path class="st16" d="M190.6,97l-11.4-6.2c0.3,0.1,0.6,0.2,0.9,0.3l11.4,6.2C191.2,97.2,190.9,97.1,190.6,97"/>
				</g>
			</g>
			<g class="st0">
				<defs>
					<path id="SVGID_27_" class="st0" d="M153.4,141.3l-11.4-6.2c-2.8-1.7-5.1-4.2-6.7-7.2l11.4,6.2
						C148.4,137.1,150.7,139.6,153.4,141.3z"/>
				</defs>
				<clipPath id="SVGID_28_">
					<use xlink:href="#SVGID_27_"  style="overflow:visible;"/>
				</clipPath>
				<g class="st34">
					<path class="st22" d="M153.4,141.3l-11.4-6.2c-2.8-1.7-5.1-4.2-6.7-7.2l11.4,6.2C148.4,137.1,150.7,139.6,153.4,141.3"/>
				</g>
			</g>
			<g class="st0">
				<defs>
					<path id="SVGID_29_" class="st0" d="M157.1,102.4l-11.4-6.2c4.2-2.9,9.4-4.7,15.8-5.6l11.4,6.2
						C166.5,97.7,161.2,99.5,157.1,102.4z"/>
				</defs>
				<clipPath id="SVGID_30_">
					<use xlink:href="#SVGID_29_"  style="overflow:visible;"/>
				</clipPath>
				<g class="st35">
					<path class="st16" d="M157.1,102.4l-11.4-6.2c1.2-0.8,2.5-1.6,3.9-2.3l11.4,6.2C159.6,100.8,158.3,101.5,157.1,102.4"/>
					<path class="st24" d="M161,100.1l-11.4-6.2c3.4-1.6,7.3-2.7,11.8-3.3l11.4,6.2C168.3,97.4,164.4,98.5,161,100.1"/>
				</g>
			</g>
			<g class="st0">
				<defs>
					<path id="SVGID_31_" class="st0" d="M146.7,134.1l-11.4-6.2c-1.4-2.9-2.1-6.1-2-9.5l11.4,6.2
						C144.5,128,145.3,131.2,146.7,134.1z"/>
				</defs>
				<clipPath id="SVGID_32_">
					<use xlink:href="#SVGID_31_"  style="overflow:visible;"/>
				</clipPath>
				<g class="st36">
					<path class="st22" d="M146.7,134.1l-11.4-6.2c-1.4-2.9-2.1-6.1-2-9.5l11.4,6.2C144.5,128,145.3,131.2,146.7,134.1"/>
				</g>
			</g>
			<g class="st0">
				<defs>
					<path id="SVGID_33_" class="st0" d="M144.6,124.6l-11.4-6.2c0-4.1,1.1-8.2,3-12l11.4,6.2C145.7,116.4,144.6,120.5,144.6,124.6z
						"/>
				</defs>
				<clipPath id="SVGID_34_">
					<use xlink:href="#SVGID_33_"  style="overflow:visible;"/>
				</clipPath>
				<g class="st37">
					<path class="st22" d="M144.6,124.6l-11.4-6.2c0-3,0.6-5.9,1.6-8.8l11.4,6.2C145.2,118.7,144.6,121.6,144.6,124.6"/>
					<path class="st21" d="M146.2,115.8l-11.4-6.2c0.4-1.1,0.9-2.2,1.4-3.3l11.4,6.2C147.1,113.6,146.7,114.7,146.2,115.8"/>
				</g>
			</g>
			<g>
				<path class="st38" d="M172.8,96.8c3.7-0.5,7.4-0.8,11-0.7c2.7,0,5.3,0.4,7.7,1.1c0.4,0,0.7,0.4,0.9,0.7c0.1,0.4,0.2,0.7,0.2,1.1
					l0,15.7c0,0.4-0.2,0.8-0.5,1c-0.4,0.2-0.7,0.2-1,0.3c-0.3,0-0.5,0-0.6-0.1c-2.7-1.2-5.5-1.8-8.5-2.1c-3.3-0.3-6.6-0.3-10,0.2
					c-0.2,0-0.5,0-0.7,0.1c-1.6,0.2-3.1,0.7-4.6,1.3c-1.2,0.5-2.1,1.3-2.8,2.3c-0.4,0.8-0.7,1.8-0.7,2.7c0,0.9,0.4,1.7,0.9,2.4
					c0.8,1,1.9,1.7,3,2.2c2,0.9,4.2,1.6,6.3,2.3c4.8,1.1,9.4,2.8,13.7,5.1c2.9,1.6,5.3,4,7,7c1.4,2.9,2.1,6.1,2,9.6
					c0.1,4.5-1.2,9.2-3.5,13.3c-2.5,4.2-6,7.7-10,10c-4.4,2.6-9.7,4.4-16.1,5.3c-4.1,0.6-8.1,0.8-12.1,0.5c-3.1-0.1-6.2-0.8-9.1-1.8
					c-0.6-0.3-1.1-0.9-1-1.7l0-16.7c0-0.3,0.1-0.7,0.4-0.9c0.1-0.1,0.2-0.1,0.3-0.2c0.2,0,0.3,0,0.5,0.1c3.5,1.7,7.1,2.7,11,3.2
					c3.4,0.5,6.9,0.5,10.5,0c3.4-0.5,5.8-1.3,7.4-2.4c1.4-0.9,2.4-2.6,2.4-4.4c0-1.3-0.7-2.5-2.1-3.5c-1.4-1-4.4-2.1-8.7-3.3
					c-4.5-1.1-8.7-2.8-12.6-5.1c-2.8-1.7-5.1-4.2-6.7-7.2c-1.4-2.9-2.1-6.1-2-9.5c0-4.1,1.1-8.2,3-12c2.2-4.2,5.5-7.7,9.4-10.1
					C161.2,99.5,166.5,97.7,172.8,96.8z"/>
			</g>
			<g class="st0">
				<defs>
					<path id="SVGID_35_" class="st0" d="M147.7,112.5l-11.4-6.2c2.2-4.2,5.5-7.7,9.4-10.1l11.4,6.2
						C153.2,104.9,149.9,108.4,147.7,112.5z"/>
				</defs>
				<clipPath id="SVGID_36_">
					<use xlink:href="#SVGID_35_"  style="overflow:visible;"/>
				</clipPath>
				<g class="st39">
					<path class="st21" d="M147.7,112.5l-11.4-6.2c0,0,0,0,0,0L147.7,112.5C147.7,112.5,147.7,112.5,147.7,112.5"/>
					<path class="st20" d="M147.7,112.5l-11.4-6.2c0.5-1,1.1-1.9,1.7-2.8l11.4,6.2C148.8,110.6,148.2,111.6,147.7,112.5"/>
					<path class="st19" d="M149.4,109.8l-11.4-6.2c0.6-0.9,1.2-1.7,1.9-2.4l11.4,6.2C150.6,108.1,150,108.9,149.4,109.8"/>
					<path class="st18" d="M151.3,107.3l-11.4-6.2c0.7-0.8,1.5-1.6,2.2-2.3l11.4,6.2C152.8,105.8,152,106.5,151.3,107.3"/>
					<path class="st17" d="M153.6,105l-11.4-6.2c0.9-0.8,1.8-1.5,2.7-2.1l11.4,6.2C155.3,103.6,154.4,104.3,153.6,105"/>
					<path class="st16" d="M156.3,102.9l-11.4-6.2c0.3-0.2,0.5-0.3,0.8-0.5l11.4,6.2C156.8,102.6,156.5,102.7,156.3,102.9"/>
				</g>
			</g>
		</g>
		<g class="st0">
			<g class="st0">
				<defs>
					<path id="SVGID_37_" class="st0" d="M112.8,126.2l-11.4-6.2c1.9-2.7,2.8-6.1,2.8-10.3l11.4,6.2
						C115.6,120.1,114.7,123.5,112.8,126.2z"/>
				</defs>
				<clipPath id="SVGID_38_">
					<use xlink:href="#SVGID_37_"  style="overflow:visible;"/>
				</clipPath>
				<g class="st40">
					<path class="st19" d="M112.8,126.2l-11.4-6.2c0,0,0,0,0,0L112.8,126.2C112.8,126.2,112.8,126.2,112.8,126.2"/>
					<path class="st20" d="M112.8,126.2l-11.4-6.2c0.3-0.4,0.6-0.9,0.8-1.3l11.4,6.2C113.4,125.3,113.1,125.7,112.8,126.2"/>
					<path class="st21" d="M113.6,124.8l-11.4-6.2c0.3-0.6,0.6-1.2,0.8-1.8l11.4,6.2C114.2,123.6,113.9,124.3,113.6,124.8"/>
					<path class="st22" d="M114.4,123l-11.4-6.2c0.8-2,1.1-4.4,1.1-7.1l11.4,6.2C115.6,118.6,115.2,121,114.4,123"/>
				</g>
			</g>
			<g class="st0">
				<defs>
					<path id="SVGID_39_" class="st0" d="M105.5,132.3l-11.4-6.2c2.9-1.3,5.3-3.4,7.3-6.1l11.4,6.2
						C110.8,128.9,108.3,131,105.5,132.3z"/>
				</defs>
				<clipPath id="SVGID_40_">
					<use xlink:href="#SVGID_39_"  style="overflow:visible;"/>
				</clipPath>
				<g class="st41">
					<path class="st24" d="M105.5,132.3l-11.4-6.2c0.1,0,0.2-0.1,0.3-0.1l11.4,6.2C105.7,132.2,105.6,132.3,105.5,132.3"/>
					<path class="st16" d="M105.8,132.2L94.4,126c0.8-0.4,1.6-0.8,2.3-1.3l11.4,6.2C107.4,131.3,106.6,131.8,105.8,132.2"/>
					<path class="st17" d="M108.1,130.8l-11.4-6.2c0.6-0.4,1.2-0.9,1.8-1.4l11.4,6.2C109.3,129.9,108.7,130.4,108.1,130.8"/>
					<path class="st18" d="M109.9,129.4l-11.4-6.2c0.6-0.5,1.1-1.1,1.6-1.6l11.4,6.2C111,128.3,110.5,128.9,109.9,129.4"/>
					<path class="st19" d="M111.5,127.8l-11.4-6.2c0.4-0.5,0.9-1,1.3-1.6l11.4,6.2C112.4,126.7,112,127.3,111.5,127.8"/>
				</g>
			</g>
			<g class="st0">
				<defs>
					<path id="SVGID_41_" class="st0" d="M115.6,115.9l-11.4-6.2c0.1-3-0.6-5.9-2-8.3l11.4,6.2C114.9,110,115.7,112.9,115.6,115.9z"
						/>
				</defs>
				<clipPath id="SVGID_42_">
					<use xlink:href="#SVGID_41_"  style="overflow:visible;"/>
				</clipPath>
				<g class="st42">
					<path class="st22" d="M115.6,115.9l-11.4-6.2c0.1-3-0.6-5.9-2-8.3l11.4,6.2C114.9,110,115.7,112.9,115.6,115.9"/>
				</g>
			</g>
			<g class="st0">
				<defs>
					<path id="SVGID_43_" class="st0" d="M68,189.3l-11.4-6.2c-0.3-0.2-0.4-0.5-0.4-1l11.4,6.2C67.6,188.8,67.7,189.1,68,189.3z"/>
				</defs>
				<clipPath id="SVGID_44_">
					<use xlink:href="#SVGID_43_"  style="overflow:visible;"/>
				</clipPath>
				<g class="st43">
					<path class="st22" d="M68,189.3l-11.4-6.2c-0.3-0.2-0.4-0.5-0.4-1l11.4,6.2C67.6,188.8,67.7,189.1,68,189.3"/>
				</g>
			</g>
			<g class="st0">
				<defs>
					<path id="SVGID_45_" class="st0" d="M95.2,135.5l-11.4-6.2c3.5-0.5,6.9-1.6,10.2-3.2l11.4,6.2C102.2,133.9,98.7,135,95.2,135.5
						z"/>
				</defs>
				<clipPath id="SVGID_46_">
					<use xlink:href="#SVGID_45_"  style="overflow:visible;"/>
				</clipPath>
				<g class="st44">
					<path class="st24" d="M95.2,135.5l-11.4-6.2c3.3-0.5,6.6-1.5,9.8-2.9l11.4,6.2C101.9,134,98.5,135,95.2,135.5"/>
					<path class="st16" d="M105,132.5l-11.4-6.2c0.2-0.1,0.3-0.1,0.5-0.2l11.4,6.2C105.3,132.4,105.2,132.5,105,132.5"/>
				</g>
			</g>
			<g class="st0">
				<defs>
					<path id="SVGID_47_" class="st0" d="M98.2,97.7l11.4,6.2c1.6,0.9,2.9,2.1,4,3.7l-11.4-6.2C101.1,99.9,99.7,98.6,98.2,97.7z"/>
				</defs>
				<clipPath id="SVGID_48_">
					<use xlink:href="#SVGID_47_"  style="overflow:visible;"/>
				</clipPath>
				<g class="st45">
					<path class="st22" d="M113.5,107.6l-11.4-6.2c-1-1.6-2.4-2.8-4-3.7l11.4,6.2C111.1,104.8,112.5,106.1,113.5,107.6"/>
				</g>
			</g>
			<g>
				<polygon class="st46" points="90.5,136.1 79.1,129.9 83.8,129.3 95.2,135.5 				"/>
			</g>
			<g class="st0">
				<defs>
					<path id="SVGID_49_" class="st0" d="M87,136.4l-11.4-6.2c1.2-0.1,2.4-0.1,3.5-0.3l11.4,6.2C89.4,136.3,88.3,136.4,87,136.4z"/>
				</defs>
				<clipPath id="SVGID_50_">
					<use xlink:href="#SVGID_49_"  style="overflow:visible;"/>
				</clipPath>
				<g class="st47">
					<path class="st24" d="M87,136.4l-11.4-6.2c1.2-0.1,2.4-0.1,3.5-0.3l11.4,6.2C89.4,136.3,88.3,136.4,87,136.4"/>
				</g>
			</g>
			<g class="st0">
				<defs>
					<path id="SVGID_51_" class="st0" d="M109.9,80.5l11.4,6.2c-2.1-1.2-4.4-2-6.8-2.5L103.1,78C105.5,78.5,107.8,79.4,109.9,80.5z"
						/>
				</defs>
				<clipPath id="SVGID_52_">
					<use xlink:href="#SVGID_51_"  style="overflow:visible;"/>
				</clipPath>
				<g class="st48">
					<path class="st24" d="M114.5,84.2L103.1,78c0.3,0.1,0.6,0.1,0.8,0.2l11.4,6.2C115.1,84.3,114.8,84.2,114.5,84.2"/>
					<path class="st16" d="M115.4,84.4L104,78.2c1.7,0.4,3.4,1.1,5,1.9l11.4,6.2C118.8,85.4,117.1,84.8,115.4,84.4"/>
					<path class="st17" d="M120.4,86.2L109,80c0.3,0.2,0.6,0.3,0.9,0.5l11.4,6.2C121,86.5,120.7,86.4,120.4,86.2"/>
				</g>
			</g>
			<g>
				<polygon class="st31" points="67.6,188.2 56.2,182 56.3,83.2 67.7,89.4 				"/>
			</g>
			<g>
				<path class="st38" d="M132.9,100.4c1.3,3.8,2,7.9,2,12.2c0,8.3-1.8,15.3-5.4,21.2c-3.6,5.9-8.6,10.6-14.4,13.7
					c-6.1,3.3-12.7,5.1-20,6.1c-2.1,0.3-3.6,0.5-4.4,0.5c-0.9,0-2.1,0.2-3.8,0.4l-0.1,30.8c0.1,0.7-0.4,1.3-1,1.5
					c-0.1,0-0.2,0-0.4,0.1l-16.9,2.4c-0.7,0.1-1.1-0.2-1.1-1.1l0.2-98.8c0-0.7,0.3-1.1,0.9-1.2c1.5-0.2,2.9-0.4,5-0.8
					c2.1-0.4,4.4-0.7,6.8-1.2c2.4-0.4,5-0.8,7.7-1.3c2.8-0.5,5.4-0.9,8.1-1.2c7.3-1,13.3-0.9,18.3,0.4c4.5,1,8.5,3.1,11.9,6.2
					C129.3,93,131.5,96.5,132.9,100.4z M115.6,115.9c0.1-3-0.6-5.9-2-8.3c-1.5-2.3-3.6-3.9-6.2-4.6c-3.1-0.9-6.3-1-9.7-0.6
					c-0.3,0-0.5,0.1-0.8,0.1c-2.3,0.3-4.4,0.6-6,0.9c-0.5,0-1,0.1-1.4,0.2c-1,0.1-1.8,0.3-2.2,0.4L87,136.4c1.2-0.1,2.4-0.1,3.5-0.3
					l4.7-0.7c3.5-0.5,6.9-1.6,10.2-3.2c2.9-1.3,5.3-3.4,7.3-6.1C114.7,123.5,115.6,120.1,115.6,115.9"/>
			</g>
			<g class="st0">
				<defs>
					<path id="SVGID_53_" class="st0" d="M67.7,89.4l-11.4-6.2c0-0.7,0.3-1.1,0.9-1.2c1.5-0.2,2.9-0.4,5-0.8
						c2.1-0.4,4.4-0.7,6.8-1.2c2.4-0.4,5-0.8,7.7-1.3c2.8-0.5,5.4-0.9,8.1-1.2c7.3-1,13.3-0.9,18.3,0.4l11.4,6.2
						c-5-1.3-11-1.4-18.3-0.4c-2.7,0.4-5.3,0.8-8.1,1.2c-2.8,0.5-5.3,0.8-7.7,1.3c-2.4,0.4-4.6,0.8-6.8,1.2c-2,0.4-3.5,0.6-5,0.8
						C68,88.3,67.7,88.7,67.7,89.4z"/>
				</defs>
				<clipPath id="SVGID_54_">
					<use xlink:href="#SVGID_53_"  style="overflow:visible;"/>
				</clipPath>
				<g class="st49">
					<path class="st22" d="M67.7,89.4l-11.4-6.2c0-0.2,0-0.4,0.1-0.6l11.4,6.2C67.8,89,67.7,89.2,67.7,89.4"/>
					<path class="st21" d="M67.8,88.8l-11.4-6.2c0,0,0-0.1,0.1-0.1l11.4,6.2C67.9,88.7,67.8,88.8,67.8,88.8"/>
					<path class="st20" d="M67.9,88.7l-11.4-6.2c0,0,0-0.1,0.1-0.1L67.9,88.7C67.9,88.6,67.9,88.7,67.9,88.7"/>
					<path class="st19" d="M67.9,88.6l-11.4-6.2c0,0,0-0.1,0.1-0.1L67.9,88.6C68,88.5,68,88.6,67.9,88.6"/>
					<path class="st18" d="M68,88.5l-11.4-6.2c0,0,0,0,0.1-0.1L68,88.5C68,88.5,68,88.5,68,88.5"/>
					<path class="st17" d="M68.1,88.5l-11.4-6.2c0,0,0.1,0,0.1-0.1L68.1,88.5C68.1,88.4,68.1,88.4,68.1,88.5"/>
					<path class="st16" d="M68.1,88.4l-11.4-6.2c0,0,0.1-0.1,0.1-0.1l11.4,6.2C68.2,88.3,68.2,88.4,68.1,88.4"/>
					<path class="st24" d="M68.3,88.3l-11.4-6.2c0.1,0,0.2-0.1,0.3-0.1c1.5-0.2,2.9-0.4,5-0.8c2.1-0.4,4.4-0.7,6.8-1.2
						c2.4-0.4,5-0.8,7.7-1.3c2.8-0.5,5.4-0.9,8.1-1.2c7.2-1,13.2-0.9,18.2,0.4l11.4,6.2c-4.9-1.3-10.9-1.4-18.2-0.4
						c-2.7,0.4-5.3,0.8-8.1,1.2c-2.8,0.5-5.3,0.8-7.7,1.3c-2.4,0.4-4.6,0.8-6.8,1.2c-2,0.4-3.5,0.6-5,0.8
						C68.5,88.2,68.4,88.3,68.3,88.3"/>
					<path class="st16" d="M114.4,84.1L103,77.9c0.1,0,0.1,0,0.2,0l11.4,6.2C114.5,84.2,114.4,84.1,114.4,84.1"/>
				</g>
			</g>
		</g>
	</g>
</g>
</svg>
