<?xml version="1.0" encoding="utf-8"?>
<!-- Generator: Adobe Illustrator 22.0.0, SVG Export Plug-In . SVG Version: 6.00 Build 0)  -->
<svg version="1.1" id="Calque_1" xmlns="http://www.w3.org/2000/svg" xmlns:xlink="http://www.w3.org/1999/xlink" x="0px" y="0px"
	 viewBox="0 0 240 262" style="enable-background:new 0 0 240 262;" xml:space="preserve">
<style type="text/css">
	.st0{enable-background:new    ;}
	.st1{clip-path:url(#SVGID_2_);enable-background:new    ;}
	.st2{fill:#220000;}
	.st3{fill:#210000;}
	.st4{fill:#200000;}
	.st5{clip-path:url(#SVGID_4_);enable-background:new    ;}
	.st6{fill:#1B0000;}
	.st7{fill:#240000;}
	.st8{fill:#1A0000;}
	.st9{clip-path:url(#SVGID_6_);enable-background:new    ;}
	.st10{fill:#1C0000;}
	.st11{fill:#1D0000;}
	.st12{fill:#1E0000;}
	.st13{fill:#1F0000;}
	.st14{fill:#2D0000;}
	.st15{clip-path:url(#SVGID_8_);enable-background:new    ;}
	.st16{fill:#855000;}
	.st17{clip-path:url(#SVGID_10_);enable-background:new    ;}
	.st18{fill:#A86600;}
	.st19{fill:#A36300;}
	.st20{fill:#9E5F00;}
	.st21{fill:#B46D00;}
	.st22{fill:#824F00;}
	.st23{clip-path:url(#SVGID_12_);enable-background:new    ;}
	.st24{fill:#8A5300;}
	.st25{fill:#8F5600;}
	.st26{fill:#945900;}
	.st27{fill:#995C00;}
	.st28{fill:#DF8600;}
	.st29{clip-path:url(#SVGID_14_);enable-background:new    ;}
	.st30{clip-path:url(#SVGID_16_);enable-background:new    ;}
	.st31{clip-path:url(#SVGID_18_);enable-background:new    ;}
	.st32{clip-path:url(#SVGID_20_);enable-background:new    ;}
	.st33{fill:#804D00;}
	.st34{clip-path:url(#SVGID_22_);enable-background:new    ;}
	.st35{clip-path:url(#SVGID_24_);enable-background:new    ;}
	.st36{clip-path:url(#SVGID_26_);enable-background:new    ;}
	.st37{clip-path:url(#SVGID_28_);enable-background:new    ;}
	.st38{fill:#8D5500;}
	.st39{clip-path:url(#SVGID_30_);enable-background:new    ;}
	.st40{clip-path:url(#SVGID_32_);enable-background:new    ;}
	.st41{clip-path:url(#SVGID_34_);enable-background:new    ;}
</style>
<title>Adobe Illustrator CC logo</title>
<g id="vlpb">
	<g>
		<g class="st0">
			<g class="st0">
				<defs>
					<path id="SVGID_1_" class="st0" d="M198,6.2l22.8,12.4c-5.8-3.2-12.8-4.5-20.2-3.5L177.8,2.7C185.2,1.7,192.2,3,198,6.2z"/>
				</defs>
				<clipPath id="SVGID_2_">
					<use xlink:href="#SVGID_1_"  style="overflow:visible;"/>
				</clipPath>
				<g class="st1">
					<path class="st2" d="M200.6,15.1L177.8,2.7c4.6-0.6,9-0.4,13.1,0.7l22.8,12.4C209.6,14.7,205.2,14.5,200.6,15.1"/>
					<path class="st3" d="M213.7,15.8L190.9,3.4c2.1,0.5,4.1,1.3,6,2.2L219.7,18C217.8,17.1,215.8,16.3,213.7,15.8"/>
					<path class="st4" d="M219.7,18L196.9,5.6c0.4,0.2,0.8,0.4,1.2,0.6l22.8,12.4C220.4,18.4,220.1,18.2,219.7,18"/>
				</g>
			</g>
			<g class="st0">
				<defs>
					<path id="SVGID_3_" class="st0" d="M42,255.8l-22.8-12.4c-10.6-5.7-17.6-17.5-17.5-32l22.8,12.4
						C24.4,238.3,31.4,250.1,42,255.8z"/>
				</defs>
				<clipPath id="SVGID_4_">
					<use xlink:href="#SVGID_3_"  style="overflow:visible;"/>
				</clipPath>
				<g class="st5">
					<path class="st6" d="M42,255.8l-22.8-12.4c-10.6-5.7-17.6-17.5-17.5-32l22.8,12.4C24.4,238.3,31.4,250.1,42,255.8"/>
				</g>
			</g>
			<g>
				<polygon class="st7" points="62.6,34.5 39.8,22.1 177.8,2.7 200.6,15.1 				"/>
			</g>
			<g>
				<polygon class="st8" points="24.5,223.8 1.7,211.4 1.9,68.2 24.7,80.6 				"/>
			</g>
			<g class="st0">
				<defs>
					<path id="SVGID_5_" class="st0" d="M24.7,80.6L1.9,68.2c0-22.6,17-43.2,37.9-46.1l22.8,12.4C41.7,37.4,24.8,58.1,24.7,80.6z"/>
				</defs>
				<clipPath id="SVGID_6_">
					<use xlink:href="#SVGID_5_"  style="overflow:visible;"/>
				</clipPath>
				<g class="st9">
					<path class="st6" d="M24.7,80.6L1.9,68.2c0-5.6,1-11,2.9-16.1l22.8,12.4C25.8,69.6,24.7,75.1,24.7,80.6"/>
					<path class="st10" d="M27.6,64.5L4.8,52.1c0.8-2.2,1.8-4.3,2.9-6.4l22.8,12.4C29.4,60.2,28.4,62.3,27.6,64.5"/>
					<path class="st11" d="M30.5,58.2L7.7,45.8c0.9-1.7,2-3.4,3.1-5l22.8,12.4C32.5,54.8,31.4,56.5,30.5,58.2"/>
					<path class="st12" d="M33.6,53.2L10.8,40.8c1.1-1.5,2.2-2.9,3.4-4.3L37,48.9C35.8,50.2,34.6,51.7,33.6,53.2"/>
					<path class="st13" d="M37,48.9L14.2,36.5c1.2-1.4,2.5-2.7,3.9-3.9L40.8,45C39.5,46.2,38.2,47.5,37,48.9"/>
					<path class="st4" d="M40.8,45L18,32.6c1.5-1.3,3-2.5,4.6-3.6l22.8,12.4C43.8,42.5,42.3,43.7,40.8,45"/>
					<path class="st3" d="M45.4,41.4L22.6,29c2-1.4,4-2.5,6.1-3.5l22.8,12.4C49.4,38.8,47.4,40,45.4,41.4"/>
					<path class="st2" d="M51.5,37.8L28.7,25.4c3.5-1.6,7.2-2.8,11.1-3.3l22.8,12.4C58.8,35,55,36.2,51.5,37.8"/>
				</g>
			</g>
			<g>
				<path class="st14" d="M200.6,15.1c20.9-2.9,37.8,12.9,37.8,35.5l-0.3,143.1c0,22.6-17,43.2-37.9,46.1l-138,19.4
					c-20.9,2.9-37.8-12.9-37.7-35.5l0.3-143.1c0-22.6,17-43.2,37.9-46.1L200.6,15.1z"/>
			</g>
		</g>
	</g>
</g>
<g id="vlpe">
	<g>
		<g class="st0">
			<g class="st0">
				<defs>
					<path id="SVGID_7_" class="st0" d="M167.2,179.6l-11.4-6.2c-0.4-0.2-0.5-0.6-0.5-1.2l11.4,6.2
						C166.7,179,166.9,179.4,167.2,179.6z"/>
				</defs>
				<clipPath id="SVGID_8_">
					<use xlink:href="#SVGID_7_"  style="overflow:visible;"/>
				</clipPath>
				<g class="st15">
					<path class="st16" d="M167.2,179.6l-11.4-6.2c-0.4-0.2-0.5-0.6-0.5-1.2l11.4,6.2C166.7,179,166.9,179.4,167.2,179.6"/>
				</g>
			</g>
			<g class="st0">
				<defs>
					<path id="SVGID_9_" class="st0" d="M174.9,94.3l11.4,6.2c-0.2-0.1-0.4-0.1-0.7-0.1l-11.4-6.2C174.5,94.2,174.7,94.2,174.9,94.3
						z"/>
				</defs>
				<clipPath id="SVGID_10_">
					<use xlink:href="#SVGID_9_"  style="overflow:visible;"/>
				</clipPath>
				<g class="st17">
					<path class="st18" d="M185.6,100.4l-11.4-6.2c0.2,0,0.4,0,0.5,0l11.4,6.2C186,100.4,185.8,100.4,185.6,100.4"/>
					<path class="st19" d="M186.1,100.4l-11.4-6.2c0.1,0,0.1,0,0.2,0.1l11.4,6.2C186.2,100.5,186.2,100.4,186.1,100.4"/>
					<path class="st20" d="M186.3,100.5l-11.4-6.2c0,0,0,0,0,0L186.3,100.5C186.3,100.5,186.3,100.5,186.3,100.5"/>
				</g>
			</g>
			<g>
				<polygon class="st21" points="168,102.9 156.6,96.7 174.2,94.2 185.6,100.4 				"/>
			</g>
			<g>
				<polygon class="st22" points="166.7,178.4 155.3,172.2 155.4,98.2 166.8,104.4 				"/>
			</g>
			<g class="st0">
				<defs>
					<path id="SVGID_11_" class="st0" d="M166.8,104.4l-11.4-6.2c0-1,0.4-1.4,1.2-1.5l11.4,6.2C167.2,103,166.8,103.4,166.8,104.4z"
						/>
				</defs>
				<clipPath id="SVGID_12_">
					<use xlink:href="#SVGID_11_"  style="overflow:visible;"/>
				</clipPath>
				<g class="st23">
					<path class="st16" d="M166.8,104.4l-11.4-6.2c0-0.3,0-0.6,0.1-0.8l11.4,6.2C166.9,103.8,166.8,104.1,166.8,104.4"/>
					<path class="st24" d="M166.9,103.6l-11.4-6.2c0-0.1,0-0.1,0.1-0.2l11.4,6.2C167,103.5,166.9,103.6,166.9,103.6"/>
					<path class="st25" d="M167,103.5l-11.4-6.2c0,0,0-0.1,0.1-0.1l11.4,6.2C167,103.4,167,103.4,167,103.5"/>
					<path class="st26" d="M167.1,103.4l-11.4-6.2c0,0,0-0.1,0.1-0.1L167.1,103.4C167.1,103.3,167.1,103.3,167.1,103.4"/>
					<path class="st27" d="M167.1,103.3l-11.4-6.2c0,0,0.1-0.1,0.1-0.1L167.1,103.3C167.2,103.2,167.2,103.3,167.1,103.3"/>
					<path class="st20" d="M167.2,103.2L155.8,97c0,0,0.1-0.1,0.1-0.1l11.4,6.2C167.3,103.1,167.2,103.2,167.2,103.2"/>
					<path class="st19" d="M167.3,103.1l-11.4-6.2c0.1,0,0.1-0.1,0.2-0.1l11.4,6.2C167.4,103.1,167.4,103.1,167.3,103.1"/>
					<path class="st18" d="M167.5,103l-11.4-6.2c0.1-0.1,0.3-0.1,0.5-0.1l11.4,6.2C167.8,102.9,167.6,103,167.5,103"/>
				</g>
			</g>
			<g>
				<path class="st28" d="M185.6,100.4c0.8-0.1,1.2,0.3,1.2,1.2l-0.1,74c0,1.1-0.4,1.6-1.2,1.7l-17.4,2.5c-0.9,0.1-1.3-0.4-1.3-1.4
					l0.1-74c0-1,0.4-1.4,1.2-1.5L185.6,100.4z"/>
			</g>
		</g>
		<g class="st0">
			<g class="st0">
				<defs>
					<path id="SVGID_13_" class="st0" d="M170.7,92.6l-11.4-6.2c-0.6-0.3-1.2-0.8-1.8-1.3l11.4,6.2C169.4,91.8,170,92.2,170.7,92.6z
						"/>
				</defs>
				<clipPath id="SVGID_14_">
					<use xlink:href="#SVGID_13_"  style="overflow:visible;"/>
				</clipPath>
				<g class="st29">
					<path class="st16" d="M170.7,92.6l-11.4-6.2c-0.6-0.3-1.2-0.8-1.8-1.3l11.4,6.2C169.4,91.8,170,92.2,170.7,92.6"/>
				</g>
			</g>
			<g class="st0">
				<defs>
					<path id="SVGID_15_" class="st0" d="M168.9,91.3l-11.4-6.2c-2-2.1-3.1-5.1-3-8.4l11.4,6.2C165.8,86.2,166.8,89.2,168.9,91.3z"
						/>
				</defs>
				<clipPath id="SVGID_16_">
					<use xlink:href="#SVGID_15_"  style="overflow:visible;"/>
				</clipPath>
				<g class="st30">
					<path class="st16" d="M168.9,91.3l-11.4-6.2c-2-2.1-3.1-5.1-3-8.4l11.4,6.2C165.8,86.2,166.8,89.2,168.9,91.3"/>
				</g>
			</g>
			<g class="st0">
				<defs>
					<path id="SVGID_17_" class="st0" d="M171.9,64.1l11.4,6.2c-1.7-0.9-3.8-1.2-6.3-0.9c-2.9,0.4-5.8,2-7.9,4.5
						c-2.1,2.5-3.3,5.7-3.2,9l-11.4-6.2c-0.1-3.2,1.1-6.5,3.2-9c2.1-2.5,5-4.1,7.9-4.5C168.1,62.9,170.2,63.2,171.9,64.1z"/>
				</defs>
				<clipPath id="SVGID_18_">
					<use xlink:href="#SVGID_17_"  style="overflow:visible;"/>
				</clipPath>
				<g class="st31">
					<path class="st16" d="M165.9,82.9l-11.4-6.2c0-1.7,0.2-3.3,0.8-4.9l11.4,6.2C166.1,79.6,165.8,81.3,165.9,82.9"/>
					<path class="st24" d="M166.7,78l-11.4-6.2c0.2-0.6,0.5-1.2,0.8-1.8l11.4,6.2C167.2,76.9,166.9,77.4,166.7,78"/>
					<path class="st25" d="M167.5,76.3l-11.4-6.2c0.3-0.5,0.5-0.9,0.8-1.4l11.4,6.2C168,75.4,167.7,75.8,167.5,76.3"/>
					<path class="st26" d="M168.3,74.9l-11.4-6.2c0.2-0.3,0.5-0.7,0.8-1c0.1-0.1,0.1-0.1,0.2-0.2l11.4,6.2c-0.1,0.1-0.1,0.1-0.2,0.2
						C168.8,74.2,168.6,74.6,168.3,74.9"/>
					<path class="st27" d="M169.3,73.7l-11.4-6.2c0.4-0.4,0.7-0.8,1.1-1.1l11.4,6.2C170,73,169.6,73.3,169.3,73.7"/>
					<path class="st20" d="M170.4,72.6L159,66.4c0.4-0.4,0.9-0.7,1.3-1.1l11.4,6.2C171.3,71.9,170.8,72.2,170.4,72.6"/>
					<path class="st19" d="M171.7,71.5l-11.4-6.2c0.6-0.4,1.2-0.8,1.8-1.1l11.4,6.2C172.9,70.8,172.3,71.1,171.7,71.5"/>
					<path class="st18" d="M173.6,70.5l-11.4-6.2c1.1-0.5,2.3-0.9,3.5-1c1.7-0.2,3.2-0.2,4.5,0.2l11.4,6.2c-1.3-0.3-2.8-0.4-4.5-0.2
						C175.8,69.6,174.7,70,173.6,70.5"/>
					<path class="st19" d="M181.5,69.6l-11.4-6.2c0.5,0.1,1.1,0.3,1.5,0.6l11.4,6.2C182.6,69.9,182,69.7,181.5,69.6"/>
					<path class="st20" d="M183,70.2L171.6,64c0.1,0,0.2,0.1,0.3,0.1l11.4,6.2C183.2,70.3,183.1,70.2,183,70.2"/>
				</g>
			</g>
			<g>
				<path class="st28" d="M185.1,71.7c2,2,3,5,2.9,8.1c0.1,3.3-1,6.6-3.1,9.3c-1.9,2.4-4.7,4-7.5,4.4c-0.2,0-0.4,0.1-0.6,0.1
					c-0.1,0-0.2,0-0.3,0c-2.8,0.4-5.5-0.5-7.6-2.3c-2-2.1-3.1-5.1-3-8.4c-0.1-3.2,1.1-6.5,3.2-9c2.1-2.5,5-4.1,7.9-4.5
					C180.5,69,183.2,69.7,185.1,71.7z"/>
			</g>
		</g>
		<g class="st0">
			<g class="st0">
				<defs>
					<path id="SVGID_19_" class="st0" d="M136.4,183.4l-11.4-6.2c-0.3-0.2-0.5-0.4-0.6-0.7l11.4,6.2
						C136,183,136.2,183.3,136.4,183.4z"/>
				</defs>
				<clipPath id="SVGID_20_">
					<use xlink:href="#SVGID_19_"  style="overflow:visible;"/>
				</clipPath>
				<g class="st32">
					<path class="st16" d="M136.4,183.4l-11.4-6.2c-0.3-0.2-0.5-0.4-0.6-0.7l11.4,6.2C136,183,136.2,183.3,136.4,183.4"/>
				</g>
			</g>
			<g>
				<polygon class="st33" points="135.9,182.7 124.5,176.5 117.2,154.7 128.6,160.9 				"/>
			</g>
			<g class="st0">
				<defs>
					<path id="SVGID_21_" class="st0" d="M123.3,142.1l-11.4-6.2c-0.5-1.9-1.2-4.2-2-6.6c-0.8-2.5-1.6-5.2-2.4-7.9l11.4,6.2
						c0.8,2.8,1.6,5.4,2.4,7.9C122.1,137.9,122.8,140.2,123.3,142.1z"/>
				</defs>
				<clipPath id="SVGID_22_">
					<use xlink:href="#SVGID_21_"  style="overflow:visible;"/>
				</clipPath>
				<g class="st34">
					<path class="st16" d="M123.3,142.1l-11.4-6.2c-0.5-1.9-1.2-4.2-2-6.6c-0.8-2.5-1.6-5.2-2.4-7.9l11.4,6.2
						c0.8,2.8,1.6,5.4,2.4,7.9C122.1,137.9,122.8,140.2,123.3,142.1"/>
				</g>
			</g>
			<g>
				<polygon class="st21" points="100.7,145.3 89.3,139.1 111.9,135.9 123.3,142.1 				"/>
			</g>
			<g class="st0">
				<defs>
					<path id="SVGID_23_" class="st0" d="M69.6,192.9l-11.4-6.2c-0.4-0.2-0.4-0.7-0.2-1.5l11.4,6.2
						C69.1,192.2,69.2,192.7,69.6,192.9z"/>
				</defs>
				<clipPath id="SVGID_24_">
					<use xlink:href="#SVGID_23_"  style="overflow:visible;"/>
				</clipPath>
				<g class="st35">
					<path class="st16" d="M69.6,192.9l-11.4-6.2c-0.4-0.2-0.4-0.7-0.2-1.5l11.4,6.2C69.1,192.2,69.2,192.7,69.6,192.9"/>
				</g>
			</g>
			<g class="st0">
				<defs>
					<path id="SVGID_25_" class="st0" d="M112.8,78.2l11.4,6.2c-0.2-0.1-0.5-0.1-0.8-0.1l-11.4-6.2C112.3,78,112.6,78.1,112.8,78.2z
						"/>
				</defs>
				<clipPath id="SVGID_26_">
					<use xlink:href="#SVGID_25_"  style="overflow:visible;"/>
				</clipPath>
				<g class="st36">
					<path class="st18" d="M123.3,84.3l-11.4-6.2c0.2,0,0.5,0,0.6,0l11.4,6.2C123.8,84.3,123.6,84.2,123.3,84.3"/>
					<path class="st19" d="M124,84.3l-11.4-6.2c0.1,0,0.1,0,0.2,0.1l11.4,6.2C124.1,84.3,124,84.3,124,84.3"/>
					<path class="st20" d="M124.1,84.4l-11.4-6.2c0,0,0,0,0,0L124.1,84.4C124.1,84.4,124.1,84.4,124.1,84.4"/>
				</g>
			</g>
			<g class="st0">
				<defs>
					<path id="SVGID_27_" class="st0" d="M118.9,127.5l-11.4-6.2c-0.9-2.8-1.7-5.6-2.6-8.5c-0.9-2.8-1.7-5.5-2.4-8.2
						c-0.7-2.6-1.3-5-1.9-7.2l11.4,6.2c0.6,2.2,1.2,4.6,1.9,7.2c0.7,2.7,1.5,5.4,2.4,8.2C117.2,121.9,118,124.7,118.9,127.5z"/>
				</defs>
				<clipPath id="SVGID_28_">
					<use xlink:href="#SVGID_27_"  style="overflow:visible;"/>
				</clipPath>
				<g class="st37">
					<path class="st16" d="M118.9,127.5l-11.4-6.2c-0.9-2.8-1.7-5.6-2.6-8.5c-0.9-2.8-1.7-5.5-2.4-8.2c-0.7-2.6-1.3-5-1.9-7.2
						l11.4,6.2c0.6,2.2,1.2,4.6,1.9,7.2c0.7,2.7,1.5,5.4,2.4,8.2C117.2,121.9,118,124.7,118.9,127.5"/>
				</g>
			</g>
			<g>
				<polygon class="st38" points="69.3,191.4 57.9,185.2 86.7,92.1 98.1,98.3 				"/>
			</g>
			<g class="st0">
				<defs>
					<path id="SVGID_29_" class="st0" d="M98.1,98.3l-11.4-6.2c0.3-1,0.5-2.1,0.9-3.3L99,95C98.7,96.2,98.4,97.3,98.1,98.3z"/>
				</defs>
				<clipPath id="SVGID_30_">
					<use xlink:href="#SVGID_29_"  style="overflow:visible;"/>
				</clipPath>
				<g class="st39">
					<path class="st16" d="M98.1,98.3l-11.4-6.2c0.3-1,0.5-2.1,0.9-3.3L99,95C98.7,96.2,98.4,97.3,98.1,98.3"/>
				</g>
			</g>
			<g>
				<polygon class="st21" points="100.3,87.5 88.9,81.3 111.9,78.1 123.3,84.3 				"/>
			</g>
			<g class="st0">
				<defs>
					<path id="SVGID_31_" class="st0" d="M99,95l-11.4-6.2c0.4-2.1,0.5-4.2,0.5-6.3l11.4,6.2C99.6,90.8,99.4,92.9,99,95z"/>
				</defs>
				<clipPath id="SVGID_32_">
					<use xlink:href="#SVGID_31_"  style="overflow:visible;"/>
				</clipPath>
				<g class="st40">
					<path class="st16" d="M99,95l-11.4-6.2c0.4-2.1,0.5-4.2,0.5-6.3l11.4,6.2C99.6,90.8,99.4,92.9,99,95"/>
				</g>
			</g>
			<g>
				<path class="st28" d="M156.8,179.3c0.3,1,0,1.5-0.9,1.7l-18.6,2.6c-0.7,0.1-1.3-0.3-1.4-0.9l-7.3-21.8l-33.1,4.7L88.7,189
					c-0.2,0.8-0.8,1.5-1.5,1.6L70.3,193c-1,0.1-1.2-0.4-1-1.6l28.8-93.1c0.3-1,0.5-2.1,0.9-3.3c0.4-2.1,0.5-4.2,0.5-6.3
					c-0.1-0.5,0.3-1,0.7-1.2l23.1-3.2c0.7-0.1,1.1,0.1,1.2,0.6L156.8,179.3z M100.7,145.3l22.6-3.2c-0.5-1.9-1.2-4.2-2-6.6
					c-0.8-2.5-1.6-5.2-2.4-7.9c-0.9-2.8-1.7-5.6-2.6-8.5c-0.9-2.8-1.7-5.5-2.4-8.2c-0.7-2.6-1.3-5-1.9-7.2l-0.2,0
					c-0.8,4.2-1.8,8.5-3.1,12.8c-1.3,4.8-2.7,9.8-4.1,14.8C103.4,136.4,102.1,141.1,100.7,145.3"/>
			</g>
			<g class="st0">
				<defs>
					<path id="SVGID_33_" class="st0" d="M99.6,88.7l-11.4-6.2c-0.1-0.5,0.3-1,0.7-1.2l11.4,6.2C99.9,87.7,99.5,88.2,99.6,88.7z"/>
				</defs>
				<clipPath id="SVGID_34_">
					<use xlink:href="#SVGID_33_"  style="overflow:visible;"/>
				</clipPath>
				<g class="st41">
					<path class="st16" d="M99.6,88.7l-11.4-6.2c0-0.2,0-0.3,0-0.5l11.4,6.2C99.6,88.4,99.5,88.5,99.6,88.7"/>
					<path class="st24" d="M99.6,88.2L88.2,82c0-0.1,0-0.1,0.1-0.1l11.4,6.2C99.7,88.1,99.6,88.2,99.6,88.2"/>
					<path class="st25" d="M99.7,88.1l-11.4-6.2c0,0,0-0.1,0.1-0.1l11.4,6.2C99.7,88,99.7,88,99.7,88.1"/>
					<path class="st26" d="M99.8,87.9l-11.4-6.2c0,0,0.1-0.1,0.1-0.1l11.4,6.2C99.8,87.9,99.8,87.9,99.8,87.9"/>
					<path class="st27" d="M99.9,87.8l-11.4-6.2c0,0,0.1-0.1,0.1-0.1L99.9,87.8C99.9,87.8,99.9,87.8,99.9,87.8"/>
					<path class="st20" d="M100,87.7l-11.4-6.2c0,0,0.1-0.1,0.1-0.1l11.4,6.2C100,87.7,100,87.7,100,87.7"/>
					<path class="st19" d="M100.1,87.6l-11.4-6.2c0,0,0.1-0.1,0.1-0.1l11.4,6.2C100.2,87.6,100.1,87.6,100.1,87.6"/>
					<path class="st18" d="M100.2,87.6l-11.4-6.2c0,0,0.1,0,0.1,0L100.2,87.6C100.3,87.5,100.2,87.5,100.2,87.6"/>
				</g>
			</g>
		</g>
	</g>
</g>
</svg>
