<?xml version="1.0" encoding="utf-8"?>
<!-- Generator: Adobe Illustrator 22.0.0, SVG Export Plug-In . SVG Version: 6.00 Build 0)  -->
<svg version="1.1" id="Calque_1" xmlns="http://www.w3.org/2000/svg" xmlns:xlink="http://www.w3.org/1999/xlink" x="0px" y="0px"
	 viewBox="0 0 240 262" style="enable-background:new 0 0 240 262;" xml:space="preserve">
<style type="text/css">
	.st0{enable-background:new    ;}
	.st1{clip-path:url(#SVGID_2_);enable-background:new    ;}
	.st2{fill:#300114;}
	.st3{fill:#2F0114;}
	.st4{fill:#2D0113;}
	.st5{clip-path:url(#SVGID_4_);enable-background:new    ;}
	.st6{fill:#260110;}
	.st7{fill:#340116;}
	.st8{fill:#250110;}
	.st9{clip-path:url(#SVGID_6_);enable-background:new    ;}
	.st10{fill:#270111;}
	.st11{fill:#290111;}
	.st12{fill:#2A0112;}
	.st13{fill:#2C0113;}
	.st14{fill:#40021B;}
	.st15{clip-path:url(#SVGID_8_);enable-background:new    ;}
	.st16{fill:#851B35;}
	.st17{clip-path:url(#SVGID_10_);enable-background:new    ;}
	.st18{fill:#A82243;}
	.st19{fill:#A32141;}
	.st20{fill:#9E203F;}
	.st21{fill:#B42448;}
	.st22{fill:#821A34;}
	.st23{clip-path:url(#SVGID_12_);enable-background:new    ;}
	.st24{fill:#8A1C37;}
	.st25{fill:#8F1D39;}
	.st26{fill:#941E3B;}
	.st27{fill:#991F3D;}
	.st28{fill:#DF2D59;}
	.st29{clip-path:url(#SVGID_14_);enable-background:new    ;}
	.st30{clip-path:url(#SVGID_16_);enable-background:new    ;}
	.st31{clip-path:url(#SVGID_18_);enable-background:new    ;}
	.st32{clip-path:url(#SVGID_20_);enable-background:new    ;}
	.st33{clip-path:url(#SVGID_22_);enable-background:new    ;}
	.st34{clip-path:url(#SVGID_24_);enable-background:new    ;}
</style>
<title>Adobe InDesign CC logo</title>
<g>
	<g>
		<g class="st0">
			<g class="st0">
				<defs>
					<path id="SVGID_1_" class="st0" d="M198,6.2l22.8,12.4c-5.8-3.2-12.8-4.5-20.2-3.5L177.8,2.7C185.2,1.7,192.2,3,198,6.2z"/>
				</defs>
				<clipPath id="SVGID_2_">
					<use xlink:href="#SVGID_1_"  style="overflow:visible;"/>
				</clipPath>
				<g class="st1">
					<path class="st2" d="M200.6,15.1L177.8,2.7c4.6-0.6,9-0.4,13.1,0.7l22.8,12.4C209.6,14.7,205.2,14.5,200.6,15.1"/>
					<path class="st3" d="M213.7,15.8L190.9,3.4c2.1,0.5,4.1,1.3,6,2.2L219.7,18C217.8,17.1,215.8,16.3,213.7,15.8"/>
					<path class="st4" d="M219.7,18L196.9,5.6c0.4,0.2,0.8,0.4,1.2,0.6l22.8,12.4C220.4,18.4,220.1,18.2,219.7,18"/>
				</g>
			</g>
			<g class="st0">
				<defs>
					<path id="SVGID_3_" class="st0" d="M42,255.8l-22.8-12.4c-10.6-5.7-17.6-17.5-17.5-32l22.8,12.4
						C24.4,238.3,31.4,250.1,42,255.8z"/>
				</defs>
				<clipPath id="SVGID_4_">
					<use xlink:href="#SVGID_3_"  style="overflow:visible;"/>
				</clipPath>
				<g class="st5">
					<path class="st6" d="M42,255.8l-22.8-12.4c-10.6-5.7-17.6-17.5-17.5-32l22.8,12.4C24.4,238.3,31.4,250.1,42,255.8"/>
				</g>
			</g>
			<g>
				<polygon class="st7" points="62.6,34.5 39.8,22.1 177.8,2.7 200.6,15.1 				"/>
			</g>
			<g>
				<polygon class="st8" points="24.5,223.8 1.7,211.4 1.9,68.2 24.7,80.6 				"/>
			</g>
			<g class="st0">
				<defs>
					<path id="SVGID_5_" class="st0" d="M24.7,80.6L1.9,68.2c0-22.6,17-43.2,37.9-46.1l22.8,12.4C41.7,37.4,24.8,58.1,24.7,80.6z"/>
				</defs>
				<clipPath id="SVGID_6_">
					<use xlink:href="#SVGID_5_"  style="overflow:visible;"/>
				</clipPath>
				<g class="st9">
					<path class="st6" d="M24.7,80.6L1.9,68.2c0-5.6,1-11,2.9-16.1l22.8,12.4C25.8,69.6,24.7,75.1,24.7,80.6"/>
					<path class="st10" d="M27.6,64.5L4.8,52.1c0.8-2.2,1.8-4.3,2.9-6.4l22.8,12.4C29.4,60.2,28.4,62.3,27.6,64.5"/>
					<path class="st11" d="M30.5,58.2L7.7,45.8c0.9-1.7,2-3.4,3.1-5l22.8,12.4C32.5,54.8,31.4,56.5,30.5,58.2"/>
					<path class="st12" d="M33.6,53.2L10.8,40.8c1.1-1.5,2.2-2.9,3.4-4.3L37,48.9C35.8,50.2,34.6,51.7,33.6,53.2"/>
					<path class="st13" d="M37,48.9L14.2,36.5c1.2-1.4,2.5-2.7,3.9-3.9L40.8,45C39.5,46.2,38.2,47.5,37,48.9"/>
					<path class="st4" d="M40.8,45L18,32.6c1.5-1.3,3-2.5,4.6-3.6l22.8,12.4C43.8,42.5,42.3,43.7,40.8,45"/>
					<path class="st3" d="M45.4,41.4L22.6,29c2-1.4,4-2.5,6.1-3.5l22.8,12.4C49.4,38.8,47.4,40,45.4,41.4"/>
					<path class="st2" d="M51.5,37.8L28.7,25.4c3.5-1.6,7.2-2.8,11.1-3.3l22.8,12.4C58.8,35,55,36.2,51.5,37.8"/>
				</g>
			</g>
			<g>
				<path class="st14" d="M200.6,15.1c20.9-2.9,37.8,12.9,37.8,35.5l-0.3,143.1c0,22.6-17,43.2-37.9,46.1l-138,19.4
					c-20.9,2.9-37.8-12.9-37.7-35.5l0.3-143.1c0-22.6,17-43.2,37.9-46.1L200.6,15.1z"/>
			</g>
		</g>
	</g>
</g>
<g id="vlpb">
	<g>
		<g class="st0">
			<g class="st0">
				<defs>
					<path id="SVGID_7_" class="st0" d="M82.2,194.5l-11.4-6.2c-0.3-0.2-0.5-0.6-0.5-1.3l11.4,6.2C81.7,193.9,81.9,194.3,82.2,194.5
						z"/>
				</defs>
				<clipPath id="SVGID_8_">
					<use xlink:href="#SVGID_7_"  style="overflow:visible;"/>
				</clipPath>
				<g class="st15">
					<path class="st16" d="M82.2,194.5l-11.4-6.2c-0.3-0.2-0.5-0.6-0.5-1.3l11.4,6.2C81.7,193.9,81.9,194.3,82.2,194.5"/>
				</g>
			</g>
			<g class="st0">
				<defs>
					<path id="SVGID_9_" class="st0" d="M89.8,84.3l11.4,6.2c-0.2-0.1-0.4-0.1-0.7-0.1l-11.4-6.2C89.4,84.1,89.6,84.2,89.8,84.3z"/>
				</defs>
				<clipPath id="SVGID_10_">
					<use xlink:href="#SVGID_9_"  style="overflow:visible;"/>
				</clipPath>
				<g class="st17">
					<path class="st18" d="M100.5,90.4l-11.4-6.2c0.2,0,0.4,0,0.5,0l11.4,6.2C100.9,90.4,100.7,90.3,100.5,90.4"/>
					<path class="st19" d="M101,90.4l-11.4-6.2c0.1,0,0.1,0,0.2,0.1l11.4,6.2C101.1,90.4,101.1,90.4,101,90.4"/>
					<path class="st20" d="M101.2,90.5l-11.4-6.2c0,0,0,0,0,0L101.2,90.5C101.2,90.5,101.2,90.5,101.2,90.5"/>
				</g>
			</g>
			<g>
				<polygon class="st21" points="83.1,92.8 71.7,86.6 89.1,84.2 100.5,90.4 				"/>
			</g>
			<g>
				<polygon class="st22" points="81.7,193.2 70.3,187 70.5,88 81.9,94.2 				"/>
			</g>
			<g class="st0">
				<defs>
					<path id="SVGID_11_" class="st0" d="M81.9,94.2L70.5,88c0-0.9,0.5-1.3,1.3-1.4l11.4,6.2C82.3,92.9,81.9,93.4,81.9,94.2z"/>
				</defs>
				<clipPath id="SVGID_12_">
					<use xlink:href="#SVGID_11_"  style="overflow:visible;"/>
				</clipPath>
				<g class="st23">
					<path class="st16" d="M81.9,94.2L70.5,88c0-0.2,0-0.4,0.1-0.6L82,93.6C81.9,93.8,81.9,94,81.9,94.2"/>
					<path class="st24" d="M82,93.6l-11.4-6.2c0-0.1,0-0.1,0.1-0.2l11.4,6.2C82,93.5,82,93.6,82,93.6"/>
					<path class="st25" d="M82.1,93.5l-11.4-6.2c0,0,0-0.1,0.1-0.1l11.4,6.2C82.1,93.4,82.1,93.4,82.1,93.5"/>
					<path class="st26" d="M82.1,93.4l-11.4-6.2c0,0,0-0.1,0.1-0.1L82.1,93.4C82.2,93.3,82.1,93.3,82.1,93.4"/>
					<path class="st27" d="M82.2,93.3l-11.4-6.2c0,0,0.1-0.1,0.1-0.1L82.2,93.3C82.3,93.2,82.2,93.2,82.2,93.3"/>
					<path class="st20" d="M82.3,93.2L70.9,87c0,0,0.1-0.1,0.1-0.1l11.4,6.2C82.4,93.1,82.3,93.1,82.3,93.2"/>
					<path class="st19" d="M82.4,93.1L71,86.9c0.1,0,0.1-0.1,0.2-0.1L82.6,93C82.5,93,82.5,93,82.4,93.1"/>
					<path class="st18" d="M82.6,93l-11.4-6.2c0.2-0.1,0.3-0.1,0.5-0.2l11.4,6.2C82.9,92.8,82.7,92.9,82.6,93"/>
				</g>
			</g>
			<g>
				<path class="st28" d="M100.5,90.4c0.6-0.1,1.1,0.2,1.2,0.8c0.1,0.1,0.1,0.2,0.1,0.3l-0.2,98.9c0,1.1-0.5,1.6-1.3,1.7l-17.4,2.5
					c-0.8,0.1-1.2-0.3-1.2-1.4l0.2-98.9c0-0.9,0.5-1.3,1.3-1.4L100.5,90.4z"/>
			</g>
		</g>
		<g class="st0">
			<g class="st0">
				<defs>
					<path id="SVGID_13_" class="st0" d="M158.5,166.4l-11.4-6.2c0.2,0,0.4,0,0.6-0.1c0.9-0.1,1.8-0.4,2.6-0.9l11.4,6.2
						c-0.8,0.4-1.7,0.7-2.6,0.9C158.9,166.3,158.7,166.3,158.5,166.4z"/>
				</defs>
				<clipPath id="SVGID_14_">
					<use xlink:href="#SVGID_13_"  style="overflow:visible;"/>
				</clipPath>
				<g class="st29">
					<path class="st18" d="M158.5,166.4l-11.4-6.2c0.2,0,0.4,0,0.6-0.1c0.8-0.1,1.5-0.3,2.2-0.7l11.4,6.2c-0.7,0.3-1.4,0.6-2.2,0.7
						C158.9,166.3,158.7,166.3,158.5,166.4"/>
					<path class="st19" d="M161.3,165.6l-11.4-6.2c0.1-0.1,0.3-0.1,0.4-0.2l11.4,6.2C161.6,165.5,161.5,165.6,161.3,165.6"/>
				</g>
			</g>
			<g class="st0">
				<defs>
					<path id="SVGID_15_" class="st0" d="M147.4,166.9l-11.4-6.2c2.4,0.5,4.9,0.6,7.4,0.2c1.3-0.2,2.6-0.5,3.7-0.7l11.4,6.2
						c-1.2,0.3-2.4,0.5-3.7,0.7C152.3,167.4,149.8,167.4,147.4,166.9z"/>
				</defs>
				<clipPath id="SVGID_16_">
					<use xlink:href="#SVGID_15_"  style="overflow:visible;"/>
				</clipPath>
				<g class="st30">
					<path class="st18" d="M147.4,166.9l-11.4-6.2c2.4,0.5,4.9,0.6,7.4,0.2c1.3-0.2,2.6-0.5,3.7-0.7l11.4,6.2
						c-1.2,0.3-2.4,0.5-3.7,0.7C152.3,167.4,149.8,167.4,147.4,166.9"/>
				</g>
			</g>
			<g class="st0">
				<defs>
					<path id="SVGID_17_" class="st0" d="M143.8,165.6l-11.4-6.2c1.1,0.6,2.3,1,3.6,1.3l11.4,6.2
						C146.1,166.6,144.9,166.2,143.8,165.6z"/>
				</defs>
				<clipPath id="SVGID_18_">
					<use xlink:href="#SVGID_17_"  style="overflow:visible;"/>
				</clipPath>
				<g class="st31">
					<path class="st20" d="M143.8,165.6l-11.4-6.2c0.2,0.1,0.3,0.2,0.5,0.2l11.4,6.2C144.1,165.7,143.9,165.6,143.8,165.6"/>
					<path class="st19" d="M144.3,165.8l-11.4-6.2c0.8,0.4,1.5,0.7,2.4,0.9l11.4,6.2C145.8,166.5,145,166.2,144.3,165.8"/>
					<path class="st18" d="M146.6,166.7l-11.4-6.2c0.3,0.1,0.5,0.1,0.8,0.2l11.4,6.2C147.2,166.8,146.9,166.7,146.6,166.7"/>
				</g>
			</g>
			<g>
				<polygon class="st22" points="161.7,165.4 150.4,159.2 150.4,116.9 161.8,123.1 				"/>
			</g>
			<g class="st0">
				<defs>
					<path id="SVGID_19_" class="st0" d="M170,64.7l11.4,6.2c-0.1-0.1-0.3-0.1-0.5-0.1l-11.4-6.2C169.7,64.6,169.9,64.6,170,64.7z"
						/>
				</defs>
				<clipPath id="SVGID_20_">
					<use xlink:href="#SVGID_19_"  style="overflow:visible;"/>
				</clipPath>
				<g class="st32">
					<path class="st18" d="M180.9,70.8l-11.4-6.2c0.1,0,0.3,0,0.4,0l11.4,6.2C181.1,70.8,181,70.8,180.9,70.8"/>
					<path class="st19" d="M181.3,70.8l-11.4-6.2c0,0,0.1,0,0.1,0l11.4,6.2C181.3,70.9,181.3,70.8,181.3,70.8"/>
					<path class="st20" d="M181.4,70.9L170,64.7c0,0,0,0,0,0L181.4,70.9C181.4,70.9,181.4,70.9,181.4,70.9"/>
				</g>
			</g>
			<g>
				<polygon class="st21" points="162.8,73.4 151.4,67.2 169.5,64.6 180.9,70.8 				"/>
			</g>
			<g>
				<polygon class="st22" points="161.9,104.9 150.5,98.7 150.5,68.3 161.9,74.5 				"/>
			</g>
			<g class="st0">
				<defs>
					<path id="SVGID_21_" class="st0" d="M161.9,74.5l-11.4-6.2c0-0.7,0.3-1.1,0.9-1.2l11.4,6.2C162.2,73.4,161.9,73.9,161.9,74.5z"
						/>
				</defs>
				<clipPath id="SVGID_22_">
					<use xlink:href="#SVGID_21_"  style="overflow:visible;"/>
				</clipPath>
				<g class="st33">
					<path class="st16" d="M161.9,74.5l-11.4-6.2c0-0.2,0-0.4,0.1-0.6L162,74C161.9,74.1,161.9,74.3,161.9,74.5"/>
					<path class="st24" d="M162,74l-11.4-6.2c0,0,0-0.1,0.1-0.1l11.4,6.2C162,73.9,162,73.9,162,74"/>
					<path class="st25" d="M162.1,73.8l-11.4-6.2c0,0,0-0.1,0.1-0.1L162.1,73.8C162.1,73.8,162.1,73.8,162.1,73.8"/>
					<path class="st26" d="M162.1,73.7l-11.4-6.2c0,0,0-0.1,0.1-0.1L162.1,73.7C162.2,73.7,162.1,73.7,162.1,73.7"/>
					<path class="st27" d="M162.2,73.7l-11.4-6.2c0,0,0,0,0.1-0.1L162.2,73.7C162.2,73.6,162.2,73.6,162.2,73.7"/>
					<path class="st20" d="M162.2,73.6l-11.4-6.2c0,0,0.1,0,0.1-0.1L162.2,73.6C162.3,73.6,162.3,73.6,162.2,73.6"/>
					<path class="st19" d="M162.3,73.5l-11.4-6.2c0,0,0.1-0.1,0.1-0.1l11.4,6.2C162.4,73.5,162.4,73.5,162.3,73.5"/>
					<path class="st18" d="M162.5,73.5l-11.4-6.2c0.1,0,0.2-0.1,0.3-0.1l11.4,6.2C162.7,73.4,162.6,73.4,162.5,73.5"/>
				</g>
			</g>
			<g class="st0">
				<defs>
					<path id="SVGID_23_" class="st0" d="M130.4,182.7l-11.4-6.2c-4.1-2.2-7.5-5.5-10-9.6c-3.3-5.4-4.9-12.5-4.9-21.2
						c-0.1-7.1,1.6-14.3,4.9-21c3.4-6.7,8.3-12.6,14.2-16.9c6.2-4.6,13.7-7.5,22.5-8.7c0.4-0.1,1.1-0.2,1.9-0.2
						c0.8,0,1.7-0.1,2.8-0.2l11.4,6.2c-1.1,0.1-2,0.2-2.8,0.2c-0.8,0-1.4,0.1-1.9,0.2c-8.8,1.2-16.3,4.1-22.5,8.7
						c-5.9,4.3-10.8,10.2-14.2,16.9c-3.3,6.6-5,13.9-4.9,21c0,8.7,1.6,15.8,4.9,21.2C123,177.2,126.3,180.5,130.4,182.7z"/>
				</defs>
				<clipPath id="SVGID_24_">
					<use xlink:href="#SVGID_23_"  style="overflow:visible;"/>
				</clipPath>
				<g class="st34">
					<path class="st16" d="M130.4,182.7l-11.4-6.2c-4.1-2.2-7.5-5.5-10-9.6c-3.3-5.4-4.9-12.5-4.9-21.2c-0.1-5.4,0.9-10.9,2.8-16.1
						l11.4,6.2c-1.9,5.2-2.9,10.7-2.8,16.1c0,8.7,1.6,15.8,4.9,21.2C123,177.2,126.3,180.5,130.4,182.7"/>
					<path class="st24" d="M118.4,135.7l-11.4-6.2c0.6-1.6,1.3-3.3,2.1-4.9c0.2-0.4,0.4-0.8,0.6-1.1l11.4,6.2
						c-0.2,0.4-0.4,0.7-0.6,1.1C119.7,132.5,119,134.1,118.4,135.7"/>
					<path class="st25" d="M121.1,129.8l-11.4-6.2c0.9-1.7,1.9-3.4,3-4.9l11.4,6.2C123,126.4,122,128,121.1,129.8"/>
					<path class="st26" d="M124.2,124.8l-11.4-6.2c1-1.5,2.1-2.9,3.3-4.2l11.4,6.2C126.3,121.9,125.2,123.3,124.2,124.8"/>
					<path class="st27" d="M127.5,120.6l-11.4-6.2c1.2-1.3,2.4-2.6,3.7-3.8l11.4,6.2C129.9,118,128.6,119.3,127.5,120.6"/>
					<path class="st20" d="M131.2,116.8l-11.4-6.2c1.1-1,2.3-2,3.5-2.9c0.4-0.3,0.7-0.5,1.1-0.8l11.4,6.2c-0.4,0.3-0.7,0.5-1.1,0.8
						C133.5,114.9,132.3,115.8,131.2,116.8"/>
					<path class="st19" d="M135.8,113.2l-11.4-6.2c1.9-1.3,4-2.5,6.2-3.5l11.4,6.2C139.8,110.7,137.7,111.9,135.8,113.2"/>
					<path class="st18" d="M142,109.7l-11.4-6.2c4.6-2.1,9.6-3.6,15.3-4.4c0.4-0.1,1.1-0.2,1.9-0.2c0.8,0,1.7-0.1,2.8-0.2l11.4,6.2
						c-1.1,0.1-2,0.2-2.8,0.2c-0.8,0-1.4,0.1-1.9,0.2C151.6,106.1,146.5,107.5,142,109.7"/>
				</g>
			</g>
			<g>
				<path class="st28" d="M181.8,168.7c0.2,2,0.3,3.9,0.3,5.5c0,0.7-0.3,1.3-0.9,1.7c-4.6,2.8-9.5,5-14.5,6.6
					c-4.4,1.5-9.1,2.6-13.7,3.3c-0.2,0-0.4,0.1-0.6,0.1c-6.4,0.9-12.7,0.3-18.5-1.7c-5.6-2-10.2-6-13.4-11.2
					c-3.3-5.4-4.9-12.5-4.9-21.2c-0.1-7.1,1.6-14.3,4.9-21c3.4-6.7,8.3-12.6,14.2-16.9c6.2-4.6,13.7-7.5,22.5-8.7
					c0.4-0.1,1.1-0.2,1.9-0.2c0.8,0,1.7-0.1,2.8-0.2l0.1-30.4c0-0.7,0.3-1.1,0.9-1.2l18.1-2.5c0.5-0.1,0.8,0.2,0.9,0.5l-0.2,91.6
					C181.6,164.7,181.7,166.7,181.8,168.7z M161.7,165.4l0.1-42.3c-0.8-0.1-1.6-0.2-2.4-0.1c-1,0-2,0.1-2.9,0.2
					c-3.5,0.5-6.9,1.7-10.1,3.9c-3,2.1-5.6,4.8-7.6,8.2c-2,3.3-2.9,7.6-3,12.6c-0.1,3.4,0.4,6.7,1.5,9.7c0.9,2.5,2.2,4.6,4,6.3
					c1.7,1.5,3.7,2.6,6,3c2.4,0.5,4.9,0.6,7.4,0.2c1.3-0.2,2.6-0.5,3.7-0.7c0.2,0,0.4,0,0.6-0.1
					C160.1,166.2,160.9,165.9,161.7,165.4"/>
			</g>
		</g>
	</g>
</g>
</svg>
