<svg id="Calque_1" xmlns="http://www.w3.org/2000/svg" xmlns:xlink="http://www.w3.org/1999/xlink" viewBox="0 0 240 262" style="enable-background:new 0 0 240 262"><style>.st0{enable-background:new}.st1{clip-path:url(#SVGID_2_);enable-background:new}.st2{fill:#00003c}.st3{fill:#00003a}.st4{fill:#000038}.st5{clip-path:url(#SVGID_4_);enable-background:new}.st6{fill:#00002f}.st7{fill:#000040}.st8{fill:#00002e}.st9{clip-path:url(#SVGID_6_);enable-background:new}.st10{fill:#000031}.st11{fill:#003}.st12{fill:#000035}.st13{fill:#000037}.st14{fill:#00004f}.st15{clip-path:url(#SVGID_8_);enable-background:new}.st16{fill:#5c5c99}.st17{fill:#5f5f9e}.st18{fill:#6262a3}.st19{fill:#6565a8}.st20{clip-path:url(#SVGID_10_);enable-background:new}.st21{clip-path:url(#SVGID_12_);enable-background:new}.st22{fill:#4e4e82}.st23{clip-path:url(#SVGID_14_);enable-background:new}.st24{clip-path:url(#SVGID_16_);enable-background:new}.st25{clip-path:url(#SVGID_18_);enable-background:new}.st26{clip-path:url(#SVGID_20_);enable-background:new}.st27{fill:#505085}.st28{fill:#6c6cb4}.st29{clip-path:url(#SVGID_22_);enable-background:new}.st30{clip-path:url(#SVGID_24_);enable-background:new}.st31{fill:#53538a}.st32{fill:#56568f}.st33{fill:#595994}.st34{fill:#8686df}.st35{clip-path:url(#SVGID_26_);enable-background:new}.st36{fill:#4d4d80}.st37{clip-path:url(#SVGID_28_);enable-background:new}.st38{clip-path:url(#SVGID_30_);enable-background:new}.st39{clip-path:url(#SVGID_32_);enable-background:new}.st40{clip-path:url(#SVGID_34_);enable-background:new}.st41{fill:#55558d}.st42{clip-path:url(#SVGID_36_);enable-background:new}.st43{clip-path:url(#SVGID_38_);enable-background:new}.st44{clip-path:url(#SVGID_40_);enable-background:new}</style><title>Adobe After Effects CC logo</title><g id="vlpb"><g><g class="st0"><g class="st0"><defs><path id="SVGID_1_" class="st0" d="M198 6.2l22.8 12.4c-5.8-3.2-12.8-4.5-20.2-3.5L177.8 2.7C185.2 1.7 192.2 3 198 6.2z"/></defs><clipPath id="SVGID_2_"><use xlink:href="#SVGID_1_" style="overflow:visible"/></clipPath><g class="st1"><path class="st2" d="M200.6 15.1 177.8 2.7c4.6-.6 9-.4 13.1.7l22.8 12.4C209.6 14.7 205.2 14.5 200.6 15.1"/><path class="st3" d="M213.7 15.8 190.9 3.4c2.1.5 4.1 1.3 6 2.2L219.7 18C217.8 17.1 215.8 16.3 213.7 15.8"/><path class="st4" d="M219.7 18 196.9 5.6c.4.2.8.4 1.2.6l22.8 12.4C220.4 18.4 220.1 18.2 219.7 18"/></g></g><g class="st0"><defs><path id="SVGID_3_" class="st0" d="M42 255.8l-22.8-12.4c-10.6-5.7-17.6-17.5-17.5-32l22.8 12.4C24.4 238.3 31.4 250.1 42 255.8z"/></defs><clipPath id="SVGID_4_"><use xlink:href="#SVGID_3_" style="overflow:visible"/></clipPath><g class="st5"><path class="st6" d="M42 255.8l-22.8-12.4c-10.6-5.7-17.6-17.5-17.5-32l22.8 12.4C24.4 238.3 31.4 250.1 42 255.8"/></g></g><g><path class="st7" d="M62.6 34.5 39.8 22.1 177.8 2.7 200.6 15.1z"/></g><g><path class="st8" d="M24.5 223.8 1.7 211.4 1.9 68.2 24.7 80.6z"/></g><g class="st0"><defs><path id="SVGID_5_" class="st0" d="M24.7 80.6 1.9 68.2c0-22.6 17-43.2 37.9-46.1l22.8 12.4C41.7 37.4 24.8 58.1 24.7 80.6z"/></defs><clipPath id="SVGID_6_"><use xlink:href="#SVGID_5_" style="overflow:visible"/></clipPath><g class="st9"><path class="st6" d="M24.7 80.6 1.9 68.2c0-5.6 1-11 2.9-16.1l22.8 12.4C25.8 69.6 24.7 75.1 24.7 80.6"/><path class="st10" d="M27.6 64.5 4.8 52.1c.8-2.2 1.8-4.3 2.9-6.4l22.8 12.4C29.4 60.2 28.4 62.3 27.6 64.5"/><path class="st11" d="M30.5 58.2 7.7 45.8c.9-1.7 2-3.4 3.1-5l22.8 12.4C32.5 54.8 31.4 56.5 30.5 58.2"/><path class="st12" d="M33.6 53.2 10.8 40.8c1.1-1.5 2.2-2.9 3.4-4.3L37 48.9C35.8 50.2 34.6 51.7 33.6 53.2"/><path class="st13" d="M37 48.9 14.2 36.5c1.2-1.4 2.5-2.7 3.9-3.9L40.8 45C39.5 46.2 38.2 47.5 37 48.9"/><path class="st4" d="M40.8 45 18 32.6c1.5-1.3 3-2.5 4.6-3.6l22.8 12.4C43.8 42.5 42.3 43.7 40.8 45"/><path class="st3" d="M45.4 41.4 22.6 29c2-1.4 4-2.5 6.1-3.5l22.8 12.4C49.4 38.8 47.4 40 45.4 41.4"/><path class="st2" d="M51.5 37.8 28.7 25.4c3.5-1.6 7.2-2.8 11.1-3.3l22.8 12.4C58.8 35 55 36.2 51.5 37.8"/></g></g><g><path class="st14" d="M200.6 15.1c20.9-2.9 37.8 12.9 37.8 35.5l-.3 143.1c0 22.6-17 43.2-37.9 46.1l-138 19.4c-20.9 2.9-37.8-12.9-37.7-35.5l.3-143.1c0-22.6 17-43.2 37.9-46.1L200.6 15.1z"/></g></g></g></g><g id="vlpe"><g><g class="st0"><g class="st0"><defs><path id="SVGID_7_" class="st0" d="M194.4 147.1l11.4 6.2c0 0-.1.0-.1.0-.1.0-.2.1-.4.2l-11.4-6.2c.1-.1.3-.2.4-.2.0.0.0.0.09999999999999432.0z"/></defs><clipPath id="SVGID_8_"><use xlink:href="#SVGID_7_" style="overflow:visible"/></clipPath><g class="st15"><path class="st16" d="M205.3 153.5l-11.4-6.2c0 0 0 0 .1-.1L205.3 153.5c0 0 0 0 0 0"/><path class="st17" d="M205.3 153.4l-11.4-6.2c0 0 .1-.1.1-.1l11.4 6.2C205.4 153.4 205.4 153.4 205.3 153.4"/><path class="st18" d="M205.5 153.4l-11.4-6.2c0 0 .1.0.1-.1L205.5 153.4C205.5 153.3 205.5 153.3 205.5 153.4"/><path class="st19" d="M205.5 153.3l-11.4-6.2c0 0 .1.0.1.0.0.0.1.0.1.0l11.4 6.2c0 0 0 0-.19999999999998863.0C205.6 153.3 205.6 153.3 205.5 153.3"/><path class="st18" d="M205.7 153.3l-11.4-6.2c0 0 0 0 0 0L205.7 153.3c0 0 0 0 0 0"/><path class="st17" d="M205.8 153.3 194.4 147.1v0L205.8 153.3v0"/></g></g><g class="st0"><defs><path id="SVGID_9_" class="st0" d="M197.3 156.8l-11.4-6.2c2.8-.8 5.4-1.9 7.9-3.3l11.4 6.2C202.8 154.9 200.1 156.1 197.3 156.8z"/></defs><clipPath id="SVGID_10_"><use xlink:href="#SVGID_9_" style="overflow:visible"/></clipPath><g class="st20"><path class="st19" d="M197.3 156.8l-11.4-6.2c1.9-.5 3.7-1.2 5.5-2.1l11.4 6.2C201.1 155.6 199.2 156.3 197.3 156.8"/><path class="st18" d="M202.8 154.8l-11.4-6.2c.8-.4 1.7-.8 2.5-1.3l11.4 6.2C204.5 154 203.7 154.4 202.8 154.8"/></g></g><g class="st0"><defs><path id="SVGID_11_" class="st0" d="M176.7 158.4l-11.4-6.2c3.4 1.1 7.1 1.4 10.8.9.2.0.4-.1.6-.1 3.1-.5 6.2-1.3 9.3-2.4l11.4 6.2c-3 1.1-6.1 1.8-9.3 2.4-.2.0-.4.1-.6.1C183.8 159.8 180.1 159.5 176.7 158.4z"/></defs><clipPath id="SVGID_12_"><use xlink:href="#SVGID_11_" style="overflow:visible"/></clipPath><g class="st21"><path class="st18" d="M176.7 158.4l-11.4-6.2c.4.1.8.2 1.2.4l11.4 6.2C177.5 158.6 177.1 158.5 176.7 158.4"/><path class="st19" d="M177.9 158.7l-11.4-6.2c3 .8 6.3 1 9.6.5.2.0.4-.1.6-.1 3.1-.5 6.2-1.3 9.3-2.4l11.4 6.2c-3 1.1-6.1 1.8-9.3 2.4-.2.0-.4.1-.6.1C184.2 159.7 181 159.5 177.9 158.7"/></g></g><g><path class="st22" d="M193.4 126.8 182 120.6V119.7L193.4 125.9z"/></g><g class="st0"><defs><path id="SVGID_13_" class="st0" d="M191.3 127.9l-11.4-6.2c.7-.2 1.4-.5 2.1-1.1l11.4 6.2C192.8 127.4 192.1 127.7 191.3 127.9z"/></defs><clipPath id="SVGID_14_"><use xlink:href="#SVGID_13_" style="overflow:visible"/></clipPath><g class="st23"><path class="st19" d="M191.3 127.9l-11.4-6.2c.3-.1.7-.2 1-.4l11.4 6.2C192 127.7 191.7 127.8 191.3 127.9"/><path class="st18" d="M192.4 127.5l-11.4-6.2c.2-.1.4-.2.6-.4l11.4 6.2C192.8 127.3 192.6 127.4 192.4 127.5"/><path class="st17" d="M193 127.2l-11.4-6.2c.1-.1.3-.2.4-.3l11.4 6.2C193.2 127 193.1 127.1 193 127.2"/><path class="st16" d="M193.4 126.9l-11.4-6.2c0 0 0 0 0 0L193.4 126.9c0 0 0 0 0 0"/></g></g><g class="st0"><defs><path id="SVGID_15_" class="st0" d="M174.5 157.5l-11.4-6.2c.7.4 1.4.7 2.2.9l11.4 6.2C175.9 158.2 175.2 157.9 174.5 157.5z"/></defs><clipPath id="SVGID_16_"><use xlink:href="#SVGID_15_" style="overflow:visible"/></clipPath><g class="st24"><path class="st17" d="M174.5 157.5l-11.4-6.2c.1.1.3.1.4.2l11.4 6.2C174.7 157.6 174.6 157.5 174.5 157.5"/><path class="st18" d="M174.9 157.7l-11.4-6.2c.6.3 1.2.5 1.8.7l11.4 6.2C176.1 158.2 175.5 158 174.9 157.7"/></g></g><g class="st0"><defs><path id="SVGID_17_" class="st0" d="M186.3 128.7l-11.4-6.2c2.3-.3 4-.6 5.1-.8l11.4 6.2C190.3 128.1 188.6 128.4 186.3 128.7z"/></defs><clipPath id="SVGID_18_"><use xlink:href="#SVGID_17_" style="overflow:visible"/></clipPath><g class="st25"><path class="st19" d="M186.3 128.7l-11.4-6.2c2.3-.3 4-.6 5.1-.8l11.4 6.2C190.3 128.1 188.6 128.4 186.3 128.7"/></g></g><g class="st0"><defs><path id="SVGID_19_" class="st0" d="M176.6 110l11.4 6.2c2.3 1.2 4.1 3.4 4.9 6.2.4 1.1.5 2.2.5 3.5l-11.4-6.2c0-1.2-.2-2.4-.5-3.5C180.6 113.4 178.8 111.3 176.6 110z"/></defs><clipPath id="SVGID_20_"><use xlink:href="#SVGID_19_" style="overflow:visible"/></clipPath><g class="st26"><path class="st27" d="M193.4 125.9l-11.4-6.2c0-1.2-.2-2.4-.5-3.5-.9-2.8-2.6-4.9-4.9-6.2l11.4 6.2c2.3 1.2 4.1 3.4 4.9 6.2C193.2 123.5 193.4 124.6 193.4 125.9"/></g></g><g><path class="st28" d="M167.5 131.3 156.1 125.1 174.9 122.5 186.3 128.7z"/></g><g class="st0"><defs><path id="SVGID_21_" class="st0" d="M187.8 94.8l11.4 6.2c-1.1-.6-2.2-1.1-3.4-1.5-4.2-1.4-8.7-1.8-13.2-1.1-.2.0-.4.1-.6.1l-11.4-6.2c.2.0.4-.1.6-.1 4.5-.6 9-.3 13.2 1.1C185.5 93.7 186.7 94.2 187.8 94.8z"/></defs><clipPath id="SVGID_22_"><use xlink:href="#SVGID_21_" style="overflow:visible"/></clipPath><g class="st29"><path class="st19" d="M182 98.5l-11.4-6.2c.2.0.4-.1.6-.1 3.8-.5 7.6-.4 11.3.6l11.4 6.2c-3.6-.9-7.4-1.1-11.3-.6C182.4 98.4 182.2 98.5 182 98.5"/><path class="st18" d="M193.9 99l-11.4-6.2c.6.2 1.3.4 1.9.6.9.3 1.8.7 2.6 1.1l11.4 6.2c-.8-.4-1.7-.8-2.6-1.1C195.1 99.3 194.5 99.1 193.9 99"/><path class="st17" d="M198.4 100.6 187 94.4c.3.1.5.3.7.4l11.4 6.2C198.9 100.9 198.7 100.7 198.4 100.6"/></g></g><g class="st0"><defs><path id="SVGID_23_" class="st0" d="M162.5 175.2l-11.4-6.2c-2.7-1.5-5.1-3.4-7.1-5.8-2.8-3.3-4.9-7.3-6.1-11.7-1.2-4.3-1.9-9-1.8-13.8.0-5.2.7-10.4 2.3-15.6 1.4-5 3.7-9.7 6.7-14.1 2.9-4.3 6.6-7.8 10.8-10.6 4.2-2.8 9.2-4.3 14.9-5.1l11.4 6.2c-5.7.8-10.7 2.3-14.9 5.1-4.2 2.8-7.8 6.4-10.8 10.6-3 4.4-5.3 9.1-6.7 14.1-1.5 5.2-2.2 10.4-2.3 15.6.0 4.8.6 9.4 1.8 13.8 1.2 4.4 3.3 8.4 6.1 11.7C157.4 171.7 159.8 173.7 162.5 175.2z"/></defs><clipPath id="SVGID_24_"><use xlink:href="#SVGID_23_" style="overflow:visible"/></clipPath><g class="st30"><path class="st27" d="M162.5 175.2l-11.4-6.2c-2.7-1.5-5.1-3.4-7.1-5.8-2.8-3.3-4.9-7.3-6.1-11.7-1.2-4.3-1.9-9-1.8-13.8.0-5.2.7-10.4 2.3-15.6.3-1.1.7-2.2 1.1-3.3l11.4 6.2c-.4 1.1-.8 2.2-1.1 3.3-1.5 5.2-2.2 10.4-2.3 15.6.0 4.8.6 9.4 1.8 13.8 1.2 4.4 3.3 8.4 6.1 11.7C157.4 171.7 159.8 173.7 162.5 175.2"/><path class="st31" d="M150.7 125l-11.4-6.2c.8-2.1 1.7-4.1 2.7-6.1l11.4 6.2C152.4 120.8 151.5 122.9 150.7 125"/><path class="st32" d="M153.4 118.9l-11.4-6.2c.9-1.6 1.8-3.2 2.9-4.7.0-.1.1-.1.1-.2l11.4 6.2c0 .1-.1.1-.1.2C155.3 115.7 154.3 117.3 153.4 118.9"/><path class="st33" d="M156.4 114l-11.4-6.2c.9-1.3 1.9-2.5 2.9-3.7l11.4 6.2C158.3 111.5 157.3 112.8 156.4 114"/><path class="st16" d="M159.3 110.4l-11.4-6.2c1-1.2 2.1-2.3 3.2-3.3l11.4 6.2C161.4 108.1 160.3 109.2 159.3 110.4"/><path class="st17" d="M162.6 107.1l-11.4-6.2c1.3-1.1 2.6-2.2 4-3.2l11.4 6.2C165.2 104.9 163.8 105.9 162.6 107.1"/><path class="st18" d="M166.6 103.9l-11.4-6.2c.2-.1.3-.2.5-.4 1.1-.7 2.2-1.3 3.3-1.9l11.4 6.2c-1.2.5-2.3 1.2-3.3 1.9C166.9 103.7 166.8 103.8 166.6 103.9"/><path class="st19" d="M170.4 101.7 159 95.5c3.4-1.6 7.3-2.6 11.5-3.2l11.4 6.2C177.7 99.1 173.9 100.1 170.4 101.7"/></g></g><g><path class="st34" d="M210.4 116.1c1.2 3.7 1.7 7.5 1.7 11.5.0 2.3-.1 4.3-.2 6.2-.2 1.8-.3 3.2-.4 4.1-.1.7-.6 1.3-1.3 1.4-.5.1-1.5.3-2.9.6-1.4.4-3.1.7-5.2 1-2.1.3-4.2.2-6.5.5l-28.2 4c.3 2.9 1.2 5.8 2.7 8.2 1.6 2.4 3.8 4.1 6.5 4.9 3.4 1.1 7.1 1.4 10.8.9.2.0.4-.1.6-.1 3.1-.5 6.2-1.3 9.3-2.4 2.8-.8 5.4-1.9 7.9-3.3.1-.1.3-.2.4-.2.2.0.3.2.3.9v14.7c0 .4-.1.8-.2 1.2-.2.3-.4.5-.6.8-2.9 1.7-5.8 3.1-8.9 4.1-3.8 1.3-7.6 2.2-11.4 2.8-.4.1-.8.1-1.3.2-6.8 1-12.5.6-17.1-1-4.4-1.4-8.2-4-11.2-7.6-2.8-3.3-4.9-7.3-6.1-11.7-1.2-4.3-1.9-9-1.8-13.8.0-5.2.7-10.4 2.3-15.6 1.4-5 3.7-9.7 6.7-14.1 2.9-4.3 6.6-7.8 10.8-10.6 4.2-2.8 9.2-4.3 14.9-5.1.2.0.4-.1.6-.1 4.5-.6 9-.3 13.2 1.1 3.6 1.2 6.8 3.4 9.3 6.4C207.4 108.8 209.3 112.2 210.4 116.1zM193.4 126.8v-1c0-1.2-.2-2.4-.5-3.5-1.6-5-6.1-8-11.2-7.3-.1.0-.3.0-.4.1-.2.0-.5.0-.7.1-4.6.7-9 4-11.2 8.9-1.1 2.4-1.7 4.8-2 7.2l18.8-2.6c2.3-.3 4-.6 5.1-.8C192.1 127.7 192.8 127.4 193.4 126.8"/></g></g><g class="st0"><g class="st0"><defs><path id="SVGID_25_" class="st0" d="M122.8 183.7l-11.4-6.2c-.3-.2-.5-.4-.6-.7l11.4 6.2C122.4 183.3 122.6 183.5 122.8 183.7z"/></defs><clipPath id="SVGID_26_"><use xlink:href="#SVGID_25_" style="overflow:visible"/></clipPath><g class="st35"><path class="st27" d="M122.8 183.7l-11.4-6.2c-.3-.2-.5-.4-.6-.7l11.4 6.2C122.4 183.3 122.6 183.5 122.8 183.7"/></g></g><g><path class="st36" d="M122.3 182.9 110.9 176.7 103.6 154.7 115 160.9z"/></g><g class="st0"><defs><path id="SVGID_27_" class="st0" d="M109.7 143l-11.4-6.2c-.5-1.9-1.2-4.2-2-6.6-.8-2.5-1.6-5.2-2.4-7.9l11.4 6.2c.8 2.8 1.6 5.4 2.4 7.9C108.5 138.8 109.2 141.1 109.7 143z"/></defs><clipPath id="SVGID_28_"><use xlink:href="#SVGID_27_" style="overflow:visible"/></clipPath><g class="st37"><path class="st27" d="M109.7 143l-11.4-6.2c-.5-1.9-1.2-4.2-2-6.6-.8-2.5-1.6-5.2-2.4-7.9l11.4 6.2c.8 2.8 1.6 5.4 2.4 7.9C108.5 138.8 109.2 141.1 109.7 143"/></g></g><g><path class="st28" d="M87.1 146.2 75.7 140 98.3 136.8 109.7 143z"/></g><g class="st0"><defs><path id="SVGID_29_" class="st0" d="M56 193.5l-11.4-6.2c-.4-.2-.4-.7-.2-1.5l11.4 6.2C55.5 192.8 55.6 193.3 56 193.5z"
						/></defs><clipPath id="SVGID_30_"><use xlink:href="#SVGID_29_" style="overflow:visible"/></clipPath><g class="st38"><path class="st27" d="M56 193.5l-11.4-6.2c-.4-.2-.4-.7-.2-1.5l11.4 6.2C55.5 192.8 55.6 193.3 56 193.5"/></g></g><g class="st0"><defs><path id="SVGID_31_" class="st0" d="M99.1 79.4l11.4 6.2c-.2-.1-.5-.1-.8-.1l-11.4-6.2C98.7 79.3 98.9 79.3 99.1 79.4z"
						/></defs><clipPath id="SVGID_32_"><use xlink:href="#SVGID_31_" style="overflow:visible"/></clipPath><g class="st39"><path class="st19" d="M109.7 85.5l-11.4-6.2c.2.0.4.0.6.0l11.4 6.2C110.2 85.5 110 85.5 109.7 85.5"/><path class="st18" d="M110.3 85.5l-11.4-6.2c.1.0.1.0.2.1l11.4 6.2C110.5 85.6 110.4 85.5 110.3 85.5"/><path class="st17" d="M110.5 85.6l-11.4-6.2c0 0 0 0 0 0L110.5 85.6c0 0 0 0 0 0"/></g></g><g class="st0"><defs><path id="SVGID_33_" class="st0" d="M105.3 128.5l-11.4-6.2c-.9-2.9-1.7-5.6-2.6-8.5-.9-2.9-1.7-5.5-2.4-8.2-.7-2.6-1.3-5-1.9-7.2l11.4 6.2c.6 2.2 1.2 4.6 1.9 7.2.7 2.7 1.5 5.4 2.4 8.2C103.6 122.8 104.4 125.6 105.3 128.5z"/></defs><clipPath id="SVGID_34_"><use xlink:href="#SVGID_33_" style="overflow:visible"/></clipPath><g class="st40"><path class="st27" d="M105.3 128.5l-11.4-6.2c-.9-2.9-1.7-5.6-2.6-8.5-.9-2.9-1.7-5.5-2.4-8.2-.7-2.6-1.3-5-1.9-7.2l11.4 6.2c.6 2.2 1.2 4.6 1.9 7.2.7 2.7 1.5 5.4 2.4 8.2C103.6 122.8 104.4 125.6 105.3 128.5"/></g></g><g><path class="st41" d="M55.7 192 44.3 185.8 73.1 93.1 84.5 99.3z"/></g><g class="st0"><defs><path id="SVGID_35_" class="st0" d="M84.5 99.3l-11.4-6.2c.3-1 .5-1.9.9-3.1l11.4 6.2C85.1 97.4 84.8 98.3 84.5 99.3z"/></defs><clipPath id="SVGID_36_"><use xlink:href="#SVGID_35_" style="overflow:visible"/></clipPath><g class="st42"><path class="st27" d="M84.5 99.3l-11.4-6.2c.3-1 .5-1.9.9-3.1l11.4 6.2C85.1 97.4 84.8 98.3 84.5 99.3"/></g></g><g><path class="st28" d="M86.7 88.7 75.3 82.5 98.3 79.3 109.7 85.5z"/></g><g class="st0"><defs><path id="SVGID_37_" class="st0" d="M85.4 96.2 74 90c.4-2.1.5-4.2.5-6.3L86 89.9C86 92 85.8 94.1 85.4 96.2z"/></defs><clipPath id="SVGID_38_"><use xlink:href="#SVGID_37_" style="overflow:visible"/></clipPath><g class="st43"><path class="st27" d="M85.4 96.2 74 90c.4-2.1.5-4.2.5-6.3L86 89.9C86 92 85.8 94.1 85.4 96.2"/></g></g><g><path class="st34" d="M143.2 179.5c.3 1 0 1.5-.9 1.7l-18.6 2.6c-.7.1-1.3-.3-1.4-.9l-7.3-22v.5L81.9 166l-6.8 23.6c-.2.8-.8 1.5-1.5 1.6l-16.9 2.4c-1 .1-1.2-.4-1-1.6l28.8-92.7c.3-1 .5-1.9.9-3.1.4-2.1.5-4.2.5-6.3-.1-.5.3-1 .7-1.2l23-3.2c.6-.1 1.1.1 1.2.6L143.2 179.5zM87.1 146.2l22.6-3.2c-.5-1.9-1.2-4.2-2-6.6-.8-2.5-1.6-5.2-2.4-7.9-.9-2.9-1.7-5.6-2.6-8.5-.9-2.9-1.7-5.5-2.4-8.2-.7-2.6-1.3-5-1.9-7.2h-.2c-.8 4.2-1.8 8.5-3.1 12.8-1.3 4.8-2.7 9.8-4.1 14.8C89.9 137.3 88.5 142 87.1 146.2"/></g><g class="st0"><defs><path id="SVGID_39_" class="st0" d="M86 89.9l-11.4-6.2c-.1-.5.3-1 .7-1.2l11.4 6.2C86.2 88.9 85.9 89.4 86 89.9z"/></defs><clipPath id="SVGID_40_"><use xlink:href="#SVGID_39_" style="overflow:visible"/></clipPath><g class="st44"><path class="st27" d="M86 89.9l-11.4-6.2c0-.2.0-.3.0-.5L86 89.4C86 89.6 86 89.7 86 89.9"/><path class="st31" d="M86 89.4l-11.4-6.2c0-.1.0-.1.1-.1l11.4 6.2C86.1 89.3 86 89.4 86 89.4"/><path class="st32" d="M86.1 89.3l-11.4-6.2c0 0 0-.1.1-.1l11.4 6.2C86.1 89.2 86.1 89.2 86.1 89.3"/><path class="st33" d="M86.2 89.1l-11.4-6.2c0 0 .1-.1.1-.1L86.3 89C86.2 89.1 86.2 89.1 86.2 89.1"/><path class="st16" d="M86.3 89l-11.4-6.2c0 0 .1-.1.1-.1L86.3 89c0 0 0 0 0 0"/><path class="st17" d="M86.4 88.9 75 82.7c0 0 .1-.1.1-.1l11.4 6.2C86.4 88.9 86.4 88.9 86.4 88.9"/><path class="st18" d="M86.5 88.9l-11.4-6.2c0 0 .1-.1.1-.1l11.4 6.2C86.6 88.8 86.5 88.8 86.5 88.9"/><path class="st19" d="M86.6 88.8l-11.4-6.2c0 0 .1.0.1.0L86.6 88.8C86.7 88.7 86.6 88.8 86.6 88.8"/></g></g></g></g></g></svg>