<svg id="Angular" xmlns="http://www.w3.org/2000/svg" xmlns:xlink="http://www.w3.org/1999/xlink" viewBox="0 0 4e3 4e3" style="enable-background:new 0 0 4e3 4e3"><style>.st0{fill:#e23237}.st1{fill:#b52e31}.st2{fill:#fff}</style><g id="Angular_icon"><path class="st0" d="M585.6 997.2 2e3 5e2l1414.4 488.4-232 1846.4L2e3 35e2 798.9 2843.6 585.6 997.2z"/><path class="st1" d="M3414.4 988.4 2e3 5e2v3e3l1182.3-664.1L3414.4 988.4v0z"/><path class="st2" d="M2e3 850.3v0l-886.2 1934.8h322.6l176.8-442h371.3 1.1 407.7l191.2 442h307.9L2e3 850.3v0zM2e3 1470.2l276.2 614.4H2e3v0h-276.2L2e3 1470.2v0z"/></g></svg>