<?xml version="1.0" encoding="utf-8"?>
<!-- Generator: Adobe Illustrator 22.0.0, SVG Export Plug-In . SVG Version: 6.00 Build 0)  -->
<svg version="1.1" id="Angular" xmlns="http://www.w3.org/2000/svg" xmlns:xlink="http://www.w3.org/1999/xlink" x="0px" y="0px"
	 viewBox="0 0 4000 4000" style="enable-background:new 0 0 4000 4000;" xml:space="preserve">
<style type="text/css">
	.st0{enable-background:new    ;}
	.st1{fill:#812123;}
	.st2{fill:#62191A;}
	.st3{fill:#7B1F21;}
	.st4{fill:#761E20;}
	.st5{fill:#5F181A;}
	.st6{fill:#5D1819;}
	.st7{fill:#982225;}
	.st8{fill:#9D282B;}
	.st9{fill:#5B1719;}
	.st10{fill:#721D1F;}
	.st11{fill:#761A1D;}
	.st12{fill:#8F2023;}
	.st13{fill:#741A1C;}
	.st14{fill:#72191C;}
	.st15{fill:#71191C;}
	.st16{fill:#791F21;}
	.st17{fill:#C52C30;}
	.st18{fill:#972125;}
	.st19{fill:#9F2327;}
	.st20{fill:#A62528;}
	.st21{fill:#731A1C;}
	.st22{fill:#808080;}
	.st23{fill:#B4B4B4;}
	.st24{fill:#919191;}
	.st25{fill:#DFDFDF;}
</style>
<g>
	<g>
		<g class="st0">
			<g>
				<polygon class="st1" points="2889.7,2664.4 1822.7,3431.7 1798,3408.6 2858.1,2646.3 				"/>
			</g>
			<g>
				<polygon class="st2" points="3131,864.5 2889.7,2664.4 2858.1,2646.3 3098.7,851.5 				"/>
			</g>
			<g>
				<polygon class="st3" points="3013.5,2734.5 1946.5,3501.9 1822.7,3431.7 2889.7,2664.4 				"/>
			</g>
			<g>
				<polygon class="st4" points="3038.7,2748.6 1978.6,3511 1946.5,3501.9 3013.5,2734.5 				"/>
			</g>
			<g>
				<polygon class="st5" points="3254.8,934.6 3013.5,2734.5 2889.7,2664.4 3131,864.5 				"/>
			</g>
			<g>
				<polygon class="st6" points="3279.2,953.8 3038.7,2748.6 3013.5,2734.5 3254.8,934.6 				"/>
			</g>
			<g>
				<polygon class="st7" points="1822.7,3431.7 763.3,2932.9 738.3,2913.9 1790.8,3409.6 				"/>
			</g>
			<g>
				<polygon class="st8" points="1853.4,539.1 3098.7,851.5 2858.1,2646.3 1798,3408.6 				"/>
			</g>
			<g>
				<polygon class="st9" points="1822.7,3431.7 1798,3408.6 1853.4,539.1 1878.3,550.3 				"/>
			</g>
			<g>
				<polygon class="st10" points="1878.3,550.3 1853.4,539.1 3098.7,851.5 3131,864.5 				"/>
			</g>
			<g>
				<polygon class="st11" points="1878.3,550.3 1822.7,3431.7 1790.8,3409.6 1846.3,540.1 				"/>
			</g>
			<g>
				<polygon class="st12" points="1946.5,3501.9 887.1,3003 763.3,2932.9 1822.7,3431.7 				"/>
			</g>
			<g>
				<polygon class="st6" points="1946.5,3501.9 1822.7,3431.7 1878.3,550.3 2002.1,620.5 				"/>
			</g>
			<g>
				<polygon class="st13" points="2002.1,620.5 1946.5,3501.9 1822.7,3431.7 1878.3,550.3 				"/>
			</g>
			<g>
				<polygon class="st5" points="1978.6,3511 1946.5,3501.9 2002.1,620.5 2034,641.5 				"/>
			</g>
			<g>
				<polygon class="st14" points="2026.8,642.4 1971.4,3511.9 1946.5,3501.9 2002.1,620.5 				"/>
			</g>
			<g>
				<polygon class="st15" points="1971.4,3511.9 1946.5,3501.9 887.1,3003 918.9,3016.3 				"/>
			</g>
			<g>
				<polygon class="st16" points="2002.1,620.5 1878.3,550.3 3131,864.5 3254.8,934.6 				"/>
			</g>
			<g>
				<polygon class="st8" points="2034,641.5 3279.2,953.8 3038.7,2748.6 1978.6,3511 				"/>
			</g>
			<g>
				<polygon class="st1" points="2034,641.5 2002.1,620.5 3254.8,934.6 3279.2,953.8 				"/>
			</g>
			<g>
				<polygon class="st17" points="1846.3,540.1 1790.8,3409.6 738.3,2913.9 582.8,1168.8 				"/>
			</g>
			<g>
				<polygon class="st18" points="607.3,1182.8 582.8,1168.8 1846.3,540.1 1878.3,550.3 				"/>
			</g>
			<g>
				<polygon class="st15" points="763.3,2932.9 738.3,2913.9 582.8,1168.8 607.3,1182.8 				"/>
			</g>
			<g>
				<polygon class="st19" points="731.1,1253 607.3,1182.8 1878.3,550.3 2002.1,620.5 				"/>
			</g>
			<g>
				<polygon class="st14" points="887.1,3003 763.3,2932.9 607.3,1182.8 731.1,1253 				"/>
			</g>
			<g>
				<polygon class="st17" points="2026.8,642.4 1971.4,3511.9 918.9,3016.3 763.4,1271.2 				"/>
			</g>
			<g>
				<polygon class="st20" points="763.4,1271.2 731.1,1253 2002.1,620.5 2026.8,642.4 				"/>
			</g>
			<g>
				<polygon class="st21" points="918.9,3016.3 887.1,3003 731.1,1253 763.4,1271.2 				"/>
			</g>
		</g>
	</g>
</g>
<g>
	<g>
		<g class="st0">
			<g>
				<polygon class="st22" points="2626.3,2699.1 2535.2,2649.5 2365.8,2248.8 2457,2298.4 				"/>
			</g>
			<g>
				<polygon class="st23" points="2107.3,2099.2 2016.1,2049.6 2262,2015.1 2353.2,2064.7 				"/>
			</g>
			<g>
				<polygon class="st23" points="1861.5,2133.8 1770.3,2084.2 2016.1,2049.6 2107.3,2099.2 				"/>
			</g>
			<g>
				<polygon class="st22" points="2353.2,2064.7 2262,2015.1 2017.2,1459.4 2108.4,1509 				"/>
			</g>
			<g>
				<polygon class="st24" points="1317.3,2883 1226.2,2833.4 2018.3,863.9 2109.5,913.5 				"/>
			</g>
			<g>
				<path class="st25" d="M2109.5,913.5l790.9,1747l-274.1,38.5L2457,2298.4l-362.9,51l-331.4,46.6l-158.2,446.7l-287.2,40.4
					L2109.5,913.5z M2107.3,2099.2l245.9-34.6L2108.4,1509l-246.9,624.7L2107.3,2099.2"/>
			</g>
		</g>
	</g>
</g>
</svg>
