<svg id="euH2nF1Jypi1" xmlns="http://www.w3.org/2000/svg" xmlns:xlink="http://www.w3.org/1999/xlink" viewBox="0 0 400 400" shape-rendering="geometricPrecision" text-rendering="geometricPrecision"><defs><linearGradient id="euH2nF1Jypi4-fill" x1="244.251700" y1="273.795600" x2="283.555200" y2="339.339900" spreadMethod="pad" gradientUnits="userSpaceOnUse"><stop id="euH2nF1Jypi4-fill-0" offset="0%" stop-color="rgb(217,217,217)"/><stop id="euH2nF1Jypi4-fill-1" offset="30.830000%" stop-color="rgb(198,198,197)"/><stop id="euH2nF1Jypi4-fill-2" offset="70.470000%" stop-color="rgb(134,134,134)"/><stop id="euH2nF1Jypi4-fill-3" offset="100%" stop-color="rgb(198,198,197)"/></linearGradient><linearGradient id="euH2nF1Jypi7-fill" x1="216.200200" y1="72.136700" x2="106.397000" y2="139.050700" spreadMethod="pad" gradientUnits="userSpaceOnUse"><stop id="euH2nF1Jypi7-fill-0" offset="0%" stop-color="rgb(52,226,167)"/><stop id="euH2nF1Jypi7-fill-1" offset="19.320000%" stop-color="rgb(50,233,147)"/><stop id="euH2nF1Jypi7-fill-2" offset="54.380000%" stop-color="rgb(46,245,115)"/><stop id="euH2nF1Jypi7-fill-3" offset="73.830000%" stop-color="rgb(45,249,103)"/><stop id="euH2nF1Jypi7-fill-4" offset="75.290000%" stop-color="rgb(45,248,98)"/><stop id="euH2nF1Jypi7-fill-5" offset="85.320000%" stop-color="rgb(47,243,68)"/><stop id="euH2nF1Jypi7-fill-6" offset="93.910000%" stop-color="rgb(49,240,50)"/><stop id="euH2nF1Jypi7-fill-7" offset="100%" stop-color="rgb(49,239,43)"/></linearGradient><linearGradient id="euH2nF1Jypi10-fill" x1="99.283000" y1="293.047900" x2="99.283000" y2="130.371600" spreadMethod="pad" gradientUnits="userSpaceOnUse"><stop id="euH2nF1Jypi10-fill-0" offset="0%" stop-color="rgb(52,226,167)"/><stop id="euH2nF1Jypi10-fill-1" offset="19.320000%" stop-color="rgb(50,233,147)"/><stop id="euH2nF1Jypi10-fill-2" offset="54.380000%" stop-color="rgb(46,245,115)"/><stop id="euH2nF1Jypi10-fill-3" offset="73.830000%" stop-color="rgb(45,249,103)"/><stop id="euH2nF1Jypi10-fill-4" offset="75.290000%" stop-color="rgb(45,248,98)"/><stop id="euH2nF1Jypi10-fill-5" offset="85.320000%" stop-color="rgb(47,243,68)"/><stop id="euH2nF1Jypi10-fill-6" offset="93.910000%" stop-color="rgb(49,240,50)"/><stop id="euH2nF1Jypi10-fill-7" offset="100%" stop-color="rgb(49,239,43)"/></linearGradient><linearGradient id="euH2nF1Jypi13-fill" x1="179.801000" y1="328.639000" x2="307.363400" y2="256.169000" spreadMethod="pad" gradientUnits="userSpaceOnUse"><stop id="euH2nF1Jypi13-fill-0" offset="0%" stop-color="rgb(49,239,43)"/><stop id="euH2nF1Jypi13-fill-1" offset="0%" stop-color="rgb(49,240,50)"/><stop id="euH2nF1Jypi13-fill-2" offset="14.680000%" stop-color="rgb(47,243,68)"/><stop id="euH2nF1Jypi13-fill-3" offset="24.710000%" stop-color="rgb(45,248,98)"/><stop id="euH2nF1Jypi13-fill-4" offset="26.170000%" stop-color="rgb(45,249,103)"/><stop id="euH2nF1Jypi13-fill-5" offset="45.620000%" stop-color="rgb(46,245,115)"/><stop id="euH2nF1Jypi13-fill-6" offset="80.680000%" stop-color="rgb(50,233,147)"/><stop id="euH2nF1Jypi13-fill-7" offset="100%" stop-color="rgb(52,226,167)"/></linearGradient><linearGradient id="euH2nF1Jypi16-fill" x1="287.969800" y1="267.534600" x2="316.642200" y2="107.331900" spreadMethod="pad" gradientUnits="userSpaceOnUse"><stop id="euH2nF1Jypi16-fill-0" offset="0%" stop-color="rgb(52,226,167)"/><stop id="euH2nF1Jypi16-fill-1" offset="19.320000%" stop-color="rgb(50,233,147)"/><stop id="euH2nF1Jypi16-fill-2" offset="54.380000%" stop-color="rgb(46,245,115)"/><stop id="euH2nF1Jypi16-fill-3" offset="73.830000%" stop-color="rgb(45,249,103)"/><stop id="euH2nF1Jypi16-fill-4" offset="75.290000%" stop-color="rgb(45,248,98)"/><stop id="euH2nF1Jypi16-fill-5" offset="85.320000%" stop-color="rgb(47,243,68)"/><stop id="euH2nF1Jypi16-fill-6" offset="93.910000%" stop-color="rgb(49,240,50)"/><stop id="euH2nF1Jypi16-fill-7" offset="100%" stop-color="rgb(49,239,43)"/></linearGradient><linearGradient id="euH2nF1Jypi19-fill" x1="200.715600" y1="199.565400" x2="200.715600" y2="153.582000" spreadMethod="pad" gradientUnits="userSpaceOnUse"><stop id="euH2nF1Jypi19-fill-0" offset="43.260000%" stop-color="rgb(45,249,103)"/><stop id="euH2nF1Jypi19-fill-1" offset="46.430000%" stop-color="rgb(45,248,98)"/><stop id="euH2nF1Jypi19-fill-2" offset="68.170000%" stop-color="rgb(47,243,68)"/><stop id="euH2nF1Jypi19-fill-3" offset="86.790000%" stop-color="rgb(49,240,50)"/><stop id="euH2nF1Jypi19-fill-4" offset="100%" stop-color="rgb(49,239,43)"/></linearGradient><linearGradient id="euH2nF1Jypi22-fill" x1="190.384900" y1="194.466800" x2="170.473600" y2="228.954400" spreadMethod="pad" gradientUnits="userSpaceOnUse"><stop id="euH2nF1Jypi22-fill-0" offset="43.260000%" stop-color="rgb(52,226,167)"/><stop id="euH2nF1Jypi22-fill-1" offset="48.660000%" stop-color="rgb(51,229,158)"/><stop id="euH2nF1Jypi22-fill-2" offset="69.490000%" stop-color="rgb(48,240,128)"/><stop id="euH2nF1Jypi22-fill-3" offset="87.340000%" stop-color="rgb(46,247,110)"/><stop id="euH2nF1Jypi22-fill-4" offset="100%" stop-color="rgb(45,249,103)"/></linearGradient><linearGradient id="euH2nF1Jypi25-fill" x1="211.046500" y1="194.466900" x2="230.957900" y2="228.954500" spreadMethod="pad" gradientUnits="userSpaceOnUse"><stop id="euH2nF1Jypi25-fill-0" offset="43.260000%" stop-color="rgb(52,226,167)"/><stop id="euH2nF1Jypi25-fill-1" offset="48.660000%" stop-color="rgb(51,229,158)"/><stop id="euH2nF1Jypi25-fill-2" offset="69.490000%" stop-color="rgb(48,240,128)"/><stop id="euH2nF1Jypi25-fill-3" offset="87.340000%" stop-color="rgb(46,247,110)"/><stop id="euH2nF1Jypi25-fill-4" offset="100%" stop-color="rgb(45,249,103)"/></linearGradient></defs><g id="euH2nF1Jypi2"><g id="euH2nF1Jypi3"><path id="euH2nF1Jypi4" d="M200.400000,388L200,387.800000L199.600000,388L199.600000,387.600000L159.400000,364.400000L159,364.600000L159,364.200000L118.700000,340.900000L118.500000,340.900000L118.500000,340.800000L78.300000,317.600000L77.900000,317.800000L77.900000,317.400000L37.700000,294.200000L37.300000,294.400000L37.300000,294L36.900000,293.800000L37.300000,293.600000L37.300000,247.200000L36.900000,247L37.300000,246.800000L37.300000,200.400000L37,200L37.400000,199.800000L37.400000,153.400000L37,153.200000L37.400000,153L37.400000,106.600000L37,106.400000L37.400000,106.200000L37.400000,105.800000L37.800000,106L78,82.800000L78,82.600000L78.300000,82.600000L78.800000,82.300000L78.800000,82.300000L98.600000,70.900000L98.800000,71.200000L98.600000,70.900000L118.700000,59.300000L118.700000,59.100000L119,59.100000L119.500000,58.800000L119.500000,58.800000L159.400000,35.800000L159.400000,35.400000L159.800000,35.600000L160.200000,35.400000L200,12.400000L200,12L200.400000,12.200000L200.800000,12L200.800000,12.400000L241,35.600000L241.400000,35.400000L241.400000,35.800000L281.300000,58.800000L281.300000,58.800000L281.800000,59.100000L282.100000,59.100000L282.100000,59.300000L322.400000,82.600000L322.700000,82.600000L322.700000,82.800000L323,83L323,83L362.900000,106L363.300000,105.800000L363.300000,106.200000L363.700000,106.400000L363.300000,106.600000L363.300000,153L363.700000,153.200000L363.300000,153.400000L363.300000,199.800000L363.700000,200L363.300000,200.200000L363.300000,246.600000L363.700000,246.800000L363.300000,247L363.300000,293.400000L363.700000,293.600000L363.300000,293.800000L363.300000,294.200000L362.900000,294L322.700000,317.200000L322.700000,317.600000L322.300000,317.400000L302.200000,329L282.100000,340.600000L282.100000,340.800000L281.800000,340.800000L281.300000,341.100000L281.300000,341.100000L241.400000,364.100000L241.400000,364.500000L241,364.300000L200.800000,387.500000L200.800000,388ZM200.400000,341.200000L200.400000,386.800000L239.900000,364L200.400000,341.200000ZM160.200000,364L199.700000,386.800000L199.700000,341.200000L160.200000,364ZM240.900000,317.700000L240.900000,363.300000L280.400000,340.500000L240.900000,317.700000ZM119.600000,340.600000L159.100000,363.400000L159.100000,317.800000L119.600000,340.600000ZM159.800000,317.700000L159.800000,363.300000L199.300000,340.500000L159.800000,317.700000ZM220.500000,352L240.200000,363.400000L240.200000,317.800000L200.700000,340.600000L220.500000,352ZM241.300000,317.100000L280.800000,339.900000L280.800000,294.300000L241.300000,317.100000ZM119.200000,294.300000L119.200000,340L158.700000,317.200000L119.200000,294.300000ZM281.500000,294.300000L281.500000,339.900000L321,317.100000L281.500000,294.300000ZM200.400000,339.900000L239.900000,317.100000L200.400000,294.300000L200.400000,339.900000ZM160.200000,317.100000L199.700000,339.900000L199.700000,294.300000L160.200000,317.100000ZM98.800000,328.500000L118.500000,339.900000L118.500000,294.300000L79,317.100000L83.200000,319.600000L98.800000,328.500000ZM322.100000,270.900000L322.100000,316.500000L361.600000,293.700000L322.100000,270.900000ZM240.900000,316.500000L240.900000,316.500000L280.400000,293.700000L240.900000,270.900000L240.900000,316.500000ZM119.600000,293.700000L159.100000,316.500000L159.100000,270.900000L119.600000,293.700000ZM159.800000,270.900000L159.800000,316.500000L199.300000,293.700000L159.800000,270.900000ZM78.600000,270.900000L78.600000,316.500000L118.100000,293.700000L78.600000,270.900000ZM58.100000,305L58.200000,305L77.900000,316.400000L77.900000,270.800000L38.400000,293.600000L58.100000,305ZM200.700000,293.700000L240.200000,316.500000L240.200000,270.900000L200.700000,293.700000ZM281.900000,293.700000L321.400000,316.500000L321.400000,270.900000L281.900000,293.700000ZM261,281.700000L280.800000,293.100000L280.800000,247.500000L241.300000,270.300000L261,281.700000ZM200.400000,247.500000L200.400000,293.100000L239.900000,270.300000L200.400000,247.500000ZM119.200000,293.100000L158.700000,270.300000L119.200000,247.500000L119.200000,293.100000ZM281.500000,293.100000L321,270.300000L281.500000,247.500000L281.500000,293.100000ZM38.100000,247.500000L38.100000,293.100000L77.600000,270.300000L38.100000,247.500000ZM160.200000,270.300000L199.700000,293.100000L199.700000,247.500000L160.200000,270.300000ZM79,270.300000L118.500000,293.100000L118.500000,247.500000L79,270.300000ZM322.400000,270.300000L361.900000,293.100000L361.900000,247.500000L322.400000,270.300000ZM322.100000,269.700000L361.600000,246.900000L322.100000,224L322.100000,269.700000ZM240.900000,224L240.900000,269.600000L280.400000,246.800000L240.900000,224ZM119.600000,246.900000L159.100000,269.700000L159.100000,224L119.600000,246.900000ZM159.800000,224L159.800000,269.600000L199.300000,246.800000L159.800000,224ZM78.600000,269.700000L118.100000,246.900000L78.600000,224L78.600000,269.700000ZM38.400000,246.900000L77.900000,269.700000L77.900000,224L38.400000,246.900000ZM200.700000,246.900000L240.200000,269.700000L240.200000,224L200.700000,246.900000ZM281.900000,246.900000L321.400000,269.700000L321.400000,224L281.900000,246.900000ZM38.100000,200.600000L38.100000,246.200000L77.600000,223.400000L38.100000,200.600000ZM200.400000,246.200000L200.400000,246.200000L220.200000,234.800000L220.200000,234.800000L239.900000,223.400000L200.400000,200.600000L200.400000,246.200000ZM119.200000,200.600000L119.200000,246.200000L158.700000,223.400000L119.200000,200.600000ZM241.300000,223.400000L280.800000,246.200000L280.800000,200.600000L241.300000,223.400000ZM281.500000,200.600000L281.500000,246.200000L321,223.400000L281.500000,200.600000ZM179.800000,234.800000L179.900000,234.800000L199.600000,246.200000L199.600000,200.600000L160.100000,223.400000L179.800000,234.800000ZM98.800000,234.800000L118.500000,246.200000L118.500000,200.600000L79,223.400000L98.800000,234.800000ZM342.200000,234.800000L361.900000,246.200000L361.900000,200.600000L322.400000,223.400000L342.200000,234.800000ZM322.100000,177.200000L322.100000,222.800000L361.600000,200L322.100000,177.200000ZM240.900000,177.200000L240.900000,222.800000L280.400000,200L240.900000,177.200000ZM119.600000,200L159.100000,222.800000L159.100000,177.200000L119.600000,200ZM159.800000,222.800000L159.800000,222.800000L199.300000,200L159.800000,177.200000L159.800000,222.800000ZM78.600000,177.200000L78.600000,222.800000L118.100000,200L78.600000,177.200000ZM38.400000,200L77.900000,222.800000L77.900000,177.200000L38.400000,200ZM200.700000,200L240.200000,222.800000L240.200000,177.200000L200.700000,200ZM301.600000,211.400000L321.300000,222.800000L321.300000,177.200000L281.900000,200L301.600000,211.400000ZM281.500000,199.400000L321,176.600000L281.500000,153.800000L281.500000,199.400000ZM38.100000,153.800000L38.100000,199.400000L77.600000,176.600000L38.100000,153.800000ZM241.300000,176.600000L280.800000,199.400000L280.800000,153.800000L241.300000,176.600000ZM200.400000,199.400000L239.900000,176.600000L200.400000,153.800000L200.400000,199.400000ZM119.200000,199.400000L158.700000,176.600000L119.200000,153.800000L119.200000,199.400000ZM179.900000,188L199.600000,199.400000L199.600000,153.800000L160.100000,176.600000L179.900000,188ZM98.800000,188L118.500000,199.400000L118.500000,153.800000L79,176.600000L98.800000,188ZM342.200000,188L361.900000,199.400000L361.900000,153.800000L322.400000,176.600000L342.200000,188ZM322.100000,130.300000L322.100000,176L361.600000,153.200000L322.100000,130.300000ZM240.900000,130.300000L240.900000,176L280.400000,153.200000L240.900000,130.300000ZM139.300000,164.600000L159.100000,176L159.100000,130.400000L119.600000,153.200000L139.300000,164.600000ZM159.800000,130.300000L159.800000,176L179.600000,164.600000L179.600000,164.600000L199.300000,153.200000L159.800000,130.300000ZM200.700000,153.100000L240.200000,175.900000L240.200000,130.300000L200.700000,153.100000ZM38.400000,153.100000L77.900000,176L77.900000,130.400000L38.400000,153.100000ZM301.600000,164.600000L321.300000,176L321.300000,130.400000L281.800000,153.200000L301.600000,164.600000ZM78.600000,130.300000L78.600000,176L118.100000,153.200000L78.600000,130.300000L78.600000,130.300000ZM241.300000,129.700000L280.800000,152.500000L280.800000,106.900000L241.300000,129.700000ZM200.400000,106.900000L200.400000,152.500000L239.900000,129.700000L200.400000,106.900000ZM119.200000,152.500000L119.200000,152.500000L158.700000,129.700000L119.200000,106.900000L119.200000,152.500000ZM281.500000,106.900000L281.500000,152.500000L321,129.700000L281.500000,106.900000ZM38.100000,106.900000L38.100000,152.500000L77.600000,129.700000L38.100000,106.900000ZM160.200000,129.700000L199.700000,152.500000L199.700000,106.900000L160.200000,129.700000ZM79,129.700000L118.500000,152.500000L118.500000,106.900000L79,129.700000ZM322.400000,129.700000L361.900000,152.500000L361.900000,106.900000L322.400000,129.700000ZM322.100000,129.100000L361.600000,106.300000L322.100000,83.500000L322.100000,129.100000ZM240.900000,83.500000L240.900000,129.100000L280.400000,106.300000L240.900000,83.500000ZM119.600000,106.300000L159.100000,129.100000L159.100000,83.500000L119.600000,106.300000ZM159.800000,129.100000L199.300000,106.300000L159.800000,83.500000L159.800000,129.100000ZM78.600000,83.500000L78.600000,129.100000L118.100000,106.300000L78.600000,83.500000ZM38.400000,106.300000L77.900000,129.100000L77.900000,83.500000L38.400000,106.300000ZM220.500000,117.700000L240.200000,129.100000L240.200000,83.500000L200.700000,106.300000L220.500000,117.700000ZM281.900000,106.300000L321.400000,129.100000L321.400000,83.500000L301.700000,94.900000L281.900000,106.300000ZM281.500000,60.100000L281.500000,105.700000L301.300000,94.300000L321,82.900000L281.500000,60.100000ZM261,94.300000L280.800000,105.700000L280.800000,60L241.300000,82.800000L261,94.300000ZM200.400000,105.700000L200.400000,105.700000L239.900000,82.900000L200.400000,60.100000L200.400000,105.700000ZM119.200000,60L119.200000,105.600000L158.700000,82.800000L119.200000,60ZM79,82.900000L118.500000,105.700000L118.500000,60.100000L79,82.900000ZM160.200000,82.900000L199.700000,105.700000L199.700000,60.100000L160.200000,82.900000ZM240.900000,82.200000L240.900000,82.200000L280.400000,59.400000L240.900000,36.600000L240.900000,82.200000ZM119.600000,59.400000L159.100000,82.200000L159.100000,36.600000L119.600000,59.400000ZM159.800000,36.600000L159.800000,82.200000L199.300000,59.400000L159.800000,36.600000ZM220.500000,70.800000L240.200000,82.200000L240.200000,36.600000L200.700000,59.400000L220.500000,70.800000ZM200.400000,13.200000L200.400000,58.800000L239.800000,36L200.400000,13.200000ZM179.900000,47.400000L199.600000,58.800000L199.600000,13.200000L160.200000,36L179.900000,47.400000Z" opacity="0" fill="url(#euH2nF1Jypi4-fill)" stroke="none" stroke-width="1"/><polygon id="euH2nF1Jypi5" points="99.300000,328.800000 99.300000,328.800000 83.800000,319.900000 79,317.100000 58.700000,305.400000 58.700000,305.400000 38.400000,293.700000 38.400000,106.300000 58.700000,94.600000 79,82.900000 79,82.900000 99.300000,71.200000 119.600000,59.500000 119.600000,59.400000 139.900000,47.700000 160.200000,36 180.400000,24.300000 200.700000,12.600000 221,24.300000 221,24.300000 241.300000,36 261.600000,47.700000 281.800000,59.400000 281.900000,59.500000 302.100000,71.200000 322.400000,82.900000 322.400000,82.900000 342.700000,94.600000 363,106.300000 363,293.700000 342.700000,305.400000 322.400000,317.100000 317.700000,319.900000 302.100000,328.800000 281.900000,340.600000 261.600000,352.300000 241.300000,364 221,375.700000 221,375.700000 200.700000,387.400000 180.400000,375.700000 160.200000,364 139.900000,352.300000" opacity="0" fill="none" stroke="rgb(198,198,197)" stroke-width="3" stroke-miterlimit="10"/><g id="euH2nF1Jypi6"><polygon id="euH2nF1Jypi7" points="79.700000,129.700000 200.700000,59.900000 240.500000,82.900000 119.600000,152.700000" transform="matrix(0.50000000000000 -0.86602540378444 0.86602540378444 0.50000000000000 -215.60437475688775 415.60437475688764)" fill="url(#euH2nF1Jypi7-fill)" stroke="none" stroke-width="1"/><path id="euH2nF1Jypi8" d="M200.700000,60.300000L239.800000,82.900000L119.600000,152.300000L80.500000,129.700000L200.700000,60.300000M200.700000,59.400000L79,129.700000L119.600000,153.100000L241.300000,82.800000L200.700000,59.400000L200.700000,59.400000Z" opacity="0" fill="rgb(255,255,255)" stroke="none" stroke-width="1"/></g><g id="euH2nF1Jypi9"><polygon id="euH2nF1Jypi10" points="79.400000,270.100000 79.400000,130.400000 119.200000,153.400000 119.200000,293" transform="matrix(0.50000000000000 -0.86602540378444 0.86602540378444 0.50000000000000 -215.60437475688775 415.60437475688764)" fill="url(#euH2nF1Jypi10-fill)" stroke="none" stroke-width="1"/><path id="euH2nF1Jypi11" d="M79.700000,131L118.800000,153.600000L118.800000,292.400000L79.700000,269.800000L79.700000,131M79,129.700000L79,270.300000L119.600000,293.700000L119.600000,153.100000L79,129.700000L79,129.700000Z" opacity="0" fill="rgb(255,255,255)" stroke="none" stroke-width="1"/></g><g id="euH2nF1Jypi12"><polygon id="euH2nF1Jypi13" points="160.900000,317.100000 281.900000,247.300000 321.700000,270.300000 200.700000,340.100000" transform="matrix(0.50000000000000 -0.86602540378444 0.86602540378444 0.50000000000000 66.99192824311211 133.00807175688769)" fill="url(#euH2nF1Jypi13-fill)" stroke="none" stroke-width="1"/><path id="euH2nF1Jypi14" d="M281.900000,247.700000L321,270.200000L200.800000,339.600000L161.700000,317L281.900000,247.700000M281.900000,246.900000L160.200000,317.200000L200.800000,340.600000L322.500000,270.300000L281.900000,246.900000L281.900000,246.900000Z" opacity="0" fill="rgb(255,255,255)" stroke="none" stroke-width="1"/></g><g id="euH2nF1Jypi15"><polygon id="euH2nF1Jypi16" points="282.200000,246.600000 282.200000,107 322.100000,129.900000 322.100000,269.600000" transform="matrix(0.50000000000000 -0.86602540378444 0.86602540378444 0.50000000000000 66.99192824311211 133.00807175688769)" fill="url(#euH2nF1Jypi16-fill)" stroke="none" stroke-width="1"/><path id="euH2nF1Jypi17" d="M282.600000,107.600000L321.700000,130.200000L321.700000,269L282.600000,246.500000L282.600000,107.600000M281.900000,106.300000L281.900000,246.900000L322.500000,270.300000L322.500000,129.700000L281.900000,106.300000L281.900000,106.300000Z" opacity="0" fill="rgb(255,255,255)" stroke="none" stroke-width="1"/></g><g id="euH2nF1Jypi18"><polygon id="euH2nF1Jypi19" points="160.900000,176.600000 200.700000,153.600000 240.500000,176.600000 200.700000,199.600000" transform="matrix(1 0 0 1 0 -199.60000000000002)" fill="url(#euH2nF1Jypi19-fill)" stroke="none" stroke-width="1"/><path id="euH2nF1Jypi20" d="M200.700000,154L239.800000,176.600000L200.700000,199.200000L161.600000,176.600000L200.700000,154M200.700000,153.100000L160.100000,176.500000L200.700000,199.900000L241.300000,176.500000L200.700000,153.100000L200.700000,153.100000Z" opacity="0" fill="rgb(255,255,255)" stroke="none" stroke-width="1"/></g><g id="euH2nF1Jypi21"><polygon id="euH2nF1Jypi22" points="160.500000,223.200000 160.500000,177.200000 200.300000,200.200000 200.300000,246.200000" transform="matrix(1 0 0 1 -199.61183150000002 199.61183150000011)" fill="url(#euH2nF1Jypi22-fill)" stroke="none" stroke-width="1"/><path id="euH2nF1Jypi23" d="M160.900000,177.900000L200,200.500000L200,245.600000L160.900000,223L160.900000,177.900000M160.100000,176.600000L160.100000,223.400000L200.700000,246.800000L200.700000,200L160.100000,176.600000L160.100000,176.600000Z" opacity="0" fill="rgb(255,255,255)" stroke="none" stroke-width="1"/></g><g id="euH2nF1Jypi24"><polygon id="euH2nF1Jypi25" points="201.100000,200.200000 240.900000,177.200000 240.900000,223.200000 201.100000,246.200000" transform="matrix(1 0 0 1 201.65913250000011 201.65913250000011)" fill="url(#euH2nF1Jypi25-fill)" stroke="none" stroke-width="1"/><path id="euH2nF1Jypi26" d="M240.500000,177.900000L240.500000,223L201.400000,245.600000L201.400000,200.500000L240.500000,177.900000M241.300000,176.600000L200.700000,200L200.700000,246.800000L241.300000,223.400000L241.300000,176.600000L241.300000,176.600000Z" opacity="0" fill="rgb(255,255,255)" stroke="none" stroke-width="1"/></g></g></g><script><![CDATA[!function(t,n){"object"==typeof exports&&"undefined"!=typeof module?module.exports=n():"function"==typeof define&&define.amd?define(n):(t="undefined"!=typeof globalThis?globalThis:t||self).__SVGATOR_PLAYER__=n()}(this,(function(){"use strict";function t(n){return(t="function"==typeof Symbol&&"symbol"==typeof Symbol.iterator?function(t){return typeof t}:function(t){return t&&"function"==typeof Symbol&&t.constructor===Symbol&&t!==Symbol.prototype?"symbol":typeof t})(n)}function n(t,n){if(!(t instanceof n))throw new TypeError("Cannot call a class as a function")}function r(t,n){for(var r=0;r<n.length;r++){var e=n[r];e.enumerable=e.enumerable||!1,e.configurable=!0,"value"in e&&(e.writable=!0),Object.defineProperty(t,e.key,e)}}function e(t,n,e){return n&&r(t.prototype,n),e&&r(t,e),t}function i(t){return(i=Object.setPrototypeOf?Object.getPrototypeOf:function(t){return t.__proto__||Object.getPrototypeOf(t)})(t)}function o(t,n){return(o=Object.setPrototypeOf||function(t,n){return t.__proto__=n,t})(t,n)}function u(t,n){return!n||"object"!=typeof n&&"function"!=typeof n?function(t){if(void 0===t)throw new ReferenceError("this hasn't been initialised - super() hasn't been called");return t}(t):n}function a(t){var n=function(){if("undefined"==typeof Reflect||!Reflect.construct)return!1;if(Reflect.construct.sham)return!1;if("function"==typeof Proxy)return!0;try{return Boolean.prototype.valueOf.call(Reflect.construct(Boolean,[],(function(){}))),!0}catch(t){return!1}}();return function(){var r,e=i(t);if(n){var o=i(this).constructor;r=Reflect.construct(e,arguments,o)}else r=e.apply(this,arguments);return u(this,r)}}function l(t,n,r){return(l="undefined"!=typeof Reflect&&Reflect.get?Reflect.get:function(t,n,r){var e=function(t,n){for(;!Object.prototype.hasOwnProperty.call(t,n)&&null!==(t=i(t)););return t}(t,n);if(e){var o=Object.getOwnPropertyDescriptor(e,n);return o.get?o.get.call(r):o.value}})(t,n,r||t)}var f=Math.abs;function s(t){return t}function c(t,n,r){var e=1-r;return 3*r*e*(t*e+n*r)+r*r*r}function h(){var t=arguments.length>0&&void 0!==arguments[0]?arguments[0]:0,n=arguments.length>1&&void 0!==arguments[1]?arguments[1]:0,r=arguments.length>2&&void 0!==arguments[2]?arguments[2]:1,e=arguments.length>3&&void 0!==arguments[3]?arguments[3]:1;return t<0||t>1||r<0||r>1?null:f(t-n)<=1e-5&&f(r-e)<=1e-5?s:function(i){if(i<=0)return t>0?i*n/t:0===n&&r>0?i*e/r:0;if(i>=1)return r<1?1+(i-1)*(e-1)/(r-1):1===r&&t<1?1+(i-1)*(n-1)/(t-1):1;for(var o,u=0,a=1;u<a;){var l=c(t,r,o=(u+a)/2);if(f(i-l)<1e-5)break;l<i?u=o:a=o}return c(n,e,o)}}function v(){return 1}function y(t){return 1===t?1:0}function d(){var t=arguments.length>0&&void 0!==arguments[0]?arguments[0]:1,n=arguments.length>1&&void 0!==arguments[1]?arguments[1]:0;if(1===t){if(0===n)return y;if(1===n)return v}var r=1/t;return function(t){return t>=1?1:(t+=n*r)-t%r}}function g(t){var n=arguments.length>1&&void 0!==arguments[1]?arguments[1]:2;if(Number.isInteger(t))return t;var r=Math.pow(10,n);return Math.round(t*r)/r}var p=Math.PI/180;function m(t,n,r){return t>=.5?r:n}function b(t,n,r){return 0===t||n===r?n:t*(r-n)+n}function w(t,n,r){var e=b(t,n,r);return e<=0?0:e}function x(t,n,r){return 0===t?n:1===t?r:{x:b(t,n.x,r.x),y:b(t,n.y,r.y)}}function k(t,n,r){var e=function(t,n,r){return Math.round(b(t,n,r))}(t,n,r);return e<=0?0:e>=255?255:e}function A(t,n,r){return 0===t?n:1===t?r:{r:k(t,n.r,r.r),g:k(t,n.g,r.g),b:k(t,n.b,r.b),a:b(t,null==n.a?1:n.a,null==r.a?1:r.a)}}function _(t,n,r){if(0===t)return n;if(1===t)return r;var e=n.length;if(e!==r.length)return m(t,n,r);for(var i=[],o=0;o<e;o++)i.push(A(t,n[o],r[o]));return i}function S(t,n){for(var r=[],e=0;e<t;e++)r.push(n);return r}function O(t,n){if(--n<=0)return t;var r=(t=Object.assign([],t)).length;do{for(var e=0;e<r;e++)t.push(t[e])}while(--n>0);return t}var M,j=function(){function t(r){n(this,t),this.list=r,this.length=r.length}return e(t,[{key:"setAttribute",value:function(t,n){for(var r=this.list,e=0;e<this.length;e++)r[e].setAttribute(t,n)}},{key:"removeAttribute",value:function(t){for(var n=this.list,r=0;r<this.length;r++)n[r].removeAttribute(t)}},{key:"style",value:function(t,n){for(var r=this.list,e=0;e<this.length;e++)r[e].style[t]=n}}]),t}(),F=/-./g,P=function(t,n){return n.toUpperCase()};function B(t){return"function"==typeof t?t:m}function I(t){return t?"function"==typeof t?t:Array.isArray(t)?function(t){var n=arguments.length>1&&void 0!==arguments[1]?arguments[1]:s;if(!Array.isArray(t))return n;switch(t.length){case 1:return d(t[0])||n;case 2:return d(t[0],t[1])||n;case 4:return h(t[0],t[1],t[2],t[3])||n}return n}(t,null):function(t,n){var r=arguments.length>2&&void 0!==arguments[2]?arguments[2]:s;switch(t){case"linear":return s;case"steps":return d(n.steps||1,n.jump||0)||r;case"bezier":case"cubic-bezier":return h(n.x1||0,n.y1||0,n.x2||0,n.y2||0)||r}return r}(t.type,t.value,null):null}function R(t,n,r){var e=arguments.length>3&&void 0!==arguments[3]&&arguments[3],i=n.length-1;if(t<=n[0].t)return e?[0,0,n[0].v]:n[0].v;if(t>=n[i].t)return e?[i,1,n[i].v]:n[i].v;var o,u=n[0],a=null;for(o=1;o<=i;o++){if(!(t>n[o].t)){a=n[o];break}u=n[o]}return null==a?e?[i,1,n[i].v]:n[i].v:u.t===a.t?e?[o,1,a.v]:a.v:(t=(t-u.t)/(a.t-u.t),u.e&&(t=u.e(t)),e?[o,t,r(t,u.v,a.v)]:r(t,u.v,a.v))}function q(t,n){var r=arguments.length>2&&void 0!==arguments[2]?arguments[2]:null;return t&&t.length?"function"!=typeof n?null:("function"!=typeof r&&(r=null),function(e){var i=R(e,t,n);return null!=i&&r&&(i=r(i)),i}):null}function E(t,n){return t.t-n.t}function T(n,r,e,i,o){var u,a="@"===e[0],l="#"===e[0],f=M[e],s=m;switch(a?(u=e.substr(1),e=u.replace(F,P)):l&&(e=e.substr(1)),t(f)){case"function":if(s=f(i,o,R,I,e,a,r,n),l)return s;break;case"string":s=q(i,B(f));break;case"object":if((s=q(i,B(f.i),f.f))&&"function"==typeof f.u)return f.u(r,s,e,a,n)}return s?function(t,n,r){var e=arguments.length>3&&void 0!==arguments[3]&&arguments[3];if(e)return t instanceof j?function(e){return t.style(n,r(e))}:function(e){return t.style[n]=r(e)};if(Array.isArray(n)){var i=n.length;return function(e){var o=r(e);if(null==o)for(var u=0;u<i;u++)t[u].removeAttribute(n);else for(var a=0;a<i;a++)t[a].setAttribute(n,o)}}return function(e){var i=r(e);null==i?t.removeAttribute(n):t.setAttribute(n,i)}}(r,e,s,a):null}function N(n,r,e,i){if(!i||"object"!==t(i))return null;var o=null,u=null;return Array.isArray(i)?u=function(t){if(!t||!t.length)return null;for(var n=0;n<t.length;n++)t[n].e&&(t[n].e=I(t[n].e));return t.sort(E)}(i):(u=i.keys,o=i.data||null),u?T(n,r,e,u,o):null}function C(t,n,r){if(!r)return null;var e=[];for(var i in r)if(r.hasOwnProperty(i)){var o=N(t,n,i,r[i]);o&&e.push(o)}return e.length?e:null}function z(t,n){if(!n.duration||n.duration<0)return null;var r=function(t,n){if(!n)return null;var r=[];if(Array.isArray(n))for(var e=n.length,i=0;i<e;i++){var o=n[i];if(2===o.length){var u=null;if("string"==typeof o[0])u=t.getElementById(o[0]);else if(Array.isArray(o[0])){u=[];for(var a=0;a<o[0].length;a++)if("string"==typeof o[0][a]){var l=t.getElementById(o[0][a]);l&&u.push(l)}u=u.length?1===u.length?u[0]:new j(u):null}if(u){var f=C(t,u,o[1]);f&&(r=r.concat(f))}}}else for(var s in n)if(n.hasOwnProperty(s)){var c=t.getElementById(s);if(c){var h=C(t,c,n[s]);h&&(r=r.concat(h))}}return r.length?r:null}(t,n.elements);return r?function(t,n){var r=arguments.length>2&&void 0!==arguments[2]?arguments[2]:1/0,e=arguments.length>3&&void 0!==arguments[3]?arguments[3]:1,i=arguments.length>4&&void 0!==arguments[4]&&arguments[4],o=arguments.length>5&&void 0!==arguments[5]?arguments[5]:1,u=t.length,a=e>0?n:0;i&&r%2==0&&(a=n-a);var l=null;return function(f,s){var c=f%n,h=1+(f-c)/n;s*=e,i&&h%2==0&&(s=-s);var v=!1;if(h>r)c=a,v=!0,-1===o&&(c=e>0?0:n);else if(s<0&&(c=n-c),c===l)return!1;l=c;for(var y=0;y<u;y++)t[y](c);return v}}(r,n.duration,n.iterations||1/0,n.direction||1,!!n.alternate,n.fill||1):null}var L=function(){function t(r,e){var i=arguments.length>2&&void 0!==arguments[2]?arguments[2]:{};n(this,t),this._id=0,this._running=!1,this._rollingBack=!1,this._animations=r,this.duration=e.duration,this.alternate=e.alternate,this.fill=e.fill,this.iterations=e.iterations,this.direction=i.direction||1,this.speed=i.speed||1,this.fps=i.fps||100,this.offset=i.offset||0,this.rollbackStartOffset=0}return e(t,[{key:"_rollback",value:function(){var t=this,n=1/0,r=null;this.rollbackStartOffset=this.offset,this._rollingBack||(this._rollingBack=!0,this._running=!0);this._id=window.requestAnimationFrame((function e(i){if(t._rollingBack){null==r&&(r=i);var o=i-r,u=t.rollbackStartOffset-o,a=Math.round(u*t.speed);if(a>t.duration&&n!=1/0){var l=!!t.alternate&&a/t.duration%2>1,f=a%t.duration;a=(f+=l?t.duration:0)||t.duration}var s=t.fps?1e3/t.fps:0,c=Math.max(0,a);if(c<n-s){t.offset=c,n=c;for(var h=t._animations,v=h.length,y=0;y<v;y++)h[y](c,t.direction)}var d=!1;if(t.iterations>0&&-1===t.fill){var g=t.iterations*t.duration,p=g==a;a=p?0:a,t.offset=p?0:t.offset,d=a>g}a>0&&t.offset>=a&&!d?t._id=window.requestAnimationFrame(e):t.stop()}}))}},{key:"_start",value:function(){var t=this,n=arguments.length>0&&void 0!==arguments[0]?arguments[0]:0,r=-1/0,e=null,i={},o=function o(u){t._running=!0,null==e&&(e=u);var a=Math.round((u-e+n)*t.speed),l=t.fps?1e3/t.fps:0;if(a>r+l&&!t._rollingBack){t.offset=a,r=a;for(var f=t._animations,s=f.length,c=0,h=0;h<s;h++)i[h]?c++:(i[h]=f[h](a,t.direction),i[h]&&c++);if(c===s)return void t._stop()}t._id=window.requestAnimationFrame(o)};this._id=window.requestAnimationFrame(o)}},{key:"_stop",value:function(){this._id&&window.cancelAnimationFrame(this._id),this._running=!1,this._rollingBack=!1}},{key:"play",value:function(){!this._rollingBack&&this._running||(this._rollingBack=!1,this.rollbackStartOffset>this.duration&&(this.offset=this.rollbackStartOffset-(this.rollbackStartOffset-this.offset)%this.duration,this.rollbackStartOffset=0),this._start(this.offset))}},{key:"stop",value:function(){this._stop(),this.offset=0,this.rollbackStartOffset=0;var t=this.direction,n=this._animations;window.requestAnimationFrame((function(){for(var r=0;r<n.length;r++)n[r](0,t)}))}},{key:"reachedToEnd",value:function(){return this.iterations>0&&this.offset>=this.iterations*this.duration}},{key:"restart",value:function(){this._stop(),this.offset=0,this._start()}},{key:"pause",value:function(){this._stop()}},{key:"reverse",value:function(){this.direction=-this.direction}}],[{key:"build",value:function(n,r){return(n=function(t,n){if(M=n,!t||!t.root||!Array.isArray(t.animations))return null;for(var r=document.getElementsByTagName("svg"),e=!1,i=0;i<r.length;i++)if(r[i].id===t.root&&!r[i].svgatorAnimation){(e=r[i]).svgatorAnimation=!0;break}if(!e)return null;var o=t.animations.map((function(t){return z(e,t)})).filter((function(t){return!!t}));return o.length?{element:e,animations:o,animationSettings:t.animationSettings,options:t.options||void 0}:null}(n,r))?{el:n.element,options:n.options||{},player:new t(n.animations,n.animationSettings,n.options)}:null}}]),t}();!function(){for(var t=0,n=["ms","moz","webkit","o"],r=0;r<n.length&&!window.requestAnimationFrame;++r)window.requestAnimationFrame=window[n[r]+"RequestAnimationFrame"],window.cancelAnimationFrame=window[n[r]+"CancelAnimationFrame"]||window[n[r]+"CancelRequestAnimationFrame"];window.requestAnimationFrame||(window.requestAnimationFrame=function(n){var r=Date.now(),e=Math.max(0,16-(r-t)),i=window.setTimeout((function(){n(r+e)}),e);return t=r+e,i},window.cancelAnimationFrame=window.clearTimeout)}();var D=/\.0+$/g;function Q(t){return Number.isInteger(t)?t+"":t.toFixed(6).replace(D,"")}function U(t){var n=arguments.length>1&&void 0!==arguments[1]?arguments[1]:" ";return t&&t.length?t.map(Q).join(n):""}function V(t){return t?null==t.a||t.a>=1?"rgb("+t.r+","+t.g+","+t.b+")":"rgba("+t.r+","+t.g+","+t.b+","+t.a+")":"transparent"}var $={f:null,i:function(t,n,r){return 0===t?n:1===t?r:{x:w(t,n.x,r.x),y:w(t,n.y,r.y)}},u:function(t,n){return function(r){var e=n(r);t.setAttribute("rx",Q(e.x)),t.setAttribute("ry",Q(e.y))}}},G={f:null,i:function(t,n,r){return 0===t?n:1===t?r:{width:w(t,n.width,r.width),height:w(t,n.height,r.height)}},u:function(t,n){return function(r){var e=n(r);t.setAttribute("width",Q(e.width)),t.setAttribute("height",Q(e.height))}}},H=Math.sin,Y=Math.cos,Z=Math.acos,J=Math.asin,K=Math.tan,W=Math.atan2,X=Math.PI/180,tt=180/Math.PI,nt=Math.sqrt,rt=function(){function t(){var r=arguments.length>0&&void 0!==arguments[0]?arguments[0]:1,e=arguments.length>1&&void 0!==arguments[1]?arguments[1]:0,i=arguments.length>2&&void 0!==arguments[2]?arguments[2]:0,o=arguments.length>3&&void 0!==arguments[3]?arguments[3]:1,u=arguments.length>4&&void 0!==arguments[4]?arguments[4]:0,a=arguments.length>5&&void 0!==arguments[5]?arguments[5]:0;n(this,t),this.m=[r,e,i,o,u,a],this.i=null,this.w=null,this.s=null}return e(t,[{key:"determinant",get:function(){var t=this.m;return t[0]*t[3]-t[1]*t[2]}},{key:"isIdentity",get:function(){if(null===this.i){var t=this.m;this.i=1===t[0]&&0===t[1]&&0===t[2]&&1===t[3]&&0===t[4]&&0===t[5]}return this.i}},{key:"point",value:function(t,n){var r=this.m;return{x:r[0]*t+r[2]*n+r[4],y:r[1]*t+r[3]*n+r[5]}}},{key:"translateSelf",value:function(){var t=arguments.length>0&&void 0!==arguments[0]?arguments[0]:0,n=arguments.length>1&&void 0!==arguments[1]?arguments[1]:0;if(!t&&!n)return this;var r=this.m;return r[4]+=r[0]*t+r[2]*n,r[5]+=r[1]*t+r[3]*n,this.w=this.s=this.i=null,this}},{key:"rotateSelf",value:function(){var t=arguments.length>0&&void 0!==arguments[0]?arguments[0]:0;if(t%=360){var n=H(t*=X),r=Y(t),e=this.m,i=e[0],o=e[1];e[0]=i*r+e[2]*n,e[1]=o*r+e[3]*n,e[2]=e[2]*r-i*n,e[3]=e[3]*r-o*n,this.w=this.s=this.i=null}return this}},{key:"scaleSelf",value:function(){var t=arguments.length>0&&void 0!==arguments[0]?arguments[0]:1,n=arguments.length>1&&void 0!==arguments[1]?arguments[1]:1;if(1!==t||1!==n){var r=this.m;r[0]*=t,r[1]*=t,r[2]*=n,r[3]*=n,this.w=this.s=this.i=null}return this}},{key:"skewSelf",value:function(t,n){if(n%=360,(t%=360)||n){var r=this.m,e=r[0],i=r[1],o=r[2],u=r[3];t&&(t=K(t*X),r[2]+=e*t,r[3]+=i*t),n&&(n=K(n*X),r[0]+=o*n,r[1]+=u*n),this.w=this.s=this.i=null}return this}},{key:"resetSelf",value:function(){var t=arguments.length>0&&void 0!==arguments[0]?arguments[0]:1,n=arguments.length>1&&void 0!==arguments[1]?arguments[1]:0,r=arguments.length>2&&void 0!==arguments[2]?arguments[2]:0,e=arguments.length>3&&void 0!==arguments[3]?arguments[3]:1,i=arguments.length>4&&void 0!==arguments[4]?arguments[4]:0,o=arguments.length>5&&void 0!==arguments[5]?arguments[5]:0,u=this.m;return u[0]=t,u[1]=n,u[2]=r,u[3]=e,u[4]=i,u[5]=o,this.w=this.s=this.i=null,this}},{key:"recomposeSelf",value:function(){var t=arguments.length>0&&void 0!==arguments[0]?arguments[0]:null,n=arguments.length>1&&void 0!==arguments[1]?arguments[1]:null,r=arguments.length>2&&void 0!==arguments[2]?arguments[2]:null,e=arguments.length>3&&void 0!==arguments[3]?arguments[3]:null,i=arguments.length>4&&void 0!==arguments[4]?arguments[4]:null;return this.isIdentity||this.resetSelf(),t&&(t.x||t.y)&&this.translateSelf(t.x,t.y),n&&this.rotateSelf(n),r&&(r.x&&this.skewSelf(r.x,0),r.y&&this.skewSelf(0,r.y)),!e||1===e.x&&1===e.y||this.scaleSelf(e.x,e.y),i&&(i.x||i.y)&&this.translateSelf(i.x,i.y),this}},{key:"decompose",value:function(){var t=arguments.length>0&&void 0!==arguments[0]?arguments[0]:0,n=arguments.length>1&&void 0!==arguments[1]?arguments[1]:0,r=this.m,e=r[0]*r[0]+r[1]*r[1],i=[[r[0],r[1]],[r[2],r[3]]],o=nt(e);if(0===o)return{origin:{x:r[4],y:r[5]},translate:{x:t,y:n},scale:{x:0,y:0},skew:{x:0,y:0},rotate:0};i[0][0]/=o,i[0][1]/=o;var u=r[0]*r[3]-r[1]*r[2]<0;u&&(o=-o);var a=i[0][0]*i[1][0]+i[0][1]*i[1][1];i[1][0]-=i[0][0]*a,i[1][1]-=i[0][1]*a;var l=nt(i[1][0]*i[1][0]+i[1][1]*i[1][1]);if(0===l)return{origin:{x:r[4],y:r[5]},translate:{x:t,y:n},scale:{x:o,y:0},skew:{x:0,y:0},rotate:0};i[1][0]/=l,i[1][1]/=l,a/=l;var f=0;return i[1][1]<0?(f=Z(i[1][1])*tt,i[0][1]<0&&(f=360-f)):f=J(i[0][1])*tt,u&&(f=-f),a=W(a,nt(i[0][0]*i[0][0]+i[0][1]*i[0][1]))*tt,u&&(a=-a),{origin:{x:r[4],y:r[5]},translate:{x:t,y:n},scale:{x:o,y:l},skew:{x:a,y:0},rotate:f}}},{key:"toString",value:function(){return null===this.s&&(this.s="matrix("+this.m.map(it).join(" ")+")"),this.s}}]),t}(),et=/\.0+$/;function it(t){return Number.isInteger(t)?t:t.toFixed(14).replace(et,"")}function ot(t,n,r){return t+(n-t)*r}function ut(t,n,r){var e=arguments.length>3&&void 0!==arguments[3]&&arguments[3],i={x:ot(t.x,n.x,r),y:ot(t.y,n.y,r)};return e&&(i.a=at(t,n)),i}function at(t,n){return Math.atan2(n.y-t.y,n.x-t.x)}Object.freeze({M:2,L:2,Z:0,H:1,V:1,C:6,Q:4,T:2,S:4,A:7});var lt={},ft=null;function st(n){var r=function(){if(ft)return ft;if("object"!==("undefined"==typeof document?"undefined":t(document)))return{};var n=document.createElementNS("http://www.w3.org/2000/svg","svg");return n.style.position="absolute",n.style.opacity="0.01",n.style.zIndex="-9999",n.style.left="-9999px",n.style.width="1px",n.style.height="1px",ft={svg:n}}().svg;if(!r)return function(t){return null};var e=document.createElementNS(r.namespaceURI,"path");e.setAttributeNS(null,"d",n),e.setAttributeNS(null,"fill","none"),e.setAttributeNS(null,"stroke","none"),r.appendChild(e);var i=e.getTotalLength();return function(t){var n=e.getPointAtLength(i*t);return{x:n.x,y:n.y}}}function ct(t){return lt[t]?lt[t]:lt[t]=st(t)}function ht(t,n,r,e){if(!t||!e)return!1;var i=["M",t.x,t.y];if(n&&r&&(i.push("C"),i.push(n.x),i.push(n.y),i.push(r.x),i.push(r.y)),n?!r:r){var o=n||r;i.push("Q"),i.push(o.x),i.push(o.y)}return n||r||i.push("L"),i.push(e.x),i.push(e.y),i.join(" ")}function vt(t,n,r,e){var i=arguments.length>4&&void 0!==arguments[4]?arguments[4]:1,o=ht(t,n,r,e),u=ct(o);try{return u(i)}catch(t){return null}}function yt(t,n,r,e){var i=1-e;return i*i*t+2*i*e*n+e*e*r}function dt(t,n,r,e){return 2*(1-e)*(n-t)+2*e*(r-n)}function gt(t,n,r,e){var i=arguments.length>4&&void 0!==arguments[4]&&arguments[4],o=vt(t,n,null,r,e);return o||(o={x:yt(t.x,n.x,r.x,e),y:yt(t.y,n.y,r.y,e)}),i&&(o.a=pt(t,n,r,e)),o}function pt(t,n,r,e){return Math.atan2(dt(t.y,n.y,r.y,e),dt(t.x,n.x,r.x,e))}function mt(t,n,r,e,i){var o=i*i;return i*o*(e-t+3*(n-r))+3*o*(t+r-2*n)+3*i*(n-t)+t}function bt(t,n,r,e,i){var o=1-i;return 3*(o*o*(n-t)+2*o*i*(r-n)+i*i*(e-r))}function wt(t,n,r,e,i){var o=arguments.length>5&&void 0!==arguments[5]&&arguments[5],u=vt(t,n,r,e,i);return u||(u={x:mt(t.x,n.x,r.x,e.x,i),y:mt(t.y,n.y,r.y,e.y,i)}),o&&(u.a=xt(t,n,r,e,i)),u}function xt(t,n,r,e,i){return Math.atan2(bt(t.y,n.y,r.y,e.y,i),bt(t.x,n.x,r.x,e.x,i))}function kt(t,n,r){var e=arguments.length>3&&void 0!==arguments[3]&&arguments[3];if(_t(n)){if(St(r))return gt(n,r.start,r,t,e)}else if(_t(r)){if(n.end)return gt(n,n.end,r,t,e)}else{if(n.end)return r.start?wt(n,n.end,r.start,r,t,e):gt(n,n.end,r,t,e);if(r.start)return gt(n,r.start,r,t,e)}return ut(n,r,t,e)}function At(t,n,r){var e=kt(t,n,r,!0);return e.a=function(t){var n=arguments.length>1&&void 0!==arguments[1]&&arguments[1];return n?t+Math.PI:t}(e.a)/p,e}function _t(t){return!t.type||"corner"===t.type}function St(t){return null!=t.start&&!_t(t)}var Ot=new rt;var Mt={f:Q,i:b},jt={f:Q,i:function(t,n,r){var e=b(t,n,r);return e<=0?0:e>=1?1:e}};function Ft(t,n,r,e,i,o,u,a){return n=function(t,n,r){for(var e,i,o,u=t.length-1,a={},l=0;l<=u;l++)(e=t[l]).e&&(e.e=n(e.e)),e.v&&"g"===(i=e.v).t&&i.r&&(o=r.getElementById(i.r))&&(a[i.r]=o.querySelectorAll("stop"));return a}(t,e,a),function(e){var i,o=r(e,t,Pt);return o?"c"===o.t?V(o.v):"g"===o.t?(n[o.r]&&function(t,n){for(var r=0,e=t.length;r<e;r++)t[r].setAttribute("stop-color",V(n[r]))}(n[o.r],o.v),(i=o.r)?"url(#"+i+")":"none"):"none":"none"}}function Pt(t,n,r){if(0===t)return n;if(1===t)return r;if(n&&r){var e=n.t;if(e===r.t)switch(n.t){case"c":return{t:e,v:A(t,n.v,r.v)};case"g":if(n.r===r.r)return{t:e,v:_(t,n.v,r.v),r:n.r}}}return m(t,n,r)}var Bt={fill:Ft,"fill-opacity":jt,stroke:Ft,"stroke-opacity":jt,"stroke-width":Mt,"stroke-dashoffset":{f:Q,i:b},"stroke-dasharray":{f:function(t){var n=arguments.length>1&&void 0!==arguments[1]?arguments[1]:" ";return t&&t.length>0&&(t=t.map((function(t){return Math.floor(1e4*t)/1e4}))),U(t,n)},i:function(t,n,r){var e,i,o,u=n.length,a=r.length;if(u!==a)if(0===u)n=S(u=a,0);else if(0===a)a=u,r=S(u,0);else{var l=(o=(e=u)*(i=a)/function(t,n){for(var r;n;)r=n,n=t%n,t=r;return t||1}(e,i))<0?-o:o;n=O(n,Math.floor(l/u)),r=O(r,Math.floor(l/a)),u=a=l}for(var f=[],s=0;s<u;s++)f.push(g(w(t,n[s],r[s]),6));return f}},opacity:jt,transform:function(n,r,e,i){if(!(n=function(n,r){if(!n||"object"!==t(n))return null;var e=!1;for(var i in n)n.hasOwnProperty(i)&&(n[i]&&n[i].length?(n[i].forEach((function(t){t.e&&(t.e=r(t.e))})),e=!0):delete n[i]);return e?n:null}(n,i)))return null;var o=function(t,i,o){var u=arguments.length>3&&void 0!==arguments[3]?arguments[3]:null;return n[t]?e(i,n[t],o):r&&r[t]?r[t]:u};return r&&r.a&&n.o?function(t){var r=e(t,n.o,At);return Ot.recomposeSelf(r,o("r",t,b,0)+r.a,o("k",t,x),o("s",t,x),o("t",t,x)).toString()}:function(t){return Ot.recomposeSelf(o("o",t,kt,null),o("r",t,b,0),o("k",t,x),o("s",t,x),o("t",t,x)).toString()}},r:Mt,"#size":G,"#radius":$,_:function(t,n){if(Array.isArray(t))for(var r=0;r<t.length;r++)this[t[r]]=n;else this[t]=n}};return function(t){!function(t,n){if("function"!=typeof n&&null!==n)throw new TypeError("Super expression must either be null or a function");t.prototype=Object.create(n&&n.prototype,{constructor:{value:t,writable:!0,configurable:!0}}),n&&o(t,n)}(u,t);var r=a(u);function u(){return n(this,u),r.apply(this,arguments)}return e(u,null,[{key:"build",value:function(t){var n=l(i(u),"build",this).call(this,t,Bt);n.el,n.options;var r=n.player;return function(t,n,r){t.play()}(r),r}}]),u}(L)}));
__SVGATOR_PLAYER__.build({"root":"euH2nF1Jypi1","animations":[{"duration":3000,"direction":1,"iterations":1,"fill":1,"alternate":false,"speed":1,"elements":{"euH2nF1Jypi4":{"opacity":[{"t":2700,"v":0,"e":[0.25,1,0.25,1]},{"t":3000,"v":1}]},"euH2nF1Jypi5":{"opacity":[{"t":2400,"v":0},{"t":3000,"v":1}]},"euH2nF1Jypi7":{"transform":{"data":{"t":{"x":-200,"y":-200}},"keys":{"o":[{"t":1200,"v":{"x":57.600706,"y":342.39929399999994,"type":"corner"},"e":[0.39,0.575,0.565,1]},{"t":1800,"v":{"x":200,"y":200,"type":"corner"}}],"r":[{"t":1800,"v":-60,"e":[0.25,1,0.25,1]},{"t":2800,"v":0}]}}},"euH2nF1Jypi8":{"opacity":[{"t":2400,"v":0},{"t":2600,"v":1}]},"euH2nF1Jypi10":{"transform":{"data":{"t":{"x":-200,"y":-200}},"keys":{"o":[{"t":1200,"v":{"x":57.600706,"y":342.39929399999994,"type":"corner"},"e":[0.39,0.575,0.565,1]},{"t":1800,"v":{"x":200,"y":200,"type":"corner"}}],"r":[{"t":1800,"v":-60,"e":[0.25,1,0.25,1]},{"t":2800,"v":0}]}}},"euH2nF1Jypi11":{"opacity":[{"t":2400,"v":0},{"t":2600,"v":1}]},"euH2nF1Jypi13":{"transform":{"data":{"t":{"x":-200,"y":-200}},"keys":{"o":[{"t":1200,"v":{"x":340.19700899999987,"y":59.80299099999999,"type":"corner"},"e":[0.39,0.575,0.565,1]},{"t":1800,"v":{"x":200,"y":200,"type":"corner"}}],"r":[{"t":1800,"v":-60,"e":[0.25,1,0.25,1]},{"t":2800,"v":0}]}}},"euH2nF1Jypi14":{"opacity":[{"t":2400,"v":0},{"t":2600,"v":1}]},"euH2nF1Jypi16":{"transform":{"data":{"t":{"x":-200,"y":-200}},"keys":{"o":[{"t":1200,"v":{"x":340.19700899999987,"y":59.80299099999999,"type":"corner"},"e":[0.39,0.575,0.565,1]},{"t":1800,"v":{"x":200,"y":200,"type":"corner"}}],"r":[{"t":1800,"v":-60,"e":[0.25,1,0.25,1]},{"t":2800,"v":0}]}}},"euH2nF1Jypi17":{"opacity":[{"t":2400,"v":0},{"t":2600,"v":1}]},"euH2nF1Jypi19":{"transform":{"data":{"t":{"x":-200.6999969482422,"y":-176.60000610351562}},"keys":{"o":[{"t":0,"v":{"x":200.6999969482422,"y":-22.999993896484398,"type":"corner"},"e":[0.39,0.575,0.565,1]},{"t":1000,"v":{"x":200.6999969482422,"y":176.60000610351562,"type":"corner"}}]}}},"euH2nF1Jypi20":{"opacity":[{"t":1000,"v":0},{"t":1400,"v":1}]},"euH2nF1Jypi22":{"transform":{"data":{"t":{"x":-180.4000015258789,"y":-211.6999969482422}},"keys":{"o":[{"t":0,"v":{"x":-19.211829974121116,"y":411.3118284482423,"type":"corner"},"e":[0.42,0,0.58,1]},{"t":600,"v":{"x":180.4000015258789,"y":211.6999969482422,"type":"corner"}}]}}},"euH2nF1Jypi23":{"opacity":[{"t":600,"v":0},{"t":1000,"v":1}]},"euH2nF1Jypi25":{"transform":{"data":{"t":{"x":-221,"y":-211.6999969482422}},"keys":{"o":[{"t":0,"v":{"x":422.6591325000001,"y":413.3591294482423,"type":"corner"},"e":[0.42,0,0.58,1]},{"t":600,"v":{"x":221,"y":211.6999969482422,"type":"corner"}}]}}},"euH2nF1Jypi26":{"opacity":[{"t":600,"v":0},{"t":1000,"v":1}]}}}],"options":{"start":"load","hover":"freeze","click":"freeze","scroll":25,"font":"embed","exportedIds":"unique","svgFormat":"animated","title":"Logo Nabow_Plan de travail 1 copie 2"},"animationSettings":{"duration":3000,"direction":1,"iterations":1,"fill":1,"alternate":false,"speed":1}})]]></script></svg>