<?xml version="1.0" encoding="utf-8"?>
<!-- Generator: Adobe Illustrator 22.0.0, SVG Export Plug-In . SVG Version: 6.00 Build 0)  -->
<svg version="1.1" id="HTML5" xmlns="http://www.w3.org/2000/svg" xmlns:xlink="http://www.w3.org/1999/xlink" x="0px" y="0px"
	 viewBox="0 0 4000 4000" style="enable-background:new 0 0 4000 4000;" xml:space="preserve">
<style type="text/css">
	.st0{fill:#0573BA;}
	.st1{fill:#3497D4;}
	.st2{fill:#FFFFFF;}
	.st3{fill:#0973BA;}
</style>
<g>
	<polygon class="st0" points="947.2,1132.7 3020.5,1132.7 2924.6,3098.1 1983.8,3496.3 1040.8,3105.1 	"/>
	<polygon class="st1" points="1983.8,1348.3 2803.3,1348.4 2725.2,2949.8 1983.8,3263.6 	"/>
	<polygon id="_x33_" class="st2" points="1353.1,1521.6 2613,1521.6 2528.6,2834 1983.8,3064.3 1444.7,2835 1420.3,2497.9 
		1678.1,2495.8 1692.2,2675.9 1983.8,2769.9 2269,2675 2297.4,2337.8 1670.8,2337.8 1670.6,2079.8 2317.5,2079.8 2345,1789.7 
		1375.5,1789.7 	"/>
	<g>
		<path class="st3" d="M1253.5,768.9l114.4,34.6c-7.7,32.1-19.8,58.9-36.3,80.4c-16.5,21.5-37,37.7-61.5,48.7
			c-24.5,10.9-55.6,16.4-93.5,16.4c-45.9,0-83.4-6.7-112.5-20c-29.1-13.3-54.2-36.8-75.3-70.4c-21.1-33.6-31.7-76.6-31.7-129
			c0-69.9,18.6-123.6,55.7-161.1c37.2-37.5,89.7-56.3,157.7-56.3c53.2,0,95,10.8,125.5,32.3c30.4,21.5,53.1,54.5,67.8,99.1
			l-115.2,25.6c-4-12.9-8.3-22.3-12.7-28.2c-7.3-10-16.2-17.7-26.8-23c-10.6-5.4-22.4-8.1-35.4-8.1c-29.6,0-52.2,11.9-68,35.7
			c-11.9,17.6-17.9,45.4-17.9,83.2c0,46.8,7.1,78.9,21.3,96.3c14.2,17.4,34.2,26,59.9,26c25,0,43.8-7,56.6-21
			C1238.5,815.9,1247.8,795.6,1253.5,768.9z"/>
		<path class="st3" d="M1803.8,802l124.2-7.8c2.7,20.2,8.2,35.5,16.4,46.1c13.4,17.1,32.6,25.6,57.6,25.6c18.6,0,33-4.4,43.1-13.1
			c10.1-8.7,15.1-18.9,15.1-30.4c0-10.9-4.8-20.7-14.4-29.4c-9.6-8.6-31.9-16.8-66.8-24.5c-57.2-12.9-98-30-122.4-51.3
			c-24.6-21.3-36.9-48.5-36.9-81.5c0-21.7,6.3-42.2,18.9-61.5c12.6-19.3,31.5-34.5,56.8-45.5c25.3-11,59.9-16.6,103.9-16.6
			c54,0,95.1,10,123.4,30.1c28.3,20.1,45.2,52,50.6,95.8l-123,7.2c-3.3-19-10.1-32.8-20.6-41.5c-10.5-8.6-24.9-13-43.4-13
			c-15.2,0-26.6,3.2-34.3,9.7c-7.7,6.4-11.5,14.3-11.5,23.5c0,6.7,3.2,12.8,9.5,18.1c6.1,5.6,20.7,10.8,43.8,15.6
			c57,12.3,97.9,24.7,122.6,37.3c24.7,12.6,42.6,28.2,53.9,46.8c11.2,18.6,16.9,39.5,16.9,62.5c0,27.1-7.5,52-22.5,74.9
			c-15,22.9-35.9,40.2-62.8,52c-26.9,11.8-60.8,17.7-101.7,17.7c-71.8,0-121.6-13.8-149.2-41.5
			C1823.1,879.8,1807.5,844.6,1803.8,802z"/>
		<path class="st3" d="M2625.2,802l124.2-7.8c2.7,20.2,8.2,35.5,16.4,46.1c13.4,17.1,32.6,25.6,57.6,25.6c18.6,0,33-4.4,43.1-13.1
			c10.1-8.7,15.1-18.9,15.1-30.4c0-10.9-4.8-20.7-14.4-29.4c-9.6-8.6-31.9-16.8-66.8-24.5c-57.2-12.9-98-30-122.4-51.3
			c-24.6-21.3-36.9-48.5-36.9-81.5c0-21.7,6.3-42.2,18.9-61.5c12.6-19.3,31.5-34.5,56.8-45.5c25.3-11,59.9-16.6,103.9-16.6
			c54,0,95.1,10,123.4,30.1c28.3,20.1,45.2,52,50.6,95.8l-123,7.2c-3.3-19-10.1-32.8-20.6-41.5c-10.5-8.6-24.9-13-43.4-13
			c-15.2,0-26.6,3.2-34.3,9.7c-7.7,6.4-11.5,14.3-11.5,23.5c0,6.7,3.2,12.8,9.5,18.1c6.1,5.6,20.7,10.8,43.8,15.6
			c57,12.3,97.9,24.7,122.6,37.3c24.7,12.6,42.6,28.2,53.9,46.8c11.2,18.6,16.9,39.5,16.9,62.5c0,27.1-7.5,52-22.5,74.9
			c-15,22.9-35.9,40.2-62.8,52c-26.9,11.8-60.8,17.7-101.7,17.7c-71.8,0-121.6-13.8-149.2-41.5
			C2644.5,879.8,2628.9,844.6,2625.2,802z"/>
	</g>
</g>
</svg>
