<?xml version="1.0" encoding="utf-8"?>
<!-- Generator: Adobe Illustrator 22.0.0, SVG Export Plug-In . SVG Version: 6.00 Build 0)  -->
<svg version="1.1" id="HTML5" xmlns="http://www.w3.org/2000/svg" xmlns:xlink="http://www.w3.org/1999/xlink" x="0px" y="0px"
	 viewBox="0 0 4000 4000" style="enable-background:new 0 0 4000 4000;" xml:space="preserve">
<style type="text/css">
	.st0{enable-background:new    ;}
	.st1{fill:#0E598F;}
	.st2{fill:#0A4875;}
	.st3{fill:#308AC0;}
	.st4{fill:#2A77A6;}
	.st5{fill:#216084;}
	.st6{fill:#0A4774;}
	.st7{fill:#0E5A91;}
	.st8{fill:#0D68A8;}
	.st9{fill:#848484;}
	.st10{fill:#B2B2B2;}
	.st11{fill:#858585;}
	.st12{fill:#ABABAB;}
	.st13{fill:#818181;}
	.st14{fill:#B4B4B4;}
	.st15{fill:#828282;}
	.st16{fill:#DFDFDF;}
	.st17{fill:#0D578C;}
	.st18{clip-path:url(#SVGID_2_);enable-background:new    ;}
	.st19{fill:#0C5285;}
	.st20{fill:#0D5488;}
	.st21{fill:#0D568B;}
	.st22{fill:#0C5082;}
	.st23{fill:#0C4F7F;}
	.st24{fill:#0B4D7C;}
	.st25{fill:#0B4B79;}
	.st26{fill:#0A4976;}
	.st27{clip-path:url(#SVGID_4_);enable-background:new    ;}
	.st28{clip-path:url(#SVGID_6_);enable-background:new    ;}
	.st29{clip-path:url(#SVGID_8_);enable-background:new    ;}
	.st30{clip-path:url(#SVGID_10_);enable-background:new    ;}
	.st31{clip-path:url(#SVGID_12_);enable-background:new    ;}
	.st32{clip-path:url(#SVGID_14_);enable-background:new    ;}
	.st33{clip-path:url(#SVGID_16_);enable-background:new    ;}
	.st34{clip-path:url(#SVGID_18_);enable-background:new    ;}
	.st35{clip-path:url(#SVGID_20_);enable-background:new    ;}
	.st36{clip-path:url(#SVGID_22_);enable-background:new    ;}
	.st37{clip-path:url(#SVGID_24_);enable-background:new    ;}
	.st38{clip-path:url(#SVGID_26_);enable-background:new    ;}
	.st39{clip-path:url(#SVGID_28_);enable-background:new    ;}
	.st40{clip-path:url(#SVGID_30_);enable-background:new    ;}
	.st41{clip-path:url(#SVGID_32_);enable-background:new    ;}
</style>
<g>
	<g>
		<g class="st0">
			<g>
				<polygon class="st1" points="2073.3,3275.8 1890.9,3176.6 2551.3,2782.5 2733.7,2881.7 				"/>
			</g>
			<g>
				<polygon class="st2" points="2733.7,2881.7 2551.3,2782.5 2623.7,1234.3 2806,1333.5 				"/>
			</g>
			<g>
				<polygon class="st3" points="2076.7,1435.9 2806.1,1333.5 2733.7,2881.7 2073.3,3275.8 				"/>
			</g>
			<g>
				<polygon class="st4" points="2076.7,1435.9 1894.4,1336.7 2623.7,1234.3 2806.1,1333.5 				"/>
			</g>
			<g>
				<polygon class="st5" points="2073.3,3275.8 1891,3176.6 1894.4,1336.7 2076.7,1435.9 				"/>
			</g>
			<g>
				<polygon class="st6" points="1234.2,3241.5 1051.9,3142.3 972.1,1259.3 1154.4,1358.5 				"/>
			</g>
			<g>
				<polygon class="st7" points="1154.4,1358.5 972.1,1259.3 2817.5,999.9 2999.8,1099.1 				"/>
			</g>
			<g>
				<path class="st8" d="M1154.4,1358.5l1845.4-259.4l-88.8,1900l-838.1,500.2l-838.6-257.9L1154.4,1358.5z M2733.7,2881.7
					l72.4-1548.2l-729.3,102.4l-3.4,1840L2733.7,2881.7"/>
			</g>
		</g>
	</g>
</g>
<g id="_x33_">
	<g>
		<g class="st0">
			<g>
				<polygon class="st9" points="2364.5,2649 2273.3,2599.4 2299.2,2271.9 2390.3,2321.5 				"/>
			</g>
			<g>
				<polygon class="st10" points="2110.5,2775.8 2019.3,2726.2 2273.3,2599.4 2364.5,2649 				"/>
			</g>
			<g>
				<polygon class="st11" points="2408.7,2071.1 2317.6,2021.5 2342.5,1739.4 2433.7,1789 				"/>
			</g>
			<g>
				<polygon class="st12" points="1851.1,2722 1759.9,2672.4 2019.3,2726.2 2110.5,2775.8 				"/>
			</g>
			<g>
				<polygon class="st13" points="1630.5,2905.8 1539.4,2856.2 1518.2,2535.4 1609.4,2585 				"/>
			</g>
			<g>
				<polygon class="st14" points="1609.4,2585 1518.2,2535.4 1747.7,2501.2 1838.9,2550.8 				"/>
			</g>
			<g>
				<polygon class="st14" points="1833,2152 1741.8,2102.4 2317.6,2021.5 2408.7,2071.1 				"/>
			</g>
			<g>
				<polygon class="st15" points="1832.7,2399.9 1741.5,2350.3 1741.8,2102.4 1833,2152 				"/>
			</g>
			<g>
				<polygon class="st16" points="2672.7,1497.9 2595.2,2769.3 2110,3058.6 1630.5,2905.8 1609.4,2585 1838.9,2550.8 1851.1,2722 
					2110.5,2775.8 2364.5,2649 2390.3,2321.5 1832.7,2399.9 1833,2152 2408.7,2071.1 2433.7,1789 1570.8,1910.2 1551.4,1655.5 				
					"/>
			</g>
			<g>
				<polygon class="st13" points="1570.8,1910.2 1479.6,1860.6 1460.2,1605.9 1551.4,1655.5 				"/>
			</g>
			<g>
				<polygon class="st14" points="1551.4,1655.5 1460.2,1605.9 2581.5,1448.3 2672.7,1497.9 				"/>
			</g>
		</g>
	</g>
</g>
<g>
	<g>
		<g class="st0">
			<g>
				<polygon class="st17" points="1356.4,871 1310.9,846.2 1412.6,865.1 1458.2,889.9 				"/>
			</g>
			<g class="st0">
				<defs>
					<path id="SVGID_1_" class="st0" d="M1242.5,954.9l-45.6-24.8c10.6,5.8,23.5,7.6,38.7,5.5c22.2-3.1,39-12.2,50.4-27.3
						c11.4-15.1,19.7-35.8,24.9-62.1l45.6,24.8c-5.2,26.4-13.5,47.1-24.9,62.1c-11.4,15.1-28.2,24.2-50.4,27.3
						C1266,962.5,1253.1,960.7,1242.5,954.9z"/>
				</defs>
				<clipPath id="SVGID_2_">
					<use xlink:href="#SVGID_1_"  style="overflow:visible;"/>
				</clipPath>
				<g class="st18">
					<path class="st19" d="M1242.5,954.9l-45.6-24.8c0.6,0.3,1.2,0.6,1.8,0.9l45.6,24.8C1243.7,955.6,1243.1,955.2,1242.5,954.9"/>
					<path class="st20" d="M1244.3,955.8l-45.6-24.8c3,1.5,6.3,2.7,9.6,3.6l45.6,24.8C1250.5,958.5,1247.3,957.3,1244.3,955.8"/>
					<path class="st21" d="M1253.9,959.4l-45.6-24.8c8.1,2.1,17.2,2.4,27.3,1c9.6-1.3,18.1-3.8,25.7-7.4l45.6,24.8
						c-7.6,3.6-16.1,6-25.7,7.4C1271.1,961.8,1262,961.5,1253.9,959.4"/>
					<path class="st20" d="M1306.9,953.1l-45.6-24.8c3.5-1.6,6.8-3.5,9.9-5.7l45.6,24.8C1313.7,949.5,1310.4,951.4,1306.9,953.1"/>
					<path class="st19" d="M1316.7,947.4l-45.6-24.8c2.3-1.6,4.4-3.3,6.5-5.1l45.6,24.8C1321.2,944.1,1319,945.8,1316.7,947.4"/>
					<path class="st22" d="M1323.2,942.3l-45.6-24.8c1.8-1.6,3.6-3.4,5.2-5.2l45.6,24.8C1326.8,938.9,1325,940.6,1323.2,942.3"/>
					<path class="st23" d="M1328.4,937l-45.6-24.8c1.1-1.3,2.2-2.6,3.2-3.9c0.7-0.9,1.3-1.8,2-2.7l45.6,24.8c-0.6,0.9-1.3,1.8-2,2.7
						C1330.6,934.5,1329.5,935.8,1328.4,937"/>
					<path class="st24" d="M1333.6,930.4l-45.6-24.8c2.3-3.3,4.5-6.8,6.5-10.6l45.6,24.8C1338,923.6,1335.9,927.1,1333.6,930.4"/>
					<path class="st25" d="M1340.1,919.8l-45.6-24.8c2.9-5.4,5.5-11.2,7.8-17.6l45.6,24.8C1345.6,908.6,1343,914.4,1340.1,919.8"/>
					<path class="st26" d="M1347.9,902.2l-45.6-24.8c3.4-9.3,6.3-19.7,8.5-31.2l45.6,24.8C1354.2,882.5,1351.4,892.9,1347.9,902.2"
						/>
				</g>
			</g>
			<g class="st0">
				<defs>
					<path id="SVGID_3_" class="st0" d="M1277,709.3l45.6,24.8c7.1,3.9,13.2,9.3,18.4,16.3c3.9,5.2,7.7,13.7,11.2,25.5l-45.6-24.8
						c-3.6-11.9-7.3-20.4-11.2-25.5C1290.2,718.5,1284.1,713.1,1277,709.3z"/>
				</defs>
				<clipPath id="SVGID_4_">
					<use xlink:href="#SVGID_3_"  style="overflow:visible;"/>
				</clipPath>
				<g class="st27">
					<path class="st26" d="M1352.3,775.8l-45.6-24.8c-3.6-11.9-7.3-20.4-11.2-25.5c-5.2-7-11.4-12.4-18.4-16.3l45.6,24.8
						c7.1,3.9,13.2,9.3,18.4,16.3C1345,755.5,1348.7,764,1352.3,775.8"/>
				</g>
			</g>
			<g class="st0">
				<defs>
					<path id="SVGID_5_" class="st0" d="M1343.9,622.3l45.6,24.8c-26.6-14.4-62-18.5-106.5-12.3l-45.6-24.8
						C1281.9,603.7,1317.4,607.8,1343.9,622.3z"/>
				</defs>
				<clipPath id="SVGID_6_">
					<use xlink:href="#SVGID_5_"  style="overflow:visible;"/>
				</clipPath>
				<g class="st28">
					<path class="st21" d="M1283.1,634.8l-45.6-24.8c31.2-4.4,57.9-3.7,80.3,2.1l45.6,24.8C1341,631.1,1314.2,630.4,1283.1,634.8"/>
					<path class="st20" d="M1363.3,636.9l-45.6-24.8c8,2.1,15.5,4.8,22.4,8.2l45.6,24.8C1378.8,641.7,1371.4,639,1363.3,636.9"/>
					<path class="st19" d="M1385.7,645.1l-45.6-24.8c1.3,0.6,2.5,1.3,3.8,2l45.6,24.8C1388.3,646.4,1387,645.8,1385.7,645.1"/>
				</g>
			</g>
			<g class="st0">
				<defs>
					<path id="SVGID_7_" class="st0" d="M1172.4,1041.6l-45.6-24.8c-19.5-10.6-36.8-27.7-51.7-51.4c-18.7-29.6-28.1-69.6-28-119.9
						c0.1-67.1,16.8-121,49.9-161.7c33.1-40.7,80-65.3,140.5-73.8l45.6,24.8c-60.5,8.5-107.3,33.1-140.5,73.8
						c-33.1,40.7-49.8,94.6-49.9,161.7c-0.1,50.3,9.2,90.3,28,119.9C1135.6,1013.9,1152.9,1031,1172.4,1041.6z"/>
				</defs>
				<clipPath id="SVGID_8_">
					<use xlink:href="#SVGID_7_"  style="overflow:visible;"/>
				</clipPath>
				<g class="st29">
					<path class="st26" d="M1172.4,1041.6l-45.6-24.8c-19.5-10.6-36.8-27.7-51.7-51.4c-18.7-29.6-28.1-69.6-28-119.9
						c0.1-38.5,5.6-72.7,16.5-102.5l45.6,24.8c-10.9,29.8-16.5,64-16.5,102.5c-0.1,50.3,9.2,90.3,28,119.9
						C1135.6,1013.9,1152.9,1031,1172.4,1041.6"/>
					<path class="st25" d="M1109.2,767.8l-45.6-24.8c3.6-9.8,7.7-19,12.5-27.9l45.6,24.8C1116.9,748.8,1112.8,758,1109.2,767.8"/>
					<path class="st24" d="M1121.7,739.9l-45.6-24.8c3.8-7,7.9-13.7,12.4-20.1l45.6,24.8C1129.6,726.2,1125.5,732.9,1121.7,739.9"/>
					<path class="st23" d="M1134.1,719.8l-45.6-24.8c2.7-3.8,5.5-7.6,8.5-11.2c1.7-2,3.4-4,5.1-6l45.6,24.8c-1.7,2-3.4,4-5.1,6
						C1139.6,712.2,1136.8,715.9,1134.1,719.8"/>
					<path class="st22" d="M1147.7,702.6l-45.6-24.8c4.9-5.5,10-10.7,15.4-15.6l45.6,24.8C1157.7,691.9,1152.5,697.1,1147.7,702.6"
						/>
					<path class="st19" d="M1163.1,687l-45.6-24.8c6-5.4,12.3-10.4,19-15l45.6,24.8C1175.4,676.6,1169.1,681.6,1163.1,687"/>
					<path class="st20" d="M1182.1,672l-45.6-24.8c8.9-6.2,18.4-11.6,28.5-16.4l45.6,24.8C1200.5,660.4,1191,665.8,1182.1,672"/>
					<path class="st21" d="M1210.6,655.6l-45.6-24.8c21.5-10.1,45.6-17.1,72.5-20.8l45.6,24.8C1256.2,638.6,1232,645.5,1210.6,655.6
						"/>
				</g>
			</g>
			<g>
				<path class="st8" d="M1283.1,634.8c47.3-6.7,84.6-1.6,111.6,15.3c27.1,16.9,47.1,45.8,60.2,86.7l-102.6,39
					c-3.6-11.9-7.3-20.4-11.2-25.5c-6.5-8.7-14.4-14.9-23.8-18.8c-9.4-3.8-19.9-4.9-31.5-3.3c-26.3,3.7-46.5,18-60.6,42.8
					c-10.6,18.4-16,45.8-16,82.1c-0.1,45,6.2,74.9,18.8,89.8c12.6,14.9,30.4,20.7,53.3,17.5c22.2-3.1,39-12.2,50.4-27.3
					c11.4-15.1,19.7-35.8,24.9-62.1l101.7,18.9c-6.9,31.8-17.7,59-32.4,81.8c-14.7,22.7-33,40.9-54.8,54.5
					c-21.8,13.6-49.6,22.7-83.2,27.5c-40.9,5.7-74.2,4-100.1-5.1c-25.9-9.2-48.2-28.6-66.9-58.2s-28.1-69.6-28-119.9
					c0.1-67.1,16.8-121,49.9-161.7C1175.7,667.9,1222.5,643.3,1283.1,634.8z"/>
			</g>
		</g>
		<g class="st0">
			<g class="st0">
				<defs>
					<path id="SVGID_9_" class="st0" d="M1985.7,865.4l-45.6-24.8c10.1,5.5,22.3,7.2,36.8,5.2c16.6-2.3,29.4-8.3,38.4-18
						c9-9.7,13.5-20,13.5-31.1c0-10.5-4.2-19.3-12.8-26.4c-1.3-1.1-2.8-2.1-4.6-3.1l45.6,24.8c1.8,1,3.3,2,4.6,3.1
						c8.5,7.1,12.8,15.9,12.8,26.4c0,11.1-4.5,21.4-13.5,31.1c-9,9.7-21.8,15.6-38.4,18C2008.1,872.6,1995.8,870.9,1985.7,865.4z"/>
				</defs>
				<clipPath id="SVGID_10_">
					<use xlink:href="#SVGID_9_"  style="overflow:visible;"/>
				</clipPath>
				<g class="st30">
					<path class="st19" d="M1985.7,865.4l-45.6-24.8c0.6,0.3,1.1,0.6,1.7,0.9l45.6,24.8C1986.8,866,1986.3,865.7,1985.7,865.4"/>
					<path class="st20" d="M1987.4,866.3l-45.6-24.8c2.9,1.4,5.9,2.5,9.1,3.4l45.6,24.8C1993.3,868.8,1990.3,867.7,1987.4,866.3"/>
					<path class="st21" d="M1996.5,869.7l-45.6-24.8c7.7,2,16.3,2.3,25.9,1c8.3-1.2,15.7-3.3,22.2-6.3l45.6,24.8
						c-6.4,3-13.8,5.1-22.2,6.3C2012.9,872,2004.2,871.7,1996.5,869.7"/>
					<path class="st20" d="M2044.6,864.3l-45.6-24.8c2.8-1.3,5.5-2.9,8-4.6l45.6,24.8C2050.1,861.5,2047.5,863,2044.6,864.3"/>
					<path class="st19" d="M2052.6,859.7l-45.6-24.8c1.8-1.2,3.5-2.6,5.1-4l45.6,24.8C2056.1,857.2,2054.4,858.5,2052.6,859.7"/>
					<path class="st22" d="M2057.7,855.7l-45.6-24.8c1.1-1,2.1-2,3.1-3.1c0.4-0.4,0.8-0.9,1.2-1.3l45.6,24.8
						c-0.4,0.4-0.8,0.9-1.2,1.3C2059.8,853.7,2058.8,854.7,2057.7,855.7"/>
					<path class="st23" d="M2062,851.3l-45.6-24.8c1.5-1.7,2.9-3.5,4.1-5.2l45.6,24.8C2064.9,847.9,2063.5,849.6,2062,851.3"/>
					<path class="st24" d="M2066.2,846.1l-45.6-24.8c1.2-1.7,2.2-3.4,3.1-5.1l45.6,24.8C2068.4,842.7,2067.3,844.4,2066.2,846.1"/>
					<path class="st25" d="M2069.3,841l-45.6-24.8c1-1.9,1.9-3.8,2.6-5.7l45.6,24.8C2071.2,837.2,2070.3,839.1,2069.3,841"/>
					<path class="st26" d="M2071.9,835.3l-45.6-24.8c1.6-4.5,2.5-9.1,2.5-13.8c0-10.5-4.2-19.3-12.8-26.4c-1.3-1.1-2.8-2.1-4.6-3.1
						l45.6,24.8c1.8,1,3.3,2,4.6,3.1c8.5,7.1,12.8,15.9,12.8,26.4C2074.3,826.3,2073.5,830.9,2071.9,835.3"/>
				</g>
			</g>
			<g class="st0">
				<defs>
					<path id="SVGID_11_" class="st0" d="M1997.5,587.8l45.6,24.8c1.5,0.8,3,1.8,4.3,2.8c9.3,7,15.4,19.4,18.3,37.3l-45.6-24.8
						c-2.9-17.9-9-30.3-18.3-37.3C2000.5,589.5,1999,588.6,1997.5,587.8z"/>
				</defs>
				<clipPath id="SVGID_12_">
					<use xlink:href="#SVGID_11_"  style="overflow:visible;"/>
				</clipPath>
				<g class="st31">
					<path class="st26" d="M2065.7,652.6l-45.6-24.8c-2.9-17.9-9-30.3-18.3-37.3c-1.4-1-2.8-2-4.3-2.8l45.6,24.8
						c1.5,0.8,3,1.8,4.3,2.8C2056.7,622.3,2062.8,634.8,2065.7,652.6"/>
				</g>
			</g>
			<g class="st0">
				<defs>
					<path id="SVGID_13_" class="st0" d="M1979.3,664l-45.6-24.8c6.5,3.6,18.6,6.1,36.1,7.6c50.7,4.7,87.1,11.5,109,20.5
						c4.6,1.9,8.9,3.9,13,6.2l45.6,24.8c-4.1-2.2-8.4-4.3-13-6.2c-22-9-58.3-15.8-109-20.5C1997.9,670.1,1985.9,667.6,1979.3,664z"
						/>
				</defs>
				<clipPath id="SVGID_14_">
					<use xlink:href="#SVGID_13_"  style="overflow:visible;"/>
				</clipPath>
				<g class="st32">
					<path class="st19" d="M1979.3,664l-45.6-24.8c0.3,0.2,0.6,0.3,0.9,0.5l45.6,24.8C1979.9,664.4,1979.6,664.2,1979.3,664"/>
					<path class="st20" d="M1980.3,664.5l-45.6-24.8c2.3,1.1,5.3,2.2,8.8,3.1l45.6,24.8C1985.6,666.7,1982.6,665.7,1980.3,664.5"/>
					<path class="st21" d="M1989.1,667.6l-45.6-24.8c6.6,1.7,15.4,3,26.3,4c36.5,3.4,65.6,7.8,87.2,13.4l45.6,24.8
						c-21.6-5.6-50.7-10.1-87.2-13.4C2004.5,670.7,1995.8,669.3,1989.1,667.6"/>
					<path class="st20" d="M2102.6,685l-45.6-24.8c8.4,2.2,15.7,4.5,21.9,7.1c2.9,1.2,5.8,2.5,8.5,3.8l45.6,24.8
						c-2.7-1.3-5.6-2.6-8.5-3.8C2118.3,689.6,2111,687.2,2102.6,685"/>
					<path class="st19" d="M2132.9,695.9l-45.6-24.8c1.5,0.8,3,1.5,4.5,2.3l45.6,24.8C2136,697.4,2134.5,696.7,2132.9,695.9"/>
				</g>
			</g>
			<g class="st0">
				<defs>
					<path id="SVGID_15_" class="st0" d="M2080.2,517.2l45.6,24.8c-25-13.6-60.1-17.2-105.3-10.8l-45.6-24.8
						C2020.2,500,2055.3,503.6,2080.2,517.2z"/>
				</defs>
				<clipPath id="SVGID_16_">
					<use xlink:href="#SVGID_15_"  style="overflow:visible;"/>
				</clipPath>
				<g class="st33">
					<path class="st21" d="M2020.5,531.1l-45.6-24.8c32.4-4.6,59.7-4,81.7,1.7l45.6,24.8C2080.2,527.1,2053,526.6,2020.5,531.1"/>
					<path class="st20" d="M2102.2,532.8l-45.6-24.8c7.3,1.9,14.1,4.4,20.3,7.4l45.6,24.8C2116.3,537.2,2109.6,534.7,2102.2,532.8"
						/>
					<path class="st19" d="M2122.5,540.3l-45.6-24.8c1.1,0.6,2.2,1.1,3.3,1.7l45.6,24.8C2124.7,541.4,2123.6,540.8,2122.5,540.3"/>
				</g>
			</g>
			<g>
				<polygon class="st7" points="1846.2,834 1800.6,809.2 1911.1,786.2 1956.7,811 				"/>
			</g>
			<g class="st0">
				<defs>
					<path id="SVGID_17_" class="st0" d="M1903.2,940.4l-45.6-24.8c-5.8-3.1-10.9-6.8-15.4-11c-24.6-23.1-38.4-54.9-41.6-95.4
						l45.6,24.8c3.2,40.5,17,72.3,41.6,95.4C1892.3,933.6,1897.4,937.3,1903.2,940.4z"/>
				</defs>
				<clipPath id="SVGID_18_">
					<use xlink:href="#SVGID_17_"  style="overflow:visible;"/>
				</clipPath>
				<g class="st34">
					<path class="st26" d="M1903.2,940.4l-45.6-24.8c-5.8-3.1-10.9-6.8-15.4-11c-24.6-23.1-38.4-54.9-41.6-95.4l45.6,24.8
						c3.2,40.5,17,72.3,41.6,95.4C1892.3,933.6,1897.4,937.3,1903.2,940.4"/>
				</g>
			</g>
			<g class="st0">
				<defs>
					<path id="SVGID_19_" class="st0" d="M1908,755.8l-45.6-24.8c-5.5-3-10.4-6.2-14.8-9.7c-21.8-17.4-32.7-42-32.7-73.7
						c0-20.8,5.7-41.3,16.9-61.4c11.2-20.1,28.1-37.1,50.6-50.8c22.5-13.8,53.3-23.4,92.5-28.9l45.6,24.8
						c-39.1,5.5-70,15.1-92.5,28.9c-22.5,13.8-39.4,30.7-50.6,50.8c-11.2,20.1-16.9,40.6-16.9,61.4c-0.1,31.7,10.8,56.3,32.7,73.7
						C1897.6,749.5,1902.5,752.8,1908,755.8z"/>
				</defs>
				<clipPath id="SVGID_20_">
					<use xlink:href="#SVGID_19_"  style="overflow:visible;"/>
				</clipPath>
				<g class="st35">
					<path class="st26" d="M1908,755.8l-45.6-24.8c-5.5-3-10.4-6.2-14.8-9.7c-21.8-17.4-32.7-42-32.7-73.7c0-13.9,2.5-27.6,7.5-41.1
						l45.6,24.8c-5,13.6-7.5,27.3-7.5,41.1c-0.1,31.7,10.8,56.3,32.7,73.7C1897.6,749.5,1902.5,752.8,1908,755.8"/>
					<path class="st25" d="M1868.1,631.2l-45.6-24.8c2.2-6.1,5-12.2,8.2-18.2l45.6,24.8C1873.1,619,1870.3,625.1,1868.1,631.2"/>
					<path class="st24" d="M1876.3,613l-45.6-24.8c0.4-0.7,0.8-1.4,1.2-2.1c2.1-3.7,4.3-7.3,6.7-10.7l45.6,24.8
						c-2.4,3.5-4.7,7-6.7,10.7C1877.1,611.6,1876.7,612.3,1876.3,613"/>
					<path class="st23" d="M1884.2,600.1l-45.6-24.8c2.7-3.9,5.7-7.6,8.8-11.2l45.6,24.8C1889.9,592.5,1886.9,596.3,1884.2,600.1"/>
					<path class="st22" d="M1893.1,588.9l-45.6-24.8c3.4-3.9,7.1-7.6,11.1-11.2l45.6,24.8C1900.2,581.3,1896.5,585,1893.1,588.9"/>
					<path class="st19" d="M1904.1,577.8l-45.6-24.8c4.8-4.3,10-8.4,15.7-12.3l45.6,24.8C1914.2,569.3,1909,573.4,1904.1,577.8"/>
					<path class="st20" d="M1919.8,565.4l-45.6-24.8c2.7-1.8,5.4-3.6,8.3-5.4c4.4-2.7,9.1-5.2,14.2-7.6l45.6,24.8
						c-5,2.4-9.8,4.9-14.2,7.6C1925.2,561.8,1922.5,563.6,1919.8,565.4"/>
					<path class="st21" d="M1942.3,552.4l-45.6-24.8c20.7-9.8,46.8-16.9,78.3-21.3l45.6,24.8C1989.1,535.6,1963,542.7,1942.3,552.4"
						/>
				</g>
			</g>
			<g>
				<path class="st8" d="M2020.5,531.1c48-6.8,84.6-2.3,109.8,13.5c25.2,15.7,40.1,44.3,44.8,85.7l-109.5,22.3
					c-2.9-17.9-9-30.3-18.3-37.3c-9.3-7-22.2-9.3-38.6-7c-13.5,1.9-23.7,6.4-30.5,13.6c-6.8,7.1-10.3,15.1-10.3,24
					c0,6.5,2.8,11.9,8.4,16.2c5.5,4.6,18.4,7.7,39,9.5c50.7,4.7,87.1,11.5,109,20.5c21.9,9,37.9,21.7,47.9,38.2
					c10,16.5,14.9,35.8,14.9,57.9c0,26-6.8,50.9-20.1,74.8c-13.4,23.8-32,43.1-56,57.8c-24,14.7-54.1,24.6-90.5,29.7
					c-63.9,9-108.2,1.9-132.7-21.2c-24.6-23.1-38.4-54.9-41.6-95.4l110.5-23c2.4,19,7.2,33.1,14.5,42.2c11.9,14.7,29,20.5,51.2,17.4
					c16.6-2.3,29.4-8.3,38.4-18c9-9.7,13.5-20,13.5-31.1c0-10.5-4.2-19.3-12.8-26.4s-28.3-12.2-59.4-15.2
					c-50.9-5.2-87.2-16.5-108.9-33.9c-21.8-17.4-32.7-42-32.7-73.7c0-20.8,5.7-41.3,16.9-61.4c11.2-20.1,28.1-37.1,50.6-50.8
					C1950.6,546.3,1981.4,536.6,2020.5,531.1z"/>
			</g>
		</g>
		<g class="st0">
			<g class="st0">
				<defs>
					<path id="SVGID_21_" class="st0" d="M2716.8,762.7l-45.6-24.8c10.1,5.5,22.3,7.2,36.7,5.2c16.6-2.3,29.4-8.3,38.4-18
						c9-9.7,13.5-20,13.5-31.1c0-10.5-4.2-19.3-12.8-26.4c-1.3-1.1-2.8-2.1-4.6-3.1l45.6,24.8c1.8,1,3.3,2,4.6,3.1
						c8.5,7.1,12.8,15.9,12.8,26.4c0,11.1-4.5,21.4-13.5,31.1c-9,9.7-21.8,15.6-38.4,18C2739.1,769.9,2726.9,768.2,2716.8,762.7z"/>
				</defs>
				<clipPath id="SVGID_22_">
					<use xlink:href="#SVGID_21_"  style="overflow:visible;"/>
				</clipPath>
				<g class="st36">
					<path class="st19" d="M2716.8,762.7l-45.6-24.8c0.6,0.3,1.1,0.6,1.7,0.9l45.6,24.8C2717.9,763.3,2717.3,763,2716.8,762.7"/>
					<path class="st20" d="M2718.5,763.6l-45.6-24.8c2.9,1.4,5.9,2.5,9.1,3.4l45.6,24.8C2724.4,766.1,2721.3,765,2718.5,763.6"/>
					<path class="st21" d="M2727.6,766.9l-45.6-24.8c7.7,2,16.3,2.3,25.9,1c8.3-1.2,15.7-3.3,22.2-6.3l45.6,24.8
						c-6.4,3-13.8,5.1-22.2,6.3C2743.9,769.2,2735.3,768.9,2727.6,766.9"/>
					<path class="st20" d="M2775.7,761.6l-45.6-24.8c2.8-1.3,5.5-2.9,8-4.6l45.6,24.8C2781.2,758.7,2778.5,760.2,2775.7,761.6"/>
					<path class="st19" d="M2783.7,757l-45.6-24.8c1.8-1.2,3.5-2.6,5.1-4l45.6,24.8C2787.2,754.4,2785.5,755.7,2783.7,757"/>
					<path class="st22" d="M2788.8,753l-45.6-24.8c1.1-1,2.1-2,3.1-3.1c0.4-0.4,0.8-0.9,1.2-1.3l45.6,24.8c-0.4,0.4-0.8,0.9-1.2,1.3
						C2790.9,751,2789.9,752,2788.8,753"/>
					<path class="st23" d="M2793.1,748.6l-45.6-24.8c1.5-1.7,2.9-3.5,4.1-5.2l45.6,24.8C2796,745.1,2794.6,746.9,2793.1,748.6"/>
					<path class="st24" d="M2797.2,743.4l-45.6-24.8c1.2-1.7,2.2-3.4,3.1-5.1l45.6,24.8C2799.4,740,2798.4,741.7,2797.2,743.4"/>
					<path class="st25" d="M2800.4,738.3l-45.6-24.8c1-1.9,1.9-3.8,2.6-5.7l45.6,24.8C2802.2,734.5,2801.4,736.4,2800.4,738.3"/>
					<path class="st26" d="M2802.9,732.6l-45.6-24.8c1.6-4.5,2.5-9.1,2.5-13.8c0-10.5-4.2-19.3-12.8-26.4c-1.3-1.1-2.8-2.1-4.6-3.1
						l45.6,24.8c1.8,1,3.3,2,4.6,3.1c8.5,7.1,12.8,15.9,12.8,26.4C2805.4,723.5,2804.6,728.1,2802.9,732.6"/>
				</g>
			</g>
			<g class="st0">
				<defs>
					<path id="SVGID_23_" class="st0" d="M2728.6,485l45.6,24.8c1.5,0.8,3,1.8,4.3,2.8c9.3,7,15.4,19.4,18.3,37.3l-45.6-24.8
						c-2.9-17.9-9-30.3-18.3-37.3C2731.5,486.8,2730.1,485.8,2728.6,485z"/>
				</defs>
				<clipPath id="SVGID_24_">
					<use xlink:href="#SVGID_23_"  style="overflow:visible;"/>
				</clipPath>
				<g class="st37">
					<path class="st26" d="M2796.8,549.9l-45.6-24.8c-2.9-17.9-9-30.3-18.3-37.3c-1.4-1-2.8-2-4.3-2.8l45.6,24.8
						c1.5,0.8,3,1.8,4.3,2.8C2787.8,519.6,2793.9,532,2796.8,549.9"/>
				</g>
			</g>
			<g class="st0">
				<defs>
					<path id="SVGID_25_" class="st0" d="M2710.4,561.3l-45.6-24.8c6.5,3.6,18.6,6.1,36.1,7.6c50.7,4.7,87.1,11.5,109,20.5
						c4.6,1.9,8.9,3.9,13,6.2l45.6,24.8c-4.1-2.2-8.4-4.3-13-6.2c-21.9-9-58.3-15.8-109-20.5C2729,567.4,2716.9,564.8,2710.4,561.3z
						"/>
				</defs>
				<clipPath id="SVGID_26_">
					<use xlink:href="#SVGID_25_"  style="overflow:visible;"/>
				</clipPath>
				<g class="st38">
					<path class="st19" d="M2710.4,561.3l-45.6-24.8c0.3,0.2,0.6,0.3,0.9,0.5l45.6,24.8C2711,561.6,2710.7,561.4,2710.4,561.3"/>
					<path class="st20" d="M2711.3,561.8l-45.6-24.8c2.3,1.1,5.3,2.2,8.8,3.1l45.6,24.8C2716.6,564,2713.7,562.9,2711.3,561.8"/>
					<path class="st21" d="M2720.2,564.9l-45.6-24.8c6.6,1.7,15.4,3,26.3,4c36.5,3.4,65.6,7.8,87.2,13.4l45.6,24.8
						c-21.6-5.6-50.7-10.1-87.2-13.4C2735.6,567.9,2726.8,566.6,2720.2,564.9"/>
					<path class="st20" d="M2833.6,582.3l-45.6-24.8c8.4,2.2,15.7,4.5,21.9,7.1c2.9,1.2,5.8,2.5,8.5,3.8l45.6,24.8
						c-2.7-1.3-5.6-2.6-8.5-3.8C2849.4,586.8,2842.1,584.5,2833.6,582.3"/>
					<path class="st19" d="M2864,593.2l-45.6-24.8c1.5,0.8,3,1.5,4.5,2.3l45.6,24.8C2867,594.7,2865.5,593.9,2864,593.2"/>
				</g>
			</g>
			<g class="st0">
				<defs>
					<path id="SVGID_27_" class="st0" d="M2811.3,414.4l45.6,24.8c-25-13.6-60.1-17.2-105.3-10.8l-45.6-24.8
						C2751.2,397.2,2786.3,400.8,2811.3,414.4z"/>
				</defs>
				<clipPath id="SVGID_28_">
					<use xlink:href="#SVGID_27_"  style="overflow:visible;"/>
				</clipPath>
				<g class="st39">
					<path class="st21" d="M2751.6,428.4l-45.6-24.8c32.4-4.6,59.7-4,81.7,1.7l45.6,24.8C2811.3,424.4,2784,423.8,2751.6,428.4"/>
					<path class="st20" d="M2833.3,430.1l-45.6-24.8c7.3,1.9,14.1,4.4,20.3,7.4l45.6,24.8C2847.4,434.5,2840.6,432,2833.3,430.1"/>
					<path class="st19" d="M2853.6,437.5l-45.6-24.8c1.1,0.6,2.2,1.1,3.3,1.7l45.6,24.8C2855.8,438.6,2854.7,438.1,2853.6,437.5"/>
				</g>
			</g>
			<g>
				<polygon class="st7" points="2577.2,731.2 2531.7,706.4 2642.2,683.4 2687.8,708.2 				"/>
			</g>
			<g class="st0">
				<defs>
					<path id="SVGID_29_" class="st0" d="M2634.2,837.7l-45.6-24.8c-5.8-3.1-10.9-6.8-15.4-11c-24.6-23.1-38.4-54.9-41.6-95.4
						l45.6,24.8c3.2,40.5,17,72.3,41.6,95.4C2623.3,830.9,2628.4,834.5,2634.2,837.7z"/>
				</defs>
				<clipPath id="SVGID_30_">
					<use xlink:href="#SVGID_29_"  style="overflow:visible;"/>
				</clipPath>
				<g class="st40">
					<path class="st26" d="M2634.2,837.7l-45.6-24.8c-5.8-3.1-10.9-6.8-15.4-11c-24.6-23.1-38.4-54.9-41.6-95.4l45.6,24.8
						c3.2,40.5,17,72.3,41.6,95.4C2623.3,830.9,2628.4,834.5,2634.2,837.7"/>
				</g>
			</g>
			<g class="st0">
				<defs>
					<path id="SVGID_31_" class="st0" d="M2639.1,653l-45.6-24.8c-5.5-3-10.4-6.2-14.8-9.7c-21.8-17.4-32.7-42-32.7-73.7
						c0-20.8,5.7-41.3,16.9-61.4c11.2-20.1,28.1-37.1,50.6-50.8c22.5-13.8,53.3-23.4,92.5-28.9l45.6,24.8
						c-39.1,5.5-70,15.1-92.5,28.9c-22.5,13.8-39.4,30.7-50.6,50.8c-11.2,20.1-16.9,40.6-16.9,61.4c-0.1,31.7,10.8,56.3,32.7,73.7
						C2628.7,646.8,2633.6,650,2639.1,653z"/>
				</defs>
				<clipPath id="SVGID_32_">
					<use xlink:href="#SVGID_31_"  style="overflow:visible;"/>
				</clipPath>
				<g class="st41">
					<path class="st26" d="M2639.1,653l-45.6-24.8c-5.5-3-10.4-6.2-14.8-9.7c-21.8-17.4-32.7-42-32.7-73.7c0-13.9,2.5-27.6,7.5-41.1
						l45.6,24.8c-5,13.5-7.5,27.3-7.5,41.1c-0.1,31.7,10.8,56.3,32.7,73.7C2628.7,646.8,2633.6,650,2639.1,653"/>
					<path class="st25" d="M2599.1,528.4l-45.6-24.8c2.2-6.1,5-12.2,8.2-18.2l45.6,24.8C2604.1,516.3,2601.4,522.4,2599.1,528.4"/>
					<path class="st24" d="M2607.4,510.3l-45.6-24.8c0.4-0.7,0.8-1.4,1.2-2.1c2.1-3.7,4.3-7.3,6.7-10.7l45.6,24.8
						c-2.4,3.5-4.7,7.1-6.7,10.7C2608.1,508.8,2607.8,509.6,2607.4,510.3"/>
					<path class="st23" d="M2615.3,497.4l-45.6-24.8c2.7-3.9,5.7-7.6,8.8-11.2l45.6,24.8C2620.9,489.8,2618,493.5,2615.3,497.4"/>
					<path class="st22" d="M2624.1,486.2l-45.6-24.8c3.4-3.9,7.1-7.6,11.1-11.2l45.6,24.8C2631.2,478.6,2627.5,482.3,2624.1,486.2"
						/>
					<path class="st19" d="M2635.2,475l-45.6-24.8c4.8-4.3,10-8.4,15.6-12.3l45.6,24.8C2645.2,466.6,2640,470.7,2635.2,475"/>
					<path class="st20" d="M2650.9,462.7l-45.6-24.8c2.7-1.8,5.4-3.6,8.3-5.4c4.4-2.7,9.1-5.2,14.2-7.6l45.6,24.8
						c-5,2.4-9.8,4.9-14.2,7.6C2656.3,459,2653.5,460.8,2650.9,462.7"/>
					<path class="st21" d="M2673.3,449.7l-45.6-24.8c20.7-9.8,46.8-16.9,78.3-21.3l45.6,24.8C2720.1,432.8,2694,439.9,2673.3,449.7"
						/>
				</g>
			</g>
			<g>
				<path class="st8" d="M2751.6,428.4c48-6.8,84.6-2.3,109.8,13.5c25.2,15.7,40.1,44.3,44.8,85.7l-109.5,22.3
					c-2.9-17.9-9-30.3-18.3-37.3c-9.3-7-22.2-9.3-38.6-7c-13.5,1.9-23.7,6.4-30.5,13.6c-6.9,7.1-10.3,15.1-10.3,24
					c0,6.5,2.8,11.9,8.4,16.2c5.5,4.6,18.4,7.7,39,9.5c50.7,4.7,87.1,11.5,109,20.5c21.9,9,37.9,21.7,47.9,38.2
					c10,16.5,14.9,35.8,14.9,57.9c0,26-6.8,50.9-20.1,74.8c-13.4,23.8-32,43.1-56,57.8c-24,14.7-54.1,24.6-90.5,29.7
					c-63.9,9-108.2,1.9-132.7-21.2c-24.6-23.1-38.4-54.9-41.6-95.4l110.5-23c2.4,19,7.2,33.1,14.5,42.2c11.9,14.7,29,20.5,51.2,17.4
					c16.6-2.3,29.4-8.3,38.4-18c9-9.7,13.5-20,13.5-31.1c0-10.5-4.2-19.3-12.8-26.4c-8.5-7.1-28.4-12.2-59.4-15.2
					c-50.9-5.2-87.2-16.5-108.9-33.9c-21.8-17.4-32.7-42-32.7-73.7c0-20.8,5.7-41.3,16.9-61.4c11.2-20.1,28.1-37.1,50.6-50.8
					C2681.6,443.5,2712.5,433.9,2751.6,428.4z"/>
			</g>
		</g>
	</g>
</g>
</svg>
