<?xml version="1.0" encoding="utf-8"?>
<!-- Generator: Adobe Illustrator 22.0.0, SVG Export Plug-In . SVG Version: 6.00 Build 0)  -->
<svg version="1.1" id="Calque_1" xmlns="http://www.w3.org/2000/svg" xmlns:xlink="http://www.w3.org/1999/xlink" x="0px" y="0px"
	 viewBox="0 0 772.4 383.3" style="enable-background:new 0 0 772.4 383.3;" xml:space="preserve">
<style type="text/css">
	.st0{enable-background:new    ;}
	.st1{clip-path:url(#SVGID_2_);enable-background:new    ;}
	.st2{fill:#4D237B;}
	.st3{clip-path:url(#SVGID_4_);enable-background:new    ;}
	.st4{fill:#50247F;}
	.st5{fill:#532684;}
	.st6{fill:#9342E9;}
	.st7{clip-path:url(#SVGID_6_);enable-background:new    ;}
	.st8{clip-path:url(#SVGID_8_);enable-background:new    ;}
	.st9{clip-path:url(#SVGID_10_);enable-background:new    ;}
	.st10{clip-path:url(#SVGID_12_);enable-background:new    ;}
	.st11{clip-path:url(#SVGID_14_);enable-background:new    ;}
	.st12{clip-path:url(#SVGID_16_);enable-background:new    ;}
	.st13{clip-path:url(#SVGID_18_);enable-background:new    ;}
	.st14{clip-path:url(#SVGID_20_);enable-background:new    ;}
	.st15{clip-path:url(#SVGID_22_);enable-background:new    ;}
	.st16{clip-path:url(#SVGID_24_);enable-background:new    ;}
	.st17{clip-path:url(#SVGID_26_);enable-background:new    ;}
	.st18{clip-path:url(#SVGID_28_);enable-background:new    ;}
	.st19{clip-path:url(#SVGID_30_);enable-background:new    ;}
	.st20{clip-path:url(#SVGID_32_);enable-background:new    ;}
	.st21{clip-path:url(#SVGID_34_);enable-background:new    ;}
	.st22{clip-path:url(#SVGID_36_);enable-background:new    ;}
	.st23{clip-path:url(#SVGID_38_);enable-background:new    ;}
	.st24{clip-path:url(#SVGID_40_);enable-background:new    ;}
	.st25{clip-path:url(#SVGID_42_);enable-background:new    ;}
	.st26{clip-path:url(#SVGID_44_);enable-background:new    ;}
	.st27{clip-path:url(#SVGID_46_);enable-background:new    ;}
</style>
<g>
	<g>
		<g class="st0">
			<g class="st0">
				<defs>
					<path id="SVGID_1_" class="st0" d="M713.7,83.9l22.8,12.4c-0.7-0.4-1.6-0.3-2.7-0.2L711,83.7C712.2,83.6,713.1,83.6,713.7,83.9
						z"/>
				</defs>
				<clipPath id="SVGID_2_">
					<use xlink:href="#SVGID_1_"  style="overflow:visible;"/>
				</clipPath>
				<g class="st1">
					<path class="st2" d="M733.8,96.1L711,83.7c1.1-0.2,2-0.2,2.7,0.2l22.8,12.4C735.9,96,734.9,96,733.8,96.1"/>
				</g>
			</g>
			<g class="st0">
				<defs>
					<path id="SVGID_3_" class="st0" d="M705.8,214L683,201.6c-0.1-1.3-0.3-2.5-0.3-3.7c0-35,0.2-70,0.1-105c0-4,1.2-5.2,4.4-5.7
						c0.1,0,0.3,0,0.4-0.1c2.9-0.3,5.8-0.7,8.6-1.1c4.8-0.7,9.6-1.4,14.4-2.2c0.1,0,0.2,0,0.3-0.1l22.8,12.4c-0.1,0-0.2,0-0.3,0.1
						c-4.8,0.8-9.6,1.5-14.4,2.2c-2.9,0.4-5.8,0.8-8.6,1.1c-0.2,0-0.3,0-0.4,0.1c-3.2,0.5-4.4,1.7-4.4,5.7c0.1,35,0,70-0.1,105
						C705.5,211.5,705.7,212.6,705.8,214z"/>
				</defs>
				<clipPath id="SVGID_4_">
					<use xlink:href="#SVGID_3_"  style="overflow:visible;"/>
				</clipPath>
				<g class="st3">
					<path class="st4" d="M705.8,214L683,201.6c-0.1-1.3-0.3-2.5-0.3-3.7c0-35,0.2-70,0.1-105c0-0.6,0-1.2,0.1-1.7l22.8,12.4
						c-0.1,0.5-0.1,1.1-0.1,1.7c0.1,35,0,70-0.1,105C705.5,211.5,705.7,212.6,705.8,214"/>
					<path class="st5" d="M705.6,103.5l-22.8-12.4c0.2-1.4,0.6-2.4,1.4-3l22.8,12.4C706.3,101.2,705.8,102.1,705.6,103.5"/>
					<path class="st4" d="M707.1,100.5l-22.8-12.4c0.5-0.4,1.1-0.6,1.8-0.8l22.8,12.4C708.1,99.9,707.5,100.2,707.1,100.5"/>
					<path class="st2" d="M708.9,99.7l-22.8-12.4c0.3-0.1,0.7-0.2,1.1-0.2c0.1,0,0.3,0,0.4-0.1c2.9-0.3,5.8-0.7,8.6-1.1
						c4.8-0.7,9.6-1.4,14.4-2.2c0.1,0,0.2,0,0.3-0.1l22.8,12.4c-0.1,0-0.2,0-0.3,0.1c-4.8,0.8-9.6,1.5-14.4,2.2
						c-2.9,0.4-5.8,0.8-8.6,1.1c-0.2,0-0.3,0-0.4,0.1C709.6,99.6,709.2,99.7,708.9,99.7"/>
				</g>
			</g>
			<g>
				<path class="st6" d="M733.8,96.1c2.4-0.3,3.9,0,3.9,3.3c-0.1,36-0.2,72-0.3,107.9c0,0.6-0.2,1.3-0.4,2.2
					c-10.3,1.5-20.6,2.9-31.3,4.4c-0.1-1.3-0.3-2.5-0.3-3.7c0-35,0.2-70,0.1-105c0-4,1.2-5.2,4.4-5.7c0.1,0,0.3,0,0.4-0.1
					c2.9-0.3,5.8-0.7,8.6-1.1c4.8-0.7,9.6-1.4,14.4-2.2C733.6,96.2,733.7,96.2,733.8,96.1z"/>
			</g>
		</g>
		<g class="st0">
			<g class="st0">
				<defs>
					<path id="SVGID_5_" class="st0" d="M711.3,85.5l-22.8-12.4c-5.2-2.8-8.5-8.6-8.4-15.7c0.2-11.5,8.4-21.1,19.1-22.6
						c0,0,0.1,0,0.1,0c3.7-0.5,7.2,0.2,10.2,1.9L732.3,49c-3-1.6-6.5-2.4-10.2-1.9c0,0-0.1,0-0.1,0c-10.8,1.5-18.9,11.2-19.1,22.6
						C702.7,76.9,706.1,82.7,711.3,85.5z"/>
				</defs>
				<clipPath id="SVGID_6_">
					<use xlink:href="#SVGID_5_"  style="overflow:visible;"/>
				</clipPath>
				<g class="st7">
					<path class="st2" d="M711.3,85.5l-22.8-12.4c-3.7-2-6.4-5.4-7.7-9.8l22.8,12.4C704.9,80.1,707.6,83.5,711.3,85.5"/>
					<path class="st4" d="M703.6,75.7l-22.8-12.4c-0.5-1.8-0.8-3.8-0.8-5.9c0-0.9,0.1-1.8,0.2-2.6l22.8,12.4
						c-0.1,0.9-0.2,1.7-0.2,2.6C702.8,71.9,703.1,73.9,703.6,75.7"/>
					<path class="st5" d="M703.1,67.1l-22.8-12.4c0.8-6.4,4.1-12.1,8.9-15.8L712,51.4C707.2,55.1,703.9,60.7,703.1,67.1"/>
					<path class="st4" d="M712,51.4L689.2,39c2.3-1.8,5-3.1,7.9-3.8l22.8,12.4C717,48.3,714.3,49.6,712,51.4"/>
					<path class="st2" d="M719.9,47.5l-22.8-12.4c0.7-0.2,1.4-0.3,2.1-0.4c0,0,0.1,0,0.1,0c3.7-0.5,7.2,0.2,10.2,1.9L732.3,49
						c-3-1.6-6.5-2.4-10.2-1.9c0,0-0.1,0-0.1,0C721.3,47.2,720.6,47.4,719.9,47.5"/>
				</g>
			</g>
			<g>
				<path class="st6" d="M721.5,87.2c-10.6,1.4-18.8-6.3-18.6-17.5c0.2-11.5,8.4-21.1,19.1-22.6c0,0,0.1,0,0.1,0
					c10.4-1.4,19.5,7,19.4,17.9C741.4,75.4,732.1,85.7,721.5,87.2z"/>
			</g>
		</g>
		<g class="st0">
			<g class="st0">
				<defs>
					<path id="SVGID_7_" class="st0" d="M669.2,105.3l-22.8-12.4c2.4-0.3,4.8-0.7,7.3-1c4.9-0.7,9.8-1.4,15-2.1l22.8,12.4
						c-5.2,0.7-10.1,1.4-15,2.1C674.1,104.7,671.6,105,669.2,105.3z"/>
				</defs>
				<clipPath id="SVGID_8_">
					<use xlink:href="#SVGID_7_"  style="overflow:visible;"/>
				</clipPath>
				<g class="st8">
					<path class="st2" d="M669.2,105.3l-22.8-12.4c2.4-0.3,4.8-0.7,7.3-1c4.9-0.7,9.8-1.4,15-2.1l22.8,12.4
						c-5.2,0.7-10.1,1.4-15,2.1C674.1,104.7,671.6,105,669.2,105.3"/>
				</g>
			</g>
			<g class="st0">
				<defs>
					<path id="SVGID_9_" class="st0" d="M637.1,187.6l-22.8-12.4c2-7.5,3.7-13.7,5.4-19.8c4.9-17.1,9.8-34.2,14.8-51.3
						c2.3-8,4.5-10,12-11.1l22.8,12.4c-7.4,1.1-9.6,3-12,11.1c-5,17.1-9.9,34.2-14.8,51.3C640.7,173.9,639.1,180.1,637.1,187.6z"/>
				</defs>
				<clipPath id="SVGID_10_">
					<use xlink:href="#SVGID_9_"  style="overflow:visible;"/>
				</clipPath>
				<g class="st9">
					<path class="st5" d="M637.1,187.6l-22.8-12.4c2-7.5,3.7-13.7,5.4-19.8c4.9-17.1,9.8-34.2,14.8-51.3c1.3-4.4,2.5-7,4.6-8.6
						l22.8,12.4c-2.1,1.6-3.3,4.2-4.6,8.6c-5,17.1-9.9,34.2-14.8,51.3C640.7,173.9,639.1,180.1,637.1,187.6"/>
					<path class="st4" d="M661.9,107.8l-22.8-12.4c1.1-0.9,2.5-1.4,4.3-1.9l22.8,12.4C664.4,106.4,663,106.9,661.9,107.8"/>
					<path class="st2" d="M666.1,105.9l-22.8-12.4c0.9-0.2,1.9-0.4,3.1-0.6l22.8,12.4C668.1,105.5,667.1,105.7,666.1,105.9"/>
				</g>
			</g>
			<g class="st0">
				<defs>
					<path id="SVGID_11_" class="st0" d="M590.9,102.2l22.8,12.4c-1.1-0.6-2.3-0.8-3.8-0.7c-3.8,0.4-7.5,0.9-11.4,1.4
						c-5.3,0.7-10.7,1.6-16.2,2.4l-22.8-12.4c5.6-0.8,10.9-1.6,16.2-2.4c3.8-0.5,7.6-1,11.4-1.4
						C588.5,101.4,589.8,101.7,590.9,102.2z"/>
				</defs>
				<clipPath id="SVGID_12_">
					<use xlink:href="#SVGID_11_"  style="overflow:visible;"/>
				</clipPath>
				<g class="st10">
					<path class="st2" d="M582.3,117.7l-22.8-12.4c5.6-0.8,10.9-1.6,16.2-2.4c3.8-0.5,7.6-1,11.4-1.4c1.5-0.2,2.7,0.1,3.8,0.7
						l22.8,12.4c-1.1-0.6-2.3-0.8-3.8-0.7c-3.8,0.4-7.5,0.9-11.4,1.4C593.2,116.1,587.8,117,582.3,117.7"/>
				</g>
			</g>
			<g class="st0">
				<defs>
					<path id="SVGID_13_" class="st0" d="M622.8,225.3L600,212.9c-0.8-0.5-1.4-1.3-1.9-2.6c-12.7-34-25.5-67.9-38.3-101.9
						c-0.2-0.7-0.2-1.5-0.4-3l22.8,12.4c0.2,1.5,0.1,2.3,0.4,3c12.8,34,25.6,67.9,38.3,101.9C621.4,223.9,622,224.8,622.8,225.3z"/>
				</defs>
				<clipPath id="SVGID_14_">
					<use xlink:href="#SVGID_13_"  style="overflow:visible;"/>
				</clipPath>
				<g class="st11">
					<path class="st2" d="M622.8,225.3L600,212.9c-0.8-0.5-1.4-1.3-1.9-2.6c-12.7-34-25.5-67.9-38.3-101.9c0-0.1,0-0.1-0.1-0.2
						l22.8,12.4c0,0.1,0,0.1,0.1,0.2c12.8,34,25.6,67.9,38.3,101.9C621.4,223.9,622,224.8,622.8,225.3"/>
					<path class="st4" d="M582.6,120.6l-22.8-12.4c-0.2-0.6-0.1-1.5-0.3-2.8l22.8,12.4C582.4,119.1,582.4,119.9,582.6,120.6"/>
				</g>
			</g>
			<g>
				<path class="st6" d="M669.2,105.3c2.4-0.3,4.8-0.7,7.3-1c4.9-0.7,9.8-1.4,15-2.1c-0.3,1.8-0.3,3.1-0.7,4.2
					c-12.8,37.3-25.6,74.5-38.4,111.8c-0.9,2.7-2.1,3.9-4.6,4.3c-3.8,0.4-7.3,0.9-10.9,1.4c-3.7,0.5-7.4,1.1-11.2,1.7
					c-2.7,0.4-4-0.5-4.9-3c-12.7-34-25.5-67.9-38.3-101.9c-0.2-0.7-0.2-1.5-0.4-3c5.6-0.8,10.9-1.6,16.2-2.4c3.8-0.5,7.6-1,11.4-1.4
					c4.1-0.4,6.6,2.3,7.7,6.4c6,20.9,12,41.7,18,62.6c0.3,1.1,0.7,2.3,1.4,4.7c2-7.5,3.7-13.7,5.4-19.8c4.9-17.1,9.8-34.2,14.8-51.3
					C659.6,108.4,661.8,106.4,669.2,105.3z"/>
			</g>
		</g>
		<g class="st0">
			<g class="st0">
				<defs>
					<path id="SVGID_15_" class="st0" d="M544.5,107.8l22.8,12.4c-0.7-0.4-1.6-0.4-2.7-0.2l-22.8-12.4
						C543,107.5,543.9,107.5,544.5,107.8z"/>
				</defs>
				<clipPath id="SVGID_16_">
					<use xlink:href="#SVGID_15_"  style="overflow:visible;"/>
				</clipPath>
				<g class="st12">
					<path class="st2" d="M564.6,120l-22.8-12.4c1.2-0.2,2.1-0.2,2.7,0.2l22.8,12.4C566.7,119.9,565.7,119.9,564.6,120"/>
				</g>
			</g>
			<g class="st0">
				<defs>
					<path id="SVGID_17_" class="st0" d="M538.2,237.5l-22.8-12.4c-0.8-0.5-1.9-2.7-1.9-4.1c-0.1-20.4,0-40.9,0-61.4
						c0-14.1,0.2-28.2,0-42.2c0-4,0.8-6,4.6-6.5c0.2,0,0.4-0.1,0.6-0.1c3.3-0.3,6.6-0.7,10-1.2c4.4-0.6,8.8-1.3,13.1-2l22.8,12.4
						c-4.4,0.7-8.8,1.4-13.1,2c-3.3,0.5-6.7,0.9-10,1.2c-0.2,0-0.4,0-0.6,0.1c-3.8,0.5-4.6,2.5-4.6,6.5c0.2,14,0,28.1,0,42.2
						c0,20.5-0.1,40.9,0,61.4C536.3,234.8,537.4,237,538.2,237.5z"/>
				</defs>
				<clipPath id="SVGID_18_">
					<use xlink:href="#SVGID_17_"  style="overflow:visible;"/>
				</clipPath>
				<g class="st13">
					<path class="st2" d="M538.2,237.5l-22.8-12.4c-0.6-0.3-1.4-1.7-1.7-2.9l22.8,12.4C536.8,235.8,537.6,237.1,538.2,237.5"/>
					<path class="st4" d="M536.4,234.6l-22.8-12.4c-0.1-0.4-0.2-0.8-0.2-1.2c-0.1-20.4,0-40.9,0-61.4c0-14.1,0.2-28.2,0-42.2
						c0-0.8,0-1.5,0.1-2.2l22.8,12.4c-0.1,0.6-0.1,1.4-0.1,2.2c0.2,14,0,28.1,0,42.2c0,20.5-0.1,40.9,0,61.4
						C536.2,233.7,536.3,234.1,536.4,234.6"/>
					<path class="st5" d="M536.4,127.6l-22.8-12.4c0.2-1.5,0.6-2.6,1.6-3.3l22.8,12.4C537,125,536.6,126.1,536.4,127.6"/>
					<path class="st4" d="M538,124.3l-22.8-12.4c0.5-0.4,1.1-0.7,1.9-0.9l22.8,12.4C539.1,123.6,538.5,123.9,538,124.3"/>
					<path class="st2" d="M539.9,123.5l-22.8-12.4c0.3-0.1,0.6-0.1,1-0.2c0.2,0,0.4-0.1,0.6-0.1c3.3-0.3,6.6-0.7,10-1.2
						c4.4-0.6,8.8-1.3,13.1-2l22.8,12.4c-4.4,0.7-8.8,1.4-13.1,2c-3.3,0.5-6.7,0.9-10,1.2c-0.2,0-0.4,0-0.6,0.1
						C540.5,123.3,540.2,123.4,539.9,123.5"/>
				</g>
			</g>
			<g>
				<path class="st6" d="M564.6,120c2.5-0.4,3.9,0.1,3.9,3.2c-0.1,36-0.2,72-0.3,108c0,0.6-0.3,1.2-0.5,2.5c-4,0.6-8,1.1-12,1.7
					c-5.7,0.8-11.4,1.6-17.2,2.2c-0.8,0.1-2.2-2.6-2.3-4.2c-0.1-20.4,0-40.9,0-61.4c0-14.1,0.2-28.2,0-42.2c0-4,0.8-6,4.6-6.5
					c0.2,0,0.4-0.1,0.6-0.1c3.3-0.3,6.6-0.7,10-1.2C555.8,121.4,560.2,120.7,564.6,120z"/>
			</g>
		</g>
		<g class="st0">
			<g class="st0">
				<defs>
					<path id="SVGID_19_" class="st0" d="M540.4,60.3l22.8,12.4c-3-1.6-6.7-2.3-10.6-1.8l-22.8-12.4C533.7,58,537.3,58.7,540.4,60.3
						z"/>
				</defs>
				<clipPath id="SVGID_20_">
					<use xlink:href="#SVGID_19_"  style="overflow:visible;"/>
				</clipPath>
				<g class="st14">
					<path class="st2" d="M552.6,70.9l-22.8-12.4c3.9-0.6,7.5,0.1,10.6,1.8l22.8,12.4C560.1,71.1,556.5,70.4,552.6,70.9"/>
				</g>
			</g>
			<g class="st0">
				<defs>
					<path id="SVGID_21_" class="st0" d="M542.1,109.2l-22.8-12.4c-5.1-2.8-8.4-8.3-8.5-15.3c-0.1-11.3,8.3-21.5,19-23l22.8,12.4
						c-10.7,1.5-19.1,11.7-19,23C533.7,100.9,537,106.5,542.1,109.2z"/>
				</defs>
				<clipPath id="SVGID_22_">
					<use xlink:href="#SVGID_21_"  style="overflow:visible;"/>
				</clipPath>
				<g class="st15">
					<path class="st2" d="M542.1,109.2l-22.8-12.4c-3.7-2-6.4-5.4-7.7-9.8l22.8,12.4C535.7,103.8,538.4,107.2,542.1,109.2"/>
					<path class="st4" d="M534.4,99.4L511.6,87c-0.5-1.7-0.8-3.5-0.8-5.5c0-1,0-2,0.2-3l22.8,12.4c-0.1,1-0.2,2-0.2,3
						C533.7,95.9,533.9,97.7,534.4,99.4"/>
					<path class="st5" d="M533.8,90.9L511,78.5c0.8-6.3,4.2-12,9-15.7l22.8,12.4C538,78.8,534.6,84.6,533.8,90.9"/>
					<path class="st4" d="M542.8,75.1L520,62.7c2.3-1.8,5-3.1,7.8-3.8l22.8,12.4C547.8,72,545.2,73.3,542.8,75.1"/>
					<path class="st2" d="M550.6,71.3l-22.8-12.4c0.6-0.2,1.3-0.3,2-0.4l22.8,12.4C551.9,71,551.3,71.2,550.6,71.3"/>
				</g>
			</g>
			<g>
				<path class="st6" d="M552.6,70.9c10.7-1.5,19.2,6.2,19.2,17.3c0,11.1-8.5,21.2-19.3,22.7c-10.6,1.5-18.8-6-18.9-17.1
					C533.5,82.7,541.9,72.5,552.6,70.9z"/>
			</g>
		</g>
		<g class="st0">
			<g class="st0">
				<defs>
					<path id="SVGID_23_" class="st0" d="M421.1,224.6l-22.8-12.4c0.6,0.3,1.3,0.4,2.4,0.2c0.1,0,0.2,0,0.3,0
						c1.3-0.2,2.6-0.4,3.9-0.6c1.8-0.2,3.5-0.5,5.3-0.7c1.7-0.2,3.5-0.4,5.2-0.7c2.3-0.3,4.7-0.7,7-1.2
						c15.4-3.1,27.3-11.9,33.8-28.6l22.8,12.4c-6.5,16.6-18.4,25.4-33.8,28.6c-2.3,0.5-4.7,0.8-7,1.2c-1.7,0.2-3.5,0.5-5.2,0.7
						c-1.8,0.2-3.5,0.4-5.3,0.7c-1.3,0.2-2.6,0.4-3.9,0.6c-0.1,0-0.2,0-0.3,0C422.5,225,421.7,224.9,421.1,224.6z"/>
				</defs>
				<clipPath id="SVGID_24_">
					<use xlink:href="#SVGID_23_"  style="overflow:visible;"/>
				</clipPath>
				<g class="st16">
					<path class="st2" d="M421.1,224.6l-22.8-12.4c0.6,0.3,1.3,0.4,2.4,0.2c0.1,0,0.2,0,0.3,0c1.3-0.2,2.6-0.4,3.9-0.6
						c1.8-0.2,3.5-0.5,5.3-0.7c1.7-0.2,3.5-0.4,5.2-0.7c2.3-0.3,4.7-0.7,7-1.2c0.8-0.2,1.6-0.3,2.4-0.5l22.8,12.4
						c-0.8,0.2-1.6,0.4-2.4,0.5c-2.3,0.5-4.7,0.8-7,1.2c-1.7,0.2-3.5,0.5-5.2,0.7c-1.8,0.2-3.5,0.4-5.3,0.7
						c-1.3,0.2-2.6,0.4-3.9,0.6c-0.1,0-0.2,0-0.3,0C422.5,225,421.7,224.9,421.1,224.6"/>
					<path class="st4" d="M447.5,221.1l-22.8-12.4c6.3-1.6,12-4.1,16.9-7.9l22.8,12.4C459.5,217,453.8,219.6,447.5,221.1"/>
					<path class="st5" d="M464.4,213.2l-22.8-12.4c6.2-4.7,11.1-11.3,14.6-20.1l22.8,12.4C475.5,201.9,470.6,208.5,464.4,213.2"/>
				</g>
			</g>
			<g class="st0">
				<defs>
					<path id="SVGID_25_" class="st0" d="M442.8,111.2l22.8,12.4c7.6,4.2,13.1,11.7,16,22.7c4,15.1,3.6,30.8-2.7,46.8l-22.8-12.4
						c6.3-16,6.7-31.7,2.7-46.8C455.9,122.9,450.4,115.4,442.8,111.2z"/>
				</defs>
				<clipPath id="SVGID_26_">
					<use xlink:href="#SVGID_25_"  style="overflow:visible;"/>
				</clipPath>
				<g class="st17">
					<path class="st5" d="M479,193.1l-22.8-12.4c2.4-6.2,4-12.3,4.7-18.3l22.8,12.4C482.9,180.8,481.4,187,479,193.1"/>
					<path class="st4" d="M483.7,174.8l-22.8-12.4c1.2-9.7,0.4-19.2-2.1-28.5c-0.1-0.4-0.2-0.7-0.3-1.1l22.8,12.4
						c0.1,0.4,0.2,0.7,0.3,1.1C484.1,155.6,484.9,165.1,483.7,174.8"/>
					<path class="st2" d="M481.3,145.2l-22.8-12.4c-3-10.4-8.3-17.6-15.7-21.6l22.8,12.4C473,127.6,478.3,134.8,481.3,145.2"/>
				</g>
			</g>
			<g class="st0">
				<defs>
					<path id="SVGID_27_" class="st0" d="M464.4,85.7l22.8,12.4c-11.5-6.3-25.4-8.7-40.4-6.9L424,78.8C439,77,452.8,79.4,464.4,85.7
						z"/>
				</defs>
				<clipPath id="SVGID_28_">
					<use xlink:href="#SVGID_27_"  style="overflow:visible;"/>
				</clipPath>
				<g class="st18">
					<path class="st2" d="M446.8,91.2L424,78.8c15-1.7,28.8,0.6,40.4,6.9l22.8,12.4C475.6,91.8,461.8,89.4,446.8,91.2"/>
				</g>
			</g>
			<g class="st0">
				<defs>
					<path id="SVGID_29_" class="st0" d="M385.3,259.3l-22.8-12.4c0-7,0-13.2,0-19.4c0.1-45,0.2-90,0.1-134.9c0-4.5,1.3-5.7,5-6.2
						c4.5-0.6,8.8-1.2,13-1.8c3.7-0.5,7.3-1,11-1.6c3.8-0.5,7.6-1.1,11.4-1.6c7-1,13.9-1.9,20.9-2.7l22.8,12.4
						c-7,0.8-13.9,1.8-20.9,2.7c-3.8,0.5-7.6,1.1-11.4,1.6c-3.7,0.5-7.3,1.1-11,1.6c-4.3,0.6-8.5,1.2-13,1.8c-3.7,0.5-5,1.6-5,6.2
						c0.1,44.9-0.1,89.9-0.1,134.9C385.4,246.2,385.3,252.4,385.3,259.3z"/>
				</defs>
				<clipPath id="SVGID_30_">
					<use xlink:href="#SVGID_29_"  style="overflow:visible;"/>
				</clipPath>
				<g class="st19">
					<path class="st4" d="M385.3,259.3l-22.8-12.4c0-7,0-13.2,0-19.4c0.1-45,0.2-90,0.1-134.9c0-0.7,0-1.4,0.1-2l22.8,12.4
						c-0.1,0.6-0.1,1.2-0.1,2c0.1,44.9-0.1,89.9-0.1,134.9C385.4,246.2,385.3,252.4,385.3,259.3"/>
					<path class="st5" d="M385.6,103.1l-22.8-12.4c0.2-1.5,0.7-2.5,1.5-3.1l22.8,12.4C386.3,100.6,385.8,101.6,385.6,103.1"/>
					<path class="st4" d="M387.1,100l-22.8-12.4c0.5-0.4,1.1-0.7,1.9-0.9L389,99.1C388.2,99.3,387.6,99.6,387.1,100"/>
					<path class="st2" d="M389,99.1l-22.8-12.4c0.4-0.1,0.9-0.2,1.4-0.3c4.5-0.6,8.8-1.2,13-1.8c3.7-0.5,7.3-1,11-1.6
						c3.8-0.5,7.6-1.1,11.4-1.6c7-1,13.9-1.9,20.9-2.7l22.8,12.4c-7,0.8-13.9,1.8-20.9,2.7c-3.8,0.5-7.6,1.1-11.4,1.6
						c-3.7,0.5-7.3,1.1-11,1.6c-4.3,0.6-8.5,1.2-13,1.8C390,98.9,389.5,99,389,99.1"/>
				</g>
			</g>
			<g>
				<path class="st6" d="M446.8,91.2c35.5-4.2,64.9,15,71.7,54.4c5.7,33.2-8.2,69.1-35,89c-11.8,8.8-24.7,14.2-38.2,16.3
					c-7.1,1.1-14.2,2.1-21.3,3.1c-11.1,1.6-22.3,3.1-33.4,4.6c-1.7,0.2-3.4,0.5-5.2,0.7c0-7,0-13.2,0-19.4c0.1-45,0.2-90,0.1-134.9
					c0-4.5,1.3-5.7,5-6.2c4.5-0.6,8.8-1.2,13-1.8c3.7-0.5,7.3-1,11-1.6c3.8-0.5,7.6-1.1,11.4-1.6C432.9,92.9,439.9,92,446.8,91.2z
					 M479,193.1c6.3-16,6.7-31.7,2.7-46.8c-5.3-20-19-28.7-39-26c-0.4,0.1-0.8,0.1-1.1,0.2c-1.7,0.2-3.4,0.5-5,0.7
					c-1.5,0.2-3,0.5-4.6,0.7c-2.4,0.3-4.7,0.6-7.1,0.9c-0.2,0-0.3,0-0.5,0.1c-3.3,0.5-4.3,2.2-4.3,5.9c0.1,15.3,0,30.7,0,46.1
					c0,15.4,0,30.7-0.1,46.1c0,3.1,0.7,4.4,3.7,4c0.1,0,0.2,0,0.3,0c1.3-0.2,2.6-0.4,3.9-0.6c1.8-0.2,3.5-0.5,5.3-0.7
					c1.7-0.2,3.5-0.4,5.2-0.7c2.3-0.3,4.7-0.7,7-1.2C460.6,218.6,472.4,209.8,479,193.1"/>
			</g>
		</g>
		<g class="st0">
			<g class="st0">
				<defs>
					<path id="SVGID_31_" class="st0" d="M180.5,275.9l-22.8-12.4c1.1,0.6,2.6,0.6,4.9,0.3c10.4-1.6,20.5-2.8,30.5-4.9
						c13.8-2.8,25.6-10.5,34.3-23.6l22.8,12.4c-8.7,13-20.5,20.7-34.3,23.6c-10.1,2.1-20.1,3.3-30.5,4.9
						C183.1,276.5,181.6,276.5,180.5,275.9z"/>
				</defs>
				<clipPath id="SVGID_32_">
					<use xlink:href="#SVGID_31_"  style="overflow:visible;"/>
				</clipPath>
				<g class="st20">
					<path class="st2" d="M180.5,275.9l-22.8-12.4c1.1,0.6,2.6,0.6,4.9,0.3c10.4-1.6,20.5-2.8,30.5-4.9c0.7-0.2,1.5-0.3,2.2-0.5
						l22.8,12.4c-0.7,0.2-1.5,0.3-2.2,0.5c-10.1,2.1-20.1,3.3-30.5,4.9C183.1,276.5,181.6,276.5,180.5,275.9"/>
					<path class="st4" d="M218.1,270.8l-22.8-12.4c7-1.7,13.5-4.8,19.3-9.2l22.8,12.4C231.6,266,225.1,269.1,218.1,270.8"/>
					<path class="st5" d="M237.4,261.6l-22.8-12.4c4.8-3.7,9.1-8.3,12.8-13.8l22.8,12.4C246.4,253.3,242.1,258,237.4,261.6"/>
				</g>
			</g>
			<g class="st0">
				<defs>
					<path id="SVGID_33_" class="st0" d="M133.4,339.3l-22.8-12.4c20.9,11.3,45.6,16.2,72,12.5l22.8,12.4
						C179,355.5,154.3,350.6,133.4,339.3z"/>
				</defs>
				<clipPath id="SVGID_34_">
					<use xlink:href="#SVGID_33_"  style="overflow:visible;"/>
				</clipPath>
				<g class="st21">
					<path class="st2" d="M133.4,339.3l-22.8-12.4c20.9,11.3,45.6,16.2,72,12.5l22.8,12.4C179,355.5,154.3,350.6,133.4,339.3"/>
				</g>
			</g>
			<g class="st0">
				<defs>
					<path id="SVGID_35_" class="st0" d="M217.2,129.5l22.8,12.4c9.1,5,15.9,13.6,20.3,25.8c9.6,26.7,7.6,53.6-10.2,80.2l-22.8-12.4
						c17.7-26.5,19.8-53.5,10.2-80.2C233.1,143,226.3,134.4,217.2,129.5z"/>
				</defs>
				<clipPath id="SVGID_36_">
					<use xlink:href="#SVGID_35_"  style="overflow:visible;"/>
				</clipPath>
				<g class="st22">
					<path class="st5" d="M250.2,247.8l-22.8-12.4c8.7-13,13.6-26.1,15.2-39.2l22.8,12.4C263.8,221.7,258.8,234.8,250.2,247.8"/>
					<path class="st4" d="M265.4,208.6l-22.8-12.4c1.4-11.5,0.3-23.1-3-34.6l22.8,12.4C265.7,185.5,266.8,197.1,265.4,208.6"/>
					<path class="st2" d="M262.4,174l-22.8-12.4c-0.6-2.1-1.3-4.3-2.1-6.4c-4.4-12.2-11.2-20.8-20.3-25.8l22.8,12.4
						c9.1,5,15.9,13.6,20.3,25.8C261.1,169.7,261.8,171.9,262.4,174"/>
				</g>
			</g>
			<g class="st0">
				<defs>
					<path id="SVGID_37_" class="st0" d="M256.2,57.7L279,70.1c38.2,20.8,63.6,63.6,63.4,116.1c-0.4,81-61.5,155-136.9,165.6
						l-22.8-12.4c75.4-10.6,136.5-84.6,136.9-165.6C319.8,121.3,294.4,78.5,256.2,57.7z"/>
				</defs>
				<clipPath id="SVGID_38_">
					<use xlink:href="#SVGID_37_"  style="overflow:visible;"/>
				</clipPath>
				<g class="st23">
					<path class="st2" d="M205.4,351.8l-22.8-12.4c4.6-0.7,9.2-1.5,13.7-2.7l22.8,12.4C214.7,350.3,210.1,351.1,205.4,351.8"/>
					<path class="st4" d="M219.2,349.1l-22.8-12.4c20-5,38.8-14.3,55.3-27.1l22.8,12.4C257.9,334.8,239.2,344.2,219.2,349.1"/>
					<path class="st5" d="M274.5,322.1l-22.8-12.4c35.5-27.3,60.7-69.7,66.6-116.1l22.8,12.4C335.2,252.4,309.9,294.8,274.5,322.1"
						/>
					<path class="st4" d="M341.1,205.9l-22.8-12.4c0.8-6.5,1.3-13.1,1.3-19.7c0.1-15-1.9-29.1-5.7-42.2l22.8,12.4
						c3.8,13.1,5.8,27.3,5.7,42.2C342.3,192.9,341.9,199.4,341.1,205.9"/>
					<path class="st2" d="M336.6,144l-22.8-12.4c-9.5-32.9-30.3-59-57.7-73.9L279,70.1C306.3,85,327.1,111.1,336.6,144"/>
				</g>
			</g>
			<g class="st0">
				<defs>
					<path id="SVGID_39_" class="st0" d="M227,113.3l22.8,12.4c-9-4.9-19.8-7.2-31.9-6.5l-22.8-12.4
						C207.3,106.1,218,108.4,227,113.3z"/>
				</defs>
				<clipPath id="SVGID_40_">
					<use xlink:href="#SVGID_39_"  style="overflow:visible;"/>
				</clipPath>
				<g class="st24">
					<path class="st2" d="M217.9,119.2l-22.8-12.4c12.1-0.7,22.8,1.6,31.9,6.5l22.8,12.4C240.8,120.8,230,118.5,217.9,119.2"/>
				</g>
			</g>
			<g class="st0">
				<defs>
					<path id="SVGID_41_" class="st0" d="M163.8,295.8L141,283.4c-1.8-1-2.3-3.4-2.2-8.1c0-25.3,0.1-50.6,0.1-75.9
						c0-25.1,0.1-50.3,0.1-75.4c0-8.7,1.2-10.5,8.6-11.6c0.3,0,0.6-0.1,0.9-0.1c15.6-2,31.2-4.7,46.6-5.5l22.8,12.4
						c-15.5,0.9-31.1,3.6-46.6,5.5c-0.3,0-0.6,0.1-0.9,0.1c-7.4,1-8.5,2.9-8.6,11.6c0,25.1-0.1,50.3-0.1,75.4
						c0,25.3-0.1,50.6-0.1,75.9C161.6,292.4,162,294.8,163.8,295.8z"/>
				</defs>
				<clipPath id="SVGID_42_">
					<use xlink:href="#SVGID_41_"  style="overflow:visible;"/>
				</clipPath>
				<g class="st25">
					<path class="st2" d="M163.8,295.8L141,283.4c-0.9-0.5-1.4-1.2-1.8-2.4l22.8,12.4C162.4,294.5,163,295.3,163.8,295.8"/>
					<path class="st4" d="M162.1,293.4L139.3,281c-0.4-1.3-0.5-3.2-0.5-5.7c0-25.3,0.1-50.6,0.1-75.9c0-25.1,0.1-50.3,0.1-75.4
						c0-1.9,0.1-3.4,0.2-4.7l22.8,12.4c-0.2,1.3-0.2,2.9-0.2,4.7c0,25.1-0.1,50.3-0.1,75.4c0,25.3-0.1,50.6-0.1,75.9
						C161.6,290.2,161.7,292,162.1,293.4"/>
					<path class="st5" d="M162.1,131.7l-22.8-12.4c0.3-2.4,0.9-3.9,2.3-4.9l22.8,12.4C163,127.8,162.4,129.3,162.1,131.7"/>
					<path class="st4" d="M164.3,126.8l-22.8-12.4c0.8-0.6,1.8-1,3.2-1.4l22.8,12.4C166.2,125.7,165.1,126.1,164.3,126.8"/>
					<path class="st2" d="M167.5,125.4L144.8,113c0.8-0.2,1.8-0.4,2.9-0.5c0.3,0,0.6-0.1,0.9-0.1c15.6-2,31.2-4.7,46.6-5.5
						l22.8,12.4c-15.5,0.9-31.1,3.6-46.6,5.5c-0.3,0-0.6,0.1-0.9,0.1C169.3,125,168.4,125.2,167.5,125.4"/>
				</g>
			</g>
			<g>
				<path class="st6" d="M206.5,39.9C291,28.1,359.1,92.6,358.9,184.2c-0.2,90.6-69.3,173.7-154.3,185.6
					c-83,11.5-150.9-53.4-150.7-143.9C54.1,135.1,122.5,51.7,206.5,39.9z M205.4,351.8c75.4-10.6,136.5-84.6,136.9-165.6
					c0.4-81-60.2-138.8-134.8-128.6c-76,10.7-137,84.7-137.3,166.2C69.9,304.6,130.6,362.1,205.4,351.8"/>
			</g>
			<g>
				<path class="st6" d="M217.9,119.2c30-1.7,51.4,14.5,60,44.9c7,24.6,7,49.9-5.1,75.8c-13.5,28.9-34.1,46.3-62.9,50.4
					c-1.6,0.2-2.7,0.4-3.8,0.5c-11.9,1.7-23.8,3.6-35.7,5.3c-7.5,1.1-8.8-0.3-8.8-8.4c0-25.3,0.1-50.6,0.1-75.9
					c0-25.1,0.1-50.3,0.1-75.4c0-8.7,1.2-10.5,8.6-11.6c0.3,0,0.6-0.1,0.9-0.1C186.8,122.8,202.4,120.1,217.9,119.2z M250.2,247.8
					c17.7-26.5,19.8-53.5,10.2-80.2c-7.8-21.6-23.2-32.1-45.7-30.6c-5,0.3-10.1,1-15.2,1.7c-1.4,0.2-2.9,0.4-4.3,0.6
					c-1.2,0.2-2.4,0.3-3.6,0.5c-1.5,0.2-3,0.4-4.5,0.6c-0.2,0-0.5,0.1-0.7,0.1c-6.9,1-7.7,2.2-7.8,10.2c-0.1,19.5-0.1,39-0.1,58.5
					c0,20-0.1,40-0.1,60c0,6.4,1.4,7.8,7,7.1c10.4-1.6,20.5-2.8,30.5-4.9C229.7,268.5,241.5,260.8,250.2,247.8"/>
			</g>
			<g class="st0">
				<defs>
					<path id="SVGID_43_" class="st0" d="M265,41.5l22.8,12.4c-23.5-12.8-51.4-18.2-81.3-14l-22.8-12.4
						C213.6,23.3,241.5,28.7,265,41.5z"/>
				</defs>
				<clipPath id="SVGID_44_">
					<use xlink:href="#SVGID_43_"  style="overflow:visible;"/>
				</clipPath>
				<g class="st26">
					<path class="st2" d="M206.5,39.9l-22.8-12.4c29.9-4.2,57.8,1.2,81.3,14l22.8,12.4C264.3,41.1,236.4,35.7,206.5,39.9"/>
				</g>
			</g>
			<g class="st0">
				<defs>
					<path id="SVGID_45_" class="st0" d="M125.1,356l-22.8-12.4c-42.8-23.3-71.3-71.3-71.2-130c0.2-90.9,68.6-174.3,152.6-186.1
						l22.8,12.4C122.5,51.7,54.1,135.1,53.9,226C53.7,284.7,82.3,332.7,125.1,356z"/>
				</defs>
				<clipPath id="SVGID_46_">
					<use xlink:href="#SVGID_45_"  style="overflow:visible;"/>
				</clipPath>
				<g class="st27">
					<path class="st2" d="M125.1,356l-22.8-12.4c-30.7-16.7-54.1-46.1-64.8-83.1l22.8,12.4C71,309.9,94.4,339.3,125.1,356"/>
					<path class="st4" d="M60.3,272.9l-22.8-12.4c-4.2-14.6-6.5-30.3-6.4-46.9c0-7.6,0.5-15.1,1.4-22.6l22.8,12.4
						c-0.9,7.5-1.4,15-1.4,22.6C53.8,242.6,56.1,258.3,60.3,272.9"/>
					<path class="st5" d="M55.3,203.4L32.5,191c6.6-52.2,35-100,74.7-130.5L130,72.8C90.3,103.4,61.9,151.2,55.3,203.4"/>
					<path class="st4" d="M130,72.8l-22.8-12.4c18.4-14.1,39.1-24.5,61.3-30l22.8,12.4C169.2,48.3,148.4,58.7,130,72.8"/>
					<path class="st2" d="M191.4,42.8l-22.8-12.4c5-1.2,10-2.2,15.1-2.9l22.8,12.4C201.4,40.6,196.3,41.6,191.4,42.8"/>
				</g>
			</g>
		</g>
	</g>
</g>
</svg>
