<?xml version="1.0" encoding="utf-8"?>
<!-- Generator: Adobe Illustrator 22.0.0, SVG Export Plug-In . SVG Version: 6.00 Build 0)  -->
<svg version="1.1" id="Calque_1" xmlns="http://www.w3.org/2000/svg" xmlns:xlink="http://www.w3.org/1999/xlink" x="0px" y="0px"
	 viewBox="0 0 772.4 343.3" style="enable-background:new 0 0 772.4 343.3;" xml:space="preserve">
<style type="text/css">
	.st0{fill:url(#SVGID_1_);stroke:#9543EC;stroke-miterlimit:10;}
</style>
<linearGradient id="SVGID_1_" gradientUnits="userSpaceOnUse" x1="250.4504" y1="403.834" x2="383.2794" y2="189.437">
	<stop  offset="0" style="stop-color:#9543EC"/>
	<stop  offset="1" style="stop-color:#A83BF0"/>
</linearGradient>
<path class="st0" d="M0,171.4C0,76.8,76.8-0.1,171.3,0c94.9,0.1,171.5,77.2,171.4,172.6C342.6,267,265,343.5,169.4,343.3
	C76.4,343.2,0,265.6,0,171.4z M18.4,171.5c-0.2,84.1,68.2,152.9,152.2,153.1c84.6,0.2,153.3-68,153.5-152.4
	C324.4,88,256.2,19,172.3,18.6C87.3,18.2,18.6,86.5,18.4,171.5z M372.6,254.7c0-7.2,0-13.7,0-20.2c0-46.8,0.1-93.6-0.1-140.5
	c0-4.9,1.5-5.8,5.9-5.7c21,0.2,42-0.2,63,0.2c39.9,0.9,73,25.1,80.6,67.1c6.5,35.4-9.1,70.8-39.1,87.5
	c-13.2,7.4-27.7,11.2-42.9,11.4c-20.5,0.2-41,0.1-61.5,0.1C376.5,254.7,374.6,254.7,372.6,254.7z M411.4,171.7c0,16,0.1,32-0.1,48
	c0,3.3,0.8,4.8,4.5,4.7c8-0.2,16,0.3,24-0.1c17.3-1,30.6-8.4,37.9-24.8c7-15.7,7.4-32.1,2.9-48.3c-6-21.6-21.4-32.7-43.9-32.8
	c-6.7,0-13.3,0.2-20-0.1c-4.2-0.2-5.4,1.4-5.4,5.5C411.5,139.7,411.4,155.7,411.4,171.7z M594,139.2c14.4,37.2,28.9,74.4,43.2,111.7
	c1.1,2.8,2.5,3.9,5.5,3.8c8.2-0.2,16.3-0.2,24.5,0c3,0.1,4.4-1.1,5.4-3.8c14.2-36.9,28.6-73.9,42.9-110.8c0.4-1.1,0.5-2.4,0.8-4.3
	c-8.7,0-16.9,0-25,0c-8.4,0-10.8,1.8-13.4,9.8c-5.5,17.1-11,34.2-16.5,51.3c-2,6.2-3.8,12.4-6.1,19.9c-0.8-2.6-1.2-3.8-1.6-5.1
	c-6.8-22.6-13.6-45.2-20.4-67.8c-1.3-4.4-4.1-7.6-8.7-7.8c-10.1-0.3-20.2-0.1-31-0.1C593.8,137.6,593.7,138.5,594,139.2z
	 M768.2,252.1c0-37.4,0-74.9,0.1-112.3c0-3.6-1.9-4-4.7-4c-8.7,0.1-17.3,0.3-26,0.1c-4-0.1-5.5,0.9-5.4,5.3
	c0.2,36.4,0.1,72.9,0.1,109.4c0,1.3,0.3,2.5,0.4,3.9c11.9,0,23.5,0,35.1,0C767.9,253.4,768.2,252.7,768.2,252.1z M578.1,252.1
	c0-37.5,0-74.9,0.1-112.4c0-3.2-1.6-3.9-4.4-3.9c-8.7,0.1-17.3,0.3-26-0.1c-4.8-0.2-5.9,1.7-5.8,6.1c0.2,14.6,0.1,29.3,0.1,43.9
	c0,21.3-0.1,42.6,0.1,63.9c0,1.6,1.6,4.7,2.5,4.7c10.9,0.3,21.9,0.2,32.8,0.2C577.8,253.4,578.1,252.7,578.1,252.1z M772.4,104.5
	c0.1-11.4-10.1-21.4-21.8-21.5c-12.2-0.1-21.4,8.8-21.6,20.8c-0.2,11.6,9.1,20.8,20.9,20.9C761.9,124.7,772.3,115.4,772.4,104.5z
	 M581.8,103.8c-0.1-11.6-9.7-20.9-21.7-20.8c-12,0-21.4,9.4-21.3,21.1c0.2,11.6,9.5,20.6,21.3,20.5
	C572.3,124.6,581.9,115.4,581.8,103.8z M121.2,172.5c0-26.2,0-52.3,0-78.5c0-9.4,1.4-10.9,10.6-10.8c17.5,0.2,35-0.3,52.4,1.1
	c33.7,2.7,57.8,22.6,67.6,55.5c7.9,26.6,7.9,53-5.6,78.1c-15.2,28.2-38.5,43.4-71,43.2c-14.7-0.1-29.3,0.3-44,0.3
	c-8.4,0-9.9-1.6-9.9-10C121.2,225.1,121.2,198.8,121.2,172.5z M140,172.2c0,20.8,0,41.6,0,62.4c0,6.8,1.7,8.4,8.2,8.4
	c11.3-0.1,22.7,0.1,33.9-0.6c15.5-0.9,28.7-7.2,38.5-19.5c19.9-25,22.1-52.8,11.2-82c-8.8-23.7-26.2-36.8-51.5-38.6
	c-10.3-0.7-20.6-0.4-31-0.5c-8.4-0.1-9.4,0.9-9.5,9.4C140,131.6,140,151.9,140,172.2z"/>
</svg>
