<?xml version="1.0" encoding="utf-8"?>
<!-- Generator: Adobe Illustrator 22.0.0, SVG Export Plug-In . SVG Version: 6.00 Build 0)  -->
<svg version="1.1" id="Layer_1" xmlns="http://www.w3.org/2000/svg" xmlns:xlink="http://www.w3.org/1999/xlink" x="0px" y="0px"
	 viewBox="0 0 256 256" style="enable-background:new 0 0 256 256;" xml:space="preserve">
<style type="text/css">
	.st0{fill:url(#SVGID_1_);}
	.st1{fill:#FFFFFF;}
</style>
<title>elementor-gradient-256px</title>
<linearGradient id="SVGID_1_" gradientUnits="userSpaceOnUse" x1="3.7363" y1="5.7363" x2="252.2637" y2="254.2637" gradientTransform="matrix(1 0 0 -1 0 258)">
	<stop  offset="0" style="stop-color:#2E2975"/>
	<stop  offset="1" style="stop-color:#F2295B"/>
</linearGradient>
<path class="st0" d="M243.2,0H12.8C5.7,0,0,5.7,0,12.8v230.5c0,7,5.7,12.8,12.8,12.8h230.5c7,0,12.8-5.7,12.8-12.8V12.8
	C256,5.7,250.3,0,243.2,0z M93.9,184.9H71.1V71.1h22.8V184.9z M184.9,184.9h-68.3v-22.8h68.3V184.9z M184.9,139.4h-68.3v-22.8h68.3
	V139.4z M184.9,93.9h-68.3V71.1h68.3V93.9z"/>
<rect x="116.6" y="71.1" class="st1" width="68.3" height="22.8"/>
<rect x="116.6" y="116.6" class="st1" width="68.3" height="22.8"/>
<rect x="116.6" y="162.1" class="st1" width="68.3" height="22.8"/>
<rect x="71.1" y="71.1" class="st1" width="22.8" height="113.8"/>
</svg>
