<svg id="Calque_1" xmlns="http://www.w3.org/2000/svg" xmlns:xlink="http://www.w3.org/1999/xlink" viewBox="0 0 273 119" style="enable-background:new 0 0 273 119"><style>.st0{enable-background:new}.st1{clip-path:url(#SVGID_2_);enable-background:new}.st2{fill:#281e00}.st3{fill:#2a1f00}.st4{fill:#2b2000}.st5{fill:#271d00}.st6{fill:#261c00}.st7{fill:#241b00}.st8{fill:#231a00}.st9{fill:#221900}.st10{clip-path:url(#SVGID_4_);enable-background:new}.st11{fill:#2e2200}.st12{clip-path:url(#SVGID_6_);enable-background:new}.st13{clip-path:url(#SVGID_8_);enable-background:new}.st14{clip-path:url(#SVGID_10_);enable-background:new}.st15{clip-path:url(#SVGID_12_);enable-background:new}.st16{clip-path:url(#SVGID_14_);enable-background:new}.st17{fill:#392a00}.st18{fill:#2d2100}.st19{clip-path:url(#SVGID_16_);enable-background:new}.st20{clip-path:url(#SVGID_18_);enable-background:new}.st21{fill:#211900}.st22{clip-path:url(#SVGID_20_);enable-background:new}.st23{clip-path:url(#SVGID_22_);enable-background:new}.st24{clip-path:url(#SVGID_24_);enable-background:new}.st25{clip-path:url(#SVGID_26_);enable-background:new}.st26{clip-path:url(#SVGID_28_);enable-background:new}.st27{clip-path:url(#SVGID_30_);enable-background:new}.st28{clip-path:url(#SVGID_32_);enable-background:new}.st29{clip-path:url(#SVGID_34_);enable-background:new}.st30{fill:#7d2a1b}.st31{clip-path:url(#SVGID_36_);enable-background:new}.st32{fill:#953220}.st33{fill:#9a3421}.st34{fill:#9e3522}.st35{fill:#90311f}.st36{fill:#8b2f1e}.st37{fill:#862d1d}.st38{fill:#822c1c}.st39{clip-path:url(#SVGID_38_);enable-background:new}.st40{fill:#78291a}.st41{fill:#7b291a}.st42{clip-path:url(#SVGID_40_);enable-background:new}.st43{clip-path:url(#SVGID_42_);enable-background:new}.st44{clip-path:url(#SVGID_44_);enable-background:new}.st45{clip-path:url(#SVGID_46_);enable-background:new}.st46{fill:#983320}.st47{fill:#d1472d}.st48{clip-path:url(#SVGID_48_);enable-background:new}</style><g><g><g class="st0"><g class="st0"><defs><path id="SVGID_1_" class="st0" d="M157 103.8l-9.1-5c2 1.1 5.6 1.1 9.8.5 5.6-.8 13.3-2.3 13.3-7.9.0-1.2-.5-1.9-1.2-2.3l9.1 5c.8.4 1.2 1.2 1.2 2.3.0 5.6-7.7 7.1-13.3 7.9C162.5 104.9 159 104.9 157 103.8z"/></defs><clipPath id="SVGID_2_"><use xlink:href="#SVGID_1_" style="overflow:visible"/></clipPath><g class="st1"><path class="st2" d="M157 103.8l-9.1-5c.1.0.1.1.2.1l9.1 5C157.1 103.9 157 103.8 157 103.8"/><path class="st3" d="M157.2 103.9l-9.1-5c.4.2.8.3 1.2.4l9.1 5C158 104.2 157.5 104.1 157.2 103.9"/><path class="st4" d="M158.4 104.3l-9.1-5c2.1.5 5 .4 8.4.0 2.9-.4 6.3-1 8.9-2.2l9.1 5c-2.6 1.2-6.1 1.8-8.9 2.2C163.4 104.8 160.5 104.9 158.4 104.3"/><path class="st3" d="M175.7 102.1l-9.1-5c.6-.3 1.1-.6 1.6-.9l9.1 5C176.8 101.5 176.3 101.8 175.7 102.1"/><path class="st2" d="M177.3 101.2l-9.1-5c.3-.2.6-.4.8-.6l9.1 5C177.9 100.7 177.6 101 177.3 101.2"/><path class="st5" d="M178.2 100.5l-9.1-5c.2-.2.4-.4.5-.5l9.1 5C178.5 100.2 178.3 100.3 178.2 100.5"/><path class="st6" d="M178.7 1e2l-9.1-5c.1-.2.3-.3.4-.5l9.1 5C179 99.6 178.8 99.8 178.7 1e2"/><path class="st7" d="M179.1 99.5l-9.1-5c.1-.2.2-.4.3-.6l9.1 5C179.3 99.1 179.2 99.3 179.1 99.5"/><path class="st8" d="M179.4 98.9l-9.1-5c.1-.2.2-.4.3-.7l9.1 5C179.7 98.5 179.6 98.7 179.4 98.9"/><path class="st9" d="M179.7 98.2l-9.1-5c.2-.6.3-1.2.3-1.8.0-1.2-.5-1.9-1.2-2.3l9.1 5c.8.4 1.2 1.2 1.2 2.3C180.1 97 179.9 97.7 179.7 98.2"/></g></g><g class="st0"><defs><path id="SVGID_3_" class="st0" d="M180.5 75.9l9.1 5c-4.5-2.4-11.9-1.9-21.8-1.1l-9.1-5C168.6 74 176.1 73.4 180.5 75.9z"/></defs><clipPath id="SVGID_4_"><use xlink:href="#SVGID_3_" style="overflow:visible"/></clipPath><g class="st10"><path class="st4" d="M167.9 79.7l-9.1-5c8-.6 14.4-1.1 19 .1l9.1 5C182.3 78.6 175.9 79.1 167.9 79.7"/><path class="st3" d="M186.9 79.8l-9.1-5c.9.2 1.7.5 2.4.9l9.1 5C188.5 80.3 187.7 80 186.9 79.8"/><path class="st2" d="M189.3 80.6l-9.1-5c.1.1.3.1.4.2l9.1 5C189.5 80.8 189.4 80.7 189.3 80.6"/></g></g><g><path class="st11" d="M158.4 80.4 149.3 75.4 158.8 74.7 167.9 79.7z"/></g><g class="st0"><defs><path id="SVGID_5_" class="st0" d="M164.6 40.9l9.1 5c2.2 1.2 3.4 3.7 3.4 7.5.0 5.4-3.7 9.4-9.1 10.2l-9.1-5c5.4-.8 9.1-4.7 9.1-10.2C168 44.6 166.8 42.1 164.6 40.9z"/></defs><clipPath id="SVGID_6_"><use xlink:href="#SVGID_5_" style="overflow:visible"/></clipPath><g class="st12"><path class="st4" d="M168 63.5l-9.1-5c1.2-.2 2.4-.5 3.4-1l9.1 5C170.4 63 169.3 63.3 168 63.5"/><path class="st3" d="M171.4 62.5l-9.1-5c.5-.2 1-.5 1.5-.9l9.1 5C172.5 62 172 62.2 171.4 62.5"/><path class="st2" d="M172.9 61.6l-9.1-5c.3-.2.7-.5 1-.8l9.1 5C173.6 61.1 173.3 61.4 172.9 61.6"/><path class="st5" d="M173.9 60.8l-9.1-5c.3-.2.5-.5.8-.8l9.1 5C174.4 60.3 174.2 60.6 173.9 60.8"/><path class="st6" d="M174.7 60.1l-9.1-5c.2-.3.5-.5.7-.8l9.1 5C175.1 59.5 174.9 59.8 174.7 60.1"/><path class="st7" d="M175.4 59.2l-9.1-5c.2-.3.4-.6.6-1l9.1 5C175.8 58.6 175.6 58.9 175.4 59.2"/><path class="st8" d="M175.9 58.3l-9.1-5c.2-.4.4-.8.6-1.3l9.1 5C176.3 57.5 176.2 57.9 175.9 58.3"/><path class="st9" d="M176.5 57l-9.1-5c.4-1.1.6-2.4.6-3.7.0-3.8-1.2-6.3-3.4-7.5l9.1 5c2.2 1.2 3.4 3.7 3.4 7.5C177.1 54.6 176.9 55.9 176.5 57"/></g></g><g class="st0"><defs><path id="SVGID_7_" class="st0" d="M148.3 112.8l-9.1-5c-3.2-1.8-4.6-4.6-4.6-8.4.0-4.7 2-7.5 5.3-11.4l9.1 5c-3.4 3.9-5.3 6.7-5.3 11.4C143.6 108.2 145 111.1 148.3 112.8z"/></defs><clipPath id="SVGID_8_"><use xlink:href="#SVGID_7_" style="overflow:visible"/></clipPath><g class="st13"><path class="st9" d="M148.3 112.8l-9.1-5c-3.2-1.8-4.6-4.6-4.6-8.4.0-1.7.3-3.2.8-4.5l9.1 5c-.5 1.4-.8 2.8-.8 4.5C143.6 108.2 145 111.1 148.3 112.8"/><path class="st8" d="M144.4 99.9l-9.1-5c.2-.6.5-1.1.8-1.7l9.1 5C144.9 98.7 144.6 99.3 144.4 99.9"/><path class="st7" d="M145.2 98.2l-9.1-5c.3-.6.7-1.2 1.1-1.8l9.1 5C145.9 97 145.5 97.6 145.2 98.2"/><path class="st6" d="M146.3 96.4l-9.1-5c.8-1.1 1.7-2.2 2.7-3.4l9.1 5C148 94.2 147.1 95.3 146.3 96.4"/></g></g><g class="st0"><defs><path id="SVGID_9_" class="st0" d="M162.2 62.8l-9.1-5c1.4.8 3.3 1 5.8.7l9.1 5C165.5 63.8 163.6 63.6 162.2 62.8z"/></defs><clipPath id="SVGID_10_"><use xlink:href="#SVGID_9_" style="overflow:visible"/></clipPath><g class="st14"><path class="st2" d="M162.2 62.8l-9.1-5c.1.0.1.1.2.1l9.1 5C162.3 62.9 162.3 62.8 162.2 62.8"/><path class="st3" d="M162.4 62.9l-9.1-5c.4.2.8.3 1.3.5l9.1 5C163.2 63.2 162.8 63.1 162.4 62.9"/><path class="st4" d="M163.7 63.4l-9.1-5c1.2.3 2.6.4 4.4.1l9.1 5C166.3 63.7 164.9 63.7 163.7 63.4"/></g></g><g><path class="st11" d="M176.4 34.7 167.3 29.8 186.2 27.1 195.3 32.1z"/></g><g class="st0"><defs><path id="SVGID_11_" class="st0" d="M147.7 92.5l-9.1-5c-2.2-1.2-3-3.4-3-5.8.0-2.3 1.1-4.5 2.8-6.8 1.7-2.2 3.7-4.5 6-7.1l9.1 5c-2.3 2.6-4.3 4.9-6 7.1-1.7 2.2-2.8 4.5-2.8 6.8C144.7 89.1 145.5 91.3 147.7 92.5z"/></defs><clipPath id="SVGID_12_"><use xlink:href="#SVGID_11_" style="overflow:visible"/></clipPath><g class="st15"><path class="st9" d="M147.7 92.5l-9.1-5c-2.2-1.2-3-3.4-3-5.8.0-1 .2-1.9.5-2.9l9.1 5c-.3.9-.5 1.9-.5 2.9C144.7 89.1 145.5 91.3 147.7 92.5"/><path class="st8" d="M145.3 83.8l-9.1-5c.2-.5.4-1 .7-1.5l9.1 5C145.7 82.9 145.5 83.3 145.3 83.8"/><path class="st7" d="M146 82.4l-9.1-5c.3-.5.6-1 1-1.6l9.1 5C146.6 81.3 146.2 81.8 146 82.4"/><path class="st6" d="M146.9 80.8l-9.1-5c.2-.3.4-.6.6-.9 1.6-2.1 3.4-4.2 5.6-6.6l9.1 5c-2.1 2.4-4 4.5-5.6 6.6C147.3 80.2 147.1 80.5 146.9 80.8"/><path class="st5" d="M153.2 73.3l-9.1-5c.1-.2.3-.3.4-.5l9.1 5C153.4 73 153.3 73.1 153.2 73.3"/></g></g><g class="st0"><defs><path id="SVGID_13_" class="st0" d="M152.2 72.2l-9.1-5c-4.1-2.2-7-6.9-7-13.9.0-12 7.4-21.3 22.2-23.4 4.2-.6 6.7-.5 8.9-.2l9.1 5c-2.2-.3-4.7-.4-8.9.2-14.8 2.1-22.2 11.4-22.2 23.4C145.3 65.3 148.2 70 152.2 72.2z"/></defs><clipPath id="SVGID_14_"><use xlink:href="#SVGID_13_" style="overflow:visible"/></clipPath><g class="st16"><path class="st9" d="M152.2 72.2l-9.1-5c-4.1-2.2-7-6.9-7-13.9.0-3.1.5-6 1.5-8.6l9.1 5c-1 2.6-1.5 5.5-1.5 8.6C145.3 65.3 148.2 70 152.2 72.2"/><path class="st8" d="M146.7 49.7l-9.1-5c.3-1 .8-1.9 1.2-2.8l9.1 5C147.5 47.8 147.1 48.8 146.7 49.7"/><path class="st7" d="M148 47l-9.1-5c.4-.7.8-1.4 1.3-2.1l9.1 5C148.8 45.6 148.4 46.2 148 47"/><path class="st6" d="M149.2 44.9l-9.1-5c.4-.6.9-1.2 1.4-1.8l9.1 5C150.2 43.7 149.7 44.3 149.2 44.9"/><path class="st5" d="M150.7 43.1l-9.1-5c.5-.6 1.1-1.2 1.7-1.7l9.1 5C151.8 41.9 151.2 42.5 150.7 43.1"/><path class="st2" d="M152.4 41.4l-9.1-5c.7-.6 1.4-1.2 2.2-1.7l9.1 5C153.8 40.2 153 40.8 152.4 41.4"/><path class="st3" d="M154.6 39.6l-9.1-5c1.1-.7 2.3-1.4 3.5-2l9.1 5C156.8 38.2 155.7 38.9 154.6 39.6"/><path class="st4" d="M158.1 37.6l-9.1-5c2.7-1.3 5.8-2.2 9.4-2.7 4.2-.6 6.7-.5 8.9-.2l9.1 5c-2.2-.3-4.7-.4-8.9.2C163.9 35.4 160.8 36.3 158.1 37.6"/></g></g><g><path class="st17" d="M195.3 32.1V41l-8.9 2c1.7 2.2 3.6 5.2 3.6 10.1.0 11.6-8.5 19.6-20.7 21.3-3.1.4-5.9.4-7.6.1l-3.2 6 9.5-.7c16.7-1.2 26.6-2.1 26.6 11.8.0 12-9.8 20.2-26.7 22.6-17.5 2.5-24.2-1.4-24.2-9.7.0-4.7 2-7.5 5.3-11.4-3.2-1-4.3-3.5-4.2-6.3.0-2.3 1.1-4.5 2.8-6.8 1.7-2.2 3.7-4.5 6-7.1-4.7-1.8-8.3-6.8-8.3-14.5.0-12 7.4-21.3 22.2-23.4 4.2-.6 6.7-.5 8.9-.2L195.3 32.1zM168 63.5c5.4-.8 9.1-4.7 9.1-10.2.0-6.2-3.3-8.9-8.8-8.2-5.3.7-9.3 4.1-9.3 10.9C159 61.2 161.6 64.4 168 63.5M171.7 93.7l-14.1.9c-1.3 1.8-2.5 3.8-2.5 5.9.0 4.2 4.9 4.7 11.7 3.8 5.6-.8 13.3-2.3 13.3-7.9C180.1 93 176.4 93.3 171.7 93.7"/></g></g></g></g><g><g><g class="st0"><g><path class="st18" d="M227.8 77.8 218.7 72.9H223.6L232.7 77.9z"/></g><g class="st0"><defs><path id="SVGID_15_" class="st0" d="M226.7 77.7l-9.1-5c.2.1.6.2 1.1.2l9.1 5C227.3 77.8 226.9 77.8 226.7 77.7z"/></defs><clipPath id="SVGID_16_"><use xlink:href="#SVGID_15_" style="overflow:visible"/></clipPath><g class="st19"><path class="st2" d="M226.7 77.7l-9.1-5c0 0 0 0 0 0L226.7 77.7c0 0 0 0 0 0"/><path class="st3" d="M226.7 77.7l-9.1-5c.1.0.1.0.2.1l9.1 5C226.8 77.7 226.8 77.7 226.7 77.7"/><path class="st4" d="M226.9 77.8l-9.1-5c.2.1.5.1.9.1l9.1 5C227.4 77.8 227.1 77.8 226.9 77.8"/></g></g><g class="st0"><defs><path id="SVGID_17_" class="st0" d="M210.1 80.3l-9.1-5c1.4-.4 1.5-.7 1.5-2.3l9.1 5C211.6 79.6 211.4 79.9 210.1 80.3z"/></defs><clipPath id="SVGID_18_"><use xlink:href="#SVGID_17_" style="overflow:visible"/></clipPath><g class="st20"><path class="st4" d="M210.1 80.3l-9.1-5c.3-.1.5-.2.7-.3l9.1 5C210.6 80.2 210.4 80.2 210.1 80.3"/><path class="st3" d="M210.8 80.1l-9.1-5c.1.0.2-.1.3-.2l9.1 5C211 80 210.9 80 210.8 80.1"/><path class="st2" d="M211.1 79.9l-9.1-5c0 0 .1-.1.1-.1l9.1 5C211.2 79.8 211.1 79.9 211.1 79.9"/><path class="st5" d="M211.2 79.8l-9.1-5c0 0 .1-.1.1-.1L211.2 79.8c.10000000000002274.0.0.0.0.0"/><path class="st6" d="M211.3 79.7l-9.1-5c0 0 .1-.1.1-.1L211.3 79.7c0 0 0 0 0 0"/><path class="st7" d="M211.4 79.6l-9.1-5c0 0 0-.1.1-.1l9.1 5C211.4 79.6 211.4 79.6 211.4 79.6"/><path class="st8" d="M211.4 79.5l-9.1-5c0-.1.1-.1.1-.2l9.1 5C211.5 79.4 211.5 79.5 211.4 79.5"/><path class="st9" d="M211.5 79.4l-9.1-5c.1-.3.1-.7.1-1.3l9.1 5C211.6 78.6 211.6 79 211.5 79.4"/></g></g><g><path class="st11" d="M205.1 81.7 196 76.8 201 75.4 210.1 80.3z"/></g><g><path class="st21" d="M205.1 90 196 85V76.8L205.1 81.7z"/></g><g><path class="st21" d="M211.6 78 202.5 73 202.6 42.3 211.7 47.3z"/></g><g class="st0"><defs><path id="SVGID_19_" class="st0" d="M201.8 40.5l9.1 5c.6.3.7.9.7 1.8l-9.1-5C202.6 41.4 202.4 40.8 201.8 40.5z"/></defs><clipPath id="SVGID_20_"><use xlink:href="#SVGID_19_" style="overflow:visible"/></clipPath><g class="st22"><path class="st9" d="M211.7 47.3l-9.1-5c0-.9-.2-1.5-.7-1.8l9.1 5C211.5 45.7 211.7 46.4 211.7 47.3"/></g></g><g><path class="st11" d="M206.3 35.4 197.2 30.4 217.2 27.6 226.3 32.6z"/></g><g><path class="st17" d="M227.8 77.8h4.9V86L205.1 90v-8.2l4.9-1.4c1.4-.4 1.5-.7 1.5-2.3l.1-30.7c0-1.1-.3-1.8-1.3-2l-5.2-1.3 1.1-8.6 20-2.8L226.3 76C226.3 77.6 226.4 77.8 227.8 77.8z"/></g><g><path class="st9" d="M205.2 44 196.1 39.1 197.2 30.4 206.3 35.4z"/></g></g><g class="st0"><g class="st0"><defs><path id="SVGID_21_" class="st0" d="M212.5 24.7l-9.1-5c-2.2-1.2-3.5-3.8-3.5-7.5.0-6 3.2-9.6 8.7-10.4 2.2-.3 4-.1 5.4.7l9.1 5c-1.4-.8-3.2-1-5.4-.7-5.5.8-8.7 4.5-8.7 10.4C209 20.9 210.3 23.5 212.5 24.7z"/></defs><clipPath id="SVGID_22_"><use xlink:href="#SVGID_21_" style="overflow:visible"/></clipPath><g class="st23"><path class="st9" d="M212.5 24.7l-9.1-5c-2.2-1.2-3.5-3.8-3.5-7.5.0-1.6.2-3.1.7-4.4l9.1 5c-.5 1.3-.7 2.8-.7 4.4C209 20.9 210.3 23.5 212.5 24.7"/><path class="st8" d="M209.8 12.9l-9.1-5c.2-.4.3-.9.6-1.3l9.1 5C210.1 12 209.9 12.4 209.8 12.9"/><path class="st7" d="M210.3 11.6l-9.1-5c.2-.3.4-.6.6-.9l9.1 5C210.7 11 210.5 11.3 210.3 11.6"/><path class="st6" d="M210.9 10.7l-9.1-5c.2-.3.4-.5.6-.8l9.1 5C211.3 10.2 211.1 10.4 210.9 10.7"/><path class="st5" d="M211.5 10l-9.1-5c.2-.2.4-.5.7-.7l9.1 5C211.9 9.5 211.7 9.7 211.5 10"/><path class="st2" d="M212.1 9.3l-9.1-5c.3-.2.6-.5.9-.7l9.1 5C212.7 8.8 212.4 9 212.1 9.3"/><path class="st3" d="M213 8.6l-9.1-5c.4-.3.9-.5 1.3-.8l9.1 5C213.9 8 213.4 8.3 213 8.6"/><path class="st4" d="M214.4 7.8l-9.1-5c1-.5 2.1-.8 3.4-1 1.5-.2 2.8-.2 4 .1l9.1 5c-1.1-.3-2.5-.3-4-.1C216.5 7 215.4 7.3 214.4 7.8"/><path class="st3" d="M221.7 7l-9.1-5c.4.1.9.3 1.2.5l9.1 5C222.6 7.2 222.2 7.1 221.7 7"/><path class="st2" d="M223 7.4l-9.1-5c.1.0.2.1.2.1l9.1 5C223.1 7.5 223.1 7.4 223 7.4"/></g></g><g><path class="st17" d="M217.7 25.4c-5.5.8-8.7-2.2-8.7-8.2s3.2-9.6 8.7-10.4c5.6-.8 8.8 2 8.8 8S223.4 24.6 217.7 25.4z"/></g></g></g></g><g><g><g class="st0"><g class="st0"><defs><path id="SVGID_23_" class="st0" d="M260.4 75l-9.1-5c1 .5 2.4.7 4.2.4 2.7-.4 5.5-1.5 7.8-2.8l9.1 5c-2.3 1.3-5.1 2.4-7.8 2.8C262.7 75.7 261.4 75.5 260.4 75z"/></defs><clipPath id="SVGID_24_"><use xlink:href="#SVGID_23_" style="overflow:visible"/></clipPath><g class="st24"><path class="st2" d="M260.4 75l-9.1-5c0 0 .1.0.1.1l9.1 5C260.4 75.1 260.4 75 260.4 75"/><path class="st3" d="M260.5 75.1l-9.1-5c.2.1.5.2.8.3l9.1 5C261 75.3 260.7 75.2 260.5 75.1"/><path class="st4" d="M261.3 75.4l-9.1-5c.9.2 2 .2 3.3.0 2.1-.3 4.3-1.1 6.3-2l9.1 5c-2 .9-4.2 1.7-6.3 2C263.2 75.6 262.1 75.6 261.3 75.4"/><path class="st3" d="M270.9 73.4l-9.1-5c.5-.2 1-.5 1.5-.8l9.1 5C272 72.9 271.4 73.2 270.9 73.4"/></g></g><g class="st0"><defs><path id="SVGID_25_" class="st0" d="M248.7 86.8l-9.1-5c-3.8-2-5.3-6.5-5.3-13.6l9.1 5C243.4 80.4 245 84.8 248.7 86.8z"/></defs><clipPath id="SVGID_26_"><use xlink:href="#SVGID_25_" style="overflow:visible"/></clipPath><g class="st25"><path class="st9" d="M248.7 86.8l-9.1-5c-3.8-2-5.3-6.5-5.3-13.6l9.1 5C243.4 80.4 245 84.8 248.7 86.8"/></g></g><g><path class="st11" d="M258.9 32.2 249.8 27.3 263.4 25.3 272.5 30.3z"/></g><g class="st0"><defs><path id="SVGID_27_" class="st0" d="M258.3 32.2l-9.1-5c.1.1.3.1.6.0l9.1 5C258.6 32.3 258.4 32.2 258.3 32.2z"/></defs><clipPath id="SVGID_28_"><use xlink:href="#SVGID_27_" style="overflow:visible"/></clipPath><g class="st26"><path class="st2" d="M258.3 32.2l-9.1-5c0 0 0 0 0 0L258.3 32.2c0 0 0 0 0 0"/><path class="st3" d="M258.3 32.2l-9.1-5c0 0 .1.0.1.0l9 5C258.4 32.2 258.4 32.2 258.3 32.2"/><path class="st4" d="M258.4 32.2l-9.1-5c.1.0.3.0.5.0l9.1 5C258.7 32.3 258.5 32.3 258.4 32.2"/></g></g><g><path class="st21" d="M243.4 73.3 234.3 68.3V40.9L243.5 45.9z"/></g><g class="st0"><defs><path id="SVGID_29_" class="st0" d="M234.1 40l9.1 5c.2.1.2.5.2.9l-9.1-5C234.3 40.5 234.3 40.2 234.1 40z"/></defs><clipPath id="SVGID_30_"><use xlink:href="#SVGID_29_" style="overflow:visible"/></clipPath><g class="st27"><path class="st9" d="M243.5 45.9l-9.1-5c0-.4.0-.8-.2-.9l9.1 5C243.5 45.1 243.5 45.5 243.5 45.9"/></g></g><g><path class="st11" d="M248.9 17.7 239.8 12.8 249 11.5 258.1 16.4z"/></g><g class="st0"><defs><path id="SVGID_31_" class="st0" d="M235.9 36.6l-9.1-5c8.5-2.2 11.9-7.3 13-18.9l9.1 5C247.8 29.3 244.4 34.3 235.9 36.6z"/></defs><clipPath id="SVGID_32_"><use xlink:href="#SVGID_31_" style="overflow:visible"/></clipPath><g class="st28"><path class="st4" d="M235.9 36.6l-9.1-5c1.4-.4 2.6-.8 3.8-1.3l9.1 5C238.5 35.8 237.3 36.2 235.9 36.6"/><path class="st3" d="M239.7 35.3l-9.1-5c.8-.4 1.5-.8 2.2-1.2l9.1 5C241.2 34.5 240.5 34.9 239.7 35.3"/><path class="st2" d="M241.9 34l-9.1-5c.5-.3.9-.7 1.3-1.1l9.1 5C242.8 33.3 242.3 33.7 241.9 34"/><path class="st5" d="M243.2 33l-9.1-5c.4-.3.7-.7 1-1l9.1 5C243.9 32.3 243.6 32.6 243.2 33"/><path class="st6" d="M244.2 31.9l-9.1-5c.3-.4.6-.8.9-1.2l9.1 5C244.8 31.2 244.5 31.6 244.2 31.9"/><path class="st7" d="M245.1 30.8l-9.1-5c.3-.5.6-1 .9-1.5l9.1 5C245.8 29.8 245.5 30.3 245.1 30.8"/><path class="st8" d="M246 29.3l-9.1-5c.4-.7.7-1.5 1-2.4l9.1 5C246.8 27.8 246.4 28.5 246 29.3"/><path class="st9" d="M247.1 26.9l-9.1-5c.9-2.5 1.5-5.5 1.8-9.2l9.1 5C248.6 21.4 248 24.4 247.1 26.9"/></g></g><g><path class="st17" d="M258.1 16.4v14.8c0 .7.0 1 .8.9l13.6-1.9v10.4l-14.4 2v25c0 6.2 1.3 8.4 6.6 7.6 2.7-.4 5.5-1.5 7.8-2.8l2.6 8.8c-4.2 2.8-10.3 5.6-15.8 6.4-11.5 1.6-15.9-2.8-15.8-14.6l.1-27.4c0-.6.0-1-.8-.9l-6.8 1v-9.3c8.5-2.2 11.9-7.3 13-18.9L258.1 16.4z"/></g><g><path class="st21" d="M235.9 45.9 226.8 40.9V31.6L235.9 36.6z"/></g></g></g></g><g><g><g class="st0"><g class="st0"><defs><path id="SVGID_33_" class="st0" d="M58 116.1l-9.1-5c-.4-.2-.8-.5-1.1-.8l9.1 5C57.3 115.7 57.6 115.9 58 116.1z"/></defs><clipPath id="SVGID_34_"><use xlink:href="#SVGID_33_" style="overflow:visible"/></clipPath><g class="st29"><path class="st30" d="M58 116.1l-9.1-5c-.4-.2-.8-.5-1.1-.8l9.1 5C57.3 115.7 57.6 115.9 58 116.1"/></g></g><g class="st0"><defs><path id="SVGID_35_" class="st0" d="M78.7 67.3l-9.1-5c1.3.7 2.7.9 4.2.7 2-.3 4-1.4 5.5-3.2 3-3.7 3.1-9 0-11.9-.4-.4-.9-.7-1.3-1l9.1 5c.5.3.9.6 1.3 1 3 2.9 3 8.2.0 11.9-1.5 1.9-3.5 3-5.5 3.2C81.4 68.2 80 68 78.7 67.3z"
						/></defs><clipPath id="SVGID_36_"><use xlink:href="#SVGID_35_" style="overflow:visible"/></clipPath><g class="st31"><path class="st32" d="M78.7 67.3l-9.1-5c.1.0.2.1.2.1l9.1 5C78.8 67.4 78.8 67.3 78.7 67.3"/><path class="st33" d="M78.9 67.4l-9.1-5c.4.2.8.3 1.2.5l9.1 5C79.7 67.7 79.3 67.6 78.9 67.4"/><path class="st34" d="M80.1 67.9l-9.1-5c.9.2 1.8.3 2.7.1.8-.1 1.5-.3 2.3-.7l9.1 5c-.7.3-1.5.6-2.3.7C81.9 68.1 81 68.1 80.1 67.9"/><path class="st33" d="M85.1 67.3l-9.1-5c.4-.2.8-.4 1.3-.7l9.1 5C86 66.9 85.6 67.1 85.1 67.3"/><path class="st32" d="M86.4 66.6l-9.1-5c.3-.2.6-.5.9-.7l9.1 5C87 66.1 86.7 66.4 86.4 66.6"/><path class="st35" d="M87.3 65.8l-9.1-5c.3-.2.5-.5.8-.8l9.1 5C87.9 65.3 87.6 65.6 87.3 65.8"/><path class="st36" d="M88.1 65 79 60c.1-.1.2-.2.2-.3.2-.2.3-.4.5-.6l9.1 5c-.1.2-.3.4-.5.6C88.3 64.9 88.2 65 88.1 65"/><path class="st37" d="M88.8 64.1l-9.1-5c.2-.3.4-.7.6-1l9.1 5C89.3 63.5 89 63.8 88.8 64.1"/><path class="st38" d="M89.4 63.1l-9.1-5c.2-.4.4-.9.6-1.3l9.1 5C89.9 62.3 89.7 62.7 89.4 63.1"/><path class="st30" d="M90 61.8l-9.1-5c1.2-3.2.6-6.8-1.7-8.9-.4-.4-.9-.7-1.3-1l9.1 5c.5.3.9.6 1.3 1C90.7 55.1 91.2 58.6 90 61.8"/></g></g><g class="st0"><defs><path id="SVGID_37_" class="st0" d="M57.5 93l-9.1-5c1.3.7 2.7.9 4.2.7 2-.3 4-1.4 5.5-3.2 3-3.7 3.1-9 0-11.9-.4-.4-.9-.7-1.3-1l9.1 5c.5.3.9.6 1.3 1 3 2.9 3 8.2.0 11.9-1.5 1.9-3.5 3-5.5 3.2C60.2 93.9 58.8 93.7 57.5 93z"/></defs><clipPath id="SVGID_38_"><use xlink:href="#SVGID_37_" style="overflow:visible"/></clipPath><g class="st39"><path class="st32" d="M57.5 93l-9.1-5c.1.0.2.1.2.1l9.1 5C57.7 93.1 57.6 93.1 57.5 93"/><path class="st33" d="M57.8 93.2l-9.1-5c.4.2.8.3 1.2.5l9.1 5C58.6 93.5 58.2 93.3 57.8 93.2"/><path class="st34" d="M59 93.6l-9.1-5c.9.2 1.8.3 2.7.1.8-.1 1.5-.3 2.3-.7l9.1 5c-.7.4-1.5.6-2.3.7C60.8 93.9 59.9 93.8 59 93.6"/><path class="st33" d="M64 93.1l-9.1-5c.4-.2.8-.4 1.3-.7l9.1 5C64.8 92.6 64.4 92.9 64 93.1"/><path class="st32" d="M65.2 92.3l-9.1-5c.3-.2.6-.5.9-.7l9.1 5C65.9 91.9 65.6 92.1 65.2 92.3"/><path class="st35" d="M66.2 91.6l-9.1-5c.3-.2.5-.5.8-.8l9.1 5C66.7 91.1 66.4 91.3 66.2 91.6"/><path class="st36" d="M67 90.8l-9.1-5c.1-.1.2-.2.2-.3.2-.2.3-.4.5-.6l9.1 5c-.1.2-.3.4-.5.6C67.1 90.6 67 90.7 67 90.8"/><path class="st37" d="M67.7 89.9l-9.1-5c.2-.3.4-.7.6-1l9.1 5C68.1 89.2 67.9 89.6 67.7 89.9"/><path class="st38" d="M68.3 88.9l-9.1-5c.2-.4.4-.9.6-1.3l9.1 5C68.7 88 68.5 88.4 68.3 88.9"/><path class="st30" d="M68.9 87.6l-9.1-5c1.2-3.2.6-6.8-1.7-8.9-.4-.4-.9-.7-1.3-1l9.1 5c.5.3.9.6 1.3 1C69.5 80.8 70.1 84.4 68.9 87.6"/></g></g><g><path class="st40" d="M80.3 52 71.2 47.1 60 36.5 69.1 41.5z"/></g><g><path class="st41" d="M65.2 77.4 56 72.4 56.1 42.6 65.2 47.6z"/></g><g class="st0"><defs><path id="SVGID_39_" class="st0" d="M57.6 47.5l-9.1-5c.4.2.8.4 1.2.5l9.1 5C58.4 47.8 58 47.7 57.6 47.5z"/></defs><clipPath id="SVGID_40_"><use xlink:href="#SVGID_39_" style="overflow:visible"/></clipPath><g class="st42"><path class="st32" d="M57.6 47.5l-9.1-5c.1.0.2.1.2.1l9.1 5C57.8 47.5 57.7 47.5 57.6 47.5"/><path class="st33" d="M57.9 47.6l-9.1-5c.3.2.6.3 1 .4l9.1 5C58.5 47.9 58.2 47.7 57.9 47.6"/></g></g><g class="st0"><defs><path id="SVGID_41_" class="st0" d="M56.8 27.2l9.1 5c.5.3.9.6 1.3 1 2.2 2 2.8 5.3 1.8 8.4l-9.1-5c.9-3.1.3-6.4-1.8-8.4C57.8 27.7 57.3 27.4 56.8 27.2z"/></defs><clipPath id="SVGID_42_"><use xlink:href="#SVGID_41_" style="overflow:visible"/></clipPath><g class="st43"><path class="st30" d="M69.1 41.5l-9.1-5c.9-3.1.3-6.4-1.8-8.4-.4-.4-.9-.7-1.3-1l9.1 5c.5.3.9.6 1.3 1C69.5 35.1 70.1 38.4 69.1 41.5"/></g></g><g class="st0"><defs><path id="SVGID_43_" class="st0" d="M55.9 3 65 8c-1.1-.6-2.3-.8-3.5-.6l-9.1-5C53.6 2.2 54.8 2.4 55.9 3z"/></defs><clipPath id="SVGID_44_"><use xlink:href="#SVGID_43_" style="overflow:visible"/></clipPath><g class="st44"><path class="st34" d="M61.5 7.3l-9.1-5c.8-.1 1.5-.1 2.3.1l9.1 5C63.1 7.3 62.3 7.2 61.5 7.3"/><path class="st33" d="M63.8 7.4l-9.1-5c.4.1.7.2 1 .4l9.1 5C64.5 7.7 64.1 7.5 63.8 7.4"/><path class="st32" d="M64.8 7.8l-9.1-5c.1.0.1.1.2.1l9.1 5C64.9 7.9 64.9 7.9 64.8 7.8"/></g></g><g class="st0"><defs><path id="SVGID_45_" class="st0" d="M56.9 10l-9.1-5c1.3-1.6 3-2.5 4.6-2.7l9.1 5C59.9 7.6 58.2 8.5 56.9 10z"/></defs><clipPath id="SVGID_46_"><use xlink:href="#SVGID_45_" style="overflow:visible"/></clipPath><g class="st45"><path class="st36" d="M56.9 10l-9.1-5C47.8 5 47.9 4.9 48 4.9l9.1 5C57 9.9 57 10 56.9 10"/><path class="st35" d="M57.1 9.8l-9.1-5c.2-.2.4-.5.7-.7l9.1 5C57.5 9.3 57.3 9.6 57.1 9.8"/><path class="st32" d="M57.8 9.1l-9.1-5c.3-.2.5-.4.8-.6l9.1 5C58.3 8.7 58 8.9 57.8 9.1"/><path class="st33" d="M58.5 8.5l-9.1-5c.3-.2.7-.4 1.1-.6l9.1 5C59.2 8.1 58.9 8.3 58.5 8.5"/><path class="st34" d="M59.6 7.9l-9.1-5c.6-.3 1.3-.5 1.9-.6l9.1 5C60.9 7.4 60.2 7.6 59.6 7.9"/></g></g><g><path class="st46" d="M47.7 21.3 38.6 16.3 47.8 5.1 56.9 10z"/></g><g><path class="st40" d="M59.3 32.2 50.2 27.2 38.6 16.3 47.7 21.3z"/></g><g><path class="st40" d="M56.9 115.3 47.8 110.4 3.6 68.8l9.1 5z"/></g><g><path class="st46" d="M12.7 63.8l-9.1-5L34 21.8 43.2 26.8z"/></g><g><path class="st47" d="M61.5 7.3c1.7-.2 3.3.2 4.6 1.4l44.2 41.6c2.5 2.4 2.5 6.9.0 10L66.1 114c-1.3 1.6-3 2.5-4.6 2.7-1.7.2-3.3-.2-4.6-1.4L12.7 73.8c-2.6-2.4-2.5-6.9.0-10l30.4-37 11.5 10.8c-1.2 3.2-.6 6.8 1.7 8.9.8.7 1.6 1.2 2.5 1.5l-.1 30c-.9.5-1.8 1.3-2.6 2.2-3 3.7-3 9 0 11.9 1.5 1.4 3.5 2 5.5 1.7 2-.3 4-1.4 5.5-3.2 3-3.7 3.1-9 0-11.9-.6-.6-1.3-1-2-1.3l.1-29.8 10.5 9.8c-1.2 3.2-.6 6.7 1.7 8.9 1.5 1.4 3.5 2 5.5 1.7 2-.3 4-1.4 5.5-3.2 3-3.7 3.1-9 0-11.9-1.5-1.4-3.5-2-5.5-1.7-.9.1-1.7.4-2.6.8L69.1 41.5c.9-3.1.3-6.4-1.8-8.4-1.5-1.4-3.5-2-5.5-1.7-.8.1-1.7.4-2.5.8L47.7 21.3 56.9 10C58.2 8.5 59.9 7.6 61.5 7.3z"/></g><g class="st0"><defs><path id="SVGID_47_" class="st0" d="M12.7 73.8l-9.1-5c-2.6-2.4-2.5-6.9.0-10l9.1 5C10.2 66.9 10.2 71.4 12.7 73.8z"/></defs><clipPath id="SVGID_48_"><use xlink:href="#SVGID_47_" style="overflow:visible"/></clipPath><g class="st48"><path class="st30" d="M12.7 73.8l-9.1-5C1.7 67 1.2 64 2.2 61.3l9.1 5C10.3 69 10.8 72 12.7 73.8"/><path class="st38" d="M11.3 66.3l-9.1-5c.1-.4.3-.7.5-1.1l9.1 5C11.6 65.5 11.5 65.9 11.3 66.3"/><path class="st37" d="M11.8 65.2l-9.1-5c.2-.3.3-.6.5-.9l9.1 5C12.1 64.6 12 64.9 11.8 65.2"/><path class="st36" d="M12.3 64.3l-9.1-5c.1-.2.3-.4.4-.5l9.1 5C12.6 64 12.5 64.1 12.3 64.3"/></g></g></g></g></g></svg>