<?xml version="1.0" encoding="utf-8"?>
<!-- Generator: Adobe Illustrator 22.0.0, SVG Export Plug-In . SVG Version: 6.00 Build 0)  -->
<svg version="1.1" id="Layer_1" xmlns="http://www.w3.org/2000/svg" xmlns:xlink="http://www.w3.org/1999/xlink" x="0px" y="0px"
	 viewBox="0 0 399.4 108" style="enable-background:new 0 0 399.4 108;" xml:space="preserve">
<style type="text/css">
	.st0{fill:#100E0F;}
	.st1{fill:#FFFFFF;}
</style>
<rect x="-88.3" y="198" class="st0" width="576" height="288"/>
<g>
	<path class="st1" d="M89,335H58.7c-0.8,0-1.4,0.6-1.4,1.4v14.8c0,0.8,0.6,1.4,1.4,1.4h11.8V371c0,0-2.7,0.9-10,0.9
		c-8.6,0-20.7-3.2-20.7-29.7c0-26.6,12.6-30.1,24.4-30.1c10.2,0,14.6,1.8,17.4,2.7c0.9,0.3,1.7-0.6,1.7-1.4l3.4-14.3
		c0-0.4-0.1-0.8-0.5-1.1c-1.1-0.8-8.1-4.7-25.6-4.7c-20.2,0-40.9,8.6-40.9,49.9c0,41.3,23.7,47.5,43.7,47.5
		c16.6,0,26.6-7.1,26.6-7.1c0.4-0.2,0.5-0.8,0.5-1.1v-46.2C90.4,335.6,89.7,335,89,335z"/>
	<path class="st1" d="M244.9,298.2c0-0.8-0.6-1.4-1.4-1.4h-17c-0.8,0-1.4,0.6-1.4,1.4c0,0,0,32.9,0,32.9h-26.6v-32.9
		c0-0.8-0.6-1.4-1.4-1.4h-17c-0.8,0-1.4,0.6-1.4,1.4v89.2c0,0.8,0.6,1.4,1.4,1.4h17c0.8,0,1.4-0.6,1.4-1.4v-38.1h26.6
		c0,0,0,38.1,0,38.1c0,0.8,0.6,1.4,1.4,1.4h17.1c0.8,0,1.4-0.6,1.4-1.4V298.2z"/>
	<g>
		<g>
			<path class="st1" d="M121.1,310c0-6.1-4.9-11.1-11-11.1c-6.1,0-11,5-11,11.1c0,6.1,4.9,11.1,11,11.1
				C116.2,321.1,121.1,316.1,121.1,310z"/>
			<path class="st1" d="M119.9,368.6c0-2.3,0-41.2,0-41.2c0-0.8-0.6-1.4-1.4-1.4h-17c-0.8,0-1.5,0.8-1.5,1.6c0,0,0,49.5,0,59
				c0,1.7,1.1,2.2,2.5,2.2c0,0,7.3,0,15.3,0c1.7,0,2.1-0.8,2.1-2.3C119.9,383.4,119.9,371,119.9,368.6z"/>
		</g>
	</g>
	<path class="st1" d="M309.7,326.2h-16.9c-0.8,0-1.4,0.6-1.4,1.4v43.7c0,0-4.3,3.1-10.4,3.1c-6.1,0-7.7-2.8-7.7-8.7
		c0-6,0-38.1,0-38.1c0-0.8-0.6-1.4-1.4-1.4h-17.2c-0.8,0-1.4,0.6-1.4,1.4c0,0,0,23.3,0,41c0,17.7,9.9,22.1,23.5,22.1
		c11.2,0,20.1-6.2,20.1-6.2s0.4,3.2,0.6,3.6c0.2,0.4,0.7,0.8,1.2,0.8l10.9,0c0.8,0,1.4-0.6,1.4-1.4l0-59.9
		C311.1,326.8,310.5,326.2,309.7,326.2z"/>
	<path class="st1" d="M355.9,324.2c-9.6,0-16.1,4.3-16.1,4.3v-30.2c0-0.8-0.6-1.4-1.4-1.4h-17.1c-0.8,0-1.4,0.6-1.4,1.4v89.2
		c0,0.8,0.6,1.4,1.4,1.4c0,0,11.9,0,11.9,0c0.5,0,0.9-0.3,1.2-0.8c0.3-0.5,0.7-4.1,0.7-4.1s7,6.6,20.2,6.6
		c15.5,0,24.4-7.9,24.4-35.4C379.8,327.8,365.5,324.2,355.9,324.2z M349.3,374.4c-5.9-0.2-9.8-2.8-9.8-2.8v-28.2
		c0,0,3.9-2.4,8.7-2.8c6.1-0.5,12,1.3,12,15.8C360.1,371.6,357.5,374.7,349.3,374.4z"/>
	<path class="st1" d="M168.9,326h-12.8c0,0,0-16.9,0-16.9c0-0.6-0.3-1-1.1-1h-17.4c-0.7,0-1,0.3-1,0.9v17.5c0,0-8.7,2.1-9.3,2.3
		c-0.6,0.2-1,0.7-1,1.4v11c0,0.8,0.6,1.4,1.4,1.4h8.9c0,0,0,11.5,0,26.4c0,19.6,13.7,21.5,23,21.5c4.2,0,9.3-1.4,10.1-1.7
		c0.5-0.2,0.8-0.7,0.8-1.3l0-12.1c0-0.8-0.7-1.4-1.4-1.4c-0.7,0-2.7,0.3-4.6,0.3c-6.3,0-8.4-2.9-8.4-6.7c0-3.8,0-25.1,0-25.1h12.8
		c0.8,0,1.4-0.6,1.4-1.4v-13.7C170.3,326.7,169.7,326,168.9,326z"/>
</g>
<g>
	<path class="st0" d="M89,47H58.7c-0.8,0-1.4,0.6-1.4,1.4v14.8c0,0.8,0.6,1.4,1.4,1.4h11.8V83c0,0-2.7,0.9-10,0.9
		c-8.6,0-20.7-3.2-20.7-29.7c0-26.6,12.6-30.1,24.4-30.1c10.2,0,14.6,1.8,17.4,2.7c0.9,0.3,1.7-0.6,1.7-1.4l3.4-14.3
		c0-0.4-0.1-0.8-0.5-1.1C85,9.2,78.1,5.3,60.5,5.3c-20.2,0-40.9,8.6-40.9,49.9c0,41.3,23.7,47.5,43.7,47.5c16.6,0,26.6-7.1,26.6-7.1
		c0.4-0.2,0.5-0.8,0.5-1.1V48.4C90.4,47.6,89.7,47,89,47z"/>
	<path class="st0" d="M244.9,10.2c0-0.8-0.6-1.4-1.4-1.4h-17c-0.8,0-1.4,0.6-1.4,1.4c0,0,0,32.9,0,32.9h-26.6V10.2
		c0-0.8-0.6-1.4-1.4-1.4h-17c-0.8,0-1.4,0.6-1.4,1.4v89.2c0,0.8,0.6,1.4,1.4,1.4h17c0.8,0,1.4-0.6,1.4-1.4V61.3h26.6
		c0,0,0,38.1,0,38.1c0,0.8,0.6,1.4,1.4,1.4h17.1c0.8,0,1.4-0.6,1.4-1.4V10.2z"/>
	<g>
		<g>
			<path class="st0" d="M121.1,22c0-6.1-4.9-11.1-11-11.1c-6.1,0-11,5-11,11.1c0,6.1,4.9,11.1,11,11.1
				C116.2,33.1,121.1,28.1,121.1,22z"/>
			<path class="st0" d="M119.9,80.6c0-2.3,0-41.2,0-41.2c0-0.8-0.6-1.4-1.4-1.4h-17c-0.8,0-1.5,0.8-1.5,1.6c0,0,0,49.5,0,59
				c0,1.7,1.1,2.2,2.5,2.2c0,0,7.3,0,15.3,0c1.7,0,2.1-0.8,2.1-2.3C119.9,95.4,119.9,83,119.9,80.6z"/>
		</g>
	</g>
	<path class="st0" d="M309.7,38.2h-16.9c-0.8,0-1.4,0.6-1.4,1.4v43.7c0,0-4.3,3.1-10.4,3.1c-6.1,0-7.7-2.8-7.7-8.7
		c0-6,0-38.1,0-38.1c0-0.8-0.6-1.4-1.4-1.4h-17.2c-0.8,0-1.4,0.6-1.4,1.4c0,0,0,23.3,0,41c0,17.7,9.9,22.1,23.5,22.1
		c11.2,0,20.1-6.2,20.1-6.2s0.4,3.2,0.6,3.6c0.2,0.4,0.7,0.8,1.2,0.8l10.9,0c0.8,0,1.4-0.6,1.4-1.4l0-59.9
		C311.1,38.8,310.5,38.2,309.7,38.2z"/>
	<path class="st0" d="M355.9,36.2c-9.6,0-16.1,4.3-16.1,4.3V10.2c0-0.8-0.6-1.4-1.4-1.4h-17.1c-0.8,0-1.4,0.6-1.4,1.4v89.2
		c0,0.8,0.6,1.4,1.4,1.4c0,0,11.9,0,11.9,0c0.5,0,0.9-0.3,1.2-0.8c0.3-0.5,0.7-4.1,0.7-4.1s7,6.6,20.2,6.6
		c15.5,0,24.4-7.9,24.4-35.4C379.8,39.8,365.5,36.2,355.9,36.2z M349.3,86.4c-5.9-0.2-9.8-2.8-9.8-2.8V55.3c0,0,3.9-2.4,8.7-2.8
		c6.1-0.5,12,1.3,12,15.8C360.1,83.6,357.5,86.7,349.3,86.4z"/>
	<path class="st0" d="M168.9,38h-12.8c0,0,0-16.9,0-16.9c0-0.6-0.3-1-1.1-1h-17.4c-0.7,0-1,0.3-1,0.9v17.5c0,0-8.7,2.1-9.3,2.3
		c-0.6,0.2-1,0.7-1,1.4v11c0,0.8,0.6,1.4,1.4,1.4h8.9c0,0,0,11.5,0,26.4c0,19.6,13.7,21.5,23,21.5c4.2,0,9.3-1.4,10.1-1.7
		c0.5-0.2,0.8-0.7,0.8-1.3l0-12.1c0-0.8-0.7-1.4-1.4-1.4c-0.7,0-2.7,0.3-4.6,0.3c-6.3,0-8.4-2.9-8.4-6.7c0-3.8,0-25.1,0-25.1h12.8
		c0.8,0,1.4-0.6,1.4-1.4V39.4C170.3,38.7,169.7,38,168.9,38z"/>
</g>
</svg>
