<?xml version="1.0" encoding="utf-8"?>
<!-- Generator: Adobe Illustrator 22.0.0, SVG Export Plug-In . SVG Version: 6.00 Build 0)  -->
<svg version="1.1" id="Calque_1" xmlns="http://www.w3.org/2000/svg" xmlns:xlink="http://www.w3.org/1999/xlink" x="0px" y="0px"
	 viewBox="0 0 48 48" style="enable-background:new 0 0 48 48;" xml:space="preserve">
<style type="text/css">
	.st0{enable-background:new    ;}
	.st1{fill:#1A542A;}
	.st2{clip-path:url(#SVGID_2_);enable-background:new    ;}
	.st3{fill:#1E6130;}
	.st4{fill:#1D5E2E;}
	.st5{fill:#1C5B2D;}
	.st6{fill:#1B572B;}
	.st7{clip-path:url(#SVGID_4_);enable-background:new    ;}
	.st8{clip-path:url(#SVGID_6_);enable-background:new    ;}
	.st9{clip-path:url(#SVGID_8_);enable-background:new    ;}
	.st10{clip-path:url(#SVGID_10_);enable-background:new    ;}
	.st11{clip-path:url(#SVGID_12_);enable-background:new    ;}
	.st12{clip-path:url(#SVGID_14_);enable-background:new    ;}
	.st13{clip-path:url(#SVGID_16_);enable-background:new    ;}
	.st14{clip-path:url(#SVGID_18_);enable-background:new    ;}
	.st15{clip-path:url(#SVGID_20_);enable-background:new    ;}
	.st16{clip-path:url(#SVGID_22_);enable-background:new    ;}
	.st17{clip-path:url(#SVGID_24_);enable-background:new    ;}
	.st18{clip-path:url(#SVGID_26_);enable-background:new    ;}
	.st19{fill:#295297;}
	.st20{fill:#285092;}
	.st21{fill:#264D8E;}
	.st22{fill:#254A89;}
	.st23{fill:#244884;}
	.st24{fill:#22457F;}
	.st25{fill:#21437A;}
	.st26{clip-path:url(#SVGID_28_);enable-background:new    ;}
	.st27{fill:#206833;}
	.st28{fill:#216C35;}
	.st29{fill:#226F37;}
	.st30{clip-path:url(#SVGID_30_);enable-background:new    ;}
	.st31{fill:#7A231C;}
	.st32{fill:#22447D;}
	.st33{clip-path:url(#SVGID_32_);enable-background:new    ;}
	.st34{fill:#2D9348;}
	.st35{fill:#3A74D5;}
	.st36{fill:#2F5EAC;}
	.st37{fill:#226E36;}
	.st38{clip-path:url(#SVGID_34_);enable-background:new    ;}
	.st39{fill:#9A2C23;}
	.st40{fill:#962B22;}
	.st41{fill:#912A21;}
	.st42{fill:#75221B;}
	.st43{clip-path:url(#SVGID_36_);enable-background:new    ;}
	.st44{fill:#836203;}
	.st45{fill:#886603;}
	.st46{fill:#DBA404;}
	.st47{clip-path:url(#SVGID_38_);enable-background:new    ;}
	.st48{fill:#7E241D;}
	.st49{fill:#83261E;}
	.st50{fill:#88271F;}
	.st51{fill:#8C2820;}
	.st52{fill:#CC3A2E;}
</style>
<g>
	<g>
		<g class="st0">
			<g>
				<path class="st1" d="M40.9,25c0-0.1,0-0.2,0-0.2C41,24.8,40.9,24.9,40.9,25z"/>
			</g>
			<g class="st0">
				<defs>
					<path id="SVGID_1_" class="st0" d="M40.7,26c0.9,0.5,1.8,1,2.7,1.5c-0.9,4.5-2.8,8.3-5.4,11.3l-2.7-1.5
						C37.9,34.3,39.9,30.5,40.7,26z"/>
				</defs>
				<clipPath id="SVGID_2_">
					<use xlink:href="#SVGID_1_"  style="overflow:visible;"/>
				</clipPath>
				<g class="st2">
					<path class="st3" d="M38,38.8l-2.7-1.5c0.5-0.6,1-1.3,1.5-1.9l2.7,1.5C39.1,37.5,38.6,38.2,38,38.8"/>
					<path class="st4" d="M39.6,36.8l-2.7-1.5c0.5-0.7,1-1.5,1.4-2.3l2.7,1.5C40.6,35.3,40.1,36.1,39.6,36.8"/>
					<path class="st5" d="M41,34.5L38.3,33c0.5-1,1-2,1.4-3.1l2.7,1.5C42,32.5,41.5,33.5,41,34.5"/>
					<path class="st6" d="M42.4,31.4l-2.7-1.5c0.6-1.5,1-3.2,1.3-4.9l2.7,1.5C43.4,28.2,43,29.8,42.4,31.4"/>
				</g>
			</g>
			<g class="st0">
				<defs>
					<path id="SVGID_3_" class="st0" d="M40.7,26c0.1-0.3,0.1-0.7,0.2-1l2.7,1.5c-0.1,0.3-0.1,0.7-0.2,1C42.6,27,41.7,26.5,40.7,26z
						"/>
				</defs>
				<clipPath id="SVGID_4_">
					<use xlink:href="#SVGID_3_"  style="overflow:visible;"/>
				</clipPath>
				<g class="st7">
					<path class="st6" d="M42.4,31.4l-2.7-1.5c0.6-1.5,1-3.2,1.3-4.9l2.7,1.5C43.4,28.2,43,29.8,42.4,31.4"/>
				</g>
			</g>
			<g class="st0">
				<defs>
					<path id="SVGID_5_" class="st0" d="M43.7,26.5L40.9,25c0,0,0,0,0,0L43.7,26.5C43.7,26.5,43.7,26.5,43.7,26.5z"/>
				</defs>
				<clipPath id="SVGID_6_">
					<use xlink:href="#SVGID_5_"  style="overflow:visible;"/>
				</clipPath>
				<g class="st8">
					<path class="st6" d="M43.7,26.5L40.9,25c0,0,0,0,0,0L43.7,26.5C43.7,26.5,43.7,26.5,43.7,26.5"/>
				</g>
			</g>
			<g class="st0">
				<defs>
					<path id="SVGID_7_" class="st0" d="M43.7,26.5L40.9,25c0-0.1,0-0.2,0-0.2l2.7,1.5C43.7,26.3,43.7,26.4,43.7,26.5z"/>
				</defs>
				<clipPath id="SVGID_8_">
					<use xlink:href="#SVGID_7_"  style="overflow:visible;"/>
				</clipPath>
				<g class="st9">
					<path class="st6" d="M43.7,26.5L40.9,25c0-0.1,0-0.2,0-0.2l2.7,1.5C43.7,26.3,43.7,26.4,43.7,26.5"/>
				</g>
			</g>
			<g class="st0">
				<defs>
					<path id="SVGID_9_" class="st0" d="M43.7,26.2L41,24.7c0,0,0,0,0,0L43.7,26.2C43.7,26.2,43.7,26.2,43.7,26.2z"/>
				</defs>
				<clipPath id="SVGID_10_">
					<use xlink:href="#SVGID_9_"  style="overflow:visible;"/>
				</clipPath>
				<g class="st10">
					<path class="st6" d="M43.7,26.2L41,24.7c0,0,0,0,0,0L43.7,26.2C43.7,26.2,43.7,26.2,43.7,26.2"/>
				</g>
			</g>
			<g class="st0">
				<defs>
					<path id="SVGID_11_" class="st0" d="M43.7,26.2L41,24.7c0-0.1,0-0.1,0-0.2l2.7,1.5C43.7,26,43.7,26.1,43.7,26.2z"/>
				</defs>
				<clipPath id="SVGID_12_">
					<use xlink:href="#SVGID_11_"  style="overflow:visible;"/>
				</clipPath>
				<g class="st11">
					<path class="st6" d="M43.7,26.2L41,24.7c0-0.1,0-0.1,0-0.2l2.7,1.5C43.7,26,43.7,26.1,43.7,26.2"/>
				</g>
			</g>
			<g>
				<path class="st1" d="M43.7,26.2c0-0.1,0-0.1,0-0.2C43.7,26,43.7,26.1,43.7,26.2z"/>
			</g>
			<g class="st0">
				<defs>
					<path id="SVGID_13_" class="st0" d="M43.7,26L41,24.5c0,0,0,0,0-0.1L43.7,26C43.7,25.9,43.7,26,43.7,26z"/>
				</defs>
				<clipPath id="SVGID_14_">
					<use xlink:href="#SVGID_13_"  style="overflow:visible;"/>
				</clipPath>
				<g class="st12">
					<path class="st6" d="M43.7,26L41,24.5c0,0,0,0,0-0.1L43.7,26C43.7,25.9,43.7,26,43.7,26"/>
				</g>
			</g>
			<g class="st0">
				<defs>
					<path id="SVGID_15_" class="st0" d="M43.7,25.9L41,24.4c0-0.1,0-0.1,0-0.2l2.7,1.5C43.8,25.8,43.7,25.9,43.7,25.9z"/>
				</defs>
				<clipPath id="SVGID_16_">
					<use xlink:href="#SVGID_15_"  style="overflow:visible;"/>
				</clipPath>
				<g class="st13">
					<path class="st6" d="M43.7,25.9L41,24.4c0-0.1,0-0.1,0-0.2l2.7,1.5C43.8,25.8,43.7,25.9,43.7,25.9"/>
				</g>
			</g>
			<g class="st0">
				<defs>
					<path id="SVGID_17_" class="st0" d="M43.8,25.7L41,24.2c0,0,0-0.1,0-0.1L43.8,25.7C43.8,25.7,43.8,25.7,43.8,25.7z"/>
				</defs>
				<clipPath id="SVGID_18_">
					<use xlink:href="#SVGID_17_"  style="overflow:visible;"/>
				</clipPath>
				<g class="st14">
					<path class="st6" d="M43.8,25.7L41,24.2c0,0,0-0.1,0-0.1L43.8,25.7C43.8,25.7,43.8,25.7,43.8,25.7"/>
				</g>
			</g>
			<g class="st0">
				<defs>
					<path id="SVGID_19_" class="st0" d="M43.8,25.6L41,24.2c0-0.1,0-0.1,0-0.2l2.7,1.5C43.8,25.5,43.8,25.6,43.8,25.6z"/>
				</defs>
				<clipPath id="SVGID_20_">
					<use xlink:href="#SVGID_19_"  style="overflow:visible;"/>
				</clipPath>
				<g class="st15">
					<path class="st6" d="M43.8,25.6L41,24.2c0-0.1,0-0.1,0-0.2l2.7,1.5C43.8,25.5,43.8,25.6,43.8,25.6"/>
				</g>
			</g>
			<g class="st0">
				<defs>
					<path id="SVGID_21_" class="st0" d="M43.8,25.5L41.1,24c0-0.1,0-0.2,0-0.3l2.7,1.5C43.8,25.3,43.8,25.4,43.8,25.5z"/>
				</defs>
				<clipPath id="SVGID_22_">
					<use xlink:href="#SVGID_21_"  style="overflow:visible;"/>
				</clipPath>
				<g class="st16">
					<path class="st6" d="M43.8,25.5L41.1,24c0-0.1,0-0.2,0-0.3l2.7,1.5C43.8,25.3,43.8,25.4,43.8,25.5"/>
				</g>
			</g>
			<g class="st0">
				<defs>
					<path id="SVGID_23_" class="st0" d="M43.9,24.9l-2.7-1.5c0-0.1,0-0.2,0-0.3l2.7,1.5C43.9,24.7,43.9,24.8,43.9,24.9z"/>
				</defs>
				<clipPath id="SVGID_24_">
					<use xlink:href="#SVGID_23_"  style="overflow:visible;"/>
				</clipPath>
				<g class="st17">
					<path class="st6" d="M43.9,24.9l-2.7-1.5c0-0.1,0-0.2,0-0.3l2.7,1.5C43.9,24.7,43.9,24.8,43.9,24.9"/>
				</g>
			</g>
			<g class="st0">
				<defs>
					<path id="SVGID_25_" class="st0" d="M31.8,34.4l-2.7-1.5c2-1.7,3.5-4,4-6.9l2.7,1.5C35.3,30.4,33.8,32.7,31.8,34.4z"/>
				</defs>
				<clipPath id="SVGID_26_">
					<use xlink:href="#SVGID_25_"  style="overflow:visible;"/>
				</clipPath>
				<g class="st18">
					<path class="st19" d="M31.8,34.4l-2.7-1.5c0.1-0.1,0.3-0.2,0.4-0.3l2.7,1.5C32.1,34.2,31.9,34.3,31.8,34.4"/>
					<path class="st20" d="M32.2,34.1l-2.7-1.5c0.3-0.3,0.6-0.6,0.9-0.9l2.7,1.5C32.8,33.5,32.5,33.8,32.2,34.1"/>
					<path class="st21" d="M33.1,33.2l-2.7-1.5c0.3-0.3,0.5-0.6,0.8-1l2.7,1.5C33.6,32.5,33.4,32.8,33.1,33.2"/>
					<path class="st22" d="M33.9,32.2l-2.7-1.5c0.3-0.4,0.5-0.7,0.7-1.1l2.7,1.5C34.4,31.4,34.1,31.8,33.9,32.2"/>
					<path class="st23" d="M34.6,31l-2.7-1.5c0.3-0.5,0.5-1,0.7-1.5l2.7,1.5C35.1,30.1,34.8,30.6,34.6,31"/>
					<path class="st24" d="M35.3,29.5L32.5,28c0.2-0.6,0.4-1.3,0.5-2l2.7,1.5C35.7,28.2,35.5,28.9,35.3,29.5"/>
				</g>
			</g>
			<g>
				<polygon class="st25" points="38,38.8 35.3,37.3 29.1,32.9 31.8,34.4 				"/>
			</g>
			<g class="st0">
				<defs>
					<path id="SVGID_27_" class="st0" d="M19.1,36.1l-2.7-1.5c1.8,1,3.9,1.4,6.2,1.1c2.5-0.4,4.7-1.3,6.5-2.8l2.7,1.5
						c-1.8,1.5-4,2.4-6.5,2.8C23,37.5,20.9,37.1,19.1,36.1z"/>
				</defs>
				<clipPath id="SVGID_28_">
					<use xlink:href="#SVGID_27_"  style="overflow:visible;"/>
				</clipPath>
				<g class="st26">
					<path class="st27" d="M19.1,36.1l-2.7-1.5c0.1,0.1,0.2,0.1,0.3,0.2l2.7,1.5C19.3,36.2,19.2,36.2,19.1,36.1"/>
					<path class="st28" d="M19.5,36.3l-2.7-1.5c0.6,0.3,1.2,0.5,1.8,0.7l2.7,1.5C20.6,36.8,20,36.6,19.5,36.3"/>
					<path class="st29" d="M21.3,37l-2.7-1.5c1.2,0.3,2.6,0.4,4,0.2c1.4-0.2,2.8-0.6,4-1.2l2.7,1.5c-1.2,0.6-2.6,1-4,1.2
						C23.9,37.4,22.5,37.3,21.3,37"/>
					<path class="st28" d="M29.3,36l-2.7-1.5c0.6-0.3,1.2-0.6,1.8-1L31,35C30.5,35.4,29.9,35.7,29.3,36"/>
					<path class="st27" d="M31,35l-2.7-1.5c0.3-0.2,0.5-0.4,0.8-0.6l2.7,1.5C31.6,34.6,31.3,34.8,31,35"/>
				</g>
			</g>
			<g class="st0">
				<defs>
					<path id="SVGID_29_" class="st0" d="M28.7,11.8l2.7,1.5c0.4,0.2,0.8,0.5,1.1,0.7l-2.7-1.5C29.4,12.2,29.1,12,28.7,11.8z"/>
				</defs>
				<clipPath id="SVGID_30_">
					<use xlink:href="#SVGID_29_"  style="overflow:visible;"/>
				</clipPath>
				<g class="st30">
					<path class="st31" d="M32.5,14l-2.7-1.5c-0.4-0.3-0.7-0.5-1.1-0.7l2.7,1.5C31.8,13.5,32.2,13.7,32.5,14"/>
				</g>
			</g>
			<g>
				<polygon class="st32" points="25.3,29 22.6,27.5 22.6,19.4 25.3,20.8 				"/>
			</g>
			<g class="st0">
				<defs>
					<path id="SVGID_31_" class="st0" d="M12.1,42.5C9,40.9,6.6,38.3,5,35l2.7,1.5c1.6,3.3,4,5.9,7.1,7.5C14,43.6,12.9,43,12.1,42.5
						z"/>
				</defs>
				<clipPath id="SVGID_32_">
					<use xlink:href="#SVGID_31_"  style="overflow:visible;"/>
				</clipPath>
				<g class="st33">
					<path class="st6" d="M14.8,44l-2.7-1.5C9,40.9,6.6,38.3,5,35l2.7,1.5C9.3,39.8,11.8,42.4,14.8,44"/>
				</g>
			</g>
			<g>
				<path class="st34" d="M38,38.8c2.8-3.2,4.8-7.4,5.6-12.3c-1.7,11-9.7,18.1-18.4,19.3c-7.7,1.1-14.4-2.8-17.6-9.3l6.6-6.4
					c1.5,4.8,5.8,7.8,11,7c2.5-0.4,4.7-1.3,6.5-2.8L38,38.8z"/>
			</g>
			<g>
				<path class="st35" d="M43.6,18.3c0.3,1.2,0.4,2.5,0.4,3.8c0,0.1,0,0.2,0,0.3c0,0,0,0.1,0,0.1c0,0.1,0,0.2,0,0.2c0,0,0,0.1,0,0.1
					c0,0.1,0,0.1,0,0.2c0,0,0,0.1,0,0.1c0,0.1,0,0.1,0,0.2c0,0,0,0.1,0,0.1c0,0.1,0,0.2,0,0.2c0,0,0,0,0,0.1c0,0.1,0,0.2,0,0.2
					c0,0.1,0,0.2,0,0.3c0,0.1,0,0.2,0,0.3c0,0.1,0,0.2,0,0.3c0,0.1,0,0.2,0,0.3c-0.6,5.5-2.8,10.1-5.8,13.6l-6.2-4.3
					c2-1.7,3.5-4,4-6.9L25.3,29l0-8.2L43.6,18.3z"/>
			</g>
			<g>
				<polygon class="st36" points="25.3,20.8 22.6,19.4 40.8,16.8 43.6,18.3 				"/>
			</g>
			<g>
				<polygon class="st37" points="7.7,36.5 5,35 11.6,28.6 14.3,30.1 				"/>
			</g>
			<g class="st0">
				<defs>
					<path id="SVGID_33_" class="st0" d="M33,3.9l2.7,1.5c-3-1.6-6.5-2.3-10.4-1.8l-2.7-1.5C26.5,1.5,30,2.2,33,3.9z"/>
				</defs>
				<clipPath id="SVGID_34_">
					<use xlink:href="#SVGID_33_"  style="overflow:visible;"/>
				</clipPath>
				<g class="st38">
					<path class="st39" d="M25.4,3.5l-2.7-1.5c2.4-0.3,4.6-0.2,6.7,0.3l2.7,1.5C30,3.4,27.7,3.2,25.4,3.5"/>
					<path class="st40" d="M32.1,3.9l-2.7-1.5c1.1,0.3,2.1,0.7,3.1,1.1L35.2,5C34.2,4.6,33.1,4.2,32.1,3.9"/>
					<path class="st41" d="M35.2,5l-2.7-1.5c0.2,0.1,0.4,0.2,0.6,0.3l2.7,1.5C35.6,5.2,35.4,5.1,35.2,5"/>
				</g>
			</g>
			<g>
				<polygon class="st42" points="14.3,22.3 11.6,20.8 5,16.3 7.8,17.8 				"/>
			</g>
			<g class="st0">
				<defs>
					<path id="SVGID_35_" class="st0" d="M7.7,36.5L5,35c-1.3-2.6-2-5.7-2-9.1c0-3.4,0.7-6.6,2-9.6l2.7,1.5c-1.3,3-2,6.3-2,9.6
						C5.7,30.8,6.4,33.9,7.7,36.5z"/>
				</defs>
				<clipPath id="SVGID_36_">
					<use xlink:href="#SVGID_35_"  style="overflow:visible;"/>
				</clipPath>
				<g class="st43">
					<path class="st44" d="M7.7,36.5L5,35c-1.3-2.6-2-5.7-2-9.1c0-2.9,0.6-5.7,1.5-8.4L7.3,19c-1,2.6-1.5,5.5-1.5,8.4
						C5.7,30.8,6.4,33.9,7.7,36.5"/>
					<path class="st45" d="M7.3,19l-2.7-1.5c0.2-0.4,0.3-0.8,0.5-1.3l2.7,1.5C7.6,18.2,7.4,18.6,7.3,19"/>
				</g>
			</g>
			<g>
				<path class="st46" d="M7.8,17.8l6.6,4.5c-0.4,1.3-0.6,2.6-0.6,4c0,1.4,0.2,2.7,0.6,3.8l-6.6,6.4c-1.3-2.6-2-5.7-2-9.1
					C5.7,24.1,6.5,20.8,7.8,17.8z"/>
			</g>
			<g class="st0">
				<defs>
					<path id="SVGID_37_" class="st0" d="M7.8,17.8L5,16.3C8.2,8.9,14.9,3.1,22.6,2.1l2.7,1.5C17.6,4.6,11,10.4,7.8,17.8z"/>
				</defs>
				<clipPath id="SVGID_38_">
					<use xlink:href="#SVGID_37_"  style="overflow:visible;"/>
				</clipPath>
				<g class="st47">
					<path class="st48" d="M7.8,17.8L5,16.3c0.3-0.7,0.6-1.4,1-2l2.7,1.5C8.4,16.4,8.1,17.1,7.8,17.8"/>
					<path class="st49" d="M8.7,15.8L6,14.3c0.5-0.9,1-1.7,1.6-2.6l2.7,1.5C9.7,14,9.2,14.9,8.7,15.8"/>
					<path class="st50" d="M10.3,13.2l-2.7-1.5c0.5-0.8,1.1-1.5,1.7-2.2l2.7,1.5C11.4,11.7,10.9,12.4,10.3,13.2"/>
					<path class="st51" d="M12.1,11L9.3,9.5c0.6-0.7,1.3-1.4,2-2L14,9C13.3,9.6,12.7,10.3,12.1,11"/>
					<path class="st41" d="M14,9l-2.7-1.5c0.8-0.7,1.5-1.3,2.4-1.9l2.7,1.5C15.6,7.7,14.8,8.3,14,9"/>
					<path class="st40" d="M16.4,7.1l-2.7-1.5c1-0.7,2.1-1.3,3.2-1.8l2.7,1.5C18.5,5.8,17.4,6.4,16.4,7.1"/>
					<path class="st39" d="M19.6,5.3l-2.7-1.5c1.8-0.9,3.8-1.5,5.8-1.7l2.7,1.5C23.3,3.8,21.4,4.4,19.6,5.3"/>
				</g>
			</g>
			<g>
				<path class="st52" d="M25.4,3.5c5-0.7,9.4,0.7,12.9,3.5L32.5,14c-2-1.5-4.4-2.2-7.2-1.8c-5.1,0.7-9.5,4.9-11,10.1l-6.6-4.5
					C11,10.4,17.6,4.6,25.4,3.5z"/>
			</g>
		</g>
	</g>
</g>
</svg>
