<?xml version="1.0" encoding="utf-8"?>
<!-- Generator: Adobe Illustrator 22.0.0, SVG Export Plug-In . SVG Version: 6.00 Build 0)  -->
<svg version="1.1" id="HTML5" xmlns="http://www.w3.org/2000/svg" xmlns:xlink="http://www.w3.org/1999/xlink" x="0px" y="0px"
	 viewBox="0 0 4000 4000" style="enable-background:new 0 0 4000 4000;" xml:space="preserve">
<style type="text/css">
	.st0{fill:#E44D25;}
	.st1{fill:#F58547;}
	.st2{fill:#FFFFFF;}
	.st3{fill:#E34E25;}
</style>
<g>
	<polygon class="st0" points="947.2,1132.7 3020.5,1132.7 2924.6,3098.1 1983.8,3496.3 1040.8,3105.1 	"/>
	<polygon class="st1" points="1984.1,1348.3 2803.3,1348.4 2725.2,2949.8 1983.1,3263.9 	"/>
	<polygon id="_x35_" class="st2" points="2613,1521.6 1353.1,1521.6 1418.9,2388.2 2286.4,2388.2 2258.8,2667.3 1983.1,2769.4 
		1711.6,2676.4 1681.9,2578.8 1442.2,2578.8 1471.9,2864.7 1985.2,3064.3 2505.1,2845.2 2566.3,2100.1 1652.2,2100.1 1631,1812 
		2589.7,1812 	"/>
	<g>
		<path class="st3" d="M947.2,506.7h136.3V661h148.9V506.7h136.9v441h-136.9V769.3h-148.9v178.4H947.2V506.7z"/>
		<path class="st3" d="M1490.4,506.7h414.3v108.9h-139v332.1h-136.3V615.6h-139V506.7z"/>
		<path class="st3" d="M2026.5,506.7h179.2l69.1,268.3l68.6-268.3h179.1v441h-111.6V611.4l-86,336.3h-101l-85.8-336.3v336.3h-111.6
			V506.7z"/>
		<path class="st3" d="M2671.1,506.7h136.3v332.4h212.7v108.6h-349V506.7z"/>
	</g>
</g>
</svg>
