<svg id="HTML5" xmlns="http://www.w3.org/2000/svg" xmlns:xlink="http://www.w3.org/1999/xlink" viewBox="0 0 4e3 4e3" style="enable-background:new 0 0 4e3 4e3"><style>.st0{fill:#e44d25}.st1{fill:#f58547}.st2{fill:#fff}.st3{fill:#e34e25}</style><g><path class="st0" d="M947.2 1132.7H3020.5L2924.6 3098.1 1983.8 3496.3 1040.8 3105.1z"/><path class="st1" d="M1984.1 1348.3 2803.3 1348.4 2725.2 2949.8 1983.1 3263.9z"/><path id="_x35_" class="st2" d="M2613 1521.6H1353.1L1418.9 2388.2h867.5L2258.8 2667.3 1983.1 2769.4l-271.5-93L1681.9 2578.8H1442.2L1471.9 2864.7 1985.2 3064.3 2505.1 2845.2 2566.3 2100.1H1652.2L1631 1812H2589.7z"/><g><path class="st3" d="M947.2 506.7h136.3V661h148.9V506.7h136.9v441h-136.9V769.3h-148.9v178.4H947.2V506.7z"/><path class="st3" d="M1490.4 506.7h414.3v108.9h-139v332.1h-136.3V615.6h-139V506.7z"/><path class="st3" d="M2026.5 506.7h179.2l69.1 268.3 68.6-268.3h179.1v441h-111.6V611.4l-86 336.3h-101l-85.8-336.3v336.3h-111.6V506.7z"/><path class="st3" d="M2671.1 506.7h136.3v332.4h212.7v108.6h-349V506.7z"/></g></g></svg>