<svg id="JS" xmlns="http://www.w3.org/2000/svg" xmlns:xlink="http://www.w3.org/1999/xlink" viewBox="0 0 4e3 4e3" style="enable-background:new 0 0 4e3 4e3"><style>.st0{enable-background:new}.st1{fill:#af5f17}.st2{fill:#b36117}.st3{fill:#b66318}.st4{fill:#bc7d17}.st5{fill:#bc6619}.st6{fill:#b96519}.st7{fill:#c0681a}.st8{fill:#b57816}.st9{fill:#a16b13}.st10{fill:#a66f14}.st11{fill:#e3941d}.st12{fill:#c38118}.st13{fill:#ac7315}.st14{fill:#9d5613}.st15{fill:#a35914}.st16{fill:#a85c15}.st17{fill:#dd761f}.st18{fill:#a9a9a9}.st19{fill:#ababab}.st20{fill:#818181}.st21{fill:#828282}.st22{fill:#b4b4b4}.st23{fill:#dfdfdf}.st24{fill:#b1b1b1}.st25{fill:#838383}.st26{fill:#b5b5b5}.st27{fill:#a75b14}.st28{fill:#9c5512}.st29{fill:#ea7c20}.st30{clip-path:url(#SVGID_2_);enable-background:new}.st31{fill:#a15813}.st32{fill:#9d5612}.st33{fill:#995411}.st34{fill:#955210}.st35{clip-path:url(#SVGID_4_);enable-background:new}.st36{clip-path:url(#SVGID_6_);enable-background:new}.st37{fill:#975311}.st38{clip-path:url(#SVGID_8_);enable-background:new}.st39{clip-path:url(#SVGID_10_);enable-background:new}.st40{clip-path:url(#SVGID_12_);enable-background:new}.st41{clip-path:url(#SVGID_14_);enable-background:new}.st42{fill:#945110}.st43{clip-path:url(#SVGID_16_);enable-background:new}.st44{clip-path:url(#SVGID_18_);enable-background:new}.st45{clip-path:url(#SVGID_20_);enable-background:new}.st46{clip-path:url(#SVGID_22_);enable-background:new}.st47{clip-path:url(#SVGID_24_);enable-background:new}.st48{clip-path:url(#SVGID_26_);enable-background:new}.st49{clip-path:url(#SVGID_28_);enable-background:new}.st50{clip-path:url(#SVGID_30_);enable-background:new}.st51{fill:#9e5713}.st52{clip-path:url(#SVGID_32_);enable-background:new}.st53{clip-path:url(#SVGID_34_);enable-background:new}.st54{fill:#9e5612}.st55{fill:#ad5f16}.st56{fill:#ad5e15}.st57{fill:#9e5613}.st58{clip-path:url(#SVGID_36_);enable-background:new}.st59{fill:#9f5713}.st60{clip-path:url(#SVGID_38_);enable-background:new}</style><g><g><g class="st0"><g><path class="st1" d="M1919.6 3192.2 1887.4 3182.9 2554.8 2784.6 2580 2798.1z"/></g><g><path class="st2" d="M2580 2798.1 2554.8 2784.6 2627.4 1229.9l25 20z"/></g><g><path class="st3" d="M2044.6 3260.2l-125-68L2580 2798.1l125 68z"/></g><g><path class="st4" d="M2044.6 3260.2l-125-68L1923.1 1352.3l125 68z"/></g><g><path class="st5" d="M2069.7 3282.1 2044.6 3260.2 2705 2866.1 2737.1 2883.8z"/></g><g><path class="st6" d="M2705 2866.1l-125-68L2652.4 1249.9l125 68z"/></g><g><path class="st7" d="M2737.1 2883.8 2705 2866.1 2777.4 1317.9 2809.8 1329.1z"/></g><g><path class="st8" d="M1919.6 3192.2 1894.5 3170.3 1897.9 1340 1923.1 1352.3z"/></g><g><path class="st9" d="M1923.1 1352.3 1897.9 1340 2620 1238.6 2652.4 1249.9z"/></g><g><path class="st10" d="M2048.1 1420.3l-125-68L2652.4 1249.9l125 68z"/></g><g><path class="st11" d="M2080.3 1439.2 2802.3 1337.8 2730.2 2879.6 2076.9 3269.5z"/></g><g><path class="st12" d="M2076.9 3269.5 2044.6 3260.2 2048.1 1420.3 2080.3 1439.2z"/></g><g><path class="st13" d="M2080.3 1439.2 2048.1 1420.3 2777.4 1317.9 2802.3 1337.8z"/></g><g><path class="st14" d="M1000.7 1274.9 975.8 1262.6 2813.7 1004.3 2846.1 1015.5z"/></g><g><path class="st1" d="M1080.6 3157.9 1055.3 3139.2 975.8 1262.6 1000.7 1274.9z"/></g><g><path class="st15" d="M1125.8 1342.9 1000.7 1274.9 2846.1 1015.5l125 68z"/></g><g><path class="st3" d="M1205.6 3225.9l-125-68L1000.7 1274.9 1125.8 1342.9z"/></g><g><path class="st16" d="M1158.1 1361.8 1125.8 1342.9 2971.1 1083.5l25 20z"/></g><g><path class="st17" d="M1158.1 1361.8 2996 1103.5 2907.5 2997l-834.6 498.2-835.2-256.8L1158.1 1361.8zM2737.1 2883.8l72.7-1554.7-736.6 103.4-3.4 1849.6L2737.1 2883.8"/></g><g><path class="st5" d="M1237.7 3238.4 1205.6 3225.9 1125.8 1342.9 1158.1 1361.8z"/></g></g></g></g><g><g><g class="st0"><g><path class="st18" d="M1724.6 2703.2 1633.4 2653.6 1774.3 2691.1 1865.5 2740.6z"/></g><g><path class="st19" d="M1535.9 2553.7 1444.7 2504.1 1630.3 2541.2 1721.5 2590.8z"/></g><g><path class="st20" d="M1551.4 2921.4 1460.2 2871.8 1444.7 2504.1 1535.9 2553.7z"/></g><g><path class="st21" d="M1865.5 2740.6 1774.3 2691.1 1746.4 1569.3 1837.5 1618.9z"/></g><g><path class="st22" d="M1837.5 1618.9 1746.4 1569.3l217-30.5L2054.6 1588.4z"/></g><g><path class="st23" d="M2054.6 1588.4 2051.8 3066.1 1551.4 2921.4 1535.9 2553.7 1721.5 2590.8 1724.6 2703.2 1865.5 2740.6 1837.5 1618.9z"/></g></g><g class="st0"><g><path class="st24" d="M2360.3 2671.1 2269.1 2621.5 2407.7 2544.8 2498.9 2594.4z"/></g><g><path class="st25" d="M2498.9 2594.4 2407.7 2544.8 2417.2 2240.7 2508.4 2290.3z"/></g><g><path class="st21" d="M2163.4 3054.7 2072.2 3005.1 2072.7 2730.2 2163.9 2779.8z"/></g><g><path class="st21" d="M2163.9 2779.8 2072.7 2730.2 2073.1 2529.1 2164.3 2578.7z"/></g><g><path class="st26" d="M2164.3 2578.7 2073.1 2529.1 2273.1 2468.4 2364.3 2518z"/></g><g><path class="st26" d="M2384.2 2085.2 2293 2035.6 2618.6 1979.3 2709.8 2028.9z"/></g><g><path class="st25" d="M2522.1 1851.5 2431 1801.9 2433.1 1732.7 2524.3 1782.3z"/></g><g><path class="st23" d="M2736.9 1492.5 2718.6 1819.2 2522.1 1851.5 2524.3 1782.3 2392.9 1800.8 2384.2 2085.2 2709.8 2028.9 2671.3 2764 2163.4 3054.7 2163.9 2779.8 2164.3 2578.7 2364.3 2518 2360.3 2671.1 2498.9 2594.4 2508.4 2290.3 2164.6 2367.6 2166.1 1572.7z"/></g><g><path class="st21" d="M2164.6 2367.6 2073.5 2318 2074.9 1523.1 2166.1 1572.7z"/></g><g><path class="st22" d="M2166.1 1572.7 2074.9 1523.1 2645.7 1442.9 2736.9 1492.5z"/></g></g></g></g><g><g><g class="st0"><g><path class="st27" d="M2812.8 665.7 2767.2 640.9 2767.6 427.8 2813.2 452.6z"/></g><g><path class="st27" d="M2742.7 462.5 2697.1 437.7 2697.2 394.3 2742.8 419.1z"/></g><g><path class="st28" d="M2742.8 419.1 2697.2 394.3 2886.1 367.8 2931.6 392.6z"/></g><g><path class="st29" d="M2931.6 392.6V436L2861.2 445.9 2860.8 659 2812.8 665.7 2813.2 452.6 2742.7 462.5 2742.8 419.1z"/></g></g><g class="st0"><g class="st0"><defs><path id="SVGID_1_" class="st0" d="M2632.4 453.7l45.6 24.8c2.5 1.4 4.8 3.1 6.8 5.3 5.1 5.3 7.6 12.7 7.6 22 0 7.6-1.8 14.5-5.5 20.7l-45.6-24.8c3.6-6.2 5.5-13.1 5.5-20.7.0-9.3-2.5-16.7-7.6-22C2637.2 456.8 2634.9 455.1 2632.4 453.7z"/></defs><clipPath id="SVGID_2_"><use xlink:href="#SVGID_1_" style="overflow:visible"/></clipPath><g class="st30"><path class="st31" d="M2686.9 526.5l-45.6-24.8c2.8-4.8 4.5-10.1 5.2-15.7l45.6 24.8C2691.5 516.5 2689.8 521.7 2686.9 526.5"
						/><path class="st32" d="M2692.1 510.8l-45.6-24.8c.2-1.6.3-3.3.3-5 0-2.5-.2-4.8-.5-7l45.6 24.8c.4 2.2.5 4.5.5 7C2692.4 507.5 2692.3 509.2 2692.1 510.8"/><path class="st33" d="M2691.9 498.8l-45.6-24.8c-.5-3.1-1.3-5.9-2.5-8.4l45.6 24.8C2690.6 492.9 2691.4 495.7 2691.9 498.8"/><path class="st34" d="M2689.4 490.4l-45.6-24.8c-1.2-2.5-2.7-4.7-4.5-6.6-2.1-2.2-4.3-3.9-6.8-5.3l45.6 24.8c2.5 1.4 4.8 3.1 6.8 5.3C2686.7 485.7 2688.2 487.9 2689.4 490.4"/></g></g><g class="st0"><defs><path id="SVGID_3_" class="st0" d="M2634 550.6l-45.6-24.8c18.9-2.7 31.6-5.8 37.9-9.4 6.4-3.6 11.4-8.5 15-14.7l45.6 24.8c-3.6 6.2-8.6 11.1-15 14.7C2665.5 544.8 2652.9 547.9 2634 550.6z"/></defs><clipPath id="SVGID_4_"><use xlink:href="#SVGID_3_" style="overflow:visible"/></clipPath><g class="st35"><path class="st33" d="M2634 550.6l-45.6-24.8c15.9-2.2 27.4-4.8 34.4-7.7l45.6 24.8C2661.4 545.8 2649.9 548.3 2634 550.6"/><path class="st32" d="M2668.4 542.9l-45.6-24.8c1.3-.5 2.5-1.1 3.5-1.7 1.9-1.1 3.6-2.2 5.3-3.5l45.6 24.8c-1.6 1.3-3.4 2.4-5.3 3.5C2670.9 541.8 2669.7 542.3 2668.4 542.9"/><path class="st31" d="M2677.2 537.7l-45.6-24.8c3.9-3.1 7.2-6.8 9.7-11.2l45.6 24.8C2684.4 530.9 2681.1 534.6 2677.2 537.7"/></g></g><g><path class="st28" d="M2607.7 554.3 2562.1 529.5 2588.4 525.8 2634 550.6z"/></g><g class="st0"><defs><path id="SVGID_5_" class="st0" d="M2665.5 410.6l45.6 24.8c-5.2-2.9-11-4.7-17.1-5.6-8.9-1.3-27.9.1-57.1 4.2l-45.6-24.8c29.2-4.1 48.2-5.5 57.1-4.2C2654.6 405.9 2660.3 407.8 2665.5 410.6z"/></defs><clipPath id="SVGID_6_"><use xlink:href="#SVGID_5_" style="overflow:visible"/></clipPath><g class="st36"><path class="st33" d="M2637 434l-45.6-24.8c9.2-1.3 17.4-2.3 24.6-3.1l45.6 24.8C2654.4 431.7 2646.2 432.7 2637 434"/><path class="st34" d="M2661.6 430.9l-45.6-24.8c15.6-1.6 26.4-2 32.4-1.1 6.2.9 11.9 2.7 17.1 5.6l45.6 24.8c-5.2-2.9-11-4.7-17.1-5.6C2688 428.9 2677.1 429.3 2661.6 430.9"/></g></g><g><path class="st28" d="M2560 444.8 2514.4 420 2591.4 409.2 2637 434z"/></g><g><path class="st27" d="M2559.5 701.3 2513.9 676.5l.5-256.5L2560 444.8z"/></g><g><path class="st29" d="M2728.2 450.1c9.2 11.6 13.7 27.6 13.7 48 0 15.7-2.7 29.4-8 40.8-5.3 11.5-12.1 20.9-20.2 28.1-8.2 7.3-16.5 12.5-24.9 15.7-11.5 4.1-28.1 7.6-49.8 10.7l-31.3 4.4-.2 96.8-48 6.7.5-256.5 77-10.8c29.2-4.1 48.2-5.5 57.1-4.2C2707.6 431.8 2719 438.5 2728.2 450.1zM2686.9 526.5c3.6-6.2 5.5-13.1 5.5-20.7.0-9.3-2.5-16.7-7.6-22-5.1-5.4-11.5-8.2-19.3-8.7-5.7-.4-17.2.7-34.5 3.1l-23.2 3.3-.1 72.8 26.3-3.7c18.9-2.7 31.6-5.8 37.9-9.4C2678.3 537.6 2683.3 532.7 2686.9 526.5"/></g></g><g class="st0"><g><path class="st27" d="M2487.4 711.5 2441.8 686.7 2442.3 430.2 2487.8 455z"/></g><g><path class="st28" d="M2487.8 455 2442.3 430.2 2490.2 423.4 2535.8 448.2z"/></g><g><path class="st29" d="M2535.8 448.2 2535.4 704.7 2487.4 711.5 2487.8 455z"/></g></g><g class="st0"><g><path class="st37" d="M2427.1 719.9 2381.5 695.1 2346.9 644.2 2392.5 669z"/></g><g class="st0"><defs><path id="SVGID_7_" class="st0" d="M2361.6 587.7l45.6 24.8c-1.5-.8-3-1.6-4.5-2.3l-45.6-24.8C2358.6 586.2 2360.1 586.9 2361.6 587.7z"/></defs><clipPath id="SVGID_8_"><use xlink:href="#SVGID_7_" style="overflow:visible"/></clipPath><g class="st38"><path class="st34" d="M2402.7 610.2l-45.6-24.8c1.5.8 3 1.5 4.5 2.3l45.6 24.8C2405.7 611.7 2404.2 611 2402.7 610.2"/></g></g><g class="st0"><defs><path id="SVGID_9_" class="st0" d="M2313.6 603.9l45.6 24.8c2.8 1.5 5.5 3.6 8.1 6.2 4.5 4.6 12.9 15.9 25.2 34.2l-45.6-24.8c-12.3-18.2-20.7-29.6-25.2-34.2C2319.1 607.4 2316.4 605.4 2313.6 603.9z"/></defs><clipPath id="SVGID_10_"><use xlink:href="#SVGID_9_" style="overflow:visible"/></clipPath><g class="st39"><path class="st34" d="M2392.5 669l-45.6-24.8c-12.3-18.2-20.7-29.6-25.2-34.2-2.6-2.6-5.3-4.7-8.1-6.2l45.6 24.8c2.8 1.5 5.5 3.6 8.1 6.2C2371.8 639.4 2380.2 650.8 2392.5 669"/></g></g><g class="st0"><defs><path id="SVGID_11_" class="st0" d="M2358.5 491.1l45.6 24.8c2.1 1.2 4 2.6 5.6 4.4 4.3 4.7 6.4 11.4 6.4 20 0 7.7-1.7 14.3-4.9 19.9-3.2 5.6-7.7 9.8-13.5 12.7-5.7 2.9-20.1 6-43.1 9.2l-45.6-24.8c23-3.2 37.4-6.3 43.1-9.2s10.2-7.2 13.5-12.7c3.3-5.6 4.9-12.2 4.9-19.9.0-8.6-2.1-15.3-6.4-20C2362.5 493.7 2360.6 492.2 2358.5 491.1z"/></defs><clipPath id="SVGID_12_"><use xlink:href="#SVGID_11_" style="overflow:visible"/></clipPath><g class="st40"><path class="st33" d="M2354.6 582.1l-45.6-24.8c21.1-3 34.9-5.8 41.5-8.5l45.6 24.8C2389.5 576.4 2375.7 579.2 2354.6 582.1"/><path class="st32" d="M2396.1 573.7l-45.6-24.8c.6-.2 1.1-.5 1.6-.7 2-1 3.8-2.1 5.4-3.4l45.6 24.8c-1.7 1.3-3.5 2.4-5.4 3.4C2397.2 573.2 2396.7 573.4 2396.1 573.7"/><path class="st31" d="M2403.1 569.5l-45.6-24.8c3.2-2.5 5.9-5.6 8-9.3 2.4-4.2 4-9 4.6-14.4l45.6 24.8c-.6 5.4-2.1 10.2-4.6 14.4C2409 563.9 2406.4 567 2403.1 569.5"/><path class="st32" d="M2415.8 545.8l-45.6-24.8c.2-1.8.3-3.6.3-5.5.0-2.5-.2-4.8-.5-6.9l45.6 24.8c.3 2.1.5 4.4.5 6.9C2416.1 542.2 2416 544 2415.8 545.8"/><path class="st33" d="M2415.6 533.4l-45.6-24.8c-.5-2.9-1.2-5.5-2.3-7.8l45.6 24.8C2414.3 527.9 2415.1 530.5 2415.6 533.4"/><path class="st34" d="M2413.2 525.6l-45.6-24.8c-.9-2-2.1-3.8-3.5-5.3-1.6-1.8-3.5-3.3-5.6-4.4l45.6 24.8c2.1 1.2 4 2.6 5.6 4.4C2411.1 521.8 2412.3 523.6 2413.2 525.6"/></g></g><g><path class="st28" d="M2319.1 587.1 2273.5 562.3l35.5-5L2354.6 582.1z"/></g><g class="st0"><defs><path id="SVGID_13_" class="st0" d="M2392.3 449.6l45.6 24.8c-3.2-1.7-6.6-3.1-10.2-4-11.5-3-29.9-2.7-55.3.9l-45.6-24.8c25.4-3.6 43.8-3.9 55.3-.9C2385.7 446.5 2389.1 447.8 2392.3 449.6z"/></defs><clipPath id="SVGID_14_"><use xlink:href="#SVGID_13_" style="overflow:visible"/></clipPath><g class="st41"><path class="st33" d="M2372.3 471.2l-45.6-24.8c4.5-.6 8.8-1.2 12.9-1.6l45.6 24.8C2381.1 470 2376.8 470.6 2372.3 471.2"/><path class="st34" d="M2385.2 469.6l-45.6-24.8c18.9-2 33-1.7 42.5.7 3.6.9 7.1 2.3 10.2 4l45.6 24.8c-3.2-1.7-6.6-3.1-10.2-4C2418.2 467.9 2404 467.6 2385.2 469.6"/></g></g><g><path class="st28" d="M2271.3 485.4 2225.7 460.6 2326.7 446.4 2372.3 471.2z"/></g><g><path class="st27" d="M2270.8 741.9 2225.2 717.1l.5-256.5L2271.3 485.4z"/></g><g><path class="st29" d="M2455.5 665.9l28.9 46-57.4 8.1-34.6-50.9c-12.3-18.2-20.7-29.6-25.2-34.2-4.5-4.5-9.3-7.4-14.4-8.7-5.1-1.2-13.1-1-24.2.5l-9.7 1.4-.2 107.1-48 6.7.5-256.5 101-14.2c25.4-3.6 43.8-3.9 55.3-.9 11.5 3 20.7 9.9 27.6 20.7 6.9 10.8 10.3 23.8 10.3 39 0 19.2-5.3 35.9-15.8 49.9-10.5 14-26.2 24.1-47.1 30.3 10.4 5.1 18.9 11 25.7 17.9C2435.1 635 2444.1 647.6 2455.5 665.9zM2354.6 582.1c23-3.2 37.4-6.3 43.1-9.2 5.7-2.9 10.2-7.2 13.5-12.7 3.3-5.6 4.9-12.2 4.9-19.9.0-8.6-2.1-15.3-6.4-20-4.3-4.7-10.3-7.2-18.1-7.5-3.9.0-15.6 1.3-35 4l-37.4 5.3-.1 65.1L2354.6 582.1"/></g></g><g class="st0"><g><path class="st42" d="M2204.7 656.9 2159.1 632.1 2205.6 641.5 2251.2 666.3z"/></g><g class="st0"><defs><path id="SVGID_15_" class="st0" d="M2122.3 714.2l-45.6-24.8c8.5 4.6 18.3 6.1 29.6 4.6 12.8-1.8 23.7-7.7 32.9-17.7 9.2-10 15.8-24.7 19.9-44.1l45.6 24.8c-4 19.3-10.7 34-19.9 44.1-9.2 10-20.2 16-32.9 17.7C2140.7 720.3 2130.8 718.8 2122.3 714.2z"/></defs><clipPath id="SVGID_16_"><use xlink:href="#SVGID_15_" style="overflow:visible"/></clipPath><g class="st43"><path class="st34" d="M2122.3 714.2l-45.6-24.8c7.9 4.3 17 5.9 27.3 4.8l45.6 24.8C2139.4 720.1 2130.3 718.5 2122.3 714.2"/><path class="st33" d="M2149.7 719l-45.6-24.8c.8-.1 1.5-.2 2.3-.3 4.5-.6 8.8-1.8 12.9-3.5l45.6 24.8c-4.1 1.7-8.4 2.8-12.9 3.5C2151.2 718.8 2150.4 718.9 2149.7 719"/><path class="st32" d="M2164.8 715.3l-45.6-24.8c4.5-1.8 8.7-4.3 12.6-7.3l45.6 24.8C2173.5 711 2169.3 713.4 2164.8 715.3"/><path class="st31" d="M2177.4 707.9l-45.6-24.8c2.6-2 5.1-4.4 7.5-6.9 9.2-10 15.8-24.7 19.9-44.1l45.6 24.8c-4 19.3-10.7 34-19.9 44.1C2182.5 703.6 2180 705.9 2177.4 707.9"/></g></g><g class="st0"><defs><path id="SVGID_17_" class="st0" d="M2135.8 521.4l45.6 24.8c1.5.8 2.9 1.7 4.3 2.7 8.9 6.4 14.7 16.1 17.5 29l-45.6-24.8c-2.8-12.9-8.6-22.6-17.5-29C2138.7 523.1 2137.3 522.2 2135.8 521.4z"/></defs><clipPath id="SVGID_18_"><use xlink:href="#SVGID_17_" style="overflow:visible"/></clipPath><g class="st44"><path class="st33" d="M2203.2 577.9l-45.6-24.8c-1-4.7-2.4-8.9-4.2-12.7l45.6 24.8C2200.8 569 2202.2 573.2 2203.2 577.9"/><path class="st34" d="M2199 565.1l-45.6-24.8c-3.2-6.7-7.6-12.2-13.3-16.3-1.4-1-2.8-1.9-4.3-2.7l45.6 24.8c1.5.8 2.9 1.7 4.3 2.7C2191.4 553 2195.8 558.4 2199 565.1"/></g></g><g class="st0"><defs><path id="SVGID_19_" class="st0" d="M2167.2 480.7l45.6 24.8c-15.8-8.6-34.8-11.3-57.1-8.2l-45.6-24.8C2132.4 469.3 2151.4 472.1 2167.2 480.7z"/></defs><clipPath id="SVGID_20_"><use xlink:href="#SVGID_19_" style="overflow:visible"/></clipPath><g class="st45"><path class="st33" d="M2155.7 497.3l-45.6-24.8c1.6-.2 3.2-.4 4.7-.6l45.6 24.8C2158.9 496.8 2157.3 497 2155.7 497.3"/><path class="st34" d="M2160.5 496.7l-45.6-24.8c20.2-2.1 37.6.8 52.3 8.8l45.6 24.8C2198.1 497.5 2180.7 494.6 2160.5 496.7"
						/></g></g><g class="st0"><defs><path id="SVGID_21_" class="st0" d="M2094.6 754.1l-45.6-24.8c-7.2-3.9-13.8-8.9-20-15.1-20.3-20.4-30.4-50.8-30.3-91.2.1-42.7 10.4-77.3 30.8-103.8 20.5-26.5 47.3-42.1 80.6-46.8l45.6 24.8c-33.3 4.7-60.2 20.3-80.6 46.8s-30.7 61.1-30.8 103.8c-.1 40.4 10 70.7 30.3 91.2C2080.7 745.1 2087.4 750.2 2094.6 754.1z"/></defs><clipPath id="SVGID_22_"><use xlink:href="#SVGID_21_" style="overflow:visible"/></clipPath><g class="st46"><path class="st34" d="M2094.6 754.1l-45.6-24.8c-7.2-3.9-13.8-8.9-20-15.1-7.2-7.3-13.2-15.8-17.8-25.7l45.6 24.8c4.6 9.8 10.6 18.4 17.8 25.7C2080.7 745.1 2087.4 750.2 2094.6 754.1"/><path class="st33" d="M2056.8 713.3l-45.6-24.8c-4.8-10-8.1-21.4-10.2-34.1l45.6 24.8C2048.6 691.9 2052 703.2 2056.8 713.3"/><path class="st32" d="M2046.6 679.2l-45.6-24.8c-1.6-9.7-2.3-20.1-2.3-31.4.0-9.2.5-18 1.5-26.4l45.6 24.8c-1 8.4-1.4 17.2-1.5 26.4C2044.3 659 2045 669.5 2046.6 679.2"/><path class="st31" d="M2045.7 621.4l-45.6-24.8c3.5-30.8 13.3-56.6 29.4-77.4 6.7-8.7 14.2-16.3 22.3-22.6l45.6 24.8c-8.1 6.4-15.6 13.9-22.3 22.6C2059 564.8 2049.2 590.6 2045.7 621.4"/><path class="st32" d="M2097.4 521.4l-45.6-24.8c8.4-6.6 17.5-11.9 27.4-15.9l45.6 24.8C2114.9 509.5 2105.8 514.8 2097.4 521.4"/><path class="st33" d="M2124.8 505.5l-45.6-24.8c9.6-3.9 19.9-6.7 31-8.2l45.6 24.8C2144.7 498.8 2134.4 501.6 2124.8 505.5"/></g></g><g><path class="st29" d="M2155.7 497.3c29.1-4.1 52.7 1.9 70.8 17.9 10.8 9.4 18.9 24.1 24.2 43.8l-47.5 18.9c-2.8-12.9-8.6-22.6-17.5-29-8.9-6.5-19.7-8.8-32.5-7-17.6 2.5-31.9 11.3-42.9 26.5-11 15.2-16.5 38.1-16.6 68.6-.1 32.4 5.3 54.8 16.1 67 10.8 12.2 24.8 17.2 42.1 14.7 12.8-1.8 23.7-7.7 32.9-17.7 9.2-10 15.8-24.7 19.9-44.1l46.5 9.4c-7.2 29-19.1 51.5-35.7 67.4-16.6 15.9-37.7 25.7-63.2 29.3-31.6 4.4-57.5-3.6-77.7-24-20.3-20.4-30.4-50.8-30.3-91.2.1-42.7 10.4-77.3 30.8-103.8S2122.5 501.9 2155.7 497.3z"/></g></g><g class="st0"><g class="st0"><defs><path id="SVGID_23_" class="st0" d="M1909 745.4l-45.6-24.8c8 4.3 18 5.6 30.1 3.9 15.5-2.2 27.1-7.3 35-15.5 7.8-8.2 11.8-17 11.8-26.4.0-6.1-1.6-11-4.9-14.8-1.5-1.7-3.4-3.2-5.9-4.6l45.6 24.8c2.5 1.3 4.4 2.9 5.9 4.6 3.3 3.8 4.9 8.7 4.9 14.8.0 9.4-4 18.3-11.8 26.4-7.9 8.2-19.5 13.3-35 15.5C1927 751 1917 749.7 1909 745.4z"/></defs><clipPath id="SVGID_24_"><use xlink:href="#SVGID_23_" style="overflow:visible"/></clipPath><g class="st47"><path class="st34" d="M1909 745.4l-45.6-24.8c7.3 4 16.4 5.4 27.3 4.3l45.6 24.8C1925.5 750.8 1916.4 749.4 1909 745.4"/><path class="st33" d="M1936.3 749.7l-45.6-24.8c.9-.1 1.8-.2 2.8-.3 7.1-1 13.3-2.6 18.8-4.9l45.6 24.8c-5.5 2.2-11.7 3.9-18.8 4.9C1938.2 749.5 1937.2 749.6 1936.3 749.7"/><path class="st32" d="M1957.9 744.5l-45.6-24.8c4.5-1.8 8.4-4.1 11.8-6.8l45.6 24.8C1966.3 740.4 1962.4 742.6 1957.9 744.5"/><path class="st31" d="M1969.8 737.7l-45.6-24.8c1.5-1.2 3-2.5 4.3-3.9 6.8-7.1 10.7-14.6 11.6-22.7l45.6 24.8c-.9 8-4.8 15.6-11.6 22.7C1972.7 735.2 1971.3 736.5 1969.8 737.7"/><path class="st32" d="M1985.6 711.2l-45.6-24.8c.1-1.2.2-2.5.2-3.7.0-1.6-.1-3.2-.3-4.6l45.6 24.8c.2 1.5.4 3 .3 4.6C1985.9 708.7 1985.8 709.9 1985.6 711.2"/><path class="st33" d="M1985.5 702.8l-45.6-24.8c-.3-2.1-.9-4.1-1.8-5.9l45.6 24.8C1984.6 698.7 1985.2 700.7 1985.5 702.8"/><path class="st34" d="M1983.7 696.9l-45.6-24.8c-.7-1.6-1.7-3-2.8-4.3-1.5-1.7-3.4-3.2-5.9-4.6L1975 688c2.5 1.3 4.4 2.9 5.9 4.6C1982.1 693.9 1983 695.4 1983.7 696.9"/></g></g><g class="st0"><defs><path id="SVGID_25_" class="st0" d="M1918.1 549.2l45.6 24.8c.8.5 1.6.9 2.4 1.5 6.7 4.8 11.1 13.7 13.2 26.6l-45.6-24.8c-2-12.9-6.4-21.8-13.2-26.6C1919.8 550.1 1919 549.6 1918.1 549.2z"/></defs><clipPath id="SVGID_26_"><use xlink:href="#SVGID_25_" style="overflow:visible"/></clipPath><g class="st48"><path class="st32" d="M1979.2 602l-45.6-24.8c0-.1.0-.2.0-.2l45.6 24.8C1979.2 601.9 1979.2 601.9 1979.2 602"/><path class="st33" d="M1979.2 601.8l-45.6-24.8c-1-6-2.5-11.2-4.5-15.5l45.6 24.8C1976.7 590.6 1978.2 595.7 1979.2 601.8"/><path class="st34" d="M1974.7 586.3l-45.6-24.8c-2.2-4.7-5.1-8.4-8.6-10.9-.7-.5-1.5-1-2.4-1.5l45.6 24.8c.8.5 1.6.9 2.4 1.5C1969.6 578 1972.5 581.6 1974.7 586.3"/></g></g><g class="st0"><defs><path id="SVGID_27_" class="st0" d="M1904.9 618.1l-45.6-24.8c7.1 3.9 21 7 41.5 9.3 23.3 2.7 40.6 6.4 51.8 11.2 1.8.8 3.6 1.6 5.2 2.5l45.6 24.8c-1.7-.9-3.4-1.8-5.2-2.5-11.2-4.8-28.4-8.5-51.8-11.2C1925.9 625.1 1912.1 622 1904.9 618.1z"/></defs><clipPath id="SVGID_28_"><use xlink:href="#SVGID_27_" style="overflow:visible"/></clipPath><g class="st49"><path class="st34" d="M1904.9 618.1l-45.6-24.8c7.1 3.9 21 7 41.5 9.3 23.3 2.7 40.6 6.4 51.8 11.2 1.8.8 3.6 1.6 5.2 2.5l45.6 24.8c-1.7-.9-3.4-1.8-5.2-2.5-11.2-4.8-28.4-8.5-51.8-11.2C1925.9 625.1 1912.1 622 1904.9 618.1"/></g></g><g class="st0"><defs><path id="SVGID_29_" class="st0" d="M1877.7 785.9l-45.6-24.8c-3-1.6-5.8-3.5-8.4-5.5-16.1-12.7-25.7-33.2-28.7-61.5l45.6 24.8c3.1 28.3 12.7 48.7 28.7 61.5C1872 782.5 1874.8 784.3 1877.7 785.9z"/></defs><clipPath id="SVGID_30_"><use xlink:href="#SVGID_29_" style="overflow:visible"/></clipPath><g class="st50"><path class="st34" d="M1877.7 785.9l-45.6-24.8c-3-1.6-5.8-3.5-8.4-5.5-8-6.3-14.3-14.5-19.1-24.6l45.6 24.8c4.8 10.1 11.1 18.3 19.1 24.6C1872 782.5 1874.8 784.3 1877.7 785.9"/><path class="st33" d="M1850.3 755.8l-45.6-24.8c-4-8.4-6.8-18.1-8.6-29.1l45.6 24.8C1843.4 737.7 1846.3 747.4 1850.3 755.8"/><path class="st32" d="M1841.7 726.7l-45.6-24.8c-.4-2.5-.8-5.1-1-7.8l45.6 24.8C1840.9 721.6 1841.3 724.2 1841.7 726.7"/></g></g><g><path class="st51" d="M1840.6 718.9 1795 694.1 1841.7 682.7 1887.3 707.5z"/></g><g class="st0"><defs><path id="SVGID_31_" class="st0" d="M1950.4 510l45.6 24.8c-14.6-8-34.5-10.2-59.7-6.7l-45.6-24.8C1915.8 499.8 1935.7 502 1950.4 510z"/></defs><clipPath id="SVGID_32_"><use xlink:href="#SVGID_31_" style="overflow:visible"/></clipPath><g class="st52"><path class="st33" d="M1936.3 528.1l-45.6-24.8c2.2-.3 4.3-.6 6.4-.8l45.6 24.8C1940.6 527.5 1938.4 527.8 1936.3 528.1"/><path class="st34" d="M1942.7 527.3l-45.6-24.8c22.1-2.3 39.9.2 53.3 7.4l45.6 24.8C1982.6 527.5 1964.8 525 1942.7 527.3"/></g></g><g><path class="st32" d="M1796.6 808.6 1751 783.8 1730.3 728.4 1775.9 753.2z"/></g><g><path class="st29" d="M1936.3 528.1c29.8-4.2 52.3-.3 67.3 11.7 15 12 22.9 29.7 23.6 53.2l-48 9c-2-12.9-6.4-21.8-13.2-26.6-6.8-4.8-16.9-6.3-30.4-4.4-13.9 2-24.9 6.6-32.8 13.9-5.1 4.7-7.6 10.3-7.6 17 0 6.1 2.4 10.9 7.1 14.6 6 4.6 20.7 8.3 44.1 11 23.3 2.7 40.6 6.4 51.8 11.2 11.2 4.8 19.9 12.2 26.2 22.4 6.3 10.1 9.4 23.3 9.4 39.5.0 14.7-3.8 29-11.4 42.9-7.6 13.9-18.3 24.9-32.2 33.1-13.8 8.2-31.1 13.7-51.7 16.6-30 4.2-53.1.0-69.2-12.8-16.1-12.7-25.7-33.2-28.7-61.5l46.7-11.5c2.8 16.5 8.5 28.1 17 34.9 8.6 6.7 20.2 9.1 34.8 7 15.5-2.2 27.1-7.3 35-15.5 7.8-8.2 11.8-17 11.8-26.4.0-6.1-1.6-11-4.9-14.8-3.3-3.8-9-6.7-17.2-8.7-5.6-1.3-18.4-3.2-38.4-5.8-25.7-3.3-43.7-9.2-54.1-17.8-14.6-12.1-21.8-28.2-21.8-48.5.0-13.1 3.5-25.8 10.4-38.1 6.9-12.3 16.8-22.4 29.7-30.2C1902.4 535.8 1918 530.7 1936.3 528.1z"/></g><g class="st0"><defs><path id="SVGID_33_" class="st0" d="M1879 665.6l-45.6-24.8c-2.9-1.6-5.5-3.3-7.8-5.2-14.6-12.1-21.8-28.2-21.8-48.5.0-13.1 3.5-25.8 10.4-38.1 6.9-12.3 16.8-22.4 29.7-30.2 12.9-7.8 28.5-12.9 46.8-15.5l45.6 24.8c-18.3 2.6-33.9 7.7-46.8 15.5-12.9 7.8-22.8 17.8-29.7 30.2-6.9 12.3-10.3 25-10.4 38.1.0 20.3 7.2 36.5 21.8 48.5C1873.4 662.2 1876 664 1879 665.6z"/></defs><clipPath id="SVGID_34_"><use xlink:href="#SVGID_33_" style="overflow:visible"/></clipPath><g class="st53"><path class="st34" d="M1879 665.6l-45.6-24.8c-2.9-1.6-5.5-3.3-7.8-5.2-7-5.8-12.3-12.5-15.9-20.2l45.6 24.8c3.6 7.7 8.9 14.4 15.9 20.2C1873.4 662.2 1876 664 1879 665.6"/><path class="st33" d="M1855.3 640.2l-45.6-24.8c-2.4-5-4-10.5-5-16.3l45.6 24.8C1851.3 629.8 1852.9 635.2 1855.3 640.2"/><path class="st32" d="M1850.3 623.9l-45.6-24.8c-.6-3.8-.9-7.9-.9-12.1.0-2.7.2-5.5.5-8.2l45.6 24.8c-.3 2.7-.5 5.5-.5 8.2C1849.4 616.1 1849.7 620.1 1850.3 623.9"/><path class="st31" d="M1849.9 603.7l-45.6-24.8c1.2-10.2 4.5-20.2 9.9-29.9 5.2-9.2 12-17.2 20.5-23.9l45.6 24.8c-8.5 6.7-15.4 14.6-20.5 23.9C1854.3 583.5 1851 593.5 1849.9 603.7"/><path class="st32" d="M1880.3 549.9l-45.6-24.8c2.9-2.2 5.9-4.3 9.2-6.3 4.3-2.6 8.9-4.9 13.8-6.9l45.6 24.8c-4.9 2-9.5 4.3-13.8 6.9C1886.2 545.6 1883.2 547.7 1880.3 549.9"/><path class="st33" d="M1903.3 536.7l-45.6-24.8c9.8-4 20.8-6.9 32.9-8.6l45.6 24.8C1924.1 529.8 1913.1 532.7 1903.3 536.7"/></g></g><g><path class="st28" d="M1695.8 721.3 1650.2 696.5 1715 687.4 1760.6 712.2z"/></g><g><path class="st54" d="M1760.6 712.2 1715 687.4 1682.5 596.8 1728 621.6z"/></g><g><path class="st29" d="M1754.1 558.1l94.7 243.1-52.2 7.3-20.6-55.3-95 13.4-19.7 61-50.9 7.2 93-269.5L1754.1 558.1zM1695.8 721.3l64.8-9.1-32.6-90.6L1695.8 721.3"/></g><g><path class="st55" d="M1610.3 834.7 1564.7 809.9 1657.8 540.4 1703.3 565.2z"/></g><g><path class="st28" d="M1703.3 565.2 1657.8 540.4 1708.5 533.3 1754.1 558.1z"/></g><g><path class="st56" d="M1547.2 777 1501.6 752.2 1560.2 554.1 1605.8 578.9z"/></g><g><path class="st28" d="M1605.8 578.9 1560.2 554.1 1611.1 547 1656.7 571.8z"/></g><g><path class="st32" d="M1427.8 860.4 1382.2 835.6 1361.6 780.2 1407.2 805z"/></g><g><path class="st29" d="M1656.7 571.8 1571.1 840.2 1519.9 847.4l-84.5-244.5L1487.4 595.6 1547.2 777 1605.8 578.9z"/></g><g><path class="st57" d="M1519.9 847.4 1474.3 822.6l-84.5-244.5L1435.4 602.9z"/></g><g><path class="st28" d="M1435.4 602.9 1389.8 578.1 1441.9 570.8 1487.4 595.6z"/></g><g><path class="st28" d="M1327 773.1 1281.4 748.3 1346.3 739.2 1391.9 764z"/></g><g><path class="st54" d="M1391.9 764 1346.3 739.2 1313.7 648.6 1359.3 673.4z"/></g><g><path class="st55" d="M1241.6 886.6 1196 861.8 1289 592.2 1334.6 617z"/></g><g><path class="st29" d="M1385.3 609.9 1480 853l-52.2 7.3-20.6-55.3-95 13.4-19.7 61-50.9 7.2 93-269.5L1385.3 609.9zM1327 773.1l64.8-9.1-32.6-90.6L1327 773.1"/></g><g><path class="st28" d="M1334.6 617 1289 592.2 1339.7 585.1 1385.3 609.9z"/></g></g><g class="st0"><g class="st0"><defs><path id="SVGID_35_" class="st0" d="M1143.9 856.1l-45.6-24.8c4.2 2.3 9.3 3 15.3 2.2 10.7-1.5 18.3-5.9 22.7-13.1 4.4-7.2 6.7-21.2 6.7-42l45.6 24.8c0 20.8-2.3 34.8-6.7 42-4.4 7.2-12 11.6-22.7 13.1C1153.2 859.1 1148.1 858.4 1143.9 856.1z"/></defs><clipPath id="SVGID_36_"><use xlink:href="#SVGID_35_" style="overflow:visible"/></clipPath><g class="st58"><path class="st34" d="M1143.9 856.1l-45.6-24.8c3.9 2.1 8.6 2.9 14 2.4l45.6 24.8C1152.5 859 1147.8 858.2 1143.9 856.1"/><path class="st33" d="M1157.9 858.4l-45.6-24.8c.4.0.8-.1 1.3-.2 3.7-.5 7.1-1.4 10-2.6l45.6 24.8c-3 1.2-6.3 2.1-10 2.6C1158.7 858.3 1158.3 858.4 1157.9 858.4"/><path class="st32" d="M1169.2 855.6l-45.6-24.8c2.5-1 4.8-2.3 6.8-3.9l45.6 24.8C1174 853.3 1171.7 854.6 1169.2 855.6"/><path class="st31" d="M1176 851.7l-45.6-24.8c2.3-1.8 4.3-4 5.9-6.6 2.7-4.4 4.6-11.3 5.7-20.8l45.6 24.8c-1.1 9.4-3 16.4-5.7 20.8C1180.3 847.7 1178.3 849.9 1176 851.7"/><path class="st32" d="M1187.5 824.4l-45.6-24.8c.7-6 1-13.1 1.1-21.2l45.6 24.8C1188.6 811.3 1188.2 818.4 1187.5 824.4"/></g></g><g><path class="st27" d="M1188.6 803.2 1143 778.4 1143.3 612.7 1188.9 637.5z"/></g><g><path class="st28" d="M1188.9 637.5 1143.3 612.7 1191.1 606 1236.7 630.8z"/></g><g><path class="st59" d="M1084.3 829.4 1038.7 804.6 1084 792.7 1129.6 817.5z"/></g><g class="st0"><defs><path id="SVGID_37_" class="st0" d="M1114.1 897.1l-45.6-24.8c-3.9-2.1-7.5-4.8-10.8-8-12.6-12.4-19-32.3-19-59.7l45.6 24.8c.1 27.4 6.4 47.3 19 59.7C1106.6 892.3 1110.2 894.9 1114.1 897.1z"/></defs><clipPath id="SVGID_38_"><use xlink:href="#SVGID_37_" style="overflow:visible"/></clipPath><g class="st60"><path class="st34" d="M1114.1 897.1l-45.6-24.8c-3.9-2.1-7.5-4.8-10.8-8-4.3-4.3-7.9-9.4-10.8-15.5l45.6 24.8c2.9 6 6.5 11.2 10.8 15.5C1106.6 892.3 1110.2 894.9 1114.1 897.1"/><path class="st33" d="M1092.5 873.6l-45.6-24.8c-3-6.4-5.2-13.9-6.6-22.3l45.6 24.8C1087.3 859.8 1089.5 867.2 1092.5 873.6"/><path class="st32" d="M1086 851.4l-45.6-24.8c-1.1-6.7-1.6-14-1.6-21.9l45.6 24.8C1084.3 837.4 1084.9 844.7 1086 851.4"/></g></g><g><path class="st29" d="M1236.7 630.8l-.3 162.4c0 21.2-1.8 37.8-5.3 49.7-4.7 15.6-13.1 28.8-25.4 39.5-12.2 10.8-28.3 17.5-48.3 20.3-23.5 3.3-41.5-1.3-54.1-13.7-12.6-12.4-19-32.3-19-59.7l45.2-12c.5 14.6 2.5 24.7 5.9 30.3 5.2 8.5 13 12 23.6 10.5 10.7-1.5 18.3-5.9 22.7-13.1 4.4-7.2 6.7-21.2 6.7-42l.3-165.7L1236.7 630.8z"/></g></g></g></g></svg>