<?xml version="1.0" encoding="utf-8"?>
<!-- Generator: Adobe Illustrator 22.0.0, SVG Export Plug-In . SVG Version: 6.00 Build 0)  -->
<svg version="1.1" id="JS" xmlns="http://www.w3.org/2000/svg" xmlns:xlink="http://www.w3.org/1999/xlink" x="0px" y="0px"
	 viewBox="0 0 4000 4000" style="enable-background:new 0 0 4000 4000;" xml:space="preserve">
<style type="text/css">
	.st0{enable-background:new    ;}
	.st1{fill:#AF5F17;}
	.st2{fill:#B36117;}
	.st3{fill:#B66318;}
	.st4{fill:#BC7D17;}
	.st5{fill:#BC6619;}
	.st6{fill:#B96519;}
	.st7{fill:#C0681A;}
	.st8{fill:#B57816;}
	.st9{fill:#A16B13;}
	.st10{fill:#A66F14;}
	.st11{fill:#E3941D;}
	.st12{fill:#C38118;}
	.st13{fill:#AC7315;}
	.st14{fill:#9D5613;}
	.st15{fill:#A35914;}
	.st16{fill:#A85C15;}
	.st17{fill:#DD761F;}
	.st18{fill:#A9A9A9;}
	.st19{fill:#ABABAB;}
	.st20{fill:#818181;}
	.st21{fill:#828282;}
	.st22{fill:#B4B4B4;}
	.st23{fill:#DFDFDF;}
	.st24{fill:#B1B1B1;}
	.st25{fill:#838383;}
	.st26{fill:#B5B5B5;}
	.st27{fill:#A75B14;}
	.st28{fill:#9C5512;}
	.st29{fill:#EA7C20;}
	.st30{clip-path:url(#SVGID_2_);enable-background:new    ;}
	.st31{fill:#A15813;}
	.st32{fill:#9D5612;}
	.st33{fill:#995411;}
	.st34{fill:#955210;}
	.st35{clip-path:url(#SVGID_4_);enable-background:new    ;}
	.st36{clip-path:url(#SVGID_6_);enable-background:new    ;}
	.st37{fill:#975311;}
	.st38{clip-path:url(#SVGID_8_);enable-background:new    ;}
	.st39{clip-path:url(#SVGID_10_);enable-background:new    ;}
	.st40{clip-path:url(#SVGID_12_);enable-background:new    ;}
	.st41{clip-path:url(#SVGID_14_);enable-background:new    ;}
	.st42{fill:#945110;}
	.st43{clip-path:url(#SVGID_16_);enable-background:new    ;}
	.st44{clip-path:url(#SVGID_18_);enable-background:new    ;}
	.st45{clip-path:url(#SVGID_20_);enable-background:new    ;}
	.st46{clip-path:url(#SVGID_22_);enable-background:new    ;}
	.st47{clip-path:url(#SVGID_24_);enable-background:new    ;}
	.st48{clip-path:url(#SVGID_26_);enable-background:new    ;}
	.st49{clip-path:url(#SVGID_28_);enable-background:new    ;}
	.st50{clip-path:url(#SVGID_30_);enable-background:new    ;}
	.st51{fill:#9E5713;}
	.st52{clip-path:url(#SVGID_32_);enable-background:new    ;}
	.st53{clip-path:url(#SVGID_34_);enable-background:new    ;}
	.st54{fill:#9E5612;}
	.st55{fill:#AD5F16;}
	.st56{fill:#AD5E15;}
	.st57{fill:#9E5613;}
	.st58{clip-path:url(#SVGID_36_);enable-background:new    ;}
	.st59{fill:#9F5713;}
	.st60{clip-path:url(#SVGID_38_);enable-background:new    ;}
</style>
<g>
	<g>
		<g class="st0">
			<g>
				<polygon class="st1" points="1919.6,3192.2 1887.4,3182.9 2554.8,2784.6 2580,2798.1 				"/>
			</g>
			<g>
				<polygon class="st2" points="2580,2798.1 2554.8,2784.6 2627.4,1229.9 2652.4,1249.9 				"/>
			</g>
			<g>
				<polygon class="st3" points="2044.6,3260.2 1919.6,3192.2 2580,2798.1 2705,2866.1 				"/>
			</g>
			<g>
				<polygon class="st4" points="2044.6,3260.2 1919.6,3192.2 1923.1,1352.3 2048.1,1420.3 				"/>
			</g>
			<g>
				<polygon class="st5" points="2069.7,3282.1 2044.6,3260.2 2705,2866.1 2737.1,2883.8 				"/>
			</g>
			<g>
				<polygon class="st6" points="2705,2866.1 2580,2798.1 2652.4,1249.9 2777.4,1317.9 				"/>
			</g>
			<g>
				<polygon class="st7" points="2737.1,2883.8 2705,2866.1 2777.4,1317.9 2809.8,1329.1 				"/>
			</g>
			<g>
				<polygon class="st8" points="1919.6,3192.2 1894.5,3170.3 1897.9,1340 1923.1,1352.3 				"/>
			</g>
			<g>
				<polygon class="st9" points="1923.1,1352.3 1897.9,1340 2620,1238.6 2652.4,1249.9 				"/>
			</g>
			<g>
				<polygon class="st10" points="2048.1,1420.3 1923.1,1352.3 2652.4,1249.9 2777.4,1317.9 				"/>
			</g>
			<g>
				<polygon class="st11" points="2080.3,1439.2 2802.3,1337.8 2730.2,2879.6 2076.9,3269.5 				"/>
			</g>
			<g>
				<polygon class="st12" points="2076.9,3269.5 2044.6,3260.2 2048.1,1420.3 2080.3,1439.2 				"/>
			</g>
			<g>
				<polygon class="st13" points="2080.3,1439.2 2048.1,1420.3 2777.4,1317.9 2802.3,1337.8 				"/>
			</g>
			<g>
				<polygon class="st14" points="1000.7,1274.9 975.8,1262.6 2813.7,1004.3 2846.1,1015.5 				"/>
			</g>
			<g>
				<polygon class="st1" points="1080.6,3157.9 1055.3,3139.2 975.8,1262.6 1000.7,1274.9 				"/>
			</g>
			<g>
				<polygon class="st15" points="1125.8,1342.9 1000.7,1274.9 2846.1,1015.5 2971.1,1083.5 				"/>
			</g>
			<g>
				<polygon class="st3" points="1205.6,3225.9 1080.6,3157.9 1000.7,1274.9 1125.8,1342.9 				"/>
			</g>
			<g>
				<polygon class="st16" points="1158.1,1361.8 1125.8,1342.9 2971.1,1083.5 2996.1,1103.5 				"/>
			</g>
			<g>
				<path class="st17" d="M1158.1,1361.8l1837.9-258.3L2907.5,2997l-834.6,498.2l-835.2-256.8L1158.1,1361.8z M2737.1,2883.8
					l72.7-1554.7l-736.6,103.4l-3.4,1849.6L2737.1,2883.8"/>
			</g>
			<g>
				<polygon class="st5" points="1237.7,3238.4 1205.6,3225.9 1125.8,1342.9 1158.1,1361.8 				"/>
			</g>
		</g>
	</g>
</g>
<g>
	<g>
		<g class="st0">
			<g>
				<polygon class="st18" points="1724.6,2703.2 1633.4,2653.6 1774.3,2691.1 1865.5,2740.6 				"/>
			</g>
			<g>
				<polygon class="st19" points="1535.9,2553.7 1444.7,2504.1 1630.3,2541.2 1721.5,2590.8 				"/>
			</g>
			<g>
				<polygon class="st20" points="1551.4,2921.4 1460.2,2871.8 1444.7,2504.1 1535.9,2553.7 				"/>
			</g>
			<g>
				<polygon class="st21" points="1865.5,2740.6 1774.3,2691.1 1746.4,1569.3 1837.5,1618.9 				"/>
			</g>
			<g>
				<polygon class="st22" points="1837.5,1618.9 1746.4,1569.3 1963.4,1538.8 2054.6,1588.4 				"/>
			</g>
			<g>
				<polygon class="st23" points="2054.6,1588.4 2051.8,3066.1 1551.4,2921.4 1535.9,2553.7 1721.5,2590.8 1724.6,2703.2 
					1865.5,2740.6 1837.5,1618.9 				"/>
			</g>
		</g>
		<g class="st0">
			<g>
				<polygon class="st24" points="2360.3,2671.1 2269.1,2621.5 2407.7,2544.8 2498.9,2594.4 				"/>
			</g>
			<g>
				<polygon class="st25" points="2498.9,2594.4 2407.7,2544.8 2417.2,2240.7 2508.4,2290.3 				"/>
			</g>
			<g>
				<polygon class="st21" points="2163.4,3054.7 2072.2,3005.1 2072.7,2730.2 2163.9,2779.8 				"/>
			</g>
			<g>
				<polygon class="st21" points="2163.9,2779.8 2072.7,2730.2 2073.1,2529.1 2164.3,2578.7 				"/>
			</g>
			<g>
				<polygon class="st26" points="2164.3,2578.7 2073.1,2529.1 2273.1,2468.4 2364.3,2518 				"/>
			</g>
			<g>
				<polygon class="st26" points="2384.2,2085.2 2293,2035.6 2618.6,1979.3 2709.8,2028.9 				"/>
			</g>
			<g>
				<polygon class="st25" points="2522.1,1851.5 2431,1801.9 2433.1,1732.7 2524.3,1782.3 				"/>
			</g>
			<g>
				<polygon class="st23" points="2736.9,1492.5 2718.6,1819.2 2522.1,1851.5 2524.3,1782.3 2392.9,1800.8 2384.2,2085.2 
					2709.8,2028.9 2671.3,2764 2163.4,3054.7 2163.9,2779.8 2164.3,2578.7 2364.3,2518 2360.3,2671.1 2498.9,2594.4 2508.4,2290.3 
					2164.6,2367.6 2166.1,1572.7 				"/>
			</g>
			<g>
				<polygon class="st21" points="2164.6,2367.6 2073.5,2318 2074.9,1523.1 2166.1,1572.7 				"/>
			</g>
			<g>
				<polygon class="st22" points="2166.1,1572.7 2074.9,1523.1 2645.7,1442.9 2736.9,1492.5 				"/>
			</g>
		</g>
	</g>
</g>
<g>
	<g>
		<g class="st0">
			<g>
				<polygon class="st27" points="2812.8,665.7 2767.2,640.9 2767.6,427.8 2813.2,452.6 				"/>
			</g>
			<g>
				<polygon class="st27" points="2742.7,462.5 2697.1,437.7 2697.2,394.3 2742.8,419.1 				"/>
			</g>
			<g>
				<polygon class="st28" points="2742.8,419.1 2697.2,394.3 2886.1,367.8 2931.6,392.6 				"/>
			</g>
			<g>
				<polygon class="st29" points="2931.6,392.6 2931.6,436 2861.2,445.9 2860.8,659 2812.8,665.7 2813.2,452.6 2742.7,462.5 
					2742.8,419.1 				"/>
			</g>
		</g>
		<g class="st0">
			<g class="st0">
				<defs>
					<path id="SVGID_1_" class="st0" d="M2632.4,453.7l45.6,24.8c2.5,1.4,4.8,3.1,6.8,5.3c5.1,5.3,7.6,12.7,7.6,22
						c0,7.6-1.8,14.5-5.5,20.7l-45.6-24.8c3.6-6.2,5.5-13.1,5.5-20.7c0-9.3-2.5-16.7-7.6-22C2637.2,456.8,2634.9,455.1,2632.4,453.7
						z"/>
				</defs>
				<clipPath id="SVGID_2_">
					<use xlink:href="#SVGID_1_"  style="overflow:visible;"/>
				</clipPath>
				<g class="st30">
					<path class="st31" d="M2686.9,526.5l-45.6-24.8c2.8-4.8,4.5-10.1,5.2-15.7l45.6,24.8C2691.5,516.5,2689.8,521.7,2686.9,526.5"
						/>
					<path class="st32" d="M2692.1,510.8l-45.6-24.8c0.2-1.6,0.3-3.3,0.3-5c0-2.5-0.2-4.8-0.5-7l45.6,24.8c0.4,2.2,0.5,4.5,0.5,7
						C2692.4,507.5,2692.3,509.2,2692.1,510.8"/>
					<path class="st33" d="M2691.9,498.8l-45.6-24.8c-0.5-3.1-1.3-5.9-2.5-8.4l45.6,24.8C2690.6,492.9,2691.4,495.7,2691.9,498.8"/>
					<path class="st34" d="M2689.4,490.4l-45.6-24.8c-1.2-2.5-2.7-4.7-4.5-6.6c-2.1-2.2-4.3-3.9-6.8-5.3l45.6,24.8
						c2.5,1.4,4.8,3.1,6.8,5.3C2686.7,485.7,2688.2,487.9,2689.4,490.4"/>
				</g>
			</g>
			<g class="st0">
				<defs>
					<path id="SVGID_3_" class="st0" d="M2634,550.6l-45.6-24.8c18.9-2.7,31.6-5.8,37.9-9.4c6.4-3.6,11.4-8.5,15-14.7l45.6,24.8
						c-3.6,6.2-8.6,11.1-15,14.7C2665.5,544.8,2652.9,547.9,2634,550.6z"/>
				</defs>
				<clipPath id="SVGID_4_">
					<use xlink:href="#SVGID_3_"  style="overflow:visible;"/>
				</clipPath>
				<g class="st35">
					<path class="st33" d="M2634,550.6l-45.6-24.8c15.9-2.2,27.4-4.8,34.4-7.7l45.6,24.8C2661.4,545.8,2649.9,548.3,2634,550.6"/>
					<path class="st32" d="M2668.4,542.9l-45.6-24.8c1.3-0.5,2.5-1.1,3.5-1.7c1.9-1.1,3.6-2.2,5.3-3.5l45.6,24.8
						c-1.6,1.3-3.4,2.4-5.3,3.5C2670.9,541.8,2669.7,542.3,2668.4,542.9"/>
					<path class="st31" d="M2677.2,537.7l-45.6-24.8c3.9-3.1,7.2-6.8,9.7-11.2l45.6,24.8C2684.4,530.9,2681.1,534.6,2677.2,537.7"/>
				</g>
			</g>
			<g>
				<polygon class="st28" points="2607.7,554.3 2562.1,529.5 2588.4,525.8 2634,550.6 				"/>
			</g>
			<g class="st0">
				<defs>
					<path id="SVGID_5_" class="st0" d="M2665.5,410.6l45.6,24.8c-5.2-2.9-11-4.7-17.1-5.6c-8.9-1.3-27.9,0.1-57.1,4.2l-45.6-24.8
						c29.2-4.1,48.2-5.5,57.1-4.2C2654.6,405.9,2660.3,407.8,2665.5,410.6z"/>
				</defs>
				<clipPath id="SVGID_6_">
					<use xlink:href="#SVGID_5_"  style="overflow:visible;"/>
				</clipPath>
				<g class="st36">
					<path class="st33" d="M2637,434l-45.6-24.8c9.2-1.3,17.4-2.3,24.6-3.1l45.6,24.8C2654.4,431.7,2646.2,432.7,2637,434"/>
					<path class="st34" d="M2661.6,430.9l-45.6-24.8c15.6-1.6,26.4-2,32.4-1.1c6.2,0.9,11.9,2.7,17.1,5.6l45.6,24.8
						c-5.2-2.9-11-4.7-17.1-5.6C2688,428.9,2677.1,429.3,2661.6,430.9"/>
				</g>
			</g>
			<g>
				<polygon class="st28" points="2560,444.8 2514.4,420 2591.4,409.2 2637,434 				"/>
			</g>
			<g>
				<polygon class="st27" points="2559.5,701.3 2513.9,676.5 2514.4,420 2560,444.8 				"/>
			</g>
			<g>
				<path class="st29" d="M2728.2,450.1c9.2,11.6,13.7,27.6,13.7,48c0,15.7-2.7,29.4-8,40.8c-5.3,11.5-12.1,20.9-20.2,28.1
					c-8.2,7.3-16.5,12.5-24.9,15.7c-11.5,4.1-28.1,7.6-49.8,10.7l-31.3,4.4l-0.2,96.8l-48,6.7l0.5-256.5l77-10.8
					c29.2-4.1,48.2-5.5,57.1-4.2C2707.6,431.8,2719,438.5,2728.2,450.1z M2686.9,526.5c3.6-6.2,5.5-13.1,5.5-20.7
					c0-9.3-2.5-16.7-7.6-22c-5.1-5.4-11.5-8.2-19.3-8.7c-5.7-0.4-17.2,0.7-34.5,3.1l-23.2,3.3l-0.1,72.8l26.3-3.7
					c18.9-2.7,31.6-5.8,37.9-9.4C2678.3,537.6,2683.3,532.7,2686.9,526.5"/>
			</g>
		</g>
		<g class="st0">
			<g>
				<polygon class="st27" points="2487.4,711.5 2441.8,686.7 2442.3,430.2 2487.8,455 				"/>
			</g>
			<g>
				<polygon class="st28" points="2487.8,455 2442.3,430.2 2490.2,423.4 2535.8,448.2 				"/>
			</g>
			<g>
				<polygon class="st29" points="2535.8,448.2 2535.4,704.7 2487.4,711.5 2487.8,455 				"/>
			</g>
		</g>
		<g class="st0">
			<g>
				<polygon class="st37" points="2427.1,719.9 2381.5,695.1 2346.9,644.2 2392.5,669 				"/>
			</g>
			<g class="st0">
				<defs>
					<path id="SVGID_7_" class="st0" d="M2361.6,587.7l45.6,24.8c-1.5-0.8-3-1.6-4.5-2.3l-45.6-24.8
						C2358.6,586.2,2360.1,586.9,2361.6,587.7z"/>
				</defs>
				<clipPath id="SVGID_8_">
					<use xlink:href="#SVGID_7_"  style="overflow:visible;"/>
				</clipPath>
				<g class="st38">
					<path class="st34" d="M2402.7,610.2l-45.6-24.8c1.5,0.8,3,1.5,4.5,2.3l45.6,24.8C2405.7,611.7,2404.2,611,2402.7,610.2"/>
				</g>
			</g>
			<g class="st0">
				<defs>
					<path id="SVGID_9_" class="st0" d="M2313.6,603.9l45.6,24.8c2.8,1.5,5.5,3.6,8.1,6.2c4.5,4.6,12.9,15.9,25.2,34.2l-45.6-24.8
						c-12.3-18.2-20.7-29.6-25.2-34.2C2319.1,607.4,2316.4,605.4,2313.6,603.9z"/>
				</defs>
				<clipPath id="SVGID_10_">
					<use xlink:href="#SVGID_9_"  style="overflow:visible;"/>
				</clipPath>
				<g class="st39">
					<path class="st34" d="M2392.5,669l-45.6-24.8c-12.3-18.2-20.7-29.6-25.2-34.2c-2.6-2.6-5.3-4.7-8.1-6.2l45.6,24.8
						c2.8,1.5,5.5,3.6,8.1,6.2C2371.8,639.4,2380.2,650.8,2392.5,669"/>
				</g>
			</g>
			<g class="st0">
				<defs>
					<path id="SVGID_11_" class="st0" d="M2358.5,491.1l45.6,24.8c2.1,1.2,4,2.6,5.6,4.4c4.3,4.7,6.4,11.4,6.4,20
						c0,7.7-1.7,14.3-4.9,19.9c-3.2,5.6-7.7,9.8-13.5,12.7c-5.7,2.9-20.1,6-43.1,9.2l-45.6-24.8c23-3.2,37.4-6.3,43.1-9.2
						s10.2-7.2,13.5-12.7c3.3-5.6,4.9-12.2,4.9-19.9c0-8.6-2.1-15.3-6.4-20C2362.5,493.7,2360.6,492.2,2358.5,491.1z"/>
				</defs>
				<clipPath id="SVGID_12_">
					<use xlink:href="#SVGID_11_"  style="overflow:visible;"/>
				</clipPath>
				<g class="st40">
					<path class="st33" d="M2354.6,582.1l-45.6-24.8c21.1-3,34.9-5.8,41.5-8.5l45.6,24.8C2389.5,576.4,2375.7,579.2,2354.6,582.1"/>
					<path class="st32" d="M2396.1,573.7l-45.6-24.8c0.6-0.2,1.1-0.5,1.6-0.7c2-1,3.8-2.1,5.4-3.4l45.6,24.8
						c-1.7,1.3-3.5,2.4-5.4,3.4C2397.2,573.2,2396.7,573.4,2396.1,573.7"/>
					<path class="st31" d="M2403.1,569.5l-45.6-24.8c3.2-2.5,5.9-5.6,8-9.3c2.4-4.2,4-9,4.6-14.4l45.6,24.8
						c-0.6,5.4-2.1,10.2-4.6,14.4C2409,563.9,2406.4,567,2403.1,569.5"/>
					<path class="st32" d="M2415.8,545.8l-45.6-24.8c0.2-1.8,0.3-3.6,0.3-5.5c0-2.5-0.2-4.8-0.5-6.9l45.6,24.8
						c0.3,2.1,0.5,4.4,0.5,6.9C2416.1,542.2,2416,544,2415.8,545.8"/>
					<path class="st33" d="M2415.6,533.4l-45.6-24.8c-0.5-2.9-1.2-5.5-2.3-7.8l45.6,24.8C2414.3,527.9,2415.1,530.5,2415.6,533.4"/>
					<path class="st34" d="M2413.2,525.6l-45.6-24.8c-0.9-2-2.1-3.8-3.5-5.3c-1.6-1.8-3.5-3.3-5.6-4.4l45.6,24.8
						c2.1,1.2,4,2.6,5.6,4.4C2411.1,521.8,2412.3,523.6,2413.2,525.6"/>
				</g>
			</g>
			<g>
				<polygon class="st28" points="2319.1,587.1 2273.5,562.3 2309,557.3 2354.6,582.1 				"/>
			</g>
			<g class="st0">
				<defs>
					<path id="SVGID_13_" class="st0" d="M2392.3,449.6l45.6,24.8c-3.2-1.7-6.6-3.1-10.2-4c-11.5-3-29.9-2.7-55.3,0.9l-45.6-24.8
						c25.4-3.6,43.8-3.9,55.3-0.9C2385.7,446.5,2389.1,447.8,2392.3,449.6z"/>
				</defs>
				<clipPath id="SVGID_14_">
					<use xlink:href="#SVGID_13_"  style="overflow:visible;"/>
				</clipPath>
				<g class="st41">
					<path class="st33" d="M2372.3,471.2l-45.6-24.8c4.5-0.6,8.8-1.2,12.9-1.6l45.6,24.8C2381.1,470,2376.8,470.6,2372.3,471.2"/>
					<path class="st34" d="M2385.2,469.6l-45.6-24.8c18.9-2,33-1.7,42.5,0.7c3.6,0.9,7.1,2.3,10.2,4l45.6,24.8
						c-3.2-1.7-6.6-3.1-10.2-4C2418.2,467.9,2404,467.6,2385.2,469.6"/>
				</g>
			</g>
			<g>
				<polygon class="st28" points="2271.3,485.4 2225.7,460.6 2326.7,446.4 2372.3,471.2 				"/>
			</g>
			<g>
				<polygon class="st27" points="2270.8,741.9 2225.2,717.1 2225.7,460.6 2271.3,485.4 				"/>
			</g>
			<g>
				<path class="st29" d="M2455.5,665.9l28.9,46l-57.4,8.1l-34.6-50.9c-12.3-18.2-20.7-29.6-25.2-34.2c-4.5-4.5-9.3-7.4-14.4-8.7
					c-5.1-1.2-13.1-1-24.2,0.5l-9.7,1.4l-0.2,107.1l-48,6.7l0.5-256.5l101-14.2c25.4-3.6,43.8-3.9,55.3-0.9
					c11.5,3,20.7,9.9,27.6,20.7c6.9,10.8,10.3,23.8,10.3,39c0,19.2-5.3,35.9-15.8,49.9c-10.5,14-26.2,24.1-47.1,30.3
					c10.4,5.1,18.9,11,25.7,17.9C2435.1,635,2444.1,647.6,2455.5,665.9z M2354.6,582.1c23-3.2,37.4-6.3,43.1-9.2
					c5.7-2.9,10.2-7.2,13.5-12.7c3.3-5.6,4.9-12.2,4.9-19.9c0-8.6-2.1-15.3-6.4-20c-4.3-4.7-10.3-7.2-18.1-7.5c-3.9,0-15.6,1.3-35,4
					l-37.4,5.3l-0.1,65.1L2354.6,582.1"/>
			</g>
		</g>
		<g class="st0">
			<g>
				<polygon class="st42" points="2204.7,656.9 2159.1,632.1 2205.6,641.5 2251.2,666.3 				"/>
			</g>
			<g class="st0">
				<defs>
					<path id="SVGID_15_" class="st0" d="M2122.3,714.2l-45.6-24.8c8.5,4.6,18.3,6.1,29.6,4.6c12.8-1.8,23.7-7.7,32.9-17.7
						c9.2-10,15.8-24.7,19.9-44.1l45.6,24.8c-4,19.3-10.7,34-19.9,44.1c-9.2,10-20.2,16-32.9,17.7
						C2140.7,720.3,2130.8,718.8,2122.3,714.2z"/>
				</defs>
				<clipPath id="SVGID_16_">
					<use xlink:href="#SVGID_15_"  style="overflow:visible;"/>
				</clipPath>
				<g class="st43">
					<path class="st34" d="M2122.3,714.2l-45.6-24.8c7.9,4.3,17,5.9,27.3,4.8l45.6,24.8C2139.4,720.1,2130.3,718.5,2122.3,714.2"/>
					<path class="st33" d="M2149.7,719l-45.6-24.8c0.8-0.1,1.5-0.2,2.3-0.3c4.5-0.6,8.8-1.8,12.9-3.5l45.6,24.8
						c-4.1,1.7-8.4,2.8-12.9,3.5C2151.2,718.8,2150.4,718.9,2149.7,719"/>
					<path class="st32" d="M2164.8,715.3l-45.6-24.8c4.5-1.8,8.7-4.3,12.6-7.3l45.6,24.8C2173.5,711,2169.3,713.4,2164.8,715.3"/>
					<path class="st31" d="M2177.4,707.9l-45.6-24.8c2.6-2,5.1-4.4,7.5-6.9c9.2-10,15.8-24.7,19.9-44.1l45.6,24.8
						c-4,19.3-10.7,34-19.9,44.1C2182.5,703.6,2180,705.9,2177.4,707.9"/>
				</g>
			</g>
			<g class="st0">
				<defs>
					<path id="SVGID_17_" class="st0" d="M2135.8,521.4l45.6,24.8c1.5,0.8,2.9,1.7,4.3,2.7c8.9,6.4,14.7,16.1,17.5,29l-45.6-24.8
						c-2.8-12.9-8.6-22.6-17.5-29C2138.7,523.1,2137.3,522.2,2135.8,521.4z"/>
				</defs>
				<clipPath id="SVGID_18_">
					<use xlink:href="#SVGID_17_"  style="overflow:visible;"/>
				</clipPath>
				<g class="st44">
					<path class="st33" d="M2203.2,577.9l-45.6-24.8c-1-4.7-2.4-8.9-4.2-12.7l45.6,24.8C2200.8,569,2202.2,573.2,2203.2,577.9"/>
					<path class="st34" d="M2199,565.1l-45.6-24.8c-3.2-6.7-7.6-12.2-13.3-16.3c-1.4-1-2.8-1.9-4.3-2.7l45.6,24.8
						c1.5,0.8,2.9,1.7,4.3,2.7C2191.4,553,2195.8,558.4,2199,565.1"/>
				</g>
			</g>
			<g class="st0">
				<defs>
					<path id="SVGID_19_" class="st0" d="M2167.2,480.7l45.6,24.8c-15.8-8.6-34.8-11.3-57.1-8.2l-45.6-24.8
						C2132.4,469.3,2151.4,472.1,2167.2,480.7z"/>
				</defs>
				<clipPath id="SVGID_20_">
					<use xlink:href="#SVGID_19_"  style="overflow:visible;"/>
				</clipPath>
				<g class="st45">
					<path class="st33" d="M2155.7,497.3l-45.6-24.8c1.6-0.2,3.2-0.4,4.7-0.6l45.6,24.8C2158.9,496.8,2157.3,497,2155.7,497.3"/>
					<path class="st34" d="M2160.5,496.7l-45.6-24.8c20.2-2.1,37.6,0.8,52.3,8.8l45.6,24.8C2198.1,497.5,2180.7,494.6,2160.5,496.7"
						/>
				</g>
			</g>
			<g class="st0">
				<defs>
					<path id="SVGID_21_" class="st0" d="M2094.6,754.1l-45.6-24.8c-7.2-3.9-13.8-8.9-20-15.1c-20.3-20.4-30.4-50.8-30.3-91.2
						c0.1-42.7,10.4-77.3,30.8-103.8c20.5-26.5,47.3-42.1,80.6-46.8l45.6,24.8c-33.3,4.7-60.2,20.3-80.6,46.8s-30.7,61.1-30.8,103.8
						c-0.1,40.4,10,70.7,30.3,91.2C2080.7,745.1,2087.4,750.2,2094.6,754.1z"/>
				</defs>
				<clipPath id="SVGID_22_">
					<use xlink:href="#SVGID_21_"  style="overflow:visible;"/>
				</clipPath>
				<g class="st46">
					<path class="st34" d="M2094.6,754.1l-45.6-24.8c-7.2-3.9-13.8-8.9-20-15.1c-7.2-7.3-13.2-15.8-17.8-25.7l45.6,24.8
						c4.6,9.8,10.6,18.4,17.8,25.7C2080.7,745.1,2087.4,750.2,2094.6,754.1"/>
					<path class="st33" d="M2056.8,713.3l-45.6-24.8c-4.8-10-8.1-21.4-10.2-34.1l45.6,24.8C2048.6,691.9,2052,703.2,2056.8,713.3"/>
					<path class="st32" d="M2046.6,679.2l-45.6-24.8c-1.6-9.7-2.3-20.1-2.3-31.4c0-9.2,0.5-18,1.5-26.4l45.6,24.8
						c-1,8.4-1.4,17.2-1.5,26.4C2044.3,659,2045,669.5,2046.6,679.2"/>
					<path class="st31" d="M2045.7,621.4l-45.6-24.8c3.5-30.8,13.3-56.6,29.4-77.4c6.7-8.7,14.2-16.3,22.3-22.6l45.6,24.8
						c-8.1,6.4-15.6,13.9-22.3,22.6C2059,564.8,2049.2,590.6,2045.7,621.4"/>
					<path class="st32" d="M2097.4,521.4l-45.6-24.8c8.4-6.6,17.5-11.9,27.4-15.9l45.6,24.8C2114.9,509.5,2105.8,514.8,2097.4,521.4
						"/>
					<path class="st33" d="M2124.8,505.5l-45.6-24.8c9.6-3.9,19.9-6.7,31-8.2l45.6,24.8C2144.7,498.8,2134.4,501.6,2124.8,505.5"/>
				</g>
			</g>
			<g>
				<path class="st29" d="M2155.7,497.3c29.1-4.1,52.7,1.9,70.8,17.9c10.8,9.4,18.9,24.1,24.2,43.8l-47.5,18.9
					c-2.8-12.9-8.6-22.6-17.5-29c-8.9-6.5-19.7-8.8-32.5-7c-17.6,2.5-31.9,11.3-42.9,26.5c-11,15.2-16.5,38.1-16.6,68.6
					c-0.1,32.4,5.3,54.8,16.1,67c10.8,12.2,24.8,17.2,42.1,14.7c12.8-1.8,23.7-7.7,32.9-17.7c9.2-10,15.8-24.7,19.9-44.1l46.5,9.4
					c-7.2,29-19.1,51.5-35.7,67.4c-16.6,15.9-37.7,25.7-63.2,29.3c-31.6,4.4-57.5-3.6-77.7-24c-20.3-20.4-30.4-50.8-30.3-91.2
					c0.1-42.7,10.4-77.3,30.8-103.8S2122.5,501.9,2155.7,497.3z"/>
			</g>
		</g>
		<g class="st0">
			<g class="st0">
				<defs>
					<path id="SVGID_23_" class="st0" d="M1909,745.4l-45.6-24.8c8,4.3,18,5.6,30.1,3.9c15.5-2.2,27.1-7.3,35-15.5
						c7.8-8.2,11.8-17,11.8-26.4c0-6.1-1.6-11-4.9-14.8c-1.5-1.7-3.4-3.2-5.9-4.6l45.6,24.8c2.5,1.3,4.4,2.9,5.9,4.6
						c3.3,3.8,4.9,8.7,4.9,14.8c0,9.4-4,18.3-11.8,26.4c-7.9,8.2-19.5,13.3-35,15.5C1927,751,1917,749.7,1909,745.4z"/>
				</defs>
				<clipPath id="SVGID_24_">
					<use xlink:href="#SVGID_23_"  style="overflow:visible;"/>
				</clipPath>
				<g class="st47">
					<path class="st34" d="M1909,745.4l-45.6-24.8c7.3,4,16.4,5.4,27.3,4.3l45.6,24.8C1925.5,750.8,1916.4,749.4,1909,745.4"/>
					<path class="st33" d="M1936.3,749.7l-45.6-24.8c0.9-0.1,1.8-0.2,2.8-0.3c7.1-1,13.3-2.6,18.8-4.9l45.6,24.8
						c-5.5,2.2-11.7,3.9-18.8,4.9C1938.2,749.5,1937.2,749.6,1936.3,749.7"/>
					<path class="st32" d="M1957.9,744.5l-45.6-24.8c4.5-1.8,8.4-4.1,11.8-6.8l45.6,24.8C1966.3,740.4,1962.4,742.6,1957.9,744.5"/>
					<path class="st31" d="M1969.8,737.7l-45.6-24.8c1.5-1.2,3-2.5,4.3-3.9c6.8-7.1,10.7-14.6,11.6-22.7l45.6,24.8
						c-0.9,8-4.8,15.6-11.6,22.7C1972.7,735.2,1971.3,736.5,1969.8,737.7"/>
					<path class="st32" d="M1985.6,711.2l-45.6-24.8c0.1-1.2,0.2-2.5,0.2-3.7c0-1.6-0.1-3.2-0.3-4.6l45.6,24.8
						c0.2,1.5,0.4,3,0.3,4.6C1985.9,708.7,1985.8,709.9,1985.6,711.2"/>
					<path class="st33" d="M1985.5,702.8l-45.6-24.8c-0.3-2.1-0.9-4.1-1.8-5.9l45.6,24.8C1984.6,698.7,1985.2,700.7,1985.5,702.8"/>
					<path class="st34" d="M1983.7,696.9l-45.6-24.8c-0.7-1.6-1.7-3-2.8-4.3c-1.5-1.7-3.4-3.2-5.9-4.6l45.6,24.8
						c2.5,1.3,4.4,2.9,5.9,4.6C1982.1,693.9,1983,695.4,1983.7,696.9"/>
				</g>
			</g>
			<g class="st0">
				<defs>
					<path id="SVGID_25_" class="st0" d="M1918.1,549.2l45.6,24.8c0.8,0.5,1.6,0.9,2.4,1.5c6.7,4.8,11.1,13.7,13.2,26.6l-45.6-24.8
						c-2-12.9-6.4-21.8-13.2-26.6C1919.8,550.1,1919,549.6,1918.1,549.2z"/>
				</defs>
				<clipPath id="SVGID_26_">
					<use xlink:href="#SVGID_25_"  style="overflow:visible;"/>
				</clipPath>
				<g class="st48">
					<path class="st32" d="M1979.2,602l-45.6-24.8c0-0.1,0-0.2,0-0.2l45.6,24.8C1979.2,601.9,1979.2,601.9,1979.2,602"/>
					<path class="st33" d="M1979.2,601.8l-45.6-24.8c-1-6-2.5-11.2-4.5-15.5l45.6,24.8C1976.7,590.6,1978.2,595.7,1979.2,601.8"/>
					<path class="st34" d="M1974.7,586.3l-45.6-24.8c-2.2-4.7-5.1-8.4-8.6-10.9c-0.7-0.5-1.5-1-2.4-1.5l45.6,24.8
						c0.8,0.5,1.6,0.9,2.4,1.5C1969.6,578,1972.5,581.6,1974.7,586.3"/>
				</g>
			</g>
			<g class="st0">
				<defs>
					<path id="SVGID_27_" class="st0" d="M1904.9,618.1l-45.6-24.8c7.1,3.9,21,7,41.5,9.3c23.3,2.7,40.6,6.4,51.8,11.2
						c1.8,0.8,3.6,1.6,5.2,2.5l45.6,24.8c-1.7-0.9-3.4-1.8-5.2-2.5c-11.2-4.8-28.4-8.5-51.8-11.2
						C1925.9,625.1,1912.1,622,1904.9,618.1z"/>
				</defs>
				<clipPath id="SVGID_28_">
					<use xlink:href="#SVGID_27_"  style="overflow:visible;"/>
				</clipPath>
				<g class="st49">
					<path class="st34" d="M1904.9,618.1l-45.6-24.8c7.1,3.9,21,7,41.5,9.3c23.3,2.7,40.6,6.4,51.8,11.2c1.8,0.8,3.6,1.6,5.2,2.5
						l45.6,24.8c-1.7-0.9-3.4-1.8-5.2-2.5c-11.2-4.8-28.4-8.5-51.8-11.2C1925.9,625.1,1912.1,622,1904.9,618.1"/>
				</g>
			</g>
			<g class="st0">
				<defs>
					<path id="SVGID_29_" class="st0" d="M1877.7,785.9l-45.6-24.8c-3-1.6-5.8-3.5-8.4-5.5c-16.1-12.7-25.7-33.2-28.7-61.5
						l45.6,24.8c3.1,28.3,12.7,48.7,28.7,61.5C1872,782.5,1874.8,784.3,1877.7,785.9z"/>
				</defs>
				<clipPath id="SVGID_30_">
					<use xlink:href="#SVGID_29_"  style="overflow:visible;"/>
				</clipPath>
				<g class="st50">
					<path class="st34" d="M1877.7,785.9l-45.6-24.8c-3-1.6-5.8-3.5-8.4-5.5c-8-6.3-14.3-14.5-19.1-24.6l45.6,24.8
						c4.8,10.1,11.1,18.3,19.1,24.6C1872,782.5,1874.8,784.3,1877.7,785.9"/>
					<path class="st33" d="M1850.3,755.8l-45.6-24.8c-4-8.4-6.8-18.1-8.6-29.1l45.6,24.8C1843.4,737.7,1846.3,747.4,1850.3,755.8"/>
					<path class="st32" d="M1841.7,726.7l-45.6-24.8c-0.4-2.5-0.8-5.1-1-7.8l45.6,24.8C1840.9,721.6,1841.3,724.2,1841.7,726.7"/>
				</g>
			</g>
			<g>
				<polygon class="st51" points="1840.6,718.9 1795,694.1 1841.7,682.7 1887.3,707.5 				"/>
			</g>
			<g class="st0">
				<defs>
					<path id="SVGID_31_" class="st0" d="M1950.4,510l45.6,24.8c-14.6-8-34.5-10.2-59.7-6.7l-45.6-24.8
						C1915.8,499.8,1935.7,502,1950.4,510z"/>
				</defs>
				<clipPath id="SVGID_32_">
					<use xlink:href="#SVGID_31_"  style="overflow:visible;"/>
				</clipPath>
				<g class="st52">
					<path class="st33" d="M1936.3,528.1l-45.6-24.8c2.2-0.3,4.3-0.6,6.4-0.8l45.6,24.8C1940.6,527.5,1938.4,527.8,1936.3,528.1"/>
					<path class="st34" d="M1942.7,527.3l-45.6-24.8c22.1-2.3,39.9,0.2,53.3,7.4l45.6,24.8C1982.6,527.5,1964.8,525,1942.7,527.3"/>
				</g>
			</g>
			<g>
				<polygon class="st32" points="1796.6,808.6 1751,783.8 1730.3,728.4 1775.9,753.2 				"/>
			</g>
			<g>
				<path class="st29" d="M1936.3,528.1c29.8-4.2,52.3-0.3,67.3,11.7c15,12,22.9,29.7,23.6,53.2l-48,9c-2-12.9-6.4-21.8-13.2-26.6
					c-6.8-4.8-16.9-6.3-30.4-4.4c-13.9,2-24.9,6.6-32.8,13.9c-5.1,4.7-7.6,10.3-7.6,17c0,6.1,2.4,10.9,7.1,14.6
					c6,4.6,20.7,8.3,44.1,11c23.3,2.7,40.6,6.4,51.8,11.2c11.2,4.8,19.9,12.2,26.2,22.4c6.3,10.1,9.4,23.3,9.4,39.5
					c0,14.7-3.8,29-11.4,42.9c-7.6,13.9-18.3,24.9-32.2,33.1c-13.8,8.2-31.1,13.7-51.7,16.6c-30,4.2-53.1,0-69.2-12.8
					c-16.1-12.7-25.7-33.2-28.7-61.5l46.7-11.5c2.8,16.5,8.5,28.1,17,34.9c8.6,6.7,20.2,9.1,34.8,7c15.5-2.2,27.1-7.3,35-15.5
					c7.8-8.2,11.8-17,11.8-26.4c0-6.1-1.6-11-4.9-14.8c-3.3-3.8-9-6.7-17.2-8.7c-5.6-1.3-18.4-3.2-38.4-5.8
					c-25.7-3.3-43.7-9.2-54.1-17.8c-14.6-12.1-21.8-28.2-21.8-48.5c0-13.1,3.5-25.8,10.4-38.1c6.9-12.3,16.8-22.4,29.7-30.2
					C1902.4,535.8,1918,530.7,1936.3,528.1z"/>
			</g>
			<g class="st0">
				<defs>
					<path id="SVGID_33_" class="st0" d="M1879,665.6l-45.6-24.8c-2.9-1.6-5.5-3.3-7.8-5.2c-14.6-12.1-21.8-28.2-21.8-48.5
						c0-13.1,3.5-25.8,10.4-38.1c6.9-12.3,16.8-22.4,29.7-30.2c12.9-7.8,28.5-12.9,46.8-15.5l45.6,24.8
						c-18.3,2.6-33.9,7.7-46.8,15.5c-12.9,7.8-22.8,17.8-29.7,30.2c-6.9,12.3-10.3,25-10.4,38.1c0,20.3,7.2,36.5,21.8,48.5
						C1873.4,662.2,1876,664,1879,665.6z"/>
				</defs>
				<clipPath id="SVGID_34_">
					<use xlink:href="#SVGID_33_"  style="overflow:visible;"/>
				</clipPath>
				<g class="st53">
					<path class="st34" d="M1879,665.6l-45.6-24.8c-2.9-1.6-5.5-3.3-7.8-5.2c-7-5.8-12.3-12.5-15.9-20.2l45.6,24.8
						c3.6,7.7,8.9,14.4,15.9,20.2C1873.4,662.2,1876,664,1879,665.6"/>
					<path class="st33" d="M1855.3,640.2l-45.6-24.8c-2.4-5-4-10.5-5-16.3l45.6,24.8C1851.3,629.8,1852.9,635.2,1855.3,640.2"/>
					<path class="st32" d="M1850.3,623.9l-45.6-24.8c-0.6-3.8-0.9-7.9-0.9-12.1c0-2.7,0.2-5.5,0.5-8.2l45.6,24.8
						c-0.3,2.7-0.5,5.5-0.5,8.2C1849.4,616.1,1849.7,620.1,1850.3,623.9"/>
					<path class="st31" d="M1849.9,603.7l-45.6-24.8c1.2-10.2,4.5-20.2,9.9-29.9c5.2-9.2,12-17.2,20.5-23.9l45.6,24.8
						c-8.5,6.7-15.4,14.6-20.5,23.9C1854.3,583.5,1851,593.5,1849.9,603.7"/>
					<path class="st32" d="M1880.3,549.9l-45.6-24.8c2.9-2.2,5.9-4.3,9.2-6.3c4.3-2.6,8.9-4.9,13.8-6.9l45.6,24.8
						c-4.9,2-9.5,4.3-13.8,6.9C1886.2,545.6,1883.2,547.7,1880.3,549.9"/>
					<path class="st33" d="M1903.3,536.7l-45.6-24.8c9.8-4,20.8-6.9,32.9-8.6l45.6,24.8C1924.1,529.8,1913.1,532.7,1903.3,536.7"/>
				</g>
			</g>
			<g>
				<polygon class="st28" points="1695.8,721.3 1650.2,696.5 1715,687.4 1760.6,712.2 				"/>
			</g>
			<g>
				<polygon class="st54" points="1760.6,712.2 1715,687.4 1682.5,596.8 1728,621.6 				"/>
			</g>
			<g>
				<path class="st29" d="M1754.1,558.1l94.7,243.1l-52.2,7.3l-20.6-55.3l-95,13.4l-19.7,61l-50.9,7.2l93-269.5L1754.1,558.1z
					 M1695.8,721.3l64.8-9.1l-32.6-90.6L1695.8,721.3"/>
			</g>
			<g>
				<polygon class="st55" points="1610.3,834.7 1564.7,809.9 1657.8,540.4 1703.3,565.2 				"/>
			</g>
			<g>
				<polygon class="st28" points="1703.3,565.2 1657.8,540.4 1708.5,533.3 1754.1,558.1 				"/>
			</g>
			<g>
				<polygon class="st56" points="1547.2,777 1501.6,752.2 1560.2,554.1 1605.8,578.9 				"/>
			</g>
			<g>
				<polygon class="st28" points="1605.8,578.9 1560.2,554.1 1611.1,547 1656.7,571.8 				"/>
			</g>
			<g>
				<polygon class="st32" points="1427.8,860.4 1382.2,835.6 1361.6,780.2 1407.2,805 				"/>
			</g>
			<g>
				<polygon class="st29" points="1656.7,571.8 1571.1,840.2 1519.9,847.4 1435.4,602.9 1487.4,595.6 1547.2,777 1605.8,578.9 				
					"/>
			</g>
			<g>
				<polygon class="st57" points="1519.9,847.4 1474.3,822.6 1389.8,578.1 1435.4,602.9 				"/>
			</g>
			<g>
				<polygon class="st28" points="1435.4,602.9 1389.8,578.1 1441.9,570.8 1487.4,595.6 				"/>
			</g>
			<g>
				<polygon class="st28" points="1327,773.1 1281.4,748.3 1346.3,739.2 1391.9,764 				"/>
			</g>
			<g>
				<polygon class="st54" points="1391.9,764 1346.3,739.2 1313.7,648.6 1359.3,673.4 				"/>
			</g>
			<g>
				<polygon class="st55" points="1241.6,886.6 1196,861.8 1289,592.2 1334.6,617 				"/>
			</g>
			<g>
				<path class="st29" d="M1385.3,609.9L1480,853l-52.2,7.3l-20.6-55.3l-95,13.4l-19.7,61l-50.9,7.2l93-269.5L1385.3,609.9z
					 M1327,773.1l64.8-9.1l-32.6-90.6L1327,773.1"/>
			</g>
			<g>
				<polygon class="st28" points="1334.6,617 1289,592.2 1339.7,585.1 1385.3,609.9 				"/>
			</g>
		</g>
		<g class="st0">
			<g class="st0">
				<defs>
					<path id="SVGID_35_" class="st0" d="M1143.9,856.1l-45.6-24.8c4.2,2.3,9.3,3,15.3,2.2c10.7-1.5,18.3-5.9,22.7-13.1
						c4.4-7.2,6.7-21.2,6.7-42l45.6,24.8c0,20.8-2.3,34.8-6.7,42c-4.4,7.2-12,11.6-22.7,13.1
						C1153.2,859.1,1148.1,858.4,1143.9,856.1z"/>
				</defs>
				<clipPath id="SVGID_36_">
					<use xlink:href="#SVGID_35_"  style="overflow:visible;"/>
				</clipPath>
				<g class="st58">
					<path class="st34" d="M1143.9,856.1l-45.6-24.8c3.9,2.1,8.6,2.9,14,2.4l45.6,24.8C1152.5,859,1147.8,858.2,1143.9,856.1"/>
					<path class="st33" d="M1157.9,858.4l-45.6-24.8c0.4,0,0.8-0.1,1.3-0.2c3.7-0.5,7.1-1.4,10-2.6l45.6,24.8c-3,1.2-6.3,2.1-10,2.6
						C1158.7,858.3,1158.3,858.4,1157.9,858.4"/>
					<path class="st32" d="M1169.2,855.6l-45.6-24.8c2.5-1,4.8-2.3,6.8-3.9l45.6,24.8C1174,853.3,1171.7,854.6,1169.2,855.6"/>
					<path class="st31" d="M1176,851.7l-45.6-24.8c2.3-1.8,4.3-4,5.9-6.6c2.7-4.4,4.6-11.3,5.7-20.8l45.6,24.8
						c-1.1,9.4-3,16.4-5.7,20.8C1180.3,847.7,1178.3,849.9,1176,851.7"/>
					<path class="st32" d="M1187.5,824.4l-45.6-24.8c0.7-6,1-13.1,1.1-21.2l45.6,24.8C1188.6,811.3,1188.2,818.4,1187.5,824.4"/>
				</g>
			</g>
			<g>
				<polygon class="st27" points="1188.6,803.2 1143,778.4 1143.3,612.7 1188.9,637.5 				"/>
			</g>
			<g>
				<polygon class="st28" points="1188.9,637.5 1143.3,612.7 1191.1,606 1236.7,630.8 				"/>
			</g>
			<g>
				<polygon class="st59" points="1084.3,829.4 1038.7,804.6 1084,792.7 1129.6,817.5 				"/>
			</g>
			<g class="st0">
				<defs>
					<path id="SVGID_37_" class="st0" d="M1114.1,897.1l-45.6-24.8c-3.9-2.1-7.5-4.8-10.8-8c-12.6-12.4-19-32.3-19-59.7l45.6,24.8
						c0.1,27.4,6.4,47.3,19,59.7C1106.6,892.3,1110.2,894.9,1114.1,897.1z"/>
				</defs>
				<clipPath id="SVGID_38_">
					<use xlink:href="#SVGID_37_"  style="overflow:visible;"/>
				</clipPath>
				<g class="st60">
					<path class="st34" d="M1114.1,897.1l-45.6-24.8c-3.9-2.1-7.5-4.8-10.8-8c-4.3-4.3-7.9-9.4-10.8-15.5l45.6,24.8
						c2.9,6,6.5,11.2,10.8,15.5C1106.6,892.3,1110.2,894.9,1114.1,897.1"/>
					<path class="st33" d="M1092.5,873.6l-45.6-24.8c-3-6.4-5.2-13.9-6.6-22.3l45.6,24.8C1087.3,859.8,1089.5,867.2,1092.5,873.6"/>
					<path class="st32" d="M1086,851.4l-45.6-24.8c-1.1-6.7-1.6-14-1.6-21.9l45.6,24.8C1084.3,837.4,1084.9,844.7,1086,851.4"/>
				</g>
			</g>
			<g>
				<path class="st29" d="M1236.7,630.8l-0.3,162.4c0,21.2-1.8,37.8-5.3,49.7c-4.7,15.6-13.1,28.8-25.4,39.5
					c-12.2,10.8-28.3,17.5-48.3,20.3c-23.5,3.3-41.5-1.3-54.1-13.7c-12.6-12.4-19-32.3-19-59.7l45.2-12c0.5,14.6,2.5,24.7,5.9,30.3
					c5.2,8.5,13,12,23.6,10.5c10.7-1.5,18.3-5.9,22.7-13.1c4.4-7.2,6.7-21.2,6.7-42l0.3-165.7L1236.7,630.8z"/>
			</g>
		</g>
	</g>
</g>
</svg>
