<svg id="JS" xmlns="http://www.w3.org/2000/svg" xmlns:xlink="http://www.w3.org/1999/xlink" viewBox="0 0 4e3 4e3" style="enable-background:new 0 0 4e3 4e3"><style>.st0{fill:#ef7e22}.st1{fill:#f6a020}.st2{fill:#fff}.st3{fill:#ef7e21}</style><g><path class="st0" d="M947.2 1132.7H3020.5L2924.6 3098.1 1983.8 3496.3 1040.8 3105.1z"/><path class="st1" d="M1983.8 1348.3 2803.3 1348.4 2725.2 2949.8 1983.8 3263.6z"/><path class="st2" d="M1336.5 2450.8 1354.7 2836 1917.4 3059.9V1521.6H1673.5L1707.3 2693.7 1548.9 2634.1 1545.2 2516.6z"/><path class="st2" d="M2042.7 1521.6v827.5L2428.9 2318.9 2418.8 2634.1 2263.2 2693.7 2267.4 2534.8 2042.7 2568.9V2778.2 3064.3L2613 2836 2654.7 2076.2 2288.9 2087.2 2298.1 1792.3H2445.7L2443.4 1864 2664.1 1859.2 2684 1521.6z"/><g><path class="st3" d="M1064.6 504.7h53.7v169c0 22.1-1.9 39.1-5.8 51-5.2 15.5-14.7 28-28.4 37.4-13.7 9.4-31.8 14.1-54.3 14.1-26.3.0-46.6-7.4-60.8-22.1-14.2-14.8-21.4-36.4-21.5-64.9l50.8-5.8c.6 15.3 2.9 26.1 6.7 32.4 5.8 9.6 14.7 14.4 26.6 14.4 12 0 20.5-3.4 25.5-10.3 5-6.9 7.5-21.1 7.5-42.7V504.7z"/><path class="st3" d="M1392.3 771.7h-58.6l-23.3-60.6h-106.7l-22 60.6h-57.2l104-267h57L1392.3 771.7zM1293 666.1l-36.8-99.1-36.1 99.1H1293z"/><path class="st3" d="M1437.1 771.7l-95.4-267h58.5l67.6 197.6 65.4-197.6h57.2l-95.6 267H1437.1z"/><path class="st3" d="M1806.6 771.7H1748l-23.3-60.6H1618l-22 60.6h-57.2l104-267h57L1806.6 771.7zM1707.3 666.1l-36.8-99.1-36.1 99.1H1707.3z"/><path class="st3" d="M1797.3 684.9l52.5-5.1c3.2 17.6 9.6 30.5 19.2 38.8 9.7 8.3 22.7 12.4 39.1 12.4 17.4.0 30.4-3.7 39.2-11 8.8-7.3 13.2-15.9 13.2-25.8.0-6.3-1.9-11.7-5.6-16.1-3.7-4.4-10.2-8.3-19.4-11.6-6.3-2.2-20.7-6.1-43.2-11.7-28.9-7.2-49.2-16-60.8-26.4-16.4-14.7-24.6-32.6-24.6-53.7.0-13.6 3.9-26.3 11.6-38.2 7.7-11.8 18.8-20.9 33.3-27 14.5-6.2 32-9.3 52.5-9.3 33.5.0 58.7 7.3 75.7 22 16.9 14.7 25.8 34.3 26.7 58.8l-53.9 2.4c-2.3-13.7-7.3-23.6-14.8-29.6-7.6-6-19-9-34.1-9-15.7.0-27.9 3.2-36.8 9.7-5.7 4.1-8.6 9.7-8.6 16.6.0 6.3 2.7 11.7 8 16.2 6.8 5.7 23.3 11.7 49.5 17.8 26.2 6.2 45.6 12.6 58.2 19.2 12.6 6.6 22.4 15.7 29.5 27.1 7.1 11.5 10.7 25.7 10.7 42.5.0 15.3-4.3 29.6-12.7 43-8.5 13.4-20.5 23.3-36.1 29.8-15.5 6.5-34.9 9.7-58.1 9.7-33.8.0-59.7-7.8-77.8-23.4C1811.6 737.5 1800.8 714.7 1797.3 684.9z"/><path class="st3" d="M2206.3 673.6l52.3 16.6c-8 29.1-21.3 50.8-40 64.9-18.6 14.1-42.3 21.2-70.9 21.2-35.5.0-64.6-12.1-87.4-36.3-22.8-24.2-34.2-57.3-34.2-99.4.0-44.4 11.5-79 34.4-103.5 22.9-24.6 53.1-36.9 90.5-36.9 32.7.0 59.2 9.7 79.6 29 12.1 11.4 21.2 27.8 27.3 49.2l-53.4 12.7c-3.2-13.8-9.7-24.8-19.8-32.8-10-8-22.2-12-36.5-12-19.8.0-35.9 7.1-48.2 21.3-12.3 14.2-18.5 37.2-18.5 69 0 33.8 6.1 57.8 18.2 72.1 12.1 14.3 27.9 21.5 47.4 21.5 14.3.0 26.7-4.6 37-13.7C2194.4 707.4 2201.8 693.1 2206.3 673.6z"/><path class="st3" d="M2280.8 771.7v-267h113.5c28.5.0 49.3 2.4 62.2 7.2 12.9 4.8 23.3 13.3 31.1 25.6 7.8 12.3 11.7 26.3 11.7 42.1.0 20-5.9 36.6-17.7 49.6-11.8 13.1-29.4 21.3-52.8 24.7 11.7 6.8 21.3 14.3 28.9 22.4 7.6 8.1 17.8 22.6 30.7 43.3l32.6 52.1h-64.5l-39-58.1c-13.8-20.8-23.3-33.8-28.4-39.2-5.1-5.4-10.5-9.1-16.2-11.1-5.7-2-14.8-3-27.1-3h-10.9v111.5H2280.8zM2334.7 617.7h39.9c25.9.0 42-1.1 48.4-3.3 6.4-2.2 11.5-5.9 15.1-11.3 3.6-5.3 5.5-12 5.5-20 0-9-2.4-16.2-7.2-21.8-4.8-5.5-11.6-9-20.3-10.5-4.4-.6-17.5-.9-39.3-.9h-42.1V617.7z"/><path class="st3" d="M2524.1 771.7v-267h53.9v267H2524.1z"/><path class="st3" d="M2605.1 771.7v-267h86.5c32.8.0 54.2 1.3 64.1 4 15.3 4 28.1 12.7 38.4 26.1 10.3 13.4 15.5 30.8 15.5 52 0 16.4-3 30.2-8.9 41.3-6 11.2-13.5 19.9-22.7 26.3-9.2 6.4-18.5 10.6-28 12.7-12.9 2.5-31.5 3.8-55.9 3.8H2659v100.7H2605.1zM2659 549.9v75.8h29.5c21.2.0 35.5-1.4 42.6-4.2 7.2-2.8 12.8-7.2 16.8-13.1 4.1-5.9 6.1-12.9 6.1-20.8.0-9.7-2.9-17.7-8.6-24-5.7-6.3-12.9-10.3-21.7-11.8-6.4-1.2-19.4-1.8-38.8-1.8H2659z"/><path class="st3" d="M2889.7 771.7V549.9h-79.2v-45.2h212.2v45.2h-79v221.8h-54z"/></g></g></svg>