<?xml version="1.0" encoding="utf-8"?>
<!-- Generator: Adobe Illustrator 22.0.0, SVG Export Plug-In . SVG Version: 6.00 Build 0)  -->
<svg version="1.1" id="Calque_1" xmlns="http://www.w3.org/2000/svg" xmlns:xlink="http://www.w3.org/1999/xlink" x="0px" y="0px"
	 viewBox="0 0 400 400" style="enable-background:new 0 0 400 400;" xml:space="preserve">
<style type="text/css">
	.st0{fill:url(#SVGID_1_);}
	.st1{fill:none;stroke:#C6C6C5;stroke-width:3;stroke-miterlimit:10;}
	.st2{fill:url(#SVGID_2_);}
	.st3{fill:#FFFFFF;}
	.st4{fill:url(#SVGID_3_);}
	.st5{fill:url(#SVGID_4_);}
	.st6{fill:url(#SVGID_5_);}
	.st7{fill:url(#SVGID_6_);}
	.st8{fill:url(#SVGID_7_);}
	.st9{fill:url(#SVGID_8_);}
	.st10{fill:#6F6F6E;}
	.st11{fill:url(#SVGID_9_);}
	.st12{fill:url(#SVGID_10_);}
	.st13{fill:url(#SVGID_11_);}
	.st14{fill:url(#SVGID_12_);}
	.st15{fill:url(#SVGID_13_);}
	.st16{fill:url(#SVGID_14_);}
	.st17{fill:url(#SVGID_15_);}
	.st18{fill:url(#SVGID_16_);}
	.st19{fill:url(#SVGID_17_);}
	.st20{fill:url(#SVGID_18_);}
	.st21{fill:url(#SVGID_19_);}
	.st22{fill:url(#SVGID_20_);}
	.st23{fill:url(#SVGID_21_);}
	.st24{fill:url(#SVGID_22_);}
	.st25{fill:url(#SVGID_23_);}
	.st26{fill:url(#SVGID_24_);}
</style>
<g>
	<g>
		<linearGradient id="SVGID_1_" gradientUnits="userSpaceOnUse" x1="244.2517" y1="273.7956" x2="283.5552" y2="339.3399">
			<stop  offset="0" style="stop-color:#D9D9D9"/>
			<stop  offset="0.3083" style="stop-color:#C6C6C5"/>
			<stop  offset="0.7047" style="stop-color:#868686"/>
			<stop  offset="1" style="stop-color:#C6C6C5"/>
		</linearGradient>
		<path class="st0" d="M200.4,388l-0.4-0.2l-0.4,0.2v-0.4l-40.2-23.2l-0.4,0.2v-0.4l-40.3-23.3h-0.2l0-0.1l-40.2-23.2l-0.4,0.2v-0.4
			l-40.2-23.2l-0.4,0.2v-0.4l-0.4-0.2l0.4-0.2v-46.4l-0.4-0.2l0.4-0.2v-46.4L37,200l0.4-0.2v-46.4l-0.4-0.2l0.4-0.2v-46.4l-0.4-0.2
			l0.4-0.2v-0.4l0.4,0.2l40.2-23.2v-0.2h0.3l0.5-0.3v0l19.8-11.4l0.2,0.3l-0.2-0.3l20.1-11.6v-0.2h0.3l0.5-0.3v0l39.9-23v-0.4
			l0.4,0.2l0.4-0.2l39.8-23V12l0.4,0.2l0.4-0.2v0.4l40.2,23.2l0.4-0.2v0.4l39.9,23v0l0.5,0.3h0.3v0.2l40.3,23.3h0.3v0.2l0.3,0.2l0,0
			l39.9,23l0.4-0.2v0.4l0.4,0.2l-0.4,0.2v46.4l0.4,0.2l-0.4,0.2v46.4l0.4,0.2l-0.4,0.2v46.4l0.4,0.2l-0.4,0.2v46.4l0.4,0.2l-0.4,0.2
			v0.4l-0.4-0.2l-40.2,23.2v0.4l-0.4-0.2l-20.1,11.6l-20.1,11.6v0.2h-0.3l-0.5,0.3v0l-39.9,23v0.4l-0.4-0.2l-40.2,23.2V388z
			 M200.4,341.2v45.6l39.5-22.8L200.4,341.2z M160.2,364l39.5,22.8v-45.6L160.2,364z M240.9,317.7v45.6l39.5-22.8L240.9,317.7z
			 M119.6,340.6l39.5,22.8v-45.6L119.6,340.6z M159.8,317.7v45.6l39.5-22.8L159.8,317.7z M220.5,352l19.7,11.4v-45.6l-39.5,22.8
			L220.5,352z M241.3,317.1l39.5,22.8v-45.6L241.3,317.1z M119.2,294.3V340l39.5-22.8L119.2,294.3z M281.5,294.3v45.6l39.5-22.8
			L281.5,294.3z M200.4,339.9l39.5-22.8l-39.5-22.8V339.9z M160.2,317.1l39.5,22.8v-45.6L160.2,317.1z M98.8,328.5l19.7,11.4v-45.6
			L79,317.1l4.2,2.5L98.8,328.5z M322.1,270.9v45.6l39.5-22.8L322.1,270.9z M240.9,316.5L240.9,316.5l39.5-22.8l-39.5-22.8V316.5z
			 M119.6,293.7l39.5,22.8v-45.6L119.6,293.7z M159.8,270.9v45.6l39.5-22.8L159.8,270.9z M78.6,270.9v45.6l39.5-22.8L78.6,270.9z
			 M58.1,305l0.1,0l19.7,11.4v-45.6l-39.5,22.8L58.1,305z M200.7,293.7l39.5,22.8v-45.6L200.7,293.7z M281.9,293.7l39.5,22.8v-45.6
			L281.9,293.7z M261,281.7l19.8,11.4v-45.6l-39.5,22.8L261,281.7z M200.4,247.5v45.6l39.5-22.8L200.4,247.5z M119.2,293.1
			l39.5-22.8l-39.5-22.8V293.1z M281.5,293.1l39.5-22.8l-39.5-22.8V293.1z M38.1,247.5v45.6l39.5-22.8L38.1,247.5z M160.2,270.3
			l39.5,22.8v-45.6L160.2,270.3z M79,270.3l39.5,22.8v-45.6L79,270.3z M322.4,270.3l39.5,22.8v-45.6L322.4,270.3z M322.1,269.7
			l39.5-22.8L322.1,224V269.7z M240.9,224v45.6l39.5-22.8L240.9,224z M119.6,246.9l39.5,22.8V224L119.6,246.9z M159.8,224v45.6
			l39.5-22.8L159.8,224z M78.6,269.7l39.5-22.8L78.6,224V269.7z M38.4,246.9l39.5,22.8V224L38.4,246.9z M200.7,246.9l39.5,22.8V224
			L200.7,246.9z M281.9,246.9l39.5,22.8V224L281.9,246.9z M38.1,200.6v45.6l39.5-22.8L38.1,200.6z M200.4,246.2L200.4,246.2
			l19.8-11.4v0l19.7-11.4l-39.5-22.8V246.2z M119.2,200.6v45.6l39.5-22.8L119.2,200.6z M241.3,223.4l39.5,22.8v-45.6L241.3,223.4z
			 M281.5,200.6v45.6l39.5-22.8L281.5,200.6z M179.8,234.8l0.1,0l19.7,11.4v-45.6l-39.5,22.8L179.8,234.8z M98.8,234.8l19.7,11.4
			v-45.6L79,223.4L98.8,234.8z M342.2,234.8l19.7,11.4v-45.6l-39.5,22.8L342.2,234.8z M322.1,177.2v45.6l39.5-22.8L322.1,177.2z
			 M240.9,177.2v45.6l39.5-22.8L240.9,177.2z M119.6,200l39.5,22.8v-45.6L119.6,200z M159.8,222.8L159.8,222.8l39.5-22.8l-39.5-22.8
			V222.8z M78.6,177.2v45.6l39.5-22.8L78.6,177.2z M38.4,200l39.5,22.8v-45.6L38.4,200z M200.7,200l39.5,22.8v-45.6L200.7,200z
			 M301.6,211.4l19.7,11.4v-45.6L281.9,200L301.6,211.4z M281.5,199.4l39.5-22.8l-39.5-22.8V199.4z M38.1,153.8v45.6l39.5-22.8
			L38.1,153.8z M241.3,176.6l39.5,22.8v-45.6L241.3,176.6z M200.4,199.4l39.5-22.8l-39.5-22.8V199.4z M119.2,199.4l39.5-22.8
			l-39.5-22.8V199.4z M179.9,188l19.7,11.4v-45.6l-39.5,22.8L179.9,188z M98.8,188l19.7,11.4v-45.6L79,176.6L98.8,188z M342.2,188
			l19.7,11.4v-45.6l-39.5,22.8L342.2,188z M322.1,130.3V176l39.5-22.8L322.1,130.3z M240.9,130.3V176l39.5-22.8L240.9,130.3z
			 M139.3,164.6l19.8,11.4v-45.6l-39.5,22.8L139.3,164.6z M159.8,130.3V176l19.8-11.4v0l19.7-11.4L159.8,130.3z M200.7,153.1
			l39.5,22.8v-45.6L200.7,153.1z M38.4,153.1L77.9,176v-45.6L38.4,153.1z M301.6,164.6l19.7,11.4v-45.6l-39.5,22.8L301.6,164.6z
			 M78.6,130.3V176l39.5-22.8L78.6,130.3L78.6,130.3z M241.3,129.7l39.5,22.8v-45.6L241.3,129.7z M200.4,106.9v45.6l39.5-22.8
			L200.4,106.9z M119.2,152.5L119.2,152.5l39.5-22.8l-39.5-22.8V152.5z M281.5,106.9v45.6l39.5-22.8L281.5,106.9z M38.1,106.9v45.6
			l39.5-22.8L38.1,106.9z M160.2,129.7l39.5,22.8v-45.6L160.2,129.7z M79,129.7l39.5,22.8v-45.6L79,129.7z M322.4,129.7l39.5,22.8
			v-45.6L322.4,129.7z M322.1,129.1l39.5-22.8l-39.5-22.8V129.1z M240.9,83.5v45.6l39.5-22.8L240.9,83.5z M119.6,106.3l39.5,22.8
			V83.5L119.6,106.3z M159.8,129.1l39.5-22.8l-39.5-22.8V129.1z M78.6,83.5v45.6l39.5-22.8L78.6,83.5z M38.4,106.3l39.5,22.8V83.5
			L38.4,106.3z M220.5,117.7l19.7,11.4V83.5l-39.5,22.8L220.5,117.7z M281.9,106.3l39.5,22.8V83.5l-19.7,11.4L281.9,106.3z
			 M281.5,60.1v45.6l19.8-11.4L321,82.9L281.5,60.1z M261,94.3l19.8,11.4V60l-39.5,22.8L261,94.3z M200.4,105.7L200.4,105.7
			l39.5-22.8l-39.5-22.8V105.7z M119.2,60v45.6l39.5-22.8L119.2,60z M79,82.9l39.5,22.8V60.1L79,82.9z M160.2,82.9l39.5,22.8V60.1
			L160.2,82.9z M240.9,82.2L240.9,82.2l39.5-22.8l-39.5-22.8V82.2z M119.6,59.4l39.5,22.8V36.6L119.6,59.4z M159.8,36.6v45.6
			l39.5-22.8L159.8,36.6z M220.5,70.8l19.7,11.4V36.6l-39.5,22.8L220.5,70.8z M200.4,13.2v45.6L239.8,36L200.4,13.2z M179.9,47.4
			l19.7,11.4V13.2L160.2,36L179.9,47.4z"/>
		<polygon class="st1" points="99.3,328.8 99.3,328.8 83.8,319.9 79,317.1 58.7,305.4 58.7,305.4 38.4,293.7 38.4,106.3 58.7,94.6 
			79,82.9 79,82.9 99.3,71.2 119.6,59.5 119.6,59.4 139.9,47.7 160.2,36 180.4,24.3 200.7,12.6 221,24.3 221,24.3 241.3,36 
			261.6,47.7 281.8,59.4 281.9,59.5 302.1,71.2 322.4,82.9 322.4,82.9 342.7,94.6 363,106.3 363,293.7 342.7,305.4 322.4,317.1 
			317.7,319.9 302.1,328.8 281.9,340.6 261.6,352.3 241.3,364 221,375.7 221,375.7 200.7,387.4 180.4,375.7 160.2,364 139.9,352.3 
					"/>
		<g>
			<linearGradient id="SVGID_2_" gradientUnits="userSpaceOnUse" x1="216.2002" y1="72.1367" x2="106.397" y2="139.0507">
				<stop  offset="0" style="stop-color:#34E2A7"/>
				<stop  offset="0.1932" style="stop-color:#32E993"/>
				<stop  offset="0.5438" style="stop-color:#2EF573"/>
				<stop  offset="0.7383" style="stop-color:#2DF967"/>
				<stop  offset="0.7529" style="stop-color:#2DF862"/>
				<stop  offset="0.8532" style="stop-color:#2FF344"/>
				<stop  offset="0.9391" style="stop-color:#31F032"/>
				<stop  offset="1" style="stop-color:#31EF2B"/>
			</linearGradient>
			<polygon class="st2" points="79.7,129.7 200.7,59.9 240.5,82.9 119.6,152.7 			"/>
			<path class="st3" d="M200.7,60.3l39.1,22.6l-120.2,69.4l-39.1-22.6L200.7,60.3 M200.7,59.4L79,129.7l40.6,23.4l121.7-70.3
				L200.7,59.4L200.7,59.4z"/>
		</g>
		<g>
			<linearGradient id="SVGID_3_" gradientUnits="userSpaceOnUse" x1="99.283" y1="293.0479" x2="99.283" y2="130.3716">
				<stop  offset="0" style="stop-color:#34E2A7"/>
				<stop  offset="0.1932" style="stop-color:#32E993"/>
				<stop  offset="0.5438" style="stop-color:#2EF573"/>
				<stop  offset="0.7383" style="stop-color:#2DF967"/>
				<stop  offset="0.7529" style="stop-color:#2DF862"/>
				<stop  offset="0.8532" style="stop-color:#2FF344"/>
				<stop  offset="0.9391" style="stop-color:#31F032"/>
				<stop  offset="1" style="stop-color:#31EF2B"/>
			</linearGradient>
			<polygon class="st4" points="79.4,270.1 79.4,130.4 119.2,153.4 119.2,293 			"/>
			<path class="st3" d="M79.7,131l39.1,22.6l0,138.8l-39.1-22.6L79.7,131 M79,129.7l0,140.6l40.6,23.4l0-140.6L79,129.7L79,129.7z"
				/>
		</g>
		<g>
			<linearGradient id="SVGID_4_" gradientUnits="userSpaceOnUse" x1="179.801" y1="328.639" x2="307.3634" y2="256.169">
				<stop  offset="0" style="stop-color:#31EF2B"/>
				<stop  offset="6.091923e-02" style="stop-color:#31F032"/>
				<stop  offset="0.1468" style="stop-color:#2FF344"/>
				<stop  offset="0.2471" style="stop-color:#2DF862"/>
				<stop  offset="0.2617" style="stop-color:#2DF967"/>
				<stop  offset="0.4562" style="stop-color:#2EF573"/>
				<stop  offset="0.8068" style="stop-color:#32E993"/>
				<stop  offset="1" style="stop-color:#34E2A7"/>
			</linearGradient>
			<polygon class="st5" points="160.9,317.1 281.9,247.3 321.7,270.3 200.7,340.1 			"/>
			<path class="st3" d="M281.9,247.7l39.1,22.5l-120.2,69.4l-39.1-22.6L281.9,247.7 M281.9,246.9l-121.7,70.3l40.6,23.4l121.7-70.3
				L281.9,246.9L281.9,246.9z"/>
		</g>
		<g>
			<linearGradient id="SVGID_5_" gradientUnits="userSpaceOnUse" x1="287.9698" y1="267.5346" x2="316.6422" y2="107.3319">
				<stop  offset="0" style="stop-color:#34E2A7"/>
				<stop  offset="0.1932" style="stop-color:#32E993"/>
				<stop  offset="0.5438" style="stop-color:#2EF573"/>
				<stop  offset="0.7383" style="stop-color:#2DF967"/>
				<stop  offset="0.7529" style="stop-color:#2DF862"/>
				<stop  offset="0.8532" style="stop-color:#2FF344"/>
				<stop  offset="0.9391" style="stop-color:#31F032"/>
				<stop  offset="1" style="stop-color:#31EF2B"/>
			</linearGradient>
			<polygon class="st6" points="282.2,246.6 282.2,107 322.1,129.9 322.1,269.6 			"/>
			<path class="st3" d="M282.6,107.6l39.1,22.6l0,138.8l-39.1-22.5V107.6 M281.9,106.3v140.6l40.6,23.4l0-140.6L281.9,106.3
				L281.9,106.3z"/>
		</g>
		<g>
			<linearGradient id="SVGID_6_" gradientUnits="userSpaceOnUse" x1="200.7156" y1="199.5654" x2="200.7156" y2="153.582">
				<stop  offset="0.4326" style="stop-color:#2DF967"/>
				<stop  offset="0.4643" style="stop-color:#2DF862"/>
				<stop  offset="0.6817" style="stop-color:#2FF344"/>
				<stop  offset="0.8679" style="stop-color:#31F032"/>
				<stop  offset="1" style="stop-color:#31EF2B"/>
			</linearGradient>
			<polygon class="st7" points="160.9,176.6 200.7,153.6 240.5,176.6 200.7,199.6 			"/>
			<path class="st3" d="M200.7,154l39.1,22.6l-39.1,22.6l-39.1-22.6L200.7,154 M200.7,153.1l-40.6,23.4l40.6,23.4l40.6-23.4
				L200.7,153.1L200.7,153.1z"/>
		</g>
		<g>
			<linearGradient id="SVGID_7_" gradientUnits="userSpaceOnUse" x1="190.3849" y1="194.4668" x2="170.4736" y2="228.9544">
				<stop  offset="0.4326" style="stop-color:#34E2A7"/>
				<stop  offset="0.4866" style="stop-color:#33E59E"/>
				<stop  offset="0.6949" style="stop-color:#30F080"/>
				<stop  offset="0.8734" style="stop-color:#2EF76E"/>
				<stop  offset="1" style="stop-color:#2DF967"/>
			</linearGradient>
			<polygon class="st8" points="160.5,223.2 160.5,177.2 200.3,200.2 200.3,246.2 			"/>
			<path class="st3" d="M160.9,177.9l39.1,22.6v45.1L160.9,223V177.9 M160.1,176.6v46.8l40.6,23.4V200L160.1,176.6L160.1,176.6z"/>
		</g>
		<g>
			<linearGradient id="SVGID_8_" gradientUnits="userSpaceOnUse" x1="211.0465" y1="194.4669" x2="230.9579" y2="228.9545">
				<stop  offset="0.4326" style="stop-color:#34E2A7"/>
				<stop  offset="0.4866" style="stop-color:#33E59E"/>
				<stop  offset="0.6949" style="stop-color:#30F080"/>
				<stop  offset="0.8734" style="stop-color:#2EF76E"/>
				<stop  offset="1" style="stop-color:#2DF967"/>
			</linearGradient>
			<polygon class="st9" points="201.1,200.2 240.9,177.2 240.9,223.2 201.1,246.2 			"/>
			<path class="st3" d="M240.5,177.9V223l-39.1,22.6v-45.1L240.5,177.9 M241.3,176.6L200.7,200v46.8l40.6-23.4V176.6L241.3,176.6z"
				/>
		</g>
	</g>
</g>
</svg>
