<svg id="Calque_1" xmlns="http://www.w3.org/2000/svg" xmlns:xlink="http://www.w3.org/1999/xlink" viewBox="0 0 427.8 221" style="enable-background:new 0 0 427.8 221"><style>.st0{enable-background:new}.st1{fill:#003246}.st2{clip-path:url(#SVGID_2_);enable-background:new}.st3{fill:#00405b}.st4{fill:#003e58}.st5{fill:#003c56}.st6{fill:#00374e}.st7{clip-path:url(#SVGID_4_);enable-background:new}.st8{fill:#00344b}.st9{fill:#00364d}.st10{fill:#003850}.st11{fill:#003a53}.st12{clip-path:url(#SVGID_6_);enable-background:new}.st13{fill:#003248}.st14{fill:#003145}.st15{clip-path:url(#SVGID_8_);enable-background:new}.st16{fill:#005578}.st17{fill:#004562}.st18{clip-path:url(#SVGID_10_);enable-background:new}.st19{clip-path:url(#SVGID_12_);enable-background:new}.st20{clip-path:url(#SVGID_14_);enable-background:new}.st21{clip-path:url(#SVGID_16_);enable-background:new}.st22{fill:#895500}.st23{fill:#845200}.st24{fill:#805000}.st25{fill:#7b4d00}.st26{fill:#774a00}.st27{clip-path:url(#SVGID_18_);enable-background:new}.st28{fill:#965e00}.st29{fill:#925b00}.st30{fill:#8d5800}.st31{fill:#744900}.st32{clip-path:url(#SVGID_20_);enable-background:new}.st33{clip-path:url(#SVGID_22_);enable-background:new}.st34{clip-path:url(#SVGID_24_);enable-background:new}.st35{clip-path:url(#SVGID_26_);enable-background:new}.st36{fill:#a16400}.st37{clip-path:url(#SVGID_28_);enable-background:new}.st38{clip-path:url(#SVGID_30_);enable-background:new}.st39{fill:#c77c00}.st40{clip-path:url(#SVGID_32_);enable-background:new}.st41{clip-path:url(#SVGID_34_);enable-background:new}.st42{clip-path:url(#SVGID_36_);enable-background:new}.st43{clip-path:url(#SVGID_38_);enable-background:new}.st44{clip-path:url(#SVGID_40_);enable-background:new}.st45{clip-path:url(#SVGID_42_);enable-background:new}.st46{clip-path:url(#SVGID_44_);enable-background:new}.st47{clip-path:url(#SVGID_46_);enable-background:new}.st48{clip-path:url(#SVGID_48_);enable-background:new}.st49{clip-path:url(#SVGID_50_);enable-background:new}.st50{fill:#724700}.st51{clip-path:url(#SVGID_52_);enable-background:new}.st52{clip-path:url(#SVGID_54_);enable-background:new}.st53{clip-path:url(#SVGID_56_);enable-background:new}.st54{clip-path:url(#SVGID_58_);enable-background:new}.st55{clip-path:url(#SVGID_60_);enable-background:new}.st56{clip-path:url(#SVGID_62_);enable-background:new}.st57{clip-path:url(#SVGID_64_);enable-background:new}.st58{clip-path:url(#SVGID_66_);enable-background:new}.st59{clip-path:url(#SVGID_68_);enable-background:new}.st60{clip-path:url(#SVGID_70_);enable-background:new}.st61{clip-path:url(#SVGID_72_);enable-background:new}.st62{clip-path:url(#SVGID_74_);enable-background:new}.st63{clip-path:url(#SVGID_76_);enable-background:new}.st64{clip-path:url(#SVGID_78_);enable-background:new}.st65{clip-path:url(#SVGID_80_);enable-background:new}.st66{clip-path:url(#SVGID_82_);enable-background:new}.st67{clip-path:url(#SVGID_84_);enable-background:new}.st68{clip-path:url(#SVGID_86_);enable-background:new}.st69{clip-path:url(#SVGID_88_);enable-background:new}.st70{clip-path:url(#SVGID_90_);enable-background:new}.st71{clip-path:url(#SVGID_92_);enable-background:new}.st72{clip-path:url(#SVGID_94_);enable-background:new}.st73{clip-path:url(#SVGID_96_);enable-background:new}.st74{clip-path:url(#SVGID_98_);enable-background:new}.st75{clip-path:url(#SVGID_100_);enable-background:new}.st76{clip-path:url(#SVGID_102_);enable-background:new}.st77{clip-path:url(#SVGID_104_);enable-background:new}.st78{clip-path:url(#SVGID_106_);enable-background:new}.st79{clip-path:url(#SVGID_108_);enable-background:new}.st80{clip-path:url(#SVGID_110_);enable-background:new}.st81{clip-path:url(#SVGID_112_);enable-background:new}.st82{clip-path:url(#SVGID_114_);enable-background:new}.st83{clip-path:url(#SVGID_116_);enable-background:new}</style><g><g><g class="st0"><g><path class="st1" d="M109.4 205.5 107.1 204.3 107.2 155.6 109.4 156.8z"/></g><g class="st0"><defs><path id="SVGID_1_" class="st0" d="M115.6 147.4l2.3 1.2c-.7-.4-1.5-.6-2.4-.8-2.4-.5-4.6-.6-6.6-.3l-2.3-1.2c2-.3 4.2-.2 6.6.3C114.2 146.8 115 147 115.6 147.4z"/></defs><clipPath id="SVGID_2_"><use xlink:href="#SVGID_1_" style="overflow:visible"/></clipPath><g class="st2"><path class="st3" d="M108.9 147.6l-2.3-1.2c2-.3 4.2-.2 6.6.3.2.0.5.1.7.2l2.3 1.2c-.2-.1-.5-.1-.7-.2C113.1 147.4 110.9 147.3 108.9 147.6"/><path class="st4" d="M116.2 148l-2.3-1.2c.5.1 1 .3 1.5.5l2.3 1.2C117.2 148.3 116.8 148.1 116.2 148"/><path class="st5" d="M117.7 148.5l-2.3-1.2c.1.0.2.1.2.1l2.3 1.2C117.8 148.6 117.8 148.6 117.7 148.5"/></g></g><g><path class="st6" d="M80.9 200.5 78.6 199.3 96.1 154.9 98.4 156.2z"/></g><g class="st0"><defs><path id="SVGID_3_" class="st0" d="M98.4 156.2l-2.3-1.2c1.9-4.8 5.5-7.9 10.5-8.6l2.3 1.2C103.8 148.3 100.3 151.4 98.4 156.2z"/></defs><clipPath id="SVGID_4_"><use xlink:href="#SVGID_3_" style="overflow:visible"/></clipPath><g class="st7"><path class="st8" d="M98.4 156.2l-2.3-1.2c.3-.6.5-1.2.8-1.8l2.3 1.2C98.9 154.9 98.6 155.5 98.4 156.2"/><path class="st9" d="M99.2 154.4l-2.3-1.2c.3-.5.6-1 .9-1.5l2.3 1.2C99.8 153.3 99.5 153.8 99.2 154.4"/><path class="st10" d="M100.1 152.9l-2.3-1.2c.3-.4.6-.8.9-1.2l2.3 1.2C100.7 152 100.4 152.4 100.1 152.9"/><path class="st11" d="M101.1 151.7l-2.3-1.2c.3-.4.7-.7 1-1l2.3 1.2C101.7 151 101.4 151.3 101.1 151.7"/><path class="st5" d="M102.1 150.6l-2.3-1.2c.4-.3.8-.7 1.2-1l2.3 1.2C102.9 150 102.5 150.3 102.1 150.6"/><path class="st4" d="M103.3 149.7l-2.3-1.2c.5-.4 1.1-.7 1.7-1l2.3 1.2C104.4 149 103.8 149.3 103.3 149.7"/><path class="st3" d="M105 148.7l-2.3-1.2c1.2-.6 2.5-.9 3.9-1.1l2.3 1.2C107.5 147.8 106.2 148.1 105 148.7"/></g></g><g class="st0"><defs><path id="SVGID_5_" class="st0" d="M74.5 209.5l-2.3-1.2c-1.6-.9-2.8-2.4-3.8-4.8l2.3 1.2C71.7 207.1 72.9 208.6 74.5 209.5z"
						/></defs><clipPath id="SVGID_6_"><use xlink:href="#SVGID_5_" style="overflow:visible"/></clipPath><g class="st12"><path class="st13" d="M74.5 209.5l-2.3-1.2c-1.6-.9-2.8-2.4-3.8-4.8l2.3 1.2C71.7 207.1 72.9 208.6 74.5 209.5"/></g></g><g><path class="st14" d="M70.7 204.7 68.4 203.5 50.8 163.5 53.1 164.7z"/></g><g><path class="st1" d="M41.5 215.1 39.3 213.8 39.4 165.2 41.6 166.4z"/></g><g class="st0"><defs><path id="SVGID_7_" class="st0" d="M57.8 155l2.3 1.2c-1.8-1-3.9-1.3-6.5-.9-2 .3-4.2 1-6.6 2.1-3.6 1.7-5.4 4.2-5.4 9l-2.3-1.2c0-4.7 1.8-7.3 5.4-9 2.4-1.2 4.6-1.9 6.6-2.1C53.9 153.7 56.1 154.1 57.8 155z"/></defs><clipPath id="SVGID_8_"><use xlink:href="#SVGID_7_" style="overflow:visible"/></clipPath><g class="st15"><path class="st13" d="M41.6 166.4l-2.3-1.2c0-1.6.2-3 .6-4.2l2.3 1.2C41.9 163.4 41.6 164.8 41.6 166.4"/><path class="st8" d="M42.3 162.2 40 161c.1-.4.3-.7.5-1l2.3 1.2C42.6 161.5 42.4 161.9 42.3 162.2"/><path class="st9" d="M42.7 161.2l-2.3-1.2c.1-.3.3-.5.5-.7l2.3 1.2C43 160.7 42.9 160.9 42.7 161.2"/><path class="st10" d="M43.2 160.5l-2.3-1.2c.2-.2.3-.4.5-.7l2.3 1.2C43.5 160 43.4 160.2 43.2 160.5"/><path class="st11" d="M43.7 159.8l-2.3-1.2c.2-.2.4-.4.6-.6l2.3 1.2C44.1 159.4 43.9 159.6 43.7 159.8"/><path class="st5" d="M44.4 159.2l-2.3-1.2c.3-.3.6-.5.9-.7l2.3 1.2C44.9 158.7 44.6 158.9 44.4 159.2"/><path class="st4" d="M45.3 158.5l-2.3-1.2c.5-.4 1.1-.7 1.8-1 0 0 .1.0.1-.1l2.3 1.2c0 0-.1.0-.1.1C46.4 157.8 45.8 158.1 45.3 158.5"/><path class="st3" d="M47.2 157.4l-2.3-1.2c2.4-1.1 4.6-1.8 6.5-2.1 1.7-.2 3.2-.2 4.5.2l2.3 1.2c-1.3-.3-2.8-.4-4.5-.2C51.7 155.6 49.5 156.3 47.2 157.4"/><path class="st4" d="M58.2 155.5l-2.3-1.2c.6.1 1.1.4 1.6.6l2.3 1.2C59.3 155.8 58.8 155.6 58.2 155.5"/><path class="st5" d="M59.8 156.1l-2.3-1.2c.1.0.2.1.3.2l2.3 1.2C60 156.2 59.9 156.1 59.8 156.1"/></g></g><g><path class="st16" d="M108.9 147.6c2-.3 4.2-.2 6.6.3 3.6.7 5.4 2.7 5.4 7.5l-.1 48.6-11.4 1.6.1-48.7-17.8 45c-2.1 5.4-4.8 7.6-10.5 8.4-5.6.8-8.5-.6-10.5-5.5l-17.6-40L53 213.5l-11.4 1.6.1-48.6c0-4.7 1.8-7.3 5.4-9 2.4-1.2 4.6-1.9 6.6-2.1 5.1-.7 8.7 1.4 10.5 5.7l16.7 39.6 17.4-44.4C100.3 151.4 103.8 148.3 108.9 147.6z"/></g></g><g class="st0"><g><path class="st1" d="M173.2 199.4 170.9 198.2V194.9L173.2 196.2z"/></g><g><path class="st1" d="M173.3 188.7 171 187.5 171.1 155.5 173.3 156.8z"/></g><g><path class="st17" d="M173.3 156.8 171.1 155.5 182.5 153.9 184.8 155.2z"/></g><g class="st0"><defs><path id="SVGID_9_" class="st0" d="M143.5 191.7l-2.3-1.2c1 .5 2.5.8 4.9.5 1.1-.1 4.2-.6 7.8-1.1 7.3-1 16.9-2.4 17-2.4l2.3 1.2c-.1.0-9.7 1.4-17 2.4-3.7.5-6.8.9-7.8 1.1C146.1 192.5 144.6 192.2 143.5 191.7z"/></defs><clipPath id="SVGID_10_"><use xlink:href="#SVGID_9_" style="overflow:visible"/></clipPath><g class="st18"><path class="st5" d="M143.5 191.7l-2.3-1.2c0 0 .1.1.2.1l2.3 1.2C143.6 191.7 143.6 191.7 143.5 191.7"/><path class="st4" d="M143.7 191.8l-2.3-1.2c.3.1.6.3 1 .3l2.3 1.2C144.3 192 144 191.9 143.7 191.8"/><path class="st3" d="M144.7 192.1l-2.3-1.2c.9.2 2.2.3 3.8.1 1.1-.1 4.2-.6 7.8-1.1 7.3-1 16.9-2.4 17-2.4l2.3 1.2c-.1.0-9.7 1.4-17 2.4-3.7.5-6.8.9-7.8 1.1C146.8 192.4 145.6 192.4 144.7 192.1"/></g></g><g class="st0"><defs><path id="SVGID_11_" class="st0" d="M130.5 211.5l-2.3-1.2c.1.0 36.1-5.1 36.2-5.1 7.4-1.9 6.5-5.7 6.5-7l2.3 1.2c0 1.3.9 5.2-6.5 7C166.6 206.4 130.6 211.5 130.5 211.5z"/></defs><clipPath id="SVGID_12_"><use xlink:href="#SVGID_11_" style="overflow:visible"/></clipPath><g class="st19"><path class="st3" d="M130.5 211.5l-2.3-1.2c.1.0 36.1-5.1 36.2-5.1 1.1-.3 2.1-.6 2.9-1l2.3 1.2c-.8.4-1.7.7-2.9 1C166.6 206.4 130.6 211.5 130.5 211.5"/><path class="st4" d="M169.5 205.4l-2.3-1.2c.5-.2 1-.5 1.3-.8l2.3 1.2C170.5 204.9 170 205.2 169.5 205.4"/><path class="st5" d="M170.9 204.7l-2.3-1.2c.3-.2.5-.4.7-.5l2.3 1.2C171.4 204.3 171.1 204.5 170.9 204.7"/><path class="st11" d="M171.6 204.1l-2.3-1.2c.2-.2.3-.3.5-.5l2.3 1.2C171.9 203.8 171.7 204 171.6 204.1"/><path class="st10" d="M172 203.7l-2.3-1.2c.1-.1.2-.3.3-.4l2.3 1.2C172.3 203.4 172.2 203.5 172 203.7"/><path class="st9" d="M172.4 203.2l-2.3-1.2c.1-.2.2-.3.3-.5l2.3 1.2C172.6 202.9 172.5 203.1 172.4 203.2"/><path class="st8" d="M172.7 202.8l-2.3-1.2c.1-.2.2-.4.3-.6l2.3 1.2C172.8 202.4 172.8 202.6 172.7 202.8"/><path class="st13" d="M172.9 202.2l-2.3-1.2c.4-1.2.3-2.2.3-2.8l2.3 1.2C173.2 2e2 173.3 201 172.9 202.2"/></g></g><g><path class="st1" d="M130.5 219.8 128.2 218.6V210.3L130.5 211.5z"/></g><g><path class="st17" d="M130.4 163 128.1 161.7 139.5 160.1 141.8 161.3z"/></g><g class="st0"><defs><path id="SVGID_13_" class="st0" d="M135.1 197.8l-2.3-1.2c-3.1-1.7-4.8-4.2-4.8-7.2.0-.6.3-27.5.1-27.7l2.3 1.2c.2.2-.1 27.1-.1 27.7C130.4 193.6 132.1 196.2 135.1 197.8z"/></defs><clipPath id="SVGID_14_"><use xlink:href="#SVGID_13_" style="overflow:visible"/></clipPath><g class="st20"><path class="st13" d="M135.1 197.8l-2.3-1.2c-3.1-1.7-4.8-4.2-4.8-7.2.0-.6.3-27.5.1-27.7l2.3 1.2c.2.2-.1 27.1-.1 27.7C130.4 193.6 132.1 196.2 135.1 197.8"/></g></g><g><path class="st16" d="M184.8 155.2c.1.0-.1 43.6-.1 43.8.0 10.7-12.4 14.8-18.1 15.8l-36.1 5.1v-8.3c.1.0 36.1-5.1 36.2-5.1 7.4-1.9 6.5-5.7 6.5-7v-3.2l-24.3 3.4c-11.3 1.5-18.5-2.8-18.6-8.9.0-.6.3-27.5.1-27.7l11.4-1.6v26.8c-.1 1.5.4 4.8 6.7 4 1.1-.1 4.2-.6 7.8-1.1 7.3-1 16.9-2.4 17-2.4l.1-32L184.8 155.2z"/></g></g><g class="st0"><g class="st0"><defs><path id="SVGID_15_" class="st0" d="M231.1 178.4l-2.3-1.2c1.1-1.1 1.7-2.3 1.7-3.2l2.3 1.2C232.8 176.1 232.2 177.3 231.1 178.4z"/></defs><clipPath id="SVGID_16_"><use xlink:href="#SVGID_15_" style="overflow:visible"/></clipPath><g class="st21"><path class="st22" d="M231.1 178.4l-2.3-1.2c.1-.1.2-.2.3-.4l2.3 1.2C231.4 178.1 231.3 178.3 231.1 178.4"/><path class="st23" d="M231.5 178l-2.3-1.2c.2-.2.3-.4.5-.6l2.3 1.2C231.8 177.6 231.7 177.8 231.5 178"/><path class="st24" d="M232 177.4l-2.3-1.2c.1-.2.3-.4.4-.6l2.3 1.2C232.2 177 232.1 177.2 232 177.4"/><path class="st25" d="M232.3 176.8l-2.3-1.2c.1-.2.2-.4.3-.6l2.3 1.2C232.5 176.4 232.4 176.6 232.3 176.8"/><path class="st26" d="M232.6 176.2l-2.3-1.2c.1-.4.2-.7.2-1l2.3 1.2C232.8 175.5 232.7 175.9 232.6 176.2"/></g></g><g class="st0"><defs><path id="SVGID_17_" class="st0" d="M226.3 180.8l-2.3-1.2c2.2-.5 3.8-1.3 4.8-2.4l2.3 1.2C230.1 179.5 228.5 180.3 226.3 180.8z"/></defs><clipPath id="SVGID_18_"><use xlink:href="#SVGID_17_" style="overflow:visible"/></clipPath><g class="st27"><path class="st28" d="M226.3 180.8l-2.3-1.2c1-.2 1.9-.5 2.6-.9l2.3 1.2C228.2 180.3 227.3 180.6 226.3 180.8"/><path class="st29" d="M228.9 179.9l-2.3-1.2c.4-.2.8-.4 1.2-.7l2.3 1.2C229.8 179.5 229.4 179.7 228.9 179.9"/><path class="st30" d="M230.1 179.3l-2.3-1.2c.2-.2.4-.3.6-.5l2.3 1.2C230.5 178.9 230.3 179.1 230.1 179.3"/><path class="st22" d="M230.7 178.8l-2.3-1.2c.1-.1.3-.3.4-.4l2.3 1.2C231 178.5 230.9 178.6 230.7 178.8"/></g></g><g><path class="st31" d="M232.8 175.2 230.5 174V166.8L232.8 168z"/></g><g class="st0"><defs><path id="SVGID_19_" class="st0" d="M225.1 181.1l-2.3-1.2c.4-.1.8-.2 1.2-.2l2.3 1.2C225.9 180.9 225.5 181 225.1 181.1z"/></defs><clipPath id="SVGID_20_"><use xlink:href="#SVGID_19_" style="overflow:visible"/></clipPath><g class="st32"><path class="st28" d="M225.1 181.1l-2.3-1.2c.4-.1.8-.2 1.2-.2l2.3 1.2C225.9 180.9 225.5 181 225.1 181.1"/></g></g><g class="st0"><defs><path id="SVGID_21_" class="st0" d="M232.8 168l-2.3-1.2c0-.8-.2-1.5-.9-2.1l2.3 1.2C232.6 166.6 232.8 167.2 232.8 168z"/></defs><clipPath id="SVGID_22_"><use xlink:href="#SVGID_21_" style="overflow:visible"/></clipPath><g class="st33"><path class="st26" d="M232.8 168l-2.3-1.2c0-.8-.2-1.5-.9-2.1l2.3 1.2C232.6 166.6 232.8 167.2 232.8 168"/></g></g><g class="st0"><defs><path id="SVGID_23_" class="st0" d="M228.5 163.8l2.3 1.2c.4.2.8.6 1.1.9l-2.3-1.2C229.3 164.3 229 164 228.5 163.8z"
						/></defs><clipPath id="SVGID_24_"><use xlink:href="#SVGID_23_" style="overflow:visible"/></clipPath><g class="st34"><path class="st26" d="M231.9 165.9l-2.3-1.2c-.3-.4-.7-.7-1.1-.9l2.3 1.2C231.2 165.3 231.6 165.6 231.9 165.9"/></g></g><g class="st0"><defs><path id="SVGID_25_" class="st0" d="M237.6 157.3l2.3 1.2c-1-.6-2.3-1.1-3.7-1.4-2.8-.8-6.4-.9-9.8-.4l-2.3-1.2c3.4-.5 6.9-.3 9.8.4C235.4 156.3 236.6 156.7 237.6 157.3z"/></defs><clipPath id="SVGID_26_"><use xlink:href="#SVGID_25_" style="overflow:visible"/></clipPath><g class="st35"><path class="st28" d="M226.4 156.7l-2.3-1.2c3.3-.5 6.8-.3 9.6.4l2.3 1.2C233.2 156.3 229.8 156.2 226.4 156.7"/><path class="st29" d="M236 157.1l-2.3-1.2c.1.0.1.0.2.1 1.2.3 2.3.7 3.2 1.2l2.3 1.2c-.9-.5-2-.9-3.2-1.2C236.2 157.1 236.1 157.1 236 157.1"/><path class="st30" d="M239.4 158.3l-2.3-1.2c.2.1.3.2.5.3l2.3 1.2C239.8 158.5 239.6 158.4 239.4 158.3"/></g></g><g><path class="st36" d="M212.6 158.6 210.3 157.4 224.2 155.4 226.4 156.7z"/></g><g><path class="st36" d="M193.5 185.5 191.3 184.3l31.5-4.5L225.1 181.1z"/></g><g><path class="st31" d="M193.5 193.7 191.3 192.5V184.3L193.5 185.5z"/></g><g class="st0"><defs><path id="SVGID_27_" class="st0" d="M207.3 158.2 205 157c1.2.7 2.9.8 5.3.5l2.3 1.2C210.3 159 208.5 158.8 207.3 158.2z"/></defs><clipPath id="SVGID_28_"><use xlink:href="#SVGID_27_" style="overflow:visible"/></clipPath><g class="st37"><path class="st30" d="M207.3 158.2 205 157c.1.0.1.1.2.1l2.3 1.2C207.4 158.2 207.4 158.2 207.3 158.2"/><path class="st29" d="M207.5 158.2l-2.3-1.2c.3.1.6.3.9.3l2.3 1.2C208.1 158.5 207.8 158.4 207.5 158.2"/><path class="st28" d="M208.4 158.6l-2.3-1.2c1.1.3 2.5.3 4.2.1l2.3 1.2C210.9 158.9 209.5 158.8 208.4 158.6"/></g></g><g><path class="st36" d="M212.8 134.1 210.5 132.8 242.6 128.3 244.9 129.6z"/></g><g class="st0"><defs><path id="SVGID_29_" class="st0" d="M198.4 164.3l-2.3-1.2c-3-1.6-4.7-4.1-4.7-7.1l2.3 1.2C193.7 160.2 195.4 162.7 198.4 164.3z"/></defs><clipPath id="SVGID_30_"><use xlink:href="#SVGID_29_" style="overflow:visible"/></clipPath><g class="st38"><path class="st26" d="M198.4 164.3l-2.3-1.2c-3-1.6-4.7-4.1-4.7-7.1l2.3 1.2C193.7 160.2 195.4 162.7 198.4 164.3"/></g></g><g><path class="st31" d="M193.7 157.2 191.4 156V148.8L193.7 150z"/></g><g><path class="st39" d="M244.9 129.6v8.2l-32.6 4.6c-.3.0-.8.2-1.1.2-4.1 1-5.3 1.8-5.8 4.5-.1.4-.1.7-.1 1v5.6c0 .4.0.7.1 1.1.5 3.2 2.7 4.4 7.4 3.8l13.8-1.9c3.4-.5 6.9-.3 9.8.4 5.4 1.5 8.1 4.4 8.1 8v9c0 4.3-2.4 8-7.4 11.2-3 1.9-6.7 3.3-10.6 3.9l-32.9 4.6v-8.2l31.5-4.4c.4-.1.8-.2 1.2-.2 2.2-.5 3.8-1.3 4.8-2.4 1.1-1.1 1.7-2.3 1.7-3.2v-7.2c0-.8-.2-1.5-.9-2.1-1.1-1.3-2.6-1.8-6.3-1.6-.3.0-.8.0-1.2.1l-11.9 1.7c-1.1.2-2.2.2-3.3.3-9.8.3-15.6-3.7-15.6-9.2v-7.2c0-6.3 3-10.4 9.8-13.6 2.2-1 4.6-1.7 9.2-2.3L244.9 129.6z"/></g><g class="st0"><defs><path id="SVGID_31_" class="st0" d="M193.7 150l-2.3-1.2c0-6.3 3-10.4 9.8-13.6 2.2-1 4.6-1.7 9.2-2.3l2.3 1.2c-4.6.6-7 1.3-9.2 2.3C196.7 139.7 193.7 143.7 193.7 150z"/></defs><clipPath id="SVGID_32_"><use xlink:href="#SVGID_31_" style="overflow:visible"/></clipPath><g class="st40"><path class="st26" d="M193.7 150l-2.3-1.2c0-1.9.3-3.6.8-5.1l2.3 1.2C194 146.4 193.7 148.1 193.7 150"/><path class="st25" d="M194.6 144.9l-2.3-1.2c.2-.5.4-1 .7-1.5l2.3 1.2C195 143.9 194.8 144.4 194.6 144.9"/><path class="st24" d="M195.2 143.4l-2.3-1.2c.2-.4.5-.8.7-1.2l2.3 1.2C195.7 142.6 195.5 143 195.2 143.4"/><path class="st23" d="M196 142.2l-2.3-1.2c.3-.4.6-.8.9-1.1l2.3 1.2C196.5 141.5 196.2 141.8 196 142.2"/><path class="st22" d="M196.9 141.1l-2.3-1.2c.4-.4.7-.8 1.2-1.2l2.3 1.2C197.6 140.3 197.2 140.7 196.9 141.1"/><path class="st30" d="M198 139.9l-2.3-1.2c.5-.5 1.1-.9 1.8-1.4l2.3 1.2C199.1 139 198.6 139.5 198 139.9"/><path class="st29" d="M199.8 138.5l-2.3-1.2c1-.7 2.2-1.4 3.6-2.1l2.3 1.2C202 137.1 200.8 137.8 199.8 138.5"/><path class="st28" d="M203.4 136.5l-2.3-1.2c.1.0.1.0.2-.1 2.2-1 4.6-1.7 9.2-2.3l2.3 1.2c-4.6.6-7 1.3-9.2 2.3C203.5 136.4 203.4 136.5 203.4 136.5"/></g></g></g><g class="st0"><g class="st0"><defs><path id="SVGID_33_" class="st0" d="M385.7 126.4l-2.3-1.2c-.7-.4-1.2-1.1-1.9-1.5-1.9-1.2-3.8-2.7-5.8-3.7l2.3 1.2c2 1.1 3.9 2.5 5.8 3.7C384.5 125.3 385 126 385.7 126.4z"/></defs><clipPath id="SVGID_34_"><use xlink:href="#SVGID_33_" style="overflow:visible"/></clipPath><g class="st41"><path class="st13" d="M385.7 126.4l-2.3-1.2c-.7-.4-1.2-1.1-1.9-1.5-1.9-1.2-3.8-2.7-5.8-3.7l2.3 1.2c2 1.1 3.9 2.5 5.8 3.7C384.5 125.3 385 126 385.7 126.4"/></g></g><g class="st0"><defs><path id="SVGID_35_" class="st0" d="M368.3 110.5l-2.3-1.2c1.5.8 3.1 1.5 4.3 2.2l2.3 1.2C371.4 112 369.8 111.3 368.3 110.5z"/></defs><clipPath id="SVGID_36_"><use xlink:href="#SVGID_35_" style="overflow:visible"/></clipPath><g class="st42"><path class="st5" d="M368.3 110.5l-2.3-1.2c1.5.8 3.1 1.5 4.3 2.2l2.3 1.2C371.4 112 369.8 111.3 368.3 110.5"/></g></g><g><path class="st36" d="M336.3 165.4 334 164.2 364 160 366.3 161.2z"/></g><g class="st0"><defs><path id="SVGID_37_" class="st0" d="M370.6 92.9l2.3 1.2c1.7.9 3.4 2 3.6 3.3l-2.3-1.2C374 95 372.3 93.8 370.6 92.9z"/></defs><clipPath id="SVGID_38_"><use xlink:href="#SVGID_37_" style="overflow:visible"/></clipPath><g class="st43"><path class="st13" d="M376.5 97.4l-2.3-1.2c-.1-1.2-1.9-2.4-3.6-3.3l2.3 1.2C374.5 95.1 376.3 96.2 376.5 97.4"/></g></g><g class="st0"><defs><path id="SVGID_39_" class="st0" d="M329.1 165l-2.3-1.2c1.5.8 3.8.9 7.1.5l2.3 1.2C332.9 165.9 330.6 165.8 329.1 165z"
						/></defs><clipPath id="SVGID_40_"><use xlink:href="#SVGID_39_" style="overflow:visible"/></clipPath><g class="st44"><path class="st30" d="M329.1 165l-2.3-1.2c.1.0.1.1.2.1l2.3 1.2C329.3 165 329.2 165 329.1 165"/><path class="st29" d="M329.3 165.1l-2.3-1.2c.3.2.7.3 1 .4l2.3 1.2C330 165.3 329.6 165.2 329.3 165.1"/><path class="st28" d="M330.4 165.4l-2.3-1.2c1.4.4 3.4.4 5.9.0l2.3 1.2C333.7 165.8 331.8 165.8 330.4 165.4"/></g></g><g class="st0"><defs><path id="SVGID_41_" class="st0" d="M367 116.6l-2.3-1.2c-1.8-1-3.5-2.2-5.2-3.3-1.6-1.1-3.5-3.4-4.6-5.2-.6-.9-.7-2.1-1.4-2.8l2.3 1.2c.7.7.8 1.9 1.4 2.8 1.1 1.8 2.9 4.1 4.6 5.2C363.5 114.4 365.2 115.6 367 116.6z"/></defs><clipPath id="SVGID_42_"><use xlink:href="#SVGID_41_" style="overflow:visible"/></clipPath><g class="st45"><path class="st13" d="M367 116.6l-2.3-1.2c-1.8-1-3.5-2.2-5.2-3.3-1.6-1.1-3.5-3.4-4.6-5.2-.6-.9-.7-2.1-1.4-2.8l2.3 1.2c.7.7.8 1.9 1.4 2.8 1.1 1.8 2.9 4.1 4.6 5.2C363.5 114.4 365.2 115.6 367 116.6"/></g></g><g class="st0"><defs><path id="SVGID_43_" class="st0" d="M355.9 105.3l-2.3-1.2c.2-1.8 2.3-2.1 3.6-2.9 4.1-2.4 8.8-3.9 14.7-4.7.7-.1 1.5-.2 2.3-.3l2.3 1.2c-.8.1-1.5.2-2.3.3-5.9.8-10.6 2.3-14.7 4.7C358.2 103.2 356.1 103.5 355.9 105.3z"
						/></defs><clipPath id="SVGID_44_"><use xlink:href="#SVGID_43_" style="overflow:visible"/></clipPath><g class="st46"><path class="st13" d="M355.9 105.3l-2.3-1.2c0-.2.1-.3.1-.5l2.3 1.2C355.9 105 355.9 105.1 355.9 105.3"/><path class="st8" d="M356 104.8l-2.3-1.2c0-.1.1-.2.1-.3l2.3 1.2C356.1 104.6 356 104.7 356 104.8"/><path class="st9" d="M356.1 104.5l-2.3-1.2c0-.1.1-.1.1-.2l2.3 1.2C356.2 104.4 356.1 104.5 356.1 104.5"/><path class="st10" d="M356.2 104.3l-2.3-1.2c0-.1.1-.1.2-.2l2.3 1.2C356.3 104.2 356.3 104.3 356.2 104.3"/><path class="st11" d="M356.4 104.1l-2.3-1.2c.1-.1.1-.1.2-.2l2.3 1.2C356.5 104 356.5 104.1 356.4 104.1"/><path class="st5" d="M356.6 103.9l-2.3-1.2c.1-.1.2-.2.3-.2l2.3 1.2C356.8 103.8 356.7 103.9 356.6 103.9"/><path class="st4" d="M356.9 103.7l-2.3-1.2c.3-.2.5-.3.8-.5l2.3 1.2C357.4 103.4 357.2 103.5 356.9 103.7"/><path class="st3" d="M357.7 103.2l-2.3-1.2c.4-.2.8-.4 1.2-.5l2.3 1.2C358.6 102.9 358.1 103 357.7 103.2"/><path class="st4" d="M359 102.7l-2.3-1.2c.2-.1.4-.2.5-.3.8-.5 1.6-.9 2.5-1.3l2.3 1.2c-.9.4-1.7.8-2.5 1.3C359.3 102.5 359.1 102.6 359 102.7"/><path class="st3" d="M362 101.1l-2.3-1.2c3.5-1.6 7.5-2.7 12.2-3.4.7-.1 1.5-.2 2.3-.3l2.3 1.2c-.8.1-1.5.2-2.3.3C369.4 98.4 365.5 99.4 362 101.1"/></g></g><g class="st0"><defs><path id="SVGID_45_" class="st0" d="M370.9 93.1l-2.3-1.2c-.2-.1-.3-.2-.4-.3-2.5-1.6-5.1-3.2-7.7-4.7l2.3 1.2c2.6 1.4 5.2 3.1 7.7 4.7C370.6 93 370.8 93.1 370.9 93.1z"/></defs><clipPath id="SVGID_46_"><use xlink:href="#SVGID_45_" style="overflow:visible"/></clipPath><g class="st47"><path class="st13" d="M370.9 93.1l-2.3-1.2c-.2-.1-.3-.2-.4-.3-2.5-1.6-5.1-3.2-7.7-4.7l2.3 1.2c2.6 1.4 5.2 3.1 7.7 4.7C370.6 93 370.8 93.1 370.9 93.1"/></g></g><g class="st0"><defs><path id="SVGID_47_" class="st0" d="M320.9 172l-2.3-1.2c-3.5-1.9-5.2-5.2-5.2-9.8l2.3 1.2C315.6 166.9 317.4 170.1 320.9 172z"/></defs><clipPath id="SVGID_48_"><use xlink:href="#SVGID_47_" style="overflow:visible"/></clipPath><g class="st48"><path class="st26" d="M320.9 172l-2.3-1.2c-3.5-1.9-5.2-5.2-5.2-9.8l2.3 1.2C315.6 166.9 317.4 170.1 320.9 172"/></g></g><g class="st0"><defs><path id="SVGID_49_" class="st0" d="M351.4 79.2l-2.3-1.2c.8.4 2.1.5 2.9.9 3 1.2 6.4 1.9 9.2 3.5.1.0.1.1.2.1l2.3 1.2c-.1.0-.1-.1-.2-.1-2.8-1.5-6.2-2.3-9.2-3.5C353.5 79.7 352.2 79.7 351.4 79.2z"/></defs><clipPath id="SVGID_50_"><use xlink:href="#SVGID_49_" style="overflow:visible"/></clipPath><g class="st49"><path class="st5" d="M351.4 79.2l-2.3-1.2c0 0 .1.0.1.1L351.4 79.2C351.5 79.3 351.5 79.2 351.4 79.2"/><path class="st4" d="M351.5 79.3l-2.3-1.2c.3.1.6.2.9.3l2.3 1.2C352.1 79.5 351.8 79.4 351.5 79.3"/><path class="st3" d="M352.4 79.6l-2.3-1.2c.4.1.9.2 1.3.3l2.3 1.2C353.3 79.8 352.9 79.7 352.4 79.6"/><path class="st4" d="M353.7 79.9l-2.3-1.2c.2.1.4.1.6.2 2.7 1.1 5.9 1.8 8.6 3.2l2.3 1.2c-2.7-1.3-5.8-2-8.6-3.2C354.2 80 354 79.9 353.7 79.9"/><path class="st5" d="M362.9 83.2l-2.3-1.2c.2.1.4.2.6.3.1.0.1.1.2.1l2.3 1.2c-.1.0-.1-.1-.2-.1C363.3 83.4 363.1 83.3 362.9 83.2"/></g></g><g><path class="st50" d="M299.6 187.3 297.3 186 288.2 178.4 290.5 179.7z"/></g><g class="st0"><defs><path id="SVGID_51_" class="st0" d="M294.8 170.3l-2.3-1.2c1.5-1.1 2.6-2.6 2.9-4.4l2.3 1.2C297.3 167.7 296.3 169.2 294.8 170.3z"/></defs><clipPath id="SVGID_52_"><use xlink:href="#SVGID_51_" style="overflow:visible"/></clipPath><g class="st51"><path class="st30" d="M294.8 170.3l-2.3-1.2c.3-.2.5-.4.7-.6l2.3 1.2C295.3 169.9 295 170.1 294.8 170.3"/><path class="st22" d="M295.5 169.7l-2.3-1.2c.2-.2.4-.4.6-.6l2.3 1.2C295.9 169.3 295.7 169.5 295.5 169.7"/><path class="st23" d="M296.1 169.1l-2.3-1.2c.2-.2.3-.4.5-.6l2.3 1.2C296.4 168.7 296.3 168.9 296.1 169.1"/><path class="st24" d="M296.6 168.5l-2.3-1.2c.2-.2.3-.4.4-.7l2.3 1.2C296.9 168 296.7 168.3 296.6 168.5"/><path class="st25" d="M297 167.8l-2.3-1.2c.1-.3.3-.6.4-.9l2.3 1.2C297.3 167.2 297.1 167.5 297 167.8"/><path class="st26" d="M297.4 166.9l-2.3-1.2c.1-.3.2-.7.3-1l2.3 1.2C297.6 166.3 297.5 166.6 297.4 166.9"/></g></g><g class="st0"><defs><path id="SVGID_53_" class="st0" d="M297.7 165.9l-2.3-1.2c.1-.4.1-.8.1-1.2l2.3 1.2C297.8 165.1 297.8 165.5 297.7 165.9z"/></defs><clipPath id="SVGID_54_"><use xlink:href="#SVGID_53_" style="overflow:visible"/></clipPath><g class="st52"><path class="st26" d="M297.7 165.9l-2.3-1.2c.1-.4.1-.8.1-1.2l2.3 1.2C297.8 165.1 297.8 165.5 297.7 165.9"/></g></g><g><path class="st39" d="M327.1 118l-.1 42.5c0 4.3 2.5 5.8 9.2 4.9l30-4.2v8.2l-29.8 4.2c-1.1.2-2.2.2-3.3.3-11.8.7-17.6-3.2-17.6-11.7l.1-42.6L327.1 118z"/></g><g><path class="st31" d="M315.6 162.2 313.4 161V118.4L315.7 119.6z"/></g><g><path class="st36" d="M315.7 119.6 313.4 118.4 324.9 116.8 327.1 118z"/></g><g><path class="st31" d="M297.8 164.7 295.5 163.5V135.3L297.8 136.6z"/></g><g class="st0"><defs><path id="SVGID_55_" class="st0" d="M297.8 136.6l-2.3-1.2c0-.3.0-.7-.1-1.1l2.3 1.2C297.8 135.9 297.8 136.3 297.8 136.6z"
						/></defs><clipPath id="SVGID_56_"><use xlink:href="#SVGID_55_" style="overflow:visible"/></clipPath><g class="st53"><path class="st26" d="M297.8 136.6l-2.3-1.2c0-.3.0-.7-.1-1.1l2.3 1.2C297.8 135.9 297.8 136.3 297.8 136.6"/></g></g><g class="st0"><defs><path id="SVGID_57_" class="st0" d="M293.1 131.1l2.3 1.2c1.2.7 2 1.7 2.4 3.2l-2.3-1.2C295.1 132.8 294.3 131.7 293.1 131.1z"/></defs><clipPath id="SVGID_58_"><use xlink:href="#SVGID_57_" style="overflow:visible"/></clipPath><g class="st54"><path class="st26" d="M297.7 135.5l-2.3-1.2c-.3-1.4-1.1-2.5-2.4-3.2l2.3 1.2C296.6 133 297.4 134 297.7 135.5"/></g></g><g><path class="st36" d="M272.3 174.6 270 173.4 280.4 171.9 282.7 173.2z"/></g><g><path class="st36" d="M273.2 165.2 270.9 164 284.2 162.1 286.5 163.3z"/></g><g><path class="st50" d="M282.7 173.2 280.4 171.9 270.9 164 273.2 165.2z"/></g><g class="st0"><defs><path id="SVGID_59_" class="st0" d="M266.7 174l-2.3-1.2c1.4.8 3.3 1 5.6.7l2.3 1.2C270 175 268.1 174.7 266.7 174z"/></defs><clipPath id="SVGID_60_"><use xlink:href="#SVGID_59_" style="overflow:visible"/></clipPath><g class="st55"><path class="st30" d="M266.7 174l-2.3-1.2c.1.0.1.1.2.1l2.3 1.2C266.8 174 266.7 174 266.7 174"/><path class="st29" d="M266.9 174.1l-2.3-1.2c.4.2.8.3 1.2.4l2.3 1.2C267.6 174.4 267.2 174.2 266.9 174.1"/><path class="st28" d="M268.1 174.5l-2.3-1.2c1.2.3 2.6.4 4.2.1l2.3 1.2C270.7 174.9 269.3 174.8 268.1 174.5"/></g></g><g class="st0"><defs><path id="SVGID_61_" class="st0" d="M301.1 123.7l2.3 1.2c-2.3-1.3-5.4-1.9-9.3-1.9-1.1.0-2.1.1-3.2.2l-2.3-1.2c1.1-.2 2.1-.2 3.2-.2C295.7 121.8 298.8 122.4 301.1 123.7z"/></defs><clipPath id="SVGID_62_"><use xlink:href="#SVGID_61_" style="overflow:visible"/></clipPath><g class="st56"><path class="st28" d="M290.9 123.2l-2.3-1.2c1.1-.2 2.1-.2 3.2-.2 2.3.0 4.3.3 6.1.7l2.3 1.2c-1.8-.5-3.8-.7-6.1-.7C293 123 292 123.1 290.9 123.2"/><path class="st29" d="M300.2 123.7l-2.3-1.2c1 .3 1.9.6 2.8 1l2.3 1.2C302.2 124.3 301.2 124 300.2 123.7"/><path class="st30" d="M303 124.7l-2.3-1.2c.2.1.3.2.4.2l2.3 1.2C303.3 124.9 303.1 124.8 303 124.7"/></g></g><g class="st0"><defs><path id="SVGID_63_" class="st0" d="M314.1 110l-2.3-1.2c-1.8-1-3.1-2.9-4.8-4-4-2.7-8.7-6.9-11.4-11.1l2.3 1.2c2.7 4.3 7.4 8.4 11.4 11.1C311 107.1 312.4 109.1 314.1 110z"/></defs><clipPath id="SVGID_64_"><use xlink:href="#SVGID_63_" style="overflow:visible"/></clipPath><g class="st57"><path class="st13" d="M314.1 110l-2.3-1.2c-1.8-1-3.1-2.9-4.8-4-4-2.7-8.7-6.9-11.4-11.1l2.3 1.2c2.7 4.3 7.4 8.4 11.4 11.1C311 107.1 312.4 109.1 314.1 110"/></g></g><g class="st0"><defs><path id="SVGID_65_" class="st0" d="M256.8 181.5l-2.3-1.2c-3.5-1.9-5.2-5.1-5.1-9.8l2.3 1.2C251.6 176.4 253.3 179.6 256.8 181.5z"/></defs><clipPath id="SVGID_66_"><use xlink:href="#SVGID_65_" style="overflow:visible"/></clipPath><g class="st58"><path class="st26" d="M256.8 181.5l-2.3-1.2c-3.5-1.9-5.2-5.1-5.1-9.8l2.3 1.2C251.6 176.4 253.3 179.6 256.8 181.5"/></g></g><g class="st0"><defs><path id="SVGID_67_" class="st0" d="M298 94.9l-2.3-1.2c-1.2-2.4-2.4-4.8-3.6-7.3l2.3 1.2C295.6 90 296.8 92.5 298 94.9z"/></defs><clipPath id="SVGID_68_"><use xlink:href="#SVGID_67_" style="overflow:visible"/></clipPath><g class="st59"><path class="st13" d="M298 94.9l-2.3-1.2c-1.2-2.4-2.4-4.8-3.6-7.3l2.3 1.2C295.6 90 296.8 92.5 298 94.9"/></g></g><g class="st0"><defs><path id="SVGID_69_" class="st0" d="M287 98.2l-2.3-1.2c.2-.2.0-.1.4-.3l2.3 1.2C287 98.1 287.2 98 287 98.2z"/></defs><clipPath id="SVGID_70_"><use xlink:href="#SVGID_69_" style="overflow:visible"/></clipPath><g class="st60"><path class="st11" d="M287 98.2l-2.3-1.2c.1-.1.1-.1.1-.1l2.3 1.2C287.1 98 287.1 98.1 287 98.2"/><path class="st5" d="M287.1 98l-2.3-1.2c0 0 0 0 0 0L287.1 98c0 0 0 0 0 0"/><path class="st4" d="M287.1 98l-2.3-1.2c0 0 .1.0.3-.1l2.3 1.2C287.2 98 287.2 98 287.1 98"/></g></g><g class="st0"><defs><path id="SVGID_71_" class="st0" d="M285.6 97.7l-2.3-1.2c.4.2.8.4 1.4.4l2.3 1.2C286.5 98.1 286 97.9 285.6 97.7z"/></defs><clipPath id="SVGID_72_"><use xlink:href="#SVGID_71_" style="overflow:visible"/></clipPath><g class="st61"><path class="st5" d="M285.6 97.7l-2.3-1.2c0 0 .1.0.1.1l2.3 1.2C285.7 97.8 285.7 97.8 285.6 97.7"/><path class="st4" d="M285.8 97.8l-2.3-1.2c.2.1.5.2.7.3l2.3 1.2C286.2 98 286 97.9 285.8 97.8"/><path class="st3" d="M286.5 98.1l-2.3-1.2c.2.0.3.1.5.1l2.3 1.2C286.8 98.1 286.6 98.1 286.5 98.1"/></g></g><g><path class="st36" d="M269.2 126.3 266.9 125 288.6 122 290.9 123.2z"/></g><g class="st0"><defs><path id="SVGID_73_" class="st0" d="M287.4 97.9l-2.3-1.2c.6-5.2.8-10.3 2.4-14.6 1-2.7 2.9-4.7 4.2-7.1l2.3 1.2c-1.3 2.3-3.2 4.4-4.2 7.1C288.2 87.6 288 92.6 287.4 97.9z"/></defs><clipPath id="SVGID_74_"><use xlink:href="#SVGID_73_" style="overflow:visible"/></clipPath><g class="st62"><path class="st13" d="M287.4 97.9l-2.3-1.2c.6-5.2.8-10.2 2.4-14.5l2.3 1.2C288.2 87.7 288 92.7 287.4 97.9"/><path class="st8" d="M289.8 83.4l-2.3-1.2c0 0 0-.1.0-.1.2-.6.5-1.1.7-1.6l2.3 1.2c-.3.5-.5 1.1-.7 1.6C289.8 83.3 289.8 83.4 289.8 83.4"/><path class="st9" d="M290.5 81.7l-2.3-1.2c1-1.9 2.4-3.6 3.5-5.4l2.3 1.2C293 78.1 291.6 79.8 290.5 81.7"/></g></g><g class="st0"><defs><path id="SVGID_75_" class="st0" d="M291.8 75l2.3 1.2c0 0 0 0-.1.0L291.8 75c0 0 0 0 0 0z"/></defs><clipPath id="SVGID_76_"><use xlink:href="#SVGID_75_" style="overflow:visible"/></clipPath><g class="st63"><path class="st4" d="M294 76.3 291.7 75v0L294 76.3v0"/><path class="st5" d="M294 76.3l-2.3-1.2c0 0 0 0 0 0L294 76.3C294.1 76.3 294 76.3 294 76.3"/></g></g><g><path class="st31" d="M251.6 171.7 249.3 170.4 249.4 141.1 251.7 142.4z"/></g><g><path class="st39" d="M301.6 176l11.2 9.4-13.3 1.9-9.1-7.6-9.2 1.9-12.2 1.7c-2.1.3-4.3.3-6.7-.1-7.3-1.1-10.8-4.7-10.8-11.6l.1-29.3c0-7.5 4.9-12.6 14.5-15.4 1-.3 2.1-.5 3.1-.7l21.7-3c1.1-.2 2.1-.2 3.2-.2 9.6.1 14.4 3.9 14.4 11.4l-.1 29.3C308.4 169.7 306.4 173.2 301.6 176zM297.8 164.7l.1-28.1c0-.3.0-.7-.1-1.1-.7-3.1-3.6-4.5-8-3.9l-17.3 2.4c-5.1.7-8.4 3.6-8.4 7.3l-.1 27.9c0 .4.1.8.2 1.2.7 3.3 3.6 4.8 8.1 4.2l10.4-1.5-9.5-8 13.3-1.9 8.3 6.9c1.5-1.1 2.6-2.6 2.9-4.4C297.8 165.5 297.8 165.1 297.8 164.7"/></g><g class="st0"><defs><path id="SVGID_77_" class="st0" d="M251.7 142.4l-2.3-1.2c0-7.5 4.9-12.6 14.5-15.4 1-.3 2.1-.5 3.1-.7l2.3 1.2c-1 .1-2.1.4-3.1.7C256.5 129.7 251.7 134.9 251.7 142.4z"/></defs><clipPath id="SVGID_78_"><use xlink:href="#SVGID_77_" style="overflow:visible"/></clipPath><g class="st64"><path class="st26" d="M251.7 142.4l-2.3-1.2c0-1.8.3-3.4.8-5l2.3 1.2C252 138.9 251.7 140.6 251.7 142.4"/><path class="st25" d="M252.5 137.4l-2.3-1.2c.2-.6.5-1.1.7-1.7l2.3 1.2C253 136.3 252.7 136.8 252.5 137.4"/><path class="st24" d="M253.3 135.7l-2.3-1.2c.2-.5.5-.9.8-1.3l2.3 1.2C253.8 134.8 253.5 135.3 253.3 135.7"/><path class="st23" d="M254.1 134.4l-2.3-1.2c.3-.4.6-.8 1-1.2l2.3 1.2C254.7 133.6 254.4 134 254.1 134.4"/><path class="st22" d="M255 133.2l-2.3-1.2c.4-.4.8-.8 1.2-1.2l2.3 1.2C255.8 132.4 255.4 132.8 255 133.2"/><path class="st30" d="M256.3 132l-2.3-1.2c.5-.5 1.1-.9 1.8-1.4l2.3 1.2C257.4 131 256.8 131.5 256.3 132"/><path class="st29" d="M258 130.6l-2.3-1.2c1-.7 2-1.3 3.2-1.8l2.3 1.2C260.1 129.3 259 129.9 258 130.6"/><path class="st28" d="M261.2 128.7l-2.3-1.2c1.5-.7 3.1-1.3 4.9-1.8 1-.3 2.1-.5 3.1-.7l2.3 1.2c-1 .1-2.1.4-3.1.7C264.3 127.4 262.7 128.1 261.2 128.7"/></g></g><g class="st0"><defs><path id="SVGID_79_" class="st0" d="M347.7 83.8l-2.3-1.2c-.4-.2-.7-.5-1-.8-2.6-3.4-4.4-7.6-6.2-11.8-1.8-4.2-4.1-8.6-6-13-.9-2.2-1.4-4.1-2.4-6.1-6.4-12.4-15.8-22.3-27.3-28.5l2.3 1.2c11.5 6.2 20.9 16.1 27.3 28.5 1 2 1.5 4 2.4 6.1 1.8 4.3 4.1 8.7 6 13 1.8 4.2 3.6 8.5 6.2 11.8C347 83.4 347.3 83.6 347.7 83.8z"/></defs><clipPath id="SVGID_80_"><use xlink:href="#SVGID_79_" style="overflow:visible"/></clipPath><g class="st65"><path class="st13" d="M347.7 83.8l-2.3-1.2c-.4-.2-.7-.5-1-.8-2.6-3.4-4.4-7.6-6.2-11.8-1.8-4.2-4.1-8.6-6-13-.9-2.2-1.4-4.1-2.4-6.1-6.4-12.4-15.8-22.3-27.3-28.5l2.3 1.2c11.5 6.2 20.9 16.1 27.3 28.5 1 2 1.5 4 2.4 6.1 1.8 4.3 4.1 8.7 6 13 1.8 4.2 3.6 8.5 6.2 11.8C347 83.4 347.3 83.6 347.7 83.8"/></g></g><g class="st0"><defs><path id="SVGID_81_" class="st0" d="M284.6 102.7l-2.3-1.2c-1.9-1.1-3.4-3.2-4.2-4.4-4.5-7.2-5.7-20.3-2.5-31.3.7-2.5.8-5.4 2-7.4l2.3 1.2c-1.2 2-1.3 4.9-2 7.4-3.1 11.1-2 24.1 2.5 31.3C281.2 99.5 282.6 101.6 284.6 102.7z"/></defs><clipPath id="SVGID_82_"><use xlink:href="#SVGID_81_" style="overflow:visible"/></clipPath><g class="st66"><path class="st13" d="M284.6 102.7l-2.3-1.2c-1.9-1.1-3.4-3.2-4.2-4.4-4.5-7.2-5.7-20.3-2.5-31.3.6-2 .7-4.3 1.4-6.1l2.3 1.2c-.7 1.9-.8 4.1-1.4 6.1-3.1 11.1-2 24.1 2.5 31.3C281.2 99.5 282.6 101.6 284.6 102.7"/><path class="st8" d="M279.3 60.8l-2.3-1.2c.1-.3.3-.7.4-1l2.3 1.2C279.5 60.1 279.4 60.4 279.3 60.8"/><path class="st9" d="M279.7 59.8l-2.3-1.2c.1-.1.1-.2.2-.3l2.3 1.2C279.8 59.6 279.8 59.7 279.7 59.8"/></g></g><g class="st0"><defs><path id="SVGID_83_" class="st0" d="M288.7 36.7l-2.3-1.2c-.7-1.4-1.3-2.8-2-4.2l2.3 1.2C287.4 33.9 288 35.3 288.7 36.7z"/></defs><clipPath id="SVGID_84_"><use xlink:href="#SVGID_83_" style="overflow:visible"/></clipPath><g class="st67"><path class="st13" d="M288.7 36.7l-2.3-1.2c-.7-1.4-1.3-2.8-2-4.2l2.3 1.2C287.4 33.9 288 35.3 288.7 36.7"/></g></g><g class="st0"><defs><path id="SVGID_85_" class="st0" d="M287 27.9l-2.3-1.2c.1.0.2.0.3.0l2.3 1.2C287.2 27.8 287.1 27.9 287 27.9z"/></defs><clipPath id="SVGID_86_"><use xlink:href="#SVGID_85_" style="overflow:visible"/></clipPath><g class="st68"><path class="st3" d="M287 27.9l-2.3-1.2c.1.0.2.0.3.0l2.3 1.2C287.2 27.8 287.1 27.9 287 27.9"/></g></g><g class="st0"><defs><path id="SVGID_87_" class="st0" d="M286.7 32.5l-2.3-1.2c-.9-1.2-2.1-2-2.8-3.5l2.3 1.2C284.6 30.4 285.8 31.2 286.7 32.5z"
						/></defs><clipPath id="SVGID_88_"><use xlink:href="#SVGID_87_" style="overflow:visible"/></clipPath><g class="st69"><path class="st13" d="M286.7 32.5l-2.3-1.2c-.9-1.2-2.1-2-2.8-3.5l2.3 1.2C284.6 30.4 285.8 31.2 286.7 32.5"/></g></g><g><path class="st1" d="M283.7 29 281.4 27.8V27.5L283.7 28.8z"/></g><g class="st0"><defs><path id="SVGID_89_" class="st0" d="M283.7 28.8l-2.3-1.2c1-.4 2-.7 3.3-.9l2.3 1.2C285.7 28.1 284.7 28.4 283.7 28.8z"/></defs><clipPath id="SVGID_90_"><use xlink:href="#SVGID_89_" style="overflow:visible"/></clipPath><g class="st70"><path class="st3" d="M283.7 28.8l-2.3-1.2c1-.4 2-.7 3.3-.9l2.3 1.2C285.7 28.1 284.7 28.4 283.7 28.8"/></g></g><g><path class="st16" d="M287 27.9c.1.0.2.0.3.0.7.7 1.8 1 2.4 1.8.4.6.5 1.3 1 1.8.0 2.3-.6 3.9-1.8 5l-.2.2c-.7-1.4-1.3-2.8-2-4.2-.9-1.2-2.1-2-2.8-3.5h-.2v-.2C284.7 28.4 285.7 28.1 287 27.9z"/></g><g class="st0"><defs><path id="SVGID_91_" class="st0" d="M304 16.9l2.3 1.2c-1.4-.8-2.8-1.5-4.3-2.2-3.2-1.6-7.1-1.8-11.2-2.3l-2.3-1.2c4.1.5 8 .7 11.2 2.3C301.1 15.4 302.6 16.1 304 16.9z"/></defs><clipPath id="SVGID_92_"><use xlink:href="#SVGID_91_" style="overflow:visible"/></clipPath><g class="st71"><path class="st3" d="M290.7 13.6l-2.3-1.2c2.9.3 5.6.6 8.2 1.2l2.3 1.2C296.4 14.1 293.6 13.9 290.7 13.6"/><path class="st4" d="M298.9 14.8l-2.3-1.2c1.1.3 2.1.6 3 1.1.0.0.0.0.0.0l2.3 1.2c0 0 0 0 0 0C301 15.4 299.9 15 298.9 14.8"/><path class="st5" d="M302 15.9l-2.3-1.2c1.5.7 2.9 1.5 4.3 2.2l2.3 1.2C304.9 17.3 303.4 16.6 302 15.9"/></g></g><g class="st0"><defs><path id="SVGID_93_" class="st0" d="M284.1 14.1l-2.3-1.2c2.2-.2 4.4-.3 6.6-.5l2.3 1.2C288.5 13.7 286.3 13.9 284.1 14.1z"
						/></defs><clipPath id="SVGID_94_"><use xlink:href="#SVGID_93_" style="overflow:visible"/></clipPath><g class="st72"><path class="st3" d="M284.1 14.1l-2.3-1.2c2.2-.2 4.4-.3 6.6-.5l2.3 1.2C288.5 13.7 286.3 13.9 284.1 14.1"/></g></g><g class="st0"><defs><path id="SVGID_95_" class="st0" d="M283.5 13.8l-2.3-1.2c.2.1.4.2.6.3l2.3 1.2C283.9 14 283.7 13.9 283.5 13.8z"/></defs><clipPath id="SVGID_96_"><use xlink:href="#SVGID_95_" style="overflow:visible"/></clipPath><g class="st73"><path class="st5" d="M283.5 13.8l-2.3-1.2c.1.0.1.1.2.1l2.3 1.2C283.6 13.8 283.6 13.8 283.5 13.8"/><path class="st4" d="M283.7 13.9l-2.3-1.2c.2.1.3.1.5.2l2.3 1.2C284 14 283.8 13.9 283.7 13.9"/></g></g><g class="st0"><defs><path id="SVGID_97_" class="st0" d="M280.8 18.9l-2.3-1.2c-1.1-.6-2.1-1.7-3.1-2.2-.2-.1-.4-.2-.6-.3l2.3 1.2c.2.1.4.2.6.3C278.7 17.2 279.7 18.3 280.8 18.9z"/></defs><clipPath id="SVGID_98_"><use xlink:href="#SVGID_97_" style="overflow:visible"/></clipPath><g class="st74"><path class="st13" d="M280.8 18.9l-2.3-1.2c-1.1-.6-2.1-1.7-3.1-2.2-.2-.1-.4-.2-.6-.3l2.3 1.2c.2.1.4.2.6.3C278.7 17.2 279.7 18.3 280.8 18.9"/></g></g><g class="st0"><defs><path id="SVGID_99_" class="st0" d="M265.5 7.5l-2.3-1.2c5.1-.7 11.5 2.2 14.6 3.9l2.3 1.2C277 9.7 270.7 6.8 265.5 7.5z"/></defs><clipPath id="SVGID_100_"><use xlink:href="#SVGID_99_" style="overflow:visible"/></clipPath><g class="st75"><path class="st3" d="M265.5 7.5l-2.3-1.2c2.1-.3 4.3.0 6.5.6l2.3 1.2C269.8 7.5 267.6 7.2 265.5 7.5"/><path class="st4" d="M272 8.1l-2.3-1.2c2.5.6 4.8 1.6 6.7 2.5l2.3 1.2C276.8 9.7 274.5 8.7 272 8.1"/><path class="st5" d="M278.7 10.6l-2.3-1.2c.6.3 1.1.5 1.5.8l2.3 1.2C279.7 11.1 279.2 10.9 278.7 10.6"/></g></g><g><path class="st16" d="M265.5 7.5c5.1-.7 11.5 2.2 14.6 3.9 1.3.7 2.7 2.3 4 2.7 2.2-.2 4.4-.3 6.6-.5 4.1.5 8 .7 11.2 2.3 15.1 7.4 24.9 15.8 33.9 30.6 1.9 3.1 2.9 6.6 4.4 10.2 2.2 5.2 4.7 10.5 7.2 15.4 1.2 2.3 2 4.9 3.6 6.8.7.8 2.4.8 3.4 1.3 3 1.2 6.4 1.9 9.2 3.5 5 2.7 9.9 6.1 14.4 9.6 1.7 1.3 2.8 3.5 4.4 5 0 .3.0.6.0.9-1.4.6-2.8 1.2-4.2 1.9-3.1 1.3-5.8 1.5-8.8 2.7-1.8.8-4.1 1.8-6 2.3 1.3 3.5 7.4 5.5 10.2 7.2 3.4 2.2 6.6 4.9 9.2 8.2.9.8 1.7 1.6 2.6 2.4.6.8.7 2 1.4 2.8-1.2-.1-1.8-1.1-2.8-1.8-1.9-1.2-3.8-2.7-5.8-3.7-3.3-1.8-7.1-2.6-10.6-4.3-1.9-1-3.8-2.3-5.6-3.5-1.6-1.1-3.5-3.4-4.6-5.2-.6-.9-.7-2.1-1.4-2.8.2-1.8 2.3-2.1 3.6-2.9 4.1-2.4 8.8-3.9 14.7-4.7.7-.1 1.5-.2 2.3-.3-.2-1.9-4.6-3.7-6-4.5-2.8-1.8-5.8-3.7-8.8-5.2-1.6-.8-4.3-1.2-6-1.7-2.4-.8-7.6-1.1-9-2.8-2.6-3.4-4.4-7.6-6.2-11.8-1.8-4.2-4.1-8.6-6-13-.9-2.2-1.4-4.1-2.4-6.1-6.4-12.4-15.8-22.3-27.3-28.5-3.8-2-7.9-3.8-12.6-4.7-2.6-.5-5.8.4-8.6.1-.6.1-1.2.2-1.8.3-1.6-.3-2.9-1.9-4.2-2.6-2.7-1.6-5.4-2.5-8.6-3.5-.9-.3-2.9-.8-4.3-.6-.5.1-.9.2-1.3.5-.7.3-1 .7-1.2 1.5-.7 1.2-.1 2.8.4 3.8 1.3 2.8 3.1 4.4 4.8 6.7 1.5 2 3.3 4.3 4.4 6.7 2.2 5 3.2 10.7 5.4 15.6.8 1.9 2 4 3.2 5.6 1 1.3 2.7 2.1 3.2 3.9 1.1 1.7-1.6 8.4-2.2 10.4-2.3 8-1.9 18.8.8 25.1 1 2.5 2 5.5 4.8 5.8.2-.2.0-.1.4-.3.6-5.2.8-10.3 2.4-14.6 1-2.7 2.9-4.7 4.2-7.1 1 .5.9 2.2 1.4 3.3 1.2 2.8 2.4 5.8 3.8 8.5 2.9 5.7 6.1 11.1 9.8 15.9 1.3 1.7 3 3.5 4.6 5 .7.6 1.5.9 2 1.7-2.5-.4-4.1-3.1-6.2-4.5-4-2.7-8.7-6.9-11.4-11.1-1.2-2.4-2.4-4.8-3.6-7.3-.5.6-.3 1.3-.6 2.5-1.1 4.9-.3 10.2-4.2 12.5-.7.4-1.4.6-2 .7-3.5.5-6-3.2-7.2-5-4.5-7.2-5.7-20.3-2.5-31.3.7-2.5.8-5.4 2-7.4-.2-1.6-1.5-1.9-2.2-2.9-1.2-1.6-2.2-3.5-3.2-5.4-1.9-3.6-3.1-8.1-4.6-12.1-.6-1.6-.7-3.2-1.4-4.8-1-2.3-2.9-4.5-4.4-6.5-2.1-2.8-7.9-8-5.6-14.5C259.9 9.6 262.5 7.9 265.5 7.5z"/></g><g class="st0"><defs><path id="SVGID_101_" class="st0" d="M279.9 59.5l-2.3-1.2c-.2-1.6-1.5-1.9-2.2-2.9-1.2-1.6-2.2-3.5-3.2-5.4-1.9-3.6-3.1-8.1-4.6-12.1-.6-1.6-.7-3.2-1.4-4.8-1-2.3-2.9-4.5-4.4-6.5-2.1-2.8-7.9-8-5.6-14.5 1.4-3.8 4-5.4 7-5.8l2.3 1.2c-3 .4-5.6 2.1-7 5.8-2.4 6.5 3.5 11.7 5.6 14.5 1.5 2 3.3 4.2 4.4 6.5.7 1.5.8 3.1 1.4 4.8 1.5 4 2.7 8.4 4.6 12.1.9 1.8 2 3.8 3.2 5.4C278.4 57.6 279.7 57.9 279.9 59.5z"/></defs><clipPath id="SVGID_102_"><use xlink:href="#SVGID_101_" style="overflow:visible"/></clipPath><g class="st76"><path class="st13" d="M279.9 59.5l-2.3-1.2c-.2-1.6-1.5-1.9-2.2-2.9-1.2-1.6-2.2-3.5-3.2-5.4-1.9-3.6-3.1-8.1-4.6-12.1-.6-1.6-.7-3.2-1.4-4.8-1-2.3-2.9-4.5-4.4-6.5-2.1-2.8-7.9-8-5.6-14.5.0.0.0.0.0.0l2.3 1.2c0 0 0 0 0 0-2.4 6.5 3.5 11.7 5.6 14.5 1.5 2 3.3 4.2 4.4 6.5.7 1.5.8 3.1 1.4 4.8 1.5 4 2.7 8.4 4.6 12.1.9 1.8 2 3.8 3.2 5.4C278.4 57.6 279.7 57.9 279.9 59.5"/><path class="st8" d="M258.6 13.3l-2.3-1.2c.2-.5.4-1 .7-1.5l2.3 1.2C259 12.3 258.8 12.8 258.6 13.3"/><path class="st9" d="M259.3 11.8l-2.3-1.2c.2-.3.4-.7.6-.9l2.3 1.2C259.6 11.2 259.4 11.5 259.3 11.8"/><path class="st10" d="M259.8 10.9l-2.3-1.2c.2-.3.4-.5.6-.7l2.3 1.2C260.2 10.4 260 10.6 259.8 10.9"/><path class="st11" d="M260.4 10.1l-2.3-1.2c.2-.2.4-.4.6-.6l2.3 1.2C260.8 9.7 260.6 9.9 260.4 10.1"/><path class="st5" d="M261 9.5l-2.3-1.2c.2-.2.5-.4.8-.6l2.3 1.2C261.5 9.1 261.3 9.3 261 9.5"/><path class="st4" d="M261.8 8.9l-2.3-1.2c.4-.2.7-.5 1.1-.6l2.3 1.2C262.5 8.4 262.2 8.7 261.8 8.9"/><path class="st3" d="M262.9 8.3 260.6 7c.8-.4 1.7-.6 2.6-.8l2.3 1.2C264.6 7.6 263.7 7.9 262.9 8.3"/></g></g></g><g class="st0"><g class="st0"><defs><path id="SVGID_103_" class="st0" d="M377.8 165c1.2-.2 2.3-.6 3.2-1.3.8.4 1.5.8 2.3 1.2-.9.7-2 1.2-3.2 1.3C379.4 165.9 378.5 165.4 377.8 165z"/></defs><clipPath id="SVGID_104_"><use xlink:href="#SVGID_103_" style="overflow:visible"/></clipPath><g class="st77"><path class="st28" d="M380.1 166.2l-2.3-1.2c.7-.1 1.3-.3 1.9-.6l2.3 1.2C381.4 165.9 380.7 166.1 380.1 166.2"/><path class="st29" d="M382 165.7l-2.3-1.2c.4-.2.7-.4 1.1-.6l2.3 1.2C382.7 165.3 382.4 165.5 382 165.7"/><path class="st30" d="M383.1 165l-2.3-1.2c.3-.2.5-.4.8-.6l2.3 1.2C383.6 164.7 383.3 164.9 383.1 165"/></g></g><g class="st0"><defs><path id="SVGID_105_" class="st0" d="M384.3 156.9c0-2.7-1.2-4.7-3-5.7l2.3 1.2c1.8 1 3 3 3 5.7.0 2.8-1.4 5.3-3.3 6.8-.8-.4-1.5-.8-2.3-1.2C383 162.2 384.3 159.7 384.3 156.9z"/></defs><clipPath id="SVGID_106_"><use xlink:href="#SVGID_105_" style="overflow:visible"/></clipPath><g class="st78"><path class="st30" d="M383.1 165l-2.3-1.2c.3-.2.5-.4.8-.6l2.3 1.2C383.6 164.7 383.3 164.9 383.1 165"/><path class="st22" d="M383.8 164.4l-2.3-1.2c.2-.2.4-.4.7-.7l2.3 1.2C384.3 164 384.1 164.2 383.8 164.4"/><path class="st23" d="M384.5 163.8l-2.3-1.2c.2-.2.4-.5.6-.7l2.3 1.2C384.9 163.3 384.7 163.5 384.5 163.8"/><path class="st24" d="M385.1 163l-2.3-1.2c.2-.3.4-.6.5-.9l2.3 1.2C385.4 162.5 385.3 162.8 385.1 163"/><path class="st25" d="M385.6 162.2l-2.3-1.2c.2-.4.4-.7.5-1.1l2.3 1.2C385.9 161.5 385.8 161.8 385.6 162.2"/><path class="st26" d="M386.1 161.1l-2.3-1.2c.3-.9.5-1.9.5-3 0-2.7-1.2-4.7-3-5.7l2.3 1.2c1.8 1 3 3 3 5.7C386.6 159.2 386.4 160.2 386.1 161.1"/></g></g><g><path class="st50" d="M382.3 163.9 380.1 162.7 377.6 158.5 379.8 159.8z"/></g><g class="st0"><defs><path id="SVGID_107_" class="st0" d="M374.3 164.4c1 .5 2.2.8 3.5.6l2.3 1.2c-1.3.2-2.5.0-3.5-.6C375.9 165.3 374.9 164.8 374.3 164.4z"/></defs><clipPath id="SVGID_108_"><use xlink:href="#SVGID_107_" style="overflow:visible"/></clipPath><g class="st79"><path class="st30" d="M376.5 165.7l-2.3-1.2c.1.0.1.1.2.1l2.3 1.2C376.7 165.7 376.6 165.7 376.5 165.7"/><path class="st29" d="M376.7 165.8l-2.3-1.2c.3.2.7.3 1 .4l2.3 1.2C377.4 166 377.1 165.9 376.7 165.8"/><path class="st28" d="M377.8 166.1l-2.3-1.2c.7.2 1.5.2 2.3.1l2.3 1.2C379.2 166.4 378.5 166.3 377.8 166.1"/></g></g><g class="st0"><defs><path id="SVGID_109_" class="st0" d="M379.5 154.2l2.3 1.2c.3.2.5.5.5 1 0 1.5-1.1 1.7-2.3 1.9l-2.3-1.2c1.2-.2 2.3-.4 2.3-1.9C380.1 154.6 379.9 154.3 379.5 154.2z"/></defs><clipPath id="SVGID_110_"><use xlink:href="#SVGID_109_" style="overflow:visible"/></clipPath><g class="st80"><path class="st28" d="M380.1 158.3l-2.3-1.2c.5-.1 1-.2 1.4-.3l2.3 1.2C381 158.1 380.6 158.2 380.1 158.3"/><path class="st29" d="M381.4 158l-2.3-1.2c.1.0.2-.1.3-.2l2.3 1.2C381.6 157.9 381.5 157.9 381.4 158"/><path class="st30" d="M381.7 157.8l-2.3-1.2c.1.0.1-.1.2-.1l2.3 1.2C381.8 157.7 381.7 157.8 381.7 157.8"/><path class="st22" d="M381.8 157.7l-2.3-1.2c0 0 .1-.1.1-.1l2.3 1.2C381.9 157.6 381.9 157.6 381.8 157.7"/><path class="st23" d="M382 157.6l-2.3-1.2c0 0 .1-.1.1-.1l2.3 1.2C382 157.5 382 157.5 382 157.6"/><path class="st24" d="M382 157.5l-2.3-1.2c0 0 .1-.1.1-.1l2.3 1.2C382.1 157.4 382.1 157.4 382 157.5"/><path class="st25" d="M382.1 157.3l-2.3-1.2c0-.1.1-.1.1-.2l2.3 1.2C382.2 157.2 382.2 157.3 382.1 157.3"/><path class="st26" d="M382.2 157.1l-2.3-1.2c.1-.2.1-.4.1-.7.0-.5-.2-.8-.5-1l2.3 1.2c.3.2.5.5.5 1C382.3 156.7 382.3 156.9 382.2 157.1"/></g></g><g><path class="st36" d="M378.3 158.5 376.1 157.3 377.8 157.1 380.1 158.3z"/></g><g class="st0"><defs><path id="SVGID_111_" class="st0" d="M380.8 152.8l2.3 1.2c-.6-.3-1.5-.4-2.6-.2l-2.3-1.2C379.3 152.4 380.2 152.5 380.8 152.8z"/></defs><clipPath id="SVGID_112_"><use xlink:href="#SVGID_111_" style="overflow:visible"/></clipPath><g class="st81"><path class="st28" d="M380.5 153.8l-2.3-1.2c.8-.1 1.5-.1 2 0l2.3 1.2C382 153.7 381.3 153.7 380.5 153.8"/><path class="st29" d="M382.5 153.8l-2.3-1.2c.2.0.3.1.5.2l2.3 1.2C382.8 153.9 382.7 153.9 382.5 153.8"/><path class="st30" d="M383 154l-2.3-1.2c0 0 .1.0.1.0L383 154c0 0 0 0 0 0"/></g></g><g class="st0"><defs><path id="SVGID_113_" class="st0" d="M382.4 149.5l2.3 1.2c-1.3-.7-2.9-1-4.6-.8l-2.3-1.2C379.5 148.5 381.1 148.8 382.4 149.5z"/></defs><clipPath id="SVGID_114_"><use xlink:href="#SVGID_113_" style="overflow:visible"/></clipPath><g class="st82"><path class="st28" d="M380.1 149.9l-2.3-1.2c1-.1 2.1-.1 3 .2l2.3 1.2C382.1 149.9 381.1 149.8 380.1 149.9"/><path class="st29" d="M383.1 150.1l-2.3-1.2c.5.1.9.3 1.4.5l2.3 1.2C384 150.4 383.6 150.2 383.1 150.1"/><path class="st30" d="M384.4 150.6l-2.3-1.2c.1.0.2.1.3.1l2.3 1.2C384.6 150.7 384.5 150.6 384.4 150.6"/></g></g><g><path class="st36" d="M376.7 154.3 374.4 153.1 378.2 152.6 380.5 153.8z"/></g><g><path class="st31" d="M376.7 164.7 374.4 163.5V153.1L376.7 154.3z"/></g><g><path class="st39" d="M384.1 156.3c0 1.9-1.1 2.8-2.6 3.2l2.8 4.2-1.9.3-2.5-4.1-1.5.2v4.5l-1.6.2v-10.4l3.7-.5C382.8 153.5 384.1 154.2 384.1 156.3zM378.3 158.5l1.7-.2c1.2-.2 2.3-.4 2.3-1.9.0-1.2-1.2-1.2-2.1-1.1l-1.9.3V158.5"/></g><g><path class="st39" d="M380.1 149.9c4.5-.6 8.4 2.5 8.4 7.9.0 5.4-4 9.6-8.4 10.3-4.4.6-8.4-2.5-8.4-7.9C371.7 154.8 375.6 150.6 380.1 149.9zM380.1 166.2c3.6-.5 6.5-4 6.5-8.1.0-4.1-2.9-6.8-6.5-6.3-3.7.5-6.5 4-6.5 8.1C373.5 164.1 376.4 166.8 380.1 166.2"/></g><g class="st0"><defs><path id="SVGID_115_" class="st0" d="M375.5 167.3l-2.3-1.2c-2.3-1.2-3.8-3.7-3.8-7.1.0-5.4 4-9.7 8.4-10.3l2.3 1.2c-4.4.6-8.4 4.8-8.4 10.3C371.7 163.6 373.2 166.1 375.5 167.3z"/></defs><clipPath id="SVGID_116_"><use xlink:href="#SVGID_115_" style="overflow:visible"/></clipPath><g class="st83"><path class="st26" d="M375.5 167.3l-2.3-1.2c-2.3-1.2-3.8-3.7-3.8-7.1.0-1.3.2-2.6.7-3.7l2.3 1.2c-.4 1.1-.7 2.4-.7 3.7C371.7 163.6 373.2 166.1 375.5 167.3"/><path class="st25" d="M372.3 156.5l-2.3-1.2c.2-.5.4-.9.6-1.4l2.3 1.2C372.7 155.6 372.5 156.1 372.3 156.5"/><path class="st24" d="M372.9 155.2l-2.3-1.2c.2-.4.4-.7.7-1.1l2.3 1.2C373.3 154.4 373.1 154.8 372.9 155.2"/><path class="st23" d="M373.6 154.1l-2.3-1.2c.2-.3.5-.6.7-.9l2.3 1.2C374.1 153.5 373.8 153.8 373.6 154.1"/><path class="st22" d="M374.3 153.2 372 152c.3-.3.5-.6.8-.8l2.3 1.2C374.9 152.6 374.6 152.9 374.3 153.2"/><path class="st30" d="M375.2 152.3l-2.3-1.2c.3-.3.7-.6 1-.8l2.3 1.2C375.8 151.8 375.5 152 375.2 152.3"/><path class="st29" d="M376.2 151.5l-2.3-1.2c.4-.3.9-.6 1.4-.8l2.3 1.2C377.1 150.9 376.6 151.2 376.2 151.5"/><path class="st28" d="M377.6 150.7l-2.3-1.2c.8-.4 1.7-.6 2.5-.8l2.3 1.2C379.2 150.1 378.4 150.3 377.6 150.7"/></g></g></g></g></g></svg>