<svg width="391pt" xmlns:xlink="http://www.w3.org/1999/xlink" xmlns="http://www.w3.org/2000/svg" height="202pt" viewBox="0 0 391 202" ><g transform="translate(0.738281, 121.593)" style="fill:#00618a;fill-rule:nonzero;stroke:none;stroke-width:.87088;stroke-linecap:butt;stroke-linejoin:miter;stroke-dasharray:none" ><path d="M0 62.235c0 0 12.8418.0 12.8418.0.0.0.0-50.711.0-50.711.0.0 19.8808 44.208 19.8808 44.208C35.0683 61.083 38.2793 62.976 44.5762 62.976 50.874 62.976 53.9609 61.083 56.3076 55.732c0 0 19.8799-44.208 19.8799-44.208.0.0.0 50.711.0 50.711C76.1875 62.235 89.0303 62.235 89.0303 62.235c0 0 0-50.628.0-50.628C89.0303 6.668 87.0537 4.28 82.9795 3.046 73.2246.0 66.6797 2.634 63.7158 9.22c0 0-19.5098 43.63-19.5098 43.63C44.206 52.85 25.3135 9.22 25.3135 9.22 22.4736 2.634 15.8056.0 6.05078 3.046 1.97559 4.28.0 6.668.0 11.607c0 0 0 50.628.0 50.628z" /></g><g transform="translate(100.444, 142.416)" style="fill:#00618a;fill-rule:nonzero;stroke:none;stroke-width:.87088;stroke-linecap:butt;stroke-linejoin:miter;stroke-dasharray:none" ><path d="M.002.136c0 0 12.838.0 12.838.0C12.84.136 12.84 28.074 12.84 28.074 12.72 29.592 13.327 33.154 20.362 33.265 23.951 33.321 48.062 33.265 48.287 33.265c0 0 0-33.265.0-33.265C48.287.0 61.155.0 61.155.0 61.214.0 61.142 45.364 61.143 45.557 61.214 56.745 47.261 59.175 40.83 59.363c0 0-40.549.0-40.549.0C.281 59.363.281 50.724.281 50.724.352 50.724 40.8 50.732 40.902 50.722 49.167 49.849 48.191 45.741 48.19 44.358 48.19 44.358 48.19 40.99 48.19 40.99 48.19 40.99 20.895 40.99 20.895 40.99 8.196 40.873.109 35.331.009 28.955.0 28.364.283.415.002.136z" /></g><g transform="translate(171.496, 124.557)" style="fill:#e48e00;fill-rule:nonzero;stroke:none;stroke-width:.87088;stroke-linecap:butt;stroke-linejoin:miter;stroke-dasharray:none" ><path d="M0 59.271c0 0 36.92.0 36.92.0C41.242 59.271 45.441 58.366 48.775 56.801 54.331 54.25 57.048 50.793 57.048 46.264c0 0 0-9.384.0-9.384C57.048 33.175 53.961 29.717 47.91 27.413 44.699 26.177 40.748 25.519 36.92 25.519 36.92 25.519 21.361 25.519 21.361 25.519 16.176 25.519 13.706 23.955 13.089 20.498 12.965 20.086 12.965 19.756 12.965 19.345 12.965 19.345 12.965 13.501 12.965 13.501 12.965 13.171 12.965 12.841 13.089 12.43 13.706 9.796 15.065 9.054 19.633 8.643 20.004 8.643 20.497 8.56 20.868 8.56 20.868 8.56 57.542 8.56 57.542 8.56c0 0 0-8.56.0-8.56.0.0-36.057.0-36.057.0C16.299.0 13.582.329 11.113 1.069 3.457 3.457.123 7.244.123 13.83.123 13.83.123 21.321.123 21.321.123 27.084 6.668 32.023 17.657 33.175 18.893 33.257 20.127 33.339 21.361 33.339 21.361 33.339 34.697 33.339 34.697 33.339 35.192 33.339 35.686 33.339 36.056 33.422 40.131 33.752 41.859 34.492 43.095 35.974 43.835 36.714 44.082 37.456 44.082 38.279c0 0 0 7.491.0 7.491C44.082 46.676 43.465 47.829 42.231 48.816 41.119 49.804 39.267 50.463 36.797 50.628 36.303 50.628 35.933 50.71 35.439 50.71c0 0-35.439.0-35.439.0.0.0.0 8.561.0 8.561z" /></g><g transform="translate(308.656, 124.557)" style="fill:#e48e00;fill-rule:nonzero;stroke:none;stroke-width:.87088;stroke-linecap:butt;stroke-linejoin:miter;stroke-dasharray:none" ><path d="M0 44.371C0 53.179 6.544 58.119 19.757 59.107 20.991 59.189 22.227 59.271 23.461 59.271c0 0 33.464.0 33.464.0.0.0.0-8.561.0-8.561.0.0-33.711.0-33.711.0C15.682 50.71 12.842 48.816 12.842 44.289c0 0 0-44.289.0-44.289C12.842.0.0.0.0.0.0.0.0 44.371.0 44.371z" /></g><g transform="translate(236.74, 124.666)" style="fill:#e48e00;fill-rule:nonzero;stroke:none;stroke-width:.87088;stroke-linecap:butt;stroke-linejoin:miter;stroke-dasharray:none" ><path d="M0 44.711c0 0 0-30.522.0-30.522C0 6.435 5.445 1.732 16.209.247 17.323.083 18.561.0 19.674.0 19.674.0 44.05.0 44.05.0 45.287.0 46.402.083 47.639.247 58.404 1.732 63.848 6.435 63.848 14.189c0 0 0 30.522.0 30.522C63.848 51.002 61.536 54.369 56.207 56.563 56.207 56.563 68.857 67.981 68.857 67.981 68.857 67.981 53.946 67.981 53.946 67.981 53.946 67.981 43.712 58.743 43.712 58.743 43.712 58.743 33.409 59.396 33.409 59.396c0 0-13.735.0-13.735.0C17.323 59.396 14.849 59.065 12.126 58.323 3.96 56.096.0 51.806.0 44.711zM13.861 43.969C13.861 44.382 13.984 44.794 14.108 45.289 14.85 48.836 18.191 50.816 23.264 50.816 23.264 50.816 34.931 50.816 34.931 50.816 34.931 50.816 24.214 41.141 24.214 41.141 24.214 41.141 39.125 41.141 39.125 41.141 39.125 41.141 48.472 49.579 48.472 49.579 50.194 48.661 51.328 47.257 51.724 45.454 51.847 45.042 51.847 44.629 51.847 44.217 51.847 44.217 51.847 14.932 51.847 14.932 51.847 14.602 51.847 14.189 51.724 13.776 50.981 10.477 47.64 8.58 42.691 8.58 42.691 8.58 23.264 8.58 23.264 8.58 17.573 8.58 13.861 11.055 13.861 14.932c0 0 0 29.037.0 29.037z" /></g><g transform="translate(241.59, -4.64258)" style="fill:#00618a;fill-rule:nonzero;stroke:none;stroke-width:.87088;stroke-linecap:butt;stroke-linejoin:miter;stroke-dasharray:none" ><path d="M135.289 114.997C127.395 114.783 121.365 115.517 116.21 117.691 114.745 118.309 112.409 118.325 112.17 120.161 112.975 121.005 113.1 122.265 113.74 123.303 114.971 125.295 117.049 127.964 118.903 129.364 120.929 130.893 123.017 132.529 125.189 133.853 129.052 136.209 133.365 137.554 137.085 139.914 139.277 141.305 141.455 143.057 143.594 144.627 144.651 145.403 145.362 146.61 146.736 147.096 146.736 147.022 146.736 146.947 146.736 146.872 146.014 145.953 145.828 144.689 145.165 143.729 144.193 142.757 143.22 141.784 142.247 140.811 139.394 137.024 135.772 133.698 131.922 130.935 128.852 128.731 121.98 125.754 120.699 122.181 120.624 122.106 120.55 122.031 120.474 121.956 122.651 121.711 125.2 120.923 127.209 120.385 130.584 119.48 133.6 119.714 137.085 118.814 138.656 118.365 140.227 117.915 141.799 117.467 141.799 117.167 141.799 116.869 141.799 116.569 140.037 114.761 138.781 112.369 136.86 110.733 131.834 106.453 126.348 102.177 120.699 98.6114 117.566 96.6338 113.694 95.3487 110.374 93.6729 109.257 93.1094 107.295 92.8164 106.557 91.877 104.813 89.6533 103.863 86.835 102.518 84.2451 99.7 78.8194 96.933 72.8936 94.437 67.1856 92.734 63.293 91.622 59.4541 89.499 55.9619 79.307 39.2051 68.336 29.0908 51.341 19.1494 47.725 17.0352 43.371 16.2002 38.77 15.1094 36.302 14.96 33.832 14.8096 31.363 14.6602 29.856 14.0303 28.288 12.1865 26.874 11.293 21.244 7.73633 6.803.0 2.633 10.1709.0 16.5908 6.568 22.8555 8.917 26.1084 10.566 28.3906 12.677 30.9492 13.855 33.5156 14.63 35.2022 14.764 36.8936 15.427 38.6787 17.059 43.0752 18.478 47.8584 20.589 51.9219 21.656 53.9776 22.832 56.1436 24.181 57.9824 25.008 59.1104 26.425 59.6074 26.649 61.3496 25.263 63.2891 25.184 66.2998 24.405 68.7569 20.897 79.8184 22.22 93.5674 27.323 101.754 28.889 104.267 32.577 109.657 37.648 107.59 42.084 105.783 41.093 100.184 42.362 95.2442 42.649 94.124 42.473 93.3008 43.035 92.5508 43.035 92.625 43.035 92.7002 43.035 92.7754 44.382 95.4688 45.729 98.1621 47.076 100.855 50.066 105.671 55.373 110.704 59.87 114.1 62.202 115.861 64.038 118.906 67.053 119.936 67.053 119.861 67.053 119.787 67.053 119.711 66.977 119.711 66.903 119.711 66.828 119.711 66.244 118.8 65.33 118.423 64.584 117.691 62.827 115.969 60.874 113.828 59.421 111.855 55.331 106.302 51.716 100.224 48.423 93.8975 46.85 90.877 45.483 87.544 44.157 84.4697 43.646 83.2842 43.652 81.4922 42.587 80.878 41.135 83.1309 38.996 84.9522 37.873 87.6123 36.077 91.8643 35.845 97.0498 35.18 102.427 34.786 102.568 34.961 102.471 34.73 102.651 31.604 101.897 30.505 98.6787 29.344 95.918 26.405 88.9356 25.859 77.6924 28.445 69.6553 29.114 67.5762 32.138 61.0264 30.914 59.1055 30.33 57.1885 28.402 56.0801 27.323 54.6153 25.988 52.8047 24.655 50.4209 23.731 48.3301 21.326 42.8858 20.203 36.7744 17.671 31.2715 16.461 28.6406 14.414 25.9785 12.733 23.6397 10.872 21.0489 8.788 19.1406 7.346 16.0069 6.833 14.8936 6.136 13.1113 6.897 11.9668 7.139 11.1943 7.48 10.8721 8.244 10.6201 9.546 9.61621 13.172 10.9541 14.528 11.5176 18.128 13.0127 21.132 14.4365 24.181 16.4561 25.645 17.4268 27.125 19.3037 28.894 19.8233 29.567 19.8233 30.241 19.8233 30.914 19.8233 34.074 20.5498 37.614 20.0489 40.566 20.9453 45.784 22.5313 50.46 24.9981 54.707 27.6797 67.645 35.8487 78.223 47.4776 85.459 61.3496 86.623 63.583 87.127 65.7149 88.152 68.084 90.221 72.8614 92.827 77.7774 94.885 82.4492 96.939 87.1104 98.941 91.8145 101.844 95.6934 103.371 97.7324 109.266 98.8262 111.945 99.958 113.823 100.752 116.9 101.579 118.679 102.651 122.077 104.701 125.369 107.141 128.556 109.386 130.149 110.508 135.045 112.969 135.289 114.997z" /></g><g transform="translate(272.504, 24.8027)" style="fill:#00618a;fill-rule:evenodd;stroke:none;stroke-width:.87088;stroke-linecap:butt;stroke-linejoin:miter;stroke-dasharray:none" ><path d="M4.041.0303C2.395.0 1.231.21.0.4786.0.5537.0.6289.0.7032c.075.0.15.0.225.0C1.01 2.3164 2.396 3.3545 3.367 4.7442 4.115 6.3155 4.863 7.8868 5.612 9.4571 5.686 9.3828 5.762 9.3077 5.836 9.2334 7.226 8.2539 7.863 6.6866 7.856 4.295 7.299 3.709 7.217 2.9737 6.734 2.2744 6.092 1.3428 4.85.8135 4.041.0303z" /></g><g transform="translate(371.609, 165.56)" style="fill:#e48e00;fill-rule:evenodd;stroke:none;stroke-width:1;stroke-linecap:butt;stroke-linejoin:miter;stroke-dasharray:none" ><path d="M0 9.463C0 15.117 4.467 18.927 9.464 18.927 14.461 18.927 18.928 15.117 18.928 9.463 18.928 3.81 14.461.0 9.464.0 4.467.0.0 3.81.0 9.463zm16.808.0C16.808 13.753 13.528 16.959 9.464 16.959 5.351 16.959 2.12 13.753 2.12 9.463 2.12 5.173 5.351 1.967 9.464 1.967 13.528 1.967 16.808 5.173 16.808 9.463zM12.014 14.864C12.014 14.864 14.133 14.864 14.133 14.864 14.133 14.864 11.03 10.12 11.03 10.12 12.695 9.943 13.956 9.135 13.956 7.167 13.956 4.971 12.569 4.063 9.894 4.063c0 0-4.215.0-4.215.0C5.679 4.063 5.679 14.864 5.679 14.864 5.679 14.864 7.496 14.864 7.496 14.864 7.496 14.864 7.496 10.195 7.496 10.195 7.496 10.195 9.187 10.195 9.187 10.195 9.187 10.195 12.014 14.864 12.014 14.864zM7.496 8.681C7.496 8.681 7.496 5.577 7.496 5.577 7.496 5.577 9.59 5.577 9.59 5.577 10.676 5.577 11.988 5.779 11.988 7.041 11.988 8.554 10.802 8.681 9.439 8.681 9.439 8.681 7.496 8.681 7.496 8.681z" /></g></svg>