<svg id="svg3030" xmlns:svg="http://www.w3.org/2000/svg" xmlns="http://www.w3.org/2000/svg" xmlns:xlink="http://www.w3.org/1999/xlink" viewBox="0 0 591 225" style="enable-background:new 0 0 591 225"><style>.st0{enable-background:new}.st1{clip-path:url(#SVGID_2_);enable-background:new}.st2{fill:#21221d}.st3{clip-path:url(#SVGID_4_);enable-background:new}.st4{clip-path:url(#SVGID_6_);enable-background:new}.st5{fill:#23231e}.st6{fill:#252520}.st7{clip-path:url(#SVGID_8_);enable-background:new}.st8{clip-path:url(#SVGID_10_);enable-background:new}.st9{fill:#446b15}.st10{fill:#426715}.st11{clip-path:url(#SVGID_12_);enable-background:new}.st12{fill:#476f16}.st13{clip-path:url(#SVGID_14_);enable-background:new}.st14{fill:#20211c}.st15{clip-path:url(#SVGID_16_);enable-background:new}.st16{fill:#4b7618}.st17{fill:#466e16}.st18{clip-path:url(#SVGID_18_);enable-background:new}.st19{fill:#81cb29}.st20{clip-path:url(#SVGID_20_);enable-background:new}.st21{clip-path:url(#SVGID_22_);enable-background:new}.st22{fill:#22231d}.st23{fill:#3f4036}.st24{clip-path:url(#SVGID_24_);enable-background:new}.st25{clip-path:url(#SVGID_26_);enable-background:new}.st26{clip-path:url(#SVGID_28_);enable-background:new}.st27{clip-path:url(#SVGID_30_);enable-background:new}.st28{clip-path:url(#SVGID_32_);enable-background:new}.st29{clip-path:url(#SVGID_34_);enable-background:new}.st30{clip-path:url(#SVGID_36_);enable-background:new}.st31{clip-path:url(#SVGID_38_);enable-background:new}.st32{clip-path:url(#SVGID_40_);enable-background:new}.st33{clip-path:url(#SVGID_42_);enable-background:new}.st34{clip-path:url(#SVGID_44_);enable-background:new}.st35{clip-path:url(#SVGID_46_);enable-background:new}.st36{clip-path:url(#SVGID_48_);enable-background:new}.st37{clip-path:url(#SVGID_50_);enable-background:new}.st38{clip-path:url(#SVGID_52_);enable-background:new}.st39{clip-path:url(#SVGID_54_);enable-background:new}.st40{clip-path:url(#SVGID_56_);enable-background:new}.st41{clip-path:url(#SVGID_58_);enable-background:new}.st42{clip-path:url(#SVGID_60_);enable-background:new}.st43{clip-path:url(#SVGID_62_);enable-background:new}.st44{clip-path:url(#SVGID_64_);enable-background:new}.st45{clip-path:url(#SVGID_66_);enable-background:new}.st46{clip-path:url(#SVGID_68_);enable-background:new}.st47{clip-path:url(#SVGID_70_);enable-background:new}.st48{clip-path:url(#SVGID_72_);enable-background:new}.st49{clip-path:url(#SVGID_74_);enable-background:new}.st50{clip-path:url(#SVGID_76_);enable-background:new}.st51{clip-path:url(#SVGID_78_);enable-background:new}.st52{clip-path:url(#SVGID_80_);enable-background:new}.st53{clip-path:url(#SVGID_82_);enable-background:new}.st54{clip-path:url(#SVGID_84_);enable-background:new}.st55{clip-path:url(#SVGID_86_);enable-background:new}.st56{clip-path:url(#SVGID_88_);enable-background:new}.st57{clip-path:url(#SVGID_90_);enable-background:new}.st58{clip-path:url(#SVGID_92_);enable-background:new}.st59{clip-path:url(#SVGID_94_);enable-background:new}.st60{clip-path:url(#SVGID_96_);enable-background:new}.st61{clip-path:url(#SVGID_98_);enable-background:new}.st62{clip-path:url(#SVGID_100_);enable-background:new}.st63{clip-path:url(#SVGID_102_);enable-background:new}.st64{clip-path:url(#SVGID_104_);enable-background:new}.st65{clip-path:url(#SVGID_106_);enable-background:new}.st66{fill:#436915}.st67{clip-path:url(#SVGID_108_);enable-background:new}.st68{fill:#487117}.st69{fill:#5d911d}.st70{fill:#72b324}</style><g><g><g class="st0"><g class="st0"><defs><path id="SVGID_1_" class="st0" d="M398.2 146.5l22.8 12.4c0 0-.1.0-.1.0L398.2 146.5C398.1 146.4 398.2 146.4 398.2 146.5z"
						/></defs><clipPath id="SVGID_2_"><use xlink:href="#SVGID_1_" style="overflow:visible"/></clipPath><g class="st1"><path class="st2" d="M420.9 158.8l-22.8-12.4c0 0 .1.0.1.0L420.9 158.8c.10000000000002274.0.0.0.0.0"/></g></g><g class="st0"><defs><path id="SVGID_3_" class="st0" d="M412.4 87.9l22.8 12.4c0 0-.1-.1-.1-.1l-22.8-12.4C412.3 87.8 412.4 87.8 412.4 87.9z"
						/></defs><clipPath id="SVGID_4_"><use xlink:href="#SVGID_3_" style="overflow:visible"/></clipPath><g class="st3"><path class="st2" d="M435.1 100.2l-22.8-12.4c0 0 .1.0.1.1l22.8 12.4C435.2 100.2 435.1 100.2 435.1 100.2"/></g></g><g class="st0"><defs><path id="SVGID_5_" class="st0" d="M411.7 135.2l-22.8-12.4c-.6-.3-1-1-1-1.8l22.8 12.4C410.7 134.2 411.1 134.8 411.7 135.2z"/></defs><clipPath id="SVGID_6_"><use xlink:href="#SVGID_5_" style="overflow:visible"/></clipPath><g class="st4"><path class="st2" d="M411.7 135.2l-22.8-12.4c-.2-.1-.3-.2-.5-.4l22.8 12.4C411.4 134.9 411.5 135.1 411.7 135.2"/><path class="st5" d="M411.2 134.8l-22.8-12.4c-.3-.4-.5-.9-.5-1.4l22.8 12.4C410.7 133.9 410.9 134.4 411.2 134.8"/></g></g><g><path class="st6" d="M410.7 133.4 387.9 121 388 110.2 410.8 122.6z"/></g><g class="st0"><defs><path id="SVGID_7_" class="st0" d="M387 108.4l22.8 12.4c.6.3 1 1 1 1.8L388 110.2C388 109.4 387.6 108.7 387 108.4z"/></defs><clipPath id="SVGID_8_"><use xlink:href="#SVGID_7_" style="overflow:visible"/></clipPath><g class="st7"><path class="st5" d="M410.8 122.6 388 110.2c0-.5-.2-1-.5-1.4l22.8 12.4C410.6 121.5 410.8 122 410.8 122.6"/><path class="st2" d="M410.3 121.2l-22.8-12.4c-.1-.2-.3-.3-.5-.4l22.8 12.4C410 120.9 410.1 121 410.3 121.2"/></g></g><g class="st0"><defs><path id="SVGID_9_" class="st0" d="M382.2 112.7l22.8 12.4c0 0 0 0 0 0L382.2 112.7c0 0 0 0 0 0z"/></defs><clipPath id="SVGID_10_"><use xlink:href="#SVGID_9_" style="overflow:visible"/></clipPath><g class="st8"><path class="st9" d="M405 125.1l-22.8-12.4c0 0 0 0 0 0L405 125.1c0 0 0 0 0 0"/></g></g><g><path class="st10" d="M398.2 121.8 375.4 109.4 382.2 112.7 405 125.1z"/></g><g class="st0"><defs><path id="SVGID_11_" class="st0" d="M390.6 137l-22.8-12.4c-.2-.1-.4-.4-.4-.7l22.8 12.4C390.2 136.6 390.4 136.9 390.6 137z"/></defs><clipPath id="SVGID_12_"><use xlink:href="#SVGID_11_" style="overflow:visible"/></clipPath><g class="st11"><path class="st9" d="M390.6 137l-22.8-12.4c-.1.0-.1-.1-.2-.2l22.8 12.4C390.5 136.9 390.5 137 390.6 137"/><path class="st12" d="M390.4 136.9l-22.8-12.4c-.1-.1-.2-.3-.2-.5l22.8 12.4C390.2 136.5 390.3 136.7 390.4 136.9"/></g></g><g class="st0"><defs><path id="SVGID_13_" class="st0" d="M397.4 121.9l-22.8-12.4c.1-.1.3-.1.4-.1.1.0.2.0.4.0l22.8 12.4c-.1-.1-.2.0-.4.0C397.7 121.8 397.6 121.8 397.4 121.9z"/></defs><clipPath id="SVGID_14_"><use xlink:href="#SVGID_13_" style="overflow:visible"/></clipPath><g class="st13"><path class="st9" d="M397.4 121.9l-22.8-12.4c.1-.1.3-.1.4-.1.1.0.2.0.4.0l22.8 12.4c-.1-.1-.2.0-.4.0C397.7 121.8 397.6 121.8 397.4 121.9"/></g></g><g><path class="st14" d="M385.5 141.9 362.8 129.5 398.1 146.4 420.9 158.8z"/></g><g class="st0"><defs><path id="SVGID_15_" class="st0" d="M385.5 141.8l-22.8-12.4c0 0 .1.0.1.0L385.5 141.8c0 .09999999999999432.0.0.0.0z"/></defs><clipPath id="SVGID_16_"><use xlink:href="#SVGID_15_" style="overflow:visible"/></clipPath><g class="st15"><path class="st2" d="M385.5 141.8l-22.8-12.4c0 0 .1.0.1.0L385.5 141.8c0 .09999999999999432.0.0.0.0"/></g></g><g><path class="st16" d="M390.2 136.3 367.4 123.9V115.6L390.2 128z"/></g><g><path class="st17" d="M390.6 127.1 367.9 114.7 374.6 109.5 397.4 121.9z"/></g><g class="st0"><defs><path id="SVGID_17_" class="st0" d="M390.2 128l-22.8-12.4c0-.3.2-.6.4-.8l22.8 12.4C390.4 127.3 390.2 127.6 390.2 128z"/></defs><clipPath id="SVGID_18_"><use xlink:href="#SVGID_17_" style="overflow:visible"/></clipPath><g class="st18"><path class="st12" d="M390.2 128l-22.8-12.4c0-.1.0-.2.1-.4l22.8 12.4C390.2 127.7 390.2 127.8 390.2 128"/><path class="st9" d="M390.3 127.6l-22.8-12.4c.1-.2.2-.3.4-.5l22.8 12.4C390.5 127.3 390.4 127.4 390.3 127.6"/></g></g><g><path class="st19" d="M405 125.1c.2.1.4.4.4.7v8.4c0 .3-.2.6-.4.8l-6.8 5.1c-.1.1-.3.2-.4.2-.1.0-.3.0-.4-.1l-6.8-3.2c-.3-.1-.4-.4-.4-.7v-8.4c0-.3.2-.6.4-.8l6.8-5.2c.1-.1.3-.1.4-.1.1.0.2.0.4.0L405 125.1z"/></g><g><path class="st14" d="M400.1 83.2 377.3 70.8l35 17L435.1 100.2z"/></g><g class="st0"><defs><path id="SVGID_19_" class="st0" d="M360.4 162.3l-22.8-12.4c-1.2-.7-2-2-2-3.6l22.8 12.4C358.4 160.3 359.2 161.7 360.4 162.3z"/></defs><clipPath id="SVGID_20_"><use xlink:href="#SVGID_19_" style="overflow:visible"/></clipPath><g class="st20"><path class="st2" d="M360.4 162.3l-22.8-12.4c-.4-.2-.7-.5-1-.8l22.8 12.4C359.7 161.8 360 162.1 360.4 162.3"/><path class="st5" d="M359.4 161.5l-22.8-12.4c-.6-.7-1-1.7-1-2.7l22.8 12.4C358.4 159.8 358.8 160.8 359.4 161.5"/></g></g><g class="st0"><defs><path id="SVGID_21_" class="st0" d="M395.9 83.8l-22.8-12.4c.7-.5 1.4-.8 2.1-.9s1.5.0 2.1.3l22.8 12.4c-.7-.3-1.4-.4-2.1-.3C397.3 83 396.5 83.3 395.9 83.8z"/></defs><clipPath id="SVGID_22_"><use xlink:href="#SVGID_21_" style="overflow:visible"/></clipPath><g class="st21"><path class="st2" d="M395.9 83.8l-22.8-12.4c.7-.5 1.4-.8 2.1-.9s1.5.0 2.1.3l22.8 12.4c-.7-.3-1.4-.4-2.1-.3C397.3 83 396.5 83.3 395.9 83.8"/></g></g><g><path class="st6" d="M358.4 158.8 335.6 146.4 335.7 102.5 358.5 114.9z"/></g><g><path class="st22" d="M360.6 110.6 337.8 98.2 373.1 71.4 395.9 83.8z"/></g><g><path class="st23" d="M435.1 100.2c1.3.6 2.1 2 2.1 3.7v10.6c0 1.6-.8 3.3-2.1 4.3L414 135c-.3.3-.7.4-1.1.5s-.7.0-1.1-.2c-.7-.3-1.1-1-1.1-1.8v-10.8c0-.8-.4-1.5-1.1-1.8l-11-5.3c-.3-.2-.7-.2-1.1-.2s-.7.2-1.1.5l-11 8.4c-.7.5-1.1 1.3-1.1 2.1v13.7c0 .8.5 1.6 1.1 1.9l35.4 16.9c.7.3 1.1 1 1.1 1.8.0.8-.5 1.6-1.1 2.1l-21.2 15.7c-.6.5-1.3.7-2 .8-.7.1-1.5.0-2.2-.3l-34.9-16.6c-1.3-.6-2.2-2-2.2-3.7l.1-43.9c0-1.6.8-3.3 2.1-4.3l35.2-26.9c.7-.5 1.4-.8 2.1-.9.7-.1 1.5.0 2.1.3L435.1 100.2z"/></g><g class="st0"><defs><path id="SVGID_23_" class="st0" d="M358.5 114.9l-22.8-12.4c0-1.6.8-3.3 2.1-4.3l22.8 12.4C359.3 111.7 358.5 113.3 358.5 114.9z"/></defs><clipPath id="SVGID_24_"><use xlink:href="#SVGID_23_" style="overflow:visible"/></clipPath><g class="st24"><path class="st5" d="M358.5 114.9l-22.8-12.4c0-.7.1-1.4.4-2l22.8 12.4C358.6 113.5 358.5 114.2 358.5 114.9"/><path class="st2" d="M358.9 112.9l-22.8-12.4c.4-.9 1-1.7 1.7-2.3l22.8 12.4C359.9 111.2 359.3 112 358.9 112.9"/></g></g></g><g class="st0"><g class="st0"><defs><path id="SVGID_25_" class="st0" d="M305.2 153.4 282.5 141c.3-.2.6-.7.6-1.1l22.8 12.4C305.8 152.7 305.6 153.1 305.2 153.4z"/></defs><clipPath id="SVGID_26_"><use xlink:href="#SVGID_25_" style="overflow:visible"/></clipPath><g class="st25"><path class="st2" d="M305.2 153.4 282.5 141c.2-.2.4-.4.5-.6l22.8 12.4C305.6 153 305.5 153.2 305.2 153.4"/><path class="st5" d="M305.7 152.8l-22.8-12.4c.1-.1.1-.3.1-.5l22.8 12.4C305.8 152.5 305.8 152.6 305.7 152.8"/></g></g><g><path class="st22" d="M293.2 162.6 270.4 150.2 282.5 141 305.2 153.4z"/></g><g class="st0"><defs><path id="SVGID_27_" class="st0" d="M292.1 162.8l-22.8-12.4c.2.1.3.1.5.1.2.0.4-.1.5-.2l22.8 12.4c-.2.1-.3.2-.5.2C292.5 162.9 292.3 162.8 292.1 162.8z"/></defs><clipPath id="SVGID_28_"><use xlink:href="#SVGID_27_" style="overflow:visible"/></clipPath><g class="st26"><path class="st2" d="M292.1 162.8l-22.8-12.4c.2.1.3.1.5.1.2.0.4-.1.5-.2l22.8 12.4c-.2.1-.3.2-.5.2C292.5 162.9 292.3 162.8 292.1 162.8"/></g></g><g><path class="st6" d="M305.8 152.3 283 139.9 283.1 124.8 305.8 137.2z"/></g><g class="st0"><defs><path id="SVGID_29_" class="st0" d="M282.5 123.9l22.8 12.4c.3.2.5.5.5.9l-22.8-12.4C283.1 124.4 282.8 124.1 282.5 123.9z"/></defs><clipPath id="SVGID_30_"><use xlink:href="#SVGID_29_" style="overflow:visible"/></clipPath><g class="st27"><path class="st5" d="M305.8 137.2l-22.8-12.4c0-.3-.1-.5-.2-.7l22.8 12.4C305.8 136.7 305.8 137 305.8 137.2"/><path class="st2" d="M305.6 136.6l-22.8-12.4c-.1-.1-.2-.2-.3-.2l22.8 12.4C305.4 136.4 305.5 136.5 305.6 136.6"/></g></g><g><path class="st14" d="M280.1 156.9 257.3 144.5 269.3 150.4 292.1 162.8z"/></g><g class="st0"><defs><path id="SVGID_31_" class="st0" d="M280 156.9l-22.8-12.4c0 0 0 0 0 0L280 156.9c0 0 0 0 0 0z"/></defs><clipPath id="SVGID_32_"><use xlink:href="#SVGID_31_" style="overflow:visible"/></clipPath><g class="st28"><path class="st2" d="M280 156.9l-22.8-12.4c0 0 0 0 0 0L280 156.9c0 0 0 0 0 0"/></g></g><g class="st0"><defs><path id="SVGID_33_" class="st0" d="M303.8 102.7 281 90.3c.2.1.5.1.7.1.3.0.5-.1.7-.3.5-.4.7-.9.7-1.5L306 101c0 .6-.2 1.1-.7 1.5-.2.2-.5.3-.7.3C304.3 102.9 304 102.8 303.8 102.7z"/></defs><clipPath id="SVGID_34_"><use xlink:href="#SVGID_33_" style="overflow:visible"/></clipPath><g class="st29"><path class="st2" d="M303.8 102.7 281 90.3c.2.1.5.1.7.1.3.0.5-.1.7-.3.3-.2.4-.5.6-.7l22.8 12.4c-.1.3-.3.5-.6.7-.2.2-.5.3-.7.3C304.3 102.9 304 102.8 303.8 102.7"/><path class="st5" d="M305.8 101.8 283 89.4c.1-.2.1-.5.1-.7L306 101C306 101.3 305.9 101.5 305.8 101.8"/></g></g><g class="st0"><defs><path id="SVGID_35_" class="st0" d="M307.6 37.7l22.8 12.4c-.1.0-.1-.1-.2-.1l-22.8-12.4C307.5 37.6 307.5 37.6 307.6 37.7z"/></defs><clipPath id="SVGID_36_"><use xlink:href="#SVGID_35_" style="overflow:visible"/></clipPath><g class="st30"><path class="st2" d="M330.2 50l-22.8-12.4c.1.0.1.1.2.1l22.8 12.4C330.3 50 330.3 50 330.2 50"/></g></g><g><path class="st14" d="M295 98.5 272.2 86.1 281 90.3 303.8 102.7z"/></g><g class="st0"><defs><path id="SVGID_37_" class="st0" d="M255.3 177.7l-22.8-12.4c-1.2-.7-2-2-2-3.6l22.8 12.4C253.3 175.7 254 177.1 255.3 177.7z"/></defs><clipPath id="SVGID_38_"><use xlink:href="#SVGID_37_" style="overflow:visible"/></clipPath><g class="st31"><path class="st2" d="M255.3 177.7l-22.8-12.4c-.4-.2-.7-.5-1-.8l22.8 12.4C254.6 177.3 254.9 177.5 255.3 177.7"/><path class="st5" d="M254.3 177l-22.8-12.4c-.6-.7-1-1.7-1-2.8l22.8 12.4C253.3 175.2 253.7 176.2 254.3 177"/></g></g><g class="st0"><defs><path id="SVGID_39_" class="st0" d="M290.7 99.1 268 86.7c.7-.5 1.4-.8 2.1-.9.7-.1 1.5.0 2.1.3L295 98.5c-.7-.3-1.4-.4-2.1-.3C292.1 98.3 291.4 98.6 290.7 99.1z"/></defs><clipPath id="SVGID_40_"><use xlink:href="#SVGID_39_" style="overflow:visible"/></clipPath><g class="st32"><path class="st2" d="M290.7 99.1 268 86.7c.7-.5 1.4-.8 2.1-.9.7-.1 1.5.0 2.1.3L295 98.5c-.7-.3-1.4-.4-2.1-.3C292.1 98.3 291.4 98.6 290.7 99.1"/></g></g><g><path class="st14" d="M309.3 40.3 286.5 27.9 307.4 37.6 330.2 50z"/></g><g><path class="st6" d="M306 101 283.2 88.6 283.3 30.4 306.1 42.8z"/></g><g class="st0"><defs><path id="SVGID_41_" class="st0" d="M307.2 40.7l-22.8-12.4c.3-.3.7-.4 1.1-.5.4-.1.8-.1 1.1.1l22.8 12.4c-.3-.1-.6-.1-1.1-.1C307.8 40.3 307.5 40.4 307.2 40.7z"/></defs><clipPath id="SVGID_42_"><use xlink:href="#SVGID_41_" style="overflow:visible"/></clipPath><g class="st33"><path class="st2" d="M307.2 40.7l-22.8-12.4c.3-.3.7-.4 1.1-.5.4-.1.8-.1 1.1.1l22.8 12.4c-.3-.1-.6-.1-1.1-.1C307.8 40.3 307.5 40.4 307.2 40.7"/></g></g><g class="st0"><defs><path id="SVGID_43_" class="st0" d="M306.1 42.8l-22.8-12.4c0-.8.4-1.6 1.1-2.1l22.8 12.4C306.5 41.2 306.1 42 306.1 42.8z"
						/></defs><clipPath id="SVGID_44_"><use xlink:href="#SVGID_43_" style="overflow:visible"/></clipPath><g class="st34"><path class="st5" d="M306.1 42.8l-22.8-12.4c0-.3.1-.7.2-1l22.8 12.4C306.2 42.1 306.1 42.5 306.1 42.8"/><path class="st2" d="M306.3 41.8l-22.8-12.4c.2-.4.5-.8.9-1.1l22.8 12.4C306.8 41 306.5 41.4 306.3 41.8"/></g></g><g><path class="st6" d="M253.3 174.2 230.5 161.8 230.6 117.9 253.4 130.3z"/></g><g><path class="st22" d="M255.5 126 232.7 113.6 268 86.7 290.7 99.1z"/></g><g><path class="st23" d="M330.2 50c1.3.6 2.2 2.1 2.2 3.7l-.2 109.4c0 1.6-.8 3.3-2.1 4.3l-35.3 26.9c-.7.5-1.4.8-2.1.9-.7.1-1.5.0-2.1-.3l-35.2-17c-1.3-.6-2.1-2-2.1-3.7l.1-43.9c0-1.6.8-3.3 2.1-4.3l35.2-26.9c.7-.5 1.4-.8 2.1-.9.7-.1 1.5.0 2.1.3l8.8 4.3c.2.1.5.1.7.1.3.0.5-.1.7-.3.5-.4.7-.9.7-1.5l.1-58.3c0-.8.4-1.6 1.1-2.1.3-.3.7-.4 1.1-.5.4-.1.8-.1 1.1.1L330.2 50zM305.8 152.3v-15.1c0-.4-.2-.8-.6-.9l-12-5.8c-.2-.1-.4-.1-.6-.1-.2.0-.3.1-.5.2l-12.1 9.2c-.3.3-.6.7-.6 1.1v15.1c0 .4.2.7.6.9l12 5.8c.2.1.3.1.5.1.2.0.4-.1.5-.2l12.1-9.2C305.6 153.1 305.8 152.7 305.8 152.3"/></g><g class="st0"><defs><path id="SVGID_45_" class="st0" d="M253.4 130.3l-22.8-12.4c0-1.6.8-3.3 2.1-4.3l22.8 12.4C254.2 127 253.4 128.6 253.4 130.3z"/></defs><clipPath id="SVGID_46_"><use xlink:href="#SVGID_45_" style="overflow:visible"/></clipPath><g class="st35"><path class="st5" d="M253.4 130.3l-22.8-12.4c0-.7.1-1.4.4-2.1l22.8 12.4C253.5 128.9 253.4 129.6 253.4 130.3"/><path class="st2" d="M253.8 128.2 231 115.8c.4-.9.9-1.7 1.7-2.3l22.8 12.4C254.7 126.5 254.2 127.3 253.8 128.2"/></g></g></g><g class="st0"><g class="st0"><defs><path id="SVGID_47_" class="st0" d="M96.9 198.9l-22.8-12.4c-1.2-.7-2.1-2-2.1-3.6l22.8 12.4C94.8 196.9 95.6 198.2 96.9 198.9z"/></defs><clipPath id="SVGID_48_"><use xlink:href="#SVGID_47_" style="overflow:visible"/></clipPath><g class="st36"><path class="st2" d="M96.9 198.9l-22.8-12.4c-.4-.2-.8-.5-1.1-.9L95.8 198C96.1 198.4 96.5 198.6 96.9 198.9"/><path class="st5" d="M95.8 198 73 185.6c-.6-.7-1-1.7-1-2.7l22.8 12.4C94.8 196.3 95.2 197.3 95.8 198"/></g></g><g class="st0"><defs><path id="SVGID_49_" class="st0" d="M96.5 131.7l22.8 12.4c-.1.0-.1-.1-.2-.1l-22.8-12.4C96.4 131.6 96.4 131.6 96.5 131.7z"/></defs><clipPath id="SVGID_50_"><use xlink:href="#SVGID_49_" style="overflow:visible"/></clipPath><g class="st37"><path class="st2" d="M119.1 144l-22.8-12.4c.1.0.1.1.2.1l22.8 12.4C119.2 144 119.2 144 119.1 144"/></g></g><g><path class="st6" d="M94.8 195.3 72 182.9 72.1 155.4 94.9 167.8z"/></g><g class="st0"><defs><path id="SVGID_51_" class="st0" d="M70.1 151.8l22.8 12.4c1.2.7 2 2 2 3.6l-22.8-12.4C72.1 153.8 71.4 152.5 70.1 151.8z"/></defs><clipPath id="SVGID_52_"><use xlink:href="#SVGID_51_" style="overflow:visible"/></clipPath><g class="st38"><path class="st5" d="M94.9 167.8l-22.8-12.4c0-1.1-.4-2.1-1-2.8L93.9 165C94.5 165.7 94.9 166.7 94.9 167.8"/><path class="st2" d="M93.9 165l-22.8-12.4c-.3-.3-.6-.6-1-.8l22.8 12.4C93.3 164.4 93.6 164.7 93.9 165"/></g></g><g class="st0"><defs><path id="SVGID_53_" class="st0" d="M43.3 219.4 20.5 207c-.6-.3-1-1-1-1.8l22.8 12.4C42.3 218.4 42.7 219 43.3 219.4z"/></defs><clipPath id="SVGID_54_"><use xlink:href="#SVGID_53_" style="overflow:visible"/></clipPath><g class="st39"><path class="st2" d="M43.3 219.4 20.5 207c-.2-.1-.3-.2-.5-.4L42.8 219C42.9 219.1 43.1 219.3 43.3 219.4"/><path class="st5" d="M42.8 219 20 206.6c-.3-.4-.5-.9-.5-1.4l22.8 12.4C42.3 218.1 42.5 218.6 42.8 219"/></g></g><g><path class="st14" d="M84 127 61.2 114.6 96.3 131.6 119.1 144z"/></g><g class="st0"><defs><path id="SVGID_55_" class="st0" d="M82 126.7l-22.8-12.4c.7-.1 1.3.0 1.9.3L84 127C83.4 126.7 82.7 126.7 82 126.7z"/></defs><clipPath id="SVGID_56_"><use xlink:href="#SVGID_55_" style="overflow:visible"/></clipPath><g class="st40"><path class="st2" d="M82 126.7l-22.8-12.4c.7-.1 1.3.0 1.9.3L84 127C83.4 126.7 82.7 126.7 82 126.7"/></g></g><g><path class="st14" d="M81.6 126.8 58.8 114.4 59.3 114.3 82 126.7z"/></g><g class="st0"><defs><path id="SVGID_57_" class="st0" d="M79.7 127.6l-22.8-12.4c.6-.5 1.2-.7 1.9-.8l22.8 12.4C81 126.9 80.3 127.1 79.7 127.6z"/></defs><clipPath id="SVGID_58_"><use xlink:href="#SVGID_57_" style="overflow:visible"/></clipPath><g class="st41"><path class="st2" d="M79.7 127.6l-22.8-12.4c.6-.5 1.2-.7 1.9-.8l22.8 12.4C81 126.9 80.3 127.1 79.7 127.6"/></g></g><g><path class="st6" d="M42.3 217.6 19.5 205.2 19.6 146.3 42.3 158.7z"/></g><g><path class="st22" d="M44.5 154.5 21.7 142.1 56.9 115.2 79.7 127.6z"/></g><g><path class="st23" d="M119.1 144c1.3.6 2.1 2 2.1 3.7l-.2 58.9c0 .8-.4 1.6-1.1 2.1-.3.3-.7.4-1.1.5-.4.1-.7.0-1.1-.2l-20.9-10c-1.3-.7-2.2-2-2.2-3.7l.1-27.5c0-1.6-.8-3-2.1-3.7l-8.9-4.3c-.6-.3-1.4-.4-2.1-.3-.7.1-1.5.4-2.1.9l-8.9 6.8c-1.3 1-2.1 2.6-2.1 4.3L68.6 199c0 1.6-.9 3.2-2.2 4.3l-20.9 15.9c-.3.3-.7.4-1.1.5-.4.1-.7.0-1.1-.2-.7-.3-1.1-1-1.1-1.8v-58.9c0-1.7.8-3.3 2.1-4.3l35.2-26.9c.6-.5 1.2-.7 1.9-.8l.4-.1c.7-.1 1.3.0 1.9.3L119.1 144z"/></g><g class="st0"><defs><path id="SVGID_59_" class="st0" d="M42.3 158.7l-22.8-12.4c0-1.7.8-3.3 2.1-4.3l22.8 12.4C43.2 155.5 42.4 157.1 42.3 158.7z"/></defs><clipPath id="SVGID_60_"><use xlink:href="#SVGID_59_" style="overflow:visible"/></clipPath><g class="st42"><path class="st5" d="M42.3 158.7l-22.8-12.4c0-.7.1-1.4.4-2l22.8 12.4C42.5 157.4 42.3 158 42.3 158.7"/><path class="st2" d="M42.7 156.7 20 144.3c.4-.9 1-1.7 1.7-2.3l22.8 12.4C43.7 155.1 43.1 155.8 42.7 156.7"/></g></g></g><g class="st0"><g class="st0"><defs><path id="SVGID_61_" class="st0" d="M537.1 132.7l-22.8-12.4c.3-.2.5-.7.5-1.1l22.8 12.4C537.6 132.1 537.4 132.5 537.1 132.7z"/></defs><clipPath id="SVGID_62_"><use xlink:href="#SVGID_61_" style="overflow:visible"/></clipPath><g class="st43"><path class="st9" d="M537.1 132.7l-22.8-12.4c.2-.1.3-.3.4-.5l22.8 12.4C537.4 132.4 537.2 132.6 537.1 132.7"/><path class="st12" d="M537.5 132.2l-22.8-12.4c.1-.2.1-.4.1-.5l22.8 12.4C537.6 131.9 537.5 132.1 537.5 132.2"/></g></g><g><path class="st17" d="M503.8 158.1 481 145.7 514.3 120.3 537.1 132.7z"/></g><g class="st0"><defs><path id="SVGID_63_" class="st0" d="M502.8 158.2 480 145.8c.2.1.3.1.5.1.2.0.3-.1.5-.2l22.8 12.4c-.1.1-.3.2-.5.2C503.1 158.3 503 158.3 502.8 158.2z"/></defs><clipPath id="SVGID_64_"><use xlink:href="#SVGID_63_" style="overflow:visible"/></clipPath><g class="st44"><path class="st9" d="M502.8 158.2 480 145.8c.2.1.3.1.5.1.2.0.3-.1.5-.2l22.8 12.4c-.1.1-.3.2-.5.2C503.1 158.3 503 158.3 502.8 158.2"/></g></g><g><path class="st16" d="M537.6 131.7 514.8 119.3 514.9 77.9 537.6 90.3z"/></g><g class="st0"><defs><path id="SVGID_65_" class="st0" d="M514.3 77l22.8 12.4c.3.2.5.5.5.9l-22.8-12.4C514.9 77.5 514.6 77.2 514.3 77z"
						/></defs><clipPath id="SVGID_66_"><use xlink:href="#SVGID_65_" style="overflow:visible"/></clipPath><g class="st45"><path class="st12" d="M537.6 90.3l-22.8-12.4c0-.3-.1-.5-.3-.7l22.8 12.4C537.5 89.8 537.6 90.1 537.6 90.3"/><path class="st9" d="M537.4 89.7l-22.8-12.4c-.1-.1-.2-.2-.3-.2l22.8 12.4C537.2 89.5 537.3 89.6 537.4 89.7"/></g></g><g class="st0"><defs><path id="SVGID_67_" class="st0" d="M517.6 71.2l22.8 12.4c-.1.0-.1-.1-.2-.1L517.3 71C517.4 71.1 517.5 71.1 517.6 71.2z"/></defs><clipPath id="SVGID_68_"><use xlink:href="#SVGID_67_" style="overflow:visible"/></clipPath><g class="st46"><path class="st9" d="M540.1 83.4 517.3 71c.1.0.1.1.2.1l22.8 12.4C540.3 83.5 540.2 83.5 540.1 83.4"/></g></g><g class="st0"><defs><path id="SVGID_69_" class="st0" d="M499.4 106.4l22.8 12.4c1.2.6 1.3 1.5 1.3 2.6.0 4-3 6.1-10 7.1l-22.8-12.4c7-1 10-3.1 10-7.1C500.8 108 500.6 107.1 499.4 106.4z"/></defs><clipPath id="SVGID_70_"><use xlink:href="#SVGID_69_" style="overflow:visible"/></clipPath><g class="st47"><path class="st9" d="M513.6 128.5l-22.8-12.4c5.5-.8 8.5-2.2 9.5-4.8l22.8 12.4C522.1 126.3 519.1 127.7 513.6 128.5"/><path class="st12" d="M523.1 123.7l-22.8-12.4c.3-.7.4-1.5.4-2.3.0-.7-.1-1.4-.6-2l22.8 12.4c.5.6.6 1.2.6 2C523.5 122.3 523.4 123 523.1 123.7"/><path class="st9" d="M523 119.4 500.2 107c-.2-.2-.4-.4-.8-.6l22.8 12.4C522.5 119 522.8 119.2 523 119.4"/></g></g><g><path class="st10" d="M494.3 153.9 471.5 141.5 480 145.8 502.8 158.2z"/></g><g class="st0"><defs><path id="SVGID_71_" class="st0" d="M523.1 107.3l-22.8-12.4c-.2-.1-.4-.3-.4-.6-.5-2.3-1.3-3.8-2.8-4.6l22.8 12.4c1.5.8 2.3 2.3 2.8 4.6C522.7 107 522.9 107.2 523.1 107.3z"/></defs><clipPath id="SVGID_72_"><use xlink:href="#SVGID_71_" style="overflow:visible"/></clipPath><g class="st48"><path class="st9" d="M523.1 107.3l-22.8-12.4c-.1.0-.2-.1-.2-.2l22.8 12.4C522.9 107.2 523 107.3 523.1 107.3"/><path class="st12" d="M522.9 107.1l-22.8-12.4c-.1-.1-.2-.3-.2-.4-.3-1.6-.8-2.8-1.6-3.6l22.8 12.4c.7.9 1.2 2 1.6 3.6C522.7 106.9 522.8 107 522.9 107.1"/><path class="st9" d="M521.1 103.1l-22.8-12.4c-.4-.4-.8-.7-1.3-1l22.8 12.4C520.3 102.3 520.7 102.7 521.1 103.1"/></g></g><g class="st0"><defs><path id="SVGID_73_" class="st0" d="M505 128l-22.8-12.4c1.7.9 4.3 1.1 8.6.5l22.8 12.4C509.3 129.1 506.6 128.9 505 128z"
						/></defs><clipPath id="SVGID_74_"><use xlink:href="#SVGID_73_" style="overflow:visible"/></clipPath><g class="st49"><path class="st9" d="M505 128l-22.8-12.4c1.7.9 4.3 1.1 8.6.5l22.8 12.4C509.3 129.1 506.6 128.9 505 128"/></g></g><g class="st0"><defs><path id="SVGID_75_" class="st0" d="M488.4 158.5l-22.8-12.4c-1.2-.7-.5-1.1.0-1.3 2.2-1.1 2.7-1.4 5-3.1.1-.1.3-.2.4-.2.1.0.3.0.4.1l22.8 12.4c-.1-.1-.3-.1-.4-.1-.2.0-.3.1-.4.2-2.4 1.8-2.8 2-5 3.1C487.9 157.4 487.2 157.8 488.4 158.5z"/></defs><clipPath id="SVGID_76_"><use xlink:href="#SVGID_75_" style="overflow:visible"/></clipPath><g class="st50"><path class="st9" d="M488.4 158.5l-22.8-12.4c-.3-.1-.4-.3-.5-.4l22.8 12.4C488 158.2 488.1 158.4 488.4 158.5"/><path class="st12" d="M487.9 158.1l-22.8-12.4c-.1-.2-.2-.3-.1-.4l22.8 12.4C487.7 157.8 487.7 158 487.9 158.1"/><path class="st9" d="M487.8 157.7 465 145.3c.1-.2.4-.4.7-.5 2.2-1.1 2.7-1.4 5-3.1.1-.1.3-.2.4-.2.1.0.3.0.4.1l22.8 12.4c-.1-.1-.3-.1-.4-.1-.2.0-.3.1-.4.2-2.4 1.8-2.8 2-5 3.1C488.2 157.3 487.8 157.5 487.8 157.7"/></g></g><g class="st0"><defs><path id="SVGID_77_" class="st0" d="M479 109.9l22.8 12.4c-.1-.1-.3-.1-.5-.1l-22.8-12.4C478.7 109.8 478.9 109.8 479 109.9z"/></defs><clipPath id="SVGID_78_"><use xlink:href="#SVGID_77_" style="overflow:visible"/></clipPath><g class="st51"><path class="st9" d="M501.3 122.2l-22.8-12.4c.2.0.3.0.5.1l22.8 12.4C501.7 122.2 501.5 122.2 501.3 122.2"/></g></g><g class="st0"><defs><path id="SVGID_79_" class="st0" d="M504.9 110.1l-22.8-12.4c1.3.7 4.1.9 10.2.9 5.2.0 9 .4 11.5 1.7l22.8 12.4c-2.5-1.4-6.3-1.7-11.5-1.7C509 111 506.2 110.8 504.9 110.1z"/></defs><clipPath id="SVGID_80_"><use xlink:href="#SVGID_79_" style="overflow:visible"/></clipPath><g class="st52"><path class="st9" d="M504.9 110.1l-22.8-12.4c1.3.7 4.1.9 10.2.9 5.2.0 9 .4 11.5 1.7l22.8 12.4c-2.5-1.4-6.3-1.7-11.5-1.7C509 111 506.2 110.8 504.9 110.1"/></g></g><g><path class="st10" d="M497 122.8 474.2 110.4 478.5 109.8 501.3 122.2z"/></g><g class="st0"><defs><path id="SVGID_81_" class="st0" d="M500.9 133.5l-22.8-12.4c-3.8-2.1-4.9-5.9-4.9-9.4.0-.6.5-1.1 1-1.2l22.8 12.4c-.5.1-1 .6-1 1.2C496 127.6 497.1 131.4 500.9 133.5z"/></defs><clipPath id="SVGID_82_"><use xlink:href="#SVGID_81_" style="overflow:visible"/></clipPath><g class="st53"><path class="st9" d="M500.9 133.5l-22.8-12.4c-1-.6-1.8-1.2-2.5-2l22.8 12.4C499.1 132.3 499.9 132.9 500.9 133.5"/><path class="st12" d="M498.4 131.5l-22.8-12.4c-1.8-2.1-2.4-4.8-2.4-7.5.0-.2.0-.3.1-.5l22.8 12.4c-.1.1-.1.3-.1.5C496 126.7 496.6 129.4 498.4 131.5"/><path class="st9" d="M496.1 123.6l-22.8-12.4c.2-.4.5-.7.9-.8l22.8 12.4C496.6 122.9 496.3 123.2 496.1 123.6"/></g></g><g class="st0"><defs><path id="SVGID_83_" class="st0" d="M478.7 146.6l-22.8-12.4c1.3.5 2.5.7 3.5.5 2.8-.4 4.5-3 4.5-5.3l22.8 12.4c0 2.3-1.7 4.9-4.5 5.3C481.2 147.2 480 147.1 478.7 146.6z"/></defs><clipPath id="SVGID_84_"><use xlink:href="#SVGID_83_" style="overflow:visible"/></clipPath><g class="st54"><path class="st9" d="M478.7 146.6l-22.8-12.4c1.3.5 2.5.7 3.5.5 2-.3 3.4-1.7 4.1-3.3l22.8 12.4c-.7 1.6-2.1 3-4.1 3.3C481.2 147.2 480 147.1 478.7 146.6"/><path class="st12" d="M486.3 143.8l-22.8-12.4c.3-.7.4-1.4.4-2l22.8 12.4C486.7 142.5 486.5 143.2 486.3 143.8"/></g></g><g class="st0"><defs><path id="SVGID_85_" class="st0" d="M500.9 116.4 478.1 104c-2.4-1.3-3.7-3.6-3.7-7.4.0-7.2 5.7-12.4 15.1-13.7 5-.7 8.9-.3 11.6 1.1l22.8 12.4c-2.7-1.5-6.5-1.8-11.6-1.1-9.5 1.3-15.1 6.5-15.1 13.7C497.2 112.8 498.5 115.1 500.9 116.4z"/></defs><clipPath id="SVGID_86_"><use xlink:href="#SVGID_85_" style="overflow:visible"/></clipPath><g class="st55"><path class="st9" d="M500.9 116.4 478.1 104c-.7-.4-1.4-.9-1.9-1.5l22.8 12.4C499.5 115.5 500.2 116 500.9 116.4"/><path class="st12" d="M499 114.9l-22.8-12.4c-1.2-1.4-1.8-3.3-1.8-5.9.0-1.7.3-3.2.9-4.7l22.8 12.4c-.6 1.4-.9 3-.9 4.7C497.2 111.6 497.8 113.5 499 114.9"/><path class="st9" d="M498.1 104.3l-22.8-12.4c1.9-4.7 7-8 14.2-9 5-.7 8.9-.3 11.6 1.1l22.8 12.4c-2.7-1.5-6.5-1.8-11.6-1.1C505 96.3 5e2 99.6 498.1 104.3"/></g></g><g><path class="st19" d="M513.6 128.5c7-1 10-3.1 10-7.1.0-2.3-.8-3.9-11.7-3.5-9.1.3-14.7-1.1-14.7-8.9.0-7.2 5.7-12.4 15.1-13.7 10.6-1.5 15.9 1.8 16.6 10.2.0.3-.1.6-.3.8-.2.2-.4.4-.7.5l-4.3.6c-.4.1-.8-.3-.9-.7-1-4.8-3.5-6-10.4-5.1-7.6 1.1-8.5 4.1-8.5 6.2.0 2.6 1 3.2 11.3 3.2 10.2.0 15.1 1.4 15.1 9.1.0 7.8-6.1 13.1-16.6 14.6-14.5 2-17.6-4.7-17.5-10.7.0-.6.5-1.1 1-1.2l4.3-.6c.5-.1.8.3.9.8C502.9 127.6 504.8 129.7 513.6 128.5z"/></g><g><path class="st10" d="M469.7 142.1 446.9 129.7l9 4.5L478.7 146.6z"/></g><g class="st0"><defs><path id="SVGID_87_" class="st0" d="M469.6 142.1l-22.8-12.4c0 0 .1.0.1.0L469.6 142.1c.0999999999999659.0.0.0.0.0z"/></defs><clipPath id="SVGID_88_"><use xlink:href="#SVGID_87_" style="overflow:visible"/></clipPath><g class="st56"><path class="st9" d="M469.6 142.1l-22.8-12.4c0 0 .1.0.1.0L469.6 142.1c.0999999999999659.0.0.0.0.0"/></g></g><g class="st0"><defs><path id="SVGID_89_" class="st0" d="M469.7 87l22.8 12.4c-.2-.1-.4-.1-.6-.1l-22.8-12.4C469.3 86.8 469.5 86.9 469.7 87z"/></defs><clipPath id="SVGID_90_"><use xlink:href="#SVGID_89_" style="overflow:visible"/></clipPath><g class="st57"><path class="st9" d="M491.9 99.3l-22.8-12.4c.2.0.4.0.6.1l22.8 12.4C492.3 99.3 492.1 99.2 491.9 99.3"/></g></g><g><path class="st10" d="M506.9 67.4 484.1 55 517.3 71 540.1 83.4z"/></g><g><path class="st10" d="M487.8 99.9 465 87.5 469.1 86.9 491.9 99.3z"/></g><g><path class="st16" d="M486.7 141.8 463.9 129.4 464 88.6 486.8 101z"/></g><g class="st0"><defs><path id="SVGID_91_" class="st0" d="M486.8 101 464 88.6c0-.6.5-1.1 1-1.1l22.8 12.4C487.2 99.9 486.8 100.4 486.8 101z"/></defs><clipPath id="SVGID_92_"><use xlink:href="#SVGID_91_" style="overflow:visible"/></clipPath><g class="st58"><path class="st12" d="M486.8 101 464 88.6c0-.1.0-.3.1-.4l22.8 12.4C486.8 100.7 486.8 100.8 486.8 101"/><path class="st9" d="M486.8 100.6l-22.8-12.4c.2-.4.5-.7.9-.7l22.8 12.4C487.4 99.9 487 100.2 486.8 100.6"/></g></g><g class="st0"><defs><path id="SVGID_93_" class="st0" d="M466.4 148.1l-22.8-12.4c-2-1.1-3.2-3.4-3.2-5.9l22.8 12.4C463.2 144.7 464.4 147 466.4 148.1z"/></defs><clipPath id="SVGID_94_"><use xlink:href="#SVGID_93_" style="overflow:visible"/></clipPath><g class="st59"><path class="st9" d="M466.4 148.1l-22.8-12.4c-.6-.3-1.1-.8-1.6-1.3l22.8 12.4C465.3 147.3 465.8 147.8 466.4 148.1"/><path class="st12" d="M464.8 146.8 442 134.4c-1-1.2-1.6-2.9-1.6-4.7l22.8 12.4C463.2 144 463.8 145.6 464.8 146.8"/></g></g><g class="st0"><defs><path id="SVGID_95_" class="st0" d="M5e2 68.4 477.2 56c1.1-.8 2.2-1.2 3.5-1.4 1.2-.2 2.4-.1 3.5.4L507 67.4c-1-.5-2.2-.6-3.5-.4S501.1 67.6 5e2 68.4z"/></defs><clipPath id="SVGID_96_"><use xlink:href="#SVGID_95_" style="overflow:visible"/></clipPath><g class="st60"><path class="st9" d="M5e2 68.4 477.2 56c1.1-.8 2.2-1.2 3.5-1.4 1.2-.2 2.4-.1 3.5.4L507 67.4c-1-.5-2.2-.6-3.5-.4S501.1 67.6 5e2 68.4"/></g></g><g><path class="st16" d="M463.2 142.1 440.4 129.7 440.5 88.4 463.3 100.8z"/></g><g><path class="st17" d="M466.7 93.8 444 81.4 477.2 56 5e2 68.4z"/></g><g class="st0"><defs><path id="SVGID_97_" class="st0" d="M463.3 100.8l-22.8-12.4c0-2.7 1.3-5.4 3.5-7l22.8 12.4C464.6 95.4 463.3 98.1 463.3 100.8z"/></defs><clipPath id="SVGID_98_"><use xlink:href="#SVGID_97_" style="overflow:visible"/></clipPath><g class="st61"><path class="st12" d="M463.3 100.8l-22.8-12.4c0-1.1.2-2.3.7-3.4L464 97.4C463.5 98.5 463.3 99.6 463.3 100.8"/><path class="st9" d="M464 97.4 441.2 85c.6-1.4 1.6-2.7 2.8-3.7l22.8 12.4C465.5 94.7 464.5 96 464 97.4"/></g></g><g><path class="st19" d="M540.1 83.4c2.1 1 3.5 3.4 3.4 6.1l-.1 41.4c0 2.7-1.3 5.4-3.5 7l-33.3 25.3c-1.1.8-2.2 1.3-3.5 1.5-1.2.2-2.4.0-3.5-.5l-11.1-5.5c-1.7-.8-.8-1.2-.3-1.5 2.2-1.1 2.7-1.4 5-3.1.1-.1.3-.2.4-.2.1.0.3.0.4.1l8.5 4.3c.2.1.3.1.5.1.2.0.3-.1.5-.2l33.3-25.3c.3-.2.5-.7.5-1.1l.1-41.4c0-.4-.2-.8-.6-.9l-33.1-16c-.2-.1-.3-.1-.5-.1s-.3.1-.5.2l-33.2 25.3c-.3.2-.6.7-.6 1.1l-.1 41.4c0 .4.2.7.6.8l9 4.4c1.3.5 2.5.7 3.5.5 2.8-.4 4.5-3 4.5-5.3l.1-40.8c0-.6.5-1.1 1-1.1l4.2-.6c.5-.1 1 .3 1 .9l-.1 40.8c0 7.1-3.6 11.7-9.8 12.6-2 .3-3.6.5-7.7-1.1l-8.7-4.2c-2.2-1-3.5-3.4-3.4-6.1l.1-41.4c0-2.7 1.3-5.4 3.5-7L5e2 68.4c1.1-.8 2.2-1.2 3.5-1.4s2.4-.1 3.5.4L540.1 83.4z"/></g></g><g class="st0"><g class="st0"><defs><path id="SVGID_99_" class="st0" d="M202 117.1l22.8 12.4c0 0-.1.0-.1-.1L201.9 117C201.9 117.1 202 117.1 202 117.1z"/></defs><clipPath id="SVGID_100_"><use xlink:href="#SVGID_99_" style="overflow:visible"/></clipPath><g class="st62"><path class="st9" d="M224.7 129.4l-22.8-12.4c0 0 .1.0.1.1l22.8 12.4C224.8 129.5 224.7 129.5 224.7 129.4"/></g></g><g><path class="st10" d="M189.5 112.5 166.7 100.1 201.9 117.1 224.7 129.4z"/></g><g class="st0"><defs><path id="SVGID_101_" class="st0" d="M149.8 191.7 127 179.3c-1.2-.7-2-2-2-3.6l22.8 12.4C147.8 189.7 148.6 191.1 149.8 191.7z"/></defs><clipPath id="SVGID_102_"><use xlink:href="#SVGID_101_" style="overflow:visible"/></clipPath><g class="st63"><path class="st9" d="M149.8 191.7 127 179.3c-.4-.2-.7-.5-1-.8l22.8 12.4C149.1 191.3 149.4 191.5 149.8 191.7"/><path class="st12" d="M148.8 190.9 126 178.5c-.6-.7-1-1.7-1-2.8l22.8 12.4C147.8 189.2 148.2 190.2 148.8 190.9"/></g></g><g class="st0"><defs><path id="SVGID_103_" class="st0" d="M185.3 113.1l-22.8-12.4c.7-.5 1.4-.8 2.1-.9.7-.1 1.5.0 2.1.3l22.8 12.4c-.7-.3-1.4-.4-2.1-.3C186.7 112.3 185.9 112.6 185.3 113.1z"/></defs><clipPath id="SVGID_104_"><use xlink:href="#SVGID_103_" style="overflow:visible"/></clipPath><g class="st64"><path class="st9" d="M185.3 113.1l-22.8-12.4c.7-.5 1.4-.8 2.1-.9.7-.1 1.5.0 2.1.3l22.8 12.4c-.7-.3-1.4-.4-2.1-.3C186.7 112.3 185.9 112.6 185.3 113.1"/></g></g><g><path class="st16" d="M147.8 188.1 125 175.7 125.1 131.9 147.9 144.3z"/></g><g><path class="st17" d="M150 139.9 127.2 127.5 162.5 100.7 185.3 113.1z"/></g><g class="st0"><defs><path id="SVGID_105_" class="st0" d="M147.9 144.3l-22.8-12.4c0-1.6.8-3.3 2.1-4.3L150 140C148.7 140.9 147.9 142.6 147.9 144.3z"/></defs><clipPath id="SVGID_106_"><use xlink:href="#SVGID_105_" style="overflow:visible"/></clipPath><g class="st65"><path class="st12" d="M147.9 144.3l-22.8-12.4c0-.7.1-1.4.4-2.1l22.8 12.4C148 142.9 147.9 143.6 147.9 144.3"/><path class="st9" d="M148.3 142.2l-22.8-12.4c.4-.9.9-1.7 1.7-2.3l22.8 12.4C149.3 140.5 148.7 141.3 148.3 142.2"/></g></g><g><path class="st19" d="M224.7 129.4c1.3.6 2.1 2.1 2.1 3.7l-.1 43.9c0 1.6-.8 3.3-2.1 4.3l-35.2 26.9c-.7.5-1.4.8-2.1.9-.7.1-1.5.0-2.1-.3l-35.2-17c-1.3-.6-2.1-2-2.1-3.7l.1-43.9c0-1.6.8-3.3 2.1-4.3l35.2-26.8c.7-.5 1.4-.8 2.1-.9.7-.1 1.5.0 2.1.3L224.7 129.4z"/></g></g></g></g><g><g><g class="st0"><g><path class="st66" d="M546.7 54.6 542.2 52.2V46.9L546.8 49.4z"/></g><g class="st0"><defs><path id="SVGID_107_" class="st0" d="M546.8 49.4l-4.6-2.5c0-.2.0-.5.0-.9.0-.4.1-.9.1-1.4l4.6 2.5c0 .5-.1 1-.1 1.4C546.7 48.9 546.8 49.2 546.8 49.4z"/></defs><clipPath id="SVGID_108_"><use xlink:href="#SVGID_107_" style="overflow:visible"/></clipPath><g class="st67"><path class="st9" d="M546.8 49.4l-4.6-2.5c0-.2.0-.5.0-.9.0-.4.1-.9.1-1.4l4.6 2.5c0 .5-.1 1-.1 1.4C546.7 48.9 546.8 49.2 546.8 49.4"/></g></g><g><path class="st68" d="M543.9 53.7 539.3 51.2 541.7 43.3 546.3 45.8z"/></g><g><path class="st69" d="M546.3 45.8 541.7 43.3 543.3 43.1l4.5 2.5z"/></g><g><path class="st10" d="M543.3 55.1 538.7 52.6 536.4 45.4 541 47.9z"/></g><g><path class="st69" d="M539.9 46.7l-4.5-2.5L537 44l4.5 2.5z"/></g><g><path class="st66" d="M539.9 55.6 535.3 53.1 535.4 44.2l4.5 2.5z"/></g><g><path class="st70" d="M547.8 45.6v8.9l-1.1.1v-5.3c0-.2.0-.5.0-.9.0-.4.1-.9.1-1.4l-2.4 7.9-1.1.2-2.3-7.2v.2c0 .2.0.6.0 1.1.0.4.0.8.0 1v5.3l-1.1.1v-8.9l1.6-.2 2.3 7.2 2.4-7.9L547.8 45.6z"/></g></g><g class="st0"><g><path class="st66" d="M535 56.3 530.4 53.8V46L535 48.4z"/></g><g><path class="st66" d="M532.2 48.8 527.7 46.4V45.3l4.5 2.5z"/></g><g><path class="st69" d="M532.2 47.8l-4.5-2.5L534.4 44.3l4.5 2.5z"/></g><g><path class="st70" d="M538.9 46.8V47.9L536.1 48.3V56.1L535 56.3V48.4L532.2 48.8v-1z"/></g></g></g></g></svg>