<?xml version="1.0" encoding="utf-8"?>
<!-- Generator: Adobe Illustrator 22.0.0, SVG Export Plug-In . SVG Version: 6.00 Build 0)  -->
<svg version="1.1" id="Calque_1" xmlns="http://www.w3.org/2000/svg" xmlns:xlink="http://www.w3.org/1999/xlink" x="0px" y="0px"
	 viewBox="0 0 298.3 298" style="enable-background:new 0 0 298.3 298;" xml:space="preserve">
<style type="text/css">
	.st0{fill:#FFFFFF;}
	.st1{clip-path:url(#SVGID_3_);}
	.st2{fill:#F2B68F;}
	.st3{fill:#F7BA8B;}
	.st4{opacity:0.55;fill:#E4C3A3;enable-background:new    ;}
	.st5{display:none;fill:#292929;}
	.st6{fill:#512500;}
	.st7{opacity:0.5;fill:#512500;enable-background:new    ;}
	.st8{fill:#F6F6F6;}
	.st9{fill:#777777;}
	.st10{opacity:0.3;fill:#FFFFFF;enable-background:new    ;}
	.st11{fill:#494E54;}
	.st12{fill:#518DC9;}
	.st13{fill:#6B2618;}
	.st14{opacity:0.65;}
	.st15{fill:#AAAAAA;}
	.st16{opacity:0.55;fill:#AAAAAA;enable-background:new    ;}
</style>
<g>
	<circle id="SVGID_1_" class="st0" cx="149" cy="149" r="149"/>
</g>
<g>
	<defs>
		<circle id="SVGID_2_" cx="149" cy="149" r="149"/>
	</defs>
	<clipPath id="SVGID_3_">
		<use xlink:href="#SVGID_2_"  style="overflow:visible;"/>
	</clipPath>
	<g class="st1">
		<g>
			<g>
				<path class="st2" d="M105.1,120.8c0,0-11.5-8.4-15.3-1.1c-2.7,5.3-2.9,12.4,2.3,20.9c5.3,8.4,2.7,11.2,4.8,13.3
					c2.1,2,9.6,3,9.7,2.3C106.6,155.4,111.7,121.8,105.1,120.8z"/>
				<path class="st2" d="M192.8,120.8c0,0,11.5-8.4,15.3-1.1c2.7,5.3,2.9,12.4-2.3,20.9c-5.3,8.4-2.7,11.2-4.8,13.3
					c-2.1,2-9.6,3-9.7,2.3C191.2,155.4,186.2,121.8,192.8,120.8z"/>
				<path class="st3" d="M270.6,247.7c-8.9-8.1-60.7-22.2-76.9-26.5c-11.6-3-11.9-34.8-11.2-51.6c-9.5,7.8-21.4,12.7-34.3,12.7
					c-10.4,0-20.2-2.5-28.9-7c0.4,17.1-1,43.3-11.4,46c-16.2,4.2-68,18.4-76.9,26.5s-17.4,22.8-17.4,46.3H288
					C288,270.4,279.5,255.8,270.6,247.7z"/>
				<path class="st4" d="M270.6,247.7c-8.9-8.1-60.7-22.2-76.9-26.5c-11.6-3-11.9-34.8-11.2-51.6c-9.5,7.8-21.4,12.7-34.3,12.7
					c-10.4,0-20.2-2.5-28.9-7c0.4,17.1-1,43.3-11.4,46c-16.2,4.2-68,18.4-76.9,26.5s-17.4,22.8-17.4,46.3H288
					C288,270.4,279.5,255.8,270.6,247.7z"/>
				<path class="st3" d="M196.2,148.2c-0.2,0.9-0.3,1.8-0.5,2.8c-1.8,9.6-4.7,24.1-8.6,30.9c-4.2,7.3-21.2,19.9-24.8,21.4
					c-3.6,1.6-6.8,2.7-13.6,2.7s-9.9-1.1-13.6-2.7c-3.7-1.6-20.6-14.1-24.8-21.4c-3.9-6.7-6.8-21.2-8.6-30.7c-0.2-1-0.4-2-0.6-2.9
					c-1.8-9.5-0.9-57.7-0.9-57.7c0-10.6,10.1-5.3,21.1-9.3c17.6-6.3,37.1-6.3,54.7,0c11,4,21.1-1.3,21.1,9.3
					C197.1,90.4,198,138.7,196.2,148.2z"/>
				<path class="st5" d="M195.8,62.3c-6.8-9-22.6-17.6-47.3-17.8c-24.6,0.1-40.5,8.7-47.3,17.8c-14.1,18.8-9.1,54.9-9.1,54.9
					c7.7-1.9,8.3,8,6.5,11.7c-1.9,3.7,1.9,15.2,1.9,15.2c2.2-7.5,2.8-28.5,2.8-34.2c0-4.5,7.1-21.8,6.8-29.9
					c-1-27.5,33.7-18.3,38.4-16.9c4.7-1.4,39.4-10.6,38.4,16.9c-0.3,8.1,6.7,25.3,6.8,29.9c0.1,5.7,0.6,26.7,2.8,34.2
					c0,0,3.8-11.5,1.9-15.2c-1.9-3.7-1.3-13.6,6.5-11.7C204.9,117.2,210,81.1,195.8,62.3z"/>
				<path class="st5" d="M196.3,39.3c-5.8-1.8-10.9-0.7-21.4,9.9c0,0,1-16.1,24.8-13.5c0,0-24.7-22.4-40,8.8c0,0,0.3-16.5,19.7-19.3
					c0,0-26.5-13.1-39.4,19.7c0,0-2.6-16.4,22.4-23.9c0,0-19.6-5.9-38.2,17.9c0,0-1.1-10.2,17.1-18.8c0,0-50-5.3-43.2,47.1
					c0,0,3.7,8.9,14.1,9.6c3,0.2,5.9,0.4,8.8,0.9c5.9,1.2,16.6,3.7,27.6,3.7c12.3,0,28.9-4.5,37.4-3.5s2.1-20.5,11.9-27.2
					c1.6-1.1,3.7-1.4,7.4,0.3C205.4,51.1,202.5,41.2,196.3,39.3z"/>
				<path class="st6" d="M202.4,116.7c0,0-0.5-11.7-3.7-25.2c-2.4-12.2-6.2-18.9-10.3-27.6c-0.7,8.7-2.6,15.8-2.6,15.8
					c0.2-1.2,0.4-2.6,0.4-4.3c0.4-11.7-3.4-11.3-10.2-20.8c-3.2-4.4-5.3-6.7-5.3-6.7c3,14.4-3.2,20.8-2.9,15.8
					c1.2-17-6.2-21.9-13.9-27c0,0,1.6,15.1-1,18.9c0-4.8-1.8-16.7-15-21.1c-0.1,0-0.1,0-0.1,0c2,6.3,3.1,22.9,0.3,23.2
					c-1.3,0.2-5.1-16.1-5.1-16.1c-11.3,8.6-10.2,26.7-12.3,23.5c-1.4-2,2.9-17.9,2.9-17.9c-7.3,7.6-10.8,15.2-12.6,20.3
					c-0.5,1.4-2.6,1.9-2.1,0.1c0.8-3.5,4-11.4,4.1-11.6c-6.3,5.6-11.5,13.8-15.5,36.4c-2.5,14.1-2.6,24.3-2.6,24.3
					c5.3,0.7,5.5,8.6,3.9,11.9c-1.9,3.7,1.9,15.2,1.9,15.2c2.2-7.5,2.8-15.5,2.8-21.2c0-4.5,7.1-14.4,6.8-22.5
					c-0.7-19.8,17-20.6,28.8-18.9c6.5,0.9,13,1,19.5,0.4c11.6-1.1,29.1,0.3,28.4,18.6c-0.3,8.1,6.7,18,6.8,22.5
					c0.1,5.7,0.6,13.7,2.8,21.2c0,0,3.8-11.5,1.9-15.2C196.8,125.3,197.1,117.3,202.4,116.7z"/>
				<path class="st7" d="M194.7,131.2c-0.3,0.4-0.7,0.8-1,1.2v-0.3c-0.1,0.1-0.2,0.2-0.3,0.3c-0.7,6.5-2.4,21.6-4.2,27.3
					c-1.8,5.8-12,12-19.4,7.5c-8.4-5-16.2-5.7-19.9-5.9h-0.5c-0.2,0-0.5,0-0.8,0s-0.6,0-0.8,0h-0.5c-3.7,0.2-11.5,0.9-19.9,5.9
					c-7.4,4.5-17.5-1.7-19.4-7.5c-1.8-5.7-3.5-20.8-4.2-27.3l-0.3-0.3v0.3c-0.3-0.5-0.6-0.8-1-1.2c-0.7-0.6-2-1.2-2.6-1.7
					c0,1.4-0.4,13,1.6,21.6c1.8,9.6,4.7,24,8.6,30.7c4.2,7.3,21.1,19.9,24.8,21.4c3.6,1.6,6.8,2.7,13.6,2.7s9.9-1.1,13.6-2.7
					c3.6-1.6,20.6-14.1,24.8-21.4c3.9-6.7,6.8-21.3,8.6-30.9c1.6-8.3,1.5-20,1.6-21.4C196.6,130,195.3,130.5,194.7,131.2z
					 M156.9,176.4h-16.4c-3.3,0-6-4.3-6-7.1c0-2.9,2.7,1.3,6,1.3h16.4c3.3,0,6-4.1,6-1.3C162.9,172.2,160.2,176.4,156.9,176.4z"/>
			</g>
			<g>
				<path class="st8" d="M291.2,289.2c-6.6-35.4-11.3-44.7-16-47.7c-1.7-1.1-45.9-10.9-74.7-20.2c-10.1,9.1-24.1,12-49.7,12
					c-25.5-0.1-39.5-2.9-49.7-12c-28.7,9.4-72.9,19.1-74.7,20.2c-4.7,3.1-9.4,12.4-16,47.7c-1.1,5.7-6.3,30.3-7,41.4h147.3h0.1
					h147.3C297.5,319.5,292.2,294.9,291.2,289.2z"/>
			</g>
			<g>
				<path class="st9" d="M3.9,330.2c0.7-9.1,4.1-26.5,6-35.9c0.4-2.2,0.8-3.9,1-5c6.9-37.1,11.7-44.8,15.8-47.5
					c0.6-0.4,7.3-2,15.8-4.2c16-4,40.1-10,58.4-15.9c1,31,33.8,54.5,50,54.5c16.3,0,49.1-23.5,50.1-54.5
					c18.3,5.9,42.4,11.9,58.4,15.9c8.5,2.1,15.2,3.8,15.8,4.2c4.1,2.7,8.9,10.3,15.8,47.5c0.2,1.1,0.5,2.8,1,5
					c1.9,9.4,5.3,26.8,6,35.9L3.9,330.2L3.9,330.2z"/>
				<path class="st0" d="M201.3,222.2c18.2,5.9,42.1,11.8,57.9,15.7c8,2,14.9,3.7,15.6,4.1c4.1,2.7,8.8,10.2,15.6,47.2
					c0.2,1.1,0.5,2.8,1,5c1.8,9.3,5.2,26.3,6,35.5H150.9H4.3c0.7-9.2,4.1-26.2,6-35.5c0.4-2.2,0.8-3.9,1-5
					c6.9-37,11.6-44.6,15.6-47.2c0.7-0.4,7.6-2.1,15.7-4.1c15.9-3.9,39.7-9.9,57.9-15.7c0.8,18,12.2,31.6,18.9,38.1
					c10.2,9.9,22.5,16.3,31.4,16.3l0,0l0,0c8.9,0,21.2-6.4,31.4-16.3C189.2,253.8,200.5,240.2,201.3,222.2 M200.6,221.2
					c-0.7,30.1-32.8,54.7-49.7,54.7l0,0l0,0l0,0l0,0c-16.9,0-49-24.6-49.7-54.7c-28.7,9.4-72.9,19.1-74.7,20.2
					c-4.7,3.1-9.4,12.4-16,47.7c-1.1,5.7-6.3,30.3-7,41.4h147.4l0,0h147.4c-0.7-11.1-6-35.7-7-41.4c-6.6-35.4-11.3-44.7-16-47.7
					C273.5,240.3,229.4,230.5,200.6,221.2L200.6,221.2z"/>
			</g>
			<g>
				<path class="st10" d="M147.3,330.2v-54.3c1.4,0.2,2.5,0.3,3.6,0.3c16.3,0,49.1-23.5,50.1-54.5c18.3,5.9,42.4,11.9,58.4,15.9
					c8.5,2.1,15.2,3.8,15.8,4.2c4.1,2.7,8.9,10.3,15.8,47.5c0.2,1.1,0.5,2.8,1,5c1.9,9.4,5.3,26.8,6,35.9L147.3,330.2L147.3,330.2z"
					/>
				<g>
					<path class="st0" d="M201.3,222.2c18.2,5.9,42.1,11.8,57.9,15.7c8,2,14.9,3.7,15.6,4.1c4.1,2.7,8.8,10.2,15.6,47.2
						c0.2,1.1,0.5,2.8,1,5c1.8,9.3,5.2,26.3,6,35.5H147.7v-53.5c1.2,0.2,2.3,0.3,3.2,0.3l0,0l0,0c8.9,0,21.2-6.4,31.4-16.3
						C189.2,253.8,200.5,240.2,201.3,222.2 M200.6,221.2c-0.7,30.1-32.8,54.7-49.7,54.7l0,0l0,0l0,0c-1.2,0-2.6-0.2-3.9-0.4v55.1
						h151.4c-0.7-11.1-6-35.7-7-41.4c-6.6-35.4-11.3-44.7-16-47.7C273.5,240.3,229.4,230.5,200.6,221.2L200.6,221.2z"/>
				</g>
			</g>
			<path class="st11" d="M165.6,294.8H157c-0.9,0-1.7-0.7-1.7-1.5v-1.4c0-0.9,0.8-1.5,1.7-1.5h8.5c0.9,0,1.7,0.7,1.7,1.5v1.4
				C167.3,294.1,166.5,294.8,165.6,294.8z"/>
			<path class="st11" d="M165.6,323.3H157c-0.9,0-1.7-0.7-1.7-1.5v-1.4c0-0.9,0.8-1.5,1.7-1.5h8.5c0.9,0,1.7,0.7,1.7,1.5v1.4
				C167.3,322.6,166.5,323.3,165.6,323.3z"/>
		</g>
		<g>
			<g>
				<path class="st0" d="M179.6,125.2c-4.2-4-11.8-3.7-17.2-1.9c-0.1,0-0.1,0-0.2,0c-4.3,1.5-6.6,5.4-2.1,8c4,2.3,10.5,2.6,14.8,0.9
					C177.3,131.4,182.8,128.3,179.6,125.2z"/>
			</g>
			<g>
				<path class="st12" d="M173.2,127.4c0,2.6-2.3,4.7-5.1,4.7s-5.1-2.1-5.1-4.8c0-2.6,2.3-4.7,5.1-4.7
					C170.9,122.7,173.2,124.8,173.2,127.4z"/>
			</g>
			<g>
				<path class="st13" d="M170.8,127.7c0,1.4-1.2,2.5-2.7,2.5s-2.7-1.1-2.7-2.5c0-1.4,1.2-2.5,2.7-2.5S170.8,126.3,170.8,127.7z"/>
			</g>
			<g>
				<path class="st0" d="M168.5,125.9c0,1.2-1,2.1-2.3,2.1s-2.3-0.9-2.3-2.1s1-2.1,2.3-2.1S168.5,124.7,168.5,125.9z"/>
			</g>
			<g>
				<path class="st13" d="M173.1,122.1c-5.5-0.9-12.9,0.4-15.6,4.7c-0.4,0.7-0.3,1.5,0.5,0.7c3.7-3.8,8.4-4.6,13.9-4.1
					c2.9,0.3,7.9,2,7.5,4.7c-0.1,0.7-0.5,1.4-1.9,2.4c-1.1,0.8-0.1,1.2,0.9,0.4C184.4,126.2,178.8,123,173.1,122.1z"/>
			</g>
		</g>
		<g>
			<path class="st13" d="M154.6,114.7c9.2-2.9,18.8-8.2,27.7-1.1c0.5,0.4,0,1.4-0.6,1.1c-4.3-2-7.6-3.1-11.5-2.4
				c-4.9,0.9-9.7,4.7-14.3,5.1C152.6,117.8,151.7,115.7,154.6,114.7z"/>
		</g>
		<g>
			<g>
				<path class="st0" d="M117.7,125.1c4.2-3.9,11.8-3.7,17.2-1.8c0.1,0,0.1,0,0.2,0c4.3,1.5,6.6,5.4,2.1,8c-4,2.3-10.5,2.5-14.8,0.9
					C120,131.2,114.5,128.1,117.7,125.1z"/>
			</g>
			<g>
				<path class="st12" d="M124.1,127.3c0,2.6,2.3,4.7,5.1,4.7c2.8,0,5.1-2.1,5.1-4.7c0-2.6-2.3-4.7-5.1-4.7
					C126.4,122.6,124.1,124.7,124.1,127.3z"/>
			</g>
			<g>
				<path class="st13" d="M126.5,127.6c0,1.4,1.2,2.5,2.7,2.5s2.7-1.1,2.7-2.5c0-1.4-1.2-2.5-2.6-2.5
					C127.7,125.1,126.5,126.2,126.5,127.6z"/>
			</g>
			<g>
				<path class="st0" d="M125.9,125.8c0,1.2,1,2.1,2.3,2.1c1.3,0,2.3-0.9,2.3-2.1s-1-2.1-2.3-2.1
					C126.9,123.7,125.9,124.6,125.9,125.8z"/>
			</g>
			<g>
				<path class="st13" d="M124.2,122c5.5-0.9,12.9,0.4,15.6,4.7c0.4,0.7,0.3,1.5-0.5,0.7c-3.7-3.9-8.4-4.7-13.9-4.2
					c-3,0.3-7.9,1.9-7.6,4.6c0.1,0.7,0.5,1.4,1.9,2.4c1.1,0.8,0.1,1.2-0.9,0.4C112.9,126,118.5,122.9,124.2,122z"/>
			</g>
		</g>
		<g>
			<path class="st13" d="M143,114.7c-9.2-3-18.8-8.3-27.7-1.2c-0.6,0.4,0,1.4,0.5,1.1c4.3-1.9,7.6-3,11.6-2.3
				c4.9,0.9,9.7,4.7,14.3,5.1C145.1,117.7,145.9,115.6,143,114.7z"/>
		</g>
		<g class="st14">
			<g>
				<path class="st15" d="M157.3,152.8c0.1-1-2-1.2-2.1-0.2c-0.2,2.4-3.6,2.7-6.5,2.8c-2.9-0.2-5.7-0.4-6.5-2.8
					c-0.3-0.9-2.3-0.8-2.1,0.2c1,4.2,3.7,3.8,6.5,4c0.7,0,1.4,0.1,2.1,0.1l0,0c0,0,0,0,0.1,0c0,0,0,0,0.1,0l0,0c0.7,0,1.4,0,2.1-0.1
					C153.6,156.6,157,157,157.3,152.8z"/>
			</g>
		</g>
		<g>
			<g>
				<path class="st16" d="M145,131.4c0,4.8-0.5,10.3-2.2,15.9c-0.2,0.6-0.4,1.3-0.6,1.9"/>
			</g>
			<g>
				<path class="st16" d="M152.5,131.4c0,4.8,0.5,10.3,2.2,15.9c0.2,0.6,0.4,1.3,0.6,1.9"/>
			</g>
		</g>
	</g>
</g>
</svg>
