<svg id="Calque_1" xmlns="http://www.w3.org/2000/svg" xmlns:xlink="http://www.w3.org/1999/xlink" viewBox="0 0 2e3 2e3" style="enable-background:new 0 0 2e3 2e3"><style>.st0{display:none}.st1{display:inline;fill:#fff}.st2{enable-background:new}.st3{clip-path:url(#SVGID_2_);enable-background:new}.st4{fill:#15171c}.st5{fill:#14161b}.st6{fill:#14161a}.st7{clip-path:url(#SVGID_4_);enable-background:new}.st8{fill:#111216}.st9{fill:#111317}.st10{fill:#121418}.st11{fill:#131418}.st12{fill:#131519}.st13{fill:#1c1f25}.st14{clip-path:url(#SVGID_6_);enable-background:new}.st15{fill:#007085}.st16{clip-path:url(#SVGID_8_);enable-background:new}.st17{fill:#008fa8}.st18{fill:#008aa3}.st19{clip-path:url(#SVGID_10_);enable-background:new}.st20{fill:#00869e}.st21{fill:#008299}.st22{fill:#007d94}.st23{fill:#00798f}.st24{fill:#00758a}.st25{clip-path:url(#SVGID_12_);enable-background:new}.st26{clip-path:url(#SVGID_14_);enable-background:new}.st27{clip-path:url(#SVGID_16_);enable-background:new}.st28{clip-path:url(#SVGID_18_);enable-background:new}.st29{clip-path:url(#SVGID_20_);enable-background:new}.st30{clip-path:url(#SVGID_22_);enable-background:new}.st31{clip-path:url(#SVGID_24_);enable-background:new}.st32{clip-path:url(#SVGID_26_);enable-background:new}.st33{clip-path:url(#SVGID_28_);enable-background:new}.st34{clip-path:url(#SVGID_30_);enable-background:new}.st35{clip-path:url(#SVGID_32_);enable-background:new}.st36{clip-path:url(#SVGID_34_);enable-background:new}.st37{clip-path:url(#SVGID_36_);enable-background:new}.st38{clip-path:url(#SVGID_38_);enable-background:new}.st39{clip-path:url(#SVGID_40_);enable-background:new}.st40{clip-path:url(#SVGID_42_);enable-background:new}.st41{fill:#00bddf}.st42{clip-path:url(#SVGID_44_);enable-background:new}.st43{clip-path:url(#SVGID_46_);enable-background:new}.st44{clip-path:url(#SVGID_48_);enable-background:new}.st45{clip-path:url(#SVGID_50_);enable-background:new}.st46{clip-path:url(#SVGID_52_);enable-background:new}.st47{clip-path:url(#SVGID_54_);enable-background:new}.st48{clip-path:url(#SVGID_56_);enable-background:new}.st49{clip-path:url(#SVGID_58_);enable-background:new}.st50{clip-path:url(#SVGID_60_);enable-background:new}.st51{clip-path:url(#SVGID_62_);enable-background:new}.st52{clip-path:url(#SVGID_64_);enable-background:new}.st53{clip-path:url(#SVGID_66_);enable-background:new}.st54{clip-path:url(#SVGID_68_);enable-background:new}.st55{clip-path:url(#SVGID_70_);enable-background:new}.st56{clip-path:url(#SVGID_72_);enable-background:new}.st57{clip-path:url(#SVGID_74_);enable-background:new}</style><g id="Bg" class="st0"><path class="st1" d="M0 0h2e3v2e3H0z"/></g><g id="Icon"><g><g><g class="st2"><g class="st2"><g><defs><path id="SVGID_1_" d="M1562 436.7l91.2 49.6c-1.7-.9-3.5-1.9-5.3-2.7-177.2-85.8-354.6-171.2-531.7-257.1-23.4-11.3-46.4-15.3-69.4-12.1l-91.2-49.6c23-3.2 46 .7 69.4 12.1 177.1 85.9 354.5 171.3 531.7 257.1C1558.5 434.9 1560.3 435.8 1562 436.7z"/></defs><clipPath id="SVGID_2_"><use xlink:href="#SVGID_1_" style="overflow:visible"/></clipPath><g class="st3"><path class="st4" d="M1046.8 214.4l-91.2-49.6c14.7-2.1 29.3-1.2 44.1 2.6l91.2 49.6C1076.1 213.2 1061.5 212.3 1046.8 214.4"/><path class="st5" d="M1090.9 217l-91.2-49.6c8.4 2.2 16.8 5.3 25.3 9.4 177.1 85.9 354.5 171.3 531.7 257.1.2.1.3.2.5.3l91.2 49.6c-.2-.1-.3-.2-.5-.3-177.2-85.8-354.6-171.2-531.7-257.1C1107.7 222.4 1099.3 219.2 1090.9 217"/><path class="st6" d="M1648.4 483.9l-91.2-49.6c1.6.8 3.2 1.6 4.8 2.5l91.2 49.6C1651.6 485.5 1650 484.7 1648.4 483.9"/></g></g></g><g class="st2"><g><defs><path id="SVGID_3_" d="M437.4 1563.7l-91.2-49.6c-19.3-10.5-33.7-24.8-43.5-42.6-10.4-18.9-15.5-41.8-15.4-68.5.5-222.7.8-445.3 1.3-668 .1-54.1 21.3-98.7 64.7-131.9 105.5-80.9 459.4-349.8 530.1-404.8 24.3-18.9 48.2-30.1 72.3-33.5l91.2 49.6c-24 3.4-48 14.6-72.3 33.5-70.7 55-424.6 323.9-530.1 404.8-43.4 33.3-64.6 77.9-64.7 131.9-.5 222.7-.8 445.3-1.3 668 0 26.7 5.1 49.5 15.4 68.5C403.6 1538.9 418.1 1553.2 437.4 1563.7z"/></defs><clipPath id="SVGID_4_"><use xlink:href="#SVGID_3_" style="overflow:visible"/></clipPath><g class="st7"><path class="st8" d="M437.4 1563.7l-91.2-49.6c-19.3-10.5-33.7-24.8-43.5-42.6-10.4-18.9-15.5-41.8-15.4-68.5.5-222.7.8-445.3 1.3-668 0-21.4 3.4-41.4 10.1-59.7l91.2 49.6c-6.7 18.3-10.1 38.3-10.1 59.7-.5 222.7-.8 445.3-1.3 668 0 26.7 5.1 49.5 15.4 68.5C403.6 1538.9 418.1 1553.2 437.4 1563.7"/><path class="st9" d="M389.8 724.9l-91.2-49.6c2.5-6.7 5.4-13.2 8.7-19.5l91.2 49.6C395.2 711.7 392.3 718.2 389.8 724.9"/><path class="st10" d="M398.6 705.4l-91.2-49.6c2.8-5.2 6-10.3 9.4-15.3l91.2 49.6C404.6 695.1 401.4 700.2 398.6 705.4"/><path class="st11" d="M408 690.2l-91.2-49.6c3.4-4.8 7-9.4 11-13.9l91.2 49.6C415 680.7 411.4 685.4 408 690.2"/><path class="st12" d="M419 676.2l-91.2-49.6c4.3-4.8 8.9-9.5 13.9-14l91.2 49.6C427.9 666.7 423.3 671.4 419 676.2"/><path class="st6" d="M432.9 662.3l-91.2-49.6c3.7-3.3 7.5-6.5 11.6-9.6 105.5-80.9 459.4-349.8 530.1-404.8 3.4-2.6 6.8-5.1 10.2-7.5l91.2 49.6c-3.4 2.3-6.8 4.8-10.2 7.5-70.7 55-424.6 323.9-530.1 404.8C440.4 655.8 436.5 659 432.9 662.3"/><path class="st5" d="M984.7 240.4l-91.2-49.6c8.5-5.8 16.9-10.8 25.3-14.7l91.2 49.6C1001.6 229.7 993.2 234.6 984.7 240.4"
								/><path class="st4" d="M1010 225.7l-91.2-49.6c12.3-5.8 24.5-9.6 36.8-11.3l91.2 49.6C1034.5 216.1 1022.3 219.9 1010 225.7"/></g></g></g><g><path class="st13" d="M1046.8 214.4c23-3.2 46 .7 69.4 12.1 177.1 85.9 354.5 171.3 531.7 257.1 21.5 10.4 37.5 25.2 48.1 44.1 10.8 19.1 16.2 42.5 16.2 69.7-.3 222.7-1.1 645.6-1.2 667.9-.1 26.7-5.3 51-15.7 72.8-10.7 22.4-27 42.2-49 59.1-177.6 135.7-355.4 271-533 406.8-23.4 17.9-46.5 28.4-69.5 31.6-24 3.4-48-1.1-72.2-13.2-70.5-35.2-423.7-204.7-528.9-255.9-22-10.7-38.2-25.9-48.8-45.3-10.4-18.9-15.5-41.8-15.4-68.5.5-222.7.8-445.3 1.3-668 .1-54.1 21.3-98.7 64.7-131.9C550 571.9 903.9 303 974.6 248 998.8 229 1022.8 217.8 1046.8 214.4z"/></g></g></g></g><g id="React_icon"><g><g class="st2"><g class="st2"><g><defs><path id="SVGID_5_" d="M1334.5 1352.7l-45.6-24.8c6.7-39.3 5.3-88.3-4.5-141.2-1.5-8.3-3.3-16.7-5.3-25.2l45.6 24.8c2 8.6 3.8 17 5.3 25.2C1339.8 1264.4 1341.2 1313.3 1334.5 1352.7z"/></defs><clipPath id="SVGID_6_"><use xlink:href="#SVGID_5_" style="overflow:visible"/></clipPath><g class="st14"><path class="st15" d="M1334.5 1352.7l-45.6-24.8c6.7-39.3 5.3-88.3-4.5-141.2-1.5-8.3-3.3-16.7-5.3-25.2l45.6 24.8c2 8.6 3.8 17 5.3 25.2C1339.8 1264.4 1341.2 1313.3 1334.5 1352.7"/></g></g></g><g class="st2"><g><defs><path id="SVGID_7_" d="M1354.3 1126.2l-45.6-24.8c5.7-2.6 11.3-5.3 16.7-8l45.6 24.8C1365.6 1120.9 1360 1123.6 1354.3 1126.2z"/></defs><clipPath id="SVGID_8_"><use xlink:href="#SVGID_7_" style="overflow:visible"/></clipPath><g class="st16"><path class="st17" d="M1354.3 1126.2l-45.6-24.8c2-.9 3.9-1.8 5.9-2.7l45.6 24.8C1358.2 1124.4 1356.3 1125.3 1354.3 1126.2"/><path class="st18" d="M1360.2 1123.5l-45.6-24.8c3.7-1.7 7.3-3.5 10.9-5.3l45.6 24.8C1367.5 1120 1363.9 1121.7 1360.2 1123.5"/></g></g></g><g class="st2"><g><defs><path id="SVGID_9_" d="M1424.3 868.9l45.6 24.8c38.9 21.1 60.7 46.9 60.7 71.3-.1 41.6-60.9 104-159.6 153.2l-45.6-24.8c98.7-49.1 159.5-111.6 159.6-153.2C1485.1 915.9 1463.2 890.1 1424.3 868.9z"/></defs><clipPath id="SVGID_10_"><use xlink:href="#SVGID_9_" style="overflow:visible"/></clipPath><g class="st19"><path class="st18" d="M1371.1 1118.2l-45.6-24.8c25.4-12.6 48.3-26.2 68.2-40l45.6 24.8C1419.3 1092 1396.4 1105.6 1371.1 1118.2"/><path class="st20" d="M1439.3 1078.2l-45.6-24.8c14.8-10.2 27.9-20.6 39.4-30.9l45.6 24.8C1467.2 1057.7 1454.1 1068 1439.3 1078.2"/><path class="st21" d="M1478.7 1047.4l-45.6-24.8c8.1-7.3 15.3-14.5 21.6-21.6l45.6 24.8C1494 1032.8 1486.7 1040.1 1478.7 1047.4"/><path class="st22" d="M1500.3 1025.7l-45.6-24.8c4.9-5.5 9.2-10.9 12.9-16.3l45.6 24.8C1509.4 1014.8 1505.1 1020.2 1500.3 1025.7"/><path class="st23" d="M1513.2 1009.5l-45.6-24.8c3.1-4.5 5.9-8.9 8.2-13.2l45.6 24.8C1519.1 1000.6 1516.3 1005 1513.2 1009.5"/><path class="st24" d="M1521.4 996.3l-45.6-24.8c2.2-4.1 4-8.1 5.4-11.9l45.6 24.8C1525.4 988.2 1523.6 992.2 1521.4 996.3"/><path class="st15" d="M1526.8 984.4l-45.6-24.8c2.5-6.8 3.8-13.3 3.8-19.3.0-24.4-21.8-50.2-60.7-71.3l45.6 24.8c38.9 21.1 60.7 46.9 60.7 71.3C1530.6 971.1 1529.3 977.5 1526.8 984.4"/></g></g></g><g class="st2"><g><defs><path id="SVGID_11_" d="M1183 1409.6l-45.6-24.8c36.3 19.7 68.9 27.8 93.3 24.4 10-1.4 18.6-4.7 25.5-10 14.8-11.3 26.7-36 32.7-71.3l45.6 24.8c-6 35.3-18 60-32.7 71.3-6.9 5.3-15.5 8.6-25.5 10C1251.9 1437.4 1219.3 1429.3 1183 1409.6z"/></defs><clipPath id="SVGID_12_"><use xlink:href="#SVGID_11_" style="overflow:visible"/></clipPath><g class="st25"><path class="st20" d="M1183 1409.6l-45.6-24.8c3.5 1.9 7 3.7 10.4 5.4l45.6 24.8C1190 1413.3 1186.5 1411.5 1183 1409.6"/><path class="st18" d="M1193.4 1415l-45.6-24.8c14.2 7 27.8 12.2 40.5 15.4l45.6 24.8C1221.2 1427.1 1207.6 1422 1193.4 1415"
								/><path class="st17" d="M1233.9 1430.4l-45.6-24.8c15.8 4.1 30.2 5.3 42.4 3.6 6.3-.9 12-2.5 17.1-4.9l45.6 24.8c-5.1 2.4-10.8 4-17.1 4.9C1264 1435.7 1249.7 1434.5 1233.9 1430.4"/><path class="st18" d="M1293.4 1429.1l-45.6-24.8c2.4-1.1 4.6-2.4 6.7-3.8l45.6 24.8C1298 1426.7 1295.7 1427.9 1293.4 1429.1"/><path class="st20" d="M1300.1 1425.2l-45.6-24.8c.6-.4 1.1-.8 1.7-1.2.9-.7 1.9-1.5 2.8-2.3l45.6 24.8c-.9.8-1.8 1.6-2.8 2.3C1301.2 1424.4 1300.6 1424.8 1300.1 1425.2"/><path class="st21" d="M1304.5 1421.7l-45.6-24.8c1.4-1.3 2.9-2.7 4.3-4.3l45.6 24.8C1307.4 1418.9 1306 1420.4 1304.5 1421.7"/><path class="st22" d="M1308.8 1417.4l-45.6-24.8c1.6-1.8 3.1-3.7 4.6-5.8l45.6 24.8C1311.9 1413.6 1310.4 1415.6 1308.8 1417.4"/><path class="st23" d="M1313.4 1411.5l-45.6-24.8c1.9-2.6 3.6-5.5 5.3-8.7l45.6 24.8C1317 1406 1315.2 1408.9 1313.4 1411.5"
								/><path class="st24" d="M1318.7 1402.8l-45.6-24.8c2.5-4.7 4.8-9.9 6.9-15.6l45.6 24.8C1323.5 1393 1321.2 1398.2 1318.7 1402.8"/><path class="st15" d="M1325.6 1387.2l-45.6-24.8c3.7-10 6.7-21.5 8.9-34.6l45.6 24.8C1332.3 1365.7 1329.3 1377.2 1325.6 1387.2"/></g></g></g><g class="st2"><g><defs><path id="SVGID_13_" d="M1220.1 1173.8l-45.6-24.8c32.9-8.9 64-19 92.9-30.2l45.6 24.8C1284.2 1154.8 1253 1164.9 1220.1 1173.8z"/></defs><clipPath id="SVGID_14_"><use xlink:href="#SVGID_13_" style="overflow:visible"/></clipPath><g class="st26"><path class="st17" d="M1220.1 1173.8l-45.6-24.8c32.9-8.9 64-19 92.9-30.2l45.6 24.8C1284.2 1154.8 1253 1164.9 1220.1 1173.8"/></g></g></g><g class="st2"><g><defs><path id="SVGID_15_" d="M1313.1 1143.6l-45.6-24.8c-8.9-28.9-20-59-33.3-89.9l45.6 24.8C1293 1084.6 1304.2 1114.7 1313.1 1143.6z"/></defs><clipPath id="SVGID_16_"><use xlink:href="#SVGID_15_" style="overflow:visible"/></clipPath><g class="st27"><path class="st15" d="M1313.1 1143.6l-45.6-24.8c-8.9-28.9-20-59-33.3-89.9l45.6 24.8C1293 1084.6 1304.2 1114.7 1313.1 1143.6"/></g></g></g><g class="st2"><g><defs><path id="SVGID_17_" d="M1446.9 826.8l45.6 24.8c-26.7-14.5-59.1-26.4-96.1-34.9l-45.6-24.8C1387.8 800.4 1420.2 812.3 1446.9 826.8z"/></defs><clipPath id="SVGID_18_"><use xlink:href="#SVGID_17_" style="overflow:visible"/></clipPath><g class="st28"><path class="st17" d="M1396.4 816.6l-45.6-24.8c4.3 1 8.6 2 12.7 3.1l45.6 24.8C1404.9 818.7 1400.7 817.6 1396.4 816.6"/><path class="st18" d="M1409.1 819.8l-45.6-24.8c27.2 7.1 51.7 16 73.1 26.5l45.6 24.8C1460.9 835.7 1436.3 826.8 1409.1 819.8"/><path class="st20" d="M1482.2 846.2l-45.6-24.8c3.5 1.7 7 3.5 10.3 5.3l45.6 24.8C1489.1 849.7 1485.7 848 1482.2 846.2"/></g></g></g><g class="st2"><g><defs><path id="SVGID_19_" d="M1160.2 1451.6l-45.6-24.8c-18.7-10.2-37.8-22.9-57-38-8.9-7.1-17.9-14.6-26.9-22.7l45.6 24.8c9 8.1 18 15.7 26.9 22.7C1122.4 1428.7 1141.5 1441.4 1160.2 1451.6z"/></defs><clipPath id="SVGID_20_"><use xlink:href="#SVGID_19_" style="overflow:visible"/></clipPath><g class="st29"><path class="st15" d="M1160.2 1451.6l-45.6-24.8c-18.7-10.2-37.8-22.9-57-38-8.9-7.1-17.9-14.6-26.9-22.7l45.6 24.8c9 8.1 18 15.7 26.9 22.7C1122.4 1428.7 1141.5 1441.4 1160.2 1451.6"/></g></g></g><g class="st2"><g><defs><path id="SVGID_21_" d="M1364.3 810.2l-45.6-24.8c11 1.9 21.7 4 32 6.4l45.6 24.8C1386 814.3 1375.3 812.1 1364.3 810.2z"/></defs><clipPath id="SVGID_22_"><use xlink:href="#SVGID_21_" style="overflow:visible"/></clipPath><g class="st30"><path class="st17" d="M1364.3 810.2l-45.6-24.8c11 1.9 21.7 4 32 6.4l45.6 24.8C1386 814.3 1375.3 812.1 1364.3 810.2"/></g></g></g><g class="st2"><g><defs><path id="SVGID_23_" d="M1166 1186.9l-45.6-24.8c16.3-28.5 32.3-58.6 47.9-89.9s30-62.4 43-93l45.6 24.8c-13 30.6-27.4 61.7-43 93C1198.4 1128.3 1182.3 1158.4 1166 1186.9z"/></defs><clipPath id="SVGID_24_"><use xlink:href="#SVGID_23_" style="overflow:visible"/></clipPath><g class="st31"><path class="st23" d="M1166 1186.9l-45.6-24.8c7-12.3 14-24.9 20.9-37.8l45.6 24.8C1180 1162 1173.1 1174.6 1166 1186.9"/><path class="st24" d="M1187 1149.2l-45.6-24.8c9.1-16.9 18.1-34.4 27-52.2 15.6-31.3 30-62.4 43-93l45.6 24.8c-13 30.6-27.4 61.7-43 93C1205.1 1114.8 1196.1 1132.2 1187 1149.2"/></g></g></g><g class="st2"><g><defs><path id="SVGID_25_" d="M1076.2 1325.1l-45.6-24.8c19.5-25.9 39.2-54.7 58.6-85.9l45.6 24.8C1115.4 1270.4 1095.8 1299.2 1076.2 1325.1z"/></defs><clipPath id="SVGID_26_"><use xlink:href="#SVGID_25_" style="overflow:visible"/></clipPath><g class="st32"><path class="st22" d="M1076.2 1325.1l-45.6-24.8c7-9.3 14-19 21.1-29l45.6 24.8C1090.3 1306.1 1083.3 1315.8 1076.2 1325.1"
								/><path class="st23" d="M1097.3 1296.1l-45.6-24.8c12.6-17.9 25.1-36.9 37.6-56.9l45.6 24.8C1122.4 1259.2 1109.9 1278.2 1097.3 1296.1"/></g></g></g><g class="st2"><g><defs><path id="SVGID_27_" d="M1027.6 1383.8 982 1359c6.3-6.8 12.6-14 19-21.5l45.6 24.8C1040.2 1369.8 1033.9 1377 1027.6 1383.8z"/></defs><clipPath id="SVGID_28_"><use xlink:href="#SVGID_27_" style="overflow:visible"/></clipPath><g class="st33"><path class="st21" d="M1027.6 1383.8 982 1359c3.1-3.3 6.2-6.8 9.3-10.3l45.6 24.8C1033.7 1377 1030.6 1380.5 1027.6 1383.8"
								/><path class="st22" d="M1036.8 1373.5l-45.6-24.8c3.2-3.7 6.5-7.4 9.7-11.2l45.6 24.8C1043.3 1366.1 1040.1 1369.9 1036.8 1373.5"/></g></g></g><g class="st2"><g><defs><path id="SVGID_29_" d="M1279.6 947.5l-45.6-24.8c12.7-33.6 23.4-66.1 32.1-97.1l45.6 24.8C1303 881.3 1292.2 913.9 1279.6 947.5z"/></defs><clipPath id="SVGID_30_"><use xlink:href="#SVGID_29_" style="overflow:visible"/></clipPath><g class="st34"><path class="st24" d="M1279.6 947.5l-45.6-24.8c1.3-3.4 2.5-6.7 3.8-10.1l45.6 24.8C1282.1 940.7 1280.8 944.1 1279.6 947.5"
								/><path class="st15" d="M1283.3 937.4l-45.6-24.8c11-30 20.5-59.2 28.3-87l45.6 24.8C1303.9 878.2 1294.4 907.4 1283.3 937.4"
								/></g></g></g><g class="st2"><g><defs><path id="SVGID_31_" d="M844.7 1486.8l-45.6-24.8c.4.2.9.5 1.3.7 6.8 3.3 15.7 4.2 26.3 2.8 12.4-1.7 27.1-6.8 43.6-15.4 34.1-17.8 72.9-49.1 111.6-91l45.6 24.8c-38.7 41.9-77.5 73.2-111.6 91-16.5 8.6-31.2 13.7-43.6 15.4-10.6 1.5-19.5.5-26.3-2.8C845.6 1487.3 845.2 1487 844.7 1486.8z"/></defs><clipPath id="SVGID_32_"><use xlink:href="#SVGID_31_" style="overflow:visible"/></clipPath><g class="st35"><path class="st20" d="M844.7 1486.8l-45.6-24.8c.4.2.7.4 1.1.6l45.6 24.8C845.5 1487.2 845.1 1487 844.7 1486.8"/><path class="st18" d="M845.9 1487.4l-45.6-24.8c.1.0.1.1.2.1 1.8.9 3.8 1.6 5.9 2.1l45.6 24.8c-2.1-.5-4-1.3-5.9-2.1C846 1487.4 845.9 1487.4 845.9 1487.4"/><path class="st17" d="M851.9 1489.6l-45.6-24.8c5.8 1.5 12.6 1.7 20.4.6 10.4-1.5 22.5-5.3 36-11.7l45.6 24.8c-13.5 6.4-25.6 10.2-36 11.7C864.6 1491.3 857.7 1491.1 851.9 1489.6"/><path class="st18" d="M908.4 1478.6l-45.6-24.8c2.5-1.2 5-2.4 7.6-3.8 9.6-5 19.6-11.1 29.8-18.2l45.6 24.8c-10.2 7.1-20.2 13.2-29.8 18.2C913.4 1476.1 910.8 1477.4 908.4 1478.6"/><path class="st20" d="M945.8 1456.6l-45.6-24.8c13.9-9.6 28.2-21 42.7-34.1l45.6 24.8C974 1435.6 959.6 1447 945.8 1456.6"/><path class="st21" d="M988.5 1422.5l-45.6-24.8c12.9-11.6 26-24.6 39.1-38.7l45.6 24.8C1014.5 1398 1001.4 1410.9 988.5 1422.5"/></g></g></g><g class="st2"><g><defs><path id="SVGID_33_" d="M1046.6 1362.3l-45.6-24.8c-29-29.6-57.8-64-85.3-102l45.6 24.8C988.8 1298.3 1017.5 1332.7 1046.6 1362.3z"/></defs><clipPath id="SVGID_34_"><use xlink:href="#SVGID_33_" style="overflow:visible"/></clipPath><g class="st36"><path class="st15" d="M1046.6 1362.3l-45.6-24.8c-29-29.6-57.8-64-85.3-102l45.6 24.8C988.8 1298.3 1017.5 1332.7 1046.6 1362.3"/></g></g></g><g class="st2"><g><defs><path id="SVGID_35_" d="M984.7 1212.8l-45.6-24.8c29-2 59.2-5.2 90.2-9.6 31.1-4.4 61.7-9.8 91.2-16.3l45.6 24.8c-29.6 6.4-60.1 11.9-91.2 16.3C1043.8 1207.5 1013.7 1210.7 984.7 1212.8z"/></defs><clipPath id="SVGID_36_"><use xlink:href="#SVGID_35_" style="overflow:visible"/></clipPath><g class="st37"><path class="st17" d="M984.7 1212.8l-45.6-24.8c29-2 59.2-5.2 90.2-9.6 31.1-4.4 61.7-9.8 91.2-16.3l45.6 24.8c-29.6 6.4-60.1 11.9-91.2 16.3C1043.8 1207.5 1013.7 1210.7 984.7 1212.8"/></g></g></g><g class="st2"><g><defs><path id="SVGID_37_" d="M1256.9 1004l-45.6-24.8c-12.9-26.5-27.2-53.3-42.8-80.2-15.4-26.6-31.4-52-47.8-76l45.6 24.8c16.4 23.9 32.4 49.3 47.8 76C1229.7 950.7 1244 977.5 1256.9 1004z"/></defs><clipPath id="SVGID_38_"><use xlink:href="#SVGID_37_" style="overflow:visible"/></clipPath><g class="st38"><path class="st15" d="M1256.9 1004l-45.6-24.8c-12.9-26.5-27.2-53.3-42.8-80.2-15.4-26.6-31.4-52-47.8-76l45.6 24.8c16.4 23.9 32.4 49.3 47.8 76C1229.7 950.7 1244 977.5 1256.9 1004"/></g></g></g><g class="st2"><g><defs><path id="SVGID_39_" d="M1190 800.5l-45.6-24.8c47-1.8 91.8-.5 133.1 4l45.6 24.8C1281.9 8e2 1237 798.7 1190 800.5z"/></defs><clipPath id="SVGID_40_"><use xlink:href="#SVGID_39_" style="overflow:visible"/></clipPath><g class="st39"><path class="st17" d="M1190 800.5l-45.6-24.8c47-1.8 91.8-.5 133.1 4l45.6 24.8C1281.9 8e2 1237 798.7 1190 800.5"/></g></g></g><g class="st2"><g><defs><path id="SVGID_41_" d="M1258.4 547.7l45.6 24.8c32.3 17.6 44.5 98.8 23.6 210-1.4 7.2-2.9 14.5-4.5 22l-45.6-24.8c1.6-7.5 3.2-14.8 4.5-22C1303 646.5 1290.8 565.3 1258.4 547.7z"/></defs><clipPath id="SVGID_42_"><use xlink:href="#SVGID_41_" style="overflow:visible"/></clipPath><g class="st40"><path class="st15" d="M1323.2 804.5l-45.6-24.8c1.6-7.5 3.2-14.8 4.5-22 20.9-111.2 8.7-192.4-23.6-210l45.6 24.8c32.3 17.6 44.5 98.8 23.6 210C1326.3 789.7 1324.8 797.1 1323.2 804.5"/></g></g></g><g><path class="st41" d="M1075 1125.1c-49.1 6.9-88.9-30.5-88.8-83.5.1-53 40-101.6 89.1-108.5s88.9 30.5 88.8 83.5S1124.1 1118.1 1075 1125.1z"/></g><g class="st2"><g><defs><path id="SVGID_43_" d="M1027.5 1116.9l-45.6-24.8c-24.9-13.5-41.3-41.2-41.2-75.3.1-53 40-101.6 89.1-108.5 17.5-2.5 33.8.7 47.5 8.2l45.6 24.8c-13.7-7.5-30-10.6-47.5-8.2-49.1 6.9-89 55.5-89.1 108.5C986.1 1075.7 1002.6 1103.4 1027.5 1116.9z"/></defs><clipPath id="SVGID_44_"><use xlink:href="#SVGID_43_" style="overflow:visible"/></clipPath><g class="st42"><path class="st15" d="M1027.5 1116.9l-45.6-24.8c-24.9-13.5-41.3-41.2-41.2-75.3.0-13.1 2.5-25.8 6.9-37.8l45.6 24.8c-4.4 12-6.8 24.7-6.9 37.8C986.1 1075.7 1002.6 1103.4 1027.5 1116.9"/><path class="st24" d="M993.1 1003.8 947.5 979c1.9-5.2 4.2-10.2 6.7-15l45.6 24.8C997.2 993.6 995 998.6 993.1 1003.8"/><path class="st23" d="M999.8 988.8 954.2 964c2.2-4.1 4.6-8 7.2-11.8L1007 977C1004.4 980.8 1002 984.7 999.8 988.8"/><path class="st22" d="M1007 977l-45.6-24.8c2.5-3.5 5.2-6.9 8-10.2l45.6 24.8C1012.2 970.1 1009.5 973.5 1007 977"/><path class="st21" d="M1015.1 966.9l-45.6-24.8c2.9-3.2 5.9-6.3 9.1-9.2l45.6 24.8C1020.9 960.6 1017.9 963.6 1015.1 966.9"
								/><path class="st20" d="M1024.1 957.7l-45.6-24.8c3.4-3.1 7-5.9 10.8-8.5l45.6 24.8C1031.1 951.8 1027.5 954.6 1024.1 957.7"/><path class="st18" d="M1034.9 949.2l-45.6-24.8c4.6-3.2 9.4-6 14.4-8.3l45.6 24.8C1044.3 943.2 1039.5 946 1034.9 949.2"/><path class="st17" d="M1049.3 940.9l-45.6-24.8c8.2-3.9 17-6.5 26-7.8 10.8-1.5 21.2-.9 30.7 1.6l45.6 24.8c-9.6-2.5-19.9-3.1-30.7-1.6C1066.3 934.3 1057.6 937 1049.3 940.9"/><path class="st18" d="M1106.1 934.6l-45.6-24.8c4.9 1.3 9.6 3 14.1 5.2l45.6 24.8C1115.7 937.6 1111 935.9 1106.1 934.6"/><path class="st20" d="M1120.1 939.8l-45.6-24.8c.9.4 1.8.9 2.7 1.4l45.6 24.8C1121.9 940.7 1121 940.3 1120.1 939.8"/></g></g></g><g class="st2"><g><defs><path id="SVGID_45_" d="M838.7 1212.3l-45.6-24.8c28.4 2.7 59.2 3.7 91.8 3l45.6 24.8C897.8 1215.9 867.1 1214.9 838.7 1212.3z"/></defs><clipPath id="SVGID_46_"><use xlink:href="#SVGID_45_" style="overflow:visible"/></clipPath><g class="st43"><path class="st17" d="M838.7 1212.3l-45.6-24.8c28.4 2.7 59.2 3.7 91.8 3l45.6 24.8C897.8 1215.9 867.1 1214.9 838.7 1212.3"
								/></g></g></g><g class="st2"><g><defs><path id="SVGID_47_" d="M1134.6 804.1l-45.6-24.8c-19.3-25.1-38.9-47.9-58.5-68.1l45.6 24.8C1095.7 756.2 1115.4 779 1134.6 804.1z"/></defs><clipPath id="SVGID_48_"><use xlink:href="#SVGID_47_" style="overflow:visible"/></clipPath><g class="st44"><path class="st15" d="M1134.6 804.1l-45.6-24.8c-19.3-25.1-38.9-47.9-58.5-68.1l45.6 24.8C1095.7 756.2 1115.4 779 1134.6 804.1"/></g></g></g><g class="st2"><g><defs><path id="SVGID_49_" d="M930.4 1215.3l-45.6-24.8c-10.7-16.5-21.1-33.4-31.2-50.8-9.9-17.1-19.3-34.3-28.1-51.7l45.6 24.8c8.9 17.3 18.3 34.6 28.1 51.7C909.3 1181.9 919.7 1198.8 930.4 1215.3z"/></defs><clipPath id="SVGID_50_"><use xlink:href="#SVGID_49_" style="overflow:visible"/></clipPath><g class="st45"><path class="st15" d="M930.4 1215.3l-45.6-24.8c-10.7-16.5-21.1-33.4-31.2-50.8-9.9-17.1-19.3-34.3-28.1-51.7l45.6 24.8c8.9 17.3 18.3 34.6 28.1 51.7C909.3 1181.9 919.7 1198.8 930.4 1215.3"/></g></g></g><g class="st2"><g><defs><path id="SVGID_51_" d="M821.9 1528.8l-45.6-24.8c-49.5-26.9-64.6-117.5-43.9-236.6 2.2-12.8 4.9-26 7.9-39.5l45.6 24.8c-3 13.5-5.7 26.7-7.9 39.5C757.3 1411.3 772.4 1501.9 821.9 1528.8z"/></defs><clipPath id="SVGID_52_"><use xlink:href="#SVGID_51_" style="overflow:visible"/></clipPath><g class="st46"><path class="st15" d="M821.9 1528.8l-45.6-24.8c-49.5-26.9-64.6-117.5-43.9-236.6 2.2-12.8 4.9-26 7.9-39.5l45.6 24.8c-3 13.5-5.7 26.7-7.9 39.5C757.3 1411.3 772.4 1501.9 821.9 1528.8"/></g></g></g><g class="st2"><g><defs><path id="SVGID_53_" d="M1016.9 820.6l-45.6-24.8c19.4-3.7 38.9-6.9 58.6-9.7 19.9-2.8 39.6-5.1 59.1-6.8l45.6 24.8c-19.5 1.7-39.2 4-59.1 6.8C1055.9 813.7 1036.3 816.9 1016.9 820.6z"/></defs><clipPath id="SVGID_54_"><use xlink:href="#SVGID_53_" style="overflow:visible"/></clipPath><g class="st47"><path class="st17" d="M1016.9 820.6l-45.6-24.8c19.4-3.7 38.9-6.9 58.6-9.7 19.9-2.8 39.6-5.1 59.1-6.8l45.6 24.8c-19.5 1.7-39.2 4-59.1 6.8C1055.9 813.7 1036.3 816.9 1016.9 820.6"/></g></g></g><g class="st2"><g><defs><path id="SVGID_55_" d="M1281.3 505.7l45.6 24.8c-.9-.5-1.9-1-2.8-1.4-13.2-6.4-28.5-8.2-45.5-5.8-49.7 7-113.3 50-177.4 119.1-8.3 8.9-16.6 18.3-24.8 28l-45.6-24.8c8.3-9.8 16.6-19.1 24.8-28 64.1-69.1 127.7-112.1 177.4-119.1 16.9-2.4 32.3-.6 45.5 5.8C1279.4 504.7 1280.3 505.2 1281.3 505.7z"/></defs><clipPath id="SVGID_56_"><use xlink:href="#SVGID_55_" style="overflow:visible"/></clipPath><g class="st48"><path class="st22" d="M1076.3 670.4l-45.6-24.8c3.9-4.6 7.7-9 11.6-13.4l45.6 24.8C1084 661.4 1080.1 665.8 1076.3 670.4"/><path class="st21" d="M1087.9 657l-45.6-24.8c4.4-5 8.8-9.9 13.2-14.6 14.4-15.5 28.7-29.6 42.8-42.4L1144 6e2c-14.2 12.7-28.5 26.9-42.8 42.4C1096.7 647.1 1092.3 652 1087.9 657"/><path class="st20" d="M1144 6e2l-45.6-24.8c16-14.4 31.8-27 47.1-37.6l45.6 24.8C1175.8 573 1160 585.6 1144 6e2"/><path class="st18" d="M1191.1 562.3l-45.6-24.8c14.5-10 28.5-18.2 42-24.6l45.6 24.8C1219.6 544.1 1205.6 552.3 1191.1 562.3"/><path class="st17" d="M1233.1 537.7l-45.6-24.8c16.1-7.6 31.3-12.5 45.5-14.5 12-1.7 23.2-1.3 33.4 1.4l45.6 24.8c-10.2-2.6-21.4-3.1-33.4-1.4C1264.4 525.3 1249.2 530.2 1233.1 537.7"/><path class="st18" d="M1312 524.6l-45.6-24.8c4.2 1.1 8.2 2.6 12.1 4.4.1.1.3.1.4.2l45.6 24.8c-.1-.1-.3-.1-.4-.2C1320.2 527.2 1316.2 525.7 1312 524.6"/><path class="st20" d="M1324.5 529.3l-45.6-24.8c.8.4 1.6.8 2.4 1.2l45.6 24.8C1326.1 530.1 1325.3 529.7 1324.5 529.3"
								/></g></g></g><g class="st2"><g><defs><path id="SVGID_57_" d="M797.4 1206.9l-45.6-24.8c12.7-46 29.3-94.8 49.4-144.6l45.6 24.8C826.7 1112 810 1160.8 797.4 1206.9z"/></defs><clipPath id="SVGID_58_"><use xlink:href="#SVGID_57_" style="overflow:visible"/></clipPath><g class="st49"><path class="st15" d="M797.4 1206.9l-45.6-24.8c9-32.6 20-66.7 32.8-101.4l45.6 24.8C817.3 1140.2 806.3 1174.2 797.4 1206.9"/><path class="st24" d="M830.1 1105.4l-45.6-24.8c5.3-14.3 10.8-28.7 16.6-43.2l45.6 24.8C840.9 1076.8 835.4 1091.2 830.1 1105.4"/></g></g></g><g class="st2"><g><defs><path id="SVGID_59_" d="M961.3 832.6l-45.6-24.8c27.4-45.4 56.1-87.6 85.1-125.3l45.6 24.8C1017.4 745 988.7 787.2 961.3 832.6z"/></defs><clipPath id="SVGID_60_"><use xlink:href="#SVGID_59_" style="overflow:visible"/></clipPath><g class="st50"><path class="st23" d="M961.3 832.6l-45.6-24.8c17.3-28.7 35.1-56.1 53.2-81.9l45.6 24.8C996.5 776.5 978.7 803.9 961.3 832.6"/><path class="st22" d="M1014.6 750.7 969 725.9c10.5-15 21.2-29.5 31.8-43.3l45.6 24.8C1035.7 721.2 1025.1 735.7 1014.6 750.7"/></g></g></g><g class="st2"><g><defs><path id="SVGID_61_" d="M871.3 1004.8 825.7 980c8.9-19.9 18.3-39.7 28.2-59.5 9.9-19.9 20.1-39.4 30.6-58.4l45.6 24.8c-10.5 19.1-20.7 38.6-30.6 58.4C889.6 965.1 880.2 985 871.3 1004.8z"/></defs><clipPath id="SVGID_62_"><use xlink:href="#SVGID_61_" style="overflow:visible"/></clipPath><g class="st51"><path class="st24" d="M871.3 1004.8 825.7 980c8.9-19.9 18.3-39.7 28.2-59.5 7.6-15.3 15.4-30.3 23.4-45.1l45.6 24.8c-8 14.8-15.8 29.9-23.4 45.1C889.6 965.1 880.2 985 871.3 1004.8"/><path class="st23" d="M922.9 900.1l-45.6-24.8c2.4-4.5 4.8-8.9 7.2-13.3l45.6 24.8C927.7 891.2 925.3 895.7 922.9 900.1"/></g></g></g><g class="st2"><g><defs><path id="SVGID_63_" d="M924.6 628l45.6 24.8c19.7 10.7 40.3 24.6 61.3 41.8 5 4.1 9.9 8.3 14.9 12.8l-45.6-24.8c-5-4.5-10-8.7-14.9-12.8C964.9 652.6 944.3 638.7 924.6 628z"/></defs><clipPath id="SVGID_64_"><use xlink:href="#SVGID_63_" style="overflow:visible"/></clipPath><g class="st52"><path class="st15" d="M1046.4 707.4l-45.6-24.8c-5-4.5-10-8.7-14.9-12.8-21-17.2-41.6-31.1-61.3-41.8l45.6 24.8c19.7 10.7 40.3 24.6 61.3 41.8C1036.4 698.6 1041.4 702.9 1046.4 707.4"/></g></g></g><g class="st2"><g><defs><path id="SVGID_65_" d="M685.3 1170.3l-45.6-24.8c24.1 13.1 53.8 24 87.5 31.7 7.9 1.8 16.1 3.4 24.6 4.9l45.6 24.8c-8.5-1.4-16.7-3-24.6-4.9C739.1 1194.3 709.5 1183.5 685.3 1170.3z"/></defs><clipPath id="SVGID_66_"><use xlink:href="#SVGID_65_" style="overflow:visible"/></clipPath><g class="st53"><path class="st20" d="M685.3 1170.3l-45.6-24.8c3 1.7 6.2 3.3 9.4 4.8l45.6 24.8C691.5 1173.6 688.4 1172 685.3 1170.3"/><path class="st18" d="M694.7 1175.2l-45.6-24.8c19.1 9.4 41.2 17.5 65.6 23.8l45.6 24.8C735.9 1192.6 713.8 1184.6 694.7 1175.2"/><path class="st17" d="M760.3 1199l-45.6-24.8c4.1 1.1 8.2 2.1 12.5 3 7.9 1.8 16.1 3.4 24.6 4.9l45.6 24.8c-8.5-1.4-16.7-3-24.6-4.9C768.6 1201.1 764.4 12e2 760.3 1199"/></g></g></g><g class="st2"><g><defs><path id="SVGID_67_" d="M846.8 1062.3l-45.6-24.8c-19.6-43.5-35.9-86.9-48.3-129l45.6 24.8C810.9 975.3 827.1 1018.8 846.8 1062.3z"/></defs><clipPath id="SVGID_68_"><use xlink:href="#SVGID_67_" style="overflow:visible"/></clipPath><g class="st54"><path class="st15" d="M846.8 1062.3l-45.6-24.8c-19.6-43.5-35.9-86.9-48.3-129l45.6 24.8C810.9 975.3 827.1 1018.8 846.8 1062.3"/></g></g></g><g class="st2"><g><defs><path id="SVGID_69_" d="M828.4 873.6l-45.6-24.8c41.2-15.9 86.1-29.7 133-41l45.6 24.8C914.5 843.9 869.6 857.7 828.4 873.6z"/></defs><clipPath id="SVGID_70_"><use xlink:href="#SVGID_69_" style="overflow:visible"/></clipPath><g class="st55"><path class="st17" d="M828.4 873.6l-45.6-24.8c41.2-15.9 86.1-29.7 133-41l45.6 24.8C914.5 843.9 869.6 857.7 828.4 873.6"/></g></g></g><g class="st2"><g><defs><path id="SVGID_71_" d="M662.4 1212.3l-45.6-24.8c-53.5-29.1-85.4-69-85.3-113.3.1-64.5 67.6-136.2 173.1-190.7 11.8-6.1 24.1-12 36.9-17.7l45.6 24.8c-12.8 5.7-25.1 11.6-36.9 17.7-105.5 54.5-173 126.2-173.1 190.7C577.1 1143.3 608.9 1183.2 662.4 1212.3z"/></defs><clipPath id="SVGID_72_"><use xlink:href="#SVGID_71_" style="overflow:visible"/></clipPath><g class="st56"><path class="st15" d="M662.4 1212.3l-45.6-24.8c-53.5-29.1-85.4-69-85.3-113.3.0-12.1 2.4-24.4 7-36.8l45.6 24.8c-4.6 12.4-6.9 24.7-7 36.8C577.1 1143.3 608.9 1183.2 662.4 1212.3"/><path class="st24" d="M584.1 1062.2l-45.6-24.8c2.3-6.3 5.2-12.7 8.6-19l45.6 24.8C589.3 1049.6 586.4 1055.9 584.1 1062.2"
								/><path class="st23" d="M592.7 1043.2l-45.6-24.8c3.4-6.2 7.2-12.5 11.6-18.7l45.6 24.8C6e2 1030.7 596.1 1037 592.7 1043.2"/><path class="st22" d="M604.3 1024.5l-45.6-24.8c4.9-7 10.4-13.9 16.5-20.8l45.6 24.8C614.7 1010.6 609.2 1017.5 604.3 1024.5"/><path class="st21" d="M620.8 1003.7l-45.6-24.8c7.5-8.5 15.8-16.8 25-25.1l45.6 24.8C636.6 986.9 628.3 995.2 620.8 1003.7"
								/><path class="st20" d="M645.8 978.6l-45.6-24.8c12.5-11.3 26.6-22.3 42.1-33l45.6 24.8C672.4 956.3 658.4 967.3 645.8 978.6"
								/><path class="st18" d="M687.9 945.6l-45.6-24.8c18.8-13 39.7-25.5 62.4-37.2 7.2-3.7 14.6-7.4 22.2-10.9l45.6 24.8c-7.6 3.6-15 7.2-22.2 10.9C727.6 920.1 706.7 932.6 687.9 945.6"/><path class="st17" d="M772.4 897.4l-45.6-24.8c4.8-2.3 9.7-4.5 14.7-6.7l45.6 24.8C782.2 892.9 777.3 895.2 772.4 897.4"/></g></g></g><g><path class="st41" d="M1396.4 816.6c107.5 24.9 176.9 77.7 176.8 142.4-.1 67.5-74.5 144-188.8 200.9-6 3-12.2 5.9-18.5 8.8 2.2 9.4 4.2 18.7 5.9 27.9 22.3 119.7 4.8 223.2-48.7 264.1-13.5 10.4-29.2 16.6-46.6 19.1-49 6.9-110.8-16.9-173.3-66.2-8.9-7.1-17.9-14.6-26.9-22.7-7 8.2-13.9 16.1-20.8 23.6C990.4 1485 924 1529 872.2 1536.2c-17.8 2.5-33.8.7-47.5-5.9-51.7-25-67.8-116.7-46.7-238 2.2-12.8 4.9-26 7.9-39.5-9.3-1.6-18.3-3.3-26.9-5.3-109.8-25.1-181.9-81.7-181.8-148.4.1-64.5 67.6-136.2 173.1-190.7 11.8-6.1 24.1-12 36.9-17.7-2.8-11.7-5.2-23.2-7.3-34.6-21.6-117.4-6.1-215.9 45.9-255.6 13.6-10.4 29.4-16.7 46.8-19.1 52.4-7.4 119.9 19.7 187.2 74.9 5.5 4.5 11 9.2 16.5 14.1 8.3-9.8 16.6-19.1 24.8-28 64.1-69.1 127.7-112.1 177.4-119.1 16.9-2.4 32.3-.6 45.5 5.8 54.1 26.1 69.8 126.3 45.3 256.9-1.5 7.9-3.2 16.1-5 24.3C1375.3 812.1 1386 814.3 1396.4 816.6zM893.8 1055.7c12.8 27 27 54 42.3 80.6 15.4 26.7 31.7 52.3 48.5 76.5 29-2 59.2-5.2 90.2-9.6 31.1-4.4 61.7-9.8 91.2-16.3 16.3-28.5 32.3-58.6 47.9-89.9s30-62.4 43-93c-12.9-26.5-27.2-53.3-42.8-80.2-15.4-26.6-31.4-52-47.8-76-29.6 1.7-60 4.7-90.9 9.1-30.7 4.3-61.1 9.8-90.7 16.4-16.8 28.8-33 58.8-48.4 89.8C920.9 993.9 906.7 1024.9 893.8 1055.7M797.4 1206.9c12.7-46 29.3-94.8 49.4-144.6-19.6-43.5-35.9-86.9-48.3-129-11.9 5.3-23.4 10.8-34.3 16.5-90.2 46.6-144.4 104.1-144.5 143.3.0 18.4 12.4 39.3 37.1 58.7 27.4 21.5 67.5 39.2 116 50.3C780.7 1203.8 788.9 1205.4 797.4 1206.9M1371.1 1118.2c98.7-49.1 159.5-111.6 159.6-153.2.1-39-56.1-81.7-148.2-103-9.5-2.2-19.4-4.2-29.6-5.9-12.3 44.5-28.8 92-48.7 141 20.7 44.4 37.7 87.8 50.2 129.1C1360 1123.6 1365.6 1120.9 1371.1 1118.2M1129 673.1c-7.6 8.2-15.3 16.9-23 25.9 28.4 29.1 56.7 63.4 84 101.6 47-1.8 91.8-.5 133.1 4 1.6-7.5 3.2-14.8 4.5-22 21.2-112.7 8.3-194.6-25-210.7-6.6-3.2-14.9-4.1-24.5-2.7C1242.2 574.2 1187.1 610.4 1129 673.1M847 637.2c-31.3 23.9-43.9 103.6-25.4 204.2 1.9 10.5 4.2 21.3 6.8 32.2 41.2-15.9 86.1-29.7 133-41 27.4-45.4 56.1-87.6 85.1-125.3-5-4.5-10-8.7-14.9-12.8-61.3-50.3-120.3-72.9-158.7-67.5C862.7 628.6 853.9 631.9 847 637.2M1027.6 1383.8c6.3-6.8 12.6-14 19-21.5-29-29.6-57.8-64-85.3-102-48.3 2.6-93.4 1.9-134.2-2.1-2.8 12.6-5.3 24.8-7.3 36.7-18 103.8-5.1 177.4 26.3 192.6 6.8 3.3 15.7 4.2 26.3 2.8 12.4-1.7 27.1-6.8 43.6-15.4C950.1 1457 988.8 1425.7 1027.6 1383.8M1334.5 1352.7c6.7-39.3 5.3-88.3-4.5-141.2-1.5-8.3-3.3-16.7-5.3-25.2-41.3 16.1-86.8 30-134.9 41.4-27.5 46.6-55.6 89.1-83.7 126.2 8.4 7.5 16.7 14.6 25 21.1 56.4 44.6 109.7 64.1 145.3 59.1 10-1.4 18.6-4.7 25.5-10C1316.5 1412.7 1328.5 1388 1334.5 1352.7M1250.8 1114.8c-10.1 20.2-20.3 39.9-30.7 59 32.9-8.9 64-19 92.9-30.2-8.9-28.9-20-59-33.3-89.9C1270.6 1074 1261 1094.3 1250.8 1114.8M871.1 1112.8c-12.7 34.2-23.6 67.6-32.5 99.5 28.4 2.7 59.2 3.7 91.8 3-10.7-16.5-21.1-33.4-31.2-50.8C889.4 1147.4 880 1130.2 871.1 1112.8M1279.6 947.5c12.7-33.6 23.4-66.1 32.1-97.1-28.6-3-59-4.5-90.8-4.4 10.3 16 20.4 32.5 30.2 49.5C1261.1 912.9 1270.6 930.2 1279.6 947.5M871.3 1004.8c8.9-19.9 18.3-39.7 28.2-59.5 9.9-19.9 20.1-39.4 30.6-58.4-31.6 8.7-61.9 18.6-90.3 29.4C848.4 945.1 859 974.8 871.3 1004.8M1076.2 1325.1c19.5-25.9 39.2-54.7 58.6-85.9-19.8 3.7-39.8 7-60.1 9.9-19.8 2.8-39.2 5.1-58.3 7C1036.1 1281.3 1056.1 1304.4 1076.2 1325.1M1076.2 736c-20 26-39.8 54.4-59.2 84.6 19.4-3.7 38.9-6.9 58.6-9.7 19.9-2.8 39.6-5.1 59.1-6.8C1115.4 779 1095.7 756.2 1076.2 736"/></g><g class="st2"><g><defs><path id="SVGID_73_" d="M947.5 586l45.6 24.8c-43.9-23.9-85.5-34.3-120.5-29.4-17.5 2.5-33.3 8.7-46.8 19.1-52 39.7-67.5 138.2-45.9 255.6 2.1 11.3 4.5 22.9 7.3 34.6l-45.6-24.8c-2.8-11.7-5.2-23.2-7.3-34.6-21.6-117.4-6.1-215.9 45.9-255.6 13.6-10.4 29.4-16.7 46.8-19.1C862 551.7 903.6 562.1 947.5 586z"/></defs><clipPath id="SVGID_74_"><use xlink:href="#SVGID_73_" style="overflow:visible"/></clipPath><g class="st57"><path class="st15" d="M787.1 890.7l-45.6-24.8c-2.8-11.7-5.2-23.2-7.3-34.6-14.3-77.9-12.3-147.5 5.8-197.1l45.6 24.8c-18.2 49.6-20.2 119.2-5.8 197.1C781.9 867.5 784.4 879 787.1 890.7"/><path class="st24" d="M785.7 659.1l-45.6-24.8c2.8-7.7 6-14.9 9.6-21.5l45.6 24.8C791.7 644.2 788.5 651.4 785.7 659.1"/><path class="st23" d="M795.2 637.5l-45.6-24.8c2.6-4.8 5.4-9.3 8.3-13.6l45.6 24.8C800.6 628.2 797.8 632.7 795.2 637.5"/><path class="st22" d="M803.6 623.9 758 599.1c2.5-3.6 5.2-7 8-10.2l45.6 24.8C808.8 616.9 806.1 620.3 803.6 623.9"/><path class="st21" d="M811.6 613.8 766 589c2.6-3 5.4-5.8 8.3-8.4l45.6 24.8C817 608 814.2 610.8 811.6 613.8"/><path class="st20" d="M819.9 605.4l-45.6-24.8c1.9-1.7 3.9-3.3 5.9-4.9 1.2-.9 2.4-1.8 3.6-2.6l45.6 24.8c-1.2.9-2.4 1.7-3.6 2.6C823.7 602 821.8 603.7 819.9 605.4"/><path class="st18" d="M829.4 597.8 783.8 573c4.3-3 8.8-5.5 13.4-7.7l45.6 24.8C838.1 592.3 833.6 594.9 829.4 597.8"/><path class="st17" d="M842.8 590.1l-45.6-24.8c9.2-4.3 19.2-7.2 29.8-8.7 18.2-2.6 38.3-.9 59.6 4.6l45.6 24.8c-21.3-5.5-41.3-7.1-59.6-4.6C862 582.9 852 585.8 842.8 590.1"/><path class="st18" d="M932.1 585.9l-45.6-24.8c15.7 4.1 32.1 10.3 48.9 18.6l45.6 24.8C964.3 596.3 947.9 590 932.1 585.9"/><path class="st20" d="M981 604.5l-45.6-24.8c4 2 8 4 12 6.2l45.6 24.8C989 608.6 985 606.5 981 604.5"/></g></g></g></g></g></g></g></svg>