<?xml version="1.0" encoding="utf-8"?>
<!-- Generator: Adobe Illustrator 22.0.0, SVG Export Plug-In . SVG Version: 6.00 Build 0)  -->
<svg version="1.1" id="Calque_1" xmlns="http://www.w3.org/2000/svg" xmlns:xlink="http://www.w3.org/1999/xlink" x="0px" y="0px"
	 viewBox="0 0 2000 2000" style="enable-background:new 0 0 2000 2000;" xml:space="preserve">
<style type="text/css">
	.st0{fill:#20232A;}
	.st1{fill:#00D8FF;}
</style>
<g id="Icon">
	<path class="st0" d="M1748.3,652.5c0-28.4-6.1-53.5-18.3-75c-12-21.2-30-38.9-54.2-52.9c-199.3-115.3-398.8-230.2-598.1-345.5
		c-53.7-31.1-105.8-30-159.1,1.6C839.2,227.6,442,455.8,323.7,524.6c-48.7,28.3-72.5,71.6-72.5,127.9c-0.1,231.8,0,463.6-0.1,695.4
		c0,27.8,5.8,52.3,17.5,73.5c12,21.8,30.3,40,55,54.4c118.4,68.8,515.6,297,594.9,343.9c53.3,31.6,105.4,32.7,159.2,1.6
		c199.3-115.4,398.8-230.3,598.1-345.5c24.7-14.3,43-32.6,55-54.4c11.7-21.2,17.5-45.8,17.5-73.5
		C1748.3,1347.8,1748.3,884.3,1748.3,652.5L1748.3,652.5z"/>
	<path id="React_icon" class="st1" d="M1360.6,824.9c-11.6-4-23.6-7.8-36-11.4c2-8.3,3.9-16.5,5.6-24.6
		c27.3-132.4,9.4-239-51.4-274.1c-58.4-33.7-153.9,1.4-250.3,85.4c-9.3,8.1-18.6,16.6-27.9,25.6c-6.2-5.9-12.4-11.6-18.5-17.1
		C881,519,779.8,481.2,718.9,516.4c-58.3,33.8-75.6,134-51,259.5c2.4,12.1,5.1,24.5,8.3,37.1c-14.3,4.1-28.2,8.4-41.4,13
		c-118.5,41.3-194.1,106-194.1,173.2c0,69.4,81.2,138.9,204.6,181.1c9.7,3.3,19.8,6.5,30.3,9.5c-3.4,13.6-6.3,26.9-8.8,39.9
		c-23.4,123.3-5.1,221.1,53,254.7c60.1,34.6,160.9-1,259.1-86.8c7.8-6.8,15.5-14,23.4-21.5c10.1,9.7,20.2,19,30.3,27.6
		c95.1,81.8,189,114.9,247.1,81.2c60-34.7,79.5-139.9,54.2-267.8c-1.9-9.8-4.2-19.8-6.7-29.9c7.1-2.1,14-4.3,20.8-6.5
		c128.3-42.5,211.8-111.2,211.8-181.5C1559.5,931.7,1481.4,866.5,1360.6,824.9L1360.6,824.9z M1332.7,1135.2c-6.1,2-12.4,4-18.8,5.9
		c-14.2-44.8-33.3-92.5-56.7-141.8c22.3-48.1,40.7-95.2,54.5-139.7c11.4,3.3,22.6,6.8,33.3,10.5c103.6,35.6,166.7,88.4,166.7,129
		C1511.7,1042.3,1443.5,1098.5,1332.7,1135.2L1332.7,1135.2z M1286.8,1226.2c11.2,56.6,12.8,107.7,5.4,147.7
		c-6.7,35.9-20.1,59.9-36.6,69.5c-35.3,20.4-110.7-6.1-192-76.1c-9.3-8-18.7-16.6-28.1-25.7c31.5-34.5,63-74.6,93.8-119.1
		c54.1-4.8,105.2-12.6,151.6-23.4C1283,1208.4,1285,1217.4,1286.8,1226.2L1286.8,1226.2z M822,1439.9c-34.5,12.2-61.9,12.5-78.5,3
		c-35.3-20.4-50-98.9-30-204.4c2.3-12.1,5-24.5,8.2-37.2c45.8,10.1,96.6,17.4,150.8,21.8c31,43.6,63.4,83.6,96.1,118.7
		c-7.1,6.9-14.3,13.5-21.3,19.6C903.8,1399.4,860.3,1426.3,822,1439.9L822,1439.9z M660.6,1134.9c-54.6-18.7-99.6-42.9-130.5-69.3
		c-27.8-23.8-41.8-47.4-41.8-66.5c0-40.7,60.8-92.7,162.1-128c12.3-4.3,25.2-8.3,38.5-12.1c14,45.6,32.4,93.2,54.5,141.3
		c-22.5,48.9-41.1,97.3-55.2,143.3C678.7,1140.8,669.4,1137.9,660.6,1134.9L660.6,1134.9z M714.7,766.6
		c-21-107.5-7.1-188.6,28.1-208.9c37.4-21.7,120.2,9.2,207.5,86.7c5.6,5,11.2,10.1,16.8,15.5c-32.5,34.9-64.6,74.7-95.3,118
		c-52.6,4.9-103,12.7-149.3,23.2C719.5,789.3,716.9,777.8,714.7,766.6L714.7,766.6z M1197.4,885.8c-11.1-19.1-22.4-37.8-34-56
		c35.7,4.5,69.9,10.5,102,17.8c-9.6,30.9-21.7,63.2-35.8,96.4C1219.4,924.7,1208.7,905.3,1197.4,885.8L1197.4,885.8z M1000.5,694
		c22.1,23.9,44.1,50.6,65.9,79.5c-21.9-1-44-1.6-66.4-1.6c-22.1,0-44.1,0.5-65.9,1.5C955.9,744.8,978.1,718.2,1000.5,694L1000.5,694
		z M802.4,886.1c-11.1,19.2-21.6,38.5-31.6,57.9c-13.9-33-25.8-65.5-35.6-96.8c31.9-7.1,66-13,101.5-17.4
		C825,848.1,813.5,866.9,802.4,886.1L802.4,886.1L802.4,886.1z M837.8,1171.8c-36.7-4.1-71.2-9.6-103.1-16.6
		c9.9-31.9,22.1-65.1,36.3-98.8c10,19.3,20.6,38.7,31.7,57.9l0,0C814,1133.9,825.7,1153.1,837.8,1171.8L837.8,1171.8z
		 M1001.9,1307.4c-22.7-24.4-45.3-51.5-67.3-80.6c21.4,0.8,43.3,1.3,65.5,1.3c22.8,0,45.4-0.5,67.6-1.5
		C1045.8,1256.2,1023.8,1283.3,1001.9,1307.4L1001.9,1307.4z M1230,1054.7c15,34.1,27.6,67.1,37.6,98.4
		c-32.4,7.4-67.5,13.4-104.4,17.8c11.6-18.4,23.1-37.4,34.4-56.9C1209,1094.2,1219.8,1074.4,1230,1054.7L1230,1054.7z
		 M1156.2,1090.1c-17.5,30.3-35.5,59.3-53.7,86.6c-33.2,2.4-67.5,3.6-102.5,3.6c-34.8,0-68.7-1.1-101.3-3.2
		c-19-27.7-37.3-56.7-54.7-86.8l0,0c-17.3-29.9-33.3-60.1-47.7-90.2c14.5-30.1,30.4-60.3,47.6-90.2l0,0c17.3-30,35.5-58.9,54.3-86.4
		c33.3-2.5,67.4-3.8,101.9-3.8l0,0c34.6,0,68.8,1.3,102.1,3.9c18.5,27.3,36.6,56.1,53.9,86.1c17.5,30.3,33.7,60.3,48.2,89.8
		C1189.7,1029.5,1173.6,1059.8,1156.2,1090.1L1156.2,1090.1z M1254.8,556.3c37.5,21.6,52,108.8,28.5,223c-1.5,7.3-3.2,14.7-5,22.2
		c-46.4-10.7-96.8-18.7-149.6-23.6c-30.7-43.8-62.6-83.6-94.6-118.1c8.6-8.3,17.2-16.2,25.7-23.6
		C1142.4,564.4,1219.6,536,1254.8,556.3L1254.8,556.3z M1000,899.1c55.2,0,99.9,44.7,99.9,99.9c0,55.2-44.7,99.9-99.9,99.9
		c-55.2,0-99.9-44.7-99.9-99.9C900.1,943.9,944.8,899.1,1000,899.1L1000,899.1z"/>
</g>
</svg>
