<svg id="Calque_1" xmlns="http://www.w3.org/2000/svg" xmlns:xlink="http://www.w3.org/1999/xlink" viewBox="0 0 2e3 2e3" style="enable-background:new 0 0 2e3 2e3"><style>.st0{fill:#20232a}.st1{fill:#00d8ff}</style><g id="Icon"><path class="st0" d="M1748.3 652.5c0-28.4-6.1-53.5-18.3-75-12-21.2-30-38.9-54.2-52.9-199.3-115.3-398.8-230.2-598.1-345.5-53.7-31.1-105.8-30-159.1 1.6C839.2 227.6 442 455.8 323.7 524.6c-48.7 28.3-72.5 71.6-72.5 127.9-.1 231.8.0 463.6-.1 695.4.0 27.8 5.8 52.3 17.5 73.5 12 21.8 30.3 40 55 54.4 118.4 68.8 515.6 297 594.9 343.9 53.3 31.6 105.4 32.7 159.2 1.6 199.3-115.4 398.8-230.3 598.1-345.5 24.7-14.3 43-32.6 55-54.4 11.7-21.2 17.5-45.8 17.5-73.5C1748.3 1347.8 1748.3 884.3 1748.3 652.5v0z"/><path id="React_icon" class="st1" d="M1360.6 824.9c-11.6-4-23.6-7.8-36-11.4 2-8.3 3.9-16.5 5.6-24.6 27.3-132.4 9.4-239-51.4-274.1-58.4-33.7-153.9 1.4-250.3 85.4-9.3 8.1-18.6 16.6-27.9 25.6-6.2-5.9-12.4-11.6-18.5-17.1C881 519 779.8 481.2 718.9 516.4c-58.3 33.8-75.6 134-51 259.5 2.4 12.1 5.1 24.5 8.3 37.1-14.3 4.1-28.2 8.4-41.4 13-118.5 41.3-194.1 106-194.1 173.2.0 69.4 81.2 138.9 204.6 181.1 9.7 3.3 19.8 6.5 30.3 9.5-3.4 13.6-6.3 26.9-8.8 39.9-23.4 123.3-5.1 221.1 53 254.7 60.1 34.6 160.9-1 259.1-86.8 7.8-6.8 15.5-14 23.4-21.5 10.1 9.7 20.2 19 30.3 27.6 95.1 81.8 189 114.9 247.1 81.2 60-34.7 79.5-139.9 54.2-267.8-1.9-9.8-4.2-19.8-6.7-29.9 7.1-2.1 14-4.3 20.8-6.5 128.3-42.5 211.8-111.2 211.8-181.5C1559.5 931.7 1481.4 866.5 1360.6 824.9v0zM1332.7 1135.2c-6.1 2-12.4 4-18.8 5.9-14.2-44.8-33.3-92.5-56.7-141.8 22.3-48.1 40.7-95.2 54.5-139.7 11.4 3.3 22.6 6.8 33.3 10.5 103.6 35.6 166.7 88.4 166.7 129C1511.7 1042.3 1443.5 1098.5 1332.7 1135.2v0zM1286.8 1226.2c11.2 56.6 12.8 107.7 5.4 147.7-6.7 35.9-20.1 59.9-36.6 69.5-35.3 20.4-110.7-6.1-192-76.1-9.3-8-18.7-16.6-28.1-25.7 31.5-34.5 63-74.6 93.8-119.1 54.1-4.8 105.2-12.6 151.6-23.4C1283 1208.4 1285 1217.4 1286.8 1226.2v0zM822 1439.9c-34.5 12.2-61.9 12.5-78.5 3-35.3-20.4-50-98.9-30-204.4 2.3-12.1 5-24.5 8.2-37.2 45.8 10.1 96.6 17.4 150.8 21.8 31 43.6 63.4 83.6 96.1 118.7-7.1 6.9-14.3 13.5-21.3 19.6C903.8 1399.4 860.3 1426.3 822 1439.9v0zM660.6 1134.9c-54.6-18.7-99.6-42.9-130.5-69.3-27.8-23.8-41.8-47.4-41.8-66.5.0-40.7 60.8-92.7 162.1-128 12.3-4.3 25.2-8.3 38.5-12.1 14 45.6 32.4 93.2 54.5 141.3-22.5 48.9-41.1 97.3-55.2 143.3C678.7 1140.8 669.4 1137.9 660.6 1134.9v0zM714.7 766.6c-21-107.5-7.1-188.6 28.1-208.9 37.4-21.7 120.2 9.2 207.5 86.7 5.6 5 11.2 10.1 16.8 15.5-32.5 34.9-64.6 74.7-95.3 118-52.6 4.9-103 12.7-149.3 23.2C719.5 789.3 716.9 777.8 714.7 766.6v0zM1197.4 885.8c-11.1-19.1-22.4-37.8-34-56 35.7 4.5 69.9 10.5 102 17.8-9.6 30.9-21.7 63.2-35.8 96.4C1219.4 924.7 1208.7 905.3 1197.4 885.8v0zM1000.5 694c22.1 23.9 44.1 50.6 65.9 79.5-21.9-1-44-1.6-66.4-1.6-22.1.0-44.1.5-65.9 1.5C955.9 744.8 978.1 718.2 1000.5 694v0zM802.4 886.1c-11.1 19.2-21.6 38.5-31.6 57.9-13.9-33-25.8-65.5-35.6-96.8 31.9-7.1 66-13 101.5-17.4C825 848.1 813.5 866.9 802.4 886.1v0 0zM837.8 1171.8c-36.7-4.1-71.2-9.6-103.1-16.6 9.9-31.9 22.1-65.1 36.3-98.8 10 19.3 20.6 38.7 31.7 57.9v0C814 1133.9 825.7 1153.1 837.8 1171.8v0zM1001.9 1307.4c-22.7-24.4-45.3-51.5-67.3-80.6 21.4.8 43.3 1.3 65.5 1.3 22.8.0 45.4-.5 67.6-1.5C1045.8 1256.2 1023.8 1283.3 1001.9 1307.4v0zM1230 1054.7c15 34.1 27.6 67.1 37.6 98.4-32.4 7.4-67.5 13.4-104.4 17.8 11.6-18.4 23.1-37.4 34.4-56.9C1209 1094.2 1219.8 1074.4 1230 1054.7v0zM1156.2 1090.1c-17.5 30.3-35.5 59.3-53.7 86.6-33.2 2.4-67.5 3.6-102.5 3.6-34.8.0-68.7-1.1-101.3-3.2-19-27.7-37.3-56.7-54.7-86.8v0c-17.3-29.9-33.3-60.1-47.7-90.2 14.5-30.1 30.4-60.3 47.6-90.2v0c17.3-30 35.5-58.9 54.3-86.4 33.3-2.5 67.4-3.8 101.9-3.8v0c34.6.0 68.8 1.3 102.1 3.9 18.5 27.3 36.6 56.1 53.9 86.1 17.5 30.3 33.7 60.3 48.2 89.8C1189.7 1029.5 1173.6 1059.8 1156.2 1090.1v0zM1254.8 556.3c37.5 21.6 52 108.8 28.5 223-1.5 7.3-3.2 14.7-5 22.2-46.4-10.7-96.8-18.7-149.6-23.6-30.7-43.8-62.6-83.6-94.6-118.1 8.6-8.3 17.2-16.2 25.7-23.6C1142.4 564.4 1219.6 536 1254.8 556.3v0zM1e3 899.1c55.2.0 99.9 44.7 99.9 99.9.0 55.2-44.7 99.9-99.9 99.9-55.2.0-99.9-44.7-99.9-99.9C900.1 943.9 944.8 899.1 1e3 899.1v0z"/></g></svg>