<?xml version="1.0" encoding="utf-8"?>
<!-- Generator: Adobe Illustrator 22.0.0, SVG Export Plug-In . SVG Version: 6.00 Build 0)  -->
<svg version="1.1" id="_x3C_Layer_x3E_" xmlns="http://www.w3.org/2000/svg" xmlns:xlink="http://www.w3.org/1999/xlink" x="0px"
	 y="0px" viewBox="0 0 2480 2480" style="enable-background:new 0 0 2480 2480;" xml:space="preserve">
<style type="text/css">
	.st0{fill:#283484;}
	.st1{fill:#FFCD00;}
	.st2{fill:#FFFFFF;}
</style>
<circle class="st0" cx="1240" cy="1240" r="1085"/>
<g>
	<polygon class="st1" points="1240,227.8 1207.5,327.7 1102.5,327.7 1187.5,389.5 1155,489.4 1240,427.6 1325,489.4 1292.5,389.5 
		1377.5,327.7 1272.5,327.7 	"/>
	<polygon class="st1" points="1272.5,2062.9 1240,1963 1207.5,2062.9 1102.5,2062.9 1187.5,2124.7 1155,2224.6 1240,2162.8 
		1325,2224.6 1292.5,2124.7 1377.5,2062.9 	"/>
	<polygon class="st1" points="372.4,1295.2 457.4,1357 424.9,1257.1 509.9,1195.3 404.9,1195.3 372.4,1095.4 339.9,1195.3 
		234.9,1195.3 319.9,1257.1 287.4,1357 	"/>
	<polygon class="st1" points="806.2,344 773.7,444 668.7,444 753.7,505.7 721.2,605.6 806.2,543.9 891.2,605.6 858.7,505.7 
		943.7,444 838.7,444 	"/>
	<polygon class="st1" points="488.6,661.6 456.2,761.5 351.1,761.5 436.1,823.3 403.6,923.2 488.6,861.4 573.6,923.2 541.2,823.3 
		626.2,761.5 521.1,761.5 	"/>
	<polygon class="st1" points="521.1,1629.1 488.6,1529.2 456.2,1629.1 351.1,1629.1 436.1,1690.9 403.6,1790.8 488.6,1729 
		573.6,1790.8 541.2,1690.9 626.2,1629.1 	"/>
	<polygon class="st1" points="838.7,1946.7 806.2,1846.8 773.7,1946.7 668.7,1946.7 753.7,2008.4 721.2,2108.3 806.2,2046.6 
		891.2,2108.3 858.7,2008.4 943.7,1946.7 	"/>
	<polygon class="st1" points="2245.1,1195.3 2140.1,1195.3 2107.6,1095.4 2075.1,1195.3 1970.1,1195.3 2055.1,1257.1 2022.6,1357 
		2107.6,1295.2 2192.6,1357 2160.1,1257.1 	"/>
	<polygon class="st1" points="1673.8,344 1641.3,444 1536.3,444 1621.3,505.7 1588.8,605.6 1673.8,543.9 1758.8,605.6 1726.3,505.7 
		1811.3,444 1706.3,444 	"/>
	<polygon class="st1" points="1938.8,823.3 1906.4,923.2 1991.4,861.4 2076.4,923.2 2043.9,823.3 2128.9,761.5 2023.8,761.5 
		1991.4,661.6 1958.9,761.5 1853.8,761.5 	"/>
	<polygon class="st1" points="2023.8,1629.1 1991.4,1529.2 1958.9,1629.1 1853.8,1629.1 1938.8,1690.9 1906.4,1790.8 1991.4,1729 
		2076.4,1790.8 2043.9,1690.9 2128.9,1629.1 	"/>
	<polygon class="st1" points="1706.3,1946.7 1673.8,1846.8 1641.3,1946.7 1536.3,1946.7 1621.3,2008.4 1588.8,2108.3 1673.8,2046.6 
		1758.8,2108.3 1726.3,2008.4 1811.3,1946.7 	"/>
</g>
<g>
	<path class="st2" d="M1170.6,1154.6h-158.1v199.1h158.1v-69.9h-82.7v-53.6h131.9v108.3c0,28.8-3.7,48.4-11.1,58.8
		s-21.7,15.6-42.8,15.6h-150c-21.1,0-35.4-5.2-42.8-15.6c-7.4-10.4-11.1-30-11.1-58.8v-165.8c0-28.6,3.7-48.1,11.1-58.6
		c7.4-10.5,21.7-15.8,42.8-15.8h150c20.9,0,35.1,5.2,42.6,15.5s11.3,29,11.3,55.9v7.1l-49.2,12.8L1170.6,1154.6L1170.6,1154.6z"/>
	<path class="st2" d="M1638.9,1412.9v-314.6h140c39.9,0,70.6,13.5,92.1,40.5s32.2,65.3,32.2,114.9c0,29.4-4.2,55.8-12.6,79.3
		s-20.2,42-35.4,55.5c-9.5,8.5-21.2,14.7-35.3,18.6c-14.1,3.9-32.1,5.8-54,5.8L1638.9,1412.9L1638.9,1412.9z M1689.5,1353.7h65.5
		c34.9,0,59.6-7.8,74.1-23.5s21.8-41.6,21.8-77.7c0-32.1-6-56.5-18.1-73.1s-29.9-24.8-53.5-24.8h-89.7v199.1H1689.5z"/>
	<path class="st2" d="M1311.7,1412.9v-314.6h186.1c17.3,0,29.8,4.8,37.6,14.4c7.8,9.6,11.6,25.1,11.6,46.6v70.2
		c0,21.2-3.9,36.7-11.6,46.3c-7.8,9.6-20.3,14.4-37.6,14.4h-136.3v122.6L1311.7,1412.9L1311.7,1412.9z M1475.4,1152.8h-113.8v83.3
		h113.8c8.8,0,14.8-1.8,18-5.5s4.8-10.2,4.8-19.5v-33.6c0-9.1-1.6-15.5-4.8-19.2C1490.1,1154.7,1484.1,1152.8,1475.4,1152.8z"/>
	<path class="st2" d="M611.9,1412.9v-314.6H798c17.3,0,29.8,4.8,37.6,14.4s11.6,25.1,11.6,46.6v73.8c0,21.2-3.9,36.7-11.6,46.4
		c-7.8,9.7-20.3,14.6-37.6,14.6h-28.4L870,1412.9h-72.7l-87.7-118.7h-48v118.7H611.9z M775.6,1152.8H661.7v87.5h113.8
		c8.8,0,14.8-1.8,18-5.5s4.8-10.2,4.8-19.5v-37.8c0-9.1-1.6-15.5-4.8-19.2C790.3,1154.7,784.3,1152.8,775.6,1152.8z"/>
</g>
</svg>
