<svg id="_x3C_Layer_x3E_" xmlns="http://www.w3.org/2000/svg" xmlns:xlink="http://www.w3.org/1999/xlink" viewBox="0 0 2480 2480" style="enable-background:new 0 0 2480 2480"><style>.st0{enable-background:new}.st1{clip-path:url(#SVGID_2_);enable-background:new}.st2{fill:#1a2257}.st3{fill:#1a2154}.st4{fill:#192052}.st5{fill:#232d73}.st6{clip-path:url(#SVGID_4_);enable-background:new}.st7{fill:#151b45}.st8{fill:#161c47}.st9{fill:#161d4a}.st10{fill:#171e4d}.st11{fill:#181f4f}.st12{fill:#806700}.st13{fill:#a88700}.st14{fill:#a18200}.st15{fill:#dfb300}.st16{fill:#ab8900}.st17{fill:#b28f00}.st18{fill:#9a7c00}.st19{fill:#b18e00}.st20{fill:#b59100}.st21{fill:#b49100}.st22{fill:#826900}.st23{fill:#937700}.st24{fill:#8c7100}.st25{fill:#866c00}.st26{fill:#ae8c00}.st27{fill:#a38300}.st28{fill:#828282}.st29{fill:#b4b4b4}.st30{clip-path:url(#SVGID_6_);enable-background:new}.st31{fill:#a8a8a8}.st32{fill:#a3a3a3}.st33{fill:#9e9e9e}.st34{clip-path:url(#SVGID_8_);enable-background:new}.st35{fill:#858585}.st36{fill:#dfdfdf}.st37{clip-path:url(#SVGID_10_);enable-background:new}.st38{fill:#8a8a8a}.st39{fill:#8f8f8f}.st40{fill:#949494}.st41{fill:#999}.st42{clip-path:url(#SVGID_12_);enable-background:new}.st43{clip-path:url(#SVGID_14_);enable-background:new}.st44{clip-path:url(#SVGID_16_);enable-background:new}.st45{clip-path:url(#SVGID_18_);enable-background:new}.st46{clip-path:url(#SVGID_20_);enable-background:new}.st47{clip-path:url(#SVGID_22_);enable-background:new}.st48{clip-path:url(#SVGID_24_);enable-background:new}.st49{fill:gray}.st50{clip-path:url(#SVGID_26_);enable-background:new}.st51{clip-path:url(#SVGID_28_);enable-background:new}</style><g><g><g class="st0"><g class="st0"><defs><path id="SVGID_1_" class="st0" d="M1654.4 235.1l91.2 49.6c-149.1-81.1-326-115.3-515.8-88.7l-91.2-49.6C1328.4 119.7 1505.3 153.9 1654.4 235.1z"/></defs><clipPath id="SVGID_2_"><use xlink:href="#SVGID_1_" style="overflow:visible"/></clipPath><g class="st1"><path class="st2" d="M1229.7 196l-91.2-49.6c117.4-16.5 229.8-9.7 333.8 17.1l91.2 49.6C1459.5 186.3 1347.1 179.5 1229.7 196"
						/><path class="st3" d="M1563.5 213l-91.2-49.6c53.3 13.7 104.3 32.6 152.6 56.4l91.2 49.6C1667.8 245.7 1616.8 226.7 1563.5 213"
						/><path class="st4" d="M1716.1 269.4l-91.2-49.6c9.9 4.9 19.7 10 29.4 15.2l91.2 49.6C1735.9 279.4 1726.1 274.3 1716.1 269.4"/></g></g><g><ellipse transform="matrix(0.4779 -0.8784 0.8784 0.4779 -446.678 1725.1162)" class="st5" cx="1227.8" cy="1238.3" rx="1085" ry="927.5"/></g><g class="st0"><defs><path id="SVGID_3_" class="st0" d="M710 2191.9l-91.2-49.6c-269.9-146.8-448.6-447.2-447.9-817.9 1.1-575.7 434.3-1103.1 967.6-1178l91.2 49.6c-533.3 75-966.6 602.4-967.6 1178C261.4 1744.8 440.2 2045.1 710 2191.9z"/></defs><clipPath id="SVGID_4_"><use xlink:href="#SVGID_3_" style="overflow:visible"/></clipPath><g class="st6"><path class="st7" d="M710 2191.9l-91.2-49.6c-269.9-146.8-448.6-447.2-447.9-817.9.3-141.7 26.7-280.5 74.4-410.3l91.2 49.6c-47.7 129.8-74.1 268.6-74.4 410.3C261.4 1744.8 440.2 2045.1 710 2191.9"/><path class="st8" d="M336.5 963.7l-91.2-49.6c20.6-56 45.1-110.3 73.1-162.5l91.2 49.6C381.6 853.4 357.1 907.7 336.5 963.7"/><path class="st9" d="M409.7 801.2l-91.2-49.6c23.8-44.2 50.1-86.8 78.7-127.6l91.2 49.6C459.7 714.4 433.4 757 409.7 801.2"/><path class="st10" d="M488.3 673.6 397.2 624c27-38.5 56-75.3 86.9-110.3l91.2 49.6C544.4 598.3 515.3 635.1 488.3 673.6"/><path class="st11" d="M575.3 563.3l-91.2-49.6c31-35.2 64-68.4 98.5-99.5l91.2 49.6C639.2 494.9 606.3 528.1 575.3 563.3"/><path class="st4" d="M673.8 463.8l-91.2-49.6c37.1-33.4 76.1-64.3 116.8-92.4l91.2 49.6C749.9 399.5 710.9 430.4 673.8 463.8"
						/><path class="st3" d="M790.5 371.4l-91.2-49.6c49.9-34.5 102.4-64.9 156.9-90.5l91.2 49.6C892.9 306.5 840.5 336.8 790.5 371.4"
						/><path class="st2" d="M947.4 280.9l-91.2-49.6c89.3-42 184.1-71.1 282.3-84.9l91.2 49.6C1131.5 209.8 1036.7 238.9 947.4 280.9"
						/></g></g></g></g></g><g><g><g class="st0"><g><path class="st12" d="M1339.8 520.1 1294.2 495.3 1242.2 394.1 1287.7 418.9z"/></g><g><path class="st13" d="M1264.2 471.5 1218.6 446.7 1247.1 420.3 1292.7 445.1z"/></g><g><path class="st12" d="M1339.8 520.1 1294.2 495.3 1218.6 446.7 1264.2 471.5z"/></g><g><path class="st12" d="M1311 428.2 1265.5 403.4 1254.6 368.8 1300.2 393.6z"/></g><g><path class="st14" d="M1287.7 418.9 1242.2 394.1 1244 391.8 1289.6 416.6z"/></g><g><path class="st12" d="M1292.7 445.1 1247.1 420.3 1234.6 403.4 1280.2 428.2z"/></g><g><path class="st14" d="M1280.2 428.2 1234.6 403.4 1242.2 394.1 1287.7 418.9z"/></g><g><path class="st15" d="M1287.7 418.9 1339.8 520.1 1264.2 471.5 1292.7 445.1 1280.2 428.2z"/></g><g><path class="st16" d="M1286.2 415.8 1240.6 391 1244 391.8 1289.6 416.6z"/></g><g><path class="st17" d="M1280.8 403.1 1235.2 378.3 1254.6 368.8 1300.2 393.6z"/></g><g><path class="st18" d="M1280.8 403.1 1235.2 378.3 1238.3 373.4 1283.9 398.2z"/></g><g><path class="st15" d="M1300.2 393.6 1311 428.2 1339.8 520.1 1287.7 418.9 1289.6 416.6 1286.2 415.8 1280.2 404.2 1280.8 403.1z"/></g><g><path class="st12" d="M1286.2 415.8 1240.6 391 1234.6 379.4 1280.2 404.2z"/></g><g><path class="st18" d="M1280.2 404.2 1234.6 379.4 1235.2 378.3 1280.8 403.1z"/></g><g><path class="st16" d="M1274.5 413.4 1228.9 388.6 1240.6 391 1286.2 415.8z"/></g><g><path class="st18" d="M1274.5 413.4 1228.9 388.6 1234.6 379.4 1280.2 404.2z"/></g><g><path class="st15" d="M1286.2 415.8 1274.5 413.4 1280.2 404.2z"/></g><g><path class="st19" d="M1276.9 397.9 1231.4 373.1 1238.3 373.4 1283.9 398.2z"/></g><g><path class="st20" d="M1275 394 1229.4 369.2 1341.2 333.5 1386.8 358.3z"/></g><g><path class="st12" d="M1276.9 397.9 1231.4 373.1 1229.4 369.2 1275 394z"/></g><g><path class="st19" d="M1270.7 397.7 1225.1 372.9 1231.4 373.1 1276.9 397.9z"/></g><g><path class="st12" d="M1275 394 1229.4 369.2 1228.1 366.8 1273.7 391.6z"/></g><g><path class="st18" d="M1271.6 395.1 1226 370.3 1228.1 366.8 1273.7 391.6z"/></g><g><path class="st18" d="M1270.7 396.6 1225.1 371.8 1226 370.3 1271.6 395.1z"/></g><g><path class="st20" d="M1270.7 395.4 1225.1 370.6 1226 370.3 1271.6 395.1z"/></g><g><path class="st15" d="M1386.8 358.3 1275 394 1273.7 391.6 1271.6 395.1 1270.7 395.4V374.6L1293.3 371.4z"/></g><g><path class="st15" d="M1275 394 1386.8 358.3 1311 428.2 1300.2 393.6 1280.8 403.1 1283.9 398.2 1276.9 397.9z"/></g><g><path class="st21" d="M1293.3 371.4 1247.7 346.6 1341.2 333.5 1386.8 358.3z"/></g><g><path class="st16" d="M1268.2 412.1 1222.6 387.3 1228.9 388.6 1274.5 413.4z"/></g><g><path class="st15" d="M1286.2 415.8 1289.6 416.6 1287.7 418.9 1280.2 428.2 1268.2 412.1 1274.5 413.4z"/></g><g><path class="st12" d="M1280.2 428.2 1234.6 403.4 1222.6 387.3 1268.2 412.1z"/></g><g><path class="st22" d="M1270.7 397.7 1225.1 372.9V371.8L1270.7 396.6z"/></g><g><path class="st22" d="M1270.7 396.6 1225.1 371.8V370.6L1270.7 395.4z"/></g><g><path class="st22" d="M1270.7 395.4 1225.1 370.6V349.8L1270.7 374.6z"/></g><g><path class="st15" d="M1270.7 396.6V395.4L1271.6 395.1z"/></g><g><path class="st15" d="M1276.9 397.9 1283.9 398.2 1280.8 403.1 1280.2 404.2 1274.5 413.4 1268.2 412.1l-11-15L1270.7 397.7z"/></g><g><path class="st12" d="M1268.2 412.1 1222.6 387.3l-11-15L1257.2 397.1z"/></g><g><path class="st19" d="M1257.2 397.1 1211.6 372.3 1225.1 372.9 1270.7 397.7z"/></g><g><path class="st23" d="M1188.5 541.4 1142.9 516.6 1203.2 383.2 1248.8 408z"/></g><g><path class="st23" d="M1248.8 408 1203.2 383.2l5-11L1253.8 397z"/></g><g><path class="st12" d="M1257.2 397.1 1211.6 372.3 1209.4 369.5 1255 394.3z"/></g><g><path class="st23" d="M1253.8 397 1208.2 372.2 1209.4 369.5 1255 394.3z"/></g><g><path class="st24" d="M1217.5 441.4 1171.9 416.6 1182.9 378.9 1228.5 403.7z"/></g><g><path class="st16" d="M1228.5 403.7 1182.9 378.9 1203.2 383.2 1248.8 408z"/></g><g><path class="st19" d="M1142 392.7 1096.4 367.9 1208.2 372.2 1253.8 397z"/></g><g><path class="st15" d="M1270.7 374.6V395.4 396.6 397.7L1257.2 397.1 1255 394.3 1253.8 397 1142 392.7 1235.5 379.5 1251 377.3z"/></g><g><path class="st15" d="M1275 394 1276.9 397.9 1270.7 397.7V396.6L1271.6 395.1 1273.7 391.6z"/></g><g><path class="st21" d="M1270.7 374.6 1225.1 349.8 1247.7 346.6 1293.3 371.4z"/></g><g><path class="st15" d="M1255 394.3 1257.2 397.1l11 15L1280.2 428.2 1292.7 445.1 1264.2 471.5 1188.5 541.4 1248.8 408l5-11z"/></g><g><path class="st24" d="M1188.5 541.4 1142.9 516.6l29-1e2L1217.5 441.4z"/></g><g><path class="st21" d="M1251 377.3 1205.4 352.5 1225.1 349.8 1270.7 374.6z"/></g><g><path class="st15" d="M1217.5 441.4 1228.5 403.7 1248.8 408 1188.5 541.4z"/></g><g><path class="st21" d="M1235.5 379.5 1189.9 354.7 1205.4 352.5 1251 377.3z"/></g><g><path class="st25" d="M1251 377.3 1205.4 352.5 1219 254.7 1264.6 279.5z"/></g><g><path class="st15" d="M1264.6 279.5 1251 377.3 1235.5 379.5z"/></g><g><path class="st24" d="M1235.5 379.5 1189.9 354.7 1219 254.7 1264.6 279.5z"/></g><g><path class="st15" d="M1264.6 279.5 1293.3 371.4 1270.7 374.6 1251 377.3z"/></g><g><path class="st12" d="M1217.5 441.4 1171.9 416.6 1096.4 367.9 1142 392.7z"/></g><g><path class="st21" d="M1142 392.7 1096.4 367.9 1189.9 354.7 1235.5 379.5z"/></g><g><path class="st15" d="M1217.5 441.4 1142 392.7 1253.8 397l-5 11L1228.5 403.7z"/></g></g><g class="st0"><g><path class="st12" d="M1336.7 2187.1 1291.1 2162.3 1239.1 2061 1284.6 2085.8z"/></g><g><path class="st13" d="M1261.1 2138.4 1215.5 2113.6 1244.1 2087.3 1289.6 2112.1z"/></g><g><path class="st12" d="M1336.7 2187.1 1291.1 2162.3 1215.5 2113.6 1261.1 2138.4z"/></g><g><path class="st12" d="M1307.9 2095.1 1262.4 2070.3 1251.5 2035.7 1297.1 2060.5z"/></g><g><path class="st14" d="M1284.6 2085.8 1239.1 2061 1240.9 2058.7 1286.5 2083.5z"/></g><g><path class="st12" d="M1289.6 2112.1 1244.1 2087.3 1231.5 2070.3 1277.1 2095.1z"/></g><g><path class="st14" d="M1277.1 2095.1 1231.5 2070.3 1239.1 2061 1284.6 2085.8z"/></g><g><path class="st15" d="M1284.6 2085.8 1336.7 2187.1 1261.1 2138.4 1289.6 2112.1l-12.5-17z"/></g><g><path class="st16" d="M1283.1 2082.8 1237.5 2058 1240.9 2058.7 1286.5 2083.5z"/></g><g><path class="st17" d="M1277.7 2070.1 1232.2 2045.3 1251.5 2035.7 1297.1 2060.5z"/></g><g><path class="st18" d="M1277.7 2070.1 1232.2 2045.3l3-5L1280.8 2065.1z"/></g><g><path class="st15" d="M1297.1 2060.5 1307.9 2095.1 1336.7 2187.1 1284.6 2085.8 1286.5 2083.5 1283.1 2082.8 1277.1 2071.1 1277.7 2070.1z"/></g><g><path class="st12" d="M1283.1 2082.8 1237.5 2058 1231.5 2046.3 1277.1 2071.1z"/></g><g><path class="st18" d="M1277.1 2071.1 1231.5 2046.3 1232.2 2045.3 1277.7 2070.1z"/></g><g><path class="st16" d="M1271.4 2080.3 1225.8 2055.5 1237.5 2058 1283.1 2082.8z"/></g><g><path class="st18" d="M1271.4 2080.3 1225.8 2055.5 1231.5 2046.3 1277.1 2071.1z"/></g><g><path class="st15" d="M1283.1 2082.8 1271.4 2080.3 1277.1 2071.1z"/></g><g><path class="st19" d="M1273.9 2064.8 1228.3 2040 1235.2 2040.3 1280.8 2065.1z"/></g><g><path class="st20" d="M1271.9 2061 1226.3 2036.2 1338.1 2000.4 1383.7 2025.2z"/></g><g><path class="st21" d="M1290.2 2038.3 1244.6 2013.5 1338.1 2000.4 1383.7 2025.2z"/></g><g><path class="st16" d="M1265.1 2079 1219.5 2054.2 1225.8 2055.5 1271.4 2080.3z"/></g><g><path class="st15" d="M1283.1 2082.8 1286.5 2083.5 1284.6 2085.8 1277.1 2095.1 1265.1 2079 1271.4 2080.3z"/></g><g><path class="st12" d="M1277.1 2095.1 1231.5 2070.3 1219.5 2054.2 1265.1 2079z"/></g><g><path class="st12" d="M1273.9 2064.8 1228.3 2040 1226.3 2036.2 1271.9 2061z"/></g><g><path class="st19" d="M1267.6 2064.6 1222 2039.8 1228.3 2040 1273.9 2064.8z"/></g><g><path class="st12" d="M1271.9 2061 1226.3 2036.2 1225 2033.7 1270.6 2058.5z"/></g><g><path class="st18" d="M1268.5 2062 1222.9 2037.2 1225 2033.7 1270.6 2058.5z"/></g><g><path class="st18" d="M1267.6 2063.5 1222 2038.7 1222.9 2037.2 1268.5 2062z"/></g><g><path class="st20" d="M1267.6 2062.3 1222 2037.5 1222.9 2037.2 1268.5 2062z"/></g><g><path class="st15" d="M1383.7 2025.2 1271.9 2061 1270.6 2058.5 1268.5 2062 1267.6 2062.3V2041.5L1290.2 2038.3z"/></g><g><path class="st15" d="M1271.9 2061 1383.7 2025.2 1307.9 2095.1 1297.1 2060.5 1277.7 2070.1 1280.8 2065.1 1273.9 2064.8z"/></g><g><path class="st22" d="M1267.6 2064.6 1222 2039.8V2038.7L1267.6 2063.5z"/></g><g><path class="st22" d="M1267.6 2063.5 1222 2038.7V2037.5L1267.6 2062.3z"/></g><g><path class="st15" d="M1271.9 2061 1273.9 2064.8 1267.6 2064.6V2063.5L1268.5 2062 1270.6 2058.5z"/></g><g><path class="st22" d="M1267.6 2062.3 1222 2037.5V2016.7L1267.6 2041.5z"/></g><g><path class="st12" d="M1265.1 2079 1219.5 2054.2 1208.5 2039.3 1254.1 2064.1z"/></g><g><path class="st19" d="M1254.1 2064.1 1208.5 2039.3l13.5.5L1267.6 2064.6z"/></g><g><path class="st23" d="M1185.4 2208.3 1139.8 2183.5 1200.1 2050.1 1245.7 2074.9z"/></g><g><path class="st23" d="M1245.7 2074.9 1200.1 2050.1l5-11L1250.7 2063.9z"/></g><g><path class="st12" d="M1254.1 2064.1 1208.5 2039.3 1206.3 2036.4 1251.9 2061.2z"/></g><g><path class="st23" d="M1250.7 2063.9 1205.1 2039.1 1206.3 2036.4 1251.9 2061.2z"/></g><g><path class="st24" d="M1214.4 2108.3 1168.8 2083.5 1179.8 2045.8 1225.4 2070.6z"/></g><g><path class="st16" d="M1225.4 2070.6 1179.8 2045.8 1200.1 2050.1 1245.7 2074.9z"/></g><g><path class="st19" d="M1138.9 2059.6 1093.3 2034.8 1205.1 2039.1 1250.7 2063.9z"/></g><g><path class="st15" d="M1267.6 2041.5V2062.3 2063.5 2064.6l-13.5-.5L1251.9 2061.2 1250.7 2063.9 1138.9 2059.6 1232.4 2046.5 1247.9 2044.3z"/></g><g><path class="st15" d="M1267.6 2063.5V2062.3L1268.5 2062z"/></g><g><path class="st21" d="M1267.6 2041.5 1222 2016.7 1244.6 2013.5 1290.2 2038.3z"/></g><g><path class="st15" d="M1273.9 2064.8 1280.8 2065.1 1277.7 2070.1 1277.1 2071.1 1271.4 2080.3 1265.1 2079 1254.1 2064.1l13.5.5z"/></g><g><path class="st15" d="M1251.9 2061.2 1254.1 2064.1 1265.1 2079 1277.1 2095.1l12.5 17L1261.1 2138.4 1185.4 2208.3 1245.7 2074.9l5-11z"/></g><g><path class="st24" d="M1185.4 2208.3 1139.8 2183.5l29-1e2L1214.4 2108.3z"/></g><g><path class="st21" d="M1247.9 2044.3 1202.3 2019.5 1222 2016.7 1267.6 2041.5z"/></g><g><path class="st15" d="M1214.4 2108.3 1225.4 2070.6 1245.7 2074.9 1185.4 2208.3z"/></g><g><path class="st21" d="M1232.4 2046.5 1186.8 2021.7 1202.3 2019.5 1247.9 2044.3z"/></g><g><path class="st25" d="M1247.9 2044.3 1202.3 2019.5 1215.9 1921.6 1261.5 1946.4z"/></g><g><path class="st15" d="M1261.5 1946.4 1247.9 2044.3 1232.4 2046.5z"/></g><g><path class="st24" d="M1232.4 2046.5 1186.8 2021.7 1215.9 1921.6 1261.5 1946.4z"/></g><g><path class="st15" d="M1261.5 1946.4 1290.2 2038.3 1267.6 2041.5 1247.9 2044.3z"/></g><g><path class="st21" d="M1138.9 2059.6 1093.3 2034.8 1186.8 2021.7 1232.4 2046.5z"/></g><g><path class="st12" d="M1214.4 2108.3 1168.8 2083.5 1093.3 2034.8 1138.9 2059.6z"/></g><g><path class="st15" d="M1214.4 2108.3 1138.9 2059.6 1250.7 2063.9l-5 11L1225.4 2070.6z"/></g></g><g class="st0"><g><path class="st12" d="M566 1462.1 520.4 1437.3 468.4 1336.1 514 1360.9z"/></g><g><path class="st13" d="M490.5 1413.4 444.9 1388.6 473.4 1362.3 519 1387.1z"/></g><g><path class="st12" d="M566 1462.1 520.4 1437.3 444.9 1388.6 490.5 1413.4z"/></g><g><path class="st12" d="M537.3 1370.2 491.7 1345.4 480.9 1310.8 526.5 1335.6z"/></g><g><path class="st14" d="M514 1360.9 468.4 1336.1 470.3 1333.8 515.9 1358.6z"/></g><g><path class="st12" d="M519 1387.1 473.4 1362.3 460.9 1345.4 506.4 1370.2z"/></g><g><path class="st14" d="M506.4 1370.2 460.9 1345.4 468.4 1336.1 514 1360.9z"/></g><g><path class="st16" d="M512.4 1357.8 466.8 1333 470.3 1333.8 515.9 1358.6z"/></g><g><path class="st12" d="M512.4 1357.8 466.8 1333 460.8 1321.4 506.4 1346.2z"/></g><g><path class="st16" d="M500.8 1355.4 455.2 1330.6 466.8 1333 512.4 1357.8z"/></g><g><path class="st18" d="M500.8 1355.4 455.2 1330.6 460.8 1321.4 506.4 1346.2z"/></g><g><path class="st16" d="M494.5 1354.1 448.9 1329.3 455.2 1330.6 500.8 1355.4z"/></g><g><path class="st12" d="M506.4 1370.2 460.9 1345.4 448.9 1329.3 494.5 1354.1z"/></g><g><path class="st12" d="M494.5 1354.1 448.9 1329.3 437.8 1314.3 483.4 1339.1z"/></g><g><path class="st18" d="M506.4 1346.2 460.8 1321.4 461.5 1320.3 507.1 1345.1z"/></g><g><path class="st19" d="M483.4 1339.1 437.8 1314.3 451.3 1314.9 496.9 1339.7z"/></g><g><path class="st12" d="M483.4 1339.1 437.8 1314.3 435.7 1311.4 481.3 1336.2z"/></g><g><path class="st15" d="M481.3 1336.2 483.4 1339.1 494.5 1354.1 506.4 1370.2 519 1387.1 490.5 1413.4 414.7 1483.4 475.1 1350 480 1339z"/></g><g><path class="st15" d="M514 1360.9 566 1462.1 490.5 1413.4 519 1387.1 506.4 1370.2z"/></g><g><path class="st17" d="M507.1 1345.1 461.5 1320.3 480.9 1310.8 526.5 1335.6z"/></g><g><path class="st18" d="M507.1 1345.1 461.5 1320.3 464.6 1315.4 510.1 1340.2z"/></g><g><path class="st15" d="M526.5 1335.6 537.3 1370.2 566 1462.1 514 1360.9 515.9 1358.6 512.4 1357.8 506.4 1346.2 507.1 1345.1z"/></g><g><path class="st15" d="M512.4 1357.8 500.8 1355.4 506.4 1346.2z"/></g><g><path class="st19" d="M503.2 1339.9 457.6 1315.1 464.6 1315.4 510.1 1340.2z"/></g><g><path class="st20" d="M501.2 1336 455.6 1311.2 567.5 1275.5 613 1300.3z"/></g><g><path class="st21" d="M519.5 1313.4 473.9 1288.6 567.5 1275.5 613 1300.3z"/></g><g><path class="st15" d="M512.4 1357.8 515.9 1358.6 514 1360.9 506.4 1370.2 494.5 1354.1 500.8 1355.4z"/></g><g><path class="st12" d="M503.2 1339.9 457.6 1315.1 455.6 1311.2 501.2 1336z"/></g><g><path class="st15" d="M501.2 1336 613 1300.3 537.3 1370.2 526.5 1335.6 507.1 1345.1 510.1 1340.2 503.2 1339.9z"/></g><g><path class="st19" d="M496.9 1339.7 451.3 1314.9 457.6 1315.1 503.2 1339.9z"/></g><g><path class="st12" d="M501.2 1336 455.6 1311.2 454.4 1308.8 5e2 1333.6z"/></g><g><path class="st18" d="M497.8 1337.1 452.2 1312.3 454.4 1308.8 5e2 1333.6z"/></g><g><path class="st22" d="M496.9 1339.7 451.3 1314.9V1313.8L496.9 1338.6z"/></g><g><path class="st18" d="M496.9 1338.6 451.3 1313.8 452.2 1312.3 497.8 1337.1z"/></g><g><path class="st15" d="M496.9 1338.6V1337.4L497.8 1337.1z"/></g><g><path class="st15" d="M501.2 1336 503.2 1339.9 496.9 1339.7V1338.6L497.8 1337.1 5e2 1333.6z"/></g><g><path class="st22" d="M496.9 1338.6 451.3 1313.8V1312.6L496.9 1337.4z"/></g><g><path class="st20" d="M496.9 1337.4 451.3 1312.6 452.2 1312.3 497.8 1337.1z"/></g><g><path class="st21" d="M496.9 1316.6 451.4 1291.8 473.9 1288.6 519.5 1313.4z"/></g><g><path class="st22" d="M496.9 1337.4 451.3 1312.6 451.4 1291.8 496.9 1316.6z"/></g><g><path class="st15" d="M613 1300.3 501.2 1336 5e2 1333.6 497.8 1337.1 496.9 1337.4V1316.6L519.5 1313.4z"/></g><g><path class="st15" d="M503.2 1339.9 510.1 1340.2 507.1 1345.1 506.4 1346.2 500.8 1355.4 494.5 1354.1 483.4 1339.1 496.9 1339.7z"/></g><g><path class="st23" d="M414.7 1483.4 369.1 1458.6 429.5 1325.2 475.1 1350z"/></g><g><path class="st23" d="M475.1 1350 429.5 1325.2 434.4 1314.2 480 1339z"/></g><g><path class="st23" d="M480 1339 434.4 1314.2 435.7 1311.4 481.3 1336.2z"/></g><g><path class="st24" d="M443.8 1383.3 398.2 1358.5 409.1 1320.9 454.7 1345.7z"/></g><g><path class="st12" d="M443.8 1383.3 398.2 1358.5 322.7 1309.9 368.2 1334.7z"/></g><g><path class="st24" d="M414.7 1483.4 369.1 1458.6 398.2 1358.5 443.8 1383.3z"/></g><g><path class="st21" d="M477.2 1319.3 431.7 1294.5 451.4 1291.8 496.9 1316.6z"/></g><g><path class="st15" d="M443.8 1383.3 454.7 1345.7 475.1 1350 414.7 1483.4z"/></g><g><path class="st16" d="M454.7 1345.7 409.1 1320.9 429.5 1325.2 475.1 1350z"/></g><g><path class="st21" d="M461.7 1321.5 416.2 1296.7 431.7 1294.5 477.2 1319.3z"/></g><g><path class="st25" d="M477.2 1319.3 431.7 1294.5 445.2 1196.7 490.8 1221.5z"/></g><g><path class="st15" d="M490.8 1221.5 477.2 1319.3 461.7 1321.5z"/></g><g><path class="st24" d="M461.7 1321.5 416.2 1296.7l29-1e2L490.8 1221.5z"/></g><g><path class="st15" d="M490.8 1221.5 519.5 1313.4 496.9 1316.6 477.2 1319.3z"/></g><g><path class="st19" d="M368.2 1334.7 322.7 1309.9 434.4 1314.2 480 1339z"/></g><g><path class="st21" d="M368.2 1334.7 322.7 1309.9 416.2 1296.7 461.7 1321.5z"/></g><g><path class="st15" d="M496.9 1316.6V1337.4 1338.6 1339.7L483.4 1339.1 481.3 1336.2 480 1339 368.2 1334.7 461.7 1321.5 477.2 1319.3z"/></g><g><path class="st15" d="M443.8 1383.3 368.2 1334.7 480 1339 475.1 1350 454.7 1345.7z"/></g></g><g class="st0"><g><path class="st13" d="M896.2 620.5 850.6 595.7 879.1 569.3 924.7 594.1z"/></g><g><path class="st12" d="M953.4 686.1 907.9 661.3 828.5 585.3 874.1 610.1z"/></g><g><path class="st12" d="M953.4 686.1 907.9 661.3 832.3 612.6 877.9 637.4z"/></g><g><path class="st26" d="M883.7 603.6 838.1 578.8 954.9 499.4 1000.5 524.2z"/></g><g><path class="st12" d="M896.2 620.5 850.6 595.7 838.1 578.8 883.7 603.6z"/></g><g><path class="st26" d="M874.1 610.1 828.5 585.3 838.1 578.8 883.7 603.6z"/></g><g><path class="st26" d="M871.7 611.7 826.1 586.9 828.5 585.3 874.1 610.1z"/></g><g><path class="st15" d="M1000.5 524.2 883.7 603.6 874.1 610.1 871.7 611.7V607.8 587.4v-22L871.8 542.3 907 537.3z"/></g><g><path class="st15" d="M883.7 603.6 1000.5 524.2 924.7 594.1 896.2 620.5z"/></g><g><path class="st12" d="M877.9 637.4 832.3 612.6 819.8 604.5 865.4 629.3z"/></g><g><path class="st15" d="M924.7 594.1 953.4 686.1 874.1 610.1 883.7 603.6 896.2 620.5z"/></g><g><path class="st22" d="M871.7 611.7 826.1 586.9V583L871.7 607.8z"/></g><g><path class="st21" d="M907 537.3 861.4 512.5 954.9 499.4 1000.5 524.2z"/></g><g><path class="st22" d="M871.7 607.8 826.1 583V562.6L871.7 587.4z"/></g><g><path class="st12" d="M871.7 607.8 826.1 583 816.5 573.8 862.1 598.6z"/></g><g><path class="st18" d="M861.5 599.6 815.9 574.8 816.5 573.8 862.1 598.6z"/></g><g><path class="st18" d="M860.9 600.6 815.3 575.8 815.9 574.8 861.5 599.6z"/></g><g><path class="st14" d="M802.2 707.3 756.6 682.5 819.8 604.5 865.4 629.3z"/></g><g><path class="st15" d="M865.4 629.3 877.9 637.4 802.2 707.3z"/></g><g><path class="st18" d="M849.5 619.1 803.9 594.3 815.3 575.8 860.9 600.6z"/></g><g><path class="st27" d="M860 600.3 814.5 575.5 815.3 575.8 860.9 600.6z"/></g><g><path class="st15" d="M860 600.3 861.5 599.6 860.9 600.6z"/></g><g><path class="st17" d="M860 600.3 814.5 575.5 815.9 574.8 861.5 599.6z"/></g><g><path class="st12" d="M865.4 629.3 819.8 604.5 803.9 594.3 849.5 619.1z"/></g><g><path class="st15" d="M862.1 598.6 871.7 607.8V611.7L874.1 610.1 953.4 686.1 877.9 637.4 865.4 629.3 849.5 619.1 860.9 600.6 861.5 599.6z"/></g><g><path class="st22" d="M871.7 587.4 826.1 562.6 826.2 540.6 871.7 565.4z"/></g><g><path class="st12" d="M871.7 587.4 826.1 562.6 822.2 557.4 867.8 582.2z"/></g><g><path class="st17" d="M856.5 602 811 577.2 814.5 575.5 860 600.3z"/></g><g><path class="st25" d="M856.5 602 811 577.2 811.4 574.3 857 599.1z"/></g><g><path class="st12" d="M862.1 598.6 816.5 573.8 812 569.5 857.6 594.3z"/></g><g><path class="st15" d="M857 599.1 857.6 594.3 862.1 598.6 861.5 599.6 860 600.3 856.5 602z"/></g><g><path class="st25" d="M857 599.1 811.4 574.3 812 569.5 857.6 594.3z"/></g><g><path class="st12" d="M867.8 582.2 822.2 557.4 815.1 547.7 860.6 572.5z"/></g><g><path class="st17" d="M858.7 586.7 813.1 561.9 822.2 557.4 867.8 582.2z"/></g><g><path class="st17" d="M857.6 587.2 812 562.4 813.1 561.9 858.7 586.7z"/></g><g><path class="st12" d="M857.6 594.3 812 569.5 807.1 564.8 852.7 589.6z"/></g><g><path class="st17" d="M852.7 589.6 807.1 564.8 812 562.4 857.6 587.2z"/></g><g><path class="st15" d="M858.7 586.7 867.8 582.2 871.7 587.4V607.8L862.1 598.6 857.6 594.3 852.7 589.6 857.6 587.2z"/></g><g><path class="st15" d="M858.7 586.7 860.6 572.5 867.8 582.2z"/></g><g><path class="st25" d="M858.7 586.7 813.1 561.9 815.1 547.7 860.6 572.5z"/></g><g><path class="st20" d="M861.2 568.7 815.6 543.9 826.2 540.6 871.7 565.4z"/></g><g><path class="st20" d="M858.5 569.6 812.9 544.8 815.6 543.9 861.2 568.7z"/></g><g><path class="st12" d="M860.6 572.5 815.1 547.7 812.9 544.8 858.5 569.6z"/></g><g><path class="st21" d="M871.8 542.3 826.2 517.5 861.4 512.5 907 537.3z"/></g><g><path class="st22" d="M871.7 565.4 826.2 540.6V517.5L871.8 542.3z"/></g><g><path class="st16" d="M838.2 583.1 792.7 558.3 812 562.4 857.6 587.2z"/></g><g><path class="st25" d="M861.2 568.7 815.6 543.9 832.7 420.6 878.3 445.4z"/></g><g><path class="st15" d="M878.3 445.4 861.2 568.7 858.5 569.6 860.6 572.5 858.7 586.7 857.6 587.2 838.2 583.1 849.2 545.5z"/></g><g><path class="st15" d="M858.5 569.6 861.2 568.7 871.7 565.4v22L867.8 582.2 860.6 572.5z"/></g><g><path class="st12" d="M849.5 619.1 803.9 594.3 785.6 582.5 831.2 607.3z"/></g><g><path class="st24" d="M802.2 707.3 756.6 682.5l29-1e2L831.2 607.3z"/></g><g><path class="st15" d="M831.2 607.3 849.5 619.1 865.4 629.3 802.2 707.3z"/></g><g><path class="st24" d="M838.2 583.1 792.7 558.3 803.6 520.7 849.2 545.5z"/></g><g><path class="st24" d="M849.2 545.5 803.6 520.7 832.7 420.6 878.3 445.4z"/></g><g><path class="st15" d="M878.3 445.4 907 537.3 871.8 542.3 871.7 565.4 861.2 568.7z"/></g><g><path class="st27" d="M755.7 558.6 710.1 533.8 811.4 574.3 857 599.1z"/></g><g><path class="st12" d="M831.2 607.3 785.6 582.5 710.1 533.8 755.7 558.6z"/></g><g><path class="st15" d="M755.7 558.6 857 599.1 856.5 602 860 600.3 860.9 600.6 849.5 619.1 831.2 607.3z"/></g><g><path class="st21" d="M755.7 558.6 710.1 533.8 803.6 520.7 849.2 545.5z"/></g><g><path class="st15" d="M857.6 587.2 852.7 589.6 857.6 594.3 857 599.1 755.7 558.6 849.2 545.5 838.2 583.1z"/></g></g><g class="st0"><g><path class="st12" d="M670.2 1030.9 624.6 1006.1 583.4 925.7 629 950.5z"/></g><g><path class="st13" d="M629 950.5 583.4 925.7 595.9 914.1 641.5 938.9z"/></g><g><path class="st15" d="M641.5 938.9 670.2 1030.9 629 950.5z"/></g><g><path class="st13" d="M623.2 955.8 577.6 931 583.4 925.7 629 950.5z"/></g><g><path class="st13" d="M594.7 982.2 549.1 957.4 577.6 931 623.2 955.8z"/></g><g><path class="st13" d="M613 965.3 567.4 940.5 577.6 931 623.2 955.8z"/></g><g><path class="st12" d="M670.2 1030.9 624.6 1006.1 549.1 957.4 594.7 982.2z"/></g><g><path class="st15" d="M629 950.5 670.2 1030.9 594.7 982.2 623.2 955.8z"/></g><g><path class="st12" d="M616.2 940.8 570.6 916 570.2 913.1 615.8 937.9z"/></g><g><path class="st26" d="M615.8 937.9 570.2 913.1 671.7 844.2 717.3 869z"/></g><g><path class="st16" d="M612.7 940 567.1 915.2 570.6 916 616.2 940.8z"/></g><g><path class="st12" d="M613 965.3 567.4 940.5 556.1 925.2 601.7 950z"/></g><g><path class="st17" d="M614.2 926.7 568.6 901.9 589 891.9 634.6 916.7z"/></g><g><path class="st12" d="M615.8 937.9 570.2 913.1 568.6 901.9 614.2 926.7z"/></g><g><path class="st14" d="M601.1 950.8 555.5 926 556.1 925.2 601.7 950z"/></g><g><path class="st22" d="M601 954.8 555.5 930v-4L601.1 950.8z"/></g><g><path class="st27" d="M598.6 953.8 553 929l2.5 1L601 954.8z"/></g><g><path class="st12" d="M601.7 950 556.1 925.2 555.5 924.3 601.1 949.1z"/></g><g><path class="st15" d="M601.1 949.1 601.7 950 601.1 950.8z"/></g><g><path class="st22" d="M601.1 950.8 555.5 926V924.3L601.1 949.1z"/></g><g><path class="st12" d="M601.1 949.1 555.5 924.3 554.9 923.6 600.5 948.4z"/></g><g><path class="st26" d="M600.5 948.4 554.9 923.6 567.1 915.2 612.7 940z"/></g><g><path class="st14" d="M518.9 1052.1 473.4 1027.3 553 929 598.6 953.8z"/></g><g><path class="st27" d="M594.8 952.2 549.2 927.4 553 929 598.6 953.8z"/></g><g><path class="st15" d="M600.5 948.4 601.1 949.1V950.8L601 954.8 598.6 953.8 594.8 952.2z"/></g><g><path class="st15" d="M717.3 869 641.5 938.9 629 950.5 623.2 955.8 613 965.3 601.7 950 601.1 949.1 600.5 948.4 612.7 940 616.2 940.8 615.8 937.9z"/></g><g><path class="st26" d="M594.8 952.2 549.2 927.4 554.9 923.6 600.5 948.4z"/></g><g><path class="st26" d="M588.4 956.5 542.9 931.7 549.2 927.4 594.8 952.2z"/></g><g><path class="st22" d="M588.4 956.5 542.9 931.7V926.1L588.5 950.9z"/></g><g><path class="st22" d="M588.5 950.9 542.9 926.1V924.9L588.5 949.7z"/></g><g><path class="st18" d="M576.4 970.4 530.9 945.6l12-19.5L588.5 950.9z"/></g><g><path class="st16" d="M594.8 936.3 549.2 911.5 567.1 915.2 612.7 940z"/></g><g><path class="st12" d="M634.6 916.7 589 891.9 578.2 857.3 623.8 882.1z"/></g><g><path class="st21" d="M623.8 882.1 578.2 857.3 671.7 844.2 717.3 869z"/></g><g><path class="st15" d="M623.8 882.1 717.3 869 615.8 937.9 614.2 926.7 634.6 916.7z"/></g><g><path class="st17" d="M588.5 939.4 542.9 914.6 549.2 911.5 594.8 936.3z"/></g><g><path class="st22" d="M588.5 949.7 542.9 924.9V914.6L588.5 939.4z"/></g><g><path class="st15" d="M588.5 939.4 594.8 936.3 612.7 940 600.5 948.4 594.8 952.2 588.4 956.5 588.5 950.9V949.7z"/></g><g><path class="st15" d="M601.7 950 613 965.3 623.2 955.8 594.7 982.2 518.9 1052.1 598.6 953.8 601 954.8 601.1 950.8z"/></g><g><path class="st27" d="M576.8 945.1 531.2 920.3 542.9 924.9 588.5 949.7z"/></g><g><path class="st17" d="M576.8 945.1 531.2 920.3 542.9 914.6 588.5 939.4z"/></g><g><path class="st15" d="M588.5 949.7 576.8 945.1 588.5 939.4z"/></g><g><path class="st17" d="M573.3 946.8 527.7 922 531.2 920.3 576.8 945.1z"/></g><g><path class="st25" d="M573.3 946.8 527.7 922l.5-3L573.7 943.8z"/></g><g><path class="st25" d="M573.7 943.8 528.2 919 529.8 907.4 575.4 932.2z"/></g><g><path class="st16" d="M575.4 932.2 529.8 907.4 549.2 911.5 594.8 936.3z"/></g><g><path class="st15" d="M573.7 943.8 575.4 932.2 594.8 936.3 588.5 939.4 576.8 945.1 573.3 946.8z"/></g><g><path class="st12" d="M576.4 970.4 530.9 945.6 502.4 927.3 548 952.1z"/></g><g><path class="st15" d="M588.4 956.5 594.8 952.2 598.6 953.8 518.9 1052.1 548 952.1 576.4 970.4 588.5 950.9z"/></g><g><path class="st12" d="M548 952.1 502.4 927.3 426.9 878.6 472.5 903.4z"/></g><g><path class="st24" d="M518.9 1052.1 473.4 1027.3l29-1e2L548 952.1z"/></g><g><path class="st16" d="M555 927.9 509.5 903.1 529.8 907.4 575.4 932.2z"/></g><g><path class="st24" d="M555 927.9 509.5 903.1 520.4 865.4 566 890.2z"/></g><g><path class="st12" d="M614.2 926.7 568.6 901.9 549.5 765.4 595.1 790.2z"/></g><g><path class="st24" d="M566 890.2 520.4 865.4 549.5 765.4 595.1 790.2z"/></g><g><path class="st15" d="M595.1 790.2 614.2 926.7 615.8 937.9 616.2 940.8 612.7 940 594.8 936.3 575.4 932.2 555 927.9 566 890.2z"/></g><g><path class="st15" d="M623.8 882.1 634.6 916.7 614.2 926.7 595.1 790.2z"/></g><g><path class="st27" d="M472.5 903.4 426.9 878.6 528.2 919 573.7 943.8z"/></g><g><path class="st15" d="M472.5 903.4 573.7 943.8 573.3 946.8 576.8 945.1 588.5 949.7V950.9L576.4 970.4 548 952.1z"/></g><g><path class="st15" d="M566 890.2 555 927.9 575.4 932.2 573.7 943.8 472.5 903.4z"/></g><g><path class="st21" d="M472.5 903.4 426.9 878.6 520.4 865.4 566 890.2z"/></g></g><g class="st0"><g><path class="st12" d="M668.7 1864.3 623.1 1839.5 571.1 1738.3 616.7 1763.1z"/></g><g><path class="st12" d="M668.7 1864.3 623.1 1839.5 547.6 1790.8 593.1 1815.6z"/></g><g><path class="st13" d="M593.1 1815.6 547.6 1790.8 576.1 1764.5 621.7 1789.3z"/></g><g><path class="st12" d="M640 1772.4 594.4 1747.6l-10-32L630 1740.4z"/></g><g><path class="st12" d="M633 1750.2 587.4 1725.4 584.4 1715.6 630 1740.4z"/></g><g><path class="st14" d="M616.7 1763.1 571.1 1738.3 573 1736 618.6 1760.8z"/></g><g><path class="st14" d="M613.6 1766.9 568 1742.1 571.1 1738.3 616.7 1763.1z"/></g><g><path class="st12" d="M614.7 1774.2 569.1 1749.4 568 1742.1 613.6 1766.9z"/></g><g><path class="st15" d="M668.7 1864.3 593.1 1815.6 621.7 1789.3 609.7 1773.2l5 1L613.6 1766.9 616.7 1763.1z"/></g><g><path class="st16" d="M609.7 1773.2 564.1 1748.4l5 1L614.7 1774.2z"/></g><g><path class="st12" d="M621.7 1789.3 576.1 1764.5 564.1 1748.4 609.7 1773.2z"/></g><g><path class="st16" d="M608.7 1773 563.1 1748.2 564.1 1748.4 609.7 1773.2z"/></g><g><path class="st16" d="M615.1 1760 569.5 1735.2 573 1736 618.6 1760.8z"/></g><g><path class="st15" d="M630 1740.4l10 32L668.7 1864.3 616.7 1763.1 618.6 1760.8 615.1 1760 614.7 1759.2 633 1750.2z"/></g><g><path class="st17" d="M614.7 1759.2 569.1 1734.4 587.4 1725.4 633 1750.2z"/></g><g><path class="st12" d="M615.1 1760 569.5 1735.2 569.1 1734.4 614.7 1759.2z"/></g><g><path class="st16" d="M613.6 1759.7 568 1734.9 569.5 1735.2 615.1 1760z"/></g><g><path class="st15" d="M614.7 1759.2 615.1 1760 613.6 1759.7z"/></g><g><path class="st17" d="M613.6 1759.7 568 1734.9 569.1 1734.4 614.7 1759.2z"/></g><g><path class="st12" d="M613.6 1766.9 568 1742.1 567.1 1735.4 612.7 1760.2z"/></g><g><path class="st17" d="M612.7 1760.2 567.1 1735.4 568 1734.9 613.6 1759.7z"/></g><g><path class="st15" d="M615.1 1760 618.6 1760.8 616.7 1763.1 613.6 1766.9 612.7 1760.2 613.6 1759.7z"/></g><g><path class="st22" d="M599.5 1788.2 553.9 1763.4V1759.5L599.5 1784.3z"/></g><g><path class="st14" d="M599.5 1784.3 553.9 1759.5 563.1 1748.2 608.7 1773z"/></g><g><path class="st27" d="M597.1 1787.3 551.5 1762.5 553.9 1763.4 599.5 1788.2z"/></g><g><path class="st12" d="M630 1740.4 584.4 1715.6 581.4 1706 627 1730.8z"/></g><g><path class="st20" d="M627 1730.8 581.4 1706 670.1 1677.6 715.7 1702.4z"/></g><g><path class="st15" d="M715.7 1702.4 640 1772.4l-10-32L627 1730.8z"/></g><g><path class="st22" d="M599.5 1784.3 553.9 1759.5V1746.2L599.5 1771z"/></g><g><path class="st16" d="M599.5 1771 553.9 1746.2 563.1 1748.2 608.7 1773z"/></g><g><path class="st15" d="M599.5 1784.3V1771L608.7 1773z"/></g><g><path class="st18" d="M610.7 1745.9 565.1 1721.1 567.2 1717.6 612.8 1742.4z"/></g><g><path class="st12" d="M612.7 1760.2 567.1 1735.4 565.1 1721.1 610.7 1745.9z"/></g><g><path class="st22" d="M599.5 1771 553.9 1746.2 554 1739.1 599.5 1763.9z"/></g><g><path class="st15" d="M613.6 1766.9 614.7 1774.2l-5-1L608.7 1773 599.5 1771V1763.9L610.7 1745.9 612.7 1760.2z"/></g><g><path class="st18" d="M599.5 1763.9 554 1739.1 565.1 1721.1 610.7 1745.9z"/></g><g><path class="st19" d="M610.2 1742.3 564.6 1717.5 567.2 1717.6 612.8 1742.4z"/></g><g><path class="st14" d="M517.4 1885.6 471.8 1860.8 551.5 1762.5 597.1 1787.3z"/></g><g><path class="st27" d="M587.5 1783.4 541.9 1758.6 551.5 1762.5 597.1 1787.3z"/></g><g><path class="st18" d="M587.5 1783.4 541.9 1758.6 554 1739.1 599.5 1763.9z"/></g><g><path class="st15" d="M597.1 1787.3 587.5 1783.4l12-19.5V1771 1784.3 1788.2z"/></g><g><path class="st18" d="M574.9 1803.9 529.3 1779.1 541.9 1758.6 587.5 1783.4z"/></g><g><path class="st12" d="M627 1730.8 581.4 1706 576.6 1690.8 622.2 1715.6z"/></g><g><path class="st21" d="M622.2 1715.6 576.6 1690.8 670.1 1677.6 715.7 1702.4z"/></g><g><path class="st15" d="M715.7 1702.4 627 1730.8 622.2 1715.6z"/></g><g><path class="st19" d="M599.6 1741.8 554 1717 564.6 1717.5 610.2 1742.3z"/></g><g><path class="st15" d="M608.7 1773 609.7 1773.2 621.7 1789.3 593.1 1815.6 517.4 1885.6 597.1 1787.3 599.5 1788.2V1784.3z"/></g><g><path class="st12" d="M610.2 1742.3 564.6 1717.5 547.9 1598.9 593.5 1623.7z"/></g><g><path class="st22" d="M599.6 1741.8 554 1717v-23L599.6 1718.8z"/></g><g><path class="st12" d="M574.9 1803.9 529.3 1779.1 500.9 1760.7 546.5 1785.5z"/></g><g><path class="st15" d="M574.9 1803.9 587.5 1783.4 597.1 1787.3 517.4 1885.6 546.5 1785.5z"/></g><g><path class="st24" d="M517.4 1885.6 471.8 1860.8 500.9 1760.7 546.5 1785.5z"/></g><g><path class="st19" d="M470.9 1736.8 425.3 1712l128.7 5L599.6 1741.8z"/></g><g><path class="st21" d="M564.4 1723.7 518.8 1698.9 554 1694 599.6 1718.8z"/></g><g><path class="st15" d="M593.5 1623.7 622.2 1715.6 627 1730.8 630 1740.4 633 1750.2 614.7 1759.2 613.6 1759.7 612.7 1760.2 610.7 1745.9 612.8 1742.4 610.2 1742.3z"/></g><g><path class="st15" d="M599.6 1741.8v-23L564.4 1723.7 593.5 1623.7 610.2 1742.3z"/></g><g><path class="st24" d="M564.4 1723.7 518.8 1698.9 547.9 1598.9 593.5 1623.7z"/></g><g><path class="st15" d="M470.9 1736.8 599.6 1741.8 610.2 1742.3 612.8 1742.4 610.7 1745.9 599.5 1763.9l-12 19.5L574.9 1803.9 546.5 1785.5z"/></g><g><path class="st12" d="M546.5 1785.5 500.9 1760.7 425.3 1712 470.9 1736.8z"/></g><g><path class="st21" d="M470.9 1736.8 425.3 1712 518.8 1698.9 564.4 1723.7z"/></g><g><path class="st15" d="M564.4 1723.7 599.6 1718.8v23L470.9 1736.8z"/></g></g><g class="st0"><g><path class="st12" d="M950.8 2129.7 905.2 2104.9 853.2 2003.6 898.7 2028.4z"/></g><g><path class="st12" d="M950.8 2129.7 905.2 2104.9 829.6 2056.2 875.2 2081z"/></g><g><path class="st13" d="M875.2 2081 829.6 2056.2 858.2 2029.8 903.7 2054.6z"/></g><g><path class="st12" d="M922 2037.7 876.5 2012.9 865.7 1978.3 911.2 2003.1z"/></g><g><path class="st14" d="M898.7 2028.4 853.2 2003.6 855.1 2001.3 900.6 2026.1z"/></g><g><path class="st14" d="M895.7 2032.2 850.1 2007.4 853.2 2003.6 898.7 2028.4z"/></g><g><path class="st12" d="M896.7 2039.6 851.1 2014.8 850.1 2007.4 895.7 2032.2z"/></g><g><path class="st12" d="M915.1 2015.5 869.5 1990.7 865.7 1978.3 911.2 2003.1z"/></g><g><path class="st16" d="M891.8 2038.5 846.2 2013.7 851.1 2014.8 896.7 2039.6z"/></g><g><path class="st12" d="M903.7 2054.6 858.2 2029.8 846.2 2013.7 891.8 2038.5z"/></g><g><path class="st16" d="M897.2 2025.4 851.6 2000.6 855.1 2001.3 900.6 2026.1z"/></g><g><path class="st15" d="M911.2 2003.1 922 2037.7 950.8 2129.7 898.7 2028.4 900.6 2026.1 897.2 2025.4 896.8 2024.5 915.1 2015.5z"/></g><g><path class="st15" d="M890.7 2038.3 891.8 2038.5 903.7 2054.6 875.2 2081 799.5 2150.9 879.2 2052.6 881.6 2053.6v-4z"/></g><g><path class="st15" d="M950.8 2129.7 875.2 2081 903.7 2054.6 891.8 2038.5 896.7 2039.6 895.7 2032.2 898.7 2028.4z"/></g><g><path class="st16" d="M890.7 2038.3 845.2 2013.5 846.2 2013.7 891.8 2038.5z"/></g><g><path class="st17" d="M896.8 2024.5 851.2 1999.7 869.5 1990.7 915.1 2015.5z"/></g><g><path class="st12" d="M897.2 2025.4 851.6 2000.6 851.2 1999.7 896.8 2024.5z"/></g><g><path class="st16" d="M895.7 2025.1 850.1 2000.3 851.6 2000.6 897.2 2025.4z"/></g><g><path class="st15" d="M896.8 2024.5 897.2 2025.4 895.7 2025.1z"/></g><g><path class="st17" d="M895.7 2025.1 850.1 2000.3 851.2 1999.7 896.8 2024.5z"/></g><g><path class="st12" d="M895.7 2032.2 850.1 2007.4 849.2 2000.7 894.8 2025.5z"/></g><g><path class="st17" d="M894.8 2025.5 849.2 2000.7 850.1 2000.3 895.7 2025.1z"/></g><g><path class="st12" d="M894.8 2025.5 849.2 2000.7 847.2 1986.4 892.7 2011.2z"/></g><g><path class="st15" d="M897.2 2025.4 900.6 2026.1 898.7 2028.4 895.7 2032.2 894.8 2025.5 895.7 2025.1z"/></g><g><path class="st22" d="M881.6 2053.6 836 2028.8v-4L881.6 2049.6z"/></g><g><path class="st14" d="M881.6 2049.6 836 2024.8 845.2 2013.5 890.7 2038.3z"/></g><g><path class="st27" d="M879.2 2052.6 833.6 2027.8 836 2028.8 881.6 2053.6z"/></g><g><path class="st12" d="M911.2 2003.1 865.7 1978.3 863.5 1971.4 909.1 1996.2z"/></g><g><path class="st20" d="M909.1 1996.2 863.5 1971.4 952.2 1943 997.8 1967.8z"/></g><g><path class="st15" d="M997.8 1967.8 922 2037.7 911.2 2003.1 909.1 1996.2z"/></g><g><path class="st22" d="M881.6 2049.6 836 2024.8V2011.6L881.6 2036.4z"/></g><g><path class="st16" d="M881.6 2036.4 836 2011.6 845.2 2013.5 890.7 2038.3z"/></g><g><path class="st15" d="M881.6 2049.6V2036.4L890.7 2038.3z"/></g><g><path class="st18" d="M892.7 2011.2 847.2 1986.4 849.3 1982.9 894.9 2007.7z"/></g><g><path class="st22" d="M881.6 2036.4 836 2011.6V2004.4L881.6 2029.2z"/></g><g><path class="st15" d="M895.7 2032.2 896.7 2039.6 891.8 2038.5 890.7 2038.3 881.6 2036.4V2029.2L892.7 2011.2 894.8 2025.5z"/></g><g><path class="st18" d="M881.6 2029.2 836 2004.4 847.2 1986.4 892.7 2011.2z"/></g><g><path class="st19" d="M892.2 2007.6 846.7 1982.8 849.3 1982.9 894.9 2007.7z"/></g><g><path class="st14" d="M799.5 2150.9 753.9 2126.1 833.6 2027.8 879.2 2052.6z"/></g><g><path class="st27" d="M869.6 2048.8 824 2024 833.6 2027.8 879.2 2052.6z"/></g><g><path class="st18" d="M869.6 2048.8 824 2024 836 2004.4 881.6 2029.2z"/></g><g><path class="st15" d="M879.2 2052.6 869.6 2048.8 881.6 2029.2V2036.4 2049.6v4z"/></g><g><path class="st18" d="M857 2069.2 811.4 2044.4 824 2024 869.6 2048.8z"/></g><g><path class="st12" d="M909.1 1996.2 863.5 1971.4 858.7 1956.1 904.3 1980.9z"/></g><g><path class="st21" d="M904.3 1980.9 858.7 1956.1 952.2 1943 997.8 1967.8z"/></g><g><path class="st15" d="M997.8 1967.8 909.1 1996.2 904.3 1980.9z"/></g><g><path class="st19" d="M881.7 2007.2 836.1 1982.4 846.7 1982.8 892.2 2007.6z"/></g><g><path class="st12" d="M892.2 2007.6 846.7 1982.8 830 1864.2 875.6 1889z"/></g><g><path class="st22" d="M881.7 2007.2 836.1 1982.4V1959.3L881.7 1984.1z"/></g><g><path class="st12" d="M857 2069.2 811.4 2044.4 783 2026.1 828.5 2050.9z"/></g><g><path class="st15" d="M857 2069.2 869.6 2048.8 879.2 2052.6 799.5 2150.9l29-1e2z"/></g><g><path class="st24" d="M799.5 2150.9 753.9 2126.1 783 2026.1 828.5 2050.9z"/></g><g><path class="st19" d="M753 2002.2 707.4 1977.4 836.1 1982.4 881.7 2007.2z"/></g><g><path class="st21" d="M846.5 1989.1 800.9 1964.3 836.1 1959.3 881.7 1984.1z"/></g><g><path class="st15" d="M875.6 1889 904.3 1980.9 909.1 1996.2 911.2 2003.1 915.1 2015.5 896.8 2024.5 895.7 2025.1 894.8 2025.5 892.7 2011.2 894.9 2007.7 892.2 2007.6z"/></g><g><path class="st15" d="M881.7 2007.2V1984.1L846.5 1989.1 875.6 1889 892.2 2007.6z"/></g><g><path class="st24" d="M846.5 1989.1 800.9 1964.3 830 1864.2 875.6 1889z"/></g><g><path class="st15" d="M753 2002.2 881.7 2007.2 892.2 2007.6 894.9 2007.7 892.7 2011.2 881.6 2029.2 869.6 2048.8 857 2069.2 828.5 2050.9z"/></g><g><path class="st12" d="M828.5 2050.9 783 2026.1 707.4 1977.4 753 2002.2z"/></g><g><path class="st21" d="M753 2002.2 707.4 1977.4 800.9 1964.3 846.5 1989.1z"/></g><g><path class="st15" d="M846.5 1989.1 881.7 1984.1V2007.2L753 2002.2z"/></g></g><g class="st0"><g><path class="st12" d="M2081.7 1153.2 2036.1 1128.4 2025.3 1093.8 2070.9 1118.6z"/></g><g><path class="st12" d="M2110.4 1245.1 2064.8 1220.3 2004.9 1103.7 2050.5 1128.5z"/></g><g><path class="st12" d="M2110.4 1245.1 2064.8 1220.3 1989.3 1171.6 2034.9 1196.4z"/></g><g><path class="st17" d="M2050.5 1128.5 2004.9 1103.7 2025.3 1093.8 2070.9 1118.6z"/></g><g><path class="st15" d="M2045.6 1119 2157.5 1083.2 2081.7 1153.2 2070.9 1118.6 2050.5 1128.5z"/></g><g><path class="st15" d="M2081.7 1153.2 2110.4 1245.1 2050.5 1128.5 2070.9 1118.6z"/></g><g><path class="st20" d="M2045.6 1119 2e3 1094.2 2111.9 1058.4 2157.5 1083.2z"/></g><g><path class="st21" d="M2063.9 1096.3 2018.4 1071.5 2111.9 1058.4 2157.5 1083.2z"/></g><g><path class="st12" d="M2050.5 1128.5 2004.9 1103.7 2e3 1094.2 2045.6 1119z"/></g><g><path class="st12" d="M2045.6 1119 2e3 1094.2 1998.8 1091.8 2044.4 1116.6z"/></g><g><path class="st18" d="M2042.2 1120.1 1996.6 1095.3 1998.8 1091.8 2044.4 1116.6z"/></g><g><path class="st18" d="M2031.1 1138.1 1985.5 1113.3 1996.6 1095.3 2042.2 1120.1z"/></g><g><path class="st18" d="M2019.1 1157.6 1973.5 1132.8l12-19.5L2031.1 1138.1z"/></g><g><path class="st18" d="M2006.4 1178.1 1960.9 1153.3 1973.5 1132.8 2019.1 1157.6z"/></g><g><path class="st12" d="M2034.9 1196.4 1989.3 1171.6 1960.9 1153.3 2006.4 1178.1z"/></g><g><path class="st15" d="M2044.4 1116.6 2045.6 1119 2050.5 1128.5 2110.4 1245.1 2034.9 1196.4 2006.4 1178.1 2019.1 1157.6l12-19.5L2042.2 1120.1z"/></g><g><path class="st21" d="M2048.4 1098.5 2002.9 1073.7 2018.4 1071.5 2063.9 1096.3z"/></g><g><path class="st17" d="M2024.8 1141.2 1979.2 1116.4 1985.5 1113.3 2031.1 1138.1z"/></g><g><path class="st20" d="M2028.7 1124.4 1983.1 1099.6 1996.6 1095.3 2042.2 1120.1z"/></g><g><path class="st22" d="M2028.7 1124.4 1983.1 1099.6V1098.5L2028.7 1123.3z"/></g><g><path class="st22" d="M2028.7 1123.3 1983.1 1098.5V1097.3L2028.7 1122.1z"/></g><g><path class="st15" d="M2027.8 1122.1H2028.7V1123.3z"/></g><g><path class="st12" d="M2028.7 1123.3 1983.1 1098.5 1982.2 1097.3 2027.8 1122.1z"/></g><g><path class="st19" d="M2027.8 1122.1 1982.2 1097.3H1983.1L2028.7 1122.1z"/></g><g><path class="st12" d="M2019.1 1157.6 1973.5 1132.8 1966 1125.6 2011.5 1150.4z"/></g><g><path class="st12" d="M2011.5 1150.4 1966 1125.6 1964.1 1123.8 2009.6 1148.6z"/></g><g><path class="st23" d="M1959.1 1266.3 1913.5 1241.5 1966 1125.6 2011.5 1150.4z"/></g><g><path class="st24" d="M1959.1 1266.3 1913.5 1241.5 1942.6 1141.5 1988.2 1166.3z"/></g><g><path class="st12" d="M2024.8 1141.2 1979.2 1116.4 1973.6 1108.8 2019.2 1133.6z"/></g><g><path class="st17" d="M2013.1 1146.9 1967.5 1122.1 1979.2 1116.4 2024.8 1141.2z"/></g><g><path class="st23" d="M2013.1 1146.9 1967.5 1122.1 1973.6 1108.8 2019.2 1133.6z"/></g><g><path class="st12" d="M2019.2 1133.6 1973.6 1108.8 1972.9 1107.9 2018.5 1132.7z"/></g><g><path class="st17" d="M2009.6 1148.6 1964.1 1123.8 1967.5 1122.1 2013.1 1146.9z"/></g><g><path class="st15" d="M1999.1 1128.6 2018.5 1132.7 2019.2 1133.6 2013.1 1146.9 2009.6 1148.6 2011.5 1150.4 1959.1 1266.3 1988.2 1166.3z"/></g><g><path class="st15" d="M2006.4 1178.1 2034.9 1196.4 1959.1 1266.3 2011.5 1150.4 2019.1 1157.6z"/></g><g><path class="st15" d="M2019.2 1133.6 2024.8 1141.2 2013.1 1146.9z"/></g><g><path class="st20" d="M2022.4 1126.4 1976.8 1101.6 1983.1 1099.6 2028.7 1124.4z"/></g><g><path class="st23" d="M2022.4 1126.4 1976.8 1101.6l2-4.5L2024.4 1121.9z"/></g><g><path class="st22" d="M2028.7 1122.1 1983.1 1097.3 1983.2 1076.5 2028.8 1101.3z"/></g><g><path class="st12" d="M2027.8 1122.1 1982.2 1097.3 1980.1 1094.4 2025.7 1119.2z"/></g><g><path class="st15" d="M2028.7 1123.3V1124.4L2022.4 1126.4l2-4.5L2025.7 1119.2 2027.8 1122.1z"/></g><g><path class="st23" d="M2024.4 1121.9 1978.8 1097.1 1980.1 1094.4 2025.7 1119.2z"/></g><g><path class="st15" d="M2013.1 1146.9 2024.8 1141.2 2031.1 1138.1l-12 19.5L2011.5 1150.4 2009.6 1148.6z"/></g><g><path class="st20" d="M2015.5 1128.6 1969.9 1103.8 1976.8 1101.6 2022.4 1126.4z"/></g><g><path class="st15" d="M2022.4 1126.4 2028.7 1124.4 2042.2 1120.1 2031.1 1138.1 2024.8 1141.2 2019.2 1133.6 2018.5 1132.7 2015.5 1128.6z"/></g><g><path class="st12" d="M2018.5 1132.7 1972.9 1107.9 1969.9 1103.8 2015.5 1128.6z"/></g><g><path class="st15" d="M2157.5 1083.2 2045.6 1119 2044.4 1116.6 2042.2 1120.1 2028.7 1124.4V1123.3 1122.1L2028.8 1101.3 2048.4 1098.5 2063.9 1096.3z"/></g><g><path class="st21" d="M2028.8 1101.3 1983.2 1076.5 2002.9 1073.7 2048.4 1098.5z"/></g><g><path class="st16" d="M1999.1 1128.6 1953.5 1103.8 1972.9 1107.9 2018.5 1132.7z"/></g><g><path class="st24" d="M1988.2 1166.3 1942.6 1141.5 1953.5 1103.8 1999.1 1128.6z"/></g><g><path class="st21" d="M2006.2 1104.5 1960.6 1079.7 1983.2 1076.5 2028.8 1101.3z"/></g><g><path class="st12" d="M2048.4 1098.5 2002.9 1073.7 1989.6 979.6 2035.2 1004.4z"/></g><g><path class="st15" d="M2035.2 1004.4 2048.4 1098.5 2028.8 1101.3 2006.2 1104.5z"/></g><g><path class="st24" d="M2006.2 1104.5 1960.6 1079.7 1989.6 979.6 2035.2 1004.4z"/></g><g><path class="st15" d="M2035.2 1004.4 2063.9 1096.3 2048.4 1098.5z"/></g><g><path class="st19" d="M1912.7 1117.6 1867.1 1092.8 1978.8 1097.1 2024.4 1121.9z"/></g><g><path class="st15" d="M2028.8 1101.3 2028.7 1122.1H2027.8L2025.7 1119.2 2024.4 1121.9 1912.7 1117.6 2006.2 1104.5z"/></g><g><path class="st21" d="M1912.7 1117.6 1867.1 1092.8 1960.6 1079.7 2006.2 1104.5z"/></g><g><path class="st15" d="M1988.2 1166.3 1912.7 1117.6 2024.4 1121.9l-2 4.5L2015.5 1128.6 2018.5 1132.7 1999.1 1128.6z"/></g><g><path class="st12" d="M1988.2 1166.3 1942.6 1141.5 1867.1 1092.8 1912.7 1117.6z"/></g></g><g class="st0"><g><path class="st13" d="M1678.6 502.5 1633 477.7 1651.3 460.8 1696.9 485.6z"/></g><g><path class="st13" d="M1662.7 517.3 1617.1 492.5 1633 477.7 1678.6 502.5z"/></g><g><path class="st15" d="M1696.9 485.6 1725.7 577.5 1662.7 517.3 1678.6 502.5z"/></g><g><path class="st12" d="M1725.7 577.5 1680.1 552.7 1617.1 492.5 1662.7 517.3z"/></g><g><path class="st15" d="M1662.7 517.3 1725.7 577.5 1650.1 528.9z"/></g><g><path class="st13" d="M1650.1 528.9 1604.5 504.1 1617.1 492.5 1662.7 517.3z"/></g><g><path class="st12" d="M1725.7 577.5 1680.1 552.7 1604.5 504.1 1650.1 528.9z"/></g><g><path class="st12" d="M1671.6 487.4 1626 462.7 1625.6 459.8 1671.2 484.6z"/></g><g><path class="st26" d="M1671.2 484.6 1625.6 459.8 1727.1 390.9 1772.7 415.7z"/></g><g><path class="st16" d="M1668.1 486.7 1622.5 461.9 1626 462.7 1671.6 487.4z"/></g><g><path class="st12" d="M1678.6 502.5 1633 477.7 1621.7 462.5 1667.3 487.3z"/></g><g><path class="st15" d="M1772.7 415.7 1696.9 485.6 1678.6 502.5 1667.3 487.3 1668.1 486.7 1671.6 487.4 1671.2 484.6z"/></g><g><path class="st26" d="M1667.3 487.3 1621.7 462.5 1622.5 461.9 1668.1 486.7z"/></g><g><path class="st14" d="M1670.6 480.1 1625 455.3 1629.9 449.2 1675.5 474z"/></g><g><path class="st12" d="M1671.2 484.6 1625.6 459.8 1625 455.3 1670.6 480.1z"/></g><g><path class="st15" d="M1667.3 487.3 1666.7 486.4 1668.1 486.7z"/></g><g><path class="st16" d="M1666.7 486.4 1621.1 461.6 1622.5 461.9 1668.1 486.7z"/></g><g><path class="st12" d="M1667.3 487.3 1621.7 462.5 1621.1 461.6 1666.7 486.4z"/></g><g><path class="st15" d="M1671.2 484.6 1671.6 487.4 1668.1 486.7 1666.7 486.4 1666.1 485.6l4.5-5.5z"/></g><g><path class="st12" d="M1666.7 486.4 1621.1 461.6 1620.5 460.8 1666.1 485.6z"/></g><g><path class="st14" d="M1666.1 485.6 1620.5 460.8l4.5-5.5L1670.6 480.1z"/></g><g><path class="st16" d="M1670.6 472.9 1625 448.1 1629.9 449.2 1675.5 474z"/></g><g><path class="st17" d="M1670.6 472.9 1625 448.1 1644.4 438.6 1690 463.4z"/></g><g><path class="st22" d="M1656.5 501.4 1610.9 476.6V472.7L1656.5 497.5z"/></g><g><path class="st14" d="M1656.5 497.5 1610.9 472.7 1620.5 460.8 1666.1 485.6z"/></g><g><path class="st16" d="M1669.5 472.7 1624 447.9 1625 448.1 1670.6 472.9z"/></g><g><path class="st27" d="M1654 500.5 1608.5 475.7 1610.9 476.6 1656.5 501.4z"/></g><g><path class="st18" d="M1667.6 459.1 1622 434.3 1624.2 430.8 1669.8 455.6z"/></g><g><path class="st12" d="M1669.5 472.7 1624 447.9 1622 434.3 1667.6 459.1z"/></g><g><path class="st16" d="M1660.4 470.8 1614.8 446 1624 447.9 1669.5 472.7z"/></g><g><path class="st15" d="M1667.6 459.1 1669.5 472.7 1660.4 470.8z"/></g><g><path class="st18" d="M1660.4 470.8 1614.8 446 1622 434.3 1667.6 459.1z"/></g><g><path class="st18" d="M1656.5 477.1 1610.9 452.3 1614.8 446 1660.4 470.8z"/></g><g><path class="st22" d="M1656.5 477.1 1610.9 452.3 1611 430.3 1656.6 455.1z"/></g><g><path class="st22" d="M1656.5 497.5 1610.9 472.7V452.3L1656.5 477.1z"/></g><g><path class="st19" d="M1667.1 455.5 1621.5 430.7 1624.2 430.8 1669.8 455.6z"/></g><g><path class="st14" d="M1574.4 598.8 1528.8 574 1608.5 475.7 1654 500.5z"/></g><g><path class="st27" d="M1644.5 496.6 1598.9 471.8 1608.5 475.7 1654 500.5z"/></g><g><path class="st18" d="M1631.9 517.1 1586.3 492.3 1598.9 471.8 1644.5 496.6z"/></g><g><path class="st12" d="M1690 463.4 1644.4 438.6 1633.6 404 1679.2 428.8z"/></g><g><path class="st19" d="M1656.6 455.1 1611 430.3 1621.5 430.7 1667.1 455.5z"/></g><g><path class="st21" d="M1679.2 428.8 1633.6 404 1727.1 390.9 1772.7 415.7z"/></g><g><path class="st12" d="M1667.1 455.5 1621.5 430.7 1604.9 312.1 1650.5 336.9z"/></g><g><path class="st22" d="M1656.6 455.1 1611 430.3V407.2L1656.6 432z"/></g><g><path class="st27" d="M1527.9 450.1 1482.3 425.3 1598.9 471.8 1644.5 496.6z"/></g><g><path class="st15" d="M1656.6 432V455.1L1656.5 477.1V497.5 501.4L1654 500.5 1644.5 496.6 1527.9 450.1 1621.4 436.9z"/></g><g><path class="st15" d="M1670.6 472.9 1675.5 474 1670.6 480.1l-4.5 5.5L1656.5 497.5V477.1L1660.4 470.8 1669.5 472.7z"/></g><g><path class="st15" d="M1679.2 428.8 1772.7 415.7 1671.2 484.6 1670.6 480.1 1675.5 474 1670.6 472.9 1690 463.4z"/></g><g><path class="st15" d="M1667.1 455.5 1669.8 455.6 1667.6 459.1 1660.4 470.8 1656.5 477.1 1656.6 455.1z"/></g><g><path class="st15" d="M1666.1 485.6 1666.7 486.4 1667.3 487.3 1678.6 502.5 1662.7 517.3 1650.1 528.9 1574.4 598.8 1654 500.5 1656.5 501.4V497.5z"/></g><g><path class="st12" d="M1631.9 517.1 1586.3 492.3 1557.8 474 1603.4 498.8z"/></g><g><path class="st24" d="M1574.4 598.8 1528.8 574l29-1e2L1603.4 498.8z"/></g><g><path class="st15" d="M1631.9 517.1 1644.5 496.6 1654 500.5 1574.4 598.8 1603.4 498.8z"/></g><g><path class="st21" d="M1621.4 436.9 1575.8 412.1 1611 407.2 1656.6 432z"/></g><g><path class="st15" d="M1650.5 336.9 1679.2 428.8 1690 463.4 1670.6 472.9 1669.5 472.7 1667.6 459.1 1669.8 455.6 1667.1 455.5z"/></g><g><path class="st24" d="M1621.4 436.9 1575.8 412.1 1604.9 312.1 1650.5 336.9z"/></g><g><path class="st15" d="M1667.1 455.5 1656.6 455.1V432L1621.4 436.9 1650.5 336.9z"/></g><g><path class="st15" d="M1603.4 498.8 1527.9 450.1 1644.5 496.6 1631.9 517.1z"/></g><g><path class="st21" d="M1527.9 450.1 1482.3 425.3 1575.8 412.1 1621.4 436.9z"/></g><g><path class="st12" d="M1603.4 498.8 1557.8 474 1482.3 425.3 1527.9 450.1z"/></g></g><g class="st0"><g><path class="st13" d="M1950.5 777.3 1904.9 752.5 1933.4 726.2 1979 751z"/></g><g><path class="st12" d="M2007.7 842.9 1962.1 818.1 1882.8 742.1 1928.4 766.9z"/></g><g><path class="st12" d="M2007.7 842.9 1962.1 818.1 1886.6 769.4 1932.2 794.2z"/></g><g><path class="st12" d="M1953.7 752.8 1908.1 728 1907.7 725.2 1953.3 750z"/></g><g><path class="st26" d="M1953.3 750 1907.7 725.2l101.5-69L2054.8 681z"/></g><g><path class="st16" d="M1950.2 752.1 1904.6 727.3 1908.1 728 1953.7 752.8z"/></g><g><path class="st17" d="M1951.7 738.7 1906.1 713.9 1926.5 704 1972.1 728.8z"/></g><g><path class="st12" d="M1953.3 750 1907.7 725.2 1906.1 713.9 1951.7 738.7z"/></g><g><path class="st12" d="M1950.5 777.3 1904.9 752.5 1893 736.4 1938.5 761.2z"/></g><g><path class="st22" d="M1938.5 766.8 1893 742V736.4L1938.5 761.2z"/></g><g><path class="st22" d="M1938.5 761.2 1893 736.4V735.2L1938.6 760z"/></g><g><path class="st15" d="M2054.8 681 1979 751 1950.5 777.3 1938.5 761.2 1938.6 760 1950.2 752.1 1953.7 752.8 1953.3 750z"/></g><g><path class="st26" d="M1938.6 760 1893 735.2 1904.6 727.3 1950.2 752.1z"/></g><g><path class="st27" d="M1932.2 764.3 1886.7 739.5 1893 742 1938.5 766.8z"/></g><g><path class="st15" d="M1938.6 760V749.6L1950.2 752.1z"/></g><g><path class="st16" d="M1938.6 749.6 1893 724.8 1904.6 727.3 1950.2 752.1z"/></g><g><path class="st22" d="M1938.6 760 1893 735.2V724.8L1938.6 749.6z"/></g><g><path class="st26" d="M1928.4 766.9 1882.8 742.1 1886.7 739.5 1932.2 764.3z"/></g><g><path class="st26" d="M1925.9 768.6 1880.4 743.8 1882.8 742.1 1928.4 766.9z"/></g><g><path class="st15" d="M1979 751 2007.7 842.9 1928.4 766.9 1932.2 764.3 1938.5 766.8V761.2L1950.5 777.3z"/></g><g><path class="st22" d="M1925.9 768.6 1880.4 743.8v-4L1926 764.6z"/></g><g><path class="st22" d="M1926 764.6 1880.4 739.8V738.1L1926 762.9z"/></g><g><path class="st18" d="M1926 762.9 1880.4 738.1 1881 737.2 1926.5 762z"/></g><g><path class="st18" d="M1925.3 764 1879.7 739.2 1880.4 738.1 1926 762.9z"/></g><g><path class="st15" d="M1926 764.6 1925.3 764 1926 762.9z"/></g><g><path class="st12" d="M1926 764.6 1880.4 739.8 1879.7 739.2 1925.3 764z"/></g><g><path class="st18" d="M1913.9 782.4 1868.4 757.6 1879.7 739.2 1925.3 764z"/></g><g><path class="st27" d="M1914.3 757.1 1868.7 732.3 1881 737.2 1926.5 762z"/></g><g><path class="st17" d="M1910.8 758.8 1865.2 734 1868.7 732.3 1914.3 757.1z"/></g><g><path class="st16" d="M1932.3 748.3 1886.7 723.5 1893 724.8 1938.6 749.6z"/></g><g><path class="st17" d="M1932.3 748.3 1886.7 723.5 1906.1 713.9 1951.7 738.7z"/></g><g><path class="st12" d="M1972.1 728.8 1926.5 704 1915.7 669.3 1961.3 694.1z"/></g><g><path class="st21" d="M1961.3 694.1 1915.7 669.3 2009.2 656.2 2054.8 681z"/></g><g><path class="st17" d="M1914.3 757.1 1868.7 732.3 1886.7 723.5 1932.3 748.3z"/></g><g><path class="st15" d="M1932.5 602.2 1961.3 694.1 1972.1 728.8 1951.7 738.7 1932.3 748.3 1914.3 757.1 1910.8 758.8 1911.2 755.9 1912.9 744.2z"/></g><g><path class="st15" d="M1932.3 748.3 1938.6 749.6V760L1938.5 761.2V766.8L1932.2 764.3 1926.5 762 1914.3 757.1z"/></g><g><path class="st25" d="M1910.8 758.8 1865.2 734 1865.7 731.1 1911.2 755.9z"/></g><g><path class="st12" d="M1913.9 782.4 1868.4 757.6 1858.2 751.1 1903.8 775.9z"/></g><g><path class="st12" d="M1932.2 794.2 1886.6 769.4 1858.2 751.1 1903.8 775.9z"/></g><g><path class="st25" d="M1911.2 755.9 1865.7 731.1 1867.3 719.4 1912.9 744.2z"/></g><g><path class="st16" d="M1892.5 739.9 1846.9 715.1 1867.3 719.4 1912.9 744.2z"/></g><g><path class="st25" d="M1912.9 744.2 1867.3 719.4 1887 577.4 1932.5 602.2z"/></g><g><path class="st24" d="M1892.5 739.9 1846.9 715.1 1857.9 677.5 1903.5 702.3z"/></g><g><path class="st15" d="M1953.3 750 1953.7 752.8 1950.2 752.1 1938.6 749.6 1932.3 748.3 1951.7 738.7z"/></g><g><path class="st15" d="M1903.5 702.3 1932.5 602.2 1912.9 744.2 1892.5 739.9z"/></g><g><path class="st27" d="M1810 715.4 1764.4 690.6 1865.7 731.1 1911.2 755.9z"/></g><g><path class="st15" d="M1903.5 702.3 1892.5 739.9 1912.9 744.2 1911.2 755.9 1810 715.4z"/></g><g><path class="st15" d="M1810 715.4 1911.2 755.9 1910.8 758.8 1914.3 757.1 1926.5 762 1926 762.9 1925.3 764 1913.9 782.4 1903.8 775.9 1898 772.2 1885.5 764.1z"/></g><g><path class="st15" d="M1926 762.9 1926.5 762 1932.2 764.3 1928.4 766.9 1925.9 768.6 1926 764.6z"/></g><g><path class="st15" d="M1961.3 694.1 2054.8 681 1953.3 750 1951.7 738.7 1972.1 728.8z"/></g><g><path class="st12" d="M1903.8 775.9 1858.2 751.1 1852.4 747.4 1898 772.2z"/></g><g><path class="st15" d="M1898 772.2 1903.8 775.9 1932.2 794.2 1856.4 864.1z"/></g><g><path class="st15" d="M1925.3 764 1926 764.6 1925.9 768.6 1928.4 766.9 2007.7 842.9 1932.2 794.2 1903.8 775.9 1913.9 782.4z"/></g><g><path class="st23" d="M1856.4 864.1 1810.8 839.3 1852.4 747.4 1898 772.2z"/></g><g><path class="st12" d="M1898 772.2 1852.4 747.4 1839.9 739.3 1885.5 764.1z"/></g><g><path class="st24" d="M1856.4 864.1 1810.8 839.3 1839.9 739.3 1885.5 764.1z"/></g><g><path class="st15" d="M1885.5 764.1 1898 772.2 1856.4 864.1z"/></g><g><path class="st24" d="M1903.5 702.3 1857.9 677.5 1887 577.4 1932.5 602.2z"/></g><g><path class="st12" d="M1885.5 764.1 1839.9 739.3 1764.4 690.6 1810 715.4z"/></g><g><path class="st21" d="M1810 715.4 1764.4 690.6 1857.9 677.5 1903.5 702.3z"/></g></g><g class="st0"><g><path class="st13" d="M1949 1610.8 1903.4 1586 1931.9 1559.6 1977.5 1584.4z"/></g><g><path class="st12" d="M2006.2 1676.3 1960.6 1651.5 1881.2 1575.6 1926.8 1600.4z"/></g><g><path class="st12" d="M2006.2 1676.3 1960.6 1651.5 1885.1 1602.9 1930.6 1627.7z"/></g><g><path class="st12" d="M1949 1610.8 1903.4 1586 1890.8 1569.1 1936.4 1593.8z"/></g><g><path class="st12" d="M1936.4 1593.8 1890.8 1569.1 1878.9 1552.9 1924.4 1577.7z"/></g><g><path class="st26" d="M1926.8 1600.4 1881.2 1575.6 1890.8 1569.1 1936.4 1593.8z"/></g><g><path class="st26" d="M1924.4 1602 1878.8 1577.2 1881.2 1575.6 1926.8 1600.4z"/></g><g><path class="st22" d="M1924.4 1602 1878.8 1577.2V1573.3L1924.4 1598.1z"/></g><g><path class="st22" d="M1924.4 1598.1 1878.8 1573.3V1560L1924.4 1584.8z"/></g><g><path class="st12" d="M1924.4 1598.1 1878.8 1573.3 1869.7 1564.5 1915.3 1589.3z"/></g><g><path class="st15" d="M1915.3 1589.3 1924.4 1598.1V1602L1926.8 1600.4 2006.2 1676.3 1930.6 1627.7 1902.2 1609.3l12-19.5z"/></g><g><path class="st22" d="M1924.4 1584.8 1878.8 1560 1878.9 1552.9 1924.4 1577.7z"/></g><g><path class="st17" d="M1915.3 1589.3 1869.7 1564.5 1878.8 1560 1924.4 1584.8z"/></g><g><path class="st17" d="M1914.2 1589.8 1868.6 1565.1 1869.7 1564.5 1915.3 1589.3z"/></g><g><path class="st18" d="M1902.2 1609.3 1856.6 1584.5 1868.6 1565.1 1914.2 1589.8z"/></g><g><path class="st17" d="M1909.3 1592.3 1863.7 1567.5 1868.6 1565.1 1914.2 1589.8z"/></g><g><path class="st25" d="M1910.3 1584.6 1864.8 1559.8 1865.7 1552.9 1911.3 1577.7z"/></g><g><path class="st12" d="M1910.3 1584.6 1864.8 1559.8 1861.7 1556.9 1907.3 1581.7z"/></g><g><path class="st12" d="M1930.6 1627.7 1885.1 1602.9 1856.6 1584.5 1902.2 1609.3z"/></g><g><path class="st25" d="M1909.3 1592.3 1863.7 1567.5 1864.8 1559.8 1910.3 1584.6z"/></g><g><path class="st17" d="M1908.9 1578.2 1863.3 1553.4 1864.8 1552.7 1910.4 1577.5z"/></g><g><path class="st15" d="M1909.3 1577.2 1910.4 1577.5 1908.9 1578.2z"/></g><g><path class="st12" d="M1924.4 1577.7 1878.9 1552.9 1867.8 1538 1913.4 1562.8z"/></g><g><path class="st25" d="M1911.3 1577.7 1865.7 1552.9 1867.8 1538 1913.4 1562.8z"/></g><g><path class="st16" d="M1910.4 1577.5 1864.8 1552.7 1865.7 1552.9 1911.3 1577.7z"/></g><g><path class="st23" d="M1854.9 1697.6 1809.3 1672.8 1861.7 1556.9 1907.3 1581.7z"/></g><g><path class="st23" d="M1908.9 1578.2 1863.3 1553.4 1863.7 1552.5 1909.3 1577.2z"/></g><g><path class="st16" d="M1909.3 1577.2 1863.7 1552.5 1864.8 1552.7 1910.4 1577.5z"/></g><g><path class="st12" d="M1907.3 1581.7 1861.7 1556.9 1859.8 1555.1 1905.4 1579.9z"/></g><g><path class="st17" d="M1905.4 1579.9 1859.8 1555.1 1863.3 1553.4 1908.9 1578.2z"/></g><g><path class="st16" d="M1891 1573.4 1845.4 1548.6 1863.7 1552.5 1909.3 1577.2z"/></g><g><path class="st15" d="M1894.9 1559.9 1891 1573.4 1909.3 1577.2 1908.9 1578.2 1905.4 1579.9 1907.3 1581.7 1854.9 1697.6 1884 1597.6z"/></g><g><path class="st15" d="M1908.9 1578.2 1910.4 1577.5 1911.3 1577.7 1910.3 1584.6 1907.3 1581.7 1905.4 1579.9z"/></g><g><path class="st15" d="M1913.4 1562.8 1911.3 1577.7 1910.3 1584.6 1909.3 1592.3 1914.2 1589.8 1915.3 1589.3 1924.4 1584.8V1577.7z"/></g><g><path class="st15" d="M2053.2 1514.5 1977.5 1584.4 1949 1610.8 1936.4 1593.8 1924.4 1577.7 1913.4 1562.8 1911.2 1559.9 1913.9 1559 1924.5 1555.6z"/></g><g><path class="st15" d="M1977.5 1584.4 2006.2 1676.3 1926.8 1600.4 1936.4 1593.8 1949 1610.8z"/></g><g><path class="st20" d="M1924.5 1555.6 1878.9 1530.8 2007.6 1489.7 2053.2 1514.5z"/></g><g><path class="st21" d="M1959.7 1527.6 1914.1 1502.8 2007.6 1489.7 2053.2 1514.5z"/></g><g><path class="st15" d="M1924.4 1584.8V1577.7L1936.4 1593.8 1926.8 1600.4 1924.4 1602V1598.1z"/></g><g><path class="st15" d="M1924.4 1598.1 1915.3 1589.3 1924.4 1584.8z"/></g><g><path class="st24" d="M1854.9 1697.6 1809.3 1672.8 1838.4 1572.8 1884 1597.6z"/></g><g><path class="st15" d="M1902.2 1609.3 1930.6 1627.7 1854.9 1697.6 1907.3 1581.7 1910.3 1584.6 1909.3 1592.3 1914.2 1589.8z"/></g><g><path class="st20" d="M1913.9 1559 1868.3 1534.2 1878.9 1530.8 1924.5 1555.6z"/></g><g><path class="st12" d="M1913.4 1562.8 1867.8 1538 1865.6 1535.1 1911.2 1559.9z"/></g><g><path class="st20" d="M1911.2 1559.9 1865.6 1535.1 1868.3 1534.2 1913.9 1559z"/></g><g><path class="st21" d="M1924.5 1532.6 1878.9 1507.8 1914.1 1502.8 1959.7 1527.6z"/></g><g><path class="st22" d="M1924.5 1555.6 1878.9 1530.8v-23L1924.5 1532.6z"/></g><g><path class="st15" d="M1959.7 1527.6 2053.2 1514.5 1924.5 1555.6v-23z"/></g><g><path class="st24" d="M1891 1573.4 1845.4 1548.6 1849.3 1535.1 1894.9 1559.9z"/></g><g><path class="st24" d="M1884 1597.6 1838.4 1572.8 1849.3 1535.1 1894.9 1559.9z"/></g><g><path class="st24" d="M1894.9 1559.9 1849.3 1535.1 1851.5 1527.5 1897.1 1552.3z"/></g><g><path class="st25" d="M1913.9 1559 1868.3 1534.2 1885.4 1410.9 1931 1435.7z"/></g><g><path class="st24" d="M1897.1 1552.3 1851.5 1527.5 1856.3 1510.9 1901.9 1535.7z"/></g><g><path class="st15" d="M1931 1435.7 1959.7 1527.6 1924.5 1532.6v23L1913.9 1559z"/></g><g><path class="st24" d="M1901.9 1535.7 1856.3 1510.9 1885.4 1410.9 1931 1435.7z"/></g><g><path class="st15" d="M1931 1435.7 1913.9 1559 1911.2 1559.9 1913.4 1562.8 1911.3 1577.7 1910.4 1577.5 1909.3 1577.2 1891 1573.4 1894.9 1559.9 1897.1 1552.3 1901.9 1535.7z"/></g><g><path class="st19" d="M1808.4 1548.9 1762.8 1524.1 1851.5 1527.5 1897.1 1552.3z"/></g><g><path class="st12" d="M1884 1597.6 1838.4 1572.8 1762.8 1524.1 1808.4 1548.9z"/></g><g><path class="st21" d="M1808.4 1548.9 1762.8 1524.1 1856.3 1510.9 1901.9 1535.7z"/></g><g><path class="st15" d="M1808.4 1548.9 1897.1 1552.3 1894.9 1559.9 1884 1597.6z"/></g><g><path class="st15" d="M1901.9 1535.7 1897.1 1552.3 1808.4 1548.9z"/></g></g><g class="st0"><g><path class="st13" d="M1665.7 1955.5 1620.1 1930.7 1648.7 1904.4 1694.3 1929.2z"/></g><g><path class="st12" d="M1723 2021.1 1677.4 1996.3 1598 1920.4 1643.6 1945.2z"/></g><g><path class="st12" d="M1723 2021.1 1677.4 1996.3 1601.8 1947.6 1647.4 1972.4z"/></g><g><path class="st12" d="M1665.7 1955.5 1620.1 1930.7 1607.6 1913.8 1653.2 1938.6z"/></g><g><path class="st26" d="M1641.2 1946.8 1595.6 1922 1598 1920.4 1643.6 1945.2z"/></g><g><path class="st26" d="M1643.6 1945.2 1598 1920.4 1607.6 1913.8 1653.2 1938.6z"/></g><g><path class="st12" d="M1653.2 1938.6 1607.6 1913.8 1595.6 1897.7 1641.2 1922.5z"/></g><g><path class="st15" d="M1641.2 1929.6V1922.5L1653.2 1938.6 1643.6 1945.2 1641.2 1946.8V1942.9z"/></g><g><path class="st22" d="M1641.2 1946.8 1595.6 1922V1918.1L1641.2 1942.9z"/></g><g><path class="st22" d="M1641.2 1942.9 1595.6 1918.1V1904.8L1641.2 1929.6z"/></g><g><path class="st12" d="M1641.2 1942.9 1595.6 1918.1 1586.5 1909.3 1632.1 1934.1z"/></g><g><path class="st15" d="M1632.1 1934.1 1641.2 1942.9V1946.8L1643.6 1945.2 1723 2021.1 1647.4 1972.4 1619 1954.1l12-19.5z"/></g><g><path class="st15" d="M1770 1859.3 1694.3 1929.2 1665.7 1955.5 1653.2 1938.6 1641.2 1922.5 1630.2 1907.6 1628 1904.7 1630.7 1903.8 1641.3 1900.4z"/></g><g><path class="st15" d="M1694.3 1929.2 1723 2021.1 1643.6 1945.2 1653.2 1938.6 1665.7 1955.5z"/></g><g><path class="st20" d="M1641.3 1900.4 1595.7 1875.6 1724.4 1834.5 1770 1859.3z"/></g><g><path class="st21" d="M1676.5 1872.4 1630.9 1847.6 1724.4 1834.5 1770 1859.3z"/></g><g><path class="st22" d="M1641.2 1929.6 1595.6 1904.8V1897.7L1641.2 1922.5z"/></g><g><path class="st15" d="M1641.2 1942.9 1632.1 1934.1 1641.2 1929.6z"/></g><g><path class="st17" d="M1632.1 1934.1 1586.5 1909.3 1595.6 1904.8 1641.2 1929.6z"/></g><g><path class="st17" d="M1631 1934.6 1585.4 1909.8 1586.5 1909.3 1632.1 1934.1z"/></g><g><path class="st12" d="M1647.4 1972.4 1601.8 1947.6 1573.4 1929.3 1619 1954.1z"/></g><g><path class="st18" d="M1619 1954.1 1573.4 1929.3l12-19.5L1631 1934.6z"/></g><g><path class="st17" d="M1626.1 1937.1 1580.5 1912.3 1585.4 1909.8 1631 1934.6z"/></g><g><path class="st25" d="M1626.1 1937.1 1580.5 1912.3 1581.5 1904.6 1627.1 1929.4z"/></g><g><path class="st25" d="M1627.1 1929.4 1581.5 1904.6 1582.5 1897.7 1628.1 1922.5z"/></g><g><path class="st16" d="M1627.1 1922.3 1581.6 1897.5 1582.5 1897.7 1628.1 1922.5z"/></g><g><path class="st12" d="M1627.1 1929.4 1581.5 1904.6 1578.5 1901.7 1624.1 1926.5z"/></g><g><path class="st23" d="M1571.7 2042.4 1526.1 2017.6 1578.5 1901.7 1624.1 1926.5z"/></g><g><path class="st15" d="M1625.7 1923 1627.1 1922.3 1628.1 1922.5 1627.1 1929.4 1624.1 1926.5 1622.2 1924.7z"/></g><g><path class="st12" d="M1641.2 1922.5 1595.6 1897.7 1584.6 1882.8 1630.2 1907.6z"/></g><g><path class="st15" d="M1628.1 1922.5 1630.2 1907.6 1641.2 1922.5V1929.6L1632.1 1934.1 1631 1934.6 1626.1 1937.1 1627.1 1929.4z"/></g><g><path class="st24" d="M1571.7 2042.4 1526.1 2017.6 1555.2 1917.6 1600.7 1942.4z"/></g><g><path class="st17" d="M1625.7 1923 1580.1 1898.2 1581.6 1897.5 1627.1 1922.3z"/></g><g><path class="st23" d="M1625.7 1923 1580.1 1898.2 1580.5 1897.2 1626.1 1922z"/></g><g><path class="st16" d="M1626.1 1922 1580.5 1897.2 1581.6 1897.5 1627.1 1922.3z"/></g><g><path class="st12" d="M1624.1 1926.5 1578.5 1901.7 1576.6 1899.9 1622.2 1924.7z"/></g><g><path class="st17" d="M1622.2 1924.7 1576.6 1899.9 1580.1 1898.2 1625.7 1923z"/></g><g><path class="st25" d="M1628.1 1922.5 1582.5 1897.7 1584.6 1882.8 1630.2 1907.6z"/></g><g><path class="st16" d="M1607.8 1918.2 1562.2 1893.4 1580.5 1897.2 1626.1 1922z"/></g><g><path class="st15" d="M1611.7 1904.7 1607.8 1918.2 1626.1 1922 1625.7 1923 1622.2 1924.7 1624.1 1926.5 1571.7 2042.4l29-1e2z"/></g><g><path class="st15" d="M1619 1954.1 1647.4 1972.4 1571.7 2042.4 1624.1 1926.5 1627.1 1929.4 1626.1 1937.1 1631 1934.6z"/></g><g><path class="st15" d="M1626.1 1922 1627.1 1922.3 1625.7 1923z"/></g><g><path class="st20" d="M1630.7 1903.8 1585.1 1879 1595.7 1875.6 1641.3 1900.4z"/></g><g><path class="st12" d="M1630.2 1907.6 1584.6 1882.8 1582.4 1879.9 1628 1904.7z"/></g><g><path class="st20" d="M1628 1904.7 1582.4 1879.9 1585.1 1879 1630.7 1903.8z"/></g><g><path class="st21" d="M1641.3 1877.4 1595.7 1852.6 1630.9 1847.6 1676.5 1872.4z"/></g><g><path class="st22" d="M1641.3 1900.4 1595.7 1875.6v-23L1641.3 1877.4z"/></g><g><path class="st15" d="M1676.5 1872.4 1770 1859.3 1641.3 1900.4v-23z"/></g><g><path class="st24" d="M1607.8 1918.2 1562.2 1893.4 1566.1 1879.9 1611.7 1904.7z"/></g><g><path class="st24" d="M1600.7 1942.4 1555.2 1917.6 1566.1 1879.9 1611.7 1904.7z"/></g><g><path class="st24" d="M1611.7 1904.7 1566.1 1879.9 1568.3 1872.3 1613.9 1897.1z"/></g><g><path class="st25" d="M1630.7 1903.8 1585.1 1879 1602.2 1755.7 1647.8 1780.5z"/></g><g><path class="st24" d="M1613.9 1897.1 1568.3 1872.3 1573.1 1855.7 1618.7 1880.5z"/></g><g><path class="st15" d="M1647.8 1780.5 1676.5 1872.4 1641.3 1877.4v23L1630.7 1903.8z"/></g><g><path class="st24" d="M1618.7 1880.5 1573.1 1855.7 1602.2 1755.7 1647.8 1780.5z"/></g><g><path class="st15" d="M1647.8 1780.5 1630.7 1903.8 1628 1904.7 1630.2 1907.6 1628.1 1922.5 1627.1 1922.3 1626.1 1922 1607.8 1918.2 1611.7 1904.7 1613.9 1897.1 1618.7 1880.5z"/></g><g><path class="st19" d="M1525.2 1893.7 1479.6 1868.9 1568.3 1872.3 1613.9 1897.1z"/></g><g><path class="st12" d="M1600.7 1942.4 1555.2 1917.6 1479.6 1868.9 1525.2 1893.7z"/></g><g><path class="st21" d="M1525.2 1893.7 1479.6 1868.9 1573.1 1855.7 1618.7 1880.5z"/></g><g><path class="st15" d="M1525.2 1893.7 1613.9 1897.1 1611.7 1904.7 1600.7 1942.4z"/></g><g><path class="st15" d="M1618.7 1880.5 1613.9 1897.1 1525.2 1893.7z"/></g></g><g class="st0"><g><path class="st28" d="M1200.9 1356.5 1155.3 1331.7 1155.4 1264.5 1201 1289.3z"/></g><g><path class="st28" d="M1201.1 1199 1155.6 1174.2V1140.4L1201.2 1165.2z"/></g><g><path class="st29" d="M1060.2 1376.3 1014.6 1351.5 1155.3 1331.7 1200.9 1356.5z"/></g><g><path class="st29" d="M1127.4 1248.2 1081.8 1223.4l117.5-16.5L1244.9 1231.7z"/></g><g><path class="st28" d="M1127.3 1299.7 1081.8 1274.9v-51.5L1127.4 1248.2z"/></g><g class="st0"><defs><path id="SVGID_5_" class="st0" d="M1181.9 1090.1l45.6 24.8c-7.2-3.9-17.3-4.9-30.4-3.1l-45.6-24.8C1164.6 1085.2 1174.7 1086.2 1181.9 1090.1z"/></defs><clipPath id="SVGID_6_"><use xlink:href="#SVGID_5_" style="overflow:visible"/></clipPath><g class="st30"><path class="st31" d="M1197.1 1111.8l-45.6-24.8c9.4-1.3 17.3-1.2 23.6.5l45.6 24.8C1214.4 1110.6 1206.5 1110.5 1197.1 1111.8"/><path class="st32" d="M1220.7 1112.3l-45.6-24.8c2.1.5 4 1.3 5.8 2.1l45.6 24.8C1224.8 1113.5 1222.8 1112.8 1220.7 1112.3"
						/><path class="st33" d="M1226.5 1114.4l-45.6-24.8c.3.2.7.3 1 .5l45.6 24.8C1227.2 1114.7 1226.9 1114.6 1226.5 1114.4"
						/></g></g><g class="st0"><defs><path id="SVGID_7_" class="st0" d="M1032.5 1429.7l-45.6-24.8c-3.1-1.7-5.6-3.9-7.6-6.6-6.6-9.1-9.8-27.4-9.8-55.1l45.6 24.8c-.1 27.6 3.2 46 9.8 55.1C1026.9 1425.8 1029.4 1428 1032.5 1429.7z"/></defs><clipPath id="SVGID_8_"><use xlink:href="#SVGID_7_" style="overflow:visible"/></clipPath><g class="st34"><path class="st35" d="M1032.5 1429.7l-45.6-24.8c-3.1-1.7-5.6-3.9-7.6-6.6-6.6-9.1-9.8-27.4-9.8-55.1l45.6 24.8c-.1 27.6 3.2 46 9.8 55.1C1026.9 1425.8 1029.4 1428 1032.5 1429.7"/></g></g><g><path class="st29" d="M1063.5 1130.6 1018 1105.8 1151.5 1087 1197.1 1111.8z"/></g><g><path class="st28" d="M1015.1 1368 969.5 1343.2 969.8 1184 1015.4 1208.8z"/></g><g><path class="st36" d="M1197.1 1111.8c18.6-2.6 31.2.6 37.9 9.5 6.7 9 10 26.4 10 52.3v6.9l-43.8 18.4.1-33.7-140.7 19.8-.4 191.3 140.7-19.8.1-67.2-73.6 10.3.1-51.5 117.4-16.5-.2 104.1c-.1 27.6-3.4 46.9-10 57.9-6.6 10.9-19.3 17.7-38.1 20.4l-133.5 18.8c-18.8 2.6-31.5-.6-38.1-9.7-6.6-9.1-9.8-27.4-9.8-55.1l.3-159.2c.1-27.5 3.4-46.7 10-57.7 6.6-11 19.3-17.9 38.1-20.5L1197.1 1111.8z"/></g><g class="st0"><defs><path id="SVGID_9_" class="st0" d="M1015.4 1208.8l-45.6-24.8c.1-27.5 3.4-46.7 10-57.7 6.6-11 19.3-17.9 38.1-20.5l45.6 24.8c-18.8 2.6-31.5 9.5-38.1 20.5C1018.8 1162.1 1015.5 1181.3 1015.4 1208.8z"/></defs><clipPath id="SVGID_10_"><use xlink:href="#SVGID_9_" style="overflow:visible"/></clipPath><g class="st37"><path class="st35" d="M1015.4 1208.8l-45.6-24.8c0-21.9 2.2-38.5 6.4-50l45.6 24.8C1017.6 1170.3 1015.5 1186.9 1015.4 1208.8"
						/><path class="st38" d="M1021.8 1158.8l-45.6-24.8c.8-2.3 1.8-4.4 2.8-6.2l45.6 24.8C1023.5 1154.5 1022.6 1156.5 1021.8 1158.8"/><path class="st39" d="M1024.6 1152.6l-45.6-24.8c.3-.5.6-1 .9-1.5.4-.7.8-1.4 1.3-2l45.6 24.8c-.5.7-.9 1.3-1.3 2C1025.1 1151.6 1024.8 1152.1 1024.6 1152.6"/><path class="st40" d="M1026.7 1149.1l-45.6-24.8c.7-1 1.5-2 2.3-3l45.6 24.8C1028.2 1147.1 1027.4 1148 1026.7 1149.1"/><path class="st41" d="M1029.1 1146.1l-45.6-24.8c.9-1 1.8-1.9 2.8-2.9l45.6 24.8C1030.9 1144.2 1029.9 1145.1 1029.1 1146.1"
						/><path class="st33" d="M1031.9 1143.3l-45.6-24.8c1.2-1.1 2.5-2.1 3.9-3l45.6 24.8C1034.4 1141.2 1033.1 1142.2 1031.9 1143.3"
						/><path class="st32" d="M1035.7 1140.2l-45.6-24.8c2-1.4 4.2-2.6 6.5-3.7l45.6 24.8C1039.9 1137.6 1037.7 1138.8 1035.7 1140.2"
						/><path class="st31" d="M1042.3 1136.5l-45.6-24.8c5.9-2.8 13-4.8 21.3-5.9l45.6 24.8C1055.3 1131.7 1048.2 1133.7 1042.3 1136.5"/></g></g></g><g class="st0"><g class="st0"><defs><path id="SVGID_11_" class="st0" d="M1720.9 1283.4l-45.6-24.8c31-4.4 53-15 66-31.9l45.6 24.8C1774 1268.4 1752 1279 1720.9 1283.4z"/></defs><clipPath id="SVGID_12_"><use xlink:href="#SVGID_11_" style="overflow:visible"/></clipPath><g class="st42"><path class="st31" d="M1720.9 1283.4l-45.6-24.8c15.1-2.1 28.1-5.7 39-10.8l45.6 24.8C1749.1 1277.7 1736.1 1281.3 1720.9 1283.4"/><path class="st32" d="M1759.9 1272.6l-45.6-24.8c4.3-2 8.4-4.3 12-6.9l45.6 24.8C1768.3 1268.2 1764.2 1270.5 1759.9 1272.6"/><path class="st33" d="M1771.9 1265.7l-45.6-24.8c2.5-1.7 4.9-3.6 7.1-5.6l45.6 24.8C1776.8 1262.1 1774.4 1263.9 1771.9 1265.7"/><path class="st41" d="M1779 1260.1l-45.6-24.8c1.9-1.7 3.6-3.4 5.2-5.3l45.6 24.8C1782.6 1256.7 1780.9 1258.4 1779 1260.1"/><path class="st40" d="M1784.2 1254.8l-45.6-24.8c.9-1.1 1.8-2.2 2.7-3.3l45.6 24.8C1786.1 1252.7 1785.2 1253.8 1784.2 1254.8"/></g></g><g class="st0"><defs><path id="SVGID_13_" class="st0" d="M1730.7 1069l45.6 24.8c5.4 3 10.2 7.1 14.2 12.5 10.7 14.4 16 37 16 67.9-.1 34.7-6.6 60.5-19.6 77.3l-45.6-24.8c13-16.9 19.5-42.7 19.6-77.3.1-30.9-5.3-53.5-16-67.9C1740.9 1076.1 1736.2 1071.9 1730.7 1069z"/></defs><clipPath id="SVGID_14_"><use xlink:href="#SVGID_13_" style="overflow:visible"/></clipPath><g class="st43"><path class="st40" d="M1786.9 1251.6l-45.6-24.8c.6-.8 1.2-1.5 1.7-2.3l45.6 24.8C1788.1 1250 1787.5 1250.8 1786.9 1251.6"
						/><path class="st39" d="M1788.6 1249.2l-45.6-24.8c1.6-2.3 3.1-4.7 4.5-7.3l45.6 24.8C1791.7 1244.5 1790.2 1247 1788.6 1249.2"
						/><path class="st38" d="M1793.1 1242l-45.6-24.8c1.9-3.5 3.5-7.2 5-11.2l45.6 24.8C1796.7 1234.7 1795 1238.5 1793.1 1242"/><path class="st35" d="M1798.1 1230.7l-45.6-24.8c5.5-15 8.3-33.9 8.4-56.5.1-30.9-5.3-53.5-16-67.9-4-5.4-8.7-9.6-14.2-12.5l45.6 24.8c5.4 3 10.2 7.1 14.2 12.5 10.7 14.4 16 37 16 67.9C1806.5 1196.8 1803.7 1215.7 1798.1 1230.7"/></g></g><g><path class="st29" d="M1662.7 1291.6 1617.1 1266.8 1675.4 1258.6 1720.9 1283.4z"/></g><g class="st0"><defs><path id="SVGID_15_" class="st0" d="M1756.2 1018.6l45.6 24.8c-16.2-8.8-35.9-11.6-59.2-8.3l-45.6-24.8C1720.3 1007.1 1740 1009.8 1756.2 1018.6z"/></defs><clipPath id="SVGID_16_"><use xlink:href="#SVGID_15_" style="overflow:visible"/></clipPath><g class="st44"><path class="st31" d="M1742.7 1035.1l-45.6-24.8c15.5-2.2 29.5-1.7 41.9 1.5l45.6 24.8C1772.1 1033.5 1758.2 1032.9 1742.7 1035.1"/><path class="st32" d="M1784.5 1036.7l-45.6-24.8c5.1 1.3 10 3.1 14.6 5.4l45.6 24.8C1794.5 1039.8 1789.7 1038 1784.5 1036.7"
						/><path class="st33" d="M1799.1 1042.1l-45.6-24.8c.9.4 1.8.9 2.7 1.4l45.6 24.8C1800.9 1043 18e2 1042.5 1799.1 1042.1"/></g></g><g><path class="st29" d="M1618.1 1052.6 1572.5 1027.8 1697.1 1010.3 1742.7 1035.1z"/></g><g><path class="st28" d="M1617.5 1354.8 1571.9 1330 1572.5 1027.8 1618.1 1052.6z"/></g><g><path class="st36" d="M1824.6 1062.5c19.1 23.2 28.6 58.7 28.5 106.3-.1 28.2-3.8 54.1-11.3 77.8-7.5 23.6-18 42.9-31.6 57.7-8.4 9.4-18.9 16.8-31.4 22.3s-28.6 9.6-48.1 12.3l-113 15.9.6-302.2 124.6-17.5C1778.2 1030.1 1805.5 1039.3 1824.6 1062.5zM1786.9 1251.6c13-16.9 19.5-42.7 19.6-77.3.1-30.9-5.3-53.5-16-67.9-10.7-14.4-26.6-20.1-47.6-17.2l-79.9 11.2-.4 191.3 58.3-8.2C1752 1279 1774 1268.4 1786.9 1251.6"/></g></g><g class="st0"><g class="st0"><defs><path id="SVGID_17_" class="st0" d="M1472.3 1205.5l-45.6-24.8c7.8-1.1 13.2-3.6 16-7.5 2.9-3.9 4.3-10.4 4.3-19.3l45.6 24.8c0 9-1.5 15.4-4.3 19.3C1485.4 1201.8 1480.1 1204.4 1472.3 1205.5z"/></defs><clipPath id="SVGID_18_"><use xlink:href="#SVGID_17_" style="overflow:visible"/></clipPath><g class="st45"><path class="st31" d="M1472.3 1205.5l-45.6-24.8c3.9-.6 7.2-1.5 9.9-2.7l45.6 24.8C1479.5 1204 1476.2 1204.9 1472.3 1205.5"
						/><path class="st32" d="M1482.2 1202.7l-45.6-24.8c1-.5 1.9-1 2.8-1.6l45.6 24.8C1484.1 1201.7 1483.2 1202.3 1482.2 1202.7"/><path class="st33" d="M1484.9 1201.2l-45.6-24.8c.6-.4 1.1-.8 1.6-1.2l45.6 24.8C1486 1200.4 1485.5 1200.8 1484.9 1201.2"
						/><path class="st41" d="M1486.5 1199.9l-45.6-24.8c.4-.4.8-.7 1.1-1.1l45.6 24.8C1487.2 1199.2 1486.9 1199.6 1486.5 1199.9"/><path class="st40" d="M1487.6 1198.8 1442 1174c.3-.3.5-.6.7-.9.1-.1.1-.1.2-.2l45.6 24.8c-.1.1-.1.2-.2.2C1488.1 1198.2 1487.9 1198.5 1487.6 1198.8"/><path class="st39" d="M1488.5 1197.7l-45.6-24.8c.3-.5.6-1 .9-1.5l45.6 24.8C1489.1 1196.7 1488.8 1197.2 1488.5 1197.7"
						/><path class="st38" d="M1489.4 1196.2l-45.6-24.8c.4-.8.8-1.6 1.1-2.5l45.6 24.8C1490.2 1194.5 1489.8 1195.4 1489.4 1196.2"/><path class="st35" d="M1490.6 1193.6l-45.6-24.8c1.4-3.8 2.1-8.8 2.1-15l45.6 24.8C1492.6 1184.8 1491.9 1189.8 1490.6 1193.6"
						/></g></g><g><path class="st28" d="M1492.7 1178.6 1447.1 1153.8V1121.5L1492.7 1146.3z"/></g><g class="st0"><defs><path id="SVGID_19_" class="st0" d="M1440.5 1101.8l45.6 24.8c.9.5 1.7 1.1 2.3 1.8 2.9 3.1 4.3 9.1 4.3 17.8l-45.6-24.8c0-8.8-1.4-14.7-4.3-17.8C1442.2 1102.9 1441.4 1102.3 1440.5 1101.8z"/></defs><clipPath id="SVGID_20_"><use xlink:href="#SVGID_19_" style="overflow:visible"/></clipPath><g class="st46"><path class="st35" d="M1492.7 1146.3l-45.6-24.8c0-8.8-1.4-14.7-4.3-17.8-.6-.7-1.4-1.3-2.3-1.8l45.6 24.8c.9.5 1.7 1.1 2.3 1.8C1491.3 1131.6 1492.7 1137.5 1492.7 1146.3"/></g></g><g class="st0"><defs><path id="SVGID_21_" class="st0" d="M1473 1048.6l45.6 24.8c-6.6-3.6-15.3-4.6-26-3.1l-45.6-24.8C1457.7 1044 1466.4 1045 1473 1048.6z"/></defs><clipPath id="SVGID_22_"><use xlink:href="#SVGID_21_" style="overflow:visible"/></clipPath><g class="st47"><path class="st31" d="M1492.5 1070.3l-45.6-24.8c7.5-1.1 14-.9 19.4.5l45.6 24.8C1506.5 1069.4 15e2 1069.2 1492.5 1070.3"
						/><path class="st32" d="M1511.9 1070.8l-45.6-24.8c2 .5 3.9 1.2 5.6 2.1l45.6 24.8C1515.8 1072 1513.9 1071.4 1511.9 1070.8"/><path class="st33" d="M1517.6 1072.9l-45.6-24.8c.3.2.7.3 1 .5l45.6 24.8C1518.2 1073.2 1517.9 1073.1 1517.6 1072.9"
						/></g></g><g><path class="st29" d="M1371 1219.7 1325.4 1194.9 1426.7 1180.7 1472.3 1205.5z"/></g><g><path class="st29" d="M1326.9 1093.6 1281.3 1068.8 1446.9 1045.5 1492.5 1070.3z"/></g><g><path class="st28" d="M1326.3 1395.7 1280.7 1371 1281.3 1068.8 1326.9 1093.6z"/></g><g><path class="st36" d="M1525.9 1079.5c6.9 8.3 10.3 22.7 10.3 43.3l-.1 67.5c0 20.4-3.5 35.7-10.4 45.9-6.9 10.2-18.1 16.4-33.5 18.6l-121.3 17-.2 117.8-44.3 6.2.6-302.2 165.6-23.3C1507.9 1068.1 1519 1071.2 1525.9 1079.5zM1492.7 1178.6l.1-32.3c0-8.8-1.4-14.7-4.3-17.8-2.9-3.1-8.2-4.1-16-3l-101.3 14.2-.1 80.1 101.3-14.2c7.8-1.1 13.2-3.6 16-7.5C1491.2 1194 1492.6 1187.5 1492.7 1178.6"/></g></g><g class="st0"><g class="st0"><defs><path id="SVGID_23_" class="st0" d="M849.4 1297l-45.6-24.8c7.8-1.1 13.2-3.6 16-7.5 2.9-3.9 4.3-10.4 4.3-19.3l45.6 24.8c0 9-1.5 15.4-4.3 19.3C862.6 1293.4 857.2 1295.9 849.4 1297z"/></defs><clipPath id="SVGID_24_"><use xlink:href="#SVGID_23_" style="overflow:visible"/></clipPath><g class="st48"><path class="st31" d="M849.4 1297l-45.6-24.8c3.9-.6 7.2-1.5 9.9-2.7l45.6 24.8C856.6 1295.5 853.3 1296.4 849.4 1297"/><path class="st32" d="M859.3 1294.3l-45.6-24.8c1-.5 1.9-1 2.7-1.6l45.6 24.8C861.2 1293.3 860.3 1293.8 859.3 1294.3"/><path class="st33" d="M862.1 1292.7l-45.6-24.8c.6-.4 1.1-.8 1.6-1.2l45.6 24.8C863.1 1291.9 862.6 1292.3 862.1 1292.7"/><path class="st41" d="M863.6 1291.5l-45.6-24.8c.4-.4.8-.7 1.1-1.1l45.6 24.8C864.4 1290.8 864 1291.1 863.6 1291.5"/><path class="st40" d="M864.7 1290.4l-45.6-24.8c.3-.3.5-.6.7-.9.1-.1.1-.2.2-.2l45.6 24.8c-.1.1-.1.2-.2.2C865.2 1289.8 865 1290.1 864.7 1290.4"/><path class="st39" d="M865.6 1289.2l-45.6-24.8c.3-.5.6-1 .9-1.5l45.6 24.8C866.3 1288.2 866 1288.7 865.6 1289.2"/><path class="st38" d="M866.6 1287.7l-45.6-24.8c.4-.8.8-1.6 1.1-2.5l45.6 24.8C867.4 1286.1 867 1286.9 866.6 1287.7"/><path class="st35" d="M867.7 1285.2l-45.6-24.8c1.4-3.8 2.1-8.8 2.1-15l45.6 24.8C869.8 1276.4 869.1 1281.4 867.7 1285.2"/></g></g><g><path class="st28" d="M869.8 1270.1 824.2 1245.3 824.3 1209 869.9 1233.8z"/></g><g><path class="st49" d="M868.5 1460.1 822.9 1435.3 745.1 1332.2 790.7 1357z"/></g><g class="st0"><defs><path id="SVGID_25_" class="st0" d="M817.7 1189.4l45.6 24.8c.9.5 1.7 1.1 2.3 1.8 2.9 3.1 4.3 9.1 4.3 17.8l-45.6-24.8c0-8.8-1.4-14.7-4.3-17.8C819.4 1190.5 818.6 1189.9 817.7 1189.4z"/></defs><clipPath id="SVGID_26_"><use xlink:href="#SVGID_25_" style="overflow:visible"/></clipPath><g class="st50"><path class="st35" d="M869.9 1233.8l-45.6-24.8c0-8.8-1.4-14.7-4.3-17.8-.6-.7-1.4-1.3-2.3-1.8l45.6 24.8c.9.5 1.7 1.1 2.3 1.8C868.5 1219.1 869.9 1225.1 869.9 1233.8"/></g></g><g class="st0"><defs><path id="SVGID_27_" class="st0" d="M850.1 1136.1l45.6 24.8c-6.6-3.6-15.3-4.6-26-3.1L824 1133C834.8 1131.5 843.5 1132.6 850.1 1136.1z"/></defs><clipPath id="SVGID_28_"><use xlink:href="#SVGID_27_" style="overflow:visible"/></clipPath><g class="st51"><path class="st31" d="M869.6 1157.8 824 1133c7.5-1.1 14-.9 19.4.5l45.6 24.8C883.6 1157 877.1 1156.8 869.6 1157.8"/><path class="st32" d="M889.1 1158.4l-45.6-24.8c2 .5 3.9 1.2 5.6 2.1l45.6 24.8C893 1159.6 891.1 1158.9 889.1 1158.4"/><path class="st33" d="M894.7 1160.4l-45.6-24.8c.3.2.7.3 1 .5l45.6 24.8C895.4 1160.8 895 1160.6 894.7 1160.4"/></g></g><g><path class="st29" d="M748.1 1311.2 702.5 1286.4 803.8 1272.2 849.4 1297z"/></g><g><path class="st28" d="M703.5 1483.3 657.9 1458.5 658.4 1156.3 704 1181.1z"/></g><g><path class="st36" d="M844 1349.5l89.2 101.5-64.7 9.1L790.7 1357l-42.7 6-.2 114.1-44.3 6.2.6-302.2 165.6-23.3c15.4-2.2 26.5.9 33.4 9.2 6.9 8.3 10.3 22.7 10.3 43.3l-.1 70.9c0 20.4-3.5 35.8-10.4 46.1-6.9 10.3-18.1 16.5-33.5 18.7L844 1349.5zM748.1 1311.2l101.3-14.2c7.8-1.1 13.2-3.6 16-7.5 2.9-3.9 4.3-10.4 4.3-19.3l.1-36.3c0-8.8-1.4-14.7-4.3-17.8-2.9-3.1-8.2-4.1-16-3l-101.3 14.2L748.1 1311.2"/></g><g><path class="st29" d="M704 1181.1 658.4 1156.3 824 1133 869.6 1157.8z"/></g></g></g></g></svg>