<svg id="Layer_1" xmlns="http://www.w3.org/2000/svg" xmlns:xlink="http://www.w3.org/1999/xlink" viewBox="0 0 639.6 479.4" style="enable-background:new 0 0 639.6 479.4"><style>.st0{enable-background:new}.st1{clip-path:url(#SVGID_2_);enable-background:new}.st2{fill:#6b3650}.st3{fill:#6f3853}.st4{fill:#733a56}.st5{clip-path:url(#SVGID_4_);enable-background:new}.st6{clip-path:url(#SVGID_6_);enable-background:new}.st7{clip-path:url(#SVGID_8_);enable-background:new}.st8{clip-path:url(#SVGID_10_);enable-background:new}.st9{clip-path:url(#SVGID_12_);enable-background:new}.st10{clip-path:url(#SVGID_14_);enable-background:new}.st11{clip-path:url(#SVGID_16_);enable-background:new}.st12{clip-path:url(#SVGID_18_);enable-background:new}.st13{clip-path:url(#SVGID_20_);enable-background:new}.st14{clip-path:url(#SVGID_22_);enable-background:new}.st15{clip-path:url(#SVGID_24_);enable-background:new}.st16{clip-path:url(#SVGID_26_);enable-background:new}.st17{clip-path:url(#SVGID_28_);enable-background:new}.st18{clip-path:url(#SVGID_30_);enable-background:new}.st19{clip-path:url(#SVGID_32_);enable-background:new}.st20{clip-path:url(#SVGID_34_);enable-background:new}.st21{clip-path:url(#SVGID_36_);enable-background:new}.st22{clip-path:url(#SVGID_38_);enable-background:new}.st23{clip-path:url(#SVGID_40_);enable-background:new}.st24{clip-path:url(#SVGID_42_);enable-background:new}.st25{clip-path:url(#SVGID_44_);enable-background:new}.st26{clip-path:url(#SVGID_46_);enable-background:new}.st27{clip-path:url(#SVGID_48_);enable-background:new}.st28{clip-path:url(#SVGID_50_);enable-background:new}.st29{clip-path:url(#SVGID_52_);enable-background:new}.st30{clip-path:url(#SVGID_54_);enable-background:new}.st31{clip-path:url(#SVGID_56_);enable-background:new}.st32{clip-path:url(#SVGID_58_);enable-background:new}.st33{clip-path:url(#SVGID_60_);enable-background:new}.st34{clip-path:url(#SVGID_62_);enable-background:new}.st35{clip-path:url(#SVGID_64_);enable-background:new}.st36{clip-path:url(#SVGID_66_);enable-background:new}.st37{clip-path:url(#SVGID_68_);enable-background:new}.st38{clip-path:url(#SVGID_70_);enable-background:new}.st39{fill:#ca6697}.st40{clip-path:url(#SVGID_72_);enable-background:new}</style><g><g><g class="st0"><g class="st0"><defs><path id="SVGID_1_" class="st0" d="M547.8 335.3 525 322.9c-.4-.2-.7-.7-.8-1.4-.3-1.4.7-2.2 3.7-4.6 2.9-2.4 11.8-10.2 13.5-22.4 1.1-8.4-2.4-23.9-18.5-32.6l22.8 12.4c16 8.7 19.6 24.2 18.5 32.6-1.6 12.2-10.5 20-13.5 22.4-2.9 2.4-3.9 3.2-3.7 4.6C547.1 334.7 547.4 335.1 547.8 335.3z"/></defs><clipPath id="SVGID_2_"><use xlink:href="#SVGID_1_" style="overflow:visible"/></clipPath><g class="st1"><path class="st2" d="M547.8 335.3 525 322.9c-.4-.2-.7-.7-.8-1.4.0-.1.0-.1.0-.2l22.8 12.4c0 .1.0.1.0.2C547.1 334.7 547.4 335.1 547.8 335.3"/><path class="st3" d="M547 333.7l-22.8-12.4c0-.3.0-.5.1-.8l22.8 12.4C547 333.2 547 333.4 547 333.7"/><path class="st4" d="M547.1 332.9l-22.8-12.4c.3-.9 1.4-1.8 3.6-3.7 2.5-2.1 9.3-8 12.3-17.2L563 312c-3 9.2-9.8 15.1-12.3 17.2C548.5 331.1 547.4 332 547.1 332.9"/><path class="st3" d="M562.9 312.1l-22.8-12.4c.5-1.7 1-3.4 1.2-5.3.2-1.8.3-3.8.0-6.1l22.8 12.4c.2 2.3.2 4.3.0 6.1C563.9 308.7 563.5 310.4 562.9 312.1"/><path class="st2" d="M564.2 300.7l-22.8-12.4c-.9-8.5-5.8-19.7-18.5-26.5l22.8 12.4C558.3 281.1 563.2 292.2 564.2 300.7"/></g></g><g class="st0"><defs><path id="SVGID_3_" class="st0" d="M526.9 244.5l22.8 12.4c-11-6-25.4-8.7-42.8-6.3l-22.8-12.4C501.5 235.8 515.9 238.5 526.9 244.5z"/></defs><clipPath id="SVGID_4_"><use xlink:href="#SVGID_3_" style="overflow:visible"/></clipPath><g class="st5"><path class="st3" d="M506.9 250.6l-22.8-12.4c.9-.1 1.7-.2 2.6-.3l22.8 12.4C508.6 250.4 507.7 250.5 506.9 250.6"/><path class="st2" d="M509.4 250.3l-22.8-12.4c16.3-1.8 29.8.9 40.3 6.6l22.8 12.4C539.3 251.2 525.8 248.4 509.4 250.3"/></g></g><g class="st0"><defs><path id="SVGID_5_" class="st0" d="M431.9 332.5l-22.8-12.4c7.4-3.9 19.7-12.6 19.8-31.1l22.8 12.4C451.6 319.9 439.3 328.6 431.9 332.5z"/></defs><clipPath id="SVGID_6_"><use xlink:href="#SVGID_5_" style="overflow:visible"/></clipPath><g class="st6"><path class="st3" d="M431.9 332.5l-22.8-12.4c1.2-.6 2.5-1.4 3.8-2.3l22.8 12.4C434.4 331.1 433.1 331.9 431.9 332.5"/><path class="st4" d="M435.7 330.3l-22.8-12.4c5.3-3.4 11.4-9 14.3-17.9l22.8 12.4C447.1 321.3 441 326.8 435.7 330.3"/><path class="st3" d="M450 312.4 427.2 3e2c1-3.2 1.7-6.8 1.7-11l22.8 12.4C451.7 305.5 451 309.2 450 312.4"/></g></g><g class="st0"><defs><path id="SVGID_7_" class="st0" d="M451.7 301.4 428.9 289c.1-2.8-.5-5.7-1.4-8.6l22.8 12.4C451.2 295.7 451.8 298.6 451.7 301.4z"/></defs><clipPath id="SVGID_8_"><use xlink:href="#SVGID_7_" style="overflow:visible"/></clipPath><g class="st7"><path class="st3" d="M451.7 301.4 428.9 289c0-.9.0-1.8-.1-2.7l22.8 12.4C451.7 299.6 451.7 300.5 451.7 301.4"/><path class="st2" d="M451.6 298.7l-22.8-12.4c-.2-1.9-.7-3.9-1.3-5.9l22.8 12.4C450.9 294.8 451.4 296.8 451.6 298.7"/></g></g><g class="st0"><defs><path id="SVGID_9_" class="st0" d="M462.7 267.9l-22.8-12.4c12.4-8.3 27.2-14.8 44.2-17.3l22.8 12.4C489.9 253.1 475.1 259.6 462.7 267.9z"/></defs><clipPath id="SVGID_10_"><use xlink:href="#SVGID_9_" style="overflow:visible"/></clipPath><g class="st8"><path class="st4" d="M462.7 267.9l-22.8-12.4c.4-.2.7-.5 1.1-.7l22.8 12.4C463.4 267.4 463 267.6 462.7 267.9"/><path class="st3" d="M463.8 267.2 441 254.8c12.2-7.9 26.6-14.1 43.1-16.5l22.8 12.4C490.3 253 475.9 259.2 463.8 267.2"/></g></g><g class="st0"><defs><path id="SVGID_11_" class="st0" d="M419.7 348.9l-22.8-12.4c-5.1-2.8-7-10.4-2.5-25 3.1-9.9 11.9-25.5 26.1-39.9l22.8 12.4c-14.2 14.4-22.9 30-26.1 39.9C412.7 338.5 414.6 346.1 419.7 348.9z"/></defs><clipPath id="SVGID_12_"><use xlink:href="#SVGID_11_" style="overflow:visible"/></clipPath><g class="st9"><path class="st2" d="M419.7 348.9l-22.8-12.4c-2.7-1.5-4.4-4.2-4.9-8.5l22.8 12.4C415.3 344.7 417 347.4 419.7 348.9"/><path class="st3" d="M414.8 340.4 392 328c-.4-4 .3-9.4 2.4-16.5.1-.2.1-.4.2-.5l22.8 12.4c-.1.2-.1.4-.2.5C415 330.9 414.3 336.3 414.8 340.4"/><path class="st4" d="M417.4 323.4 394.6 311c3.3-9.9 12-25.2 25.9-39.3l22.8 12.4C429.4 298.2 420.7 313.5 417.4 323.4"/></g></g><g class="st0"><defs><path id="SVGID_13_" class="st0" d="M443.3 284l-22.8-12.4c-3.2-6.7-6.8-13.4-8.6-19.9l22.8 12.4C436.4 270.6 440.1 277.4 443.3 284z"/></defs><clipPath id="SVGID_14_"><use xlink:href="#SVGID_13_" style="overflow:visible"/></clipPath><g class="st10"><path class="st2" d="M443.3 284l-22.8-12.4c-3.2-6.7-6.8-13.4-8.6-19.9l22.8 12.4C436.4 270.6 440.1 277.4 443.3 284"/></g></g><g class="st0"><defs><path id="SVGID_15_" class="st0" d="M385.8 326.4 363 314c0-.4.0-.9.0-1.2l22.8 12.4C385.8 325.5 385.8 326 385.8 326.4z"/></defs><clipPath id="SVGID_16_"><use xlink:href="#SVGID_15_" style="overflow:visible"/></clipPath><g class="st11"><path class="st3" d="M385.8 326.4 363 314c0-.4.0-.9.0-1.2l22.8 12.4C385.8 325.5 385.8 326 385.8 326.4"/></g></g><g class="st0"><defs><path id="SVGID_17_" class="st0" d="M434.7 264.1l-22.8-12.4c-3.6-12.7-4.6-20.2-4.7-20.6l22.8 12.4C430 243.9 431 251.4 434.7 264.1z"/></defs><clipPath id="SVGID_18_"><use xlink:href="#SVGID_17_" style="overflow:visible"/></clipPath><g class="st12"><path class="st2" d="M434.7 264.1l-22.8-12.4c-3.6-12.7-4.6-20.2-4.7-20.6l22.8 12.4C430 243.9 431 251.4 434.7 264.1"/></g></g><g class="st0"><defs><path id="SVGID_19_" class="st0" d="M366.7 357.7l-22.8-12.4c5.9-4.9 19.1-16.6 19.1-31.3l22.8 12.4C385.8 341.1 372.6 352.8 366.7 357.7z"/></defs><clipPath id="SVGID_20_"><use xlink:href="#SVGID_19_" style="overflow:visible"/></clipPath><g class="st13"><path class="st4" d="M366.7 357.7l-22.8-12.4c4.7-3.9 14.2-12.3 17.7-23.1l22.8 12.4C380.9 345.4 371.4 353.8 366.7 357.7"/><path class="st3" d="M384.4 334.6l-22.8-12.4c.8-2.6 1.3-5.3 1.4-8.2l22.8 12.4C385.8 329.3 385.3 332 384.4 334.6"/></g></g><g class="st0"><defs><path id="SVGID_21_" class="st0" d="M361.8 359.7 339 347.3c.2.1.5.1.8.1 1-.1 2.5-1 4.1-2.1l22.8 12.4c-1.6 1.1-3.1 2-4.1 2.1C362.3 359.9 362 359.9 361.8 359.7z"/></defs><clipPath id="SVGID_22_"><use xlink:href="#SVGID_21_" style="overflow:visible"/></clipPath><g class="st14"><path class="st2" d="M361.8 359.7 339 347.3c.2.1.4.1.7.1l22.8 12.4C362.2 359.9 362 359.8 361.8 359.7"/><path class="st3" d="M362.5 359.8l-22.8-12.4c0 0 0 0 .1.0.8-.1 2-.7 3.3-1.6l22.8 12.4C364.6 359.1 363.4 359.7 362.5 359.8c.10000000000002274.0.0.0.0.0"/><path class="st4" d="M365.9 358.3l-22.8-12.4c.3-.2.5-.4.8-.6l22.8 12.4C366.4 357.9 366.1 358.1 365.9 358.3"/></g></g><g class="st0"><defs><path id="SVGID_23_" class="st0" d="M374.5 319.5l-22.8-12.4c-.1-.1 1.7-2.7 4.5-7.5L379 312C376.2 316.8 374.4 319.5 374.5 319.5z"/></defs><clipPath id="SVGID_24_"><use xlink:href="#SVGID_23_" style="overflow:visible"/></clipPath><g class="st15"><path class="st2" d="M374.5 319.5l-22.8-12.4c0 0 0 0 0 0L374.5 319.5c0 0 0 0 0 0"/><path class="st3" d="M374.5 319.5l-22.8-12.4c0 0 0 0 0 0L374.5 319.5c0 0 0 0 0 0"/><path class="st4" d="M374.5 319.5l-22.8-12.4c.1-.4 1.9-3 4.5-7.4l22.8 12.4C376.4 316.5 374.6 319.1 374.5 319.5"/></g></g><g class="st0"><defs><path id="SVGID_25_" class="st0" d="M346.5 376.3l-22.8-12.4c-.2-.1-.3-.2-.4-.3-3.6-2.4-4-5.9-2.1-11 1.6-4.4 13.2-20.3 22.9-34.1 2.8-3.8 5.3-7.8 7.6-11.3l22.8 12.4c-2.3 3.6-4.8 7.5-7.6 11.3-9.7 13.9-21.3 29.8-22.9 34.1-1.9 5.2-1.4 8.7 2.1 11C346.2 376.2 346.4 376.3 346.5 376.3z"/></defs><clipPath id="SVGID_26_"><use xlink:href="#SVGID_25_" style="overflow:visible"/></clipPath><g class="st16"><path class="st2" d="M346.5 376.3l-22.8-12.4c-.2-.1-.3-.2-.4-.3-1.9-1.3-2.9-2.9-3.2-4.9l22.8 12.4c.2 2 1.2 3.6 3.2 4.9C346.2 376.2 346.4 376.3 346.5 376.3"/><path class="st3" d="M342.9 371.1l-22.8-12.4c-.2-1.5.1-3.2.8-5.2l22.8 12.4C343 367.9 342.8 369.6 342.9 371.1"/><path class="st4" d="M343.7 365.9l-22.8-12.4c.1-.3.2-.6.3-.9 1.6-4.4 13.2-20.3 22.9-34.1 2.8-3.8 5.3-7.8 7.6-11.3l22.8 12.4c-2.3 3.6-4.8 7.5-7.6 11.3-9.7 13.9-21.3 29.8-22.9 34.1C343.9 365.3 343.8 365.6 343.7 365.9"/></g></g><g class="st0"><defs><path id="SVGID_27_" class="st0" d="M432.7 185.2l22.8 12.4c-1.6-.9-4.4-1.5-9.2-.8-9.5 1.3-17.6 4.6-18.6 7.4-1 2.9-2.9 9.5-4.1 16.2-1.7 9.8-19.7 46.6-29.9 66.1l-22.8-12.4c10.3-19.4 28.2-56.2 29.9-66.1 1.3-6.7 3.1-13.3 4.1-16.2 1-2.9 9.1-6.1 18.6-7.4C428.3 183.8 431.1 184.3 432.7 185.2z"/></defs><clipPath id="SVGID_28_"><use xlink:href="#SVGID_27_" style="overflow:visible"/></clipPath><g class="st17"><path class="st4" d="M393.7 286.5l-22.8-12.4c9.2-17.3 24.4-48.5 28.8-62l22.8 12.4C418.1 238 402.9 269.2 393.7 286.5"/><path class="st3" d="M422.5 224.5l-22.8-12.4c.5-1.6.9-3 1.1-4.1 1.2-6.4 2.9-12.6 4-15.8l22.8 12.4c-1 3.1-2.8 9.4-4 15.8C423.4 221.5 423.1 222.9 422.5 224.5"/><path class="st4" d="M427.6 204.7l-22.8-12.4c.1-.2.1-.3.2-.5.3-.8 1.1-1.6 2.3-2.4l22.8 12.4c-1.2.8-2 1.6-2.3 2.4C427.7 204.4 427.6 204.5 427.6 204.7"/><path class="st3" d="M430 201.8l-22.8-12.4c3.2-2.1 9.4-4.1 16.3-5 .3.0.5-.1.8-.1l22.8 12.4c-.3.0-.5.1-.8.1C439.4 197.8 433.2 199.7 430 201.8"/><path class="st2" d="M447.1 196.7l-22.8-12.4c4.3-.5 6.8.1 8.4.9l22.8 12.4C454 196.8 451.4 196.2 447.1 196.7"/></g></g><g class="st0"><defs><path id="SVGID_29_" class="st0" d="M379.1 312.1l-22.8-12.4c-3.5-7.8-8-15.7-10.1-23.2l22.8 12.4C371.1 296.4 375.5 304.3 379.1 312.1z"/></defs><clipPath id="SVGID_30_"><use xlink:href="#SVGID_29_" style="overflow:visible"/></clipPath><g class="st18"><path class="st2" d="M379.1 312.1l-22.8-12.4c-3.5-7.8-8-15.7-10.1-23.2l22.8 12.4C371.1 296.4 375.5 304.3 379.1 312.1"/></g></g><g class="st0"><defs><path id="SVGID_31_" class="st0" d="M369 288.9l-22.8-12.4c-3.6-12.7-4.6-20.2-4.7-20.6l22.8 12.4C364.3 268.7 365.3 276.2 369 288.9z"/></defs><clipPath id="SVGID_32_"><use xlink:href="#SVGID_31_" style="overflow:visible"/></clipPath><g class="st19"><path class="st2" d="M369 288.9l-22.8-12.4c-3.6-12.7-4.6-20.2-4.7-20.6l22.8 12.4C364.3 268.7 365.3 276.2 369 288.9"/></g></g><g class="st0"><defs><path id="SVGID_33_" class="st0" d="M311 359.3l-22.8-12.4c0 0 0 0 0 0 .7-.1 2.1-2.7 3.5-5.5l22.8 12.4C313.2 356.6 311.8 359.2 311 359.3 311.1 359.3 311.1 359.3 311 359.3z"/></defs><clipPath id="SVGID_34_"><use xlink:href="#SVGID_33_" style="overflow:visible"/></clipPath><g class="st20"><path class="st2" d="M311 359.3l-22.8-12.4c0 0 0 0 0 0L311 359.3c.10000000000002274.0.0.0.0.0"/><path class="st3" d="M311.1 359.3l-22.8-12.4c0 0 0 0 0 0 .1.0.1.0.2-.1l22.8 12.4C311.2 359.2 311.1 359.3 311.1 359.3c0 0 0 0 0 0"/><path class="st4" d="M311.3 359.2l-22.8-12.4c.8-.5 2-2.9 3.3-5.4l22.8 12.4C313.3 356.3 312.1 358.7 311.3 359.2"/></g></g><g class="st0"><defs><path id="SVGID_35_" class="st0" d="M314.6 353.8l-22.8-12.4c0-.1 1-2.2 2.7-5.9l22.8 12.4C315.5 351.7 314.6 353.7 314.6 353.8z"/></defs><clipPath id="SVGID_36_"><use xlink:href="#SVGID_35_" style="overflow:visible"/></clipPath><g class="st21"><path class="st3" d="M314.6 353.8l-22.8-12.4c0 0 0 0 0 0L314.6 353.8c0 0 0 0 0 0"/><path class="st4" d="M314.6 353.8l-22.8-12.4c.1-.3 1.1-2.3 2.7-5.9l22.8 12.4C315.6 351.5 314.7 353.5 314.6 353.8"/></g></g><g class="st0"><defs><path id="SVGID_37_" class="st0" d="M366.8 210l22.8 12.4c-1.6-.9-4.4-1.5-9.2-.8-9.5 1.3-17.6 4.6-18.6 7.4-1 2.9-2.1 9.6-4.1 16.2-2.1 6.6-25.9 67.2-32.2 82.9-3.2 8-6 14.5-8.3 19.7l-22.8-12.4c2.3-5.2 5.1-11.7 8.3-19.7 6.3-15.7 30.1-76.3 32.2-82.9 2.1-6.6 3.1-13.3 4.1-16.2 1-2.9 9.1-6.1 18.6-7.4C362.4 208.6 365.2 209.2 366.8 210z"/></defs><clipPath id="SVGID_38_"><use xlink:href="#SVGID_37_" style="overflow:visible"/></clipPath><g class="st22"><path class="st4" d="M317.2 347.9l-22.8-12.4c2.3-5.2 5.1-11.7 8.3-19.7 6.1-15.4 29.2-74 32-82.5l22.8 12.4c-2.8 8.4-25.9 67.1-32 82.5C322.3 336.2 319.6 342.6 317.2 347.9"/><path class="st3" d="M357.6 245.7l-22.8-12.4c.1-.2.1-.3.1-.4 2-6.5 3.1-13.1 4.1-16.1l22.8 12.4c-1 3-2.1 9.6-4.1 16.1C357.7 245.4 357.7 245.5 357.6 245.7"/><path class="st4" d="M361.8 229.2 339 216.8c0-.1.0-.1.1-.2.3-.8 1.1-1.6 2.3-2.4l22.8 12.4c-1.2.8-2 1.6-2.3 2.4C361.8 229.1 361.8 229.1 361.8 229.2"/><path class="st3" d="M364.1 226.7l-22.8-12.4c3.2-2.1 9.4-4.1 16.3-5 .3.0.5-.1.8-.1l22.8 12.4c-.3.0-.5.1-.8.1C373.5 222.6 367.3 224.6 364.1 226.7"/><path class="st2" d="M381.2 221.5l-22.8-12.4c4.3-.5 6.8.1 8.4.9l22.8 12.4C388.1 221.6 385.5 221 381.2 221.5"/></g></g><g class="st0"><defs><path id="SVGID_39_" class="st0" d="M295.6 390.9l-22.8-12.4c-11.6-6.3-6.3-38.2-6-40.1l22.8 12.4C289.3 352.7 284 384.6 295.6 390.9z"/></defs><clipPath id="SVGID_40_"><use xlink:href="#SVGID_39_" style="overflow:visible"/></clipPath><g class="st23"><path class="st2" d="M295.6 390.9l-22.8-12.4c-4.4-2.4-6.4-8.5-7.1-15.2l22.8 12.4C289.3 382.5 291.2 388.5 295.6 390.9"/><path class="st3" d="M288.5 375.7l-22.8-12.4c-1.2-11 .9-23.8 1.1-25l22.8 12.4C289.5 352 287.3 364.7 288.5 375.7"/></g></g><g class="st0"><defs><path id="SVGID_41_" class="st0" d="M297.5 269.9l22.8 12.4c-.7-.4-1.5-.7-2.5-.9-1.6-.4-3-.5-4.1-.3-3.9.5-5.4 3.5-5.9 3.6-.6.1-1 1.7-1.1 1.8L283.9 274c0-.1.4-1.7 1.1-1.8.5-.1 2.1-3 5.9-3.6 1.2-.2 2.5-.1 4.1.3C296 269.3 296.8 269.6 297.5 269.9z"/></defs><clipPath id="SVGID_42_"><use xlink:href="#SVGID_41_" style="overflow:visible"/></clipPath><g class="st24"><path class="st3" d="M306.7 286.4 283.9 274c0 0 0-.2.1-.3l22.8 12.4C306.7 286.3 306.7 286.4 306.7 286.4"/><path class="st4" d="M306.8 286.1 284 273.7c.1-.4.4-1.1.8-1.4l22.8 12.4C307.2 285 306.9 285.7 306.8 286.1"/><path class="st3" d="M307.5 284.7l-22.8-12.4c.1.0.1-.1.2-.1.0.0.1.0.1-.1l22.8 12.4c0 0-.1.0-.1.1C307.7 284.7 307.6 284.7 307.5 284.7"/><path class="st4" d="M307.9 284.6l-22.8-12.4c.4-.3 1.1-1.4 2.5-2.3l22.8 12.4C309 283.2 308.2 284.3 307.9 284.6"/><path class="st3" d="M310.4 282.3l-22.8-12.4c.8-.5 1.9-1 3.3-1.2.1.0.2.0.2.0l22.8 12.4c-.1.0-.2.0-.2.0C312.3 281.3 311.2 281.8 310.4 282.3"/><path class="st2" d="M313.9 281.1l-22.8-12.4c1.1-.1 2.4-.1 3.9.3 1 .2 1.8.6 2.5.9l22.8 12.4c-.7-.4-1.5-.7-2.5-.9C316.3 281 315 280.9 313.9 281.1"/></g></g><g class="st0"><defs><path id="SVGID_43_" class="st0" d="M260.2 372.7l-22.8-12.4c.2.1.4.2.7.2.2.0.3.0.5.0 6.3-.9 16.1-33.8 20.9-47l22.8 12.4c-4.8 13.2-14.7 46.1-20.9 47-.2.0-.3.0-.5.0C260.6 372.9 260.4 372.9 260.2 372.7z"
						/></defs><clipPath id="SVGID_44_"><use xlink:href="#SVGID_43_" style="overflow:visible"/></clipPath><g class="st25"><path class="st2" d="M260.2 372.7l-22.8-12.4c.2.1.4.2.7.2.1.0.3.0.5.0l22.8 12.4c-.2.0-.3.0-.5.0C260.6 372.9 260.4 372.9 260.2 372.7"/><path class="st3" d="M261.3 373l-22.8-12.4c0 0 0 0 .1.0.4-.1.8-.2 1.2-.5l22.8 12.4C262.1 372.8 261.8 372.9 261.3 373c.0999999999999659.0.0.0.0.0"/><path class="st4" d="M262.5 372.5l-22.8-12.4c6.3-4.3 15.3-34.1 19.8-46.5l22.8 12.4C277.8 338.4 268.8 368.2 262.5 372.5"/></g></g><g class="st0"><defs><path id="SVGID_45_" class="st0" d="M282.3 326l-22.8-12.4c3-8.5 15-45.9 12.5-50.4l22.8 12.4C297.3 280.1 285.3 317.5 282.3 326z"/></defs><clipPath id="SVGID_46_"><use xlink:href="#SVGID_45_" style="overflow:visible"/></clipPath><g class="st26"><path class="st4" d="M282.3 326l-22.8-12.4c.6-1.6 1.4-4.1 2.4-7.2l22.8 12.4C283.7 321.9 282.9 324.4 282.3 326"/><path class="st3" d="M284.7 318.8l-22.8-12.4c4.2-12.8 11-35.7 10.4-42.1l22.8 12.4C295.7 283.1 288.9 306 284.7 318.8"/><path class="st2" d="M295.1 276.7l-22.8-12.4c-.1-.5-.2-.9-.3-1.2l22.8 12.4C294.9 275.8 295 276.2 295.1 276.7"/></g></g><g class="st0"><defs><path id="SVGID_47_" class="st0" d="M271.1 262.3l22.8 12.4c.4.2.7.5.9.8L272 263.1C271.8 262.8 271.5 262.5 271.1 262.3z"/></defs><clipPath id="SVGID_48_"><use xlink:href="#SVGID_47_" style="overflow:visible"/></clipPath><g class="st27"><path class="st2" d="M294.8 275.5 272 263.1c-.2-.4-.5-.7-.9-.8l22.8 12.4C294.3 274.9 294.6 275.2 294.8 275.5"/></g></g><g class="st0"><defs><path id="SVGID_49_" class="st0" d="M278.1 242.6l22.8 12.4c-2.3-1.2-5.2-1.7-9-1.2l-22.8-12.4C272.9 240.8 275.9 241.3 278.1 242.6z"/></defs><clipPath id="SVGID_50_"><use xlink:href="#SVGID_49_" style="overflow:visible"/></clipPath><g class="st28"><path class="st3" d="M292 253.7l-22.8-12.4c.2.0.4-.1.6-.1l22.8 12.4C292.4 253.7 292.2 253.7 292 253.7"/><path class="st2" d="M292.6 253.7l-22.8-12.4c3.5-.4 6.2.1 8.4 1.3L301 255C298.8 253.8 296 253.3 292.6 253.7"/></g></g><g class="st0"><defs><path id="SVGID_51_" class="st0" d="M247.1 404.3l-22.8-12.4c-.7-.4-1.3-.8-2-1.4-9-8-15.8-30.4-14.4-48.7 1.1-15.5 3.3-26.5 6.4-35.9l22.8 12.4c-3 9.4-5.3 20.3-6.4 35.9-1.4 18.2 5.4 40.7 14.4 48.7C245.8 403.5 246.5 404 247.1 404.3z"/></defs><clipPath id="SVGID_52_"><use xlink:href="#SVGID_51_" style="overflow:visible"/></clipPath><g class="st29"><path class="st2" d="M247.1 404.3l-22.8-12.4c-.7-.4-1.3-.8-2-1.4-6.9-6.1-12.5-20.7-14.1-35.5l22.8 12.4c1.6 14.7 7.2 29.4 14.1 35.5C245.8 403.5 246.5 404 247.1 404.3"/><path class="st3" d="M231 367.5l-22.8-12.4c-.5-4.5-.6-9-.3-13.2 1.1-15.5 3.3-26.5 6.4-35.8l22.8 12.4c-3 9.3-5.3 20.3-6.4 35.8C230.4 358.5 230.5 363 231 367.5"/><path class="st4" d="M237.1 318.4 214.3 306c0 0 0 0 0 0L237.1 318.4c0 0 0 0 0 0"/></g></g><g class="st0"><defs><path id="SVGID_53_" class="st0" d="M248.8 291.4 226 279c9.6-16.3 29.1-35.7 43.1-37.7l22.8 12.4C277.9 255.7 258.5 275.1 248.8 291.4z"/></defs><clipPath id="SVGID_54_"><use xlink:href="#SVGID_53_" style="overflow:visible"/></clipPath><g class="st30"><path class="st4" d="M248.8 291.4 226 279c6.8-11.6 18.5-24.6 29.8-32l22.8 12.4C267.4 266.8 255.6 279.8 248.8 291.4"/><path class="st3" d="M278.6 259.4 255.8 247c4.7-3 9.2-5.1 13.3-5.7l22.8 12.4C287.8 254.3 283.3 256.4 278.6 259.4"/></g></g><g class="st0"><defs><path id="SVGID_55_" class="st0" d="M179.8 415.5 157 403.1c14.8-19.5 20.9-42.3 14.6-66.4l22.8 12.4C200.7 373.2 194.6 396 179.8 415.5z"/></defs><clipPath id="SVGID_56_"><use xlink:href="#SVGID_55_" style="overflow:visible"/></clipPath><g class="st31"><path class="st4" d="M179.8 415.5 157 403.1c6-7.9 10.6-16.4 13.5-25.3l22.8 12.4C190.4 399.1 185.8 407.6 179.8 415.5"/><path class="st3" d="M193.3 390.2l-22.8-12.4c3.1-9.7 4.3-19.8 3.1-30.3l22.8 12.4C197.6 370.4 196.5 380.5 193.3 390.2"/><path class="st2" d="M196.5 359.9l-22.8-12.4c-.4-3.6-1.1-7.2-2-10.9l22.8 12.4C195.4 352.7 196.1 356.3 196.5 359.9"/></g></g><g class="st0"><defs><path id="SVGID_57_" class="st0" d="M200.3 326.8l-22.8-12.4c5.1-3.7 10.5-7.6 15.8-11.5 13.8-10.1 26.7-19.5 32.8-23.9l22.8 12.4c-6.1 4.4-19 13.8-32.8 23.9C210.8 319.2 205.3 323.2 200.3 326.8z"/></defs><clipPath id="SVGID_58_"><use xlink:href="#SVGID_57_" style="overflow:visible"/></clipPath><g class="st32"><path class="st4" d="M200.3 326.8l-22.8-12.4c5.1-3.7 10.5-7.6 15.8-11.5 13.8-10.1 26.7-19.5 32.8-23.9l22.8 12.4c-6.1 4.4-19 13.8-32.8 23.9C210.8 319.2 205.3 323.2 200.3 326.8"/></g></g><g class="st0"><defs><path id="SVGID_59_" class="st0" d="M137.7 438.9l-22.8-12.4c2 1 4.5 1.2 7.5.8 9.8-1.4 23.8-10 34.7-24.2l22.8 12.4c-10.8 14.2-24.9 22.8-34.7 24.2C142.2 440.1 139.6 439.8 137.7 438.9z"/></defs><clipPath id="SVGID_60_"><use xlink:href="#SVGID_59_" style="overflow:visible"/></clipPath><g class="st33"><path class="st2" d="M137.7 438.9l-22.8-12.4c1.8.9 4.2 1.2 6.9.9l22.8 12.4C141.9 440 139.5 439.8 137.7 438.9"/><path class="st3" d="M144.6 439.7l-22.8-12.4c.2.0.4.0.6-.1 4.7-.7 10.4-3 16.2-6.8l22.8 12.4c-5.8 3.8-11.5 6.1-16.2 6.8C145 439.7 144.8 439.7 144.6 439.7"/><path class="st4" d="M161.4 432.9l-22.8-12.4c6.3-4.1 12.8-10 18.4-17.4l22.8 12.4C174.2 422.9 167.7 428.7 161.4 432.9"/></g></g><g class="st0"><defs><path id="SVGID_61_" class="st0" d="M179.5 342.4 156.7 330c1-.7 2.1-1.5 3.4-2.5l22.8 12.4C181.6 340.9 180.5 341.7 179.5 342.4z"/></defs><clipPath id="SVGID_62_"><use xlink:href="#SVGID_61_" style="overflow:visible"/></clipPath><g class="st34"><path class="st4" d="M179.5 342.4 156.7 330c1-.7 2.1-1.5 3.4-2.5l22.8 12.4C181.6 340.9 180.5 341.7 179.5 342.4"/></g></g><g class="st0"><defs><path id="SVGID_63_" class="st0" d="M212.9 219.9l-22.8-12.4c6.3 3.4 17 6.7 32.9 4.4 3.2-.5 6.7-1.1 10.3-2.1 77.4-20.3 124.3-91.8 109.6-124.7-1.8-4.1-5.3-7.6-10.1-10.3l22.8 12.4c4.8 2.6 8.3 6.1 10.1 10.3 14.7 32.9-32.1 104.4-109.6 124.7-3.7 1-7.1 1.6-10.3 2.1C230 226.6 219.2 223.3 212.9 219.9z"/></defs><clipPath id="SVGID_64_"><use xlink:href="#SVGID_63_" style="overflow:visible"/></clipPath><g class="st35"><path class="st2" d="M212.9 219.9l-22.8-12.4c6 3.2 16.1 6.4 30.8 4.7l22.8 12.4C229 226.3 218.9 223.2 212.9 219.9"/><path class="st3" d="M243.7 224.6l-22.8-12.4c.7-.1 1.4-.2 2.1-.3 3.2-.5 6.7-1.1 10.3-2.1 18.7-4.9 35.6-12.8 50.3-22.4l22.8 12.4c-14.7 9.6-31.6 17.5-50.3 22.4-3.7 1-7.1 1.6-10.3 2.1C245.1 224.5 244.4 224.5 243.7 224.6"/><path class="st4" d="M306.5 199.9l-22.8-12.4c30.2-19.8 51.1-46.8 58.7-70.2l22.8 12.4C357.6 153.1 336.7 180.1 306.5 199.9"/><path class="st3" d="M365.2 129.7l-22.8-12.4c2.7-8.2 3.8-16 3-22.8l22.8 12.4C369 113.8 367.9 121.5 365.2 129.7"/><path class="st2" d="M368.2 106.9l-22.8-12.4c-.4-3.4-1.2-6.5-2.5-9.4-1.8-4.1-5.3-7.6-10.1-10.3l22.8 12.4c4.8 2.6 8.3 6.1 10.1 10.3C367 100.4 367.8 103.6 368.2 106.9"/></g></g><g class="st0"><defs><path id="SVGID_65_" class="st0" d="M116.6 468.6l-22.8-12.4c-9.7-5.3-20.4-24.9-8.6-54.8 11.8-29.8 59-63 71.4-71.4l22.8 12.4c-12.4 8.4-59.6 41.6-71.4 71.4C96.2 443.7 106.9 463.3 116.6 468.6z"/></defs><clipPath id="SVGID_66_"><use xlink:href="#SVGID_65_" style="overflow:visible"/></clipPath><g class="st36"><path class="st2" d="M116.6 468.6l-22.8-12.4c-5.9-3.2-12.1-11.6-13.5-24.3l22.8 12.4C104.6 457 110.8 465.4 116.6 468.6"/><path class="st3" d="M103.2 444.3l-22.8-12.4c-.8-7.1-.1-15.6 3.1-25.3l22.8 12.4C103.1 428.6 102.4 437.1 103.2 444.3"/><path class="st4" d="M106.3 418.9l-22.8-12.4c.5-1.7 1.2-3.4 1.8-5.1 11.8-29.8 59-63 71.4-71.4l22.8 12.4c-12.4 8.4-59.6 41.6-71.4 71.4C107.4 415.6 106.8 417.3 106.3 418.9"/></g></g><g class="st0"><defs><path id="SVGID_67_" class="st0" d="M180.9 200.3l22.8 12.4c-.9-.5-1.7-.5-2.7-.2l-22.8-12.4C179.3 199.8 180.1 199.8 180.9 200.3z"/></defs><clipPath id="SVGID_68_"><use xlink:href="#SVGID_67_" style="overflow:visible"/></clipPath><g class="st37"><path class="st3" d="M201 212.5l-22.8-12.4c.3-.1.6-.2.9-.2l22.8 12.4C201.6 212.4 201.3 212.4 201 212.5"/><path class="st2" d="M201.9 212.3l-22.8-12.4c.6-.1 1.2.1 1.8.4l22.8 12.4C203.1 212.4 202.6 212.3 201.9 212.3"/></g></g><g class="st0"><defs><path id="SVGID_69_" class="st0" d="M216 235.9l-22.8-12.4c-8.4-4.5-13.4-10.8-15-15.1-.9-2.4-2.5-6.5.0-8.3l22.8 12.4c-2.5 1.8-.9 5.9.0 8.3C202.6 225.1 207.7 231.4 216 235.9z"/></defs><clipPath id="SVGID_70_"><use xlink:href="#SVGID_69_" style="overflow:visible"/></clipPath><g class="st38"><path class="st2" d="M216 235.9l-22.8-12.4c-8.4-4.5-13.4-10.8-15-15.1-.5-1.2-1.1-2.9-1.3-4.5l22.8 12.4c.2 1.6.8 3.3 1.3 4.5C202.6 225.1 207.7 231.4 216 235.9"/><path class="st3" d="M199.7 216.3l-22.8-12.4c-.1-.8-.1-1.5.2-2.2l22.8 12.4C199.7 214.8 199.6 215.5 199.7 216.3"/><path class="st4" d="M199.9 214.1l-22.8-12.4c.2-.6.6-1.1 1.1-1.6l22.8 12.4C200.4 213 200.1 213.5 199.9 214.1"/></g></g><g><path class="st39" d="M506.9 250.6c44.3-6.2 68.9 21 67.5 49.3-.8 22.2-19.6 33.9-23.1 35-.8.2-1.5.4-2.1.5-1.2.2-2-.1-2.2-1.5-.3-1.4.7-2.2 3.7-4.6 2.9-2.4 11.8-10.2 13.5-22.4 1.6-12.2-6.7-39.6-49-39-4.8.1-9.4.4-13.8 1-13.4 1.9-24.4 6.1-33.5 11.5 2.2 5.9 3.8 12.1 4.1 18.6.5 14.2-8.7 26.1-18.2 35-5.6 5.2-11.5 9-16.5 11.4-3.3 2-7.5 4.2-11 4.6-.7.1-1.4.1-2 .1-8.3-.7-12.6-7.9-7-26.2 3.1-9.9 11.9-25.5 26.1-39.9-3.2-6.7-6.8-13.4-8.6-19.9-3.6-12.7-4.6-20.2-4.7-20.6-.6 1.4-11.7 27.7-26.8 53.5-.9 1.5-1.7 2.9-2.6 4.4 2.9 7 5.3 14.5 5.6 22.4.5 14.2-5.3 25.9-14.8 34.8-5.2 4.9-10.7 8.4-15.4 10.9-3 1.9-9.2 5-17.9 6.9-1 .2-1.9.4-2.9.5-3.7.5-7 .5-9-.9-3.6-2.4-4-5.9-2.1-11 1.6-4.4 13.2-20.3 22.9-34.1 2.8-3.8 5.3-7.8 7.6-11.3-.1-.1 1.7-2.7 4.5-7.5-3.5-7.8-8-15.7-10.1-23.2-3.6-12.7-4.6-20.2-4.7-20.6-.6 1.7-11.9 34.3-24.2 62.2-9.6 21.6-16 34.7-18.9 40.5.0.2-.4 1-1.2 2.4-3.8 6.5-11 17.5-18.1 18.5-19.6 2.8-12.7-38.9-12.3-41.1-.3.8-5.8 16.7-12.2 31.2-5.3 11.9-10 22-20.5 23.4-3 .4-7.7 1-11.7-2.5-9-8-15.8-30.4-14.4-48.7 1.1-15.5 3.3-26.5 6.4-35.9-5.3 3.8-11.6 8.4-17.9 13.4-3.2 2.5-6.5 5-9.7 7.5 8.4 16.2 10.5 52.6-7.1 83.3-14.3 24.9-38.5 43.9-64 47.5-6 .8-12 .8-18-.1-10.2-1.6-25.7-22.3-12.3-56.1 11.8-29.8 59-63 71.4-71.4 1-.7 2.1-1.5 3.4-2.5-24.7-19.9-86.5-42.7-95-89.9-2.4-13.3 3.6-46.7 40.7-89.4 31.3-35.9 74.8-66.2 114.9-87.2 22.1-11.6 44.6-18.8 65.2-21.7 42.4-6 76.9 6.3 84.1 36.4 10.7 44.1-26.1 103.7-73 129.9-24.4 13.6-46.4 20-63.3 22.4-12.1 1.7-21.6 1.3-27.5.1-16.1-3.4-25.6-13.6-27.9-19.8-.9-2.4-2.5-6.5.0-8.3 2.1-.7 3.3.2 6.2 3.3 3.4 3.6 15.7 11.8 38.6 8.6 3.2-.5 6.7-1.1 10.3-2.1 77.4-20.3 124.3-91.8 109.6-124.7-5.4-12.1-24.4-18.6-52.2-14.7-25 3.5-57.1 15.5-92.7 39.4-91.1 61.8-96.1 102.8-96.9 118.3-2.2 42.5 48.1 57.6 75.3 85.2.4.3.7.8 1.1 1.1 5.1-3.7 10.5-7.6 15.8-11.5 13.8-10.1 26.7-19.5 32.8-23.9 9.6-16.3 29.1-35.7 43.1-37.7 22.5-3.2 15.1 30.9 14.7 32.7.0-.1.4-1.7 1.1-1.8.5-.1 2.1-3 5.9-3.6 1.2-.2 2.5-.1 4.1.3 7.1 1.8 5.5 7.4 5.5 8 .1 1-8.4 33.2-12 53.6-1.7 9.7-.7 16.4-.2 16.4.7-.1 2.1-2.7 3.5-5.5.0-.1 1-2.2 2.7-5.9 2.3-5.2 5.1-11.7 8.3-19.7 6.3-15.7 30.1-76.3 32.2-82.9 2.1-6.6 3.1-13.3 4.1-16.2 1-2.9 9.1-6.1 18.6-7.4 10.4-1.4 11.4 3 11.5 4 .1.9-4.7 14.2-5.8 23.2-1.1 9 0 13.4.9 20.6.6 4.8 3.4 10.6 6.7 17.1 10.3-19.4 28.2-56.2 29.9-66.1 1.3-6.7 3.1-13.3 4.1-16.2 1-2.9 9.1-6.1 18.6-7.4 10.4-1.4 11.4 3 11.5 4 .1.9-4.7 14.2-5.8 23.2-1.1 9 0 13.4.9 20.6.8 6.2 5.3 14.2 9.8 23.3C475.1 259.6 489.9 253.1 506.9 250.6zM179.8 415.5c14.8-19.5 20.9-42.3 14.6-66.4-.7.6-1.4 1.2-2.1 1.7.0.0-.4.2-1 .7-3.7 2.9-6.7 5.3-8.7 6.9-9 7.3-22.5 19.1-33.1 31.3-17.3 19.9-20.9 44.8-11.8 49.2 2 1 4.5 1.2 7.5.8C154.9 438.3 169 429.7 179.8 415.5M282.3 326c3-8.5 15-45.9 12.5-50.4-.6-1-1.6-1.3-3-1.1-3.6.5-9.6 4.8-15.1 12.2-4.7 6.4-12.9 22.4-16.7 35.3-7.6 25.8-4.4 50.3 1 51.1.2.0.3.0.5.0C267.6 372.1 277.5 339.2 282.3 326M431.9 332.5c7.4-3.9 19.7-12.6 19.8-31.1.1-2.8-.5-5.7-1.4-8.6-7.9 8.7-12.6 17.2-14.5 22.2C430.6 327.7 430.4 331.6 431.9 332.5M385.8 326.4c0-.4.0-.9.0-1.2-3 4.7-5.9 9-8.3 12.6-4.2 6.2-14.3 19.2-14.8 19.9-.1.1-1.5 1.8-.9 2.1.2.1.5.1.8.1 1-.1 2.5-1 4.1-2.1C372.6 352.8 385.8 341.1 385.8 326.4"/></g><g class="st0"><defs><path id="SVGID_71_" class="st0" d="M347.1 46.9l22.8 12.4c-15.5-8.4-37.1-10.9-61.3-7.5-20.6 2.9-43.1 10.1-65.2 21.7-40.1 21-83.6 51.3-114.9 87.2-37.2 42.7-43.1 76.1-40.7 89.4 8.5 47.2 70.3 70 95 89.9L160 327.6c-24.7-19.9-86.5-42.7-95-89.9-2.4-13.3 3.6-46.7 40.7-89.4 31.3-35.9 74.8-66.2 114.9-87.2 22.1-11.6 44.6-18.8 65.2-21.7C310 36 331.7 38.5 347.1 46.9z"/></defs><clipPath id="SVGID_72_"><use xlink:href="#SVGID_71_" style="overflow:visible"/></clipPath><g class="st40"><path class="st2" d="M182.9 339.9l-22.8-12.4c-24.7-19.9-86.5-42.7-95-89.9-.1-.6-.2-1.1-.3-1.8l22.8 12.4c.1.6.2 1.2.3 1.8C96.4 297.3 158.2 320.1 182.9 339.9"/><path class="st3" d="M87.6 248.3l-22.8-12.4c-.7-6 .2-15.1 3.9-26.6l22.8 12.4C87.8 233.2 86.9 242.3 87.6 248.3"/><path class="st4" d="M91.5 221.7l-22.8-12.4c5.3-16.2 16.3-37.1 37.1-61 21.4-24.5 48.4-46.4 76.1-64.5l22.8 12.4c-27.8 18.1-54.8 40-76.1 64.5C107.8 184.5 96.8 205.5 91.5 221.7"/><path class="st3" d="M204.7 96.2l-22.8-12.4c12.9-8.4 26-16 38.7-22.7 22.1-11.6 44.6-18.8 65.2-21.7 1.4-.2 2.8-.4 4.2-.5l22.8 12.4c-1.4.2-2.8.3-4.2.5-20.6 2.9-43.1 10.1-65.2 21.7C230.7 80.1 217.6 87.7 204.7 96.2"/><path class="st2" d="M312.9 51.3l-22.8-12.4c22.5-2.5 42.5.2 57.1 8.1L370 59.4C355.4 51.4 335.3 48.7 312.9 51.3"/></g></g></g></g></g></svg>