<?xml version="1.0" encoding="utf-8"?>
<!-- Generator: Adobe Illustrator 22.0.0, SVG Export Plug-In . SVG Version: 6.00 Build 0)  -->
<svg version="1.1" id="Calque_1" xmlns="http://www.w3.org/2000/svg" xmlns:xlink="http://www.w3.org/1999/xlink" x="0px" y="0px"
	 viewBox="0 0 202 223.7" style="enable-background:new 0 0 202 223.7;" xml:space="preserve">
<style type="text/css">
	.st0{display:none;}
	.st1{display:none;fill:#FFFFFF;}
	.st2{fill:#FFFFFF;}
</style>
<g id="fond" class="st0">
</g>
<g id="compacte" class="st0">
</g>
<g id="rectangle" class="st0">
</g>
<g id="carré">
	<rect class="st1" width="202" height="223.7"/>
	<g>
		<g>
			<path d="M156,84.4c0,31-25.1,56.1-56.1,56.1c-31,0-56.1-25.1-56.1-56.1c0-31,25.1-56.1,56.1-56.1C130.8,28.4,156,53.5,156,84.4z"
				/>
			<path class="st2" d="M124.4,49.1c-5.7,0.2-10.7,3.3-14.4,7.7c-4.1,4.8-6.8,10.4-8.8,16.2c-3.5-2.9-6.2-6.6-11.9-8.2
				c-4.4-1.3-8.9-0.7-13.1,2.4c-2,1.5-3.4,3.7-4,5.9c-1.7,5.5,1.8,10.4,3.4,12.2l3.4,3.7c0.7,0.7,2.4,2.6,1.6,5.3
				c-0.9,2.9-4.5,4.8-8.1,3.7c-1.6-0.5-4-1.7-3.4-3.4c0.2-0.7,0.7-1.2,1-1.8c0.2-0.5,0.4-0.9,0.4-1.1c0.7-2.2-0.2-5-2.6-5.7
				c-2.2-0.7-4.4-0.1-5.3,2.7c-1,3.2,0.5,8.9,8.7,11.4c9.5,2.9,17.6-2.3,18.7-9c0.7-4.2-1.2-7.4-4.7-11.4l-2.9-3.2
				c-1.7-1.7-2.3-4.7-0.5-6.9c1.5-1.9,3.7-2.7,7.2-1.8c5.2,1.4,7.4,5,11.3,7.9c-1.6,5.2-2.6,10.4-3.5,15.1L96.3,94
				c-2.7,14.4-4.8,22.2-10.3,26.8c-1.1,0.8-2.7,1.9-5,2c-1.2,0-1.6-0.8-1.7-1.2c0-0.9,0.7-1.3,1.2-1.7c0.7-0.4,1.8-1.1,1.7-3.2
				c-0.1-2.5-2.1-4.6-5.1-4.5c-2.2,0.1-5.6,2.2-5.5,6c0.1,4,3.8,6.9,9.4,6.8c3-0.1,9.6-1.3,16.2-9.1c7.6-8.9,9.8-19.2,11.4-26.7
				l1.8-9.9c1,0.1,2.1,0.2,3.2,0.2c9.5,0.2,14.3-4.7,14.3-8.3c0-2.2-1.4-4.3-3.5-4.3c-1.5,0-3.3,1-3.8,3.1c-0.4,2,3,3.8,0.3,5.6
				c-1.9,1.2-5.4,2.1-10.2,1.4l0.9-4.9c1.8-9.2,4-20.6,12.4-20.9c0.6,0,2.9,0,2.9,1.5c0,0.5-0.1,0.6-0.7,1.8
				c-0.6,0.9-0.8,1.6-0.8,2.5c0.1,2.4,1.9,3.9,4.5,3.8c3.5-0.1,4.5-3.5,4.4-5.2C134.4,51.5,130.1,48.9,124.4,49.1z"/>
		</g>
		<g>
			<g>
				<path d="M120.7,163.9c5.7,0,9.5,4.1,9.5,9.8c0,5.3-3.9,9.8-9.5,9.8c-5.6,0-9.5-4.4-9.5-9.8C111.2,168,115,163.9,120.7,163.9z
					 M120.7,180.6c4,0,5.8-3.7,5.8-7c0-3.5-2.2-7-5.8-7c-3.7,0-5.8,3.4-5.8,7C114.8,177,116.6,180.6,120.7,180.6z"/>
			</g>
			<path d="M110.7,165.6v-1.3h-4.9v-1.8c0-2.5,0.4-4.4,3.3-4.4c0.1,0,0.1,0,0.2,0c0,0,0,0,0,0c0.8,0.1,1.5-0.6,1.5-1.4l0.1-1.1
				c-0.7-0.1-1.4-0.2-2.3-0.2c-5.1,0-6.2,3-6.2,7.5v1.5H98v1.4c0.1,0.8,0.8,1.3,1.5,1.3c0,0,0,0,0,0h2.8V183h1.9c0,0,0,0,0,0
				c0.8,0,1.4-0.6,1.5-1.3v-14.5h3.4C110,167.1,110.7,166.4,110.7,165.6z"/>
			<path d="M65,164.3C65,164.3,65,164.3,65,164.3c-0.7,0-1.4,0.5-1.7,1.2l-4.7,14.3h-0.1l-4.6-14.2c-0.3-0.7-1-1.2-1.7-1.2
				c0,0,0,0,0,0h-2.4l6.3,17.4c0.2,0.6,0.7,1.6,0.7,2c0,0.4-1,4.6-4.1,4.6c-0.1,0-0.2,0-0.2,0c-0.8,0-1.4,0.5-1.5,1.3l-0.1,1.2
				c0.6,0.1,1.2,0.3,2.3,0.3c4.5,0,5.9-4.1,7.2-7.7l6.9-19L65,164.3L65,164.3z"/>
			<path d="M43.1,168.1c-2.8-1.5-5.9-2.4-6-5.4c0-3.1,2.9-3.9,5.1-3.9c0,0,0,0,0,0c1,0,1.7,0.1,2.5,0.3c0,0,0,0,0,0
				c0.8,0.1,1.4-0.6,1.5-1.3l0.1-1.1c-1.4-0.4-2.9-0.5-4.3-0.5c-4.8,0-8.3,2.4-8.3,7c0,4,2.7,5.6,5.6,7c2.9,1.4,6,2.5,6,5.8
				c0,3.5-3.3,4.7-5.6,4.7c-1.3,0-2.8-0.3-4-0.7c-0.8-0.1-1.4,0.6-1.5,1.5l-0.1,1c1.7,0.5,3.4,1,5.2,1c0,0,0,0,0,0c0,0,0,0,0,0
				c5.3,0,9.5-2.2,9.5-7.7C48.7,171.4,46,169.6,43.1,168.1z"/>
			<path d="M95.1,183C95.1,183,95.1,183,95.1,183c0.7,0,1.4-0.5,1.5-1.2V171c0-4.1-1.7-7.1-6.5-7.1c-1.7,0-4.5,1-5.8,3.6
				c-1-2.5-3.1-3.6-5.3-3.6c-2.7,0-4.6,1-5.9,3.1h-0.1v-1.2c0-0.9-0.7-1.5-1.6-1.5c0,0,0,0,0,0h-1.6V183h1.9c0,0,0,0,0,0
				c0.9,0,1.6-0.7,1.6-1.6c0,0,0,0,0,0v-7.8c0-3.5,1.4-6.9,4.9-6.9c2.8,0,3.3,2.9,3.3,5.2V183h1.9c0,0,0,0,0,0
				c0.8,0,1.5-0.6,1.5-1.4v-8c0-3.5,1.4-6.9,4.9-6.9c2.8,0,3.3,2.9,3.3,5.2V183L95.1,183L95.1,183z"/>
			<path d="M148.2,183C148.2,183,148.2,183,148.2,183c0.8,0,1.5-0.7,1.6-1.5v-9.6c0-5-2.2-8-7-8c-2.6,0-5.1,1.3-6.1,3.4h-0.1v-1.4
				c0,0,0,0,0,0c0-0.9-0.7-1.6-1.6-1.6c0,0,0,0,0,0h-1.8V183h1.9c0,0,0,0,0,0c0.8,0,1.5-0.6,1.5-1.4v-7.2c0-4.5,1.8-7.7,5.7-7.7
				c3,0.2,3.9,2.3,3.9,6.6v9.6L148.2,183L148.2,183z"/>
			<path d="M166.7,164.3C166.7,164.3,166.6,164.3,166.7,164.3c-0.7,0-1.4,0.5-1.7,1.2l-4.7,14.3h-0.1l-4.6-14.2
				c-0.3-0.7-1-1.2-1.7-1.2c0,0,0,0,0,0h-2.4l6.3,17.4c0.2,0.6,0.7,1.6,0.7,2c0,0.4-1,4.6-4.1,4.6c-0.1,0-0.2,0-0.2,0
				c-0.8,0-1.4,0.5-1.5,1.3l-0.1,1.2c0.6,0.1,1.2,0.3,2.3,0.3c4.5,0,5.9-4.1,7.2-7.7l6.9-19L166.7,164.3L166.7,164.3z"/>
		</g>
	</g>
</g>
</svg>
