<svg id="Calque_1" xmlns="http://www.w3.org/2000/svg" xmlns:xlink="http://www.w3.org/1999/xlink" viewBox="0 0 400 400" style="enable-background:new 0 0 400 400"><style>.st0{fill:url(#SVGID_1_)}.st1{fill:url(#SVGID_2_)}.st2{opacity:.3}.st3{fill:#fff}.st4{opacity:.15;fill:#231f20}.st5{font-family:myriadpro-regular}.st6{font-size:50px}.st7{letter-spacing:2}</style><g><g><g><g><linearGradient id="SVGID_1_" gradientUnits="userSpaceOnUse" x1="200.9476" y1="325" x2="200.9476" y2="75"><stop offset="0" style="stop-color:#dbdcdd"/><stop offset=".1357" style="stop-color:#e0e1e2"/><stop offset=".5752" style="stop-color:#ededee"/><stop offset="1" style="stop-color:#f1f1f2"/></linearGradient><path class="st0" d="M300.9 325H100.9V75h140L300.9 135z"/><linearGradient id="SVGID_2_" gradientUnits="userSpaceOnUse" x1="200.9476" y1="155" x2="200.9476" y2="75"><stop offset="0" style="stop-color:#7fb439"/><stop offset="1" style="stop-color:#bed630"/></linearGradient><path class="st1" d="M240.9 75h-140v80H300.9V135z"/><g class="st2"><path class="st3" d="M241 135h60L241 75z"/></g></g><path class="st4" d="M285.7 263.6l-.6-29-.1.1.1-.1-34.6-16.5-16.2 7-.4-19.5-34.6-15.9-34.1 14.2h-.1v19.6l-14.8-7-34.1 14.8.8.4-.8-.4v27.9l35.8 19.3v0h0l23.1-11.4 28.6 15.9v0l27.3-14.1 21 11.3v0L285.7 263.6zM282.3 261.9 255 275.5v-23.9l27.3-14.2V261.9zM198.7 192.5l29.6 13.6-26.7 13.6-30.7-15.3L198.7 192.5zM231.1 209v23.9l-1.4.7-3.9-1.8-3.3-1.5-17.7-8.1L231.1 209zM168 207.3l31 14.9-19.4 8.1-11.6-5.5V207.3zM150.9 273.8l-31.8-17.1v-22.2l31.8 15.4V273.8zM121.4 231.7l28.5-11.9 15.3 7.1 2.8 1.3 7.9 3.7-2.1.9-3.9 1.6-1.9.8h.1v4.1l-15.4 7.8L121.4 231.7zM154.9 273.8l-.6-23.9 13.7-7.1V263l4 2.2L154.9 273.8zM202.7 278.4l-24.2-13-3.2-1.7-4.4-2.4v-22.7l1.1.5.6.3 1.1.5 8.2 4 3.5 1.7 17.4 8.4V278.4zM203.8 251.1l-1.4-.7-1.4-.7v0l-15.7-7.6-3.5-1.7-4.8-2.3-.1-.1-1-.5-.4-.2-2-1-.4-.2.2-.1 3.7-1.6.2-.1 6-2.5 16.6-7 .6-.3.5-.2.6-.3 2.2 1 14.5 6.7 7.5 3.5 3.5 1.6 1.8.8-2 1h-.1l-2.1 1-7.7 3.7-2.8 1.4L203.8 251.1zM232.3 265.5l-3.8 1.8-21.8 10.5-.6-23.9 10.2-5.1 2.8-1.4 11.3-5.6h0l2-1h0l.1-.1.8-.4v.8.1 2l.5 21.5L232.3 265.5zM251 275.5l-16.2-8.7 2-1v-21.1l14.2 6.9V275.5zM236.8 240.8v-4l-3.5-1.6 1.3-.6-.1-6.5 15.5-6.6 29.6 13.7-26.7 13.6L236.8 240.8z"/></g></g><g><text transform="matrix(1 0 0 1 118.9431 132.0005)" class="st3 st5 st6 st7">VBA</text></g></g></svg>