<?xml version="1.0" encoding="utf-8"?>
<!-- Generator: Adobe Illustrator 22.0.0, SVG Export Plug-In . SVG Version: 6.00 Build 0)  -->
<svg version="1.1" id="Calque_1" xmlns="http://www.w3.org/2000/svg" xmlns:xlink="http://www.w3.org/1999/xlink" x="0px" y="0px"
	 viewBox="0 0 261.8 257.7" style="enable-background:new 0 0 261.8 257.7;" xml:space="preserve">
<style type="text/css">
	.st0{enable-background:new    ;}
	.st1{fill:#2E825D;}
	.st2{fill:#266C4D;}
	.st3{fill:#1E2B37;}
	.st4{fill:#253442;}
	.st5{fill:#2D4052;}
	.st6{fill:#1A252F;}
	.st7{fill:#215C42;}
	.st8{fill:#39A172;}
</style>
<g transform="matrix(1.3333 0 0 -1.3333 -76.311 313.34)">
	<g>
		<g class="st0">
			<g>
				<polygon class="st1" points="216.5,214.9 199.4,224.2 234.4,229.1 251.5,219.8 				"/>
			</g>
			<g>
				<polygon class="st2" points="163.9,109.5 146.8,118.8 199.4,224.2 216.5,214.9 				"/>
			</g>
			<g>
				<polygon class="st3" points="164,169.8 146.9,179.1 167.2,219.7 184.3,210.4 				"/>
			</g>
			<g>
				<polygon class="st4" points="184.3,210.4 167.2,219.7 199.4,224.2 216.5,214.9 				"/>
			</g>
			<g>
				<polygon class="st4" points="111.7,200.2 94.6,209.4 126.8,214 143.9,204.7 				"/>
			</g>
			<g>
				<polygon class="st5" points="216.5,214.9 163.9,109.5 111.7,200.2 143.9,204.7 164,169.8 184.3,210.4 				"/>
			</g>
			<g>
				<polygon class="st6" points="163.9,109.5 146.8,118.8 94.6,209.4 111.7,200.2 				"/>
			</g>
			<g>
				<polygon class="st7" points="163.8,44.2 146.7,53.5 59.6,204.5 76.7,195.2 				"/>
			</g>
			<g>
				<polygon class="st8" points="251.5,219.8 163.8,44.2 76.7,195.2 111.7,200.2 163.9,109.5 216.5,214.9 				"/>
			</g>
			<g>
				<polygon class="st1" points="76.7,195.2 59.6,204.5 94.6,209.4 111.7,200.2 				"/>
			</g>
		</g>
	</g>
</g>
</svg>
