<?xml version="1.0" encoding="utf-8"?>
<!-- Generator: Adobe Illustrator 22.0.0, SVG Export Plug-In . SVG Version: 6.00 Build 0)  -->
<svg version="1.1" id="Calque_1" xmlns="http://www.w3.org/2000/svg" xmlns:xlink="http://www.w3.org/1999/xlink" x="0px" y="0px"
	 viewBox="0 0 2500 1662" style="enable-background:new 0 0 2500 1662;" xml:space="preserve">
<style type="text/css">
	.st0{enable-background:new    ;}
	.st1{clip-path:url(#SVGID_2_);enable-background:new    ;}
	.st2{fill:#663D5E;}
	.st3{fill:#633B5C;}
	.st4{fill:#603959;}
	.st5{clip-path:url(#SVGID_4_);enable-background:new    ;}
	.st6{fill:#51304A;}
	.st7{fill:#6E4165;}
	.st8{fill:#4F2F49;}
	.st9{clip-path:url(#SVGID_6_);enable-background:new    ;}
	.st10{fill:#54324D;}
	.st11{fill:#573450;}
	.st12{fill:#5A3553;}
	.st13{fill:#5D3756;}
	.st14{fill:#87507D;}
	.st15{clip-path:url(#SVGID_8_);enable-background:new    ;}
	.st16{fill:#9E9E9E;}
	.st17{fill:#A3A3A3;}
	.st18{fill:#A8A8A8;}
	.st19{fill:#999999;}
	.st20{fill:#949494;}
	.st21{fill:#8F8F8F;}
	.st22{fill:#8A8A8A;}
	.st23{fill:#858585;}
	.st24{clip-path:url(#SVGID_10_);enable-background:new    ;}
	.st25{clip-path:url(#SVGID_12_);enable-background:new    ;}
	.st26{fill:#DFDFDF;}
	.st27{clip-path:url(#SVGID_14_);enable-background:new    ;}
	.st28{clip-path:url(#SVGID_16_);enable-background:new    ;}
	.st29{clip-path:url(#SVGID_18_);enable-background:new    ;}
	.st30{clip-path:url(#SVGID_20_);enable-background:new    ;}
	.st31{clip-path:url(#SVGID_22_);enable-background:new    ;}
	.st32{clip-path:url(#SVGID_24_);enable-background:new    ;}
	.st33{clip-path:url(#SVGID_26_);enable-background:new    ;}
	.st34{clip-path:url(#SVGID_28_);enable-background:new    ;}
	.st35{clip-path:url(#SVGID_30_);enable-background:new    ;}
	.st36{clip-path:url(#SVGID_32_);enable-background:new    ;}
	.st37{clip-path:url(#SVGID_34_);enable-background:new    ;}
</style>
<g>
	<g>
		<g class="st0">
			<g class="st0">
				<defs>
					<path id="SVGID_1_" class="st0" d="M2221.6,64.2l91.2,49.6c-32-17.4-70-24.8-110.9-19l-91.2-49.6
						C2151.6,39.5,2189.6,46.8,2221.6,64.2z"/>
				</defs>
				<clipPath id="SVGID_2_">
					<use xlink:href="#SVGID_1_"  style="overflow:visible;"/>
				</clipPath>
				<g class="st1">
					<path class="st2" d="M2201.9,94.8l-91.2-49.6c25.2-3.5,49.4-2.1,71.8,3.7l91.2,49.6C2251.3,92.7,2227.2,91.3,2201.9,94.8"/>
					<path class="st3" d="M2273.7,98.5l-91.2-49.6c11.4,2.9,22.4,7,32.8,12.1l91.2,49.6C2296.1,105.5,2285.1,101.4,2273.7,98.5"/>
					<path class="st4" d="M2306.5,110.6L2215.3,61c2.1,1,4.2,2.1,6.3,3.3l91.2,49.6C2310.7,112.7,2308.6,111.6,2306.5,110.6"/>
				</g>
			</g>
			<g class="st0">
				<defs>
					<path id="SVGID_3_" class="st0" d="M278.7,1524l-91.2-49.6c-57.9-31.5-96.3-96-96.1-175.7l91.2,49.6
						C182.5,1428,220.8,1492.5,278.7,1524z"/>
				</defs>
				<clipPath id="SVGID_4_">
					<use xlink:href="#SVGID_3_"  style="overflow:visible;"/>
				</clipPath>
				<g class="st5">
					<path class="st6" d="M278.7,1524l-91.2-49.6c-57.9-31.5-96.3-96-96.1-175.7l91.2,49.6C182.5,1428,220.8,1492.5,278.7,1524"/>
				</g>
			</g>
			<g>
				<polygon class="st7" points="390.9,349.3 299.7,299.7 2110.7,45.2 2201.9,94.8 				"/>
			</g>
			<g>
				<polygon class="st8" points="182.6,1348.3 91.4,1298.7 92.8,552.6 184,602.2 				"/>
			</g>
			<g class="st0">
				<defs>
					<path id="SVGID_5_" class="st0" d="M184,602.2l-91.2-49.6C92.1,430,185.1,315.8,299.7,299.7l91.2,49.6
						C276.3,365.4,183.3,479.6,184,602.2z"/>
				</defs>
				<clipPath id="SVGID_6_">
					<use xlink:href="#SVGID_5_"  style="overflow:visible;"/>
				</clipPath>
				<g class="st9">
					<path class="st6" d="M184,602.2l-91.2-49.6c-0.2-30.5,5.5-60.5,15.8-88.6l91.2,49.6C189.5,541.7,183.8,571.7,184,602.2"/>
					<path class="st10" d="M199.8,513.6L108.6,464c4.4-11.9,9.6-23.5,15.6-34.6l91.2,49.6C209.4,490.1,204.2,501.7,199.8,513.6"/>
					<path class="st11" d="M215.4,479l-91.2-49.6c5.1-9.5,10.7-18.6,16.9-27.3l91.2,49.6C226.1,460.4,220.5,469.5,215.4,479"/>
					<path class="st12" d="M232.2,451.6l-91.2-49.6c5.8-8.2,12-16.1,18.6-23.6l91.2,49.6C244.2,435.5,238,443.4,232.2,451.6"/>
					<path class="st13" d="M250.9,428l-91.2-49.6c6.7-7.5,13.7-14.7,21.1-21.4l91.2,49.6C264.6,413.3,257.5,420.5,250.9,428"/>
					<path class="st4" d="M272,406.6L180.8,357c8-7.2,16.3-13.8,25.1-19.8l91.2,49.6C288.3,392.9,280,399.5,272,406.6"/>
					<path class="st3" d="M297.1,386.8l-91.2-49.6c10.7-7.4,21.9-13.9,33.6-19.4l91.2,49.6C319,372.9,307.7,379.4,297.1,386.8"/>
					<path class="st2" d="M330.6,367.5l-91.2-49.6c19.1-9,39.3-15.2,60.3-18.1l91.2,49.6C369.9,352.3,349.7,358.5,330.6,367.5"/>
				</g>
			</g>
			<g>
				<path class="st14" d="M2201.9,94.8c114.6-16.1,207.2,71,207,194.7l-1.4,746.1c-0.2,123.7-93.2,236.9-207.8,253l-649.5,91.3
					l88.7,223.1l-391.6-180.5L389.6,1543c-114.6,16.1-207.2-71-207-194.7l1.4-746.1c-0.7-122.6,92.3-236.8,206.9-252.9L2201.9,94.8z
					"/>
			</g>
		</g>
	</g>
</g>
<g>
	<g>
		<g class="st0">
			<g class="st0">
				<defs>
					<path id="SVGID_7_" class="st0" d="M1989.3,967.3l-45.6-24.8c5.3,2.9,10.9,4.6,16.8,5.1c3.5,0.3,7.1,0.1,10.8-0.4
						c19.5-2.7,40.4-16.7,62.5-41.2c33.5-36.9,56.2-87.9,69-154.1l45.6,24.8c-12.8,66.2-35.5,117.2-69,154.1
						c-22.1,24.5-43,38.4-62.5,41.2c-3.6,0.5-7.2,0.6-10.8,0.4C2000.2,971.8,1994.6,970.2,1989.3,967.3z"/>
				</defs>
				<clipPath id="SVGID_8_">
					<use xlink:href="#SVGID_7_"  style="overflow:visible;"/>
				</clipPath>
				<g class="st15">
					<path class="st16" d="M1989.3,967.3l-45.6-24.8c0.5,0.3,1.1,0.6,1.6,0.8l45.6,24.8C1990.4,967.9,1989.9,967.6,1989.3,967.3"/>
					<path class="st17" d="M1990.9,968.1l-45.6-24.8c2.6,1.3,5.3,2.3,8.1,3l45.6,24.8C1996.3,970.4,1993.6,969.4,1990.9,968.1"/>
					<path class="st18" d="M1999.1,971.1l-45.6-24.8c2.3,0.6,4.6,1,7,1.2c3.5,0.3,7.1,0.1,10.8-0.4c6-0.8,12.2-2.8,18.5-5.7
						l45.6,24.8c-6.3,3-12.4,4.9-18.5,5.7c-3.6,0.5-7.2,0.6-10.8,0.4C2003.7,972.1,2001.4,971.7,1999.1,971.1"/>
					<path class="st17" d="M2035.3,966.2l-45.6-24.8c4.6-2.1,9.2-4.8,13.9-8.1l45.6,24.8C2044.5,961.4,2039.9,964.1,2035.3,966.2"/>
					<path class="st16" d="M2049.2,958.2l-45.6-24.8c4.7-3.3,9.6-7.1,14.4-11.5l45.6,24.8C2058.8,951,2054,954.9,2049.2,958.2"/>
					<path class="st19" d="M2063.7,946.6l-45.6-24.8c5.2-4.7,10.4-9.9,15.7-15.8c0.6-0.7,1.2-1.3,1.8-2l45.6,24.8
						c-0.6,0.7-1.2,1.3-1.8,2C2074.1,936.7,2068.8,942,2063.7,946.6"/>
					<path class="st20" d="M2081.2,928.8l-45.6-24.8c5.5-6.2,10.7-12.9,15.7-19.9l45.6,24.8C2091.9,916,2086.7,922.6,2081.2,928.8"
						/>
					<path class="st21" d="M2096.8,908.9l-45.6-24.8c5.6-7.9,10.8-16.4,15.6-25.3l45.6,24.8C2107.6,892.5,2102.4,901,2096.8,908.9"
						/>
					<path class="st22" d="M2112.4,883.6l-45.6-24.8c6.6-12.2,12.5-25.4,17.7-39.6l45.6,24.8C2124.9,858.1,2119,871.3,2112.4,883.6"
						/>
					<path class="st23" d="M2130.1,844l-45.6-24.8c7.5-20.4,13.6-42.8,18.3-67.3l45.6,24.8C2143.7,801.2,2137.6,823.6,2130.1,844"/>
				</g>
			</g>
			<g class="st0">
				<defs>
					<path id="SVGID_9_" class="st0" d="M2056.7,541.3l45.6,24.8c14.4,7.8,26.6,24.5,36.5,50.9c10.8,28.7,16.2,58.2,16.1,86.5
						c0,25.4-1.9,50-6.5,73.1l-45.6-24.8c4.6-23.1,6.4-47.7,6.5-73.1c0.1-28.3-5.3-57.8-16.1-86.5
						C2083.3,565.8,2071.1,549.1,2056.7,541.3z"/>
				</defs>
				<clipPath id="SVGID_10_">
					<use xlink:href="#SVGID_9_"  style="overflow:visible;"/>
				</clipPath>
				<g class="st24">
					<path class="st23" d="M2148.4,776.7l-45.6-24.8c4.6-23.1,6.4-47.7,6.5-73.1c0.1-28.3-5.3-57.8-16.1-86.5
						c-9.8-26.4-22.1-43.1-36.5-50.9l45.6,24.8c14.4,7.8,26.6,24.5,36.5,50.9c10.8,28.7,16.2,58.2,16.1,86.5
						C2154.8,728.9,2153,753.6,2148.4,776.7"/>
				</g>
			</g>
			<g class="st0">
				<defs>
					<path id="SVGID_11_" class="st0" d="M1899.1,1118.7l-45.6-24.8c-28.5-15.5-51.9-39.3-70.4-71.6c-28.8-49.6-43.2-112-43.1-187.2
						c0.2-100.5,23.9-195.6,71.1-285.2c55.4-105.4,126-164.1,212.8-176.3c15.4-2.2,31.7-2.5,48.8-1c27.7,2.4,52.4,9.5,74.1,21.3
						l45.6,24.8c-21.7-11.8-46.4-18.9-74.1-21.3c-17.2-1.5-33.5-1.2-48.8,1c-86.8,12.2-157.5,70.9-212.8,176.3
						c-47.2,89.6-70.9,184.7-71.1,285.2c-0.1,75.2,14.2,137.6,43.1,187.2C1847.1,1079.4,1870.5,1103.1,1899.1,1118.7z"/>
				</defs>
				<clipPath id="SVGID_12_">
					<use xlink:href="#SVGID_11_"  style="overflow:visible;"/>
				</clipPath>
				<g class="st25">
					<path class="st23" d="M1899.1,1118.7l-45.6-24.8c-28.5-15.5-51.9-39.3-70.4-71.6c-28.8-49.6-43.2-112-43.1-187.2
						c0.1-72.4,12.5-142.1,37-208.8l45.6,24.8c-24.5,66.8-36.9,136.4-37,208.8c-0.1,75.2,14.2,137.6,43.1,187.2
						C1847.1,1079.4,1870.5,1103.1,1899.1,1118.7"/>
					<path class="st22" d="M1822.7,651l-45.6-24.8c9.5-25.9,20.9-51.3,34-76.4c0.8-1.6,1.6-3.1,2.5-4.7l45.6,24.8
						c-0.8,1.5-1.6,3.1-2.5,4.7C1843.5,599.7,1832.2,625.1,1822.7,651"/>
					<path class="st21" d="M1859.2,570l-45.6-24.8c9.9-18.5,20.4-35.6,31.3-51.1l45.6,24.8C1879.6,534.5,1869.1,551.5,1859.2,570"/>
					<path class="st20" d="M1890.5,518.9l-45.6-24.8c8.6-12.2,17.5-23.5,26.6-33.9l45.6,24.8C1907.9,495.4,1899,506.7,1890.5,518.9"
						/>
					<path class="st19" d="M1917.1,485l-45.6-24.8c8.3-9.4,16.8-18,25.5-25.8l45.6,24.8C1933.9,467,1925.4,475.6,1917.1,485"/>
					<path class="st16" d="M1942.6,459.1l-45.6-24.8c8.8-7.9,17.8-15.1,27.1-21.5l45.6,24.8C1960.4,444,1951.4,451.2,1942.6,459.1"
						/>
					<path class="st17" d="M1969.7,437.6l-45.6-24.8c11.1-7.6,22.5-14.2,34.2-19.8l45.6,24.8C1992.2,423.4,1980.8,430,1969.7,437.6"
						/>
					<path class="st18" d="M2004,417.8l-45.6-24.8c20.7-9.8,42.6-16.2,65.6-19.5c15.4-2.2,31.7-2.5,48.8-1c12.1,1.1,23.7,3,34.7,5.9
						l45.6,24.8c-11-2.8-22.5-4.8-34.7-5.9c-17.2-1.5-33.5-1.2-48.8,1C2046.5,401.6,2024.7,408.1,2004,417.8"/>
					<path class="st17" d="M2153,403.2l-45.6-24.8c11.8,3.1,23,7.2,33.5,12.3l45.6,24.8C2176,410.4,2164.9,406.3,2153,403.2"/>
					<path class="st16" d="M2186.5,415.5l-45.6-24.8c2,1,4,2,6,3.1l45.6,24.8C2190.5,417.6,2188.5,416.5,2186.5,415.5"/>
				</g>
			</g>
			<g>
				<path class="st26" d="M2262.9,490.2c28.8,48.6,44.1,109.9,43.1,186.2c-0.2,100.5-23.9,195.6-71.1,286.2
					c-54.4,105.3-125.1,164-212.8,176.3c-15.4,2.2-31.7,2.5-48.8,1c-64.2-5.6-112.1-36-144.5-92.9c-28.8-49.6-43.2-112-43.1-187.2
					c0.2-100.5,23.9-195.6,71.1-285.2c55.4-105.4,126-164.1,212.8-176.3c15.4-2.2,31.7-2.5,48.8-1
					C2182.6,403,2230.4,433.3,2262.9,490.2z M2148.4,776.7c4.6-23.1,6.4-47.7,6.5-73.1c0.1-28.3-5.3-57.8-16.1-86.5
					c-13.5-36.2-31.5-54.1-53.2-56c-4.2-0.3-8.4-0.1-12.6,0.4c-28.1,4-55.5,28-81.6,73.3c-24.5,40.5-39.9,81.7-48.2,122.9
					c-4.6,23.1-6.4,47.7-6.4,72.1c-0.1,28.3,5.3,57.8,16.1,86.5c13.5,36.2,31.5,54.1,53.2,56c3.5,0.3,7.1,0.1,10.8-0.4
					c19.5-2.7,40.4-16.7,62.5-41.2C2112.9,893.9,2135.6,842.9,2148.4,776.7"/>
			</g>
		</g>
		<g class="st0">
			<g class="st0">
				<defs>
					<path id="SVGID_13_" class="st0" d="M1581.3,856.4l-45.6-24.8c4.6-23.1,7.3-47.9,6.5-73.1l45.6,24.8
						C1588.7,808.5,1585.9,833.3,1581.3,856.4z"/>
				</defs>
				<clipPath id="SVGID_14_">
					<use xlink:href="#SVGID_13_"  style="overflow:visible;"/>
				</clipPath>
				<g class="st27">
					<path class="st23" d="M1581.3,856.4l-45.6-24.8c4.6-23.1,7.3-47.9,6.5-73.1l45.6,24.8C1588.7,808.5,1585.9,833.3,1581.3,856.4"
						/>
				</g>
			</g>
			<g class="st0">
				<defs>
					<path id="SVGID_15_" class="st0" d="M1422.2,1047l-45.6-24.8c5.3,2.9,10.9,4.6,16.8,5.1c3.5,0.3,7.1,0.1,10.8-0.4
						c19.5-2.7,40.4-16.7,62.5-41.2c33.5-36.9,56.2-87.9,69-154.1l45.6,24.8c-12.8,66.2-35.5,117.2-69,154.1
						c-22.1,24.5-43,38.4-62.5,41.2c-3.6,0.5-7.2,0.6-10.8,0.4C1433.1,1051.5,1427.5,1049.9,1422.2,1047z"/>
				</defs>
				<clipPath id="SVGID_16_">
					<use xlink:href="#SVGID_15_"  style="overflow:visible;"/>
				</clipPath>
				<g class="st28">
					<path class="st16" d="M1422.2,1047l-45.6-24.8c0.5,0.3,1.1,0.6,1.6,0.8l45.6,24.8C1423.3,1047.6,1422.8,1047.3,1422.2,1047"/>
					<path class="st17" d="M1423.9,1047.8l-45.6-24.8c2.6,1.3,5.3,2.3,8.1,3l45.6,24.8C1429.2,1050.1,1426.5,1049.1,1423.9,1047.8"
						/>
					<path class="st18" d="M1432,1050.8l-45.6-24.8c2.3,0.6,4.6,1,7,1.2c3.5,0.3,7.1,0.1,10.8-0.4c6-0.8,12.2-2.8,18.5-5.7
						l45.6,24.8c-6.3,3-12.4,4.9-18.5,5.7c-3.6,0.5-7.2,0.6-10.8,0.4C1436.6,1051.8,1434.3,1051.4,1432,1050.8"/>
					<path class="st17" d="M1468.3,1045.9l-45.6-24.8c4.6-2.1,9.2-4.8,13.9-8.1l45.6,24.8
						C1477.4,1041.1,1472.8,1043.8,1468.3,1045.9"/>
					<path class="st16" d="M1482.1,1037.9l-45.6-24.8c4.7-3.3,9.6-7.1,14.4-11.5l45.6,24.8
						C1491.7,1030.7,1486.9,1034.6,1482.1,1037.9"/>
					<path class="st19" d="M1496.6,1026.3l-45.6-24.8c5.2-4.7,10.4-9.9,15.7-15.8c0.6-0.7,1.2-1.3,1.8-2l45.6,24.8
						c-0.6,0.7-1.2,1.3-1.8,2C1507,1016.4,1501.7,1021.7,1496.6,1026.3"/>
					<path class="st20" d="M1514.1,1008.5l-45.6-24.8c5.5-6.2,10.7-12.9,15.7-19.9l45.6,24.8
						C1524.8,995.7,1519.6,1002.3,1514.1,1008.5"/>
					<path class="st21" d="M1529.8,988.6l-45.6-24.8c5.6-7.9,10.8-16.4,15.6-25.4l45.6,24.8C1540.5,972.2,1535.3,980.7,1529.8,988.6
						"/>
					<path class="st22" d="M1545.3,963.3l-45.6-24.8c6.6-12.2,12.5-25.4,17.7-39.6l45.6,24.8C1557.8,937.8,1551.9,951,1545.3,963.3"
						/>
					<path class="st23" d="M1563,923.7l-45.6-24.8c7.5-20.4,13.6-42.8,18.3-67.3l45.6,24.8C1576.6,880.9,1570.5,903.3,1563,923.7"/>
				</g>
			</g>
			<g class="st0">
				<defs>
					<path id="SVGID_17_" class="st0" d="M1489.6,621l45.6,24.8c14.4,7.8,26.6,24.5,36.5,50.9c10.8,28.7,16.2,58.2,16.1,86.5
						l-45.6-24.8c0.1-28.3-5.3-57.8-16.1-86.5C1516.3,645.5,1504,628.8,1489.6,621z"/>
				</defs>
				<clipPath id="SVGID_18_">
					<use xlink:href="#SVGID_17_"  style="overflow:visible;"/>
				</clipPath>
				<g class="st29">
					<path class="st23" d="M1587.8,783.2l-45.6-24.8c0.1-28.3-5.3-57.8-16.1-86.5c-9.8-26.4-22.1-43.1-36.5-50.9l45.6,24.8
						c14.4,7.8,26.6,24.5,36.5,50.9C1582.5,725.4,1587.8,754.9,1587.8,783.2"/>
				</g>
			</g>
			<g class="st0">
				<defs>
					<path id="SVGID_19_" class="st0" d="M1580.6,473.6l45.6,24.8c-21.8-11.9-46.5-19-74-21.5l-45.6-24.8
						C1534,454.6,1558.8,461.7,1580.6,473.6z"/>
				</defs>
				<clipPath id="SVGID_20_">
					<use xlink:href="#SVGID_19_"  style="overflow:visible;"/>
				</clipPath>
				<g class="st30">
					<path class="st18" d="M1552.2,476.9l-45.6-24.8c11.8,1.1,23.1,3,33.9,5.8l45.6,24.8C1575.3,479.9,1564,478,1552.2,476.9"/>
					<path class="st17" d="M1586.1,482.7l-45.6-24.8c12,3.1,23.3,7.3,34,12.5l45.6,24.8C1609.4,490,1598.1,485.8,1586.1,482.7"/>
					<path class="st16" d="M1620.1,495.2l-45.6-24.8c2.1,1,4.1,2.1,6.1,3.2l45.6,24.8C1624.2,497.3,1622.1,496.3,1620.1,495.2"/>
				</g>
			</g>
			<g class="st0">
				<defs>
					<path id="SVGID_21_" class="st0" d="M1332.9,1198.2l-45.6-24.8c-28.5-15.5-51.9-39.3-70.4-71.6c-28.8-49.6-43.2-112-43-187.2
						c0.2-100.5,23.9-195.6,71-285.2c55.4-105.4,126-164.1,212.8-176.3c15.4-2.2,31.7-2.5,48.8-1l45.6,24.8
						c-17.2-1.5-33.5-1.2-48.8,1c-86.8,12.2-157.5,70.9-212.8,176.3c-47.2,89.6-70.9,184.7-71,285.2c-0.1,75.2,14.2,137.6,43,187.2
						C1281,1158.9,1304.4,1182.7,1332.9,1198.2z"/>
				</defs>
				<clipPath id="SVGID_22_">
					<use xlink:href="#SVGID_21_"  style="overflow:visible;"/>
				</clipPath>
				<g class="st31">
					<path class="st23" d="M1332.9,1198.2l-45.6-24.8c-28.5-15.5-51.9-39.3-70.4-71.6c-28.8-49.6-43.2-112-43-187.2
						c0.1-72.5,12.5-142.1,37-208.9l45.6,24.8c-24.5,66.8-36.9,136.4-37,208.9c-0.1,75.2,14.2,137.6,43,187.2
						C1281,1158.9,1304.4,1182.7,1332.9,1198.2"/>
					<path class="st22" d="M1256.5,730.6l-45.6-24.8c9.5-25.9,20.9-51.3,34-76.3c0.8-1.6,1.7-3.1,2.5-4.7l45.6,24.8
						c-0.8,1.5-1.7,3.1-2.5,4.7C1277.4,679.2,1266,704.7,1256.5,730.6"/>
					<path class="st21" d="M1293,649.6l-45.6-24.8c9.9-18.5,20.3-35.5,31.2-51.1l45.6,24.8C1313.4,614,1303,631.1,1293,649.6"/>
					<path class="st20" d="M1324.3,598.5l-45.6-24.8c8.6-12.2,17.5-23.6,26.6-34l45.6,24.8C1341.7,574.9,1332.9,586.3,1324.3,598.5"
						/>
					<path class="st19" d="M1350.9,564.5l-45.6-24.8c8.3-9.4,16.8-18,25.5-25.8l45.6,24.8C1367.7,546.6,1359.2,555.2,1350.9,564.5"
						/>
					<path class="st16" d="M1376.4,538.7l-45.6-24.8c8.8-7.9,17.8-15.1,27.1-21.5l45.6,24.8C1394.2,523.6,1385.2,530.8,1376.4,538.7
						"/>
					<path class="st17" d="M1403.5,517.2l-45.6-24.8c11.1-7.6,22.5-14.2,34.2-19.8l45.6,24.8C1426,502.9,1414.6,509.5,1403.5,517.2"
						/>
					<path class="st18" d="M1437.8,497.4l-45.6-24.8c20.7-9.8,42.6-16.3,65.6-19.5c15.4-2.2,31.7-2.5,48.8-1l45.6,24.8
						c-17.2-1.5-33.5-1.2-48.8,1C1480.4,481.2,1458.5,487.7,1437.8,497.4"/>
				</g>
			</g>
			<g>
				<path class="st26" d="M1552.2,476.9c63.3,5.7,112,36,144.5,92.9c28.9,48.6,43.2,110.1,43.1,186.2
					c-0.2,100.5-23.9,195.6-71.1,286.2c-54.4,105.3-125.1,164-212.8,176.3c-15.4,2.2-31.6,2.5-48.8,1c-64.2-5.6-112-36-144.5-92.9
					c-28.8-49.6-43.2-112-43-187.2c0.2-100.5,23.9-195.6,71-285.2c55.4-105.4,126-164.1,212.8-176.3
					C1518.7,475.8,1535,475.4,1552.2,476.9z M1581.3,856.4c4.6-23.1,7.3-47.9,6.5-73.1c0.1-28.3-5.3-57.8-16.1-86.5
					c-13.5-36.2-31.5-54.1-53.2-56c-4.2-0.3-8.4-0.1-12.5,0.4c-28.1,4-55.5,28-81.6,73.3c-24.5,40.5-39.9,81.7-48.2,122.9
					c-4.6,23.1-6.4,47.7-6.5,72.2c-0.1,28.3,5.3,57.8,16.1,86.5c13.5,36.2,31.5,54.1,53.2,56c3.5,0.3,7.1,0.1,10.8-0.4
					c19.5-2.7,40.4-16.7,62.5-41.2C1545.8,973.6,1568.5,922.6,1581.3,856.4"/>
			</g>
			<g class="st0">
				<defs>
					<path id="SVGID_23_" class="st0" d="M1154.8,403.5l45.6,24.8c-13-7.1-26.9-9.7-41.8-7.6c-2.3,0.3-4.5,0.7-6.9,1.3
						c-26.2,5.6-46.2,22.1-59.8,51.4c-56.3,118.2-96.4,302.4-120.4,553.7l-45.6-24.8c24-251.2,64.1-435.5,120.4-553.7
						c13.6-29.2,33.5-45.7,59.8-51.4c2.3-0.5,4.6-1,6.9-1.3C1127.9,393.8,1141.9,396.4,1154.8,403.5z"/>
				</defs>
				<clipPath id="SVGID_24_">
					<use xlink:href="#SVGID_23_"  style="overflow:visible;"/>
				</clipPath>
				<g class="st32">
					<path class="st23" d="M971.6,1027l-45.6-24.8c20.2-211.4,51.8-375.3,94.8-492.4l45.6,24.8C1023.3,651.7,991.8,815.6,971.6,1027
						"/>
					<path class="st22" d="M1066.4,534.6l-45.6-24.8c8.1-22.1,16.6-42.5,25.6-61.3c1.1-2.3,2.2-4.6,3.4-6.8l45.6,24.8
						c-1.2,2.2-2.3,4.4-3.4,6.8C1083,492.1,1074.5,512.5,1066.4,534.6"/>
					<path class="st21" d="M1095.4,466.5l-45.6-24.8c2.2-4,4.5-7.8,6.9-11.2l45.6,24.8C1099.8,458.7,1097.5,462.5,1095.4,466.5"/>
					<path class="st20" d="M1102.2,455.3l-45.6-24.8c2.1-2.9,4.2-5.7,6.5-8.3l45.6,24.8C1106.5,449.6,1104.3,452.3,1102.2,455.3"/>
					<path class="st19" d="M1108.7,447l-45.6-24.8c2.1-2.4,4.4-4.7,6.7-6.8l45.6,24.8C1113.1,442.3,1110.9,444.6,1108.7,447"/>
					<path class="st16" d="M1115.5,440.2l-45.6-24.8c2.5-2.2,5.1-4.3,7.7-6.1l45.6,24.8C1120.5,436,1117.9,438,1115.5,440.2"/>
					<path class="st17" d="M1123.2,434.1l-45.6-24.8c3.4-2.4,7-4.5,10.8-6.2l45.6,24.8C1130.2,429.6,1126.6,431.7,1123.2,434.1"/>
					<path class="st18" d="M1134,427.9l-45.6-24.8c5.6-2.6,11.5-4.6,17.7-5.9c2.3-0.5,4.6-1,6.9-1.3c9.1-1.3,17.8-0.8,26.2,1.4
						l45.6,24.8c-8.4-2.2-17.1-2.7-26.2-1.4c-2.3,0.3-4.5,0.7-6.9,1.3C1145.5,423.3,1139.5,425.3,1134,427.9"/>
					<path class="st17" d="M1184.8,422l-45.6-24.8c4.4,1.1,8.7,2.8,13,4.8l45.6,24.8C1193.5,424.8,1189.2,423.2,1184.8,422"/>
					<path class="st16" d="M1197.7,426.9l-45.6-24.8c0.9,0.4,1.8,0.9,2.7,1.4l45.6,24.8C1199.5,427.8,1198.6,427.3,1197.7,426.9"/>
				</g>
			</g>
			<g class="st0">
				<defs>
					<path id="SVGID_25_" class="st0" d="M1007.3,1373.9l-45.6-24.8c-8.2-4.5-16.5-10.7-24.6-18.6
						c-83.9-80.9-150.6-210.1-199.1-387.8l45.6,24.8c48.5,177.6,115.2,306.8,199.1,387.8C990.8,1363.2,999,1369.4,1007.3,1373.9z"/>
				</defs>
				<clipPath id="SVGID_26_">
					<use xlink:href="#SVGID_25_"  style="overflow:visible;"/>
				</clipPath>
				<g class="st33">
					<path class="st23" d="M1007.3,1373.9l-45.6-24.8c-8.2-4.5-16.5-10.7-24.6-18.6c-83.9-80.9-150.6-210.1-199.1-387.8l45.6,24.8
						c48.5,177.6,115.2,306.8,199.1,387.8C990.8,1363.2,999,1369.4,1007.3,1373.9"/>
				</g>
			</g>
			<g class="st0">
				<defs>
					<path id="SVGID_27_" class="st0" d="M491.7,1452.6l-45.6-24.8c-14.3-7.8-27.2-26.1-38.9-55l45.6,24.8
						C464.5,1426.4,477.4,1444.8,491.7,1452.6z"/>
				</defs>
				<clipPath id="SVGID_28_">
					<use xlink:href="#SVGID_27_"  style="overflow:visible;"/>
				</clipPath>
				<g class="st34">
					<path class="st23" d="M491.7,1452.6l-45.6-24.8c-14.3-7.8-27.2-26.1-38.9-55l45.6,24.8C464.5,1426.4,477.4,1444.8,491.7,1452.6
						"/>
				</g>
			</g>
			<g>
				<polygon class="st20" points="545.5,1136.6 499.9,1111.8 698.7,676.9 744.3,701.7 				"/>
			</g>
			<g class="st0">
				<defs>
					<path id="SVGID_29_" class="st0" d="M804.6,612.7l45.6,24.8c-9.2-5-19.9-6.6-32.3-4.9c-1.9,0.3-3.7,0.6-5.7,1
						c-27.1,5.8-49.8,28.5-68,68.1l-45.6-24.8c18.2-39.6,40.8-62.3,68-68.1c1.9-0.4,3.8-0.7,5.7-1
						C784.7,606.1,795.5,607.7,804.6,612.7z"/>
				</defs>
				<clipPath id="SVGID_30_">
					<use xlink:href="#SVGID_29_"  style="overflow:visible;"/>
				</clipPath>
				<g class="st35">
					<path class="st22" d="M744.3,701.7l-45.6-24.8c2.1-4.6,4.3-9,6.5-13.1l45.6,24.8C748.6,692.8,746.4,697.1,744.3,701.7"/>
					<path class="st21" d="M750.8,688.6l-45.6-24.8c3.4-6.4,7-12.2,10.7-17.5l45.6,24.8C757.8,676.4,754.2,682.3,750.8,688.6"/>
					<path class="st20" d="M761.5,671.1l-45.6-24.8c2.9-4.1,5.8-7.9,8.9-11.3l45.6,24.8C767.4,663.2,764.4,667,761.5,671.1"/>
					<path class="st19" d="M770.4,659.8L724.8,635c2.7-3.1,5.5-5.9,8.3-8.4l45.6,24.8C775.9,653.9,773.1,656.7,770.4,659.8"/>
					<path class="st16" d="M778.7,651.4l-45.6-24.8c2.8-2.5,5.7-4.8,8.6-6.8l45.6,24.8C784.4,646.6,781.5,648.9,778.7,651.4"/>
					<path class="st17" d="M787.3,644.6l-45.6-24.8c3.4-2.4,6.9-4.4,10.5-6.1l45.6,24.8C794.2,640.2,790.7,642.2,787.3,644.6"/>
					<path class="st18" d="M797.8,638.5l-45.6-24.8c4.7-2.2,9.5-3.8,14.5-4.9c1.9-0.4,3.8-0.7,5.7-1c8-1.1,15.4-0.8,22.1,0.9
						l45.6,24.8c-6.7-1.7-14-2-22.1-0.9c-1.9,0.3-3.7,0.6-5.7,1C807.3,634.7,802.5,636.3,797.8,638.5"/>
					<path class="st17" d="M840,633.5l-45.6-24.8c3,0.8,5.9,1.8,8.6,3.2l45.6,24.8C845.8,635.3,843,634.3,840,633.5"/>
					<path class="st16" d="M848.6,636.7L803,611.9c0.6,0.3,1.1,0.6,1.6,0.9l45.6,24.8C849.7,637.2,849.1,636.9,848.6,636.7"/>
				</g>
			</g>
			<g class="st0">
				<defs>
					<path id="SVGID_31_" class="st0" d="M379.7,550.5l45.6,24.8c-10.4-5.7-23.5-7.4-39.1-5.2c-3.1,0.4-6.3,1-9.6,1.8
						c-25.3,5.5-44.3,17.9-57,38.3l-45.6-24.8c12.7-20.3,31.7-32.8,57-38.3c3.3-0.7,6.5-1.3,9.6-1.8
						C356.2,543.1,369.3,544.9,379.7,550.5z"/>
				</defs>
				<clipPath id="SVGID_32_">
					<use xlink:href="#SVGID_31_"  style="overflow:visible;"/>
				</clipPath>
				<g class="st36">
					<path class="st21" d="M319.5,610.2l-45.6-24.8c0.8-1.3,1.7-2.6,2.6-3.9l45.6,24.8C321.2,607.5,320.4,608.8,319.5,610.2"/>
					<path class="st20" d="M322.1,606.2l-45.6-24.8c1.8-2.6,3.7-5,5.7-7.3l45.6,24.8C325.8,601.2,323.9,603.7,322.1,606.2"/>
					<path class="st19" d="M327.9,598.9l-45.6-24.8c2-2.3,4.1-4.4,6.4-6.5l45.6,24.8C332,594.5,329.9,596.7,327.9,598.9"/>
					<path class="st16" d="M334.2,592.5l-45.6-24.8c2.5-2.3,5.1-4.3,7.9-6.3l45.6,24.8C339.4,588.2,336.7,590.2,334.2,592.5"/>
					<path class="st17" d="M342.2,586.2l-45.6-24.8c3.8-2.6,7.8-4.9,12.1-6.9l45.6,24.8C350,581.3,345.9,583.6,342.2,586.2"/>
					<path class="st18" d="M354.2,579.3l-45.6-24.8c6.8-3.2,14.2-5.7,22.3-7.4c3.3-0.7,6.5-1.3,9.6-1.8c10.6-1.5,20-1.2,28.1,0.9
						l45.6,24.8c-8.2-2.1-17.6-2.4-28.1-0.9c-3.1,0.4-6.3,1-9.6,1.8C368.5,573.6,361,576.1,354.2,579.3"/>
					<path class="st17" d="M414.3,571.1l-45.6-24.8c3.3,0.8,6.4,2,9.3,3.4l45.6,24.8C420.7,573,417.6,571.9,414.3,571.1"/>
					<path class="st16" d="M423.6,574.5L378,549.7c0.6,0.3,1.1,0.6,1.7,0.9l45.6,24.8C424.7,575,424.1,574.7,423.6,574.5"/>
				</g>
			</g>
			<g class="st0">
				<defs>
					<path id="SVGID_33_" class="st0" d="M452.8,1397.6l-45.6-24.8c-45.9-121.4-95.2-361.4-147.9-720c-3.6-24.9,1.9-48.1,14.6-67.4
						l45.6,24.8c-12.7,19.3-18.2,42.6-14.6,67.4C357.6,1036.2,406.9,1276.1,452.8,1397.6z"/>
				</defs>
				<clipPath id="SVGID_34_">
					<use xlink:href="#SVGID_33_"  style="overflow:visible;"/>
				</clipPath>
				<g class="st37">
					<path class="st23" d="M452.8,1397.6l-45.6-24.8c-45.9-121.4-95.2-361.4-147.9-720c-2.4-17-0.7-33.2,4.7-47.9l45.6,24.8
						c-5.4,14.7-7.2,30.9-4.7,47.9C357.6,1036.2,406.9,1276.1,452.8,1397.6"/>
					<path class="st22" d="M309.7,629.7l-45.6-24.8c1.5-4.2,3.4-8.3,5.5-12.2l45.6,24.8C313.1,621.4,311.2,625.5,309.7,629.7"/>
					<path class="st21" d="M315.2,617.4l-45.6-24.8c1.3-2.5,2.8-4.9,4.3-7.3l45.6,24.8C318,612.5,316.5,615,315.2,617.4"/>
				</g>
			</g>
			<g>
				<path class="st26" d="M1227.5,533.3c-35.4,75.2-64.6,197.4-88.4,364.7c-22.9,162.3-31.3,287.4-26,375.5
					c1.8,24.1-1.9,46.1-11,65.9c-10.9,23-27.2,37-48,41.9c-1.7,0.4-3.3,0.7-5,0.9c-22,3.1-44.6-5.6-66.4-27
					c-83.9-80.9-150.6-210.1-199.1-387.8c-59,133.2-102.6,233-130.8,299.4C599.3,1384.8,554,1447.7,516,1456c-1,0.2-1.9,0.4-2.9,0.5
					c-23.2,3.3-43-16.4-60.3-59c-45.9-121.4-95.2-361.4-147.9-720c-3.6-24.9,1.9-48.1,14.6-67.4c12.7-20.3,31.7-32.8,57-38.3
					c3.3-0.7,6.5-1.3,9.6-1.8c40.2-5.6,63.2,14.7,69,61c27.7,200.1,58.1,368.5,90.4,505.5l198.8-434.9c18.2-39.6,40.8-62.3,68-68.1
					c1.9-0.4,3.8-0.7,5.7-1c36.5-5.1,59,19.1,68.3,72.6c22.4,126.6,51.1,232.9,85.3,321.8c24-251.2,64.1-435.5,120.4-553.7
					c13.6-29.2,33.5-45.7,59.8-51.4c2.3-0.5,4.6-1,6.9-1.3c18.1-2.6,34.8,1.9,50.1,12.8c17.2,12.2,26.2,29.5,27.9,51.7
					C1237.5,502.6,1234.7,517.6,1227.5,533.3z"/>
			</g>
		</g>
	</g>
</g>
</svg>
