<svg id="Calque_1" xmlns="http://www.w3.org/2000/svg" xmlns:xlink="http://www.w3.org/1999/xlink" viewBox="0 0 122.5 122.5" style="enable-background:new 0 0 122.5 122.5"><style>.st0{enable-background:new}.st1{fill:#272525}.st2{clip-path:url(#SVGID_2_);enable-background:new}.st3{fill:#242322}.st4{fill:#3d3a3a}.st5{clip-path:url(#SVGID_4_);enable-background:new}.st6{fill:#2b2a29}.st7{fill:#2d2b2a}.st8{fill:#2e2c2c}.st9{clip-path:url(#SVGID_6_);enable-background:new}.st10{fill:#2a2828}.st11{fill:#292726}.st12{fill:#272625}.st13{fill:#262424}.st14{fill:#232221}.st15{clip-path:url(#SVGID_8_);enable-background:new}.st16{clip-path:url(#SVGID_10_);enable-background:new}.st17{clip-path:url(#SVGID_12_);enable-background:new}.st18{clip-path:url(#SVGID_14_);enable-background:new}.st19{clip-path:url(#SVGID_16_);enable-background:new}.st20{clip-path:url(#SVGID_18_);enable-background:new}.st21{clip-path:url(#SVGID_20_);enable-background:new}.st22{clip-path:url(#SVGID_22_);enable-background:new}.st23{clip-path:url(#SVGID_24_);enable-background:new}</style><g><g><g class="st0"><g><path class="st1" d="M85.8 102.2 83.6 101 97.9 54.4 100.2 55.6z"/></g><g class="st0"><defs><path id="SVGID_1_" class="st0" d="M100.2 55.6l-2.3-1.2c2.7-7.6 3.6-13.5 3.6-18.6.0-1.9-.1-3.6-.3-5.2l2.3 1.2c.2 1.6.3 3.3.3 5.2C103.8 42.2 102.9 48 100.2 55.6z"/></defs><clipPath id="SVGID_2_"><use xlink:href="#SVGID_1_" style="overflow:visible"/></clipPath><g class="st2"><path class="st3" d="M100.2 55.6l-2.3-1.2c2.7-7.6 3.6-13.5 3.6-18.6.0-1.9-.1-3.6-.3-5.2l2.3 1.2c.2 1.6.3 3.3.3 5.2C103.8 42.2 102.9 48 100.2 55.6"/></g></g><g><path class="st4" d="M63.2 66.2l14.3 40.5c.1.2.2.5.3.7-4.9 2.5-10.1 4.3-15.5 5-4.6.6-9 .5-13.2-.2L63.2 66.2z"/></g><g><path class="st1" d="M49.1 112.2 46.8 110.9 60.9 64.9 63.2 66.2z"/></g><g class="st0"><defs><path id="SVGID_3_" class="st0" d="M34.5 113.3l-2.3-1.2c8 4.4 17.5 6.2 27.7 4.8l2.3 1.2C52.1 119.5 42.6 117.6 34.5 113.3z"
						/></defs><clipPath id="SVGID_4_"><use xlink:href="#SVGID_3_" style="overflow:visible"/></clipPath><g class="st5"><path class="st6" d="M34.5 113.3l-2.3-1.2c.5.3 1.1.6 1.6.8l2.3 1.2C35.6 113.8 35.1 113.5 34.5 113.3"/><path class="st7" d="M36.1 114.1l-2.3-1.2c2.6 1.3 5.4 2.3 8.2 3l2.3 1.2C41.5 116.4 38.7 115.4 36.1 114.1"/><path class="st8" d="M44.4 117.1l-2.3-1.2c5.6 1.4 11.6 1.8 17.9.9l2.3 1.2C56 118.9 50 118.6 44.4 117.1"/></g></g><g class="st0"><defs><path id="SVGID_5_" class="st0" d="M88 9.3l2.3 1.2c14.6 7.9 24.2 24.1 24.2 44.1C114.4 85.5 91 114 62.3 118l-2.3-1.2c28.7-4 52.1-32.5 52.1-63.5C112.2 33.4 102.5 17.2 88 9.3z"/></defs><clipPath id="SVGID_6_"><use xlink:href="#SVGID_5_" style="overflow:visible"/></clipPath><g class="st9"><path class="st8" d="M62.3 118l-2.3-1.2c5.3-.7 10.4-2.3 15.2-4.6l2.3 1.2C72.7 115.7 67.6 117.3 62.3 118"/><path class="st7" d="M77.5 113.5l-2.3-1.2c2.9-1.4 5.8-3 8.4-4.9l2.3 1.2C83.2 110.5 80.4 112.1 77.5 113.5"/><path class="st6" d="M85.9 108.6l-2.3-1.2c2.2-1.5 4.3-3.2 6.3-5l2.3 1.2C90.2 105.4 88.1 107.1 85.9 108.6"/><path class="st10" d="M92.2 103.6l-2.3-1.2c1.9-1.7 3.6-3.5 5.3-5.4l2.3 1.2C95.9 100.1 94.1 101.9 92.2 103.6"/><path class="st11" d="M97.5 98.2 95.2 97c1.7-1.9 3.2-3.9 4.7-6l2.3 1.2C100.8 94.4 99.2 96.4 97.5 98.2"/><path class="st12" d="M102.2 92.3 99.9 91c1.5-2.2 3-4.5 4.2-6.9l2.3 1.2C105.2 87.8 103.8 90.1 102.2 92.3"/><path class="st13" d="M106.5 85.4l-2.3-1.2c1.5-2.8 2.8-5.7 3.9-8.8l2.3 1.2C109.3 79.6 108 82.6 106.5 85.4"/><path class="st3" d="M110.4 76.6l-2.3-1.2c2.6-7 4-14.4 4-22.1.0-20-9.6-36.1-24.2-44.1l2.3 1.2c14.6 7.9 24.2 24.1 24.2 44.1C114.4 62.2 113 69.6 110.4 76.6"/></g></g><g><path class="st14" d="M85.7 89.2 83.4 88 66.6 36.1 68.9 37.3z"/></g><g class="st0"><defs><path id="SVGID_7_" class="st0" d="M72.9 30.9l2.3 1.2c1.3.7 1.1 3.4-.9 4-.1.0-2.5.7-5.4 1.2l-2.3-1.2c2.8-.6 5.2-1.2 5.4-1.2C74 34.3 74.2 31.6 72.9 30.9z"/></defs><clipPath id="SVGID_8_"><use xlink:href="#SVGID_7_" style="overflow:visible"/></clipPath><g class="st15"><path class="st8" d="M68.9 37.3l-2.3-1.2c2.8-.6 5.2-1.2 5.4-1.2.1.0.3-.1.4-.1l2.3 1.2c-.1.1-.3.1-.4.1C74.1 36.1 71.7 36.8 68.9 37.3"/><path class="st7" d="M74.6 35.9l-2.3-1.2c.1-.1.2-.1.3-.2l2.3 1.2C74.9 35.8 74.8 35.9 74.6 35.9"/><path class="st6" d="M75 35.7l-2.3-1.2c.1-.1.2-.1.2-.2l2.3 1.2C75.1 35.6 75.1 35.7 75 35.7"/><path class="st10" d="M75.2 35.6l-2.3-1.2c.1-.1.1-.1.2-.2l2.3 1.2C75.3 35.4 75.3 35.5 75.2 35.6"/><path class="st11" d="M75.4 35.4l-2.3-1.2c.1-.1.1-.1.2-.2l2.3 1.2C75.5 35.2 75.5 35.3 75.4 35.4"/><path class="st12" d="M75.6 35.2 73.3 34c.1-.1.1-.2.1-.2l2.3 1.2C75.7 35 75.6 35.1 75.6 35.2"/><path class="st13" d="M75.7 34.9l-2.3-1.2c.1-.1.1-.2.1-.3l2.3 1.2C75.8 34.7 75.8 34.8 75.7 34.9"/><path class="st3" d="M75.8 34.6l-2.3-1.2c.3-1 .1-2.1-.7-2.5l2.3 1.2C75.9 32.5 76.2 33.6 75.8 34.6"/></g></g><g class="st0"><defs><path id="SVGID_9_" class="st0" d="M48.9 39.6l-2.3-1.2c.1.0 2.4.0 4.9-.2l2.3 1.2C51.2 39.6 49 39.6 48.9 39.6z"/></defs><clipPath id="SVGID_10_"><use xlink:href="#SVGID_9_" style="overflow:visible"/></clipPath><g class="st16"><path class="st8" d="M48.9 39.6l-2.3-1.2c.1.0 2.4.0 4.9-.2l2.3 1.2C51.2 39.6 49 39.6 48.9 39.6"/></g></g><g class="st0"><defs><path id="SVGID_11_" class="st0" d="M47.9 39.5l-2.3-1.2c.2.1.6.2.9.2l2.3 1.2C48.5 39.7 48.2 39.6 47.9 39.5z"/></defs><clipPath id="SVGID_12_"><use xlink:href="#SVGID_11_" style="overflow:visible"/></clipPath><g class="st17"><path class="st6" d="M47.9 39.5l-2.3-1.2c0 0 0 0 .1.0L47.9 39.5C48 39.5 48 39.5 47.9 39.5"/><path class="st7" d="M48 39.5l-2.3-1.2c.1.0.2.1.3.1l2.3 1.2C48.2 39.6 48.1 39.5 48 39.5"/><path class="st8" d="M48.3 39.6 46 38.4c.2.0.4.1.6.0l2.3 1.2C48.6 39.7 48.4 39.6 48.3 39.6"/></g></g><g class="st0"><defs><path id="SVGID_13_" class="st0" d="M85.2 14.5l2.3 1.2c-7.2-3.9-15.8-5.6-25-4.3l-2.3-1.2C69.4 8.9 78 10.5 85.2 14.5z"/></defs><clipPath id="SVGID_14_"><use xlink:href="#SVGID_13_" style="overflow:visible"/></clipPath><g class="st18"><path class="st8" d="M62.5 11.4l-2.3-1.2c5.7-.8 11.2-.5 16.2.8l2.3 1.2C73.7 10.9 68.2 10.6 62.5 11.4"/><path class="st7" d="M78.7 12.2 76.4 11c2.6.7 5 1.6 7.4 2.7l2.3 1.2C83.7 13.8 81.3 12.9 78.7 12.2"/><path class="st6" d="M86.1 15l-2.3-1.2c.5.2.9.5 1.4.7l2.3 1.2C87 15.4 86.5 15.2 86.1 15"/></g></g><g class="st0"><defs><path id="SVGID_15_" class="st0" d="M37.8 35.8 40 37c1.3.7 1.1 3.4-.9 4-.1.0-2.5.7-5.4 1.2L31.5 41c2.8-.6 5.2-1.2 5.4-1.2C38.9 39.2 39.1 36.5 37.8 35.8z"/></defs><clipPath id="SVGID_16_"><use xlink:href="#SVGID_15_" style="overflow:visible"/></clipPath><g class="st19"><path class="st8" d="M33.8 42.2 31.5 41c2.8-.6 5.2-1.2 5.4-1.2.1.0.3-.1.4-.1l2.3 1.2c-.1.1-.3.1-.4.1C39 41 36.6 41.7 33.8 42.2"/><path class="st7" d="M39.5 40.9l-2.3-1.2c.1-.1.2-.1.3-.2l2.3 1.2C39.8 40.7 39.7 40.8 39.5 40.9"/><path class="st6" d="M39.9 40.7l-2.3-1.2c.1-.1.2-.1.2-.2l2.3 1.2C40 40.6 40 40.6 39.9 40.7"/><path class="st10" d="M40.1 40.5l-2.3-1.2c.1-.1.1-.1.2-.2l2.3 1.2C40.2 40.4 40.2 40.4 40.1 40.5"/><path class="st11" d="M40.3 40.3 38 39.1c.1-.1.1-.1.2-.2l2.3 1.2C40.4 40.2 40.3 40.2 40.3 40.3"/><path class="st12" d="M40.4 40.1l-2.3-1.2c.1-.1.1-.2.1-.2l2.3 1.2C40.6 39.9 40.5 40 40.4 40.1"/><path class="st13" d="M40.6 39.9l-2.3-1.2c.1-.1.1-.2.1-.3l2.3 1.2C40.7 39.6 40.7 39.8 40.6 39.9"/><path class="st3" d="M40.7 39.5l-2.3-1.2c.3-1 .1-2.1-.7-2.5L40 37C40.8 37.5 41.1 38.6 40.7 39.5"/></g></g><g><path class="st14" d="M50.7 94.5 48.4 93.3 31.5 41 33.8 42.2z"/></g><g class="st0"><defs><path id="SVGID_17_" class="st0" d="M37.3 108.1l-2.3-1.2C22 99.7 13.3 85.2 13.4 67.2c0-7.3 1.5-14.5 4.1-21.1l2.3 1.2c-2.6 6.6-4.1 13.8-4.1 21.1C15.6 86.4 24.3 101 37.3 108.1z"/></defs><clipPath id="SVGID_18_"><use xlink:href="#SVGID_17_" style="overflow:visible"/></clipPath><g class="st20"><path class="st3" d="M37.3 108.1l-2.3-1.2C22 99.7 13.3 85.2 13.4 67.2c0-6.9 1.3-13.6 3.6-19.9l2.3 1.2c-2.3 6.3-3.6 13-3.6 19.9C15.6 86.4 24.3 101 37.3 108.1"/><path class="st13" d="M19.2 48.6 17 47.3c.2-.4.3-.8.5-1.2l2.3 1.2C19.6 47.8 19.4 48.2 19.2 48.6"/></g></g><g><path class="st4" d="M19.7 47.3l22.2 62.8c-15.6-6-26.3-21.7-26.3-41.7C15.6 61.1 17.1 54 19.7 47.3z"/></g><g><path class="st4" d="M62.5 11.4c12.2-1.7 23.3 1.8 31.6 8.8-.2.0-.4.0-.6.0-4.6.6-7.9 5.4-7.9 10.1.0 4.2 2.2 7.4 4.6 11.2 1.8 3.1 3.8 7.1 3.8 13.4.0 4.3-1.6 9.6-3.6 16.8l-4.7 17.5L68.9 37.3c2.8-.6 5.2-1.2 5.4-1.2 2.5-.7 2.2-4.5-.1-4.1-.1.0-7.7 1.7-12.6 2.4-4.6.6-11.9 1.1-12.3 1.1-2.5.4-2.8 4.4-.3 4.2.1.0 2.4.0 4.9-.2L61 60 50.7 94.5 33.8 42.2c2.8-.6 5.2-1.2 5.4-1.2 2.5-.7 2.2-4.5-.1-4.1-.1.0-7.7 1.7-12.6 2.4-.9.1-1.9.2-3 .4C31.8 24.8 46.2 13.7 62.5 11.4z"/></g><g class="st0"><defs><path id="SVGID_19_" class="st0" d="M23.4 39.6l-2.3-1.2c8.4-14.9 22.8-26 39.1-28.2l2.3 1.2C46.2 13.7 31.8 24.8 23.4 39.6z"
						/></defs><clipPath id="SVGID_20_"><use xlink:href="#SVGID_19_" style="overflow:visible"/></clipPath><g class="st21"><path class="st12" d="M23.4 39.6l-2.3-1.2c1-1.8 2.1-3.5 3.2-5.1l2.3 1.2C25.4 36.2 24.4 37.9 23.4 39.6"/><path class="st11" d="M26.6 34.5l-2.3-1.2c1.3-1.9 2.7-3.6 4.2-5.3l2.3 1.2C29.3 30.9 27.9 32.7 26.6 34.5"/><path class="st10" d="M30.8 29.2 28.5 28c1.5-1.7 3.1-3.3 4.8-4.8l2.3 1.2C33.9 25.9 32.3 27.5 30.8 29.2"/><path class="st6" d="M35.6 24.4l-2.3-1.2c1.8-1.6 3.7-3.1 5.7-4.5l2.3 1.2C39.3 21.2 37.4 22.7 35.6 24.4"/><path class="st7" d="M41.2 19.9 39 18.6c2.4-1.7 4.9-3.1 7.5-4.4l2.3 1.2C46.2 16.8 43.6 18.2 41.2 19.9"/><path class="st8" d="M48.8 15.5l-2.3-1.2c4.3-2 8.9-3.5 13.7-4.1l2.3 1.2C57.7 12.1 53.1 13.5 48.8 15.5"/></g></g><g><path class="st4" d="M62.5 3c30.1-4.2 54.5 18.7 54.4 51.2-.1 32.5-24.6 62.3-54.6 66.5C32.2 125 7.8 102 7.9 69.5 7.9 37.1 32.4 7.3 62.5 3zM62.3 118c28.7-4 52.1-32.5 52.1-63.5.1-31-23.2-52.9-51.9-48.8-28.7 4-52.1 32.5-52.1 63.5C10.3 100.2 33.6 122.1 62.3 118"/></g><g><path class="st4" d="M103.5 31.9c3.6 6.7 5.7 14.6 5.7 23.4.0 18.6-9.4 36.2-23.3 46.9l14.4-46.6c2.7-7.6 3.6-13.5 3.6-18.6C103.8 35.2 103.7 33.5 103.5 31.9z"/></g><g class="st0"><defs><path id="SVGID_21_" class="st0" d="M89.3 6.8 91.6 8c-8.4-4.6-18.4-6.5-29.1-5l-2.3-1.2C70.9.3 80.9 2.2 89.3 6.8z"/></defs><clipPath id="SVGID_22_"><use xlink:href="#SVGID_21_" style="overflow:visible"/></clipPath><g class="st22"><path class="st8" d="M62.5 3l-2.3-1.2c6.6-.9 12.9-.5 18.8 1L81.3 4C75.4 2.5 69.1 2.1 62.5 3"/><path class="st7" d="M81.3 4 79 2.8c3 .8 5.9 1.8 8.6 3.2l2.3 1.2C87.2 5.8 84.3 4.8 81.3 4"/><path class="st6" d="M89.9 7.2l-2.3-1.2c.6.3 1.1.6 1.7.9L91.6 8C91 7.7 90.5 7.5 89.9 7.2"/></g></g><g class="st0"><defs><path id="SVGID_23_" class="st0" d="M33.2 115.7l-2.3-1.2C15.7 106.2 5.6 89.2 5.6 68.3 5.7 35.9 30.2 6 60.2 1.8L62.5 3C32.4 7.3 7.9 37.1 7.9 69.5 7.8 90.5 18 107.4 33.2 115.7z"/></defs><clipPath id="SVGID_24_"><use xlink:href="#SVGID_23_" style="overflow:visible"/></clipPath><g class="st23"><path class="st3" d="M33.2 115.7l-2.3-1.2C15.7 106.2 5.6 89.2 5.6 68.3c0-8 1.5-15.8 4.2-23.1l2.3 1.2c-2.7 7.3-4.2 15.1-4.2 23.1C7.8 90.5 18 107.4 33.2 115.7"/><path class="st13" d="M12.1 46.4l-2.3-1.2C11 42 12.3 39 13.9 36l2.3 1.2C14.6 40.2 13.2 43.3 12.1 46.4"/><path class="st12" d="M16.2 37.2 13.9 36c1.3-2.5 2.8-4.9 4.5-7.2l2.3 1.2C19 32.3 17.6 34.7 16.2 37.2"/><path class="st11" d="M20.7 30l-2.3-1.2c1.5-2.2 3.2-4.3 4.9-6.2l2.3 1.2C23.8 25.8 22.2 27.8 20.7 30"/><path class="st10" d="M25.6 23.8l-2.3-1.2c1.8-2 3.6-3.9 5.6-5.6l2.3 1.2C29.2 19.9 27.3 21.8 25.6 23.8"/><path class="st6" d="M31.2 18.1l-2.3-1.2c2.1-1.9 4.3-3.6 6.6-5.2l2.3 1.2C35.5 14.5 33.3 16.3 31.2 18.1"/><path class="st7" d="M37.8 12.9l-2.3-1.2c2.8-2 5.8-3.7 8.9-5.1l2.3 1.2C43.5 9.3 40.6 11 37.8 12.9"/><path class="st8" d="M46.6 7.8l-2.3-1.2c5-2.4 10.4-4 15.9-4.8L62.5 3C57 3.8 51.7 5.4 46.6 7.8"/></g></g></g></g></g></svg>