<svg id="Angular" xmlns="http://www.w3.org/2000/svg" xmlns:xlink="http://www.w3.org/1999/xlink" viewBox="0 0 4e3 4e3" style="enable-background:new 0 0 4e3 4e3"><style>.st0{enable-background:new}.st1{fill:#812123}.st2{fill:#62191a}.st3{fill:#7b1f21}.st4{fill:#761e20}.st5{fill:#5f181a}.st6{fill:#5d1819}.st7{fill:#982225}.st8{fill:#9d282b}.st9{fill:#5b1719}.st10{fill:#721d1f}.st11{fill:#761a1d}.st12{fill:#8f2023}.st13{fill:#741a1c}.st14{fill:#72191c}.st15{fill:#71191c}.st16{fill:#791f21}.st17{fill:#c52c30}.st18{fill:#972125}.st19{fill:#9f2327}.st20{fill:#a62528}.st21{fill:#731a1c}.st22{fill:gray}.st23{fill:#b4b4b4}.st24{fill:#919191}.st25{fill:#dfdfdf}</style><g><g><g class="st0"><g><path class="st1" d="M2889.7 2664.4 1822.7 3431.7 1798 3408.6 2858.1 2646.3z"/></g><g><path class="st2" d="M3131 864.5 2889.7 2664.4 2858.1 2646.3 3098.7 851.5z"/></g><g><path class="st3" d="M3013.5 2734.5 1946.5 3501.9 1822.7 3431.7 2889.7 2664.4z"/></g><g><path class="st4" d="M3038.7 2748.6 1978.6 3511 1946.5 3501.9 3013.5 2734.5z"/></g><g><path class="st5" d="M3254.8 934.6 3013.5 2734.5 2889.7 2664.4 3131 864.5z"/></g><g><path class="st6" d="M3279.2 953.8 3038.7 2748.6 3013.5 2734.5 3254.8 934.6z"/></g><g><path class="st7" d="M1822.7 3431.7 763.3 2932.9l-25-19L1790.8 3409.6z"/></g><g><path class="st8" d="M1853.4 539.1 3098.7 851.5 2858.1 2646.3 1798 3408.6z"/></g><g><path class="st9" d="M1822.7 3431.7 1798 3408.6 1853.4 539.1 1878.3 550.3z"/></g><g><path class="st10" d="M1878.3 550.3 1853.4 539.1 3098.7 851.5 3131 864.5z"/></g><g><path class="st11" d="M1878.3 550.3 1822.7 3431.7 1790.8 3409.6l55.5-2869.5z"/></g><g><path class="st12" d="M1946.5 3501.9 887.1 3003 763.3 2932.9 1822.7 3431.7z"/></g><g><path class="st6" d="M1946.5 3501.9 1822.7 3431.7 1878.3 550.3 2002.1 620.5z"/></g><g><path class="st13" d="M2002.1 620.5 1946.5 3501.9 1822.7 3431.7 1878.3 550.3z"/></g><g><path class="st5" d="M1978.6 3511 1946.5 3501.9 2002.1 620.5 2034 641.5z"/></g><g><path class="st14" d="M2026.8 642.4 1971.4 3511.9 1946.5 3501.9 2002.1 620.5z"/></g><g><path class="st15" d="M1971.4 3511.9 1946.5 3501.9 887.1 3003 918.9 3016.3z"/></g><g><path class="st16" d="M2002.1 620.5 1878.3 550.3 3131 864.5 3254.8 934.6z"/></g><g><path class="st8" d="M2034 641.5 3279.2 953.8 3038.7 2748.6 1978.6 3511z"/></g><g><path class="st1" d="M2034 641.5 2002.1 620.5 3254.8 934.6 3279.2 953.8z"/></g><g><path class="st17" d="M1846.3 540.1l-55.5 2869.5L738.3 2913.9 582.8 1168.8z"/></g><g><path class="st18" d="M607.3 1182.8l-24.5-14L1846.3 540.1 1878.3 550.3z"/></g><g><path class="st15" d="M763.3 2932.9l-25-19L582.8 1168.8l24.5 14z"/></g><g><path class="st19" d="M731.1 1253 607.3 1182.8l1271-632.5L2002.1 620.5z"/></g><g><path class="st14" d="M887.1 3003 763.3 2932.9 607.3 1182.8 731.1 1253z"/></g><g><path class="st17" d="M2026.8 642.4 1971.4 3511.9 918.9 3016.3 763.4 1271.2z"/></g><g><path class="st20" d="M763.4 1271.2 731.1 1253l1271-632.5L2026.8 642.4z"/></g><g><path class="st21" d="M918.9 3016.3 887.1 3003l-156-1750L763.4 1271.2z"/></g></g></g></g><g><g><g class="st0"><g><path class="st22" d="M2626.3 2699.1 2535.2 2649.5 2365.8 2248.8 2457 2298.4z"/></g><g><path class="st23" d="M2107.3 2099.2 2016.1 2049.6 2262 2015.1 2353.2 2064.7z"/></g><g><path class="st23" d="M1861.5 2133.8 1770.3 2084.2 2016.1 2049.6 2107.3 2099.2z"/></g><g><path class="st22" d="M2353.2 2064.7 2262 2015.1 2017.2 1459.4 2108.4 1509z"/></g><g><path class="st24" d="M1317.3 2883 1226.2 2833.4 2018.3 863.9 2109.5 913.5z"/></g><g><path class="st25" d="M2109.5 913.5l790.9 1747-274.1 38.5L2457 2298.4l-362.9 51-331.4 46.6-158.2 446.7-287.2 40.4L2109.5 913.5zM2107.3 2099.2l245.9-34.6L2108.4 1509l-246.9 624.7L2107.3 2099.2"/></g></g></g></g></svg>