<svg id="Calque_1" xmlns="http://www.w3.org/2000/svg" xmlns:xlink="http://www.w3.org/1999/xlink" viewBox="0 0 64 64" style="enable-background:new 0 0 64 64"><style>.st0{enable-background:new}.st1{fill:#114127}.st2{fill:#0b582e}.st3{fill:#083f21}.st4{fill:#0e6c39}.st5{clip-path:url(#SVGID_2_);enable-background:new}.st6{fill:#0c301d}.st7{fill:#115334}.st8{fill:#1d8e59}.st9{fill:#177348}.st10{fill:#155030}.st11{fill:#0c2f1c}.st12{clip-path:url(#SVGID_4_);enable-background:new}.st13{fill:#228155}.st14{fill:#217d53}.st15{fill:#207a50}.st16{fill:#1a6442}.st17{fill:#2dab71}.st18{fill:#248b5b}.st19{clip-path:url(#SVGID_6_);enable-background:new}.st20{fill:#115535}.st21{fill:#125837}.st22{fill:#125b39}.st23{fill:#135f3b}.st24{fill:#14623d}.st25{fill:#14653f}.st26{fill:#156841}.st27{fill:#166c43}.st28{opacity:.102;clip-path:url(#SVGID_8_);enable-background:new}.st29{opacity:.102}.st30{opacity:.2;clip-path:url(#SVGID_10_);enable-background:new}.st31{opacity:.2824;clip-path:url(#SVGID_12_);enable-background:new}.st32{opacity:.4275}.st33{opacity:.4275;clip-path:url(#SVGID_14_);enable-background:new}.st34{opacity:.4863;clip-path:url(#SVGID_16_);enable-background:new}.st35{opacity:.2}.st36{opacity:.2824}.st37{opacity:.4863;clip-path:url(#SVGID_18_);enable-background:new}.st38{opacity:.4275;clip-path:url(#SVGID_20_);enable-background:new}.st39{opacity:.102;clip-path:url(#SVGID_22_);enable-background:new}.st40{opacity:.4863;clip-path:url(#SVGID_24_);enable-background:new}.st41{opacity:.4275;clip-path:url(#SVGID_26_);enable-background:new}.st42{clip-path:url(#SVGID_28_);enable-background:new}.st43{fill:#0b522b}.st44{fill:#0a4f2a}.st45{fill:#0a4d28}.st46{opacity:.4863;clip-path:url(#SVGID_30_);enable-background:new}.st47{opacity:.4863}.st48{opacity:.4275;clip-path:url(#SVGID_32_);enable-background:new}.st49{opacity:.4275;clip-path:url(#SVGID_34_);enable-background:new}.st50{opacity:.102;clip-path:url(#SVGID_36_);enable-background:new}.st51{fill:#083e21}.st52{fill:#094926}.st53{fill:gray}.st54{fill:#094826}.st55{clip-path:url(#SVGID_38_);enable-background:new}.st56{fill:#858585}.st57{clip-path:url(#SVGID_40_);enable-background:new}.st58{fill:#094323}.st59{fill:#084022}.st60{clip-path:url(#SVGID_42_);enable-background:new}.st61{clip-path:url(#SVGID_44_);enable-background:new}.st62{clip-path:url(#SVGID_46_);enable-background:new}.st63{fill:#8a8a8a}.st64{fill:#b4b4b4}.st65{fill:#959595}.st66{fill:#989898}.st67{clip-path:url(#SVGID_48_);enable-background:new}.st68{clip-path:url(#SVGID_50_);enable-background:new}.st69{fill:#dfdfdf}.st70{clip-path:url(#SVGID_52_);enable-background:new}.st71{fill:#094524}.st72{fill:#0a4a27}</style><g><g><g class="st0"><g><path class="st1" d="M37 43.3 34.7 42 53.4 39.4 55.7 40.6z"/></g><g><path class="st2" d="M37 31.7 34.7 30.5 53.4 27.9 55.7 29.1z"/></g><g><path class="st3" d="M37 43.3 34.7 42V30.5L37 31.7z"/></g><g><path class="st4" d="M55.7 29.1V40.6L37 43.3V31.7z"/></g><g class="st0"><defs><path id="SVGID_1_" class="st0" d="M19.2 56.9 17 55.7c-.6-.3-1-1-1-1.8l2.3 1.2C18.3 56 18.7 56.6 19.2 56.9z"/></defs><clipPath id="SVGID_2_"><use xlink:href="#SVGID_1_" style="overflow:visible"/></clipPath><g class="st5"><path class="st6" d="M19.2 56.9 17 55.7c-.6-.3-1-1-1-1.8l2.3 1.2C18.3 56 18.7 56.6 19.2 56.9"/></g></g><g><path class="st7" d="M37 31.7 34.7 30.5 34.8 19 37 20.2z"/></g><g><path class="st8" d="M55.7 17.6V29.1L37 31.7V20.2z"/></g><g><path class="st9" d="M37 20.2 34.8 19 53.5 16.3 55.7 17.6z"/></g><g><path class="st10" d="M37 31.7v11.5l18.7-2.6v9.3c0 1.2-.9 2.4-2.1 2.5l-33.2 4.7c-1.1.2-2.1-.7-2.1-1.9v-20.8L37 31.7z"/></g><g><path class="st11" d="M18.3 55.2 16 53.9V33.1L18.3 34.4z"/></g><g><path class="st1" d="M18.3 34.4 16 33.1 34.7 30.5 37 31.7z"/></g><g><path class="st2" d="M18.3 22.8 16.1 21.6 34.8 19 37 20.2z"/></g><g><path class="st3" d="M18.3 34.4 16 33.1 16.1 21.6 18.3 22.8z"/></g><g><path class="st4" d="M37 20.2V31.7L18.3 34.4V22.8z"/></g></g><g class="st0"><g class="st0"><defs><path id="SVGID_3_" class="st0" d="M52.5 5.3l2.3 1.2c-.3-.2-.7-.2-1.1-.2l-2.3-1.2C51.8 5.1 52.2 5.1 52.5 5.3z"/></defs><clipPath id="SVGID_4_"><use xlink:href="#SVGID_3_" style="overflow:visible"/></clipPath><g class="st12"><path class="st13" d="M53.7 6.4l-2.3-1.2c.3.0.5.0.7.0l2.3 1.2C54.2 6.3 53.9 6.3 53.7 6.4"/><path class="st14" d="M54.4 6.4l-2.3-1.2c.1.0.2.1.3.1l2.3 1.2C54.6 6.5 54.5 6.4 54.4 6.4"/><path class="st15" d="M54.7 6.5l-2.3-1.2c0 0 0 0 .1.0L54.7 6.5C54.8 6.5 54.7 6.5 54.7 6.5"/></g></g><g><path class="st16" d="M37 20.2 34.8 19V7.5L37.1 8.7z"/></g><g><path class="st17" d="M53.7 6.4c1.1-.2 2.1.7 2.1 1.9v9.3L37 20.2V8.7L53.7 6.4z"/></g><g><path class="st18" d="M37.1 8.7 34.8 7.5 51.4 5.1 53.7 6.4z"/></g><g><path class="st9" d="M20.4 11 18.2 9.8 34.8 7.5 37.1 8.7z"/></g><g><path class="st7" d="M18.3 22.8 16.1 21.6V12.3L18.4 13.6z"/></g><g class="st0"><defs><path id="SVGID_5_" class="st0" d="M18.4 13.6l-2.3-1.2c0-1.2.9-2.4 2.1-2.5l2.3 1.2C19.3 11.2 18.4 12.3 18.4 13.6z"/></defs><clipPath id="SVGID_6_"><use xlink:href="#SVGID_5_" style="overflow:visible"/></clipPath><g class="st19"><path class="st20" d="M18.4 13.6l-2.3-1.2c0-.3.1-.6.2-.9l2.3 1.2C18.4 13 18.4 13.3 18.4 13.6"/><path class="st21" d="M18.5 12.7l-2.3-1.2c0-.1.1-.2.2-.3l2.3 1.2C18.6 12.4 18.6 12.6 18.5 12.7"/><path class="st22" d="M18.7 12.3l-2.3-1.2c.1-.1.1-.2.2-.3l2.3 1.2C18.8 12.1 18.7 12.2 18.7 12.3"/><path class="st23" d="M18.8 12.1l-2.3-1.2c.1-.1.1-.2.2-.2l2.3 1.2C19 11.9 18.9 12 18.8 12.1"/><path class="st24" d="M19 11.8l-2.3-1.2c.1-.1.1-.1.2-.2l2.3 1.2C19.2 11.7 19.1 11.7 19 11.8"/><path class="st25" d="M19.2 11.6 17 10.4c.1-.1.2-.1.3-.2l2.3 1.2C19.4 11.5 19.3 11.5 19.2 11.6"/><path class="st26" d="M19.5 11.4l-2.3-1.2c.1-.1.2-.1.3-.2l2.3 1.2C19.7 11.3 19.6 11.3 19.5 11.4"/><path class="st27" d="M19.8 11.2 17.6 10c.2-.1.4-.2.6-.2l2.3 1.2C20.2 11.1 20 11.1 19.8 11.2"/></g></g><g><path class="st8" d="M37.1 8.7v11.5l-18.7 2.6v-9.3c0-1.2.9-2.4 2.1-2.5L37.1 8.7z"/></g></g></g></g><g><g><g class="st0"><g class="st0"><defs><path id="SVGID_7_" class="st0" d="M32.5 45.4l-2.3-1.2c0-.1.0-.3.0-.4l2.3 1.2C32.6 45.1 32.6 45.3 32.5 45.4z"/></defs><clipPath id="SVGID_8_"><use xlink:href="#SVGID_7_" style="overflow:visible"/></clipPath><g class="st28"><path d="M32.5 45.4l-2.3-1.2c0-.1.0-.3.0-.4l2.3 1.2C32.6 45.1 32.6 45.3 32.5 45.4"/></g></g><g><path class="st29" d="M32.6 45 30.3 43.8v-2L32.6 43.1z"/></g><g class="st0"><defs><path id="SVGID_9_" class="st0" d="M30.5 46.6l-2.3-1.2c.8-.1 1.5-.6 2-1.2l2.3 1.2C32 46 31.3 46.4 30.5 46.6z"/></defs><clipPath id="SVGID_10_"><use xlink:href="#SVGID_9_" style="overflow:visible"/></clipPath><g class="st30"><path d="M30.5 46.6l-2.3-1.2c.3.0.6-.1.8-.3l2.3 1.2C31.1 46.4 30.8 46.5 30.5 46.6"/><path d="M31.3 46.3l-2.3-1.2c.2-.1.3-.2.5-.3l2.3 1.2C31.7 46.1 31.5 46.2 31.3 46.3"/><path d="M31.8 46l-2.3-1.2c.1-.1.2-.2.4-.3l2.3 1.2C32.1 45.8 32 45.9 31.8 46"/><path d="M32.2 45.7l-2.3-1.2c.1-.1.2-.2.3-.3l2.3 1.2C32.4 45.5 32.3 45.6 32.2 45.7"/><path d="M32.5 45.4l-2.3-1.2c0 0 0 0 0 0L32.5 45.4c0 0 0 0 0 0"/></g></g><g class="st0"><defs><path id="SVGID_11_" class="st0" d="M30.5 45.6l-2.3-1.2c1.1-.2 2.1-1.3 2.1-2.5l2.3 1.2C32.6 44.3 31.6 45.4 30.5 45.6z"/></defs><clipPath id="SVGID_12_"><use xlink:href="#SVGID_11_" style="overflow:visible"/></clipPath><g class="st31"><path d="M30.5 45.6l-2.3-1.2c.2.0.4-.1.6-.2l2.3 1.2C30.9 45.5 30.7 45.6 30.5 45.6"/><path d="M31.1 45.4l-2.3-1.2c.1-.1.2-.1.3-.2l2.3 1.2C31.3 45.3 31.2 45.4 31.1 45.4"/><path d="M31.4 45.2 29.2 44c.1-.1.2-.1.3-.2l2.3 1.2C31.6 45.1 31.5 45.2 31.4 45.2"/><path d="M31.7 45l-2.3-1.2c.1-.1.1-.1.2-.2l2.3 1.2C31.8 44.9 31.8 45 31.7 45"/><path d="M31.9 44.8l-2.3-1.2c.1-.1.1-.2.2-.2l2.3 1.2C32 44.7 32 44.7 31.9 44.8"/><path d="M32.1 44.6l-2.3-1.2c.1-.1.1-.2.2-.3l2.3 1.2C32.2 44.4 32.2 44.5 32.1 44.6"/><path d="M32.3 44.3 30 43.1c.1-.1.1-.2.2-.3l2.3 1.2C32.4 44.1 32.3 44.2 32.3 44.3"/><path d="M32.4 44l-2.3-1.2c.1-.3.2-.6.2-.9l2.3 1.2C32.6 43.4 32.5 43.7 32.4 44"/></g></g><g><path class="st29" d="M32.6 43.1 30.3 41.8V18.5L32.6 19.7z"/></g><g><path class="st32" d="M31.7 43.2 29.4 42V41L31.7 42.2z"/></g><g class="st0"><defs><path id="SVGID_13_" class="st0" d="M27.3 44.5c1.1-.2 2.1-1.3 2.1-2.5.7.4 1.3.7 2 1.1l.3.1c0 1.2-.9 2.4-2.1 2.5C28.9 45.4 28 44.9 27.3 44.5z"/></defs><clipPath id="SVGID_14_"><use xlink:href="#SVGID_13_" style="overflow:visible"/></clipPath><g class="st33"><path d="M29.6 45.7l-2.3-1.2c.2.0.4-.1.6-.2l2.3 1.2C30 45.6 29.8 45.7 29.6 45.7"/><path d="M30.2 45.6l-2.3-1.2c.1-.1.2-.1.3-.2l2.3 1.2C30.4 45.4 30.3 45.5 30.2 45.6"/><path d="M30.6 45.4l-2.3-1.2c.1-.1.2-.1.3-.2l2.3 1.2C30.7 45.2 30.6 45.3 30.6 45.4"/><path d="M30.8 45.2 28.5 44c.1-.1.1-.1.2-.2L31 45C31 45 30.9 45.1 30.8 45.2"/><path d="M31 44.9l-2.3-1.2c.1-.1.1-.2.2-.2l2.3 1.2C31.1 44.8 31.1 44.9 31 44.9"/><path d="M31.2 44.7l-2.3-1.2c.1-.1.1-.2.2-.3l2.3 1.2C31.3 44.5 31.3 44.6 31.2 44.7"/><path d="M31.4 44.4l-2.3-1.2c.1-.1.1-.2.2-.3l2.3 1.2C31.5 44.2 31.4 44.3 31.4 44.4"/><path d="M31.5 44.1l-2.3-1.2c.1-.3.2-.6.2-.9l2.3 1.2C31.7 43.5 31.6 43.8 31.5 44.1"/></g></g><g class="st0"><defs><path id="SVGID_15_" class="st0" d="M29.6 44.8l-2.3-1.2c1.1-.2 2.1-1.3 2.1-2.5l2.3 1.2C31.7 43.5 30.8 44.6 29.6 44.8z"/></defs><clipPath id="SVGID_16_"><use xlink:href="#SVGID_15_" style="overflow:visible"/></clipPath><g class="st34"><path d="M29.6 44.8l-2.3-1.2c.2.0.4-.1.6-.2l2.3 1.2C30 44.7 29.8 44.7 29.6 44.8"/><path d="M30.2 44.6l-2.3-1.2c.1-.1.2-.1.3-.2l2.3 1.2C30.4 44.5 30.3 44.5 30.2 44.6"/><path d="M30.6 44.4l-2.3-1.2c.1-.1.2-.1.3-.2l2.3 1.2C30.7 44.3 30.6 44.3 30.6 44.4"/><path d="M30.8 44.2 28.5 43c.1-.1.1-.1.2-.2L31 44C31 44.1 30.9 44.1 30.8 44.2"/><path d="M31 44l-2.3-1.2c.1-.1.1-.2.2-.2l2.3 1.2C31.2 43.8 31.1 43.9 31 44"/><path d="M31.2 43.7l-2.3-1.2c.1-.1.1-.2.2-.3l2.3 1.2C31.3 43.6 31.3 43.7 31.2 43.7"/><path d="M31.4 43.5l-2.3-1.2c.1-.1.1-.2.2-.3l2.3 1.2C31.5 43.2 31.4 43.4 31.4 43.5"/><path d="M31.5 43.1l-2.3-1.2c.1-.3.2-.6.2-.9l2.3 1.2C31.7 42.5 31.6 42.8 31.5 43.1"/></g></g><g><path class="st35" d="M18.3 48.3 16.1 47 28.2 45.3 30.5 46.6z"/></g><g><path class="st36" d="M18.3 47.3 16.1 46.1 28.2 44.4 30.5 45.6z"/></g><g><path class="st32" d="M18.3 47.3 16.1 46.1 27.3 44.5 29.6 45.7z"/></g><g><path class="st2" d="M22.1 39.7 19.8 38.4 23 38 25.3 39.2z"/></g><g class="st0"><defs><path id="SVGID_17_" class="st0" d="M31.7 19.8l-2.3-1.2c0 0 0 0 0 0L31.7 19.8c0 0 0 0 0 0z"/></defs><clipPath id="SVGID_18_"><use xlink:href="#SVGID_17_" style="overflow:visible"/></clipPath><g class="st37"><path d="M31.7 19.8l-2.3-1.2c0 0 0 0 0 0L31.7 19.8c0 0 0 0 0 0"/></g></g><g class="st0"><defs><path id="SVGID_19_" class="st0" d="M29.4 18.3c.8.4 1.5.8 2.3 1.2.0.1.0.2.0.3-.8-.4-1.5-.8-2.3-1.2C29.5 18.5 29.4 18.4 29.4 18.3z"/></defs><clipPath id="SVGID_20_"><use xlink:href="#SVGID_19_" style="overflow:visible"/></clipPath><g class="st38"><path d="M31.7 19.8l-2.3-1.2c0-.4-.1-.7-.2-.9.0.0.0-.1.0-.1-.2-.3-.4-.6-.7-.7l2.3 1.2c.3.2.5.4.7.7.0.0.0.0.0.1C31.7 19.1 31.7 19.4 31.7 19.8"/></g></g><g class="st0"><defs><path id="SVGID_21_" class="st0" d="M29.4 16.7l2.3 1.2c.6.3 1 1 1 1.8l-2.3-1.2C30.3 17.7 30 17 29.4 16.7z"/></defs><clipPath id="SVGID_22_"><use xlink:href="#SVGID_21_" style="overflow:visible"/></clipPath><g class="st39"><path d="M32.6 19.7l-2.3-1.2c0-.8-.4-1.4-1-1.8l2.3 1.2C32.2 18.3 32.6 18.9 32.6 19.7"/></g></g><g class="st0"><defs><path id="SVGID_23_" class="st0" d="M28.5 16.8l2.3 1.2c.3.2.5.4.7.7l-2.3-1.2C29 17.2 28.8 17 28.5 16.8z"/></defs><clipPath id="SVGID_24_"><use xlink:href="#SVGID_23_" style="overflow:visible"/></clipPath><g class="st40"><path d="M31.5 18.8l-2.3-1.2c-.2-.3-.4-.6-.7-.7l2.3 1.2C31.1 18.2 31.3 18.5 31.5 18.8"/></g></g><g class="st0"><defs><path id="SVGID_25_" class="st0" d="M29.2 17.6c-.2-.3-.4-.6-.7-.7l2.3 1.2c.3.2.5.4.7.7.0.0.0.0.0.1.1.2.2.4.2.6-.8-.4-1.5-.8-2.3-1.2C29.4 18 29.3 17.8 29.2 17.6c0 0 0 0 0 0z"/></defs><clipPath id="SVGID_26_"><use xlink:href="#SVGID_25_" style="overflow:visible"/></clipPath><g class="st41"><path d="M31.7 19.8l-2.3-1.2c0-.4-.1-.7-.2-.9.0.0.0-.1.0-.1-.2-.3-.4-.6-.7-.7l2.3 1.2c.3.2.5.4.7.7.0.0.0.0.0.1C31.7 19.1 31.7 19.4 31.7 19.8"/></g></g><g class="st0"><defs><path id="SVGID_27_" class="st0" d="M28.5 16.8l2.3 1.2c-.3-.2-.7-.2-1.1-.2l-2.3-1.2C27.8 16.6 28.2 16.7 28.5 16.8z"/></defs><clipPath id="SVGID_28_"><use xlink:href="#SVGID_27_" style="overflow:visible"/></clipPath><g class="st42"><path class="st43" d="M29.7 17.9l-2.3-1.2c.3.0.5.0.7.0l2.3 1.2C30.2 17.9 29.9 17.8 29.7 17.9"/><path class="st44" d="M30.4 17.9l-2.3-1.2c.1.0.2.1.3.1l2.3 1.2C30.6 18 30.5 17.9 30.4 17.9"/><path class="st45" d="M30.7 18l-2.3-1.2c0 0 0 0 .1.0L30.7 18C30.8 18.1 30.7 18 30.7 18"/></g></g><g class="st0"><defs><path id="SVGID_29_" class="st0" d="M28.5 16.8l2.3 1.2c-.3-.2-.7-.2-1.1-.2l-2.3-1.2C27.8 16.6 28.2 16.7 28.5 16.8z"/></defs><clipPath id="SVGID_30_"><use xlink:href="#SVGID_29_" style="overflow:visible"/></clipPath><g class="st46"><path d="M29.7 17.9l-2.3-1.2c.3.0.5.0.7.0l2.3 1.2C30.2 17.9 29.9 17.8 29.7 17.9"/><path d="M30.4 17.9l-2.3-1.2c.1.0.2.1.3.1l2.3 1.2C30.6 18 30.5 17.9 30.4 17.9"/><path d="M30.7 18l-2.3-1.2c0 0 0 0 .1.0L30.7 18C30.8 18.1 30.7 18 30.7 18"/></g></g><g><path class="st32" d="M30.6 17.8c1.1-.2 2.1.7 2.1 1.9v23.4c0 1.2-.9 2.4-2.1 2.5l-12.2 1.7v-1 1l11.3-1.6c1.1-.2 2.1-1.3 2.1-2.5v-1-22.4c0-.4-.1-.7-.2-.9.0.0.0-.1.0-.1-.4-.6-1-1-1.8-.9L30.6 17.8z"/></g><g><path class="st47" d="M29.6 44.8c1.1-.2 2.1-1.3 2.1-2.5v1c0 1.2-.9 2.4-2.1 2.5l-11.3 1.6v-1L29.6 44.8z"/></g><g><path class="st36" d="M32.6 43.1V45c0 .1.0.3.0.4-.5.6-1.2 1.1-2 1.2l-12.2 1.7v-1.9 1l12.2-1.7C31.6 45.4 32.6 44.3 32.6 43.1z"/></g><g><path class="st32" d="M18.3 47.3 16.1 46.1v-1L18.3 46.4z"/></g><g><path class="st35" d="M18.3 49.2 16.1 48V45.1L18.3 46.4z"/></g><g><path class="st36" d="M18.3 48.3 16.1 47V45.1L18.3 46.4z"/></g><g><path class="st35" d="M18.3 46.4v1.9l12.2-1.7c.8-.1 1.5-.6 2-1.2-.2 1.1-1 2-2 2.1l-12.2 1.7V46.4z"/></g><g><path class="st47" d="M18.3 46.4 16.1 45.1 27.3 43.5 29.6 44.8z"/></g><g><path class="st47" d="M18.3 47.3 16.1 46.1v-1L18.3 46.4z"/></g><g><path class="st32" d="M31.7 42.2 29.4 41 29.5 18.6 31.7 19.8z"/></g><g class="st0"><defs><path id="SVGID_31_" class="st0" d="M30 18.9c.6.3 1.2.6 1.7.9-.7-.4-1.6-.9-2.3-1.2C29.6 18.7 29.8 18.8 30 18.9z"
						/></defs><clipPath id="SVGID_32_"><use xlink:href="#SVGID_31_" style="overflow:visible"/></clipPath><g class="st48"><path d="M31.7 19.8l-2.3-1.2c0-.4-.1-.7-.2-.9.0.0.0-.1.0-.1-.2-.3-.4-.6-.7-.7l2.3 1.2c.3.2.5.4.7.7.0.0.0.0.0.1C31.7 19.1 31.7 19.4 31.7 19.8"/></g></g><g><path class="st47" d="M31.7 19.8c0 0 0 0 0 0v0c0 0 0 0 0 0z"/></g><g class="st0"><defs><path id="SVGID_33_" class="st0" d="M29.4 16.7l2.3 1.2c-.3-.2-.7-.2-1.1-.2l-2.3-1.2C28.7 16.5 29.1 16.5 29.4 16.7z"/></defs><clipPath id="SVGID_34_"><use xlink:href="#SVGID_33_" style="overflow:visible"/></clipPath><g class="st49"><path d="M30.6 17.8l-2.3-1.2c.3.0.5.0.7.0l2.3 1.2C31.1 17.7 30.8 17.7 30.6 17.8"/><path d="M31.3 17.8 29 16.5c.1.0.2.1.3.1l2.3 1.2C31.5 17.9 31.4 17.8 31.3 17.8"/><path d="M31.6 17.9l-2.3-1.2c0 0 0 0 .1.0L31.6 17.9c0 0 0 0 0 0"/></g></g><g class="st0"><defs><path id="SVGID_35_" class="st0" d="M29.9 15.8l2.3 1.2c-.5-.2-1-.4-1.6-.3l-2.3-1.2C28.9 15.5 29.4 15.6 29.9 15.8z"/></defs><clipPath id="SVGID_36_"><use xlink:href="#SVGID_35_" style="overflow:visible"/></clipPath><g class="st50"><path d="M30.6 16.8l-2.3-1.2c.4-.1.7.0 1 .1l2.3 1.2C31.3 16.8 30.9 16.7 30.6 16.8"/><path d="M31.6 16.8l-2.3-1.2c.2.0.3.1.5.2L32 17C31.9 16.9 31.7 16.9 31.6 16.8"/><path d="M32 17l-2.3-1.2c0 0 .1.0.1.0L32 17C32.1 17 32.1 17 32 17"/></g></g><g><path class="st32" d="M29.7 17.9 27.4 16.6 28.3 16.5 30.6 17.8z"/></g><g><path class="st47" d="M31.5 18.8c-.4-.6-1-1-1.8-.9v0C30.4 17.8 31.1 18.1 31.5 18.8z"/></g><g><path class="st47" d="M29.7 17.9 27.4 16.6v0L29.7 17.9z"/></g><g><path class="st51" d="M25.3 39.2 23 38 18.8 31.2 21.1 32.5z"/></g><g><path class="st52" d="M21.1 32.5 18.8 31.2 22.9 23.4 25.2 24.7z"/></g><g><path class="st53" d="M22.1 39.7 19.8 38.4 17.3 33.7 19.6 34.9z"/></g><g><path class="st54" d="M16.4 40.5 14.1 39.2 16.7 33.7 19 35z"/></g><g class="st0"><defs><path id="SVGID_37_" class="st0" d="M19.6 34.9l-2.3-1.2c-.1-.2-.2-.4-.3-.6l2.3 1.2C19.4 34.5 19.5 34.7 19.6 34.9z"/></defs><clipPath id="SVGID_38_"><use xlink:href="#SVGID_37_" style="overflow:visible"/></clipPath><g class="st55"><path class="st56" d="M19.6 34.9l-2.3-1.2c-.1-.2-.2-.4-.3-.6l2.3 1.2C19.4 34.5 19.5 34.7 19.6 34.9"/></g></g><g class="st0"><defs><path id="SVGID_39_" class="st0" d="M16.7 33.7c.1-.2.2-.5.3-.7l2.3 1.2c-.1.2-.2.5-.3.7C18.3 34.6 17.4 34.1 16.7 33.7z"/></defs><clipPath id="SVGID_40_"><use xlink:href="#SVGID_39_" style="overflow:visible"/></clipPath><g class="st57"><path class="st58" d="M19 35l-2.3-1.2c.1-.2.2-.3.2-.5l2.3 1.2C19.1 34.7 19.1 34.8 19 35"/><path class="st59" d="M19.2 34.5l-2.3-1.2c0-.1.0-.1.1-.2l2.3 1.2C19.3 34.3 19.2 34.4 19.2 34.5"/></g></g><g class="st0"><defs><path id="SVGID_41_" class="st0" d="M17.2 29.9c0 0 0-.09999999999999787.0.0.7.4 1.5.8 2.3 1.2.0.0.0.0.0.0C18.8 30.7 17.7 30.4 17.2 29.9z"/></defs><clipPath id="SVGID_42_"><use xlink:href="#SVGID_41_" style="overflow:visible"/></clipPath><g class="st60"><path class="st59" d="M19.4 31.1l-2.3-1.2c-.1-.2-.2-.5-.4-.9l2.3 1.2C19.2 30.6 19.3 30.9 19.4 31.1"/></g></g><g class="st0"><defs><path id="SVGID_43_" class="st0" d="M17.1 29.8c0 0 0 0 0 0 .8.4 1.5.8 2.3 1.2.0.0.0.0.0.0-.4-.2-.8-.4-1.1-.6-.1.0-.2-.1-.3-.2.0.0-.1-.1-.1-.1.0.0-.1-.1-.1-.1-.1-.1-.3-.2-.4-.2C17.2 29.9 17.2 29.9 17.1 29.8z"/></defs><clipPath id="SVGID_44_"><use xlink:href="#SVGID_43_" style="overflow:visible"/></clipPath><g class="st61"><path class="st59" d="M19.4 31.1l-2.3-1.2c-.1-.2-.2-.5-.4-.9l2.3 1.2C19.2 30.6 19.3 30.9 19.4 31.1"/></g></g><g class="st0"><defs><path id="SVGID_45_" class="st0" d="M19.4 31.1l-2.3-1.2c.2-.4.3-.7.5-1.1l2.3 1.2C19.7 30.4 19.6 30.7 19.4 31.1z"/></defs><clipPath id="SVGID_46_"><use xlink:href="#SVGID_45_" style="overflow:visible"/></clipPath><g class="st62"><path class="st63" d="M19.4 31.1l-2.3-1.2c.2-.4.3-.7.5-1.1l2.3 1.2C19.7 30.4 19.6 30.7 19.4 31.1"/></g></g><g><path class="st64" d="M22.2 25.1 20 23.8 22.9 23.4 25.2 24.7z"/></g><g><path class="st65" d="M19.9 30 17.6 28.8 20 23.8 22.2 25.1z"/></g><g><path class="st2" d="M13.2 40.9 10.9 39.7 14.1 39.2 16.4 40.5z"/></g><g><path class="st66" d="M13.2 40.9 10.9 39.7 15.3 31.8 17.6 33z"/></g><g class="st0"><defs><path id="SVGID_47_" class="st0" d="M17.1 29.8c-.1-.2-.2-.5-.4-.9l2.3 1.2c0 0 0 0 0 0-.8-.4-1.5-.8-2.3-1.2.8.4 1.5.8 2.3 1.2.2.4.3.7.4.9-.4-.2-.8-.4-1.1-.6-.2-.1-.4-.2-.6-.3-.1.0-.2-.1-.3-.2C17.3 29.9 17.2 29.9 17.1 29.8z"/></defs><clipPath id="SVGID_48_"><use xlink:href="#SVGID_47_" style="overflow:visible"/></clipPath><g class="st67"><path class="st59" d="M19.4 31.1l-2.3-1.2c-.1-.2-.2-.5-.4-.9l2.3 1.2C19.2 30.6 19.3 30.9 19.4 31.1"/></g></g><g class="st0"><defs><path id="SVGID_49_" class="st0" d="M7.7 47.5l-2.3-1.2c-.6-.3-1-1-1-1.8l2.3 1.2C6.8 46.5 7.1 47.2 7.7 47.5z"/></defs><clipPath id="SVGID_50_"><use xlink:href="#SVGID_49_" style="overflow:visible"/></clipPath><g class="st68"><path class="st59" d="M7.7 47.5l-2.3-1.2c-.6-.3-1-1-1-1.8l2.3 1.2C6.8 46.5 7.1 47.2 7.7 47.5"/></g></g><g><path class="st51" d="M19 30.2 16.7 28.9 14.5 24.6 16.8 25.8z"/></g><g><path class="st2" d="M18.4 19.5 16.1 18.2 27.4 16.6 29.7 17.9z"/></g><g><path class="st29" d="M18.4 19.5 16.1 18.2V17.3L18.4 18.5z"/></g><g><path class="st29" d="M18.4 18.5 16.1 17.3 28.3 15.6 30.6 16.8z"/></g><g><path class="st29" d="M30.6 16.8c1.6-.2 3 1 3 2.8V43c0 .9-.4 1.8-.9 2.4.0-.1.0-.3.0-.4v-1.9-23.4c0-1.2-.9-2.1-2.1-1.9l-.9.1-11.3 1.6v-1L30.6 16.8z"/></g><g><path class="st69" d="M25.2 24.7l-4.1 7.8 4.2 6.8-3.1.4-2.5-4.7c-.1-.2-.2-.4-.3-.6-.1.2-.2.5-.3.7l-2.6 5.5-3.2.4 4.4-7.9-4-6.7 3.2-.5 2.2 4.3c.2.4.3.7.4.9.2-.4.3-.7.5-1.1l2.3-4.9L25.2 24.7z"/></g><g><path class="st53" d="M17.6 33 15.3 31.8 11.3 25.1 13.6 26.3z"/></g><g><path class="st64" d="M13.6 26.3 11.3 25.1 14.5 24.6 16.8 25.8z"/></g><g><path class="st2" d="M8.9 20.8 6.6 19.6 16.1 18.2 18.4 19.5z"/></g><g><path class="st3" d="M6.8 45.7 4.5 44.5V22.1L6.8 23.3z"/></g><g class="st0"><defs><path id="SVGID_51_" class="st0" d="M6.8 23.3l-2.3-1.2c0-1.2.9-2.4 2.1-2.5l2.3 1.2C7.7 21 6.8 22.1 6.8 23.3z"/></defs><clipPath id="SVGID_52_"><use xlink:href="#SVGID_51_" style="overflow:visible"/></clipPath><g class="st70"><path class="st59" d="M6.8 23.3l-2.3-1.2c0-.3.1-.6.2-.9L7 22.4C6.9 22.7 6.8 23 6.8 23.3"/><path class="st58" d="M7 22.4l-2.3-1.2c0-.1.1-.2.2-.3l2.3 1.2C7.1 22.2 7 22.3 7 22.4"/><path class="st71" d="M7.1 22.1l-2.3-1.2C4.9 20.8 5 20.7 5 20.6l2.3 1.2C7.2 21.9 7.2 22 7.1 22.1"/><path class="st54" d="M7.3 21.8 5 20.6c.1-.1.1-.2.2-.2l2.3 1.2C7.4 21.7 7.4 21.7 7.3 21.8"/><path class="st72" d="M7.5 21.6l-2.3-1.2c.1-.1.1-.1.2-.2l2.3 1.2C7.6 21.4 7.5 21.5 7.5 21.6"/><path class="st45" d="M7.7 21.4l-2.3-1.2c.1-.1.2-.1.3-.2L8 21.2C7.9 21.2 7.8 21.3 7.7 21.4"/><path class="st44" d="M7.9 21.2l-2.3-1.2c.1-.1.2-.1.3-.2L8.3 21C8.2 21 8.1 21.1 7.9 21.2"/><path class="st43" d="M8.3 21 6 19.7c.2-.1.4-.2.6-.2l2.3 1.2C8.7 20.8 8.5 20.9 8.3 21"/></g></g><g><path class="st4" d="M31.7 19.8v22.5c0 1.2-.9 2.4-2.1 2.5l-11.3 1.6-9.5 1.3c-1.2.2-2.1-.7-2.1-1.9V23.4c0-1.2.9-2.4 2.1-2.5l9.5-1.3 11.3-1.6c.8-.1 1.5.3 1.8.9C31.7 19.1 31.7 19.4 31.7 19.8zM22.1 39.7l3.1-.4-4.2-6.8 4.1-7.8-3 .4L19.9 30c-.2.4-.3.7-.5 1.1-.1-.2-.2-.5-.4-.9l-2.2-4.3-3.2.5 4 6.7-4.4 7.9 3.2-.4L19 35c.1-.2.2-.5.3-.7.1.2.2.4.3.6L22.1 39.7"/></g></g></g></g></svg>