<svg id="Calque_1" xmlns="http://www.w3.org/2000/svg" xmlns:xlink="http://www.w3.org/1999/xlink" viewBox="0 0 55 53" style="enable-background:new 0 0 55 53"><style>.st0{enable-background:new}.st1{clip-path:url(#SVGID_2_);enable-background:new}.st2{fill:#1a6f9a}.st3{fill:#1a6c96}.st4{fill:#196891}.st5{fill:#1c77a5}.st6{clip-path:url(#SVGID_4_);enable-background:new}.st7{fill:#176188}.st8{fill:#18658c}.st9{clip-path:url(#SVGID_6_);enable-background:new}.st10{fill:#15577a}.st11{fill:#145678}.st12{fill:#196a94}.st13{clip-path:url(#SVGID_8_);enable-background:new}.st14{fill:#165b7e}.st15{fill:#165e83}.st16{fill:#2393cc}.st17{clip-path:url(#SVGID_10_);enable-background:new}.st18{fill:#003e6e}.st19{fill:#003c6a}.st20{fill:#005596}.st21{fill:#003d6c}.st22{clip-path:url(#SVGID_12_);enable-background:new}.st23{fill:#004172}.st24{fill:#004377}.st25{fill:#00467b}.st26{fill:#00487f}.st27{fill:#004a83}.st28{fill:#004d88}.st29{fill:#004f8c}.st30{fill:#0069b9}.st31{clip-path:url(#SVGID_14_);enable-background:new}.st32{fill:#358fa8}.st33{fill:#338ba3}.st34{fill:#32879e}.st35{fill:#286d80}.st36{clip-path:url(#SVGID_16_);enable-background:new}.st37{fill:#2a7185}.st38{fill:#3999b4}.st39{fill:#296f82}.st40{clip-path:url(#SVGID_18_);enable-background:new}.st41{fill:#2b758a}.st42{fill:#2d7a8f}.st43{fill:#2e7e94}.st44{fill:#308299}.st45{fill:#46bddf}.st46{opacity:.2;enable-background:new}.st47{clip-path:url(#SVGID_20_);enable-background:new}.st48{opacity:.1;enable-background:new}.st49{clip-path:url(#SVGID_22_);enable-background:new}.st50{clip-path:url(#SVGID_24_);enable-background:new}.st51{clip-path:url(#SVGID_26_);enable-background:new}.st52{clip-path:url(#SVGID_28_);enable-background:new}.st53{fill:#b4b4b4}.st54{clip-path:url(#SVGID_30_);enable-background:new}.st55{fill:#828282}.st56{fill:#dfdfdf}.st57{clip-path:url(#SVGID_32_);enable-background:new}</style><title>Exchange_64x</title><g><g><g class="st0"><g class="st0"><defs><path id="SVGID_1_" class="st0" d="M50.3.8l1.4.7c-.5-.3-1.1-.4-1.7-.3l-1.4-.7C49.2.4 49.8.5 50.3.8z"/></defs><clipPath id="SVGID_2_"><use xlink:href="#SVGID_1_" style="overflow:visible"/></clipPath><g class="st1"><path class="st2" d="M50 1.3l-1.4-.7c.4-.1.7.0 1.1.1l1.4.7C50.7 1.2 50.4 1.2 50 1.3"/><path class="st3" d="M51.1 1.3l-1.4-.7c.2.0.3.1.5.2l1.4.7C51.4 1.4 51.2 1.4 51.1 1.3"/><path class="st4" d="M51.6 1.5 50.2.8c0 0 .1.0.1.0L51.6 1.5c0 0 0 0 0 0"/></g></g><g><path class="st5" d="M39.1 2.8 37.7 2 48.6.5 50 1.3z"/></g><g class="st0"><defs><path id="SVGID_3_" class="st0" d="M36.9 4.1l-1.4-.7c.6-.7 1.4-1.2 2.2-1.3l1.4.7C38.3 2.9 37.5 3.4 36.9 4.1z"/></defs><clipPath id="SVGID_4_"><use xlink:href="#SVGID_3_" style="overflow:visible"/></clipPath><g class="st6"><path class="st7" d="M36.9 4.1l-1.4-.7c0 0 .1-.1.1-.1L37 4C37 4 36.9 4 36.9 4.1"/><path class="st8" d="M37 4l-1.4-.7C35.7 3.1 35.8 3 36 2.9l1.4.7C37.2 3.7 37.1 3.8 37 4"/><path class="st4" d="M37.3 3.6 36 2.9c.1-.1.2-.2.4-.3l1.4.7C37.6 3.4 37.4 3.5 37.3 3.6"/><path class="st3" d="M37.7 3.3l-1.4-.7c.2-.1.3-.2.5-.3l1.4.7C38 3.1 37.9 3.2 37.7 3.3"/><path class="st2" d="M38.2 3.1l-1.4-.7c.3-.1.6-.2.9-.3l1.4.7C38.8 2.8 38.5 2.9 38.2 3.1"/></g></g><g class="st0"><defs><path id="SVGID_5_" class="st0" d="M11.7 52.2l-1.4-.7C9.5 51 8.9 50 8.9 48.8l1.4.7C10.3 50.8 10.9 51.7 11.7 52.2z"/></defs><clipPath id="SVGID_6_"><use xlink:href="#SVGID_5_" style="overflow:visible"/></clipPath><g class="st9"><path class="st10" d="M11.7 52.2l-1.4-.7C9.5 51 8.9 50 8.9 48.8l1.4.7C10.3 50.8 10.9 51.7 11.7 52.2"/></g></g><g><path class="st11" d="M10.3 49.6 8.9 48.8V37.1L10.3 37.9z"/></g><g><path class="st12" d="M11.2 35.4 9.9 34.6 35.6 3.3 36.9 4.1z"/></g><g class="st0"><defs><path id="SVGID_7_" class="st0" d="M10.3 37.9l-1.4-.7c0-.9.3-1.8.9-2.5l1.4.7C10.6 36.1 10.3 37 10.3 37.9z"/></defs><clipPath id="SVGID_8_"><use xlink:href="#SVGID_7_" style="overflow:visible"/></clipPath><g class="st13"><path class="st10" d="M10.3 37.9l-1.4-.7c0-.4.1-.9.2-1.3l1.4.7C10.4 37 10.3 37.4 10.3 37.9"/><path class="st14" d="M10.6 36.5l-1.4-.7c.1-.2.1-.4.2-.5l1.4.7C10.7 36.2 10.6 36.3 10.6 36.5"/><path class="st15" d="M10.8 36l-1.4-.7c.1-.1.2-.3.3-.4l1.4.7C10.9 35.7 10.9 35.9 10.8 36"/><path class="st7" d="M11 35.6l-1.4-.7c.1-.1.1-.2.2-.2l1.4.7C11.2 35.4 11.1 35.5 11 35.6"/></g></g><g><path class="st16" d="M50 1.3c1.7-.2 3.1 1.1 3.1 2.9v11.7c0 .9-.3 1.8-.9 2.5L26.4 49.7c-.6.7-1.4 1.2-2.2 1.3l-10.9 1.5c-1.7.2-3.1-1.1-3.1-2.9v-11.7c0-.9.3-1.8.9-2.5L36.9 4.1c.6-.7 1.4-1.2 2.2-1.3L50 1.3z"/></g></g></g></g><g><g><g class="st0"><g class="st0"><defs><path id="SVGID_9_" class="st0" d="M38.7 50.6l-1.4-.7c-.2-.1-.4-.2-.5-.4l1.4.7C38.3 50.3 38.5 50.5 38.7 50.6z"/></defs><clipPath id="SVGID_10_"><use xlink:href="#SVGID_9_" style="overflow:visible"/></clipPath><g class="st17"><path class="st18" d="M38.7 50.6l-1.4-.7c-.2-.1-.4-.2-.5-.4l1.4.7C38.3 50.3 38.5 50.5 38.7 50.6"/></g></g><g><path class="st19" d="M38.2 50.2 36.8 49.4 31.6 44.6 33 45.3z"/></g><g><path class="st20" d="M38.6 28.1 37.2 27.3 46.9 26 48.3 26.7z"/></g><g><path class="st21" d="M33 45.3 31.6 44.6V34.1L33 34.8z"/></g><g class="st0"><defs><path id="SVGID_11_" class="st0" d="M33 34.8l-1.4-.7c0-3.3 2.5-6.4 5.6-6.8l1.4.7C35.5 28.5 33 31.5 33 34.8z"/></defs><clipPath id="SVGID_12_"><use xlink:href="#SVGID_11_" style="overflow:visible"/></clipPath><g class="st22"><path class="st18" d="M33 34.8l-1.4-.7c0-.8.2-1.6.4-2.4l1.4.7C33.2 33.2 33 34 33 34.8"/><path class="st23" d="M33.4 32.5l-1.4-.7c.1-.3.3-.6.4-.9l1.4.7C33.7 31.8 33.6 32.2 33.4 32.5"/><path class="st24" d="M33.9 31.5l-1.4-.7c.1-.3.3-.5.5-.7l1.4.7C34.1 31 34 31.3 33.9 31.5"/><path class="st25" d="M34.3 30.8l-1.4-.7c.2-.2.3-.4.5-.6l1.4.7C34.6 30.4 34.5 30.6 34.3 30.8"/><path class="st26" d="M34.8 30.2l-1.4-.7c.2-.2.4-.4.6-.6l1.4.7C35.2 29.8 35 30 34.8 30.2"/><path class="st27" d="M35.4 29.6 34 28.9c.2-.2.4-.4.7-.5l1.4.7C35.8 29.2 35.6 29.4 35.4 29.6"/><path class="st28" d="M36.1 29.1l-1.4-.7c.3-.2.6-.4.9-.5l1.4.7C36.6 28.7 36.3 28.9 36.1 29.1"/><path class="st29" d="M37 28.5l-1.4-.7c.5-.2 1.1-.4 1.6-.5l1.4.7C38 28.1 37.5 28.3 37 28.5"/></g></g><g><path class="st30" d="M48.3 26.7l5.2 4.9c.6.5.9 1.4.9 2.2v11.7c0 1.9-1.4 3.5-3.1 3.8l-10.9 1.5c-.8.1-1.6-.1-2.2-.7L33 45.3V34.8c0-3.3 2.5-6.4 5.6-6.8L48.3 26.7z"/></g></g></g></g><g><g><g class="st0"><g class="st0"><defs><path id="SVGID_13_" class="st0" d="M23.3 2.4l1.4.7c-.5-.3-1.1-.4-1.7-.3l-1.4-.7C22.2 2.1 22.8 2.2 23.3 2.4z"/></defs><clipPath id="SVGID_14_"><use xlink:href="#SVGID_13_" style="overflow:visible"/></clipPath><g class="st31"><path class="st32" d="M23 2.9l-1.4-.7c.4-.1.7.0 1.1.1l1.4.7C23.7 2.9 23.4 2.8 23 2.9"/><path class="st33" d="M24.1 2.9l-1.4-.7c.2.0.3.1.5.2l1.4.7C24.4 3 24.2 3 24.1 2.9"/><path class="st34" d="M24.6 3.1l-1.4-.7c0 0 .1.0.1.0L24.6 3.1C24.6 3.2 24.6 3.1 24.6 3.1"/></g></g><g><path class="st35" d="M15.1 27 13.7 26.3 8.5 21.4 9.9 22.2z"/></g><g class="st0"><defs><path id="SVGID_15_" class="st0" d="M9.9 22.2l-1.4-.7c-.6-.6-.9-1.4-.9-2.2L9 19.9C9 20.8 9.3 21.6 9.9 22.2z"/></defs><clipPath id="SVGID_16_"><use xlink:href="#SVGID_15_" style="overflow:visible"/></clipPath><g class="st36"><path class="st37" d="M9.9 22.2l-1.4-.7c-.6-.6-.9-1.4-.9-2.2L9 19.9C9 20.8 9.3 21.6 9.9 22.2"/></g></g><g><path class="st38" d="M12.1 4.4 10.8 3.7 21.6 2.1 23 2.9z"/></g><g><path class="st39" d="M9 19.9 7.6 19.2 7.7 7.4 9 8.2z"/></g><g class="st0"><defs><path id="SVGID_17_" class="st0" d="M9 8.2 7.7 7.4c0-1.9 1.4-3.5 3.1-3.8l1.4.7C10.4 4.7 9 6.3 9 8.2z"/></defs><clipPath id="SVGID_18_"><use xlink:href="#SVGID_17_" style="overflow:visible"/></clipPath><g class="st40"><path class="st37" d="M9 8.2 7.7 7.4c0-.5.1-.9.2-1.3l1.4.7C9.1 7.3 9 7.7 9 8.2"/><path class="st41" d="M9.3 6.9 7.9 6.1C8 6 8 5.8 8.1 5.6l1.4.7C9.4 6.5 9.3 6.7 9.3 6.9"/><path class="st42" d="M9.5 6.4 8.1 5.6c.1-.1.2-.3.3-.4l1.4.7C9.7 6.1 9.6 6.2 9.5 6.4"/><path class="st43" d="M9.7 5.9 8.4 5.2C8.5 5.1 8.6 5 8.7 4.8L10 5.6C9.9 5.7 9.8 5.8 9.7 5.9"/><path class="st44" d="M10 5.6 8.7 4.8C8.8 4.7 8.9 4.6 9 4.5l1.4.7C10.2 5.4 10.1 5.5 10 5.6"/><path class="st34" d="M10.3 5.3 9 4.5c.1-.1.2-.2.4-.3L10.7 5C10.6 5.1 10.5 5.2 10.3 5.3"/><path class="st33" d="M10.7 5 9.3 4.2C9.5 4.1 9.7 4 9.9 3.9l1.4.7C11 4.8 10.9 4.9 10.7 5"/><path class="st32" d="M11.2 4.7 9.9 3.9c.3-.1.6-.2.9-.3l1.4.7C11.8 4.5 11.5 4.6 11.2 4.7"/></g></g><g><path class="st45" d="M23 2.9c.8-.1 1.6.1 2.2.7l5.2 4.9V19c0 3.3-2.5 6.3-5.6 6.8L15.1 27l-5.2-4.9C9.3 21.6 9 20.8 9 19.9V8.2c0-1.9 1.4-3.5 3.1-3.8L23 2.9z"/></g></g></g></g><g class="st46"><g><g class="st0"><g class="st0"><defs><path id="SVGID_19_" class="st0" d="M26.2 11.8l1.4.7c-.3-.2-.7-.2-1.1-.2l-1.4-.7C25.5 11.6 25.8 11.7 26.2 11.8z"/></defs><clipPath id="SVGID_20_"><use xlink:href="#SVGID_19_" style="overflow:visible"/></clipPath><g class="st47"><path d="M26.4 12.4l-1.4-.7c.3.0.5.0.7.0l1.4.7C26.9 12.4 26.7 12.4 26.4 12.4"/><path d="M27.1 12.4l-1.4-.7c.1.0.2.1.3.1l1.4.7C27.4 12.5 27.3 12.5 27.1 12.4"/><path d="M27.5 12.6l-1.4-.7c0 0 0 0 .1.0L27.5 12.6c0 0 0 0 0 0"/></g></g><g><path d="M8.9 44.6 7.5 43.9 7.6 14.1 8.9 14.9z"/></g><g><path d="M8.9 14.9 7.6 14.1 25.1 11.7 26.4 12.4z"/></g><g><path d="M26.4 12.4c1.1-.2 2.1.7 2.1 1.9v25.3c0 .1.0.3.0.4-.2 1.1-1 2-2 2.1L8.9 44.6 9 14.8 26.4 12.4z"/></g></g></g></g><g class="st48"><g><g class="st0"><g class="st0"><defs><path id="SVGID_21_" class="st0" d="M26.7 11l1.4.7c-.5-.2-1-.4-1.6-.3l-1.4-.7C25.7 10.6 26.2 10.7 26.7 11z"/></defs><clipPath id="SVGID_22_"><use xlink:href="#SVGID_21_" style="overflow:visible"/></clipPath><g class="st49"><path d="M26.5 11.5l-1.4-.7c.4-.1.7.0 1 .1l1.4.7C27.2 11.4 26.8 11.4 26.5 11.5"/><path d="M27.5 11.5l-1.4-.7c.2.0.3.1.5.2l1.4.7C27.8 11.6 27.7 11.6 27.5 11.5"/><path d="M28 11.7l-1.4-.7c0 0 .1.0.1.0L28 11.7c0 0 0 0 0 0"/></g></g><g><path d="M8.9 43.7 7.6 43V13.2L9 13.9z"/></g><g><path d="M9 13.9 7.6 13.2l17.5-2.5L26.5 11.5z"/></g><g><path d="M26.5 11.5c1.6-.2 3 1 3 2.8v23.4c0 1.8-1.3 3.4-3 3.6L8.9 43.7 9 13.9 26.5 11.5z"/></g></g></g></g><g class="st46"><g><g class="st0"><g class="st0"><defs><path id="SVGID_23_" class="st0" d="M26.2 11.8l1.4.7c-.3-.2-.7-.2-1.1-.2l-1.4-.7C25.5 11.6 25.8 11.6 26.2 11.8z"/></defs><clipPath id="SVGID_24_"><use xlink:href="#SVGID_23_" style="overflow:visible"/></clipPath><g class="st50"><path d="M26.4 12.4l-1.4-.7c.3.0.5.0.7.0l1.4.7C26.9 12.3 26.7 12.3 26.4 12.4"/><path d="M27.1 12.4l-1.4-.7c.1.0.2.1.3.1l1.4.7C27.4 12.5 27.3 12.4 27.1 12.4"/><path d="M27.5 12.5l-1.4-.7c0 0 0 0 .1.0L27.5 12.5c0 0 0 0 0 0"/></g></g><g><path d="M8.9 42.7 7.5 41.9 7.6 14.1 8.9 14.8z"/></g><g><path d="M8.9 14.8 7.6 14.1l17.5-2.5L26.4 12.4z"/></g><g><path d="M26.4 12.4c1.1-.2 2.1.7 2.1 1.9v23.4c0 1.2-.9 2.4-2.1 2.5L8.9 42.7l.1-27.9L26.4 12.4z"/></g></g></g></g><g class="st48"><g><g class="st0"><g class="st0"><defs><path id="SVGID_25_" class="st0" d="M25.2 11.9l1.4.7c-.3-.2-.7-.2-1.1-.2l-1.4-.7C24.5 11.6 24.9 11.7 25.2 11.9z"/></defs><clipPath id="SVGID_26_"><use xlink:href="#SVGID_25_" style="overflow:visible"/></clipPath><g class="st51"><path d="M25.5 12.4l-1.4-.7c.3.0.5.0.7.0l1.4.7C26 12.4 25.7 12.4 25.5 12.4"/><path d="M26.2 12.5l-1.4-.7c.1.0.2.1.3.1l1.4.7C26.4 12.5 26.3 12.5 26.2 12.5"/><path d="M26.5 12.6l-1.4-.7c0 0 0 0 .1.0L26.5 12.6C26.6 12.6 26.6 12.6 26.5 12.6"/></g></g><g><path d="M8.8 42.6 7.4 41.9 7.5 14 8.9 14.8z"/></g><g><path d="M8.9 14.8 7.5 14 24.1 11.7 25.5 12.4z"/></g><g><path d="M25.5 12.4c1.1-.2 2.1.7 2.1 1.9v23.4c0 1.2-.9 2.4-2.1 2.5L8.8 42.6l.1-27.9L25.5 12.4z"/></g></g></g></g><g><g><g class="st0"><g><path class="st21" d="M19.1 33.5 17.7 32.8V30.4L19.1 31.2z"/></g><g><path class="st21" d="M18.4 27.5 17 26.7V24.4L18.4 25.1z"/></g><g class="st0"><defs><path id="SVGID_27_" class="st0" d="M24.8 11.4l1.4.7c-.3-.2-.7-.2-1.1-.2l-1.4-.7C24.1 11.2 24.5 11.2 24.8 11.4z"/></defs><clipPath id="SVGID_28_"><use xlink:href="#SVGID_27_" style="overflow:visible"/></clipPath><g class="st52"><path class="st29" d="M25.1 12l-1.4-.7c.3.0.5.0.7.0l1.4.7C25.6 11.9 25.3 11.9 25.1 12"/><path class="st28" d="M25.8 12l-1.4-.7c.1.0.2.1.3.1l1.4.7C26 12.1 25.9 12 25.8 12"/><path class="st27" d="M26.1 12.1l-1.4-.7c0 0 0 0 .1.0L26.1 12.1C26.2 12.1 26.2 12.1 26.1 12.1"/></g></g><g><path class="st53" d="M12.9 32.1 11.6 31.3 17.7 30.4 19.1 31.2z"/></g><g><path class="st20" d="M10.3 34.8 8.9 34 17.7 32.8 19.1 33.5z"/></g><g><path class="st21" d="M18.8 21.4 17.4 20.6V18.3L18.8 19z"/></g><g><path class="st20" d="M12.9 28.2 11.6 27.5 17 26.7 18.4 27.5z"/></g><g><path class="st21" d="M12.9 32.1 11.6 31.3V27.5L12.9 28.2z"/></g><g><path class="st53" d="M12.9 25.9 11.6 25.1 17 24.4 18.4 25.1z"/></g><g><path class="st21" d="M12.9 25.9 11.6 25.1V21.5L13 22.2z"/></g><g><path class="st20" d="M13 22.2 11.6 21.5 17.4 20.6 18.8 21.4z"/></g><g class="st0"><defs><path id="SVGID_29_" class="st0" d="M3.2 41.6l-1.4-.7c-.6-.3-1-1-1-1.8l1.4.7C2.2 40.6 2.6 41.3 3.2 41.6z"/></defs><clipPath id="SVGID_30_"><use xlink:href="#SVGID_29_" style="overflow:visible"/></clipPath><g class="st54"><path class="st18" d="M3.2 41.6l-1.4-.7c-.6-.3-1-1-1-1.8l1.4.7C2.2 40.6 2.6 41.3 3.2 41.6"/></g></g><g><path class="st53" d="M10.3 20.2 8.9 19.5 17.4 18.3 18.8 19z"/></g><g><path class="st55" d="M10.3 34.8 8.9 34V19.5L10.3 20.2z"/></g><g><path class="st56" d="M18.8 19V21.4L13 22.2 12.9 25.9 18.4 25.1V27.5L12.9 28.2V32.1L19.1 31.2V33.5L10.3 34.8V20.2z"/></g><g><path class="st20" d="M4.3 14.9 3 14.1 23.7 11.2 25.1 12z"/></g><g><path class="st21" d="M2.2 39.8.8 39.1.9 16.7 2.2 17.4z"/></g><g><path class="st30" d="M25.1 12c1.1-.2 2.1.7 2.1 1.9v22.4c0 1.2-.9 2.4-2.1 2.5l-20.8 3c-1.1.2-2.1-.7-2.1-1.9V17.5c0-1.2.9-2.4 2.1-2.5l20.8-3zm-6 21.5v-2.4l-6.1.9v-3.8l5.5-.8V25l-5.5.8v-3.7l5.8-.8v-2.4l-8.5 1.2v14.6L19.1 33.5"/></g><g class="st0"><defs><path id="SVGID_31_" class="st0" d="M2.2 17.4l-1.4-.7c0-1.2.9-2.4 2.1-2.5l1.4.7C3.2 15 2.2 16.2 2.2 17.4z"/></defs><clipPath id="SVGID_32_"><use xlink:href="#SVGID_31_" style="overflow:visible"/></clipPath><g class="st57"><path class="st18" d="M2.2 17.4l-1.4-.7c0-.3.1-.6.2-.9l1.4.7C2.3 16.8 2.2 17.1 2.2 17.4"/><path class="st23" d="M2.4 16.5 1 15.8c0-.1.1-.2.2-.3l1.4.7C2.5 16.3 2.4 16.4 2.4 16.5"/><path class="st24" d="M2.6 16.2l-1.4-.7c.1-.1.1-.2.2-.3l1.4.7C2.7 16 2.6 16.1 2.6 16.2"/><path class="st25" d="M2.7 15.9l-1.4-.7c.1-.1.1-.2.2-.2l1.4.7C2.9 15.7 2.8 15.8 2.7 15.9"/><path class="st26" d="M2.9 15.7 1.5 15c.1-.1.1-.1.2-.2l1.4.7C3.1 15.5 3 15.6 2.9 15.7"/><path class="st27" d="M3.1 15.5l-1.4-.7c.1-.1.2-.1.3-.2l1.4.7C3.3 15.3 3.2 15.4 3.1 15.5"/><path class="st28" d="M3.4 15.3 2 14.5c.1-.1.2-.1.3-.2l1.4.7C3.6 15.1 3.5 15.2 3.4 15.3"/><path class="st29" d="M3.7 15.1l-1.4-.7c.2-.1.4-.2.6-.2l1.4.7C4.1 14.9 3.9 15 3.7 15.1"/></g></g></g></g></g></svg>