<svg id="HTML5" xmlns="http://www.w3.org/2000/svg" xmlns:xlink="http://www.w3.org/1999/xlink" viewBox="0 0 4e3 4e3" style="enable-background:new 0 0 4e3 4e3"><style>.st0{enable-background:new}.st1{fill:#8f2d0b}.st2{fill:#892a07}.st3{fill:#932f0d}.st4{fill:#993110}.st5{fill:#8c2b09}.st6{fill:#902d0b}.st7{fill:#924e24}.st8{fill:#955025}.st9{fill:#954f25}.st10{fill:#995227}.st11{fill:#f18345}.st12{fill:#9f5529}.st13{fill:#882a07}.st14{fill:#8b2b09}.st15{fill:#952f0e}.st16{fill:#e14c25}.st17{fill:#8e2c0b}.st18{fill:#858585}.st19{fill:#b2b2b2}.st20{fill:#aaa}.st21{fill:#b4b4b4}.st22{fill:gray}.st23{fill:#dfdfdf}.st24{fill:#818181}.st25{fill:#96300f}.st26{fill:#dc4b24}.st27{fill:#872a07}</style><g><g><g class="st0"><g><path class="st1" d="M1918.9 3192.6 1886.7 3183.4 2554.8 2784.6 2580 2798.1z"/></g><g><path class="st2" d="M2580 2798.1 2554.8 2784.6 2627.4 1229.9l25 20z"/></g><g><path class="st3" d="M2043.9 3260.6l-125-68L2580 2798.1l125 68z"/></g><g><path class="st4" d="M2069 3282.5 2043.9 3260.6 2705 2866.1 2737.1 2883.8z"/></g><g><path class="st5" d="M2705 2866.1l-125-68L2652.4 1249.9l125 68z"/></g><g><path class="st6" d="M2737.1 2883.8 2705 2866.1 2777.4 1317.9 2809.8 1329.1z"/></g><g><path class="st7" d="M1918.9 3192.7 1893.9 3170.8 1898.2 1340 1923.3 1352.3z"/></g><g><path class="st8" d="M1923.3 1352.3 1898.2 1340 2620 1238.6 2652.4 1249.9z"/></g><g><path class="st9" d="M2044 3260.7 1918.9 3192.7 1923.3 1352.3 2048.3 1420.3z"/></g><g><path class="st10" d="M2048.3 1420.3 1923.3 1352.3 2652.4 1249.9l125 68z"/></g><g><path class="st11" d="M2080.5 1439.2 2802.3 1337.8 2730.2 2879.6 2076.2 3270z"/></g><g><path class="st10" d="M2076.2 3270 2044 3260.7 2048.3 1420.3 2080.5 1439.2z"/></g><g><path class="st12" d="M2080.5 1439.2 2048.3 1420.3 2777.4 1317.9 2802.3 1337.8z"/></g><g><path class="st5" d="M1000.7 1274.9 975.8 1262.6 2813.7 1004.3 2846.1 1015.5z"/></g><g><path class="st13" d="M1080.6 3157.9 1055.3 3139.2 975.8 1262.6 1000.7 1274.9z"/></g><g><path class="st6" d="M1125.8 1342.9 1000.7 1274.9 2846.1 1015.5l125 68z"/></g><g><path class="st14" d="M1205.6 3225.9l-125-68L1000.7 1274.9 1125.8 1342.9z"/></g><g><path class="st15" d="M1158.1 1361.8 1125.8 1342.9 2971.1 1083.5l25 20z"/></g><g><path class="st16" d="M1158.1 1361.8 2996 1103.5 2907.5 2997l-834.6 498.2-835.2-256.8L1158.1 1361.8zM2737.1 2883.8l72.7-1554.7-736.4 103.4-4.4 1850.1L2737.1 2883.8"/></g><g><path class="st17" d="M1237.7 3238.4 1205.6 3225.9 1125.8 1342.9 1158.1 1361.8z"/></g></g></g></g><g id="_x35_"><g><g class="st0"><g><path class="st18" d="M2353.4 2642.9 2262.2 2593.3 2287.2 2321.7 2378.4 2371.3z"/></g><g><path class="st19" d="M2107.8 2775.4 2016.6 2725.8 2262.2 2593.3 2353.4 2642.9z"/></g><g><path class="st20" d="M1866.3 2720 1775.2 2670.4 2016.6 2725.8 2107.8 2775.4z"/></g><g><path class="st21" d="M1626.8 2660 1535.6 2610.4 1748.9 2580.4 1840.1 2630z"/></g><g><path class="st22" d="M1652.7 2930.9 1561.5 2881.3 1535.6 2610.4 1626.8 2660z"/></g><g><path class="st21" d="M1814.5 2173.9 1723.3 2124.3 2536.9 2009.9 2628.1 2059.5z"/></g><g><path class="st23" d="M2670.7 1497.9 2649.4 1779.8 1796.1 1899.7 1814.5 2173.9 2628.1 2059.5 2572.3 2783 2109.2 3058.5 1652.7 2930.9 1626.8 2660 1840.1 2630 1866.3 2720 2107.8 2775.4 2353.4 2642.9 2378.4 2371.3 1606.3 2479.8 1549.4 1655.5z"/></g><g><path class="st24" d="M1606.3 2479.8 1515.2 2430.2 1458.2 1605.9 1549.4 1655.5z"/></g><g><path class="st21" d="M1549.4 1655.5 1458.2 1605.9 2579.5 1448.3 2670.7 1497.9z"/></g></g></g></g><g><g><g class="st0"><g><path class="st14" d="M1337.4 1045.4 1291.8 1020.6 1292.1 849.3 1337.7 874.1z"/></g><g><path class="st14" d="M1337.9 770 1292.3 745.2 1292.6 597 1338.2 621.8z"/></g><g><path class="st25" d="M1338.2 621.8 1292.6 597 1414.4 579.8 1460 604.6z"/></g><g><path class="st25" d="M1205.4 788.6 1159.8 763.8 1292.3 745.2 1337.9 770z"/></g><g><path class="st25" d="M1084.3 657.4 1038.7 632.6 1160 615.6 1205.6 640.4z"/></g><g><path class="st14" d="M1083.5 1081.1 1038 1056.3 1038.7 632.6 1084.3 657.4z"/></g><g><path class="st26" d="M1460 604.6 1459.2 1028.3 1337.4 1045.4 1337.7 874.1 1205.2 892.7 1204.8 1064.1 1083.5 1081.1 1084.3 657.4 1205.6 640.4 1205.4 788.6 1337.9 770 1338.2 621.8z"/></g></g><g class="st0"><g><path class="st14" d="M1690.8 995.8 1645.2 971 1645.8 651.9 1691.4 676.7z"/></g><g><path class="st14" d="M1567.7 694.1 1522.1 669.3 1522.3 564.7 1567.9 589.5z"/></g><g><path class="st25" d="M1567.9 589.5 1522.3 564.7 1891 512.9 1936.6 537.7z"/></g><g><path class="st26" d="M1936.6 537.7 1936.4 642.3 1812.7 659.7 1812.1 978.7 1690.8 995.8 1691.4 676.7 1567.7 694.1 1567.9 589.5z"/></g></g><g class="st0"><g><path class="st14" d="M2386.4 898 2340.8 873.2 2341.4 550.1 2387 574.9z"/></g><g><path class="st1" d="M2265.5 749.1 2219.9 724.3 2281.5 458 2327.1 482.8z"/></g><g><path class="st25" d="M2327.1 482.8 2281.5 458 2440.9 435.6 2486.5 460.4z"/></g><g><path class="st27" d="M2219.9 921.4 2174.3 896.6 2098.5 584.2 2144.1 609z"/></g><g><path class="st25" d="M2045 522.4 1999.4 497.6 2158.9 475.2 2204.5 5e2z"/></g><g><path class="st14" d="M2044.2 946.1 1998.6 921.3 1999.4 497.6 2045 522.4z"/></g><g><path class="st26" d="M2486.5 460.4 2485.7 884 2386.4 898 2387 574.9 2309.8 908.8 2219.9 921.4 2144.1 609 2143.5 932.1 2044.2 946.1 2045 522.4 2204.5 5e2 2265.5 749.1 2327.1 482.8z"/></g></g><g class="st0"><g><path class="st25" d="M2739.4 744.1 2693.8 719.3 2883.1 692.7 2928.7 717.5z"/></g><g><path class="st14" d="M2617.9 865.5 2572.3 840.7 2573.1 417 2618.7 441.8z"/></g><g><path class="st25" d="M2618.7 441.8 2573.1 417 2694.4 399.9 2740 424.7z"/></g><g><path class="st26" d="M2740 424.7 2739.4 744.1 2928.7 717.5 2928.5 821.8 2617.9 865.5 2618.7 441.8z"/></g></g></g></g></svg>