<svg id="Calque_1" xmlns="http://www.w3.org/2000/svg" xmlns:xlink="http://www.w3.org/1999/xlink" viewBox="0 0 240 262" style="enable-background:new 0 0 240 262"><style>.st0{enable-background:new}.st1{clip-path:url(#SVGID_2_);enable-background:new}.st2{fill:#00003c}.st3{fill:#00003a}.st4{fill:#000038}.st5{clip-path:url(#SVGID_4_);enable-background:new}.st6{fill:#00002f}.st7{fill:#000040}.st8{fill:#00002e}.st9{clip-path:url(#SVGID_6_);enable-background:new}.st10{fill:#000031}.st11{fill:#003}.st12{fill:#000035}.st13{fill:#000037}.st14{fill:#00004f}.st15{clip-path:url(#SVGID_8_);enable-background:new}.st16{fill:#595994}.st17{fill:#56568f}.st18{fill:#53538a}.st19{fill:#505085}.st20{clip-path:url(#SVGID_10_);enable-background:new}.st21{fill:#6565a8}.st22{fill:#6262a3}.st23{fill:#5f5f9e}.st24{fill:#5c5c99}.st25{clip-path:url(#SVGID_12_);enable-background:new}.st26{clip-path:url(#SVGID_14_);enable-background:new}.st27{clip-path:url(#SVGID_16_);enable-background:new}.st28{clip-path:url(#SVGID_18_);enable-background:new}.st29{fill:#6c6cb4}.st30{clip-path:url(#SVGID_20_);enable-background:new}.st31{clip-path:url(#SVGID_22_);enable-background:new}.st32{fill:#4e4e82}.st33{fill:#8686df}.st34{clip-path:url(#SVGID_24_);enable-background:new}.st35{clip-path:url(#SVGID_26_);enable-background:new}.st36{clip-path:url(#SVGID_28_);enable-background:new}.st37{clip-path:url(#SVGID_30_);enable-background:new}.st38{clip-path:url(#SVGID_32_);enable-background:new}.st39{clip-path:url(#SVGID_34_);enable-background:new}.st40{clip-path:url(#SVGID_36_);enable-background:new}.st41{clip-path:url(#SVGID_38_);enable-background:new}.st42{clip-path:url(#SVGID_40_);enable-background:new}</style><title>Adobe Premiere Pro CC logo</title><g id="vlpb"><g><g class="st0"><g class="st0"><defs><path id="SVGID_1_" class="st0" d="M198 6.2l22.8 12.4c-5.8-3.2-12.8-4.5-20.2-3.5L177.8 2.7C185.2 1.7 192.2 3 198 6.2z"/></defs><clipPath id="SVGID_2_"><use xlink:href="#SVGID_1_" style="overflow:visible"/></clipPath><g class="st1"><path class="st2" d="M200.6 15.1 177.8 2.7c4.6-.6 9-.4 13.1.7l22.8 12.4C209.6 14.7 205.2 14.5 200.6 15.1"/><path class="st3" d="M213.7 15.8 190.9 3.4c2.1.5 4.1 1.3 6 2.2L219.7 18C217.8 17.1 215.8 16.3 213.7 15.8"/><path class="st4" d="M219.7 18 196.9 5.6c.4.2.8.4 1.2.6l22.8 12.4C220.4 18.4 220.1 18.2 219.7 18"/></g></g><g class="st0"><defs><path id="SVGID_3_" class="st0" d="M42 255.8l-22.8-12.4c-10.6-5.7-17.6-17.5-17.5-32l22.8 12.4C24.4 238.3 31.4 250.1 42 255.8z"/></defs><clipPath id="SVGID_4_"><use xlink:href="#SVGID_3_" style="overflow:visible"/></clipPath><g class="st5"><path class="st6" d="M42 255.8l-22.8-12.4c-10.6-5.7-17.6-17.5-17.5-32l22.8 12.4C24.4 238.3 31.4 250.1 42 255.8"/></g></g><g><path class="st7" d="M62.6 34.5 39.8 22.1 177.8 2.7 200.6 15.1z"/></g><g><path class="st8" d="M24.5 223.8 1.7 211.4 1.9 68.2 24.7 80.6z"/></g><g class="st0"><defs><path id="SVGID_5_" class="st0" d="M24.7 80.6 1.9 68.2c0-22.6 17-43.2 37.9-46.1l22.8 12.4C41.7 37.4 24.8 58.1 24.7 80.6z"/></defs><clipPath id="SVGID_6_"><use xlink:href="#SVGID_5_" style="overflow:visible"/></clipPath><g class="st9"><path class="st6" d="M24.7 80.6 1.9 68.2c0-5.6 1-11 2.9-16.1l22.8 12.4C25.8 69.6 24.7 75.1 24.7 80.6"/><path class="st10" d="M27.6 64.5 4.8 52.1c.8-2.2 1.8-4.3 2.9-6.4l22.8 12.4C29.4 60.2 28.4 62.3 27.6 64.5"/><path class="st11" d="M30.5 58.2 7.7 45.8c.9-1.7 2-3.4 3.1-5l22.8 12.4C32.5 54.8 31.4 56.5 30.5 58.2"/><path class="st12" d="M33.6 53.2 10.8 40.8c1.1-1.5 2.2-2.9 3.4-4.3L37 48.9C35.8 50.2 34.6 51.7 33.6 53.2"/><path class="st13" d="M37 48.9 14.2 36.5c1.2-1.4 2.5-2.7 3.9-3.9L40.8 45C39.5 46.2 38.2 47.5 37 48.9"/><path class="st4" d="M40.8 45 18 32.6c1.5-1.3 3-2.5 4.6-3.6l22.8 12.4C43.8 42.5 42.3 43.7 40.8 45"/><path class="st3" d="M45.4 41.4 22.6 29c2-1.4 4-2.5 6.1-3.5l22.8 12.4C49.4 38.8 47.4 40 45.4 41.4"/><path class="st2" d="M51.5 37.8 28.7 25.4c3.5-1.6 7.2-2.8 11.1-3.3l22.8 12.4C58.8 35 55 36.2 51.5 37.8"/></g></g><g><path class="st14" d="M200.6 15.1c20.9-2.9 37.8 12.9 37.8 35.5l-.3 143.1c0 22.6-17 43.2-37.9 46.1l-138 19.4c-20.9 2.9-37.8-12.9-37.7-35.5l.3-143.1c0-22.6 17-43.2 37.9-46.1L200.6 15.1z"/></g></g></g></g><g id="vlpe"><g><g class="st0"><g class="st0"><defs><path id="SVGID_7_" class="st0" d="M115.4 125.7l-11.4-6.2c1.9-2.7 2.8-6.1 2.8-10.3l11.4 6.2C118.2 119.6 117.3 123 115.4 125.7z"/></defs><clipPath id="SVGID_8_"><use xlink:href="#SVGID_7_" style="overflow:visible"/></clipPath><g class="st15"><path class="st16" d="M115.4 125.7 104 119.5v0L115.4 125.7v0"/><path class="st17" d="M115.4 125.7l-11.4-6.2c.3-.4.6-.9.8-1.3l11.4 6.2C116 124.8 115.7 125.2 115.4 125.7"/><path class="st18" d="M116.3 124.3l-11.4-6.2c.3-.6.6-1.2.8-1.8l11.4 6.2C116.8 123.1 116.6 123.7 116.3 124.3"/><path class="st19" d="M117.1 122.5l-11.4-6.2c.8-2 1.1-4.4 1.1-7.1l11.4 6.2C118.2 118.1 117.8 120.4 117.1 122.5"/></g></g><g class="st0"><defs><path id="SVGID_9_" class="st0" d="M108.1 131.8l-11.4-6.2c2.8-1.3 5.3-3.4 7.3-6.1l11.4 6.2C113.5 128.3 111 130.5 108.1 131.8z"/></defs><clipPath id="SVGID_10_"><use xlink:href="#SVGID_9_" style="overflow:visible"/></clipPath><g class="st20"><path class="st21" d="M108.1 131.8l-11.4-6.2c.1.0.2-.1.3-.1l11.4 6.2C108.3 131.7 108.2 131.7 108.1 131.8"/><path class="st22" d="M108.4 131.6 97 125.4c.8-.4 1.6-.8 2.3-1.3l11.4 6.2C110 130.8 109.2 131.3 108.4 131.6"/><path class="st23" d="M110.7 130.3l-11.4-6.2c.6-.4 1.2-.9 1.8-1.4l11.4 6.2C112 129.4 111.4 129.9 110.7 130.3"/><path class="st24" d="M112.6 128.9l-11.4-6.2c.6-.5 1.1-1.1 1.6-1.7l11.4 6.2C113.7 127.8 113.1 128.3 112.6 128.9"/><path class="st16" d="M114.2 127.2l-11.4-6.2c.4-.5.9-1 1.3-1.6l11.4 6.2C115 126.2 114.6 126.7 114.2 127.2"/></g></g><g class="st0"><defs><path id="SVGID_11_" class="st0" d="M118.2 115.4l-11.4-6.2c.1-3-.6-5.9-2-8.3l11.4 6.2C117.6 109.5 118.3 112.4 118.2 115.4z"/></defs><clipPath id="SVGID_12_"><use xlink:href="#SVGID_11_" style="overflow:visible"/></clipPath><g class="st25"><path class="st19" d="M118.2 115.4l-11.4-6.2c.1-3-.6-5.9-2-8.3l11.4 6.2C117.6 109.5 118.3 112.4 118.2 115.4"/></g></g><g class="st0"><defs><path id="SVGID_13_" class="st0" d="M70.6 188.6l-11.4-6.2c-.3-.2-.4-.5-.4-1l11.4 6.2C70.2 188.2 70.3 188.5 70.6 188.6z"/></defs><clipPath id="SVGID_14_"><use xlink:href="#SVGID_13_" style="overflow:visible"/></clipPath><g class="st26"><path class="st19" d="M70.6 188.6l-11.4-6.2c-.3-.2-.4-.5-.4-1l11.4 6.2C70.2 188.2 70.3 188.5 70.6 188.6"/></g></g><g class="st0"><defs><path id="SVGID_15_" class="st0" d="M97.9 134.9l-11.4-6.2c3.5-.5 6.9-1.6 10.2-3.2l11.4 6.2C104.8 133.4 101.4 134.5 97.9 134.9z"/></defs><clipPath id="SVGID_16_"><use xlink:href="#SVGID_15_" style="overflow:visible"/></clipPath><g class="st27"><path class="st21" d="M97.9 134.9l-11.4-6.2c3.3-.5 6.6-1.5 9.8-3l11.4 6.2C104.5 133.5 101.2 134.5 97.9 134.9"/><path class="st22" d="M107.7 132l-11.4-6.2c.1-.1.3-.1.4-.2l11.4 6.2C108 131.8 107.8 131.9 107.7 132"/></g></g><g class="st0"><defs><path id="SVGID_17_" class="st0" d="M100.8 97.2l11.4 6.2c1.6.9 2.9 2.1 4 3.7l-11.4-6.2C103.7 99.3 102.4 98.1 100.8 97.2z"
						/></defs><clipPath id="SVGID_18_"><use xlink:href="#SVGID_17_" style="overflow:visible"/></clipPath><g class="st28"><path class="st19" d="M116.2 107.1l-11.4-6.2c-1-1.6-2.4-2.8-4-3.7l11.4 6.2C113.8 104.3 115.1 105.5 116.2 107.1"/></g></g><g><path class="st29" d="M93.2 135.6 81.8 129.4 86.5 128.7 97.9 134.9z"/></g><g class="st0"><defs><path id="SVGID_19_" class="st0" d="M89.7 135.9l-11.4-6.2c1.2-.1 2.4-.1 3.5-.3l11.4 6.2C92.1 135.8 90.9 135.8 89.7 135.9z"/></defs><clipPath id="SVGID_20_"><use xlink:href="#SVGID_19_" style="overflow:visible"/></clipPath><g class="st30"><path class="st21" d="M89.7 135.9l-11.4-6.2c1.2-.1 2.4-.1 3.5-.3l11.4 6.2C92.1 135.8 90.9 135.8 89.7 135.9"/></g></g><g class="st0"><defs><path id="SVGID_21_" class="st0" d="M112.6 79.9l11.4 6.2c-2.1-1.2-4.4-2-6.8-2.6l-11.4-6.2C108.2 77.9 110.5 78.7 112.6 79.9z"/></defs><clipPath id="SVGID_22_"><use xlink:href="#SVGID_21_" style="overflow:visible"/></clipPath><g class="st31"><path class="st21" d="M117.2 83.5l-11.4-6.2c.3.1.5.1.8.2l11.4 6.2C117.7 83.7 117.5 83.6 117.2 83.5"/><path class="st22" d="M118 83.7l-11.4-6.2c1.7.5 3.4 1.1 5 1.9l11.4 6.2C121.4 84.8 119.7 84.2 118 83.7"/><path class="st23" d="M123 85.6l-11.4-6.2c.3.2.6.3 1 .5l11.4 6.2C123.7 85.9 123.4 85.7 123 85.6"/></g></g><g><path class="st32" d="M70.2 187.6 58.8 181.4 59 82.6 70.4 88.8z"/></g><g><path class="st33" d="M135.6 99.8c1.3 3.9 2 7.9 2 12.2.0 8.3-1.8 15.3-5.4 21.2-3.6 5.9-8.6 10.6-14.4 13.7-6.1 3.3-12.7 5.1-20 6.1-2.1.3-3.6.5-4.5.5-.9.0-2.1.2-3.8.4l-.1 30.8c.1.7-.4 1.3-1 1.5h-.4l-16.9 2.4c-.7.1-1.1-.2-1.1-1.1l.2-98.8c0-.7.3-1.1.9-1.2 1.5-.2 2.9-.4 5-.8 2.1-.4 4.4-.7 6.8-1.1 2.4-.4 5-.8 7.7-1.3 2.8-.5 5.4-.9 8.1-1.2 7.3-1 13.4-.9 18.3.4 4.4 1 8.5 3.1 11.9 6.2C132 92.4 134.2 95.8 135.6 99.8zM118.2 115.4c.1-3-.6-5.9-2-8.3-1.5-2.3-3.6-3.9-6.2-4.6-3.1-.9-6.4-1-9.7-.6-.3.0-.5.1-.8.1-2.3.3-4.4.6-6.1.9-.5.0-1 .1-1.4.2-1 .1-1.8.3-2.2.4l-.1 32.3c1.2-.1 2.4-.1 3.5-.3l4.7-.7c3.5-.5 6.9-1.6 10.2-3.2 2.8-1.3 5.3-3.4 7.3-6.1C117.3 123 118.2 119.6 118.2 115.4"/></g><g class="st0"><defs><path id="SVGID_23_" class="st0" d="M70.4 88.8 59 82.6c0-.7.3-1.1.9-1.2 1.5-.2 2.9-.4 5-.8 2.1-.4 4.4-.7 6.8-1.1 2.4-.4 5-.8 7.7-1.3 2.8-.5 5.4-.9 8.1-1.2 7.3-1 13.4-.9 18.3.4l11.4 6.2c-5-1.3-11-1.4-18.3-.4-2.7.4-5.3.8-8.1 1.2-2.8.5-5.3.8-7.7 1.3-2.4.4-4.6.7-6.8 1.1-2.1.4-3.5.6-5 .8C70.7 87.7 70.4 88.1 70.4 88.8z"/></defs><clipPath id="SVGID_24_"><use xlink:href="#SVGID_23_" style="overflow:visible"/></clipPath><g class="st34"><path class="st19" d="M70.4 88.8 59 82.6c0-.2.0-.4.1-.6l11.4 6.2C70.4 88.4 70.4 88.5 70.4 88.8"/><path class="st18" d="M70.5 88.2 59.1 82c0 0 0-.1.1-.1l11.4 6.2C70.5 88.1 70.5 88.2 70.5 88.2"/><path class="st17" d="M70.5 88.1l-11.4-6.2c0 0 0-.1.1-.1L70.5 88.1C70.6 88 70.6 88 70.5 88.1"/><path class="st16" d="M70.6 88l-11.4-6.2c0 0 0-.1.1-.1L70.6 88C70.6 87.9 70.6 87.9 70.6 88"/><path class="st24" d="M70.6 87.9l-11.4-6.2c0 0 0 0 .1-.1L70.6 87.9C70.7 87.8 70.7 87.9 70.6 87.9"/><path class="st23" d="M70.7 87.8l-11.4-6.2c0 0 .1.0.1-.1L70.7 87.8c.09999999999999432.0.0.0.0.0"/><path class="st22" d="M70.8 87.8l-11.4-6.2c0 0 .1-.1.1-.1l11.4 6.2C70.9 87.7 70.8 87.7 70.8 87.8"/><path class="st21" d="M70.9 87.7l-11.4-6.2c.1.0.2-.1.3-.1 1.5-.2 2.9-.4 5-.8 2.1-.4 4.4-.7 6.8-1.1 2.4-.4 5-.8 7.7-1.3 2.8-.5 5.4-.9 8.1-1.2 7.2-1 13.3-.9 18.2.4l11.4 6.2c-5-1.3-11-1.4-18.2-.4-2.7.4-5.3.8-8.1 1.2-2.8.5-5.3.8-7.7 1.3-2.4.4-4.6.7-6.8 1.1-2.1.4-3.5.6-5 .8C71.1 87.6 71 87.6 70.9 87.7"/><path class="st22" d="M117.1 83.5l-11.4-6.2c0 0 .1.0.1.0l11.4 6.2C117.2 83.5 117.1 83.5 117.1 83.5"/></g></g></g><g class="st0"><g class="st0"><defs><path id="SVGID_25_" class="st0" d="M150.6 177.5l-11.4-6.2c-.3-.2-.5-.5-.5-.8l11.4 6.2C150.1 177.1 150.3 177.4 150.6 177.5z"/></defs><clipPath id="SVGID_26_"><use xlink:href="#SVGID_25_" style="overflow:visible"/></clipPath><g class="st35"><path class="st19" d="M150.6 177.5l-11.4-6.2c-.3-.2-.5-.5-.5-.8l11.4 6.2C150.1 177.1 150.3 177.4 150.6 177.5"/></g></g><g><path class="st32" d="M150 176.7 138.6 170.5V170.1L150 176.3z"/></g><g class="st0"><defs><path id="SVGID_27_" class="st0" d="M181.5 87.2l11.4 6.2c-.2-.1-.5-.2-.8-.1l-11.4-6.2C181 87 181.3 87.1 181.5 87.2z"
						/></defs><clipPath id="SVGID_28_"><use xlink:href="#SVGID_27_" style="overflow:visible"/></clipPath><g class="st36"><path class="st21" d="M192.1 93.3l-11.4-6.2c.2.0.4.0.5.0l11.4 6.2C192.5 93.2 192.3 93.2 192.1 93.3"/><path class="st22" d="M192.6 93.3l-11.4-6.2c.1.0.1.0.2.1l11.4 6.2C192.8 93.3 192.7 93.3 192.6 93.3"/><path class="st23" d="M192.8 93.4l-11.4-6.2c0 0 0 0 0 0L192.8 93.4c0 0 0 0 0 0"/></g></g><g class="st0"><defs><path id="SVGID_29_" class="st0" d="M178.6 98.9l-11.4-6.2c4.1-3.1 8.8-5 13.5-5.6l11.4 6.2C187.4 93.9 182.7 95.8 178.6 98.9z"/></defs><clipPath id="SVGID_30_"><use xlink:href="#SVGID_29_" style="overflow:visible"/></clipPath><g class="st37"><path class="st23" d="M178.6 98.9l-11.4-6.2c.3-.2.6-.5.9-.7l11.4 6.2C179.2 98.5 178.9 98.7 178.6 98.9"/><path class="st22" d="M179.5 98.2 168.1 92c1.4-1 2.8-1.8 4.3-2.5l11.4 6.2C182.3 96.5 180.9 97.3 179.5 98.2"/><path class="st21" d="M183.8 95.8l-11.4-6.2c2.7-1.3 5.5-2.1 8.3-2.5l11.4 6.2C189.3 93.7 186.5 94.5 183.8 95.8"/></g></g><g class="st0"><defs><path id="SVGID_31_" class="st0" d="M169 108.5l-11.4-6.2c2.7-3.7 5.9-7 9.5-9.6l11.4 6.2C174.9 101.5 171.7 104.8 169 108.5z"
						/></defs><clipPath id="SVGID_32_"><use xlink:href="#SVGID_31_" style="overflow:visible"/></clipPath><g class="st38"><path class="st16" d="M169 108.5l-11.4-6.2c.9-1.2 1.8-2.3 2.7-3.4l11.4 6.2C170.8 106.2 169.9 107.3 169 108.5"/><path class="st24" d="M171.8 105.1l-11.4-6.2c1.1-1.2 2.2-2.3 3.4-3.4l11.4 6.2C173.9 102.8 172.8 103.9 171.8 105.1"/><path class="st23" d="M175.1 101.7l-11.4-6.2c1.1-1 2.2-1.9 3.4-2.8l11.4 6.2C177.4 99.8 176.2 100.7 175.1 101.7"/></g></g><g class="st0"><defs><path id="SVGID_33_" class="st0" d="M155.6 92.5l11.4 6.2c-.3-.2-.6-.2-1-.2l-11.4-6.2C155 92.3 155.3 92.4 155.6 92.5z"
						/></defs><clipPath id="SVGID_34_"><use xlink:href="#SVGID_33_" style="overflow:visible"/></clipPath><g class="st39"><path class="st21" d="M166 98.6l-11.4-6.2c.2.0.4.0.6.0l11.4 6.2C166.5 98.5 166.3 98.5 166 98.6"/><path class="st22" d="M166.7 98.6l-11.4-6.2c.1.0.2.1.3.1l11.4 6.2C166.9 98.7 166.8 98.6 166.7 98.6"/><path class="st23" d="M167 98.7l-11.4-6.2c0 0 0 0 .1.0L167 98.7c0 0 0 0 0 0"/></g></g><g><path class="st32" d="M150 176.3 138.6 170.1 138.7 116.9 150.1 123.1z"/></g><g class="st0"><defs><path id="SVGID_35_" class="st0" d="M150.1 123.1l-11.4-6.2c0-2.3.0-4.7-.1-7.2-.1-2.5-.1-5-.2-7.5l11.4 6.2c.1 2.5.1 5 .2 7.5C150.1 118.4 150.1 120.8 150.1 123.1z"/></defs><clipPath id="SVGID_36_"><use xlink:href="#SVGID_35_" style="overflow:visible"/></clipPath><g class="st40"><path class="st19" d="M150.1 123.1l-11.4-6.2c0-2.3.0-4.7-.1-7.2-.1-2.5-.1-5-.2-7.5l11.4 6.2c.1 2.5.1 5 .2 7.5C150.1 118.4 150.1 120.8 150.1 123.1"/></g></g><g><path class="st29" d="M150.2 100.8 138.8 94.6 154.6 92.4 166 98.6z"/></g><g class="st0"><defs><path id="SVGID_37_" class="st0" d="M149.9 108.4l-11.4-6.2c0-2.2-.2-4.3-.3-6.5l11.4 6.2C149.7 104.1 149.9 106.2 149.9 108.4z"/></defs><clipPath id="SVGID_38_"><use xlink:href="#SVGID_37_" style="overflow:visible"/></clipPath><g class="st41"><path class="st19" d="M149.9 108.4l-11.4-6.2c0-2.2-.2-4.3-.3-6.5l11.4 6.2C149.7 104.1 149.9 106.2 149.9 108.4"/></g></g><g><path class="st33" d="M192.1 93.3c.7-.1 1.2.3 1.2.9v.4 18.7c0 .8-.5 1.1-1.4 1.3-.4.0-.8.1-1.2.1-2.8.4-5.7 1.1-8.5 2.2-2.6.9-5.1 2.2-7.5 3.6-1.7 1.1-3.3 2.5-4.5 4.2l-.1 49c0 1-.4 1.4-1.2 1.5l-17.5 2.5c-.8.1-1.3-.3-1.4-1v-.4l.1-53.2c0-2.3.0-4.7-.1-7.2-.1-2.5-.1-5-.2-7.5.0-2.2-.2-4.3-.3-6.5-.1-.5.2-1 .6-1.1l15.8-2.2c.9-.1 1.6.4 1.9 1.3.3.7.4 1.5.5 2.3.2.9.3 2 .4 2.9.1 1 .2 2.2.2 3.4 2.7-3.7 5.9-7 9.5-9.6C182.7 95.8 187.4 93.9 192.1 93.3z"/></g><g class="st0"><defs><path id="SVGID_39_" class="st0" d="M149.6 101.9l-11.4-6.2c-.1-.5.2-1 .6-1.1l11.4 6.2C149.7 101 149.5 101.5 149.6 101.9z"/></defs><clipPath id="SVGID_40_"><use xlink:href="#SVGID_39_" style="overflow:visible"/></clipPath><g class="st42"><path class="st19" d="M149.6 101.9l-11.4-6.2c0-.2.0-.4.0-.5l11.4 6.2C149.5 101.6 149.5 101.8 149.6 101.9"/><path class="st18" d="M149.6 101.4l-11.4-6.2c0 0 0-.1.1-.1l11.4 6.2C149.6 101.3 149.6 101.3 149.6 101.4"/><path class="st17" d="M149.7 101.2 138.3 95c0 0 0-.1.1-.1l11.4 6.2C149.7 101.2 149.7 101.2 149.7 101.2"/><path class="st16" d="M149.7 101.1l-11.4-6.2c0 0 0-.1.1-.1L149.7 101.1C149.8 101.1 149.8 101.1 149.7 101.1"/><path class="st24" d="M149.8 101.1l-11.4-6.2c0 0 .1-.1.1-.1L149.8 101.1C149.9 101 149.8 101 149.8 101.1"/><path class="st23" d="M149.9 101l-11.4-6.2c0 0 .1-.1.1-.1L149.9 101C149.9 100.9 149.9 100.9 149.9 101"/><path class="st22" d="M150 100.9l-11.4-6.2c0 0 .1-.1.1-.1l11.4 6.2C150.1 100.8 150 100.9 150 100.9"/><path class="st21" d="M150.1 100.8l-11.4-6.2c0 0 .1.0.1.0L150.1 100.8c.09999999999999432.0.0.0.0.0"/></g></g></g></g></g></svg>