<svg id="Calque_1" xmlns="http://www.w3.org/2000/svg" xmlns:xlink="http://www.w3.org/1999/xlink" viewBox="0 0 261.8 257.7" style="enable-background:new 0 0 261.8 257.7"><style>.st0{enable-background:new}.st1{fill:#2e825d}.st2{fill:#266c4d}.st3{fill:#1e2b37}.st4{fill:#253442}.st5{fill:#2d4052}.st6{fill:#1a252f}.st7{fill:#215c42}.st8{fill:#39a172}</style><g transform="matrix(1.3333 0 0 -1.3333 -76.311 313.34)"><g><g class="st0"><g><path class="st1" d="M216.5 214.9 199.4 224.2 234.4 229.1 251.5 219.8z"/></g><g><path class="st2" d="M163.9 109.5 146.8 118.8 199.4 224.2 216.5 214.9z"/></g><g><path class="st3" d="M164 169.8 146.9 179.1 167.2 219.7 184.3 210.4z"/></g><g><path class="st4" d="M184.3 210.4 167.2 219.7 199.4 224.2 216.5 214.9z"/></g><g><path class="st4" d="M111.7 200.2 94.6 209.4 126.8 214 143.9 204.7z"/></g><g><path class="st5" d="M216.5 214.9 163.9 109.5 111.7 200.2l32.2 4.5L164 169.8 184.3 210.4z"/></g><g><path class="st6" d="M163.9 109.5 146.8 118.8 94.6 209.4 111.7 200.2z"/></g><g><path class="st7" d="M163.8 44.2 146.7 53.5l-87.1 151L76.7 195.2z"/></g><g><path class="st8" d="M251.5 219.8 163.8 44.2 76.7 195.2l35 5L163.9 109.5 216.5 214.9z"/></g><g><path class="st1" d="M76.7 195.2 59.6 204.5 94.6 209.4 111.7 200.2z"/></g></g></g></g></svg>