<svg width="0" height="0" class="hidden">
  <symbol xmlns="http://www.w3.org/2000/svg" viewBox="0 0 24 24" id="email" fill="currentColor">
    <path d="M0 0h24v24H0V0z" fill="none"></path>
    <path d="M4.01 6.03l7.51 3.22-7.52-1 .01-2.22m7.5 8.72L4 17.97v-2.22l7.51-1M2.01 3L2 10l15 2-15 2 .01 7L23 12 2.01 3z"></path>
  </symbol>
  <symbol xmlns="http://www.w3.org/2000/svg" viewBox="0 0 24 24" id="face" fill="currentColor">
    <path d="M0 0h24v24H0V0z" fill="none"></path>
    <path d="M10.25 13a1.25 1.25 0 11-2.5 0 1.25 1.25 0 012.5 0zM15 11.75a1.25 1.25 0 100 2.5 1.25 1.25 0 000-2.5zm7 .25c0 5.52-4.48 10-10 10S2 17.52 2 12 6.48 2 12 2s10 4.48 10 10zM10.66 4.12C12.06 6.44 14.6 8 17.5 8c.46 0 .91-.05 1.34-.12C17.44 5.56 14.9 4 12 4c-.46 0-.91.05-1.34.12zM4.42 9.47a8.046 8.046 0 003.66-4.44 8.046 8.046 0 00-3.66 4.44zM20 12c0-.78-.12-1.53-.33-2.24-.7.15-1.42.24-2.17.24a10 10 0 01-7.76-3.69A10.016 10.016 0 014 11.86c.01.04 0 .09 0 .14 0 4.41 3.59 8 8 8s8-3.59 8-8z"></path>
  </symbol>
  <symbol xmlns="http://www.w3.org/2000/svg" viewBox="0 0 24 24" id="mantra" fill="currentColor">
    <path fill="none" d="M0 0h24v24H0z"></path>
    <circle cx="12" cy="6" r="2"></circle>
    <path d="M21 16v-2c-2.24 0-4.16-.96-5.6-2.68l-1.34-1.6A1.98 1.98 0 0012.53 9h-1.05c-.59 0-1.15.26-1.53.72l-1.34 1.6C7.16 13.04 5.24 14 3 14v2c2.77 0 5.19-1.17 7-3.25V15l-3.88 1.55c-.67.27-1.12.93-1.12 1.66C5 19.2 5.8 20 6.79 20H9v-.5a2.5 2.5 0 012.5-2.5h3c.28 0 .5.22.5.5s-.22.5-.5.5h-3c-.83 0-1.5.67-1.5 1.5v.5h7.21c.99 0 1.79-.8 1.79-1.79 0-.73-.45-1.39-1.12-1.66L14 15v-2.25c1.81 2.08 4.23 3.25 7 3.25z"></path>
  </symbol>
  <symbol xmlns="http://www.w3.org/2000/svg" viewBox="0 0 24 24" id="phone" fill="currentColor">
    <path d="M0 0h24v24H0V0z" fill="none"></path>
    <path d="M6.54 5c.06.89.21 1.76.45 2.59l-1.2 1.2c-.41-1.2-.67-2.47-.76-3.79h1.51m9.86 12.02c.85.24 1.72.39 2.6.45v1.49c-1.32-.09-2.59-.35-3.8-.75l1.2-1.19M7.5 3H4c-.55 0-1 .45-1 1 0 9.39 7.61 17 17 17 .55 0 1-.45 1-1v-3.49c0-.55-.45-1-1-1-1.24 0-2.45-.2-3.57-.57a.84.84 0 00-.31-.05c-.26 0-.51.1-.71.29l-2.2 2.2a15.149 15.149 0 01-6.59-6.59l2.2-2.2c.28-.28.36-.67.25-1.02A11.36 11.36 0 018.5 4c0-.55-.45-1-1-1z"></path>
  </symbol>
  <symbol xmlns="http://www.w3.org/2000/svg" viewBox="0 0 24 24" id="pin" fill="currentColor">
    <path d="M0 0h24v24H0V0z" fill="none"></path>
    <path d="M12 2C8.13 2 5 5.13 5 9c0 5.25 7 13 7 13s7-7.75 7-13c0-3.87-3.13-7-7-7zM7 9c0-2.76 2.24-5 5-5s5 2.24 5 5c0 2.88-2.88 7.19-5 9.88C9.92 16.21 7 11.85 7 9z"></path>
    <circle cx="12" cy="9" r="2.5"></circle>
  </symbol>
  <symbol xmlns="http://www.w3.org/2000/svg" viewBox="0 0 24 24" id="skills" fill="currentColor">
    <path fill="none" d="M0 0h24v24H0z"></path>
    <path d="M13.783 15.172l2.121-2.121 5.996 5.996-2.121 2.121zM17.5 10c1.93 0 3.5-1.57 3.5-3.5 0-.58-.16-1.12-.41-1.6l-2.7 2.7-1.49-1.49 2.7-2.7c-.48-.25-1.02-.41-1.6-.41C15.57 3 14 4.57 14 6.5c0 .41.08.8.21 1.16l-1.85 1.85-1.78-1.78.71-.71-1.41-1.41L12 3.49a3 3 0 00-4.24 0L4.22 7.03l1.41 1.41H2.81l-.71.71 3.54 3.54.71-.71V9.15l1.41 1.41.71-.71 1.78 1.78-7.41 7.41 2.12 2.12L16.34 9.79c.36.13.75.21 1.16.21z"></path>
  </symbol>
  <symbol xmlns="http://www.w3.org/2000/svg" viewBox="0 0 24 24" id="soft-skills" fill="currentColor">
    <path fill="none" d="M0 0h24v24H0z"></path>
    <path d="M19 9l1.25-2.75L23 5l-2.75-1.25L19 1l-1.25 2.75L15 5l2.75 1.25zm0 6l-1.25 2.75L15 19l2.75 1.25L19 23l1.25-2.75L23 19l-2.75-1.25zm-7.5-5.5L9 4 6.5 9.5 1 12l5.5 2.5L9 20l2.5-5.5L17 12l-5.5-2.5zm-1.51 3.49L9 15.17l-.99-2.18L5.83 12l2.18-.99L9 8.83l.99 2.18 2.18.99-2.18.99z"></path>
  </symbol>
  <symbol xmlns="http://www.w3.org/2000/svg" viewBox="0 0 24 24" id="child" fill="currentColor">
    <path d="M0 0h24v24H0V0z" fill="none"></path>
    <circle cx="14.5" cy="10.5" r="1.25"></circle>
    <circle cx="9.5" cy="10.5" r="1.25"></circle>
    <path d="M22.94 11.34a4.008 4.008 0 00-2.81-3.17 9.114 9.114 0 00-2.19-2.91C16.36 3.85 14.28 3 12 3s-4.36.85-5.94 2.26c-.92.81-1.67 1.8-2.19 2.91a3.994 3.994 0 00-2.81 3.17c-.04.21-.06.43-.06.66 0 .23.02.45.06.66a4.008 4.008 0 002.81 3.17 8.977 8.977 0 002.17 2.89C7.62 20.14 9.71 21 12 21s4.38-.86 5.97-2.28c.9-.8 1.65-1.79 2.17-2.89a3.998 3.998 0 002.8-3.17c.04-.21.06-.43.06-.66 0-.23-.02-.45-.06-.66zM19 14c-.1 0-.19-.02-.29-.03-.2.67-.49 1.29-.86 1.86C16.6 17.74 14.45 19 12 19s-4.6-1.26-5.85-3.17c-.37-.57-.66-1.19-.86-1.86-.1.01-.19.03-.29.03-1.1 0-2-.9-2-2s.9-2 2-2c.1 0 .19.02.29.03.2-.67.49-1.29.86-1.86C7.4 6.26 9.55 5 12 5s4.6 1.26 5.85 3.17c.37.57.66 1.19.86 1.86.1-.01.19-.03.29-.03 1.1 0 2 .9 2 2s-.9 2-2 2zm-7 3c2.01 0 3.74-1.23 4.5-3h-9c.76 1.77 2.49 3 4.5 3z"></path>
  </symbol>
  <symbol xmlns="http://www.w3.org/2000/svg" viewBox="0 0 24 24" id="climbing" fill="currentColor">
    <path fill="none" d="M0 0h24v24H0z"></path>
    <path d="M14.27 6c-.55.95-.22 2.18.73 2.73.95.55 2.18.22 2.73-.73.55-.95.22-2.18-.73-2.73-.95-.55-2.18-.22-2.73.73z"></path>
    <path d="M15.84 10.41l-2.6-1.5c-2.38-1.38-3.2-4.44-1.82-6.82l-1.73-1C8.1 3.83 8.6 7.21 10.66 9.4l-5.15 8.92 1.73 1 1.5-2.6 1.73 1-3 5.2 1.73 1 6.29-10.89a5.002 5.002 0 01.31 5.46l1.73 1c1.6-2.75 1.28-6.58-1.69-9.08zM12.75 3.8c.72.41 1.63.17 2.05-.55.41-.72.17-1.63-.55-2.05a1.501 1.501 0 00-1.5 2.6z"></path>
  </symbol>
  <symbol xmlns="http://www.w3.org/2000/svg" viewBox="0 0 24 24" id="office" fill="currentColor">
    <path d="M0 0h24v24H0V0z" fill="none"></path>
    <path d="M13 5.08A7 7 0 0118.92 11h3.03c-.47-4.72-4.23-8.48-8.95-8.95v3.03zM18.92 13A7 7 0 0113 18.92v3.03c4.72-.47 8.48-4.23 8.95-8.95h-3.03zM11 18.92c-3.39-.49-6-3.4-6-6.92s2.61-6.43 6-6.92V2.05c-5.05.5-9 4.76-9 9.95 0 5.19 3.95 9.45 9 9.95v-3.03z"></path>
  </symbol>
  <symbol xmlns="http://www.w3.org/2000/svg" viewBox="0 0 24 24" id="brush" fill="currentColor">
    <path d="M0 0h24v24H0V0z" fill="none"></path>
    <path d="M7 16c.55 0 1 .45 1 1 0 1.1-.9 2-2 2-.17 0-.33-.02-.5-.05.31-.55.5-1.21.5-1.95 0-.55.45-1 1-1M18.67 3c-.26 0-.51.1-.71.29L9 12.25 11.75 15l8.96-8.96a.996.996 0 000-1.41l-1.34-1.34c-.2-.2-.45-.29-.7-.29zM7 14c-1.66 0-3 1.34-3 3 0 1.31-1.16 2-2 2 .92 1.22 2.49 2 4 2 2.21 0 4-1.79 4-4 0-1.66-1.34-3-3-3z"></path>
  </symbol>
  <symbol xmlns="http://www.w3.org/2000/svg" viewBox="0 0 24 24" id="code" fill="currentColor">
    <path d="M0 0h24v24H0V0z" fill="none"></path>
    <path d="M9.4 16.6L4.8 12l4.6-4.6L8 6l-6 6 6 6 1.4-1.4zm5.2 0l4.6-4.6-4.6-4.6L16 6l6 6-6 6-1.4-1.4z"></path>
  </symbol>
  <symbol xmlns="http://www.w3.org/2000/svg" viewBox="0 0 24 24" id="progress" fill="currentColor">
    <path d="M0 0h24v24H0V0z" fill="none"></path>
    <path d="M16 6l2.29 2.29-4.88 4.88-4-4L2 16.59 3.41 18l6-6 4 4 6.3-6.29L22 12V6h-6z"></path>
  </symbol>
  <symbol xmlns="http://www.w3.org/2000/svg" viewBox="0 0 24 24" id="discover" fill="currentColor">
    <path fill="none" d="M0 0h24v24H0z"></path>
    <path d="M19.3 16.9c.4-.7.7-1.5.7-2.4 0-2.5-2-4.5-4.5-4.5S11 12 11 14.5s2 4.5 4.5 4.5c.9 0 1.7-.3 2.4-.7l3.2 3.2 1.4-1.4-3.2-3.2zm-3.8.1c-1.4 0-2.5-1.1-2.5-2.5s1.1-2.5 2.5-2.5 2.5 1.1 2.5 2.5-1.1 2.5-2.5 2.5zM12 20v2C6.48 22 2 17.52 2 12S6.48 2 12 2c4.84 0 8.87 3.44 9.8 8h-2.07A8 8 0 0015 4.59V5c0 1.1-.9 2-2 2h-2v2c0 .55-.45 1-1 1H8v2h2v3H9l-4.79-4.79C4.08 10.79 4 11.38 4 12c0 4.41 3.59 8 8 8z"></path>
  </symbol>
</svg>