<svg xmlns="http://www.w3.org/2000/svg" xmlns:xlink="http://www.w3.org/1999/xlink" viewBox="0 0 115 36" fill="#fff" fill-rule="evenodd" stroke="#000" stroke-linecap="round" stroke-linejoin="round"><use xlink:href="#A" x=".5" y=".5"/><symbol id="A" overflow="visible"><g stroke="none"><g fill="#000"><path d="M.124 14.401h79.488v.894H.124z" fill-rule="nonzero"/><path d="M7.792 22.524l.372-1 1.6-5.695h2.6l-3.22 10.525H5.942L2.476 15.837h3.466l1.6 5.695z"/><path d="M12.258 18.562h2.972v7.8h-2.972zm0-2.848h2.972v2.105h-2.972z"/><path d="M17.458 23.762c.248.743 1 .868 1.6.868.37 0 1.238 0 1.238-.495 0-.372-1-.495-1.362-.495-1.6-.248-3.467-.495-3.467-2.6 0-.866.372-1.6 1.114-1.98.743-.495 1.6-.62 2.476-.62 1.486 0 3.095.495 3.6 1.98l-2.352.495c-.248-.62-.743-.743-1.362-.743-.248 0-1 .123-1 .37s.372.372.495.495c.372 0 1 .124 1.362.124.62.123 1.486.248 2.105.62.743.372 1.114 1.115 1.114 1.98 0 2.106-2.352 2.724-4.086 2.724s-3.343-.618-3.838-2.352z"/><path d="M27.612 26.363V25c-.372 1-1.362 1.486-2.353 1.486-.62 0-1.238-.123-1.734-.618s-.62-1.238-.62-1.98v-5.324h2.97v4.704c0 .495 0 1 .743 1 .248 0 .62-.123.743-.37s.124-.62.124-.867v-4.457h2.972v7.8h-2.845z"/><path d="M35.534 22.897c0 .743-.123 1.734-1.238 1.734-.495 0-.743-.248-.743-.743 0-.867 1.238-1.115 1.98-1.238v.248zm3.095 3.467c-.248-.62-.248-1.115-.248-1.733v-2.724c0-1.115.124-2.106-.867-2.847-.743-.495-1.98-.62-2.848-.62-1.733 0-3.6.495-4.086 2.352l2.847.248c0-.618.496-.866 1.115-.866.743 0 1 .37 1 1v.123c-1.114 0-2.105.124-3.095.495-1.114.248-2.105 1.115-2.105 2.353 0 1.6 1.362 2.352 2.724 2.352 1.114 0 1.98-.372 2.6-1.238 0 .37 0 .743.124 1.115h2.848zm2.973-.001H38.63V15.837h2.962zm4.952-2.353v-1.857h1.238c.248 0 .62 0 .867.123.372.124.62.495.62.743 0 .372-.248.62-.495.743-.248.248-.62.248-.867.248h-1.362zm-2.962 2.353h4.83c.867 0 1.98 0 2.848-.62.743-.495 1-1.6 1-2.477 0-1.238-.743-2.104-1.98-2.352 1.115-.248 1.733-1.238 1.733-2.23 0-.866-.37-1.733-1.114-2.23-.62-.495-1.362-.62-2.228-.62h-5.089zm2.972-6.44v-1.734h1.228c.62 0 1.238 0 1.238.867a.68.68 0 0 1-.372.619c-.124.248-.495.248-.867.248zm10.76 2.974c0 .743 0 1.734-1.238 1.734-.496 0-.743-.248-.743-.743 0-.867 1.238-1.115 1.98-1.238v.248zm3.095 3.467c-.248-.62-.248-1.115-.248-1.733v-2.724c0-1.115.124-2.106-.867-2.847-.743-.495-1.98-.62-2.848-.62-1.733 0-3.6.495-4.086 2.352l2.848.248c0-.618.495-.866 1.114-.866.743 0 1 .37 1 1v.123c-1.114 0-2.104.124-3.095.495-1.114.248-1.98 1.115-1.98 2.353 0 1.6 1.238 2.352 2.6 2.352 1.114 0 1.98-.372 2.6-1.238 0 .37 0 .743.124 1.115h2.847z"/><path d="M62.392 23.762c.124.743 1 .868 1.733.868.248 0 1.114 0 1.114-.495 0-.372-1.114-.495-1.36-.495-1.6-.248-3.467-.495-3.467-2.6 0-.866.372-1.6 1.115-1.98.743-.495 1.6-.62 2.476-.62 1.485 0 3.095.495 3.6 1.98l-2.353.495c-.248-.62-.743-.743-1.36-.743-.248 0-1 .123-1 .37s.37.372.495.495c.37 0 1 .124 1.36.124.62.123 1.486.248 2.105.62s1.114 1.115 1.114 1.98c0 2.106-2.353 2.724-4.086 2.724s-3.343-.618-3.838-2.352z"/><path d="M67.849 18.562h2.97v7.8h-2.97zm0-2.848h2.97v2.105h-2.97zm10.896 7.677c-.248 1.98-1.733 3.095-3.714 3.095-1.114 0-1.98-.248-2.848-1.114-.743-.743-1.115-1.858-1.115-2.972 0-2.23 1.6-3.962 3.962-3.962 1.98 0 3.467 1.115 3.714 3.095l-2.723.124c-.125-.62-.248-1.115-.867-1.115-1 0-1 1.238-1 1.858 0 .743 0 1.98 1 1.98.742 0 .867-.62 1-1.238zM.867 6.305v6.686H0V5.314h1.486l2.228 6.2 2.352-6.2h1.362v7.677h-1V6.305l-2.466 6.686h-.62L.866 6.305zm8.048 1h.867V13h-.867zm-.124-1.98h1v1h-1zm6.438 5.808c-.124 1.114-.867 1.98-2.105 1.98-1.734 0-2.476-1.486-2.476-2.97s.743-2.97 2.476-2.97c1.238 0 1.98.867 2.105 1.98l-.743.124c-.124-.743-.495-1.362-1.362-1.362-1.238 0-1.486 1.238-1.486 2.23 0 .867.248 2.23 1.486 2.23.743 0 1.238-.62 1.362-1.362zm1.6-3.838v1.362h.124c.248-.743.743-1.485 1.6-1.485h.372v.867h-.248c-.62 0-1.114.37-1.486.867-.124.495-.248.743-.248 1.238v2.848h-.867V7.297zm4.715 5.077c-.495 0-1-.248-1.238-.743-.248-.372-.372-1-.372-1.486s.124-1 .248-1.486c.248-.495.743-.743 1.362-.743.495 0 1 .248 1.238.62a3.82 3.82 0 0 1 .37 1.61c0 .496-.124 1-.37 1.486s-.743.743-1.238.743zm-.124.743c1.733 0 2.6-1.362 2.6-2.97 0-1.486-.743-2.97-2.476-2.97-1.6 0-2.6 1.362-2.6 2.97 0 1.486.743 2.97 2.476 2.97zm4.086-1.734c.124.743 1 1 1.733 1 .62 0 1.362-.248 1.362-.867s-.62-.867-1.115-.867l-.867-.248c-.867-.124-1.733-.495-1.733-1.485 0-1.238 1.114-1.733 2.105-1.733 1.115 0 1.98.37 2.23 1.485l-.743.124c-.248-.62-.867-.867-1.486-.867-.495 0-1.238.124-1.238.867 0 .495.62.743 1.114.743l.743.124c.495.124.867.248 1.238.495.495.248.62.743.62 1.238 0 1.238-1.238 1.733-2.352 1.733s-2.105-.495-2.476-1.6zm7.18 1c-.495 0-1-.248-1.238-.743-.248-.372-.372-1-.372-1.486s.124-1 .248-1.486c.248-.495.743-.743 1.362-.743.495 0 1 .248 1.238.62a3.82 3.82 0 0 1 .37 1.61c0 .496-.124 1-.37 1.486s-.62.743-1.238.743zm-.124.743c1.734 0 2.724-1.362 2.724-2.97 0-1.486-.867-2.97-2.6-2.97-1.6 0-2.6 1.362-2.6 2.97 0 1.486.867 2.97 2.476 2.97zm6.2-5.078h-1.37v4.953h-.867V8.037h-1v-.743h1c-.124-1.115.372-2.23 1.733-2.105l.743.124v.743c-.248-.124-.495-.124-.743-.124-.867 0-.867.743-.867 1.362h1.362v.743z"/><path d="M41.849 13.114h-.857c-1.237 0-1.6-.743-1.6-1.857v-3.22h-1v-.743h1V5.932l.867-.124v1.486h1.362v.743h-1.362v3.343c0 .743.248 1 1 1h.62zm64.63 0v6.562l-7.8-4.2V9.41z"/></g><path d="M106.232 13.487v5.2l-6.933-3.714v-4.83z" fill="#952781"/><path d="M113.66 9.771l-6.8 3.6-8.17-3.962 7.428-3.22z" fill="#000"/><path d="M112.422 9.895l-5.82 2.97-6.686-3.343 6.067-2.6z" fill="#952781"/><path d="M113.784 16.087l-.124-6.314-7.305 3.467.123 6.438z" fill="#000"/><path d="M113.042 15.714V10.39l-5.943 3.096v5.2z" fill="#952781"/><path d="M95.335 6.8v6.562l-7.8-4.2V3.087z" fill="#000"/><path d="M95.088 7.171v5.324l-6.933-3.838v-4.83z" fill="#6483c0"/><path d="M102.517 3.457l-6.8 3.6-8.17-3.962L94.975 0z" fill="#000"/><path d="M101.279 3.581l-5.82 2.972-6.686-3.343L94.84.61z" fill="#6483c0"/><path d="M102.642 9.771l-.125-6.314-7.305 3.466.124 6.438z" fill="#000"/><path d="M101.898 9.4V4.2l-5.943 2.972v5.2z" fill="#6483c0"/><path d="M84.564 12.743l.124 6.563-7.8-4.2V9.039z" fill="#000"/><path d="M84.44 13.114v5.2l-6.934-3.715v-4.83z" fill="#d87b30"/><path d="M91.869 9.4L84.936 13l-8.048-3.962 7.428-3.22z" fill="#000"/><path d="M90.632 9.524l-5.82 2.972-6.8-3.343 6.2-2.6z" fill="#d87b30"/><path d="M91.992 15.714L91.868 9.4l-7.305 3.466.124 6.44z" fill="#000"/><path d="M91.25 15.343l-.124-5.324-5.943 3.095.124 5.2z" fill="#d87b30"/><path d="M95.832 13.61l.124 6.685-7.8-4.333V9.897z" fill="#000"/><path d="M95.707 13.981v5.324l-6.934-3.715v-4.953z" fill="#e0d400"/><path d="M103.136 10.257l-6.944 3.6-8.047-3.962L95.573 6.8z" fill="#000"/><path d="M101.898 10.514l-5.943 2.848-6.686-3.22 6.2-2.6z" fill="#e0d400"/><path d="M103.136 16.581v-6.324l-7.305 3.467.124 6.562z" fill="#000"/><path d="M102.517 16.333l-.124-5.324-5.943 2.972.124 5.2z" fill="#e0d400"/><path d="M42.915 33.25v-3.525h-.566v-.566h.566v-.194c0-.575.135-1.1.482-1.43a1.42 1.42 0 0 1 .99-.38c.27 0 .5.06.634.118l-.093.575c-.118-.05-.262-.093-.482-.093-.626 0-.794.558-.794 1.183v.22h1v.566h-.98v3.525zm4.175.093c-1.1 0-1.96-.8-1.96-2.104 0-1.37.904-2.172 2.028-2.172 1.175 0 1.97.853 1.97 2.096 0 1.52-1.057 2.18-2.03 2.18zm.025-.557c.7 0 1.243-.668 1.243-1.597 0-.694-.347-1.564-1.226-1.564-.87 0-1.25.8-1.25 1.6 0 .896.507 1.572 1.226 1.572h.008zm3.17-2.35l-.034-1.276h.641l.034.803h.025c.186-.55.643-.896 1.14-.896.076 0 .135.008.203.025v.693l-.262-.017c-.524 0-.896.398-.997.947a2.38 2.38 0 0 0-.025.356v2.18h-.743zm5.907 1.021l-.6 1.792h-.76l1.935-5.697h.888l1.945 5.697h-.786l-.592-1.792zm1.87-.575l-.566-1.64-.288-1.04h-.016l-.28 1.03-.558 1.648h1.716zm2.554-.388l-.034-1.335h.667l.042.702h.016c.296-.508.786-.794 1.446-.794.997 0 1.74.836 1.74 2.08 0 1.47-.904 2.198-1.86 2.198-.55 0-1.014-.236-1.26-.642h-.017v2.223h-.743v-4.43zm.743 1.1c0 .1.01.2.034.304a1.14 1.14 0 0 0 1.107.87c.786 0 1.243-.643 1.243-1.58 0-.82-.422-1.522-1.208-1.522a1.18 1.18 0 0 0-1.133.913c-.017.102-.043.2-.043.304zm4.278-1.1l-.034-1.335h.668l.043.702h.016c.296-.508.786-.794 1.446-.794.997 0 1.74.836 1.74 2.08 0 1.47-.904 2.198-1.86 2.198-.55 0-1.014-.236-1.26-.642h-.017v2.223h-.744v-4.43zm.744 1.1c-.001.102.01.204.033.304a1.14 1.14 0 0 0 1.107.87c.786 0 1.243-.643 1.243-1.58 0-.82-.422-1.522-1.208-1.522a1.18 1.18 0 0 0-1.133.913c-.017.102-.042.2-.042.304zm4.277-4.337h.743v6.002h-.743zm2.534 1.16c-.278 0-.465-.22-.465-.482s.194-.473.48-.473a.45.45 0 0 1 .473.473.46.46 0 0 1-.482.482zm-.355 4.844v-4.1h.744v4.1zm5.115-.154c-.194.093-.626.236-1.175.236-1.234 0-2.037-.836-2.037-2.096s.862-2.18 2.198-2.18c.44 0 .83.1 1.03.22l-.17.567c-.178-.094-.457-.195-.862-.195-.94 0-1.445.702-1.445 1.556 0 .947.608 1.53 1.42 1.53a2.13 2.13 0 0 0 .913-.194zm3.973-.837c0 .355.017.702.06.98h-.667l-.068-.516h-.025c-.22.32-.667.608-1.25.608-.828 0-1.25-.583-1.25-1.175 0-1 .88-1.53 2.46-1.522v-.084c0-.338-.094-.955-.93-.947a1.97 1.97 0 0 0-1.073.304l-.17-.5c.338-.2.836-.355 1.352-.355 1.26 0 1.564.853 1.564 1.673zm-.727-1.107c-.812-.017-1.733.127-1.733.92 0 .5.32.7.694.7.54 0 .888-.338 1.006-.684.025-.076.034-.16.034-.237zm2.994-2.986v.98h1.065v.566h-1.065v2.206c0 .507.143.795.557.795a1.41 1.41 0 0 0 .43-.05l.034.566c-.144.05-.372.1-.66.1-.347 0-.626-.118-.803-.312-.203-.23-.288-.592-.288-1.074v-2.23h-.634v-.567h.634v-.753zm2.467.23c-.28 0-.465-.22-.465-.482s.194-.473.48-.473a.45.45 0 0 1 .474.473.46.46 0 0 1-.482.482zm-.355 4.844v-4.1h.743v4.1zm3.855.092c-1.1 0-1.96-.8-1.96-2.104 0-1.37.904-2.172 2.03-2.172 1.175 0 1.97.853 1.97 2.096 0 1.52-1.057 2.18-2.028 2.18zm.025-.557c.7 0 1.242-.668 1.242-1.597 0-.694-.346-1.564-1.225-1.564-.87 0-1.25.8-1.25 1.6 0 .896.507 1.572 1.226 1.572h.008zm3.162-2.52l-.034-1.1h.66l.042.668h.017c.203-.38.676-.76 1.353-.76.567 0 1.445.338 1.445 1.74v2.443h-.743v-2.358c0-.66-.245-1.218-.947-1.218-.482 0-.862.347-.997.76a1.11 1.11 0 0 0-.05.347v2.48h-.743v-3zm4.8 2.23c.228.135.617.287 1 .287.532 0 .786-.262.786-.6 0-.355-.2-.55-.753-.752-.744-.27-1.1-.668-1.1-1.158 0-.66.54-1.2 1.412-1.2.414 0 .777.1.997.253l-.177.533a1.66 1.66 0 0 0-.837-.237c-.44 0-.676.254-.676.557 0 .347.237.5.77.702.702.262 1.074.617 1.074 1.235 0 .727-.566 1.234-1.52 1.234-.448 0-.862-.118-1.15-.287z" fill="#000" fill-rule="nonzero"/></g></symbol></svg>